<svg width="1888" height="375" viewBox="0 0 1888 375" fill="none" xmlns="http://www.w3.org/2000/svg">
<g clip-path="url(#clip0)">
<path d="M1575.76 378.273C1575.67 375.578 1575.65 372.881 1575.7 370.186C1575.71 369.564 1576.36 359.037 1575.77 358.953C1574.85 358.821 1572.39 358.652 1572.37 358.824C1571.79 364.725 1571.93 371.193 1571.36 377.097C1571.33 377.488 1571.29 377.879 1571.26 378.273H1575.76Z" fill="#B38050"/>
<path d="M1624.47 334.237C1620.55 334.049 1617.49 335.874 1613.84 337.306C1608.85 339.261 1604.24 342.181 1599.83 345.273C1600.02 345.107 1600.21 344.941 1600.4 344.775C1603.63 341.894 1606.92 339.017 1609.84 335.804C1612.72 332.628 1615.31 329.154 1617.81 325.666C1619.75 322.945 1621.69 320.459 1622.7 317.255C1623.59 314.425 1620.11 314.214 1618.99 314.782C1617.9 315.339 1615.88 316.861 1615 317.708C1610.72 321.876 1606.18 325.784 1601.91 329.975C1599.15 332.69 1596.44 335.469 1593.94 338.431C1593.63 338.803 1593.32 339.18 1593.02 339.557C1594.83 336.611 1596.64 333.66 1598.33 330.645C1602.8 322.656 1605.68 313.887 1608.51 305.22C1609.26 302.942 1609.96 300.649 1610.46 298.306C1610.63 297.515 1611.36 295.414 1609.87 295.504C1608.19 295.605 1606.46 297.625 1605.41 298.731C1604.04 300.165 1602.76 301.693 1601.59 303.291C1599.14 306.635 1597.1 310.273 1595.31 314.014C1594.34 316.059 1584.41 331.483 1584.41 331.483C1584.41 331.483 1585.9 321.601 1587.26 312.321C1587.85 308.298 1588.66 304.312 1589.27 300.292C1589.85 296.514 1590.24 292.691 1590.12 288.862C1590.07 286.949 1590.19 285.003 1589.53 283.171C1589.44 282.918 1589.33 282.659 1589.13 282.474C1588.71 282.071 1588.19 282.297 1587.79 282.603C1586.45 283.647 1585.94 285.903 1585.33 287.43C1584.63 289.208 1583.97 291.003 1583.35 292.815C1582.16 296.317 1581.1 299.937 1580.19 303.476C1578.52 309.927 1577.31 316.487 1576.56 323.103C1576.14 321.162 1575.69 319.224 1575.34 317.269C1574.55 312.802 1574.04 308.292 1573.32 303.814C1572.1 296.196 1570.73 287.861 1566.06 281.562C1565.52 280.828 1563.69 279.478 1562.74 280.212C1561.72 280.997 1561.67 283.084 1561.81 284.122C1562.02 285.788 1562.24 287.453 1562.46 289.118C1562.91 292.449 1563.98 295.695 1564.44 299.023C1565.5 306.706 1566.57 314.388 1567.63 322.073C1566.59 319.274 1565.38 316.54 1564.13 313.828C1563.85 313.209 1563.57 312.593 1563.29 311.977C1559.75 304.32 1557.24 295.183 1552.3 288.319C1551.23 286.831 1548.15 286.93 1548.14 289.056C1548.12 292.013 1549.02 295.102 1549.66 297.971C1550.36 301.091 1551.16 304.191 1551.99 307.277C1552.93 310.737 1553.98 314.166 1555.13 317.564C1552.59 314.014 1549.89 310.579 1547.01 307.294C1545.46 305.516 1543.93 303.696 1542.17 302.106C1541.31 301.33 1537.03 296.944 1536.05 299.462C1535.6 300.61 1536.5 302.551 1536.9 303.625C1537.55 305.417 1538.25 307.192 1538.99 308.948C1540.47 312.464 1542.11 315.91 1543.91 319.272C1546.13 323.421 1548.58 327.438 1551.26 331.303C1550.4 330.493 1549.52 329.691 1548.64 328.901C1545.15 325.778 1541.53 322.805 1537.79 319.997C1534.94 317.857 1531.97 315.792 1528.65 314.436C1527.2 313.845 1525.37 313.35 1525.57 315.578C1525.69 316.861 1525.81 317.865 1526.34 318.934C1527.26 320.81 1529.35 322.692 1530.72 324.27C1533.41 327.37 1536.49 330.164 1539.4 333.053C1542.21 335.835 1545.01 338.609 1547.97 341.233C1551.82 344.657 1555.86 347.864 1559.96 350.986C1558.02 349.827 1556.06 348.699 1554.1 347.58C1547.59 343.855 1541.24 340.001 1533.93 338.069C1530.43 337.146 1526.84 336.566 1523.24 336.279C1522.44 336.215 1521.17 336.097 1520.7 336.943C1520.12 337.987 1521.64 338.783 1522.3 339.244C1528.33 343.487 1535.48 346.167 1542.13 349.251C1545.68 350.891 1549.17 352.607 1552.6 354.48C1553.95 355.22 1555.29 355.96 1556.67 356.655C1555.6 356.522 1554.53 356.404 1553.46 356.297C1547.4 355.698 1541.1 354.891 1535.02 355.619C1533.56 355.794 1531.94 355.982 1530.57 356.539C1529.91 356.809 1529.36 357.234 1529.37 358.002C1529.4 360.393 1533.33 360.244 1534.9 360.455C1540.49 361.206 1546.1 361.952 1551.74 362.191C1546.67 364.27 1542.01 367.35 1538.61 371.713C1538.45 371.918 1538.43 372.233 1538.7 372.377C1541.06 373.662 1544.43 372.883 1546.92 372.337C1550.15 371.634 1553.24 370.433 1556.22 369.032C1557.41 368.472 1558.58 367.876 1559.75 367.263C1558.89 368.25 1558.09 369.311 1557.5 370.45C1557.07 371.26 1555.99 373.435 1556.96 374.188C1557.4 374.532 1557.88 374.287 1558.3 374.07C1559.3 373.561 1560.26 372.712 1561.16 372.051C1562.94 370.751 1564.69 369.398 1566.39 367.997C1568.42 366.312 1570.2 363.873 1572.87 363.15C1576.8 362.087 1578.84 365.209 1580.83 367.932C1582.08 369.651 1584.05 372.968 1586.64 372.329C1589.26 371.685 1586.83 367.673 1585.97 366.492C1585.89 366.377 1585.8 366.264 1585.71 366.152C1586.78 366.844 1587.9 367.474 1589.1 367.974C1594 370.014 1598.64 372.529 1603.82 373.64C1604.97 373.887 1606.18 374.259 1607.36 374.352C1607.88 374.394 1608.4 374.335 1608.75 373.89C1609.63 372.762 1608.36 371.204 1607.63 370.399C1604.89 367.392 1595.26 363.164 1595.26 363.164C1595.26 363.164 1596.92 363.052 1597.76 362.978C1601.88 362.627 1606 362.275 1610.12 361.921C1611.79 361.777 1613.5 361.735 1615.13 361.291C1616.19 361.004 1618.09 360.385 1618.67 359.358C1619.69 357.544 1614.13 356.494 1613.14 356.289C1608.67 355.363 1604.11 355.867 1599.67 356.671C1597.22 357.113 1594.79 357.594 1592.35 358.089C1598.53 355.451 1604.42 352.151 1610.18 348.702C1613.4 346.772 1616.67 344.871 1619.7 342.645C1622.21 340.803 1624.74 338.727 1625.58 335.599C1625.81 334.729 1625.31 334.277 1624.47 334.237Z" fill="#995055"/>
<path d="M1569 360.587C1566.43 362.317 1563.93 364.14 1561.5 366.05C1561.07 366.385 1561.67 366.979 1562.09 366.647C1564.47 364.782 1566.92 363.007 1569.42 361.316C1569.87 361.015 1569.45 360.284 1569 360.587Z" fill="#873D42"/>
<path d="M1566.69 359.645C1564.46 359.808 1562.22 359.969 1559.98 360.132C1559.16 360.191 1558.33 360.233 1557.51 360.357C1556.43 360.52 1555.41 360.928 1554.31 360.99C1553.77 361.021 1553.77 361.865 1554.31 361.834C1555.12 361.789 1555.85 361.578 1556.63 361.389C1557.73 361.122 1558.85 361.054 1559.98 360.973C1562.22 360.81 1564.46 360.649 1566.69 360.486C1567.23 360.452 1567.24 359.606 1566.69 359.645Z" fill="#873D42"/>
<path d="M1564.58 356.43C1562.71 356.489 1560.83 356.548 1558.96 356.607C1558.42 356.624 1558.42 357.468 1558.96 357.451C1560.83 357.392 1562.71 357.333 1564.58 357.273C1565.12 357.257 1565.13 356.413 1564.58 356.43Z" fill="#873D42"/>
<path d="M1564.11 352.708C1562.65 351.912 1561.2 351.113 1559.75 350.317C1559.27 350.055 1558.84 350.784 1559.32 351.045C1560.78 351.841 1562.23 352.64 1563.68 353.436C1564.16 353.698 1564.58 352.97 1564.11 352.708Z" fill="#873D42"/>
<path d="M1571.75 357.918C1566.15 348.936 1559.81 340.44 1552.8 332.519C1552.44 332.111 1551.84 332.71 1552.2 333.115C1559.17 340.986 1565.46 349.422 1571.02 358.345C1571.31 358.804 1572.04 358.379 1571.75 357.918Z" fill="#873D42"/>
<path d="M1573.97 354.638C1568.63 342.572 1562.74 330.757 1556.33 319.227C1556.06 318.751 1555.34 319.176 1555.6 319.651C1562.02 331.182 1567.9 342.997 1573.25 355.062C1573.47 355.56 1574.19 355.133 1573.97 354.638Z" fill="#873D42"/>
<path d="M1573 344.544C1571.37 337.52 1569.74 330.499 1568.1 323.474C1567.98 322.946 1567.16 323.171 1567.29 323.699C1568.92 330.724 1570.56 337.745 1572.19 344.769C1572.32 345.298 1573.13 345.076 1573 344.544Z" fill="#873D42"/>
<path d="M1576.97 323.981C1576.99 323.438 1576.15 323.438 1576.12 323.981C1575.75 332.133 1575.63 340.294 1575.75 348.455C1575.76 348.997 1576.61 348.997 1576.6 348.455C1576.47 340.297 1576.59 332.133 1576.97 323.981Z" fill="#873D42"/>
<path d="M1583.31 332.608C1579.4 341.312 1576.17 350.303 1573.68 359.513C1573.53 360.039 1574.35 360.261 1574.49 359.738C1576.97 350.601 1580.16 341.672 1584.03 333.036C1584.25 332.544 1583.53 332.113 1583.31 332.608Z" fill="#873D42"/>
<path d="M1598.54 344.404L1580.21 354.165C1580.18 354.176 1580.16 354.193 1580.14 354.207C1583.99 349.703 1587.93 345.284 1591.98 340.958C1592.35 340.561 1591.75 339.962 1591.38 340.361C1586.47 345.608 1581.71 350.983 1577.1 356.491C1576.76 356.905 1577.35 357.504 1577.7 357.088C1578.47 356.165 1579.25 355.251 1580.03 354.337C1579.88 354.646 1580.24 355.105 1580.63 354.894C1586.74 351.639 1592.85 348.387 1598.96 345.132C1599.44 344.876 1599.01 344.148 1598.54 344.404Z" fill="#873D42"/>
<path d="M1589.51 357.783C1585.09 358.759 1580.62 359.49 1576.12 359.966C1575.58 360.022 1575.58 360.866 1576.12 360.81C1580.7 360.326 1585.24 359.589 1589.74 358.596C1590.27 358.478 1590.05 357.665 1589.51 357.783Z" fill="#873D42"/>
<path d="M1593.11 361.555C1590.32 360.77 1587.47 360.43 1584.57 360.537C1584.03 360.556 1584.02 361.4 1584.57 361.381C1587.4 361.277 1590.16 361.603 1592.89 362.368C1593.41 362.514 1593.63 361.701 1593.11 361.555Z" fill="#873D42"/>
<path d="M1586.45 365.128C1584.28 363.848 1582 362.857 1579.6 362.146C1579.07 361.991 1578.85 362.807 1579.37 362.959C1581.71 363.648 1583.92 364.613 1586.02 365.856C1586.49 366.135 1586.92 365.406 1586.45 365.128Z" fill="#873D42"/>
<path d="M559.688 374.983C559.503 372.018 559.013 368.991 557.998 366.296C556.512 362.347 553.601 359.835 550.045 357.745C546.188 355.477 542.053 353.356 539.361 349.646C537.8 347.494 537.24 344.903 536.07 342.557C535.195 340.799 533.895 339.285 532.328 338.106C531.18 337.243 529.912 336.576 528.576 336.112C529.67 327.591 529.557 318.986 526.936 310.676C523.146 298.676 513.751 288.894 501.714 285.032C497.46 283.668 493.001 283.066 488.562 283.201C488.174 283.074 487.783 282.914 487.603 282.635C487.384 282.289 487.406 281.465 487.319 281.049C487.06 279.794 486.723 278.554 486.312 277.338C484.804 272.874 482.326 268.711 479.004 265.36C475.799 262.128 471.751 259.678 467.29 258.674C464.373 258.018 461.472 257.892 458.882 256.229C456.583 254.752 454.76 252.67 452.713 250.887C444.386 243.646 432.999 245.756 423.203 248.215C416.995 249.773 410.722 251.205 404.567 252.969C402.19 253.649 399.804 254.533 397.846 256.083C396.021 257.529 394.831 259.498 393.99 261.641C392.147 266.351 391.551 271.271 387.55 274.793C384.093 277.836 379.674 279.493 375.758 281.828C372.031 284.05 369.012 286.903 367.564 291.086C366.385 294.484 366.157 298.259 365.147 301.731C361.397 302.915 357.746 304.397 354.277 306.262C347.546 309.877 342.077 314.868 337.841 321.214C335.438 324.812 333.126 328.444 329.649 331.113C326.341 333.651 322.473 335.324 318.596 336.787C311.806 339.347 304.531 341.437 299.026 346.419C296.457 348.743 294.775 351.539 293.504 354.735C292.789 356.524 292.128 358.377 291.025 359.975C289.754 361.818 287.934 362.707 285.979 363.666C284.212 364.53 282.873 365.652 281.568 367.112C280.066 368.789 278.606 370.198 276.42 370.904C272.681 372.111 268.684 371.782 265.021 373.351C264.006 373.788 262.979 374.336 262 374.98H559.688V374.983Z" fill="#3E7528"/>
<path d="M1477.52 348.67C1477.5 348.568 1477.47 348.47 1477.43 348.366C1476.7 346.551 1473.56 348.2 1472.38 348.703C1470.64 349.44 1469.02 350.493 1467.63 351.767C1466.67 352.65 1465.94 353.753 1464.53 353.91C1463.47 354.029 1462.41 353.809 1461.37 354.082C1459.62 354.543 1458.31 355.941 1457.44 357.463C1456.34 359.359 1455.99 361.857 1454.33 363.376C1453.45 364.187 1452.28 364.524 1451.09 364.836C1450.05 365.106 1448.98 365.36 1448.08 365.9C1447.32 366.361 1446.65 366.924 1446.09 367.557C1446.52 366.668 1447.03 365.81 1447.58 364.969C1448.77 363.151 1450.14 361.413 1451.27 359.618C1453.88 355.5 1454.22 351.235 1453.96 346.467C1453.83 344.073 1453.63 341.662 1453.87 339.268C1454.14 336.708 1455.07 334.444 1456.35 332.233C1457.43 330.345 1458.65 328.522 1459.48 326.503C1460.38 324.317 1460.6 322.072 1460.32 319.732C1460.01 317.217 1459.26 314.781 1458.98 312.263C1458.84 310.98 1458.82 309.672 1459.09 308.403C1459.32 307.286 1460.25 306.206 1460.34 305.118C1460.55 302.403 1455.33 306.597 1454.69 307.191C1452.85 308.887 1451.35 310.941 1450.41 313.273C1449.26 316.162 1449.4 318.893 1449.74 321.929C1449.92 323.557 1449.95 325.152 1449.4 326.719C1448.86 328.261 1447.92 329.625 1447 330.964C1446.26 332.056 1445.58 333.172 1445.01 334.317C1443.07 338.149 1442.17 342.278 1442.92 346.76C1443.43 349.831 1445.15 352.878 1444.8 356.054C1444.47 359.14 1441.69 361.258 1440.83 364.192C1440.18 366.389 1440.21 368.561 1440.72 370.629C1440.57 370.322 1440.42 370.015 1440.27 369.709C1438.88 366.822 1438.28 363.911 1438.5 360.707C1438.59 359.379 1438.9 358.029 1439.16 356.679C1439.47 355.131 1439.72 353.581 1439.53 352.051C1439.17 349.142 1437.14 346.9 1437.19 343.856C1437.28 338.439 1440.96 333.572 1438.74 328.145C1437.19 324.351 1434.02 321.54 1432.18 317.911C1431.7 316.961 1431.32 315.948 1431.15 314.89C1430.95 313.664 1431.24 312.42 1431.04 311.202C1430.8 309.734 1429.28 308.142 1427.77 309.219C1427.18 309.633 1426.87 310.322 1426.63 310.974C1426.12 312.392 1425.8 313.917 1425.48 315.391C1424.9 318.058 1424.4 320.868 1424.43 323.608C1424.45 326.047 1425.25 328.092 1426.52 330.134C1428.07 332.615 1429.48 334.818 1428.79 337.867C1428.5 339.153 1428.07 340.377 1427.68 341.614C1427.32 342.728 1427 343.851 1426.85 345.041C1426.56 347.286 1426.63 349.618 1427.28 351.798C1428.02 354.265 1429.46 356.057 1431.29 357.812C1432.69 359.16 1433.61 360.487 1433.86 362.465C1433.92 362.884 1433.95 363.309 1434 363.731C1433.66 363.376 1433.32 363.03 1432.97 362.698C1431.44 361.258 1429.72 360.018 1427.84 358.915C1426.06 357.866 1424.13 356.794 1422.94 355.038C1421.85 353.413 1421.65 351.351 1420.82 349.595C1419.33 346.473 1416.6 343.966 1413.37 342.751C1411.24 341.955 1408.86 341.828 1406.89 340.633C1405 339.485 1403.7 337.659 1403.13 335.53C1403.06 335.271 1402.74 335.133 1402.51 335.277C1399.81 336.962 1400.67 341.426 1401.73 343.837C1402.39 345.35 1403.4 346.681 1404.74 347.654C1406.3 348.779 1408.14 349.387 1409.78 350.349C1413.42 352.481 1413.76 356.445 1415.15 360.032C1415.79 361.683 1416.72 362.926 1417.89 363.905C1419.21 365.019 1420.84 365.793 1422.68 366.44C1424.46 367.062 1426.3 367.472 1428.16 367.697C1426.69 367.9 1425.26 368.178 1423.97 368.437C1421.99 368.837 1419.86 369.357 1417.89 368.839C1417.53 368.747 1417.19 368.62 1416.84 368.454C1415.16 367.638 1413.76 366.31 1412.15 365.379C1409.22 363.694 1406.1 362.51 1402.84 363.973C1400.87 364.862 1399.23 365.306 1397.05 365.433C1396.2 365.481 1394.14 365.188 1394.01 366.471C1393.9 367.498 1395.22 368.744 1395.89 369.368C1396.96 370.367 1398.26 371.118 1399.66 371.526C1401.43 372.038 1403.24 371.863 1405.04 371.793C1407.13 371.712 1408.75 372.074 1410.52 372.918C1410.74 373.028 1410.98 373.146 1411.21 373.273C1412.64 374.032 1414.11 374.62 1415.61 375H1423.68C1425 374.727 1426.32 374.409 1427.66 374.204C1430.04 373.841 1432.1 374.111 1434.2 375H1447.53C1448.15 374.3 1448.87 373.678 1449.68 373.163C1451.62 371.931 1453.86 371.644 1456.06 371.191C1457.77 370.837 1459.52 370.328 1460.9 369.202C1462.3 368.057 1462.67 366.415 1463.64 364.963C1464.8 363.236 1466.56 362.001 1468.44 361.171C1469.89 360.535 1471.54 360.215 1472.54 358.876C1473.67 357.368 1474.03 355.264 1474.71 353.539C1474.76 353.398 1474.82 353.263 1474.88 353.123C1475.43 351.809 1477.84 350.324 1477.52 348.67Z" fill="#508C42"/>
<path d="M1482.98 351.024C1483.44 353.736 1484.18 356.361 1485.05 358.965C1485.53 360.431 1485.83 361.753 1485.53 363.295C1485.3 364.521 1485.07 365.663 1485.16 366.924C1485.34 369.301 1486.33 371.571 1488 373.278C1488.65 373.942 1489.4 374.519 1490.21 374.983H1508.49C1509.29 374.052 1510.19 373.312 1511.28 372.682C1513.37 371.467 1515.73 370.679 1517.59 369.081C1518.95 367.911 1520.07 366.215 1520.07 364.361C1520.07 362.516 1518.79 362.44 1517.27 362.687C1514.9 363.07 1512.6 363.894 1510.52 365.09C1508.36 366.336 1506.6 368.609 1504.2 369.354C1502.29 369.945 1500.4 370.049 1498.63 370.834C1498.93 370.505 1499.22 370.173 1499.51 369.832C1500.49 368.665 1501.24 367.486 1501.86 366.22C1502.32 365.284 1502.71 364.296 1503.07 363.233C1503.65 361.52 1504.56 360.141 1506.15 359.21C1507.41 358.47 1508.87 358.107 1510.08 357.264C1512 355.919 1512.81 353.685 1513.27 351.474C1513.92 348.363 1514.46 345.142 1514.84 341.989C1514.93 341.294 1514.99 340.166 1514.35 339.659C1513.7 339.142 1513.02 339.685 1512.44 340.067C1512.05 340.32 1511.68 340.593 1511.32 340.883C1509.75 342.138 1508.43 343.707 1507.48 345.471C1506.17 347.871 1505.81 350.549 1505.05 353.134C1504.51 354.991 1503.69 356.552 1502.31 357.916C1501.21 358.991 1499.97 359.911 1499 361.103C1498.07 362.246 1497.39 363.548 1496.98 364.929C1496.81 364.063 1496.64 363.199 1496.55 362.319C1496.36 360.319 1496.87 358.499 1497.69 356.693C1499 353.792 1500.55 351.156 1500.79 347.907C1501.03 344.74 1499.95 342.318 1498.18 339.78C1497.36 338.593 1496.47 337.389 1496.04 335.994C1496.01 335.901 1495.98 335.808 1495.96 335.718C1495.51 333.977 1495.93 332.193 1495.78 330.421C1495.73 329.735 1495.65 328.655 1494.83 328.399C1493.83 328.086 1493.16 329.302 1492.74 329.991C1491.23 332.483 1490.5 335.459 1490.64 338.365C1490.72 340.163 1491.22 341.809 1491.82 343.429C1492.32 344.74 1492.88 346.034 1493.34 347.381C1494.04 349.387 1494.26 351.305 1493.74 353.384C1493.32 355.047 1492.64 356.642 1492.39 358.347C1491.98 361.205 1492.7 364.004 1493.33 366.794C1492.68 365.796 1491.9 364.876 1491.19 363.877C1490.35 362.696 1489.77 361.48 1489.69 360.012C1489.61 358.611 1489.89 357.216 1489.9 355.815C1489.91 353.638 1489.22 351.511 1487.92 349.761C1487.11 348.667 1485.34 346.602 1483.75 346.914C1482.62 347.134 1482.51 348.158 1482.63 349.201C1482.71 349.871 1482.89 350.549 1482.98 351.024Z" fill="#679431"/>
<path d="M51.032 204.755C46.5592 198.15 36.8063 195.002 29.8046 199.599C27.7763 200.93 26.2291 202.84 24.6791 204.674C23.0053 206.654 21.3456 208.643 19.7619 210.697C16.78 214.565 14.0513 218.683 12.2425 223.24C10.3043 228.124 9.93298 233.167 9.90485 238.369C9.87391 243.88 10.0117 249.641 7.54187 254.718C5.72462 258.454 2.88904 261.456 0.059082 264.457V314.854C0.213801 314.733 0.365707 314.615 0.509174 314.505C2.40519 313.045 4.12116 311.363 5.69086 309.559C12.6842 301.517 16.6759 291.272 24.3416 283.763C27.9085 280.27 31.9734 277.187 34.4208 272.733C36.7725 268.452 37.6446 263.585 38.4998 258.831C39.4225 253.706 40.4971 248.755 42.8629 244.074C45.1893 239.472 48.1824 235.246 50.5763 230.681C54.779 222.661 56.4106 212.7 51.032 204.755Z" fill="#508C42"/>
<path d="M0.0562744 317.726C0.146293 317.512 0.236311 317.298 0.32633 317.087C0.441666 316.811 0.270068 316.558 0.0562744 316.471V317.726Z" fill="#7FBD77"/>
<path d="M97.8726 354.541C94.6657 351.542 89.6134 350.777 85.4332 350.298C80.5862 349.744 75.638 349.694 70.9458 348.22C66.1298 346.706 62.7175 343.62 60.2561 339.271C58.0872 335.437 56.5963 331.231 54.0645 327.602C51.7634 324.3 48.7619 321.526 45.3693 319.371C31.5008 310.567 13.7728 313.104 0.059082 321.158V341.997C3.68795 343.747 7.94976 344.256 11.8881 344.638C16.9432 345.131 22.0461 345.187 27.0646 346.006C31.9706 346.807 36.5053 348.495 40.604 351.331C44.396 353.953 47.7126 357.182 51.1811 360.203C54.63 363.205 58.2645 365.939 62.4166 367.905C66.473 369.827 70.8277 371.079 75.2836 371.622C79.7901 372.173 84.4514 372.013 88.882 370.986C92.7584 370.088 96.8261 368.249 98.8572 364.631C100.66 361.424 100.694 357.182 97.8726 354.541Z" fill="#508C42"/>
<path d="M118.023 262.871C113.603 259.534 107.769 258.15 102.615 256.37C97.0765 254.457 91.3828 252.009 85.4135 252.17C80.3021 252.308 75.4552 254.164 70.8052 256.131C65.6572 258.305 60.5909 260.598 55.0491 261.563C49.5467 262.522 43.8278 262.609 38.5364 264.559C29.2194 267.996 24.2909 276.998 18.4397 284.371C15.3594 288.253 11.5111 291.578 7.84006 295.041C5.2239 297.303 2.59367 299.559 0.0534668 301.902V326.027C1.14775 325.113 2.29549 324.258 3.49667 323.473C5.67399 322.049 8.00885 320.848 10.4422 319.926C13.0302 318.947 15.7336 318.359 18.3778 317.551C22.9378 316.162 26.5161 313.714 29.6133 310.111C32.5473 306.696 34.9159 302.825 37.9906 299.525C39.5997 297.798 41.4057 296.251 43.4958 295.131C45.9685 293.806 48.7169 293.111 51.4202 292.433C53.9858 291.789 56.5654 291.153 58.9818 290.062C61.5136 288.917 63.7584 287.263 65.9807 285.615C70.4395 282.301 74.946 279.659 80.4568 278.542C86.038 277.412 91.8695 277.693 97.4028 278.956C102.711 280.168 108.157 282.396 113.693 281.437C117.575 280.765 121.618 278.407 122.811 274.433C124.144 270.008 121.486 265.487 118.023 262.871Z" fill="#508C42"/>
<path d="M34.6374 266.469C26.8621 269.279 20.5805 275.566 17.7533 283.339C16.9882 285.443 16.8278 287.693 16.0992 289.786C15.3003 292.076 12.642 293.224 10.8641 294.692C7.13958 297.767 4.04801 301.539 1.69909 305.753C1.43467 306.229 2.16325 306.654 2.42768 306.178C4.74566 302.023 7.78659 298.321 11.4605 295.289C13.0048 294.014 15.2525 292.993 16.3468 291.249C17.3961 289.578 17.427 287.378 17.9418 285.516C20.2541 277.175 26.7327 270.221 34.8596 267.282C35.3688 267.099 35.1494 266.283 34.6374 266.469Z" fill="#3C732D"/>
<path d="M22.8619 313.942C21.8098 314.057 20.8083 313.627 19.7815 313.439C19.0164 313.298 18.24 313.211 17.4607 313.18C15.7701 313.115 14.0738 313.318 12.4225 313.672C8.8893 314.432 5.5558 315.934 2.32077 317.506C1.83129 317.743 2.25888 318.471 2.74554 318.235C5.91869 316.693 9.17905 315.236 12.6448 314.485C14.3045 314.125 16.0064 313.945 17.7055 314.038C19.4158 314.128 21.1684 314.972 22.8619 314.786C23.3963 314.73 23.402 313.883 22.8619 313.942Z" fill="#3C732D"/>
<path d="M40.573 202.595C35.6614 208.26 31.8187 214.733 29.1941 221.76C29.0028 222.27 29.8186 222.489 30.0071 221.985C32.5783 215.102 36.3534 208.747 41.1666 203.194C41.5238 202.783 40.9275 202.184 40.573 202.595Z" fill="#3C732D"/>
<path d="M40.8262 222.272C35.5067 227.403 30.3503 232.703 25.3655 238.161C26.322 234.58 27.2784 230.996 28.2321 227.415C28.3727 226.889 27.5597 226.666 27.4191 227.19C25.6553 233.803 23.9534 240.442 22.1699 247.053C21.3035 246.409 20.949 245.129 20.5186 244.189C19.9532 242.949 19.3877 241.708 18.8223 240.467C17.728 238.071 16.6366 235.671 15.5423 233.274C15.3172 232.782 14.5886 233.21 14.8137 233.699C16.0571 236.428 17.3033 239.157 18.5466 241.885C19.1486 243.207 19.7478 244.532 20.3554 245.854C20.7437 246.696 21.1178 247.441 21.9364 247.908C21.3625 250.026 20.7774 252.144 20.1782 254.254C18.9433 258.606 17.2611 262.626 14.3158 266.109C11.7306 269.166 8.66149 271.78 6.13534 274.891C3.57826 278.042 1.58097 281.668 1.42063 285.797C1.40094 286.34 2.24486 286.34 2.26455 285.797C2.47553 280.41 5.97781 276.064 9.56448 272.348C10.7741 271.096 12.0006 269.864 13.1765 268.598C13.2384 268.638 13.3143 268.663 13.4071 268.66C17.1204 268.564 20.7943 268.089 24.4091 267.228C24.9379 267.102 24.7129 266.289 24.184 266.415C20.8027 267.217 17.3764 267.675 13.9051 267.796C15.8827 265.591 17.6661 263.245 18.9067 260.466C21.1178 255.5 22.2036 250.007 23.5989 244.777C24.0968 242.909 24.5948 241.044 25.0927 239.176C25.2418 239.292 25.4527 239.311 25.6159 239.131C30.7076 233.542 35.9793 228.118 41.4198 222.869C41.8164 222.492 41.2172 221.895 40.8262 222.272Z" fill="#3C732D"/>
<path d="M113.212 270.083C105.89 266.533 97.5996 266.238 89.6161 265.85C86.2573 265.687 82.8169 265.594 79.4215 265.833C82.4343 263.341 85.4443 260.845 88.4571 258.353C88.8763 258.007 88.2771 257.413 87.8608 257.757C84.5582 260.491 81.2557 263.225 77.9559 265.959C73.8713 266.37 69.8796 267.318 66.1944 269.273C62.7962 271.079 59.8285 273.56 56.6581 275.715C56.0308 276.143 55.4007 276.537 54.7649 276.908C55.1897 274.444 56.6834 272.165 57.8396 269.999C59.0942 267.647 60.377 265.312 61.6823 262.992C61.9495 262.516 61.2209 262.092 60.9537 262.567C59.474 265.2 58.0253 267.847 56.6103 270.517C55.4457 272.714 54.1151 274.911 53.8479 277.423C51.2345 278.821 48.503 279.786 45.493 280.43C41.7882 281.226 37.9258 281.87 34.7049 284.003C31.5964 286.062 29.3741 289.12 27.1855 292.076C26.8057 292.591 26.4204 293.106 26.0265 293.62C25.7002 288.653 25.5258 283.612 27.2812 278.863C27.4696 278.354 26.6538 278.132 26.4682 278.638C24.5806 283.744 24.8788 289.207 25.2445 294.54C25.2473 294.568 25.2529 294.594 25.2586 294.616C19.9756 301.39 13.4493 307.908 4.43898 308.479C3.89886 308.513 3.89605 309.357 4.43898 309.323C12.2706 308.828 18.645 303.846 23.5566 298.079C26.1728 295.007 28.3614 291.598 30.986 288.537C33.2083 285.949 35.7316 284.169 38.7501 283.012C38.7585 283.018 38.7641 283.024 38.7726 283.026L51.2711 288.88C51.7605 289.108 52.1881 288.383 51.6958 288.152C47.7547 286.306 43.8164 284.461 39.8753 282.616C40.3366 282.469 40.8064 282.332 41.2931 282.211C45.0063 281.277 48.8321 280.815 52.3429 279.201C55.6932 277.662 58.6019 275.355 61.5838 273.223C64.9173 270.84 68.3605 268.837 72.3523 267.782C76.4397 266.702 80.6959 266.483 84.9042 266.536C87.9114 266.576 90.9326 266.694 93.9426 266.896C93.9511 266.91 93.9567 266.927 93.9651 266.941C96.5447 271.13 101.98 272.3 104.483 276.523C104.759 276.99 105.49 276.565 105.212 276.098C102.79 272.008 97.6671 270.775 94.9947 266.969C96.2522 267.062 97.5096 267.166 98.7614 267.29C103.591 267.76 108.391 268.683 112.785 270.812C113.274 271.048 113.702 270.323 113.212 270.083Z" fill="#3C732D"/>
<path d="M85.6357 354.074C82.0294 356.209 78.3302 358.178 74.5466 359.978C74.1837 360.15 72.5774 359.351 72.1808 359.21C71.3706 358.923 70.5689 358.614 69.7756 358.285C68.1946 357.626 66.6475 356.887 65.1368 356.079C62.2225 354.518 59.3475 352.72 56.7314 350.698C55.6961 349.896 54.6806 349.013 53.7073 348.155C49.3189 344.284 45.901 339.687 42.0021 335.367C40.0386 333.189 37.8528 331.22 35.2591 329.822C34.719 329.532 34.1677 329.268 33.6107 329.017C37.3436 328.387 40.9584 327.299 44.4326 325.771C44.9277 325.555 44.5001 324.826 44.0078 325.043C40.213 326.708 36.2353 327.825 32.1338 328.401C30.4375 327.746 28.685 327.22 26.9381 326.725C19.6578 324.663 12.386 323.993 5.03264 326.148C4.51222 326.3 4.73445 327.116 5.25768 326.961C7.13119 326.413 9.00189 326.052 10.8698 325.853C14.8334 331.051 18.4398 336.503 21.6776 342.183C21.9477 342.655 22.6763 342.23 22.4062 341.758C19.2359 336.199 15.7083 330.86 11.8459 325.76C16.555 325.394 21.2472 326.036 25.9507 327.327C29.0563 328.179 32.2126 329.102 35.0454 330.669C37.7684 332.177 39.9936 334.34 42.0246 336.669C45.8419 341.052 49.3498 345.539 53.7889 349.345C54.1433 349.649 54.5034 349.95 54.8663 350.248C56.2138 354.38 57.2068 358.605 57.8341 362.907C57.9129 363.441 58.7258 363.213 58.6471 362.682C58.0788 358.788 57.2152 354.96 56.059 351.204C59.657 354.02 63.5559 356.456 67.7164 358.349C73.2976 360.89 79.2866 362.403 85.4247 362.611C85.9677 362.631 85.9677 361.787 85.4247 361.767C82.1334 361.655 78.904 361.151 75.7674 360.321C79.2754 358.625 82.7101 356.791 86.0633 354.805C86.5275 354.526 86.1055 353.795 85.6357 354.074Z" fill="#3C732D"/>
<path d="M318.174 340.776C306.717 342.385 299.777 352.574 294.724 361.99C294.468 362.468 295.197 362.895 295.453 362.414C300.413 353.171 307.144 343.17 318.399 341.589C318.934 341.516 318.706 340.703 318.174 340.776Z" fill="#32661E"/>
<path d="M339.585 326.151C337.621 328.964 335.303 331.507 332.642 333.676C329.849 335.954 326.546 338.205 323.027 339.136C322.504 339.274 322.726 340.09 323.252 339.949C326.771 339.018 330.015 336.838 332.836 334.596C335.717 332.306 338.209 329.591 340.313 326.576C340.625 326.131 339.894 325.706 339.585 326.151Z" fill="#32661E"/>
<path d="M361.442 306.606C354.421 309.272 348.339 313.852 343.827 319.858C343.5 320.291 344.232 320.713 344.555 320.283C348.924 314.468 354.871 310.001 361.667 307.419C362.171 307.227 361.951 306.412 361.442 306.606Z" fill="#32661E"/>
<path d="M310.48 349.947C304.725 355.095 300.294 361.517 297.495 368.713C297.298 369.219 298.114 369.439 298.308 368.938C301.054 361.88 305.431 355.59 311.074 350.543C311.482 350.18 310.883 349.587 310.48 349.947Z" fill="#32661E"/>
<path d="M395.466 279.583C385.885 282.692 374.889 287.221 371.91 297.902C371.763 298.425 372.576 298.65 372.723 298.127C375.617 287.752 386.408 283.409 395.691 280.399C396.206 280.23 395.984 279.414 395.466 279.583Z" fill="#32661E"/>
<path d="M423.729 251.227C413.647 253.34 403.337 257.512 397.725 266.668C397.441 267.133 398.17 267.557 398.454 267.093C403.951 258.125 414.092 254.105 423.954 252.04C424.486 251.928 424.261 251.115 423.729 251.227Z" fill="#32661E"/>
<path d="M436.599 253.655C428.587 253.399 420.666 255.321 413.656 259.211C413.18 259.475 413.605 260.204 414.08 259.94C420.964 256.119 428.728 254.249 436.596 254.499C437.142 254.519 437.142 253.675 436.599 253.655Z" fill="#32661E"/>
<path d="M481.729 278.115C480.942 273.833 478.044 270.489 474.584 268.024C470.983 265.462 466.46 262.775 461.917 262.778C461.374 262.778 461.374 263.622 461.917 263.622C466.17 263.619 470.345 266.128 473.76 268.474C477.22 270.851 480.137 274.101 480.914 278.337C481.012 278.872 481.828 278.647 481.729 278.115Z" fill="#32661E"/>
<path d="M512.088 297.756C507.044 287.766 494.841 286.475 484.914 287.314C484.376 287.359 484.371 288.202 484.914 288.157C494.549 287.344 506.451 288.456 511.359 298.18C511.604 298.664 512.333 298.24 512.088 297.756Z" fill="#32661E"/>
<path d="M468.35 267.743C463 264.758 456.825 264.429 450.839 264.201C450.296 264.182 450.296 265.025 450.839 265.045C456.676 265.267 462.707 265.563 467.926 268.472C468.398 268.736 468.823 268.007 468.35 267.743Z" fill="#32661E"/>
<path d="M428.832 285.513C420.992 284.399 412.39 286.366 407.917 293.432C407.624 293.893 408.356 294.315 408.646 293.857C412.899 287.139 421.158 285.268 428.607 286.326C429.139 286.402 429.37 285.589 428.832 285.513Z" fill="#32661E"/>
<path d="M404.899 295.488C397.596 294.65 390.209 297.199 384.951 302.327C384.563 302.707 385.159 303.303 385.547 302.923C390.662 297.939 397.81 295.519 404.899 296.332C405.436 296.394 405.433 295.55 404.899 295.488Z" fill="#32661E"/>
<path d="M397.3 300.152C389.753 302.316 383.387 307.683 380.008 314.772C379.775 315.259 380.504 315.689 380.737 315.197C384.028 308.296 390.172 303.072 397.525 300.965C398.046 300.816 397.826 300.003 397.3 300.152Z" fill="#32661E"/>
<path d="M372.599 336.137C362.579 334.025 354.024 340.655 347.456 347.384C347.076 347.772 347.672 348.371 348.052 347.98C354.384 341.491 362.677 334.905 372.374 336.95C372.903 337.063 373.13 336.25 372.599 336.137Z" fill="#32661E"/>
<path d="M358.089 345.668C350.789 348.304 344.699 353.609 341.12 360.501C340.87 360.982 341.599 361.41 341.849 360.926C345.323 354.234 351.217 349.044 358.311 346.481C358.82 346.298 358.601 345.482 358.089 345.668Z" fill="#32661E"/>
<path d="M413.372 333.001C405.633 332.793 397.185 333.622 391.567 339.575C391.193 339.969 391.79 340.568 392.164 340.171C397.63 334.382 405.855 333.642 413.372 333.845C413.915 333.859 413.915 333.015 413.372 333.001Z" fill="#32661E"/>
<path d="M514.67 309.793C514.353 308.178 513.441 306.845 512.569 305.48C511.618 303.992 510.645 302.518 509.542 301.14C507.477 298.555 504.934 296.403 501.756 295.362C501.238 295.193 501.016 296.006 501.531 296.175C504.633 297.19 507.075 299.359 509.061 301.888C510.018 303.106 510.87 304.397 511.705 305.697C512.58 307.061 513.534 308.4 513.855 310.018C513.962 310.55 514.774 310.325 514.67 309.793Z" fill="#32661E"/>
<path d="M463.771 284.894C459.101 280.275 451.883 278.81 445.795 281.296C445.3 281.499 445.517 282.315 446.02 282.109C451.838 279.732 458.702 281.063 463.174 285.491C463.56 285.873 464.159 285.277 463.771 284.894Z" fill="#32661E"/>
<path d="M437.671 325.242C432.211 323.734 426.115 322.269 420.956 325.479C420.494 325.766 420.919 326.494 421.38 326.207C426.343 323.118 432.205 324.609 437.446 326.055C437.969 326.202 438.194 325.389 437.671 325.242Z" fill="#32661E"/>
<path d="M1887.54 316.668V308.395C1887.27 308.251 1886.99 308.144 1886.7 308.099C1885.17 307.866 1884.99 309.371 1885.14 310.513C1885.43 312.713 1886.47 314.744 1887.54 316.668Z" fill="#8A454A"/>
<path d="M1887.82 320.165C1886.2 318.482 1884.62 316.744 1882.9 315.2C1880.64 313.166 1877.51 310.085 1874.25 309.959C1873.9 309.945 1873.68 310.229 1873.71 310.558C1873.91 312.583 1878.36 318.162 1879.51 319.774C1879.17 319.439 1878.84 319.101 1878.5 318.769C1874.38 314.716 1869.85 311.056 1864.4 308.974C1864.01 308.825 1863.56 309.292 1863.78 309.672C1865.04 311.875 1866.34 314.057 1867.67 316.221C1865.75 314.631 1863.71 313.152 1861.64 311.79C1859.66 310.485 1857.56 309.464 1855.18 309.168C1854.87 309.129 1854.57 309.461 1854.65 309.768C1854.87 310.702 1855.39 311.371 1855.95 312.142C1856.63 313.09 1857.32 314.032 1858.01 314.977C1854.69 312.682 1851.01 310.96 1846.86 310.243C1846.48 310.178 1846.2 310.651 1846.36 310.966C1847.52 313.149 1848.94 315.219 1850.45 317.239C1850 316.873 1849.54 316.516 1849.07 316.17C1847.19 314.783 1845.18 313.565 1843.05 312.62C1842.02 312.167 1839.69 310.82 1838.81 312.243C1838.04 313.478 1839.37 314.949 1840.09 315.816C1841.2 317.146 1842.31 318.471 1843.43 319.793C1839.4 317.366 1835.16 315.276 1830.76 313.554C1830.37 313.399 1829.93 313.872 1830.14 314.252C1833.82 320.905 1840.92 323.982 1846.67 328.545C1843.08 326.429 1839.44 324.393 1835.66 322.643C1833.02 321.422 1830.31 320.342 1827.52 319.495C1825.21 318.792 1822.83 318.167 1820.42 318.741C1819.96 318.851 1819.91 319.377 1820.23 319.661C1825.38 324.123 1831.69 326.669 1837.7 329.726C1835.08 328.868 1832.42 328.151 1829.72 327.602C1825.5 326.744 1820.94 325.931 1816.63 326.503C1814.73 326.753 1808.49 328.565 1812.1 331.136C1813.61 332.205 1815.84 332.447 1817.62 332.773C1820 333.215 1822.41 333.459 1824.82 333.727C1825.99 333.856 1827.16 334.011 1828.32 334.174C1827.52 334.334 1826.74 334.494 1825.99 334.638C1823.54 335.108 1820.84 335.499 1818.52 336.45C1817.35 336.931 1816.02 337.856 1816.19 339.291C1816.42 341.111 1818.53 341.364 1820 341.37C1822.98 341.384 1825.98 341.19 1828.96 341.1L1837.12 340.855C1834.12 342.385 1831.15 343.969 1828.34 345.766C1826.64 346.858 1824.04 348.371 1823.17 350.293C1822.63 351.5 1823.4 352.459 1824.63 352.588C1825.74 352.706 1826.9 352.214 1827.94 351.924C1829.19 351.578 1830.43 351.227 1831.68 350.872C1833.26 350.419 1834.83 349.958 1836.41 349.491C1836.03 349.885 1835.66 350.287 1835.31 350.712C1834.2 352.051 1832.36 354.299 1832.78 356.234C1833.21 358.282 1835.28 357.778 1836.76 357.328C1839.76 356.417 1842.69 355.297 1845.53 354C1844.82 355.075 1844.19 356.203 1843.68 357.399C1843.12 358.679 1842.16 360.906 1843.41 362.113C1844.78 363.43 1846.89 361.75 1848.08 361.047C1849.44 360.243 1850.79 359.404 1852.12 358.538C1851.56 359.43 1851.04 360.344 1850.69 361.289C1850.28 362.411 1850.08 364.164 1851.31 364.862C1852.89 365.759 1855.19 363.672 1856.37 362.929C1858.03 361.885 1859.66 360.808 1861.27 359.7C1861.09 360.271 1860.93 360.845 1860.81 361.427C1860.53 362.786 1860.17 365.632 1861.76 366.44C1862.42 366.775 1863.02 366.519 1863.63 366.218C1864.93 365.582 1866.18 364.738 1867.4 363.964C1870.61 361.922 1873.67 359.663 1876.57 357.213C1874.49 360.009 1872.61 362.968 1871.44 366.251C1871.02 367.424 1870.64 368.977 1872.08 369.568C1873.65 370.207 1876.06 369.011 1877.47 368.367C1879.85 367.284 1881.97 365.773 1883.94 364.066C1883.75 364.49 1883.56 364.915 1883.39 365.348C1882.77 366.873 1881.22 369.725 1882.28 371.394C1883.39 373.141 1885.54 371.453 1886.69 370.688C1887.07 370.434 1887.45 370.176 1887.82 369.911V320.165Z" fill="#8A454A"/>
<path d="M1887.82 338.43C1875.81 336.301 1863.68 334.855 1851.5 334.123C1844.78 333.721 1838.04 333.538 1831.3 333.561C1830.65 333.563 1830.58 334.573 1831.23 334.57C1850.19 334.509 1869.15 336.135 1887.82 339.446V338.43Z" fill="#733135"/>
<path d="M1847.23 336.804C1844.74 337.097 1842.3 337.603 1839.9 338.326C1839.28 338.512 1839.47 339.51 1840.09 339.322C1842.49 338.599 1844.92 338.092 1847.41 337.8C1848.06 337.724 1847.87 336.728 1847.23 336.804Z" fill="#733135"/>
<path d="M1854.87 338.838C1848.66 341.066 1842.61 343.685 1836.73 346.689C1836.15 346.984 1836.59 347.902 1837.17 347.603C1843.05 344.599 1849.1 341.98 1855.31 339.752C1855.92 339.533 1855.48 338.618 1854.87 338.838Z" fill="#733135"/>
<path d="M1866.15 338.143C1859.64 341.252 1853.28 344.667 1847.1 348.383C1846.54 348.715 1846.97 349.632 1847.53 349.297C1853.72 345.584 1860.08 342.169 1866.59 339.057C1867.17 338.776 1866.74 337.862 1866.15 338.143Z" fill="#733135"/>
<path d="M1873.87 340.062C1866.98 344.003 1860.65 348.791 1855 354.355C1854.54 354.811 1855.2 355.579 1855.66 355.12C1861.25 349.62 1867.5 344.875 1874.3 340.976C1874.87 340.655 1874.43 339.738 1873.87 340.062Z" fill="#733135"/>
<path d="M1884.88 340.416C1877.05 344.765 1869.93 350.239 1863.73 356.704C1863.28 357.171 1863.94 357.941 1864.39 357.469C1870.53 351.069 1877.56 345.637 1885.32 341.33C1885.89 341.015 1885.46 340.098 1884.88 340.416Z" fill="#733135"/>
<path d="M1887.82 346.02C1884.36 348.948 1881.25 352.245 1878.5 355.879C1878.1 356.4 1878.95 356.96 1879.34 356.442C1881.86 353.114 1884.7 350.079 1887.82 347.356V346.02Z" fill="#733135"/>
<path d="M1887.82 357.449C1886.48 358.901 1885.18 360.397 1883.93 361.933C1883.52 362.437 1884.36 362.997 1884.77 362.496C1885.76 361.283 1886.78 360.102 1887.82 358.946V357.449Z" fill="#733135"/>
<path d="M1853.45 331.752C1851.37 330.643 1849.3 329.535 1847.23 328.43C1846.66 328.126 1846.09 328.964 1846.66 329.273C1848.74 330.382 1850.81 331.49 1852.89 332.596C1853.46 332.899 1854.03 332.061 1853.45 331.752Z" fill="#733135"/>
<path d="M1863.73 333.805C1858.06 330.612 1853.28 326.044 1847.46 323.087C1846.89 322.795 1846.31 323.636 1846.9 323.931C1852.72 326.888 1857.49 331.456 1863.17 334.649C1863.73 334.964 1864.3 334.126 1863.73 333.805Z" fill="#733135"/>
<path d="M1873.62 333.431C1866.48 329.006 1859.49 324.359 1852.64 319.492C1852.11 319.115 1851.55 319.956 1852.08 320.336C1858.93 325.203 1865.92 329.85 1873.06 334.275C1873.62 334.615 1874.18 333.774 1873.62 333.431Z" fill="#733135"/>
<path d="M1885.69 335.074C1877.49 329.214 1869.3 323.352 1861.1 317.492C1860.57 317.112 1860.01 317.956 1860.54 318.336C1868.73 324.196 1876.93 330.058 1885.12 335.918C1885.66 336.295 1886.22 335.454 1885.69 335.074Z" fill="#733135"/>
<path d="M1887.82 331.501C1883.27 328.25 1878.82 324.854 1874.48 321.312C1873.98 320.902 1873.42 321.746 1873.92 322.156C1878.43 325.842 1883.07 329.372 1887.82 332.748V331.501H1887.82Z" fill="#733135"/>
<path d="M1887.82 325.858C1887.55 325.645 1887.27 325.431 1887 325.217C1886.48 324.817 1885.93 325.661 1886.44 326.061C1886.9 326.421 1887.36 326.778 1887.82 327.138V325.858Z" fill="#733135"/>
<path d="M554.144 335.862C553.654 334.146 552.636 332.703 550.962 331.625C549.311 330.565 547.398 329.828 545.443 329.285C544.197 328.939 542.933 328.674 541.715 328.455C537.636 327.723 533.462 327.664 529.349 328.157C526.497 328.497 523.672 329.102 520.927 329.932C518.131 330.776 515.5 331.875 512.985 333.17C509.075 335.172 505.43 337.637 501.829 340.334C498.836 342.576 495.781 344.675 492.478 346.411C492.518 343.733 492.478 341.049 492.706 338.377C493.12 333.496 494.712 328.84 497.632 324.877C500.082 321.552 503.649 318.997 504.493 314.727C505.385 310.215 504.799 305.171 504.091 300.662C503.683 298.062 503.053 295.497 502.794 292.875C502.535 290.217 502.929 287.733 503.345 285.114C503.953 281.285 503.514 277.628 500.619 274.809C498.22 272.472 494.872 271.507 491.595 272.23C491.311 272.292 491.035 272.362 490.765 272.444C485.564 273.954 482.587 278.399 481.181 283.364C481.181 283.367 481.181 283.367 481.181 283.367C480.534 285.643 480.216 288.022 480.16 290.284C480.047 294.914 480.894 299.528 480.593 304.153C480.441 306.493 479.828 308.507 478.911 310.37C478.911 310.37 478.911 310.37 478.908 310.372C477.8 312.623 476.244 314.651 474.508 316.764C474.249 317.079 474.002 317.388 473.752 317.709C473.752 317.709 473.749 317.709 473.749 317.712C471.456 320.646 469.58 323.779 468.491 327.394C467.141 331.859 467.889 336.728 466.224 341.069C465.866 342.008 465.425 342.897 464.935 343.761C464.091 339.797 462.811 335.929 461.014 332.255C457.346 324.778 451.793 319.062 444.78 314.671C441.277 312.482 437.547 310.223 435.53 306.473C433.415 302.546 433.015 297.995 430.607 294.161C426.739 288 418.781 282.635 411.273 285.33C408.277 286.405 405.762 288.858 404.634 291.834C403.408 295.064 404.235 298.287 406.308 300.943C408.589 303.86 411.9 305.975 413.566 309.362C415.563 313.43 414.753 318.198 414.382 322.525C414.044 326.458 413.991 330.446 415.777 334.067C417.451 337.454 420.351 340.081 423.462 342.135C426.888 344.394 430.742 345.817 434.281 347.868C434.945 348.25 435.567 348.658 436.152 349.089C430.554 346.996 424.45 346.714 418.522 347.255C417.974 347.305 417.428 347.361 416.885 347.423C413.127 347.857 409.239 349.077 405.447 348.886C404.53 348.841 403.678 348.658 402.87 348.377C400.136 347.435 397.919 345.364 395.568 343.612C390.257 339.659 383.441 334.708 376.453 335.198C374.886 335.31 373.305 335.696 371.879 336.393C370.886 336.872 369.972 337.504 369.189 338.292C368.073 339.42 367.386 340.779 366.978 342.239C366.585 343.623 366.438 345.1 366.399 346.551C366.241 352.644 368.135 358.859 373.544 362.22C379.781 366.099 387.494 365.382 394.229 367.779C400.6 370.046 406.06 375.129 413.242 374.209C417.189 373.706 420.821 371.832 424.781 371.388C429.046 370.915 433.232 372.181 437.336 373.163C438.158 373.36 439.601 374.049 441.342 374.98H483.774C488.537 373.405 492.731 370.797 497.798 369.683C498.253 369.585 498.715 369.509 499.176 369.444C502.442 369.031 505.829 369.484 508.994 368.552C511.973 367.672 514.398 365.632 516.794 363.745C519.692 361.461 522.783 359.469 526.108 357.871C529.352 356.313 532.77 355.14 536.283 354.352C539.372 353.657 542.545 353.246 545.524 352.132C551.39 349.944 554.535 344.72 554.498 338.523C554.498 337.586 554.38 336.691 554.144 335.862Z" fill="#679431"/>
<path d="M419.414 301.224C417.861 298.169 415.878 295.379 413.549 292.867C411.72 290.895 408.89 293.359 409.824 295.463C409.371 296.338 409.608 297.368 410.249 298.164C412.007 300.352 413.628 302.645 415.144 305.011C416.604 307.292 420.067 305.562 419.439 303.328C419.746 302.729 419.802 301.992 419.414 301.224Z" fill="#557D24"/>
<path d="M441.969 319.27C439.651 315.562 436.647 312.471 433.035 310.007C430.959 308.592 428.99 311.205 429.876 313.064C429.17 313.883 429.009 315.084 430.078 315.996C432.458 318.018 434.501 320.317 436.169 322.958C437.297 324.744 439.648 324.086 440.338 322.649C441.761 322.362 442.962 320.857 441.969 319.27Z" fill="#557D24"/>
<path d="M434.34 339.085C431.451 336.638 429.218 333.729 427.592 330.309C426.857 328.764 425.229 328.882 424.216 329.771C422.66 329.504 420.888 330.657 421.58 332.534C423.105 336.663 425.645 340.017 429.173 342.638C429.842 343.136 430.751 343.041 431.462 342.635C433.685 343.901 436.487 340.903 434.34 339.085Z" fill="#557D24"/>
<path d="M460.412 348.715C459.469 345.502 458.063 342.467 456.175 339.702C455.424 338.599 454.198 338.464 453.23 338.874C451.618 336.385 447.609 338.7 449.233 341.212C450.968 343.896 452.465 346.717 453.629 349.696C454.175 351.092 455.604 351.469 456.732 351.134C458.265 352.287 461.098 351.049 460.412 348.715Z" fill="#557D24"/>
<path d="M491.648 276.852C489.704 279.187 488.081 281.831 486.905 284.638C486.43 285.786 485.386 286.636 484.059 286.256C483.305 286.042 482.59 285.319 482.382 284.515C481.85 284.292 481.406 283.899 481.184 283.375C481.184 283.375 481.184 283.375 481.184 283.373C482.593 278.407 485.569 273.963 490.768 272.452C490.92 272.691 491.035 272.95 491.1 273.223C492.143 273.963 492.712 275.569 491.648 276.852Z" fill="#557D24"/>
<path d="M554.144 335.862C553.809 336.497 553.159 336.936 552.194 336.863C548.655 336.599 545.235 336.978 541.848 338.039C539.234 338.858 538.002 335.181 539.985 333.873C538.973 332.728 539.063 330.556 540.981 330.027C542.45 329.617 543.946 329.369 545.446 329.285C547.401 329.828 549.314 330.565 550.965 331.625C552.636 332.705 553.654 334.146 554.144 335.862Z" fill="#557D24"/>
<path d="M527.675 334.312L516.645 337.594C514.836 338.135 513.689 336.554 513.801 335.099C513.261 334.584 512.94 333.856 512.988 333.172C515.503 331.878 518.133 330.778 520.93 329.934C523.675 329.105 526.497 328.5 529.352 328.159C529.484 328.913 529.222 329.69 528.37 330.16C529.67 331.167 529.746 333.696 527.675 334.312Z" fill="#557D24"/>
<path d="M522.308 346.281C517.717 348.433 513.374 351.027 509.303 354.048C508.29 354.799 507.807 356.043 508.473 357.216C508.662 357.545 508.963 357.826 509.317 358.031C508.749 359.84 510.617 362.119 512.603 360.8C515.337 358.985 518.071 357.171 520.803 355.356C522.125 354.479 522.077 352.92 521.363 351.916C522.443 351.345 523.537 350.796 524.646 350.276C527.338 349.016 524.992 345.024 522.308 346.281Z" fill="#557D24"/>
<path d="M502.029 304.994C501.542 301.185 501.415 297.365 501.652 293.533C501.778 291.466 499.587 290.841 498.172 291.646C497.103 290.231 494.107 290.712 493.91 293.072C493.578 297.041 493.513 301.013 493.713 304.991C493.834 307.365 496.827 307.849 497.936 306.412C498.329 306.949 498.923 307.301 499.711 307.309C500.844 307.32 502.189 306.234 502.029 304.994Z" fill="#557D24"/>
<path d="M484.137 315.006C482.12 318.021 480.317 321.158 478.739 324.427C478.061 325.822 476.655 325.856 475.645 325.183C474.159 326.182 471.498 324.933 472.038 322.646C472.446 320.935 473.02 319.287 473.751 317.715C473.751 317.712 473.754 317.712 473.754 317.712C474.005 317.391 474.252 317.079 474.511 316.767C476.247 314.654 477.805 312.626 478.911 310.375C478.913 310.372 478.913 310.372 478.913 310.372C480.221 309.436 481.831 310.333 482.32 311.633C483.856 311.799 485.237 313.366 484.137 315.006Z" fill="#557D24"/>
<path d="M491.89 327.999C491.693 327.465 491.325 326.986 490.872 326.716C489.696 326.013 488.453 326.553 487.704 327.546C484.956 331.2 483.021 335.392 481.977 339.845C481.459 342.053 483.926 343.294 485.431 342.475C486.287 342.675 487.218 342.402 487.758 341.384C489.547 338.019 491.339 334.652 493.128 331.288C493.896 329.85 493.046 328.5 491.89 327.999Z" fill="#557D24"/>
<path d="M379.294 346.377C379.496 347.947 377.727 349.792 375.786 348.869C373.142 347.618 370.832 345.797 368.7 343.811C368.165 343.313 367.569 342.793 366.981 342.242C367.392 340.779 368.075 339.42 369.192 338.295C369.971 337.507 370.888 336.877 371.881 336.396C374.292 338.756 377.043 340.68 380.132 342.171C382.29 343.212 381.196 345.989 379.294 346.377Z" fill="#557D24"/>
<path d="M402.26 362.302C398.558 360.217 394.572 358.709 390.403 357.874C388.678 357.528 387.539 358.954 387.505 360.296C384.794 360.504 384.884 364.856 387.773 364.918C391.596 364.999 395.275 366.327 398.209 368.803C400.178 370.465 402.921 368.215 402.102 366.336C403.489 365.554 404.063 363.317 402.26 362.302Z" fill="#557D24"/>
<path d="M419.85 352.653C414.632 353.697 408.772 355.576 403.768 352.855C402.806 352.332 402.51 351.463 402.654 350.644C402.378 349.91 402.451 349.035 402.873 348.38C403.681 348.661 404.533 348.844 405.45 348.889C409.242 349.08 413.127 347.859 416.888 347.426C417.431 347.364 417.977 347.308 418.525 347.257C418.747 347.513 418.922 347.812 419.037 348.144C421.642 348.037 422.627 352.096 419.85 352.653Z" fill="#557D24"/>
<path d="M447.531 362.62C443.038 360.088 438.006 358.802 432.847 358.912C431.192 358.949 430.455 360.394 430.641 361.663C430.059 362.119 429.671 362.876 429.662 363.568C429.648 364.94 430.74 365.734 431.977 365.883C434.515 366.187 437.162 366.31 439.654 366.887C441.786 367.379 443.151 369.334 445.435 369.273C447.1 369.228 447.835 367.756 447.638 366.485C448.825 365.582 449.216 363.568 447.531 362.62Z" fill="#557D24"/>
<path d="M474.953 354.124C474.933 351.967 471.27 351.269 470.331 353.733C468.876 357.545 467.217 361.267 465.374 364.907C464.578 366.479 465.658 367.945 466.949 368.322C467.039 368.682 467.228 369.028 467.532 369.34C468.322 370.15 470.038 370.325 470.806 369.34C473.718 365.607 475.909 361.511 477.287 356.974C477.816 355.23 476.362 354.099 474.953 354.124Z" fill="#557D24"/>
<path d="M483.777 374.983C488.54 373.408 492.734 370.8 497.8 369.686C498.256 369.588 498.717 369.512 499.179 369.447C499.305 368.851 499.221 368.198 498.945 367.711C498.774 367.413 498.563 367.18 498.324 367.008C498.833 365.343 496.965 363.165 494.909 364.232C491.083 366.212 487.431 368.479 483.96 371.034C483.051 371.7 482.829 372.707 483.037 373.591C482.756 373.765 482.478 373.937 482.202 374.114C481.822 374.359 481.555 374.66 481.38 374.986H483.777V374.983Z" fill="#557D24"/>
<path d="M458.125 354.445C455.95 352.085 453.601 349.896 451.458 347.511C449.14 344.931 447.362 342.095 445.677 339.08C444.225 336.483 442.737 333.895 440.667 331.735C438.692 329.673 436.346 328.022 434.143 326.221C431.831 324.331 429.659 322.244 428.343 319.518C426.939 316.615 426.433 313.388 425.817 310.251C424.489 303.514 421.707 297.559 416.587 292.867C416.117 292.436 415.414 293.137 415.887 293.567C420.553 297.846 423.366 303.281 424.646 309.438C425.805 315.011 426.647 320.409 430.841 324.604C432.852 326.618 435.198 328.249 437.384 330.067C439.761 332.041 441.699 334.269 443.3 336.917C444.889 339.547 446.226 342.329 448.017 344.833C449.745 347.243 451.809 349.378 453.886 351.485C458.898 356.569 464.601 362.319 464.35 370.012C464.331 370.651 465.321 370.651 465.343 370.012C465.532 363.956 462.077 358.735 458.125 354.445Z" fill="#557D24"/>
<path d="M490.683 283.474C488.65 289.184 489.544 295.213 489.673 301.131C489.741 304.203 489.572 307.284 488.669 310.24C487.842 312.946 486.542 315.473 485.206 317.956C482.911 322.224 480.3 326.573 479.726 331.479C479.392 334.354 480.053 337.083 480.466 339.907C480.973 343.384 480.306 346.256 478.399 349.193C476.64 351.902 474.638 354.377 473.225 357.306C471.805 360.251 470.846 363.376 470.322 366.6C470.221 367.225 471.177 367.492 471.279 366.865C471.788 363.725 472.699 360.673 474.083 357.806C475.338 355.21 477.026 352.943 478.66 350.583C480.072 348.543 481.333 346.343 481.611 343.834C481.96 340.683 480.877 337.634 480.652 334.52C480.252 328.995 483.037 324.047 485.58 319.355C488.123 314.665 490.312 310.04 490.621 304.628C491.021 297.652 489.232 290.504 491.64 283.738C491.854 283.133 490.897 282.875 490.683 283.474Z" fill="#557D24"/>
<path d="M541.369 338.68C531.85 337.592 522.03 340.107 514.237 345.699C510.074 348.687 506.971 352.979 502.642 355.728C498.155 358.575 492.557 359.272 487.741 361.466C482.542 363.835 477.819 367.126 473.732 371.112C473.273 371.56 473.977 372.26 474.432 371.813C478.064 368.274 482.194 365.303 486.734 363.042C491.367 360.735 496.487 359.86 501.142 357.677C505.542 355.612 508.541 351.744 512.13 348.619C515.869 345.364 520.291 342.897 524.997 341.347C530.275 339.606 535.85 339.043 541.369 339.676C542.002 339.744 541.997 338.751 541.369 338.68Z" fill="#557D24"/>
<path d="M451.407 369.641C444.681 363.795 436.27 360.124 427.406 359.182C422.452 358.656 417.667 359.337 412.753 359.885C409.965 360.198 407.115 360.389 404.336 359.905C401.818 359.466 399.43 358.507 397.14 357.399C391.508 354.673 386.026 351.595 380.489 348.678C379.924 348.38 379.423 349.238 379.989 349.533C384.85 352.093 389.697 354.678 394.572 357.21C398.676 359.34 402.859 361.095 407.551 361.179C412.674 361.272 417.701 359.958 422.823 359.936C427.465 359.916 432.098 360.693 436.495 362.178C441.719 363.942 446.546 366.724 450.707 370.339C451.188 370.758 451.891 370.06 451.407 369.641Z" fill="#557D24"/>
<path d="M450.406 361.393C446.965 357.387 443.033 353.877 438.675 350.895C438.146 350.535 437.651 351.393 438.174 351.753C442.464 354.687 446.318 358.152 449.705 362.096C450.119 362.58 450.819 361.874 450.406 361.393Z" fill="#557D24"/>
<path d="M464.046 346.214C464.046 348.914 463.796 351.576 463.278 354.228C463.157 354.853 464.114 355.12 464.235 354.493C464.769 351.756 465.039 349.004 465.039 346.214C465.039 345.575 464.046 345.575 464.046 346.214Z" fill="#557D24"/>
<path d="M492.942 347.387C489.069 348.99 485.696 351.407 482.97 354.597C482.556 355.081 483.257 355.784 483.67 355.297C486.275 352.248 489.496 349.876 493.204 348.343C493.786 348.101 493.533 347.142 492.942 347.387Z" fill="#557D24"/>
<path d="M651.206 374.983C650.821 373.863 650.396 372.758 649.918 371.678C648.812 369.18 647.172 366.572 644.514 365.531C643.009 364.94 641.425 365.216 639.889 364.836C637.951 364.352 637.11 362.651 635.799 361.34C633.498 359.039 630.305 359.551 627.478 358.473C625.57 357.745 624.428 356.13 623.221 354.583C622.161 353.221 621.05 351.902 619.832 350.675C617.5 348.329 614.805 346.253 611.727 344.984C610.416 344.444 609.055 344.059 607.648 343.873C606.914 343.778 606.18 343.735 605.443 343.747C604.019 343.772 603.074 343.392 602.118 342.368C599.974 340.073 597.31 338.275 594.359 337.192C587.774 334.773 580.232 336.573 575.751 341.988C571.461 339.164 565.998 340.047 561.458 341.879C557.691 343.401 553.052 346.11 552.821 350.597C550.433 350.371 548.709 352.903 547.389 354.619C545.507 357.061 543.856 359.66 542.402 362.375C540.635 361.582 538.77 362.991 537.696 364.437C535.994 366.724 534.947 369.621 534.323 372.403C532.289 371.54 530.334 373.149 528.84 374.983H651.206Z" fill="#90B054"/>
<path d="M590.483 346.565C589.363 344.191 586.882 342.582 584.221 342.742C581.748 342.894 578.797 344.382 577.835 346.76C577.63 347.263 578.449 347.482 578.648 346.985C579.489 344.911 582.485 343.536 584.629 343.575C586.879 343.614 588.809 344.987 589.754 346.993C589.988 347.482 590.714 347.052 590.483 346.565Z" fill="#729434"/>
<path d="M597.164 348.253C594.995 347.646 592.362 348.315 590.795 349.907C590.415 350.296 591.009 350.892 591.391 350.504C592.683 349.19 594.542 348.765 596.34 348.968C598.582 349.221 600.216 352.04 600.039 354.144C599.994 354.684 600.838 354.681 600.883 354.144C601.068 351.907 599.431 348.889 597.164 348.253Z" fill="#729434"/>
<path d="M570.89 352.751C568.594 350.853 566.048 349.665 563.044 350.492C560.206 351.275 558.141 353.494 556.765 356.006C556.504 356.482 557.232 356.909 557.494 356.431C558.692 354.242 560.408 352.265 562.839 351.438C565.68 350.47 568.096 351.531 570.293 353.348C570.71 353.691 571.309 353.097 570.89 352.751Z" fill="#729434"/>
<path d="M559.88 362.862C557.517 361.742 554.855 361.511 552.343 362.262C550.11 362.929 547.586 364.471 546.962 366.856C546.824 367.382 547.637 367.607 547.775 367.081C548.354 364.867 550.895 363.497 552.965 362.966C555.139 362.409 557.429 362.631 559.455 363.59C559.944 363.821 560.372 363.095 559.88 362.862Z" fill="#729434"/>
<path d="M572.932 367.714C571.045 365.781 568.397 365.511 565.824 365.697C563.416 365.872 561.365 366.215 560.225 368.575C559.989 369.062 560.718 369.489 560.954 369C562.037 366.758 564.122 366.617 566.366 366.504C568.544 366.395 570.744 366.676 572.336 368.308C572.716 368.701 573.312 368.102 572.932 367.714Z" fill="#729434"/>
<path d="M593.439 363.947C590.5 361.351 584.604 359.593 582.581 364.13C582.362 364.623 583.087 365.053 583.31 364.555C585.079 360.589 590.289 362.282 592.843 364.541C593.248 364.901 593.847 364.308 593.439 363.947Z" fill="#729434"/>
<path d="M617.415 359.942C615.851 358.026 614.115 356.754 611.533 356.948C609.505 357.1 606.717 357.941 605.738 359.885C605.493 360.369 606.222 360.797 606.467 360.31C607.35 358.558 610.141 357.798 611.966 357.77C614.144 357.739 615.516 358.943 616.816 360.538C617.162 360.96 617.758 360.358 617.415 359.942Z" fill="#729434"/>
<path d="M628.524 367.841C627.886 365.526 625.238 364.887 623.14 364.572C621.117 364.268 618.954 364.777 618.186 366.867C617.998 367.377 618.813 367.599 618.999 367.092C619.719 365.135 622.006 365.18 623.694 365.537C625.264 365.869 627.222 366.308 627.708 368.066C627.855 368.586 628.67 368.364 628.524 367.841Z" fill="#729434"/>
<path d="M643.377 372.533C642.477 370.907 640.994 368.704 639.008 368.389C637.126 368.091 634.772 368.277 633.346 369.647C632.952 370.024 633.551 370.62 633.942 370.243C635.067 369.163 637.045 368.957 638.55 369.185C640.46 369.475 641.771 371.374 642.646 372.958C642.91 373.433 643.639 373.008 643.377 372.533Z" fill="#729434"/>
</g>
<defs>
<clipPath id="clip0">
<rect width="1888" height="375" fill="white"/>
</clipPath>
</defs>
</svg>
