<svg width="345" height="376" viewBox="0 0 345 376" fill="none" xmlns="http://www.w3.org/2000/svg">
<ellipse cx="164" cy="354" rx="164" ry="22" fill="#001F07"/>
<path d="M22.8617 240.516C22.777 240.193 22.5151 240.07 22.257 240.089C22.1915 239.632 21.6292 239.274 21.2595 239.72C19.2759 242.132 17.3116 244.559 15.3703 247.006C13.7873 249.003 11.7075 251.061 10.5212 253.33C9.94342 254.434 9.82017 255.846 11.1567 256.419C12.1542 256.846 13.2674 256.662 14.315 257.108C15.1624 257.47 15.8441 257.662 16.7646 257.658C17.4964 257.654 17.9124 257.285 18.7521 257.473C19.3067 257.596 19.8189 258.043 20.2773 258.347C20.8666 258.739 21.4597 259.166 22.1761 259.293C23.4972 259.524 24.1366 258.847 24.333 257.6C25.1996 252.057 24.2599 245.89 22.8617 240.516Z" fill="#252622"/>
<path d="M133.525 280.494C131.746 279.948 129.408 280.425 127.598 280.571C125.283 280.755 122.968 281.025 120.638 281.059C115.785 281.14 111.621 279.486 107.034 278.201C102.901 277.039 98.626 276.87 94.3546 276.885C93.3608 276.893 92.3171 276.874 91.2848 276.92C91.2848 276.862 91.2848 276.808 91.281 276.751C91.2617 275.978 90.0485 275.97 90.0677 276.751L90.0754 277.016C88.3037 277.224 86.6244 277.755 85.3302 279.109C84.7872 279.671 85.6461 280.528 86.1853 279.963C87.2175 278.886 88.6118 278.401 90.1024 278.189C90.2372 283.41 90.3681 288.626 90.503 293.85C90.5723 296.585 90.6416 299.328 90.7148 302.063C90.8188 306.314 90.8573 310.58 91.3927 314.8C91.8818 318.628 92.8024 322.375 93.5727 326.152C94.4393 330.384 95.1557 334.646 95.718 338.928C96.1956 342.567 96.238 346.333 96.9043 349.937C97.4012 352.638 98.7916 354.042 101.53 354.35C105.409 354.781 109.326 354.981 113.224 355.034C113.405 355.038 113.589 355.038 113.774 355.042C116.236 355.069 118.708 355.046 121.173 354.942C122.675 354.881 124.178 354.788 125.672 354.661C125.922 354.642 126.177 354.623 126.427 354.596C127.548 354.492 128.611 354.411 129.308 353.43C129.843 352.676 130.097 351.63 130.279 350.611C130.386 349.991 130.471 349.387 130.575 348.86C131.796 342.578 137.069 308.257 139.23 292.131C139.804 287.861 140.158 284.864 140.162 284.006C140.177 281.975 136.114 281.29 133.525 280.494Z" fill="#659AA6"/>
<path d="M121.174 354.95C118.709 355.054 116.236 355.08 113.775 355.05C113.594 355.046 113.409 355.046 113.224 355.042C113.459 354.192 113.848 353.38 114.48 352.749C115.485 351.753 117.018 351.28 118.401 351.661C119.761 352.034 120.774 353.18 121.097 354.534C121.132 354.673 121.159 354.811 121.174 354.95Z" fill="white"/>
<path d="M130.279 350.613C130.098 351.633 129.843 352.679 129.308 353.433C128.607 354.414 127.548 354.495 126.427 354.599C126.177 354.622 125.922 354.645 125.672 354.664C126.292 353.271 127.22 351.933 128.368 351.213C128.969 350.84 129.628 350.648 130.279 350.613Z" fill="white"/>
<path d="M268.112 344.355C268.085 345.17 268.104 345.939 268.116 346.655C268.15 349.355 268.05 351.317 264.746 352.264C264.688 352.279 264.63 352.295 264.572 352.314C263.706 352.552 262.824 352.718 261.934 352.852C260.024 353.133 258.079 353.249 256.18 353.545C255.783 353.606 255.386 353.664 254.986 353.726C253.749 353.902 252.509 354.064 251.261 354.191C248.638 354.456 246 354.576 243.373 354.437C243.315 354.433 243.261 354.433 243.2 354.43C240.75 354.31 236.945 354.28 235.4 352.275C234.63 351.264 234.422 349.898 234.087 348.728C233.571 346.92 233.051 345.112 232.539 343.304C230.882 337.507 229.53 331.722 227.963 325.92V325.917C227.79 325.274 227.612 324.632 227.435 323.993C225.717 317.873 225.798 311.675 225.44 305.34C225.082 298.946 225.833 292.557 226.8 286.236C227.716 280.235 228.36 273.942 231.025 268.341C233.578 262.97 237.642 258.404 241.313 253.672C245.076 248.825 248.546 243.778 251.708 238.573C257.959 228.268 267.453 188.364 267.48 189.368C267.5 190.072 268.605 226.133 268.751 232.43C269.04 244.644 269.21 256.858 269.264 269.075C269.337 285.809 269.187 302.543 268.825 319.273C268.64 327.628 268.401 335.991 268.112 344.355Z" fill="#659AA6"/>
<path d="M251.258 354.192C248.635 354.457 245.996 354.576 243.37 354.438C243.312 354.434 243.258 354.434 243.196 354.43C243.235 353.695 243.404 352.945 243.778 352.303C244.644 350.822 246.316 350.033 248.003 350.441C249.54 350.814 250.718 352.049 251.131 353.557C251.192 353.757 251.231 353.972 251.258 354.192Z" fill="white"/>
<path d="M261.93 352.849C260.02 353.13 258.075 353.245 256.176 353.541C255.779 353.603 255.383 353.661 254.982 353.722C255.302 351.683 256.677 349.675 258.934 349.975C260.49 350.191 261.418 351.422 261.93 352.849Z" fill="white"/>
<path d="M264.747 352.264C264.689 352.279 264.631 352.295 264.573 352.314C264.839 350.225 265.378 347.729 267.235 346.925C267.531 346.794 267.824 346.705 268.117 346.655C268.151 349.356 268.051 351.318 264.747 352.264Z" fill="white"/>
<path d="M228.922 71.993C228.533 72.1546 228.144 72.3161 227.759 72.4738C217.768 59.1252 203.174 49.4888 186.782 46.0805C177.869 44.2263 168.911 44.4187 159.983 46.0613C151.189 47.6808 142.4 49.8543 134.169 53.3895C130.225 55.086 126.181 57.0479 122.776 59.6907C120.118 61.7565 117.857 64.734 118.089 68.2731C118.189 69.808 118.805 71.1274 119.776 72.3046C120.33 72.9816 120.973 73.5779 121.528 74.2549C122.425 75.3513 122.737 76.5361 123.153 77.8633C124.278 81.4409 127.144 82.5872 130.649 83.1373C140.058 84.6145 149.722 82.9104 159.193 83.1643C168.93 83.422 178.636 84.7569 188.08 87.1304C193.187 88.4152 198.098 90.1771 203.101 91.7966C207.03 93.07 211.363 93.9047 215.249 92.0428C218.496 90.4926 220.422 87.5959 220.187 83.9798C220.021 81.4063 218.943 78.2249 221.554 76.4938C223.808 75.0012 226.754 74.1895 229.242 73.1547C229.955 72.8662 229.643 71.6929 228.922 71.993Z" fill="#659AA6"/>
<path d="M267.477 189.362C267.408 197.872 266.811 206.189 265.621 214.352C262.944 232.697 257.271 250.243 247.865 267.365C245.955 270.839 243.967 274.274 241.937 277.686C240.297 280.448 236.819 284.222 236.083 287.307C235.147 291.235 234.23 295.17 233.364 299.113C231.488 307.596 229.762 316.113 228.191 324.653C228.118 325.049 228.041 325.472 227.964 325.911V325.915C226.666 333.162 224.547 346.103 222.032 353.674C221.736 354.57 221.431 355.393 221.123 356.12C220.707 357.105 219.244 357.797 217.356 358.305C216.428 358.555 215.396 358.759 214.333 358.928C211.402 359.398 208.236 359.609 206.352 359.821C206.137 359.84 205.944 359.867 205.767 359.89C204.446 360.067 202.84 360.121 201.133 360.067C198.445 359.986 195.498 359.652 192.995 359.151C190.453 358.64 188.361 357.955 187.449 357.197C185.072 355.212 183.998 343.606 183.158 339.109C181.452 330.008 180.165 321.021 179.653 311.773C179.141 302.414 176.964 287.734 176.964 287.734C176.964 287.734 176.745 287.773 176.356 287.842C173.856 288.288 164.281 289.992 158.889 290.735C152.491 291.616 145.886 292.12 139.234 292.131C123.504 292.154 107.547 289.439 93.6465 282.526C93.477 283.11 93.3076 283.699 93.1419 284.291C92.2368 287.469 91.3625 290.658 90.5074 293.855C88.7396 300.441 87.0525 307.049 85.327 313.643C81.7681 327.222 78.2092 340.794 74.6504 354.37C74.5001 354.951 74.3461 355.535 74.192 356.116C74.1843 356.143 74.1766 356.166 74.1651 356.189C74.0803 356.532 73.9108 356.866 73.5334 357.19C72.5474 358.044 71.3957 358.732 70.144 359.278C68.6727 359.921 67.0588 360.371 65.3911 360.671C62.8721 361.129 60.2338 361.24 57.7996 361.16C56.8097 361.133 55.8507 361.067 54.9455 360.983C54.4448 360.933 53.79 360.809 53.0313 360.625C51.0477 360.132 48.3516 359.205 45.848 358.109C42.4085 356.613 39.3234 354.801 38.8959 353.354C38.0447 350.454 39.7471 325.607 40.6946 311.758C40.4866 308.808 40.5444 305.822 40.475 302.883C40.3903 299.379 40.3056 295.882 40.2208 292.378C40.1746 292.297 40.1438 292.197 40.1438 292.078C39.9204 267.761 39.3388 243.511 39.3388 219.195C39.335 194.913 45.5823 172.275 66.5042 157.849C88.0039 143.023 114.511 141.765 139.858 143.904C139.931 143.827 140.031 143.769 140.17 143.746C157.495 140.815 175.174 141.277 192.59 139.092C207.966 137.168 223.311 134.133 238.868 134.175C244.618 134.191 250.692 134.779 255.842 137.545C261.003 140.323 264.053 145.204 265.359 150.813C265.428 151.121 265.494 151.425 265.555 151.732C265.575 150.082 265.609 148.432 265.667 146.781C265.694 146 266.907 146 266.88 146.781C266.468 158.226 267.042 169.666 267.389 181.103C267.47 183.881 267.497 186.631 267.477 189.362Z" fill="#BAD2D6"/>
<path d="M70.3211 155.389C63.3844 158.755 55.8968 164.256 53.3471 167.026C49.326 171.404 46.1407 175.32 43.3098 180.613C40.4172 186.026 37.8713 191.153 35.5989 196.847C33.2455 202.744 31.0848 208.718 29.1205 214.754C27.1446 220.828 25.3728 226.964 23.7937 233.15C22.8 235.427 21.9257 237.916 20.9358 240.105C21.2901 239.978 21.7947 239.959 22.1837 240.166C22.5188 240.343 23.0002 241.055 23.0002 241.055C23.0002 241.055 27.626 233.588 29.0704 229.603C31.158 223.848 32.8334 217.985 35.2792 212.357C37.7211 206.737 40.6329 201.321 43.953 196.174C45.6939 193.477 47.5504 190.85 49.5186 188.314C51.2787 186.045 53.297 183.956 54.9994 181.644C57.1139 178.778 56.5824 175.708 57.1024 172.388C57.6493 168.88 59.5713 165.845 62.3367 163.656C62.7527 163.325 62.4869 162.829 62.0825 162.694C64.1547 161.398 66.3116 160.29 68.5378 159.478C69.2658 159.217 71.0221 155.047 70.3211 155.389Z" fill="#BAD2D6"/>
<path d="M344.609 54.9557C345.172 44.3884 342.849 33.7057 337.376 24.4847C324.046 2.04212 295.185 -6.62488 271.221 5.47352C260.02 11.1284 251.181 20.5378 245.064 31.3745C243.304 34.4904 241.764 37.7256 240.412 41.0378C238.979 44.5423 238.128 48.4007 236.383 51.7551C235.524 53.4016 234.265 54.948 232.547 55.7443C230.925 56.4945 229.073 55.7944 227.52 56.5907C226.808 56.9561 226.23 57.6485 226.234 58.4756C226.238 59.5143 227.466 60.1028 227.478 61.0492C227.501 63.0188 226.627 61.9686 225.263 62.6841C224.57 63.0457 224.281 63.8382 224.532 64.5691C224.859 65.5115 225.857 66.0963 226.658 66.5848C226.912 66.7387 227.17 66.8887 227.432 67.0272C221.912 68.0736 216.586 69.9201 211.779 72.8898C202.508 67.0811 191.4 63.9266 180.746 61.7493C163.507 58.2294 141.229 59.9605 126.832 70.9087C120.084 76.0404 114.707 82.934 111.31 90.6931C109.65 94.4823 108.456 98.4638 107.809 102.549C107.493 104.542 107.2 106.623 107.631 108.616C108.086 110.716 109.407 112.328 110.847 113.855C118.659 122.141 126.658 130.254 134.562 138.448C141.229 145.361 147.811 152.093 157.005 155.505C165.209 158.552 174.21 159.006 182.807 157.655C196.95 155.432 209.926 148.204 220.01 138.117C221.292 139.706 222.964 140.956 224.72 142.072C227.871 144.072 231.16 145.899 234.526 147.515C240.978 150.612 247.922 152.839 255.133 152.951C261.661 153.051 268.19 151.524 274.036 148.635C276.96 147.192 279.702 145.392 282.19 143.291C285.052 140.875 287.374 137.952 290.017 135.313C293.267 132.062 296.191 128.465 298.583 124.446C300.354 121.472 301.379 119.21 300.944 115.879C300.851 115.182 300.809 114.363 300.585 113.644C315.11 108.089 327.327 95.9903 335.558 83.2187C340.985 74.794 344.078 64.9268 344.609 54.9557ZM243.905 65.9886C244.248 65.7577 244.587 65.5154 244.914 65.2576C248.789 62.1994 251.277 57.7909 253.214 53.3362C255.514 48.0506 257.37 42.6419 260.44 37.7218C263.533 32.7632 267.492 28.0161 272.249 24.5655C281.963 17.5219 295.578 18.172 304.464 26.2812C306.39 28.0392 308.108 30.0935 309.24 32.4554C310.808 35.7291 310.681 39.3259 310.03 42.815C309.051 48.0583 306.81 52.9862 303.802 57.3754C297.331 66.8118 294.261 70.2586 280.187 71.3088C266.117 72.359 257.139 66.8118 245.723 66.0886C245.118 66.0463 244.514 66.0155 243.905 65.9886Z" fill="#BAD2D6"/>
<path d="M258.36 95.0902C257.305 93.6053 254.974 92.7821 253.21 92.8398C251.127 92.9052 249.108 94.1362 248.196 95.0517C246.859 96.3943 250.949 95.2364 251.338 95.1902C252.841 95.0055 254.354 95.1863 255.833 95.4672C256.23 95.5364 259.25 96.3404 258.36 95.0902Z" fill="#252622"/>
<path d="M298.297 113.308C295.166 114.154 291.935 114.374 288.726 113.824C285.822 113.327 281.859 112.289 280.083 109.754C279.64 109.119 278.589 109.723 279.036 110.365C280.907 113.047 284.655 114.235 287.725 114.862C291.353 115.605 295.051 115.439 298.617 114.474C299.372 114.27 299.052 113.104 298.297 113.308Z" fill="#659AA6"/>
<path d="M201.129 360.066C198.441 359.985 195.495 359.65 192.991 359.15C193.295 357.981 193.634 356.788 194.482 355.9C195.645 354.673 197.628 354.315 199.107 355.177C200.764 356.146 201.164 358.1 201.129 360.066Z" fill="white"/>
<path d="M214.332 358.928C211.401 359.397 208.235 359.609 206.352 359.821C206.725 357.616 208.57 355.604 210.92 355.731C212.769 355.839 214.074 357.17 214.332 358.928Z" fill="white"/>
<path d="M222.032 353.677C221.735 354.574 221.431 355.397 221.123 356.124C220.707 357.109 219.243 357.801 217.356 358.309C217.487 356.601 218.188 354.801 219.678 353.981C220.422 353.57 221.261 353.485 222.032 353.677Z" fill="white"/>
<path d="M74.6463 354.37C74.4961 354.951 74.342 355.536 74.1879 356.117C74.1802 356.144 74.1725 356.167 74.161 356.19C74.0762 356.532 73.9068 356.867 73.5293 357.19C72.5433 358.044 71.3917 358.732 70.1399 359.279C70.4827 357.475 71.4302 355.701 73.0787 354.839C73.5794 354.578 74.1109 354.416 74.6463 354.37Z" fill="white"/>
<path d="M65.3874 360.674C62.8685 361.132 60.2301 361.244 57.7959 361.163C58.2581 359.224 59.429 357.539 61.686 357.543C63.4809 357.543 64.9252 358.886 65.3643 360.57C65.372 360.605 65.3797 360.636 65.3874 360.674Z" fill="white"/>
<path d="M53.0231 360.624C51.0395 360.131 48.3434 359.204 45.8398 358.108C46.5177 356.854 47.5885 355.942 49.237 355.965C51.0125 355.992 52.4415 357.339 52.8228 359.024C52.9345 359.543 52.9961 360.085 53.0231 360.624Z" fill="white"/>
<path d="M208.405 113.631C206.545 108.672 203.502 104.002 203.252 98.5783C203.051 94.289 204.014 84.418 204.014 84.418C204.014 84.418 187.545 71.9041 173.621 69.6037C161.727 67.638 149.152 68.8536 138.545 74.697C128.473 80.248 116.91 91.8848 119.961 104.599C121.405 110.619 127.579 113.95 132.058 117.536C137.281 121.717 140.478 127.945 145.042 132.773C149.714 137.712 155.272 141.536 161.666 143.941C171.98 147.818 184.271 148.857 194.505 144.152C201.973 140.721 207.835 134.146 209.499 125.999C210.35 121.794 209.907 117.636 208.405 113.631Z" fill="#FFCFB8"/>
<path d="M240.604 66.9583C236.887 68.9472 232.82 68.4009 228.879 67.4738C228.121 67.2969 227.797 68.4625 228.556 68.6433C232.827 69.6473 237.207 70.1512 241.216 68.0047C241.906 67.6354 241.293 66.5929 240.604 66.9583Z" fill="#659AA6"/>
<path d="M231.73 61.9117C231.445 61.4386 230.81 61.2193 230.332 61.0116C229.7 60.7384 229.053 60.5153 228.391 60.3384C227.636 60.1383 227.312 61.3078 228.067 61.5078C228.73 61.6848 229.385 61.9002 230.009 62.1849C230.097 62.2233 230.671 62.4464 230.679 62.5195C230.698 62.7542 230.07 62.8504 229.928 62.885C229.169 63.0658 229.489 64.2352 230.251 64.0544C231.164 63.8352 232.393 63.0158 231.73 61.9117Z" fill="#659AA6"/>
<path d="M251.235 53.7983C248.635 52.2441 245.654 51.3478 243.254 49.459C242.65 48.982 241.783 49.8321 242.395 50.3168C244.887 52.2826 247.919 53.2328 250.619 54.8485C251.293 55.2447 251.905 54.1983 251.235 53.7983Z" fill="#659AA6"/>
<path d="M252.637 49.4389C251.016 48.6926 249.568 47.704 248.296 46.4499C247.738 45.9036 246.883 46.7576 247.438 47.3077C248.778 48.6272 250.315 49.6966 252.025 50.4853C252.726 50.8084 253.342 49.7659 252.637 49.4389Z" fill="#659AA6"/>
<path d="M294.939 82.3102C292.917 78.6134 290.73 75.0127 288.384 71.5082C287.953 70.8619 286.901 71.4697 287.336 72.1199C289.682 75.6243 291.87 79.2211 293.892 82.9218C294.269 83.6027 295.317 82.9949 294.939 82.3102Z" fill="#659AA6"/>
<path d="M297.704 78.3566C296.641 75.8561 295.17 73.6018 293.325 71.6053C292.793 71.0321 291.938 71.89 292.466 72.4632C294.242 74.3866 295.632 76.5639 296.657 78.9721C296.961 79.6837 298.005 79.0682 297.704 78.3566Z" fill="#659AA6"/>
<path d="M312.911 61.426C310.523 59.9912 307.719 60.0335 305.084 59.368C304.329 59.1756 304.006 60.3451 304.761 60.5374C307.28 61.176 310.014 61.1029 312.298 62.4762C312.969 62.8763 313.577 61.83 312.911 61.426Z" fill="#659AA6"/>
<path d="M311.813 55.4473C310.269 55.455 308.74 55.5896 307.214 55.8358C306.448 55.9628 306.771 57.1284 307.538 57.0053C308.955 56.7744 310.377 56.6629 311.813 56.659C312.591 56.6552 312.595 55.4434 311.813 55.4473Z" fill="#659AA6"/>
<path d="M317.325 37.1756C315.457 37.7334 313.674 38.4873 311.971 39.4337C311.29 39.8145 311.902 40.8609 312.584 40.48C314.197 39.5837 315.877 38.872 317.649 38.345C318.392 38.118 318.076 36.9486 317.325 37.1756Z" fill="#659AA6"/>
<path d="M315.897 29.5513C314.364 30.1668 312.931 30.9438 311.598 31.9171C310.974 32.371 311.579 33.4251 312.211 32.9634C313.455 32.0517 314.787 31.2939 316.22 30.7207C316.933 30.4322 316.621 29.2628 315.897 29.5513Z" fill="#659AA6"/>
<path d="M302.881 15.599C302.58 18.1072 302.068 20.5653 301.359 22.9889C301.14 23.739 302.311 24.0583 302.53 23.312C303.27 20.7807 303.786 18.2187 304.098 15.599C304.186 14.8297 302.973 14.8335 302.881 15.599Z" fill="#659AA6"/>
<path d="M299.245 17.372C298.975 18.2683 298.706 19.1685 298.432 20.0648C298.209 20.8111 299.376 21.1304 299.603 20.3879C299.873 19.4916 300.142 18.5914 300.416 17.6951C300.639 16.945 299.468 16.6257 299.245 17.372Z" fill="#659AA6"/>
<path d="M275.858 18.53C274.93 16.568 273.913 14.6562 272.812 12.7904C272.415 12.1211 271.367 12.7289 271.764 13.4021C272.869 15.2678 273.882 17.1835 274.811 19.1416C275.142 19.8456 276.19 19.2339 275.858 18.53Z" fill="#659AA6"/>
<path d="M272.361 21.5078C271.664 19.7421 270.732 18.1379 269.534 16.6646C269.045 16.0568 268.19 16.9185 268.675 17.5225C269.73 18.8265 270.574 20.273 271.19 21.8309C271.475 22.5465 272.646 22.2349 272.361 21.5078Z" fill="#659AA6"/>
<path d="M253.727 81.7381C253.407 81.4765 252.953 81.2995 252.471 81.2803C248.778 81.1533 244.314 83.5076 243.077 87.0967C242.912 87.5738 243.405 87.9123 243.825 87.843C244.811 87.6738 245.461 87.0814 246.263 86.5197C247.476 85.6734 248.789 84.9617 250.176 84.4424C251.204 84.0577 252.579 84.1193 253.527 83.4961C254.416 82.9113 254.278 82.192 253.727 81.7381Z" fill="#659AA6"/>
<path d="M210.131 91.697C206.098 85.3074 200.444 80.1795 193.677 76.8058C192.98 76.4596 192.367 77.5021 193.064 77.8521C199.654 81.1374 205.155 86.0883 209.083 92.3087C209.499 92.9665 210.551 92.3587 210.131 91.697Z" fill="#659AA6"/>
<path d="M223.603 140.741C221.427 139.064 218.623 139.414 216.339 140.702C213.231 142.457 210.67 145.284 207.789 147.381C201.487 151.958 194.45 155.351 186.747 156.744C170.971 159.598 155.064 154.401 142.265 145.23C141.63 144.776 141.025 145.827 141.653 146.277C153.689 154.905 168.41 160.045 183.335 158.448C190.587 157.671 197.474 155.29 203.717 151.535C206.776 149.7 209.657 147.585 212.403 145.311C215.211 142.984 219.186 138.86 222.987 141.791C223.607 142.264 224.212 141.21 223.603 140.741Z" fill="#659AA6"/>
<path d="M262.093 152.555C254.833 153.217 247.619 151.94 241.052 148.774C240.351 148.435 239.739 149.481 240.44 149.82C247.195 153.078 254.617 154.452 262.093 153.767C262.864 153.694 262.871 152.482 262.093 152.555Z" fill="#659AA6"/>
<path d="M111.252 153.496C111.106 153.042 110.86 152.623 110.501 152.269C109.589 151.381 108.229 151.142 106.958 151.065C101.392 150.723 93.9548 152.765 90.238 157.216C88.759 158.986 89.8413 161.725 92.0252 162.433C93.924 163.044 95.6187 161.506 97.3057 160.929C99.1661 160.294 101.273 160.098 103.226 160.017C105.49 159.921 107.898 159.648 109.662 158.224C111.037 157.116 111.761 155.089 111.252 153.496Z" fill="#659AA6"/>
<path d="M116.093 163.88C116.043 163.849 115.993 163.822 115.943 163.795C113.586 162.583 110.224 162.883 108.617 165.157C108.259 165.664 107.993 166.268 108.005 166.892C108.013 167.515 108.34 168.157 108.902 168.427C109.234 168.584 109.611 168.603 109.977 168.6C112.269 168.569 114.533 167.599 116.136 165.965C116.517 165.572 116.887 165.037 116.71 164.518C116.606 164.237 116.359 164.037 116.093 163.88Z" fill="#659AA6"/>
<path d="M79.4415 157.582C78.4709 157.005 76.7454 157.028 75.9751 157.182C73.4253 157.69 71.1182 159.317 69.7778 161.545C69.1115 162.653 68.7533 164.249 69.7124 165.118C70.5982 165.922 72.0079 165.565 73.0902 165.057C75.5129 163.926 77.6852 162.268 79.4184 160.229C79.7188 159.875 80.0193 159.49 80.1079 159.033C80.2465 158.344 79.9461 157.882 79.4415 157.582Z" fill="#659AA6"/>
<path d="M134.559 154.071C134.347 153.671 133.973 153.305 133.6 153.04C130.569 150.897 125.916 149.67 122.538 151.72C121.602 152.29 120.735 153.205 120.762 154.301C120.801 155.713 122.261 156.637 123.609 157.06C127.025 158.133 130.9 157.644 133.943 155.759C134.197 155.602 134.459 155.425 134.601 155.159C134.801 154.809 134.748 154.428 134.559 154.071Z" fill="#659AA6"/>
<path d="M147.657 165.199C147.241 163.53 144.572 162.891 142.885 162.902C140.02 162.922 137.131 164.222 135.363 166.499C135.128 166.803 134.905 167.138 134.862 167.519C134.797 168.127 135.205 168.684 135.667 169.084C136.819 170.081 138.398 170.5 139.923 170.454C141.449 170.408 142.932 169.938 144.334 169.334C145.508 168.827 146.706 168.161 147.315 167.038C147.704 166.319 147.785 165.711 147.657 165.199Z" fill="#659AA6"/>
<path d="M168.186 162.194C168.125 162.186 168.067 162.178 168.005 162.174C165.24 161.886 161.226 162.84 159.285 164.975C158.623 165.702 158.191 166.771 158.584 167.672C158.989 168.587 160.079 168.979 161.072 169.11C163.884 169.476 166.846 168.429 168.803 166.375C169.307 165.848 169.758 165.236 169.912 164.521C170.066 163.809 169.862 162.982 169.269 162.559C168.957 162.336 168.571 162.244 168.186 162.194Z" fill="#659AA6"/>
<path d="M84.7571 167.865C84.4451 166.338 82.6426 166.149 81.3715 166.426C80.0812 166.707 78.9257 167.627 78.3634 168.819C78.0283 169.535 78.2902 170.354 79.0875 170.596C79.4226 170.7 79.7615 170.766 80.0966 170.796C80.709 171.096 81.464 171.154 82.1457 170.939C83.3859 170.546 85.0614 169.358 84.7571 167.865Z" fill="#659AA6"/>
<path d="M174.807 278.828C173.81 274.554 172.516 270.311 169.685 266.864C167.035 263.636 163.418 261.251 159.674 259.455C142.562 251.246 123.7 252.892 108.001 262.486C103.834 265.029 98.8498 270.353 96.4079 274.635C94.7017 277.631 93.4692 283.113 93.6386 282.528C107.539 289.441 123.5 292.157 139.226 292.134C145.878 292.123 152.483 291.619 158.881 290.738C164.273 289.995 173.845 288.291 176.348 287.845C176.017 284.817 175.505 281.809 174.807 278.828Z" fill="#EECEC4"/>
<path d="M96.3115 269.311C95.1599 273.128 94.1431 276.978 93.2572 280.864C93.0839 281.621 94.2548 281.945 94.4281 281.187C95.3101 277.301 96.3308 273.451 97.4824 269.635C97.7058 268.884 96.5349 268.565 96.3115 269.311Z" fill="#659AA6"/>
<path d="M199.862 88.853C197.043 85.4408 194.239 82.7672 190.214 80.8207C186.101 78.828 181.875 77.1046 177.404 76.1006C168.795 74.1656 159.79 74.5965 151.386 77.2585C150.647 77.4932 150.962 78.6626 151.71 78.428C159.906 75.8313 168.68 75.3851 177.084 77.27C181.336 78.2241 185.342 79.8359 189.267 81.7093C193.334 83.6482 196.169 86.2794 199.007 89.7147C199.504 90.3109 200.356 89.4531 199.862 88.853Z" fill="#FF9663"/>
<path d="M142.277 81.2597C135.806 84.4718 129.944 88.6957 124.848 93.8082C124.297 94.3621 125.152 95.2162 125.707 94.666C130.737 89.6228 136.507 85.4759 142.893 82.3061C143.586 81.9598 142.974 80.9135 142.277 81.2597Z" fill="#FF9663"/>
<path d="M200.679 94.0589C191.396 87.727 179.861 85.4112 168.841 87.6039C168.079 87.7578 168.402 88.9234 169.165 88.7734C179.872 86.6422 191.057 88.958 200.066 95.1053C200.713 95.5477 201.322 94.4975 200.679 94.0589Z" fill="#FF9663"/>
<path d="M206.04 117.455C206.009 116.678 204.796 116.674 204.827 117.455C205.166 125.584 200.339 132.589 193.861 137.094C190.68 139.306 186.974 141.517 183.026 141.733C179.059 141.948 174.568 141.533 170.909 139.929C170.201 139.617 169.584 140.663 170.297 140.975C174.168 142.672 178.824 143.152 183.026 142.945C187.202 142.737 191.111 140.479 194.473 138.14C201.295 133.397 206.394 126.018 206.04 117.455Z" fill="#FF9663"/>
<path d="M49.0793 173.428C45.5936 180.691 42.8936 188.277 41.0255 196.109C40.8445 196.867 42.0154 197.19 42.1964 196.433C44.0414 188.696 46.6874 181.21 50.1269 174.04C50.462 173.34 49.4144 172.724 49.0793 173.428Z" fill="#659AA6"/>
<path d="M81.6449 290.222C79.669 290.28 78.4481 293.034 77.7817 294.527C76.8766 296.565 76.0947 299.362 76.5338 301.616C76.8535 303.255 78.3287 304.425 79.9232 303.44C82.2843 301.982 82.3266 298.108 82.1572 295.719C82.1032 294.946 80.89 294.942 80.9439 295.719C81.0248 296.862 81.0286 297.997 80.8399 299.131C80.7244 299.812 80.3585 302.032 79.5419 302.213C78.918 301.816 78.294 301.424 77.67 301.028C77.6662 300.859 77.6623 300.693 77.6585 300.524C77.5853 300.143 77.697 299.608 77.7394 299.224C77.8511 298.204 78.086 297.181 78.4172 296.208C78.7485 295.231 79.1876 294.284 79.7229 293.403C79.9309 293.065 80.3161 292.219 80.655 292.057C81.3522 292.111 82.0493 292.161 82.7426 292.215C82.862 292.484 82.9814 292.753 83.1008 293.023C83.6554 294.731 83.5245 296.877 83.3011 298.631C82.8697 302.028 81.3175 306.16 78.1284 307.891C76.8689 308.575 75.7019 308.806 74.7582 307.656C73.8724 306.579 73.9648 305.332 73.9687 303.975C73.9764 301.613 74.2999 299.289 74.8507 296.996C75.0317 296.238 73.8647 295.915 73.6798 296.673C72.9403 299.751 72.5204 303.009 72.8324 306.175C73.0057 307.925 73.7568 309.46 75.6711 309.679C80.2737 310.206 83.3165 304.328 84.1715 300.662C84.7146 298.362 85.8239 290.103 81.6449 290.222Z" fill="#659AA6"/>
<path d="M226.454 295.516C225.171 293.797 223.604 294.016 222.263 295.566C220.499 297.609 219.952 300.533 219.613 303.125C219.398 304.749 219.852 307.63 222.229 307.088C223.23 306.857 223.584 305.83 223.946 304.991C224.694 303.264 225.202 301.606 225.021 299.717C224.948 298.948 223.735 298.94 223.808 299.717C223.939 301.075 223.7 302.287 223.238 303.545C223.041 304.087 222.814 304.618 222.568 305.137C221.951 304.853 221.335 304.568 220.715 304.28C220.53 303.983 220.873 302.887 220.934 302.498C221.243 300.587 221.635 297.709 223.195 296.374C225.872 294.081 226.901 299.29 226.924 301.179C226.951 303.449 226.334 305.722 225.383 307.772C224.547 309.577 223.426 311.681 221.647 312.708C220.087 313.608 218.177 313.443 217.187 311.869C216.571 310.888 216.524 309.734 216.567 308.6C216.748 303.899 218.389 299.232 220.715 295.186C221.104 294.508 220.056 293.897 219.667 294.574C218.073 297.34 216.852 300.29 216.12 303.402C215.542 305.864 214.903 308.846 215.612 311.342C216.216 313.474 218.05 314.751 220.28 314.439C222.537 314.127 224.12 312.373 225.264 310.538C227.867 306.38 229.701 299.867 226.454 295.516Z" fill="#659AA6"/>
</svg>
