<svg width="513" height="208" viewBox="0 0 513 208" fill="none" xmlns="http://www.w3.org/2000/svg">
<circle cx="104" cy="104" r="104" fill="#FA5F1D"/>
<path d="M487.395 103.889C484.326 99.5771 479.717 102.38 476.803 105.286C475.995 104.377 475.183 103.468 474.376 102.558C473.639 101.733 472.959 100.561 471.753 100.515C470.523 100.463 469.106 101.424 468.083 101.996C467.036 102.582 466.06 103.261 465.126 103.997C464.478 102.619 463.803 101.255 463.075 99.9146C462.404 98.6771 462.015 97.3084 460.466 97.3366C457.5 97.3834 454.402 99.0662 451.995 101.035C451.455 99.9943 450.92 98.9537 450.38 97.9131C449.535 96.2819 448.799 93.7835 446.738 93.3757C444.95 93.0242 443.045 94.2007 441.524 94.9601C439.431 96.0053 437.413 97.1772 435.456 98.4475C434.827 97.1444 434.325 95.7757 433.626 94.4913C433.048 93.432 432.157 91.8289 430.81 91.6461C429.177 91.4258 426.29 93.1086 424.817 93.7367C423.709 94.2101 422.634 94.7304 421.593 95.3116C420.49 93.6711 419.387 92.0305 418.284 90.3899C417.284 88.8993 416.233 86.7525 414.313 86.2979C412.361 85.8338 409.963 87.165 408.32 88.0978C406.837 88.9415 405.49 89.968 404.265 91.1352C403.881 90.254 403.486 89.3774 403.073 88.5103C402.454 87.2119 401.806 85.9276 401.126 84.6573C400.727 83.912 400.351 82.7917 399.568 82.3371C398.239 81.5683 395.893 83.0589 394.645 83.6261C392.598 84.5542 390.665 85.6697 388.811 86.926C388.496 86.0213 388.144 85.1307 387.75 84.2542C386.957 82.487 386.103 80.2043 384.085 79.5668C380.701 78.4981 376.285 81.2637 373.45 83.3917C372.789 81.8964 372.052 80.4387 371.198 79.0371C370.376 77.6966 369.621 76.5857 367.95 76.4169C363.989 76.0232 359.774 78.7794 357.334 81.6574C356.048 77.87 354.129 73.5858 350.332 72.2218C348.788 71.6686 347.216 72.6671 345.859 73.342C343.405 74.5607 341.161 76.1029 339.068 77.8606C338.749 78.1278 338.791 78.4841 338.993 78.7325C338.73 84.3385 341.621 89.9259 344.644 94.4726C347.732 99.1178 353.856 100.121 358.826 101.682C371.995 105.816 385.291 109.472 399.094 110.625C406.34 111.23 413.638 111.399 420.832 112.528C427.29 113.545 433.616 115.284 440.121 116.03C446.959 116.812 453.914 116.714 460.771 116.222C466.792 115.791 472.842 114.919 478.567 112.945C481.824 111.825 490.957 108.896 487.395 103.889Z" fill="#0F5C4F"/>
<path d="M343.006 80.9919C342.612 80.317 342.218 79.6373 341.828 78.9623C342.11 78.5123 341.73 77.8561 341.204 77.8795C340.261 76.2483 339.318 74.6171 338.323 73.0188C337.257 71.3079 335.967 69.7798 333.878 69.4189C330.283 68.8002 326.336 71.2141 323.243 73.6656C322.638 72.175 322 70.6985 321.329 69.2314C320.437 67.2814 319.766 64.7503 317.358 64.3753C312.782 63.6581 308.488 68.0924 305.18 71.5329C304.241 69.4939 303.194 67.5111 302.007 65.5987C300.862 63.7566 299.473 61.441 297.117 61.0754C294.723 60.7051 292.715 62.43 291.072 63.9253C289.035 65.7721 287.195 67.8064 285.501 69.9626C284.788 67.8767 283.99 65.7956 282.807 63.9347C281.747 62.2754 280.16 60.0817 278.025 59.8942C275.631 59.6833 273.308 61.8113 271.633 63.2503C269.39 65.1768 267.494 67.4268 265.874 69.8923C265.415 70.5907 266.414 71.2422 266.963 70.7501C268.826 76.1218 273.717 79.3701 278.846 81.3669C282.31 82.7122 285.938 83.5934 289.387 84.9762C292.668 86.2886 295.69 88.3698 299.247 88.8807C302.767 89.3869 306.489 88.6698 309.99 88.2807C313.524 87.8823 317.058 87.4323 320.559 86.7949C327.632 85.5058 334.399 83.2887 340.646 79.7451L341.795 81.7091C342.246 82.4825 343.466 81.7747 343.006 80.9919Z" fill="#0F5C4F"/>
<path d="M269.23 70.3006C267.756 67.9475 266.006 65.796 263.908 63.9633C262.27 62.529 260.102 60.6024 257.92 60.1712C255.77 59.7493 253.879 61.5306 252.354 62.7961C250.767 64.118 249.336 65.5898 248.027 67.1694C247.158 65.782 246.215 64.4461 245.182 63.1711C243.742 61.3993 241.949 59.4728 239.593 59.0322C237.467 58.6338 235.679 59.7025 234.177 61.0946C232.628 62.529 231.164 64.0805 229.714 65.632C228.451 63.9633 227.015 62.4352 225.377 61.104C223.458 59.5431 221.205 57.8603 218.601 58.1275C216.104 58.3853 214.011 60.1478 212.199 61.7415C210.641 63.1102 209.238 64.6242 207.952 66.2366C205.788 62.7774 202.663 59.5244 198.918 58.84C196.369 58.376 194.595 59.8056 192.929 61.5305C191.343 63.1758 189.93 64.9617 188.668 66.8507C187.321 64.9335 185.88 63.068 184.294 61.343C182.858 59.7775 181.06 58.1978 178.808 58.1556C176.644 58.1135 174.833 59.5103 173.307 60.879C171.36 62.6227 169.618 64.568 167.99 66.6116C167.291 65.1773 166.446 63.832 165.413 62.5899C164.146 61.0618 162.128 58.7791 160.035 58.4181C157.853 58.0478 156.389 60.1103 155.173 61.5821C153.549 63.5461 152.132 65.646 150.869 67.8538C150.245 67.9053 149.626 67.9663 149.006 68.046C148.176 66.8085 147.27 65.6273 146.265 64.5164C144.876 62.9742 143.037 61.0431 140.882 60.6587C138.742 60.279 137.381 62.0274 136.109 63.4758C134.523 65.2804 133.186 67.2632 132.055 69.3772C131.745 69.3115 131.435 69.2459 131.125 69.1709C130.248 68.9553 129.872 70.3099 130.75 70.5256C131.027 70.5912 131.299 70.6427 131.576 70.7037C131.721 71.238 132.496 71.5287 132.824 70.9427C136.461 71.5474 140.089 71.4068 143.736 70.5631C145.327 70.1928 146.89 69.9256 148.452 69.724C148.875 70.4365 149.264 71.1396 149.616 71.8005C150.043 72.5974 151.259 71.8896 150.832 71.0927C150.55 70.5724 150.259 70.0568 149.954 69.5506C150.118 69.5318 150.283 69.5178 150.452 69.5037C150.738 69.8365 151.32 69.9303 151.592 69.4334C151.597 69.424 151.602 69.4147 151.611 69.4053C153.901 69.2318 156.21 69.1662 158.599 69.1475C161.57 69.124 164.545 69.0631 167.516 69.0397C167.525 69.0584 167.53 69.0772 167.539 69.0959C167.812 69.8272 168.872 69.649 168.938 69.0303C170.454 69.0256 171.974 69.0303 173.49 69.0678C178.681 69.1897 183.529 70.3428 188.414 72.0208C197.557 75.1567 206.619 78.0206 216.174 79.6425C225.439 81.2174 234.867 81.8783 244.258 81.583C248.838 81.4377 254.01 81.5174 258.309 79.7034C262.618 77.8847 264.743 73.4458 268.803 71.313C269.207 71.1818 269.512 70.7553 269.23 70.3006Z" fill="#0F5C4F"/>
<path d="M134.735 70.5639C134.543 70.067 133.989 69.9967 133.637 70.1983C133.398 69.4155 133.139 68.6187 132.848 67.8312C131.502 64.1891 129.479 60.7205 125.64 59.408C123.251 58.5877 120.609 58.8971 118.295 59.8158C116.976 60.3455 115.756 61.058 114.602 61.8829C113.94 62.3564 113.198 63.1673 112.452 63.8001C109.416 60.6127 104.558 60.1767 100.696 62.3798C96.1859 64.9578 94.0645 69.7342 92.9194 74.5903C77.4368 76.4137 62.0152 78.6871 46.6688 81.4057C44.1579 80.3042 42.1728 78.9167 39.2677 79.3386C38.0006 79.5214 36.6771 80.0324 35.7432 80.9089C34.171 79.8214 31.9511 80.412 30.6981 82.0948C28.5299 85.0056 28.849 89.8804 29.4263 93.4569C29.4075 93.546 29.4075 93.6444 29.431 93.7475C29.4544 93.8694 29.4967 93.9772 29.5342 94.0897C29.5483 94.1835 29.5671 94.2819 29.5812 94.3756C29.6187 94.5725 29.7173 94.7037 29.8393 94.7834C31.1112 96.8646 34.5699 97.2536 36.8085 97.563C36.3486 105.888 47.2742 108.194 53.7084 109.38C64.1694 111.302 74.7899 112.108 85.3963 112.666C91.0516 112.966 96.7068 113.209 102.362 113.472C102.362 113.472 102.423 113.477 102.54 113.481H102.583C102.587 113.481 102.597 113.481 102.601 113.486C102.752 113.491 102.906 113.5 103.057 113.509C104.38 113.57 105.713 113.65 107.041 113.725C107.224 113.734 107.416 113.744 107.609 113.753C109.336 113.852 111.063 113.941 112.79 113.997C114.7 114.058 116.606 114.081 118.511 114.025C126.372 113.805 134.707 111.419 137.035 103.014C139.94 92.5054 138.607 80.6276 134.735 70.5639Z" fill="#3C8F68"/>
<path d="M509.41 105.521C505.632 105.183 501.671 105.596 497.869 105.516C489.811 105.348 481.762 104.79 473.756 103.848C448.737 100.895 424.098 95.2651 399.633 89.4012C381.043 84.9482 362.515 80.1953 343.738 76.5626C330.311 73.9658 316.785 71.9221 303.199 70.3425C302.87 70.305 302.542 70.2628 302.213 70.2253C298.975 69.855 295.732 69.5081 292.484 69.1894C291.841 69.1238 291.203 69.0628 290.56 69.0019C290.377 68.9831 290.199 68.9691 290.016 68.9503C289.903 68.9409 289.79 68.9269 289.678 68.9175C289.382 68.8894 289.091 68.8613 288.796 68.8331C288.584 68.8097 288.364 68.7956 288.153 68.7722C288.129 68.7722 288.11 68.7675 288.087 68.7675C287.744 68.7347 287.406 68.7066 287.064 68.6738C282.267 68.2378 277.466 67.8535 272.661 67.5254C271.9 67.4691 271.135 67.4176 270.375 67.3707C270.295 67.3613 270.211 67.3566 270.131 67.3519C269.765 67.3238 269.399 67.3004 269.037 67.2769C268.39 67.2348 267.742 67.1926 267.095 67.1551C266.714 67.1269 266.334 67.1082 265.959 67.0847C262.345 66.8644 258.731 66.6676 255.118 66.5035C254.738 66.4801 254.357 66.466 253.972 66.452C253.236 66.4191 252.504 66.3817 251.767 66.3489C251.1 66.3207 250.439 66.2926 249.777 66.2691C249.514 66.2551 249.256 66.2457 248.998 66.2363C248.486 66.2176 247.979 66.1941 247.468 66.1801C246.374 66.1332 245.281 66.0957 244.187 66.0582C243.812 66.0441 243.437 66.0301 243.056 66.016C241.062 65.9551 239.067 65.8942 237.068 65.8473C236.678 65.8332 236.289 65.8239 235.899 65.8145C233.135 65.7395 230.366 65.6879 227.602 65.6457C227.165 65.6364 226.734 65.627 226.297 65.6223C225.955 65.6129 225.612 65.6082 225.269 65.6036H225.143C222.153 65.5614 219.164 65.5286 216.174 65.5145C215.78 65.5098 215.386 65.5051 214.992 65.5051C211.875 65.491 208.759 65.4864 205.643 65.5004H204.46C203.606 65.5051 202.752 65.5098 201.902 65.5145C200.532 65.5239 199.166 65.5332 197.801 65.5473C197.388 65.5473 196.975 65.552 196.566 65.5567C195.14 65.5708 193.718 65.5848 192.296 65.6036C189.775 65.6364 187.26 65.6739 184.744 65.7254C184.242 65.7301 183.745 65.7395 183.247 65.7535C182.872 65.7582 182.496 65.7629 182.121 65.7723C181.745 65.7817 181.37 65.7863 180.999 65.7957H180.934C180.201 65.8145 179.469 65.8285 178.737 65.8426C178.033 65.8614 177.329 65.8754 176.625 65.8942C176.231 65.9035 175.837 65.9129 175.443 65.9223C175.161 65.927 174.875 65.9363 174.593 65.941C172.974 65.9832 171.355 66.0207 169.731 66.0582C169.238 66.0723 168.741 66.0817 168.243 66.0957L161.119 66.2645C160.739 66.2738 160.359 66.2832 159.983 66.2926C159.721 66.2973 159.453 66.3067 159.19 66.3113C158.468 66.3301 157.745 66.3488 157.022 66.3676H156.956C156.553 66.377 156.154 66.391 155.75 66.3957C154.647 66.4238 153.54 66.4567 152.432 66.4848C151.949 66.4988 151.461 66.5129 150.977 66.5269C150.513 66.541 150.043 66.5504 149.579 66.5645C146.176 66.6629 138.616 67.3097 132.848 67.83C129.262 68.1488 126.367 68.4206 125.592 68.4722C124.691 68.5378 124.687 69.944 125.592 69.8784C127.46 69.7472 124.001 86.092 119.111 93.7651C114.662 100.745 109.462 109.36 100.531 110.719C100.024 110.794 99.8364 111.577 100.221 111.896C100.958 112.505 101.751 113.03 102.582 113.48L102.587 113.485C105.299 114.971 108.415 115.725 111.391 116.452C115.831 117.535 120.237 118.786 124.668 119.911C152.465 126.98 181.328 132.108 209.97 133.95C227.288 135.061 244.76 134.69 261.918 131.976C278.565 129.342 293.798 124.256 309.868 119.499C313.664 118.374 317.56 117.605 321.53 117.591C325.735 117.572 329.949 118.158 334.14 118.486C346.981 119.508 361.905 122.278 374.778 122.756C376.407 122.817 378.035 122.883 379.668 122.958C390.824 123.45 401.994 124.111 413.14 123.52C459.883 121.036 511.78 110.447 512.291 108.277C512.732 106.407 510.911 105.652 509.41 105.521Z" fill="#3C8F68"/>
<path d="M105.28 69.0168C105.032 68.5621 104.656 68.234 104.159 68.1777C103.891 68.1496 103.624 68.2621 103.478 68.5902C103.07 69.5089 102.915 70.9292 103.324 71.8807C103.61 72.5463 104.548 72.9026 105.088 72.2932C105.168 72.2042 105.224 72.101 105.262 71.9932C105.759 71.2573 105.759 69.898 105.28 69.0168Z" fill="black"/>
<path d="M122.932 68.1484C122.678 67.6844 122.293 67.3469 121.782 67.2906C121.51 67.2625 121.238 67.3797 121.087 67.7125C120.67 68.65 120.51 70.1077 120.928 71.0827C121.223 71.7624 122.181 72.128 122.73 71.5046C122.814 71.4108 122.866 71.3077 122.904 71.1999C123.42 70.4405 123.42 69.0531 122.932 68.1484Z" fill="black"/>
<path d="M33.7201 83.9918C33.5043 83.598 32.8239 83.5277 32.5095 83.8511C31.9652 84.4043 31.8338 85.2292 32.2843 85.8714C32.5095 86.1901 32.9693 86.3214 33.34 86.1245C34.0908 85.7214 34.0814 84.6527 33.7201 83.9918Z" fill="#0F5C4F"/>
<path d="M39.8634 82.8388C39.8305 82.82 39.7977 82.8012 39.7648 82.7872C38.6663 82.2763 38.4551 83.9122 38.7274 84.5965C38.7931 84.7606 38.8871 84.9199 39.0232 85.0324C39.272 85.2387 39.6475 85.2621 39.9386 85.1168C40.2296 84.9715 40.4268 84.6762 40.4878 84.3575C40.5535 84.0387 40.4878 83.7059 40.3469 83.4153C40.2437 83.1856 40.0793 82.9747 39.8634 82.8388Z" fill="#0F5C4F"/>
<path d="M379.669 122.958C378.036 122.883 376.408 122.818 374.779 122.757C361.906 122.279 346.982 119.508 334.141 118.486C329.95 118.158 325.736 117.572 321.531 117.591C317.561 117.605 313.665 118.374 309.868 119.499C293.799 124.257 278.565 129.342 261.919 131.977C244.761 134.691 227.288 135.061 209.971 133.95C181.328 132.108 152.466 126.98 124.668 119.911C120.238 118.786 115.831 117.535 111.391 116.452C108.416 115.726 105.3 114.971 102.587 113.485H102.601C102.714 113.49 102.869 113.499 103.056 113.508C103.817 113.555 105.178 113.63 107.041 113.724C107.224 113.733 107.416 113.743 107.609 113.752C109.077 113.823 110.819 113.907 112.79 113.996C126.39 114.61 150.893 115.468 171.712 114.877C202.386 114.005 235.201 119.021 260.093 115.341C284.985 111.662 292.494 108.976 316.899 109.379C333.057 109.651 361.972 117.61 379.669 122.958Z" fill="#4FA87F"/>
<path d="M176.809 107.325C175.105 105.741 167.408 112.636 165.226 112.05C162.776 111.394 154.84 112.608 156.074 110.433C156.52 109.645 155.305 108.933 154.859 109.725C153.075 112.866 151.344 116.039 149.654 119.231C148.767 120.914 147.889 122.601 147.021 124.293C146.557 125.198 146.467 126.407 145.294 126.675C143.919 126.984 126.498 129.018 122.185 130.603C121.641 130.804 120.36 130.429 119.313 130.12C118.815 129.979 118.37 129.848 118.083 129.801C116.45 129.543 114.789 129.337 113.132 129.375C111.945 129.398 110.377 129.454 109.406 130.251C107.008 132.229 110.823 133.12 112.062 133.738C112.743 134.076 113.39 134.46 114.019 134.882C111.015 135.267 107.467 136.021 106.027 138.421C105.9 138.637 105.9 138.918 106.027 139.129C106.674 140.226 108.026 140.502 109.213 140.582C110.631 140.676 112.072 140.666 113.508 140.643C111.236 141.848 109.04 143.69 110.626 145.457C111.677 146.624 113.944 145.874 115.206 145.635C116.863 145.326 118.496 144.768 120.191 144.688C120.505 144.674 120.82 144.66 121.134 144.651C127.263 144.435 133.374 144.805 139.508 144.402C146.571 143.943 153.606 143.113 160.589 141.979C160.688 141.965 160.767 141.932 160.833 141.89C162.832 141.932 163.963 140.432 164.874 138.773C166.399 135.998 167.718 133.087 168.952 130.171C170.271 127.05 171.468 123.862 172.486 120.623C173.167 118.472 178.62 109.013 176.809 107.325Z" fill="#3C8F68"/>
<path d="M119.82 140.218C118.694 137.752 118.14 136.055 118.947 133.346C119.276 132.235 119.412 131.148 119.313 130.121C118.816 129.98 118.37 129.849 118.084 129.802C116.45 129.544 114.789 129.338 113.132 129.376C111.945 129.399 110.377 129.455 109.406 130.252C107.008 132.23 110.823 133.121 112.062 133.74C112.743 134.077 113.39 134.462 114.019 134.883C111.016 135.268 107.468 136.022 106.027 138.422C105.9 138.638 105.9 138.919 106.027 139.13C106.674 140.227 108.026 140.503 109.213 140.583C110.631 140.677 112.072 140.668 113.508 140.644C111.236 141.849 109.04 143.691 110.626 145.458C111.677 146.625 113.944 145.875 115.207 145.636C116.863 145.327 118.497 144.769 120.191 144.689C120.505 144.675 120.82 144.661 121.134 144.652C120.994 143.091 120.473 141.638 119.82 140.218Z" fill="#0F5C4F"/>
<path d="M330.485 148.518C330.021 146.085 328.237 144.042 327.487 141.679C327.172 140.686 326.806 139.701 326.374 138.754C325.741 137.376 324.962 136.068 323.957 134.901C321.77 132.365 318.983 130.416 316.772 127.889C314.355 125.124 312.342 122.021 310.577 118.81C308.339 114.732 307.034 104.546 305.861 104.335C302.552 103.745 294.372 108.685 291.471 109.983C288.735 111.216 281.048 108.624 280.879 108.788C280.321 109.304 283.038 121.889 283.446 125.039C283.742 127.331 284.446 129.108 286.318 130.561C288.928 132.581 292.297 133.823 295.24 135.29C299.196 137.268 303.228 139.101 307.165 141.117C308.742 141.923 310.436 142.509 311.272 144.164C311.75 145.11 311.943 146.17 312.131 147.22C312.215 147.702 312.3 148.181 312.407 148.645C312.858 150.566 313.046 153.984 314.904 155.249C316.143 156.093 317.551 155.694 318.387 154.523C318.631 154.18 319.128 150.801 319.128 150.801C319.128 150.801 320.522 156.374 321.827 156.215C323.122 156.051 324.286 155.015 324.614 153.759C324.858 152.835 324.957 150.009 324.455 149.217C326.492 152.427 329.476 155.933 330.758 152.198C331.152 151.054 330.701 149.648 330.485 148.518Z" fill="#3C8F68"/>
<path d="M330.486 148.518C330.021 146.085 328.238 144.041 327.487 141.679C327.172 140.685 326.806 139.701 326.375 138.754C325.539 139.049 324.737 139.405 323.986 139.813C322.409 140.666 320.963 141.815 319.79 143.174C319.002 144.083 318.438 145.063 317.415 145.738C316.298 146.474 315.186 146.521 313.91 146.765C313.309 146.882 312.708 147.027 312.131 147.219C312.215 147.702 312.3 148.18 312.408 148.644C312.858 150.566 313.046 153.983 314.904 155.249C316.143 156.092 317.551 155.694 318.387 154.522C318.631 154.18 319.128 150.8 319.128 150.8C319.128 150.8 320.522 156.374 321.827 156.214C323.122 156.05 324.286 155.014 324.615 153.758C324.859 152.835 324.957 150.008 324.455 149.216C326.492 152.427 329.477 155.933 330.758 152.197C331.152 151.053 330.702 149.647 330.486 148.518Z" fill="#0F5C4F"/>
<path d="M44.5466 97.9744L45.7529 102.057L47.9402 98.3119L44.5466 97.9744Z" fill="white"/>
<path d="M50.6016 98.5L52.2395 102.901L54.0838 98.5H50.6016Z" fill="white"/>
<path d="M57.9556 98.9312L59.3636 103.459L61.6681 98.9312H57.9556Z" fill="white"/>
<path d="M65.7368 98.9312L67.4967 103.694L69.8057 98.9312H65.7368Z" fill="white"/>
<path d="M73.5596 99.1655L75.4368 103.694L77.9006 98.9312L73.5596 99.1655Z" fill="white"/>
<path d="M82.3972 98.9312L84.8612 103.459L87.2455 98.6641L82.3972 98.9312Z" fill="white"/>
<path d="M90.9106 98.1098L93.6374 102.572L95.7634 97.4583L90.9106 98.1098Z" fill="white"/>
<path d="M103.455 90.48C103.112 89.6551 101.747 90.016 102.099 90.855C104.257 96.0205 90.6989 97.0142 87.6155 97.4642C81.965 98.2845 76.2535 98.6642 70.5467 98.7485C59.7149 98.9079 48.9066 97.9845 38.1452 96.8689C37.2441 96.7752 37.2535 98.1814 38.1452 98.2751C51.0185 99.611 63.9809 100.67 76.9246 99.925C83.096 99.5735 89.1924 98.7345 95.256 97.5345C98.5646 96.883 105.576 95.5611 103.455 90.48Z" fill="#2E7D58"/>
<path d="M162.031 101.813C157.398 104.288 153.925 108.211 151.949 113.067C151.607 113.906 152.973 114.272 153.306 113.442C155.141 108.933 158.45 105.319 162.739 103.027C163.537 102.6 162.828 101.386 162.031 101.813Z" fill="#2E7D58"/>
<path d="M159.501 100.726C156.558 101.438 153.958 102.966 151.911 105.197C151.301 105.863 152.292 106.861 152.906 106.191C154.798 104.129 157.154 102.741 159.876 102.085C160.758 101.869 160.383 100.515 159.501 100.726Z" fill="#2E7D58"/>
<path d="M174.205 105.118C173.792 104.311 172.581 105.024 172.989 105.826C173.81 107.438 174.251 109.149 174.327 110.953C174.364 111.853 175.772 111.858 175.734 110.953C175.655 108.9 175.138 106.955 174.205 105.118Z" fill="#2E7D58"/>
<path d="M156.412 132.169C154.169 129.085 150.964 127.018 147.195 126.352C146.308 126.197 145.928 127.552 146.82 127.707C150.213 128.307 153.165 130.088 155.197 132.877C155.722 133.603 156.943 132.905 156.412 132.169Z" fill="#2E7D58"/>
<path d="M282.456 100.741C280.874 103.614 280.133 106.75 280.288 110.026C280.33 110.926 281.738 110.931 281.695 110.026C281.555 106.98 282.202 104.125 283.671 101.449C284.108 100.656 282.892 99.944 282.456 100.741Z" fill="#2E7D58"/>
<path d="M308.863 119.349C307.122 121.374 304.987 122.972 302.518 124.003C301.697 124.346 302.058 125.71 302.894 125.358C305.597 124.228 307.948 122.569 309.863 120.343C310.445 119.658 309.455 118.66 308.863 119.349Z" fill="#2E7D58"/>
<path d="M309.371 123.146C308.591 124.276 307.883 125.443 307.24 126.652C306.817 127.449 308.028 128.162 308.455 127.36C309.098 126.151 309.807 124.984 310.586 123.854C311.098 123.109 309.878 122.406 309.371 123.146Z" fill="#2E7D58"/>
<path d="M293.841 81.4103C292.663 77.9557 291.513 74.4965 290.373 71.0325C291.077 70.4185 291.781 69.7998 292.485 69.1904C291.842 69.1248 291.204 69.0638 290.561 69.0029C290.335 69.1951 290.115 69.3919 289.894 69.5841C289.824 69.3638 289.749 69.1388 289.678 68.9185C289.383 68.8904 289.092 68.8623 288.796 68.8342C288.585 68.8107 288.364 68.7967 288.153 68.7732C288.35 69.3826 288.552 69.9872 288.749 70.5966C284.887 73.9949 281.062 77.4354 277.289 80.9322C275.472 76.6667 273.745 72.3684 272.117 68.0326C272.3 67.8639 272.478 67.6951 272.661 67.5264C271.901 67.4701 271.136 67.4186 270.376 67.3717C270.408 67.4608 270.441 67.5498 270.474 67.6389C265.462 72.3356 260.482 77.0651 255.536 81.8275C253.541 77.3089 251.617 72.7621 249.777 68.1826C250.439 67.5733 251.105 66.9592 251.767 66.3499C251.101 66.3217 250.439 66.2936 249.777 66.2702C249.59 66.4436 249.402 66.6171 249.214 66.7905C249.139 66.6077 249.069 66.4202 248.998 66.2374C248.487 66.2186 247.98 66.1952 247.468 66.1811C247.68 66.7248 247.895 67.2639 248.111 67.8076C243.094 72.4247 238.082 77.0417 233.065 81.6587C231 76.5401 228.977 71.4028 227.011 66.2467C227.208 66.0452 227.405 65.8483 227.602 65.6468C227.166 65.6374 226.734 65.628 226.298 65.6233C225.955 65.6139 225.612 65.6093 225.27 65.6046C225.307 65.6983 225.34 65.7967 225.378 65.8905C220.854 70.4419 216.245 74.9136 211.561 79.301C209.473 74.7027 207.384 70.0997 205.296 65.5015H204.46C203.606 65.5062 202.752 65.5108 201.903 65.5155C197.745 69.4857 193.601 73.4746 189.471 77.4729C187.87 73.5637 186.298 69.6498 184.745 65.7264C184.243 65.7311 183.745 65.7405 183.248 65.7546C184.932 70.0247 186.645 74.2762 188.386 78.5182C187.049 79.8166 185.702 81.115 184.365 82.4181C183.717 83.0509 184.712 84.0446 185.364 83.4118C186.561 82.2446 187.762 81.0869 188.964 79.9197C189.935 82.2774 190.912 84.6352 191.902 86.9835C192.249 87.8085 193.61 87.4476 193.258 86.6132C192.174 84.0352 191.109 81.4572 190.043 78.8744C194.619 74.4402 199.209 70.0247 203.813 65.628C206.037 70.5216 208.257 75.4152 210.482 80.3088C208.281 82.3571 206.07 84.3914 203.836 86.4023C203.165 87.0117 204.16 88.0007 204.831 87.396C206.938 85.5023 209.022 83.5852 211.092 81.6587C212.214 84.1243 213.33 86.5851 214.447 89.0507C214.823 89.871 216.038 89.1585 215.663 88.3382C214.499 85.7789 213.335 83.2149 212.171 80.6509C216.836 76.2917 221.422 71.8528 225.927 67.3342C227.889 72.4668 229.902 77.576 231.962 82.6712C230.47 84.0493 228.973 85.4273 227.476 86.8007C226.809 87.4195 227.804 88.4085 228.471 87.7945C229.822 86.5523 231.178 85.3055 232.53 84.0633C233.159 85.6102 233.793 87.157 234.431 88.6991C234.773 89.5241 236.134 89.1631 235.787 88.3241C235.06 86.571 234.342 84.8133 233.628 83.0508C238.645 78.4338 243.662 73.8168 248.675 69.1951C250.528 73.784 252.462 78.3354 254.461 82.8587C252.997 84.2743 251.528 85.6758 250.068 87.096C249.416 87.7288 250.411 88.7225 251.063 88.0897C252.391 86.796 253.734 85.5164 255.066 84.2274C256.193 86.7539 257.338 89.271 258.511 91.7787C258.896 92.5943 260.112 91.8818 259.727 91.0662C258.502 88.4554 257.315 85.8305 256.141 83.1962C261.069 78.4526 266.02 73.7371 271.009 69.0638C272.642 73.3949 274.379 77.6885 276.2 81.9446C275.134 82.9384 274.069 83.9274 273.013 84.9258C272.351 85.5492 273.351 86.5429 274.008 85.9242C274.933 85.0523 275.862 84.1899 276.786 83.3227C277.542 85.0664 278.307 86.8007 279.091 88.5304C279.466 89.3506 280.682 88.6382 280.306 87.8179C279.475 85.9898 278.668 84.1524 277.875 82.3103C281.616 78.8369 285.398 75.4199 289.228 72.045C290.298 75.2933 291.377 78.5416 292.48 81.7853C292.771 82.6337 294.132 82.2681 293.841 81.4103ZM180.934 65.7967C180.202 65.8155 179.47 65.8296 178.738 65.8436C176.447 67.7233 174.143 69.5888 171.839 71.445C171.121 69.6544 170.416 67.8639 169.731 66.0592C169.239 66.0733 168.741 66.0827 168.244 66.0967C169.037 68.192 169.858 70.2825 170.698 72.359C168.722 73.948 166.747 75.5417 164.761 77.1167C164.053 77.6792 165.052 78.6682 165.756 78.1104C167.596 76.6526 169.422 75.1808 171.252 73.709C172.697 77.2339 174.209 80.7353 175.79 84.2086C176.161 85.0336 177.376 84.3164 177.006 83.5008C175.396 79.9619 173.861 76.3902 172.392 72.795C175.269 70.4794 178.141 68.1498 181 65.7967H180.934V65.7967ZM157.022 66.3686C155.802 67.4514 154.582 68.5389 153.362 69.6263C153.047 68.581 152.738 67.5311 152.432 66.4858C151.949 66.4999 151.461 66.5139 150.978 66.528C151.376 67.906 151.79 69.2842 152.203 70.6575C149.635 72.9403 147.073 75.223 144.506 77.5104C143.83 78.1104 144.825 79.1041 145.501 78.5041C147.885 76.3808 150.269 74.2574 152.653 72.134C153.859 76.0902 155.103 80.0369 156.398 83.9649C156.68 84.8227 158.041 84.4571 157.755 83.5946C156.389 79.4463 155.079 75.2839 153.812 71.1028C155.605 69.5091 157.398 67.9107 159.191 66.3124C158.468 66.3311 157.745 66.3499 157.022 66.3686Z" fill="#2E7D58"/>
</svg>
