<svg width="335" height="362" viewBox="0 0 335 362" fill="none" xmlns="http://www.w3.org/2000/svg">
<circle cx="103" cy="194" r="68" fill="#5BC07E"/>
<path d="M77.8103 123.687C76.2559 123.425 75.5591 125.359 75.2196 126.507C74.6181 128.541 74.63 130.659 75.1124 132.714C75.1303 132.788 75.169 132.836 75.2167 132.871C75.2881 133.088 75.6157 133.201 75.7527 132.943C76.3929 131.714 77.0301 130.486 77.6703 129.261C78.1766 128.285 78.8882 127.244 79.1235 126.15C79.3349 125.165 78.9448 123.88 77.8103 123.687Z" fill="#95BA61"/>
<path d="M78.8525 136.431C78.8495 136.434 78.8465 136.437 78.8465 136.44C76.9288 136.375 75.0528 136.875 73.4656 137.975C72.5007 138.644 70.5264 140.218 71.2232 141.633C72.6496 144.527 77.8966 138.704 79.1711 137.005C79.2426 136.97 79.2872 136.901 79.3021 136.824C79.326 136.791 79.3498 136.759 79.3677 136.729C79.5761 136.411 79.0609 136.113 78.8525 136.431Z" fill="#95BA61"/>
<path d="M96.1503 138.311C94.9651 137.675 93.4047 138.495 92.5114 139.272C91.0225 140.562 90.1173 142.466 89.6021 144.334C89.5991 144.343 89.6021 144.349 89.5991 144.357C89.3728 144.31 89.1435 144.378 89.0721 144.643C88.9917 144.943 89.352 145.098 89.5455 144.949C89.6557 145.047 90.1381 145.416 90.2007 145.464C90.4657 145.663 90.7337 145.859 90.9987 146.059C91.3054 146.288 91.6032 145.77 91.2994 145.544C91.1565 145.437 91.0136 145.324 90.8677 145.208C92.3536 144.179 99.0477 139.87 96.1503 138.311Z" fill="#95BA61"/>
<path d="M135.095 156.733C135.097 156.733 135.1 156.73 135.103 156.73C135.485 156.703 135.488 156.108 135.103 156.135C135.017 156.141 134.934 156.156 134.853 156.177C134.693 156.088 134.454 156.174 134.41 156.361C133.37 156.971 132.814 158.675 132.471 159.698C132.051 160.95 131.658 163.011 132.885 163.972C134.049 164.882 135.139 163.966 135.523 162.794C136.169 160.834 135.633 158.669 135.095 156.733Z" fill="#95BA61"/>
<path d="M204.045 154.612C202.661 153.586 200.779 153.226 199.09 153.06C198.924 152.715 198.412 153.015 198.575 153.36C199.388 155.062 200.544 156.801 202.071 157.949C202.968 158.622 204.516 159.222 205.228 157.973C205.913 156.769 205.019 155.332 204.045 154.612Z" fill="#95BA61"/>
<path d="M197.253 153.762C197.229 153.72 197.2 153.687 197.167 153.667C197.155 153.449 196.863 153.262 196.655 153.458C195.595 154.449 195.881 156.486 196.006 157.783C196.095 158.696 196.625 160.007 197.488 160.46C198.549 161.016 199.347 160.355 199.376 159.276C199.427 157.456 198.155 155.282 197.253 153.762Z" fill="#95BA61"/>
<path d="M231.891 128.306C230.224 128.508 229.616 130.911 229.509 132.22C229.342 134.26 229.795 136.11 231.117 137.654C231.042 137.767 230.968 137.883 230.891 137.993C230.67 138.308 231.188 138.606 231.406 138.293C231.489 138.174 231.561 138.052 231.638 137.93C231.736 137.877 231.808 137.773 231.811 137.66C232.88 135.893 233.457 133.898 233.511 131.816C233.538 130.793 233.508 128.11 231.891 128.306Z" fill="#95BA61"/>
<path d="M250.55 127.107C249.401 126.62 248.126 126.578 246.917 126.831C247.364 125.837 247.632 124.719 247.834 123.735C248.049 122.7 248.043 121.12 246.795 120.731C244.014 119.862 245.166 126.266 245.693 127.616C245.455 127.61 245.25 127.881 245.434 128.074C245.333 128.327 245.64 128.603 245.872 128.428C246.887 129.195 248.019 129.79 249.296 129.989C250.097 130.114 251.792 130.263 252.113 129.207C252.414 128.238 251.291 127.423 250.55 127.107Z" fill="#95BA61"/>
<path d="M277.794 90.8438C277.687 90.8676 277.582 90.8884 277.475 90.9003C277.398 90.7754 277.243 90.6981 277.079 90.7903C276.993 90.8378 276.904 90.8825 276.817 90.93C275.549 90.8854 274.295 90.2966 273.035 90.1419C272.109 90.0259 271.159 90.0229 270.245 90.2163C269.045 90.4691 266.722 91.394 267.041 92.9882C267.327 94.4098 269.033 94.3295 270.108 94.1183C272.49 93.6484 274.789 92.7116 276.921 91.5546C275.441 93.4105 272.529 97.949 275.245 99.2785C278.19 100.718 277.803 92.8513 277.651 91.6676C277.648 91.6498 277.639 91.6379 277.636 91.623C277.675 91.5784 277.711 91.5308 277.752 91.4862C277.761 91.4773 277.764 91.4654 277.77 91.4535C277.833 91.4416 277.892 91.4297 277.955 91.4178C278.324 91.3316 278.166 90.7575 277.794 90.8438Z" fill="#95BA61"/>
<path d="M288.267 77.805C288.258 77.8139 288.252 77.8229 288.243 77.8318C286.954 78.1262 285.667 78.3136 284.348 78.4385C283.672 78.501 282.937 78.5039 282.32 78.8281C281.403 79.3129 280.822 80.4223 281.528 81.3353C283.44 83.8128 287.528 79.5746 288.687 78.2244C288.934 77.9359 288.517 77.5136 288.267 77.805Z" fill="#95BA61"/>
<path d="M295.753 67C294.279 70.2002 292.311 73.9684 290.527 76.9961C290.345 77.3143 290.161 77.6266 289.97 77.9359C288.041 81.1302 285.903 84.1995 283.494 87.0814C282.758 87.9618 281.996 88.8064 281.198 89.6273C281.198 89.6273 281.198 89.6273 281.198 89.6303C280.959 89.8831 280.715 90.1329 280.468 90.3797C277.422 93.455 274.107 96.2477 271.115 99.3884C268.667 101.958 266.773 104.861 264.989 107.856C264.992 107.859 264.989 107.862 264.989 107.862C264.718 108.32 264.447 108.778 264.179 109.239C263.31 110.729 262.452 112.228 261.553 113.712C258.581 118.61 254.921 122.489 250.214 125.757C247.14 127.893 244.047 129.963 240.985 132.086C240.705 132.279 240.425 132.476 240.146 132.672C238.439 133.862 236.745 135.075 235.074 136.33C230.527 139.745 225.885 142.957 220.9 145.684C220.581 145.862 220.26 146.035 219.935 146.204H219.932C219.84 146.255 219.751 146.303 219.655 146.353C217.678 147.391 215.665 148.361 213.622 149.265C213.262 149.425 212.902 149.583 212.538 149.738C209.659 150.975 206.723 152.081 203.751 153.066C188.079 158.25 171.665 159.874 155.275 159.311C154.742 159.294 154.212 159.273 153.679 159.249C153.676 159.249 153.676 159.249 153.676 159.249C145.57 158.904 137.474 158.033 129.481 156.801C127.927 156.56 126.375 156.308 124.824 156.043C124.467 155.983 124.109 155.921 123.755 155.859C119.196 155.064 114.658 154.166 110.134 153.197C107.172 152.56 104.17 151.942 101.225 151.142C100.853 151.04 100.483 150.939 100.111 150.829C97.44 150.059 94.8285 149.116 92.342 147.861C92.0859 147.73 91.8328 147.599 91.5797 147.463C91.0795 147.192 90.5911 146.909 90.1057 146.615H90.1027C87.8813 145.271 85.8147 143.694 83.8344 142.005C83.5575 141.77 83.2806 141.529 83.0066 141.288C81.4254 139.905 79.8978 138.463 78.385 137.023C73.9302 132.785 69.4486 128.541 65.4941 123.821C65.1516 123.411 64.8122 122.997 64.4817 122.578C64.2673 122.313 64.0558 122.045 63.8503 121.775C58.2282 114.515 54.1338 106.309 50.5723 97.8746C50.4532 97.598 50.3371 97.3184 50.2209 97.0418C49.5748 95.4953 48.9464 93.9428 48.33 92.3873C48.059 91.7032 47.7851 91.0192 47.5171 90.3322C47.398 90.0347 47.2818 89.7373 47.1657 89.4399C45.7959 85.9602 44.444 82.4715 43.0891 78.9858C42.9789 78.6943 42.8627 78.3999 42.7496 78.1055C42.4339 77.2905 42.1183 76.4756 41.7997 75.6577C41.6806 75.3544 41.5644 75.051 41.4453 74.7476C41.356 74.5186 41.2667 74.2896 41.1773 74.0606C40.3465 71.9252 39.1077 69.067 38 67H40.7038C41.8771 69.3317 43.1933 72.4397 44.1045 74.8993C44.2147 75.1967 44.3249 75.4912 44.435 75.7886C44.709 76.5292 44.983 77.2667 45.2599 77.9954C45.3731 78.2899 45.4832 78.5813 45.5964 78.8698C45.6023 78.8877 45.6113 78.9085 45.6172 78.9263C46.984 82.4418 48.333 85.9631 49.7147 89.4726C49.8338 89.773 49.9529 90.0734 50.072 90.3708C50.8373 92.307 51.6146 94.2402 52.4126 96.1615C52.4454 96.2388 52.4751 96.3132 52.5079 96.3905C52.621 96.6671 52.7372 96.9407 52.8533 97.2173C55.0509 102.431 57.4659 107.561 60.3544 112.433C62.2006 115.547 64.2643 118.485 66.5215 121.284C66.7269 121.543 66.9354 121.799 67.1468 122.051C68.4868 123.675 69.8923 125.252 71.3544 126.783C75.4728 131.099 79.8084 135.286 84.2781 139.242C84.7695 139.676 85.2638 140.099 85.7611 140.509C86.0321 140.732 86.303 140.952 86.574 141.166C89.1528 143.206 91.8626 144.937 94.7987 146.317C95.3139 146.558 95.835 146.79 96.3651 147.01C97.5472 147.504 98.7681 147.938 100.034 148.319C100.903 148.581 101.776 148.828 102.654 149.063C103.026 149.164 103.399 149.262 103.774 149.357C108.604 150.597 113.544 151.519 118.422 152.465C120.822 152.929 123.228 153.372 125.64 153.783C125.976 153.839 126.31 153.896 126.646 153.949H126.649C130.458 154.589 134.276 155.148 138.108 155.606C144.364 156.358 150.68 156.849 157.002 157.001C157.47 157.012 157.934 157.021 158.399 157.03C158.402 157.03 158.402 157.03 158.402 157.03C175.953 157.31 193.513 154.942 209.879 148.283C211.07 147.799 212.252 147.29 213.426 146.758C213.771 146.603 214.114 146.445 214.456 146.282C216.395 145.378 218.303 144.408 220.176 143.373C220.477 143.206 220.781 143.04 221.079 142.87C222.6 142.011 224.098 141.107 225.566 140.164C230.495 137.002 235.033 133.294 239.788 129.888C240.059 129.695 240.33 129.502 240.601 129.311C240.61 129.305 240.622 129.296 240.631 129.29C245.33 125.98 250.565 123.253 254.603 119.098C258.531 115.056 260.901 109.863 263.81 105.111C263.813 105.105 263.816 105.102 263.819 105.096C264.063 104.697 264.313 104.308 264.57 103.924C267.503 99.5044 271.174 95.9206 275.093 92.31C276.692 90.8348 278.226 89.318 279.682 87.7387C279.92 87.4829 280.155 87.2242 280.388 86.9654C282.484 84.6307 284.42 82.1652 286.174 79.5152C287.07 78.162 287.922 76.7849 288.731 75.3871C288.913 75.0748 289.095 74.7595 289.273 74.4443C290.527 72.2196 292.055 69.3109 293.145 67H295.753V67Z" fill="#66994D"/>
<path d="M44.4353 75.7888C43.5568 75.762 42.6784 75.7174 41.7999 75.6579C41.6808 75.3545 41.5647 75.0512 41.4456 74.7478C42.33 74.8132 43.2174 74.8638 44.1048 74.8995C44.2149 75.1969 44.3251 75.4913 44.4353 75.7888Z" fill="#3E7528"/>
<path d="M45.5966 78.8698C44.7598 78.9144 43.926 78.953 43.0892 78.9858C42.9791 78.6943 42.8629 78.3998 42.7498 78.1054C43.5865 78.0757 44.4233 78.04 45.2601 77.9954C45.3732 78.2898 45.4834 78.5813 45.5966 78.8698Z" fill="#3E7528"/>
<path d="M50.0725 90.3708C49.2208 90.35 48.3691 90.3381 47.5174 90.3322C47.3983 90.0348 47.2822 89.7374 47.166 89.4399C48.0177 89.4429 48.8664 89.4518 49.7151 89.4727C49.8343 89.773 49.9534 90.0734 50.0725 90.3708Z" fill="#3E7528"/>
<path d="M52.8535 97.2172C52.0972 97.4551 51.3378 97.6722 50.5725 97.8745C50.4534 97.5979 50.3373 97.3183 50.2212 97.0417C50.9895 96.8425 51.7488 96.6253 52.5081 96.3904C52.6212 96.667 52.7374 96.9406 52.8535 97.2172Z" fill="#3E7528"/>
<path d="M67.1471 122.051C66.2656 122.262 65.3783 122.438 64.4819 122.578C64.2675 122.313 64.0561 122.045 63.8506 121.775C64.7499 121.647 65.6403 121.486 66.5218 121.284C66.7272 121.543 66.9357 121.798 67.1471 122.051Z" fill="#3E7528"/>
<path d="M86.5747 141.166C85.6754 141.493 84.7612 141.773 83.8352 142.005C83.5582 141.77 83.2813 141.529 83.0073 141.288C83.9394 141.08 84.8565 140.821 85.7618 140.509C86.0328 140.732 86.3037 140.952 86.5747 141.166Z" fill="#3E7528"/>
<path d="M96.3658 147.01C94.7816 147.254 93.1855 147.394 91.5805 147.462C91.0802 147.192 90.5918 146.909 90.1064 146.615C91.6787 146.585 93.2451 146.499 94.7995 146.317C95.3147 146.558 95.8358 146.79 96.3658 147.01Z" fill="#3E7528"/>
<path d="M103.774 149.357C102.929 149.958 102.08 150.553 101.225 151.141C100.853 151.04 100.484 150.939 100.112 150.829C100.963 150.246 101.812 149.657 102.655 149.062C103.027 149.164 103.399 149.262 103.774 149.357Z" fill="#3E7528"/>
<path d="M126.647 153.949C126.084 154.678 125.471 155.374 124.824 156.043C124.467 155.983 124.11 155.921 123.755 155.858C124.416 155.192 125.054 154.502 125.64 153.782C125.977 153.839 126.31 153.895 126.647 153.949Z" fill="#3E7528"/>
<path d="M158.399 157.03C157.405 157.848 156.363 158.61 155.276 159.311C154.743 159.294 154.213 159.273 153.68 159.249C154.835 158.565 155.943 157.815 157.003 157C157.47 157.012 157.935 157.021 158.399 157.03Z" fill="#3E7528"/>
<path d="M214.456 146.282C214.212 147.287 213.935 148.28 213.622 149.265C213.262 149.425 212.902 149.583 212.539 149.738C212.869 148.753 213.167 147.76 213.426 146.758C213.771 146.603 214.114 146.445 214.456 146.282Z" fill="#3E7528"/>
<path d="M221.079 142.87C221.067 143.81 221.007 144.75 220.9 145.684C220.582 145.862 220.26 146.035 219.936 146.204C220.064 145.265 220.144 144.319 220.177 143.373C220.477 143.206 220.781 143.04 221.079 142.87Z" fill="#3E7528"/>
<path d="M240.986 132.086C240.706 132.279 240.426 132.476 240.146 132.672C240.057 131.741 239.938 130.813 239.789 129.888C240.06 129.695 240.331 129.502 240.602 129.311C240.757 130.233 240.885 131.158 240.986 132.086Z" fill="#3E7528"/>
<path d="M264.99 107.856C264.993 107.859 264.99 107.862 264.99 107.862C264.719 108.32 264.448 108.778 264.18 109.239C264.109 107.853 263.99 106.473 263.82 105.096C264.064 104.697 264.314 104.308 264.57 103.924C264.755 105.23 264.895 106.541 264.99 107.856Z" fill="#3E7528"/>
<path d="M281.198 89.6272C280.96 89.883 280.716 90.1328 280.469 90.3797C280.236 89.5945 280.001 88.8063 279.766 88.0182C279.739 87.926 279.709 87.8338 279.683 87.7386C279.921 87.4828 280.156 87.2241 280.388 86.9653C280.689 87.8368 280.948 88.732 281.198 89.6272Z" fill="#3E7528"/>
<path d="M290.528 76.9962C290.346 77.3144 290.162 77.6267 289.971 77.936C289.569 77.0824 289.155 76.2318 288.732 75.3871C288.914 75.0749 289.095 74.7596 289.274 74.4443C289.703 75.292 290.123 76.1396 290.528 76.9962Z" fill="#3E7528"/>
<path d="M143.599 159.05C143.286 158.398 140.901 155.76 140.892 155.011C140.883 154.253 140.639 154.142 140.895 153.45C141.198 152.626 141.446 151.588 140.88 150.811C139.456 148.869 138.152 153.244 137.848 153.976C137.342 155.192 136.887 156.159 137.122 157.5C137.342 158.761 138 159.814 138.381 161.019C138.438 161.2 138.727 161.123 138.667 160.938C138.643 160.858 138.614 160.781 138.587 160.7C139.459 160.9 140.454 160.84 141.055 160.091C141.657 159.344 143.974 159.832 143.599 159.05Z" fill="#FFC1A3"/>
<path d="M176.808 157.926C176.695 157.688 176.534 157.524 176.352 157.432C176.593 156.846 176.698 156.21 176.51 155.633C176.248 154.835 175.423 154.678 174.697 154.859C174.673 154.238 174.429 153.64 173.726 153.506C173.27 153.42 172.821 153.652 172.413 153.824C172.163 153.931 171.921 154.05 171.692 154.184C171.278 152.962 169.727 153.223 168.926 154.705C168.61 155.288 168.324 155.885 168.05 156.486C166.132 157.643 164.929 159.701 164.53 161.979C164.462 162.366 164.373 162.77 164.367 163.136C164.274 163.237 164.185 163.342 164.087 163.44C163.819 163.713 164.239 164.136 164.507 163.859C164.51 163.856 164.516 163.85 164.518 163.844C164.62 164.017 164.775 164.162 165.013 164.266C165.856 164.641 166.838 164.79 167.708 165.18C168.348 165.468 168.982 165.78 169.646 166.012C170.593 166.342 171.942 166.762 172.713 165.953C173.232 165.409 173.619 164.6 174.033 163.972C174.655 163.032 175.31 162.107 175.9 161.147C176.4 160.35 177.287 158.928 176.808 157.926Z" fill="#FFB794"/>
<path d="M71.3247 203.442C71.3277 203.409 71.3306 203.379 71.3336 203.347C71.3932 202.698 71.682 201.97 71.2205 201.393C69.9609 199.81 68.7965 203.1 68.3588 204.281C67.3851 203.073 66.3428 201.931 65.1994 200.878C64.2435 199.998 62.8558 198.487 61.5486 198.133C60.682 197.898 60.3456 198.549 60.551 199.361C60.7684 200.221 61.5784 201 62.0935 201.678L62.6802 202.443C61.7779 201.568 60.8399 200.729 59.8512 199.947C59.3152 199.522 57.8383 198.05 57.073 198.725C56.6859 199.067 56.8437 199.674 57.1266 200.242C56.3732 199.923 55.727 200.001 55.6853 201.182C55.6466 202.24 56.7603 203.302 57.3708 204.055C57.9038 204.715 58.4695 205.348 59.0532 205.961C58.0616 205.423 57.0432 205.131 56.668 205.958C56.3672 206.618 56.8913 207.264 57.3439 207.671C58.3177 208.548 59.5028 209.265 60.5808 210.009C61.7392 210.809 62.9095 211.6 64.1095 212.338C64.854 212.793 65.655 213.206 66.5543 213.129C68.6715 212.944 70.0383 210.63 70.8244 208.905C70.8631 208.822 70.8512 208.745 70.8185 208.679C70.9406 208.623 71.0269 208.483 70.9406 208.331C70.9316 208.314 70.9227 208.293 70.9138 208.275C71.3575 206.633 71.2086 205.101 71.3247 203.442Z" fill="#FFB794"/>
<path d="M191.536 165.194C191.325 164.57 190.908 164.593 190.53 164.216C190.116 163.802 189.973 163.288 189.33 163.139C188.931 163.047 188.576 163.13 188.27 163.318C188.159 162.785 187.769 162.339 187.168 162.167C186.28 161.911 185.494 162.416 184.893 163.032C184.643 162.532 184.071 162.291 183.425 162.47C181.974 162.868 181.087 163.481 180.599 164.703C178.916 168.909 177.436 174.703 174.792 178.385C173.494 180.193 171.71 183.14 170.686 185.13C169.807 186.837 169.176 188.654 168.586 190.477C167.475 193.91 166.281 197.256 164.766 200.5C164.647 200.5 164.527 200.56 164.471 200.697C164.283 201.169 164.119 201.648 163.968 202.13C163.798 202.466 163.628 202.802 163.449 203.138C163.357 203.311 163.447 203.471 163.581 203.546C162.94 206.193 162.744 208.929 162.622 211.665C162.437 215.82 162.336 219.978 162.309 224.136C162.297 225.938 162.208 227.773 162.336 229.576C162.413 230.655 162.645 231.836 163.56 232.529C165.611 234.087 167.336 234.519 168.911 233.121C174.402 228.246 178.014 220.139 179.035 213.182C180.104 205.904 182.108 198.829 184.768 191.991C187.6 184.711 190.265 174.709 191.313 166.922C191.563 166.372 191.739 165.783 191.536 165.194Z" fill="#C7763C"/>
<path d="M118.392 224.359C117.999 223.672 117.025 223.05 116.454 222.53C115.629 221.78 114.887 221.001 114.22 220.103C113.208 218.738 112.314 217.307 111.138 216.073C110.039 214.919 108.783 213.908 107.425 213.075C106.755 212.665 106.061 212.299 105.343 211.978C104.379 211.546 103.19 211.341 102.645 210.327C102.637 210.309 102.622 210.3 102.61 210.285C102.878 210.306 103.146 210.336 103.414 210.39C103.789 210.464 103.95 209.89 103.572 209.816C100.213 209.158 96.9251 210.913 93.8044 211.921C90.0732 213.126 86.1484 214.672 82.2951 213.144C78.9183 211.805 76.3871 209.06 73.1234 207.528C72.3849 207.18 71.3427 206.797 70.6459 207.448C70.235 207.832 70.1456 208.379 70.36 208.825C70.098 208.923 69.8746 209.072 69.6751 209.325C69.4816 209.572 69.4875 210.003 69.3237 210.205C69.151 210.419 68.9604 210.381 68.6984 210.55C68.1743 210.892 68.1148 211.181 67.7812 211.668C67.3227 212.341 66.4412 212.754 66.3936 213.64C66.334 214.75 67.4894 215.737 68.1624 216.466C72.1735 220.808 77.4026 224.029 83.0902 225.656C89.6652 227.538 96.9579 227.598 103.753 227.622C107.234 227.634 110.727 227.443 114.155 226.807C115.102 226.622 119.485 226.28 118.392 224.359Z" fill="#C7763C"/>
<path d="M200.752 266.693C196.78 263.769 190.833 263.606 186.804 266.52C183.82 268.677 181.992 272.486 182.459 276.171C182.986 280.329 186.777 283.761 191.071 283.434C194.371 283.181 196.949 280.389 196.83 277.07C196.765 275.267 195.827 273.12 193.704 273.257C192.495 273.334 191.169 274.146 190.556 275.196C190.422 275.422 189.496 277.932 189.421 277.893C188.248 277.316 187.617 275.889 187.685 274.634C187.87 271.276 191.396 269.465 194.43 269.801C197.542 270.146 199.853 272.599 200.66 275.523C201.607 278.955 200.261 282.548 197.786 285.005C195.172 287.601 191.434 288.728 187.807 288.648C183.752 288.559 180.271 286.834 177.579 283.845C171.841 277.468 170.271 268.683 169.655 260.426C168.833 249.389 167.267 238.043 168.261 226.973C168.389 225.531 166.513 226.973 165.158 226.973C163.601 226.973 162.609 228.204 162.478 229.65C161.927 235.797 162.338 241.499 162.901 247.608C163.431 253.351 164.051 259.522 164.759 265.247C166.055 275.74 170.271 288.422 181.015 292.693C191.077 296.69 204.51 291.268 206.154 279.862C206.883 274.845 204.861 269.715 200.752 266.693Z" fill="#C7763C"/>
<path d="M146.848 161.967C146.294 160.448 145.005 160.552 144.037 161.34C143.394 160.177 141.884 160.135 141.068 161.039C140.752 160.355 140.234 159.796 139.398 159.939C137.927 160.192 137.852 162.452 137.62 163.538C136.575 168.406 135.089 173.198 132.995 177.721C130.991 182.052 128.451 185.778 124.973 189.059C122.382 191.501 119.634 193.773 117.338 196.488C117.001 196.381 116.638 196.786 116.814 197.128C116.576 197.428 116.34 197.728 116.114 198.041C115.775 198.505 116.552 198.951 116.885 198.49C117.058 198.252 117.243 198.026 117.421 197.794C120.363 200.854 123.719 203.852 128.034 204.617C129.845 204.938 131.816 204.893 133.37 203.805C135.169 202.549 136.378 200.402 137.411 198.525C139.785 194.213 141.872 189.6 143.296 184.886C144.758 180.038 145.574 175.027 146.208 170.015C146.392 168.564 146.559 167.11 146.72 165.652C146.848 164.525 147.25 163.071 146.848 161.967Z" fill="#C7763C"/>
<path d="M170.328 164.909C169.804 163.767 168.348 163.895 167.172 164.359C167.166 164.061 167.157 163.764 167.151 163.466C167.145 163.178 166.871 162.961 166.585 163.035C166.24 163.127 165.906 163.246 165.579 163.371C165.433 163.151 165.227 162.979 164.918 162.904C164.185 162.726 163.455 163.101 162.943 163.594C161.439 165.049 160.269 167.074 159.105 168.85C158.384 169.816 157.72 170.816 157.098 171.788C154.254 176.231 151.55 180.871 149.049 185.517C146.702 189.874 146.107 194.409 145.973 199.296C145.851 203.799 145.824 208.302 145.872 212.805C145.684 212.843 145.511 212.98 145.484 213.218C145.371 214.226 145.55 215.169 145.913 216.04C145.916 216.186 145.916 216.329 145.919 216.475C145.925 216.748 146.131 216.891 146.345 216.903C146.926 217.893 147.733 218.783 148.599 219.553C150.657 221.379 152.828 222.31 155.552 222.652C158.116 222.973 161.413 223.5 163.831 222.313C165.912 221.29 167.029 219.023 167.33 216.814C167.77 213.569 166.999 210.116 166.624 206.892C166.216 203.394 165.808 199.894 165.4 196.396C164.998 192.958 164.289 189.333 164.882 185.877C165.465 182.468 167.362 179.31 168.842 176.223C169.676 174.483 170.51 172.746 171.344 171.006C171.936 169.769 172.94 168.323 173.113 166.934C173.318 165.275 171.656 164.261 170.328 164.909Z" fill="#C7763C"/>
<path d="M169.858 211.909C167.344 207.136 162.77 203.947 157.788 202.127C153.343 200.503 148.611 200.396 143.951 199.959C137.286 199.334 130.687 198.555 124.172 197.062C121.453 196.438 118.678 196.051 115.941 196.548C116.019 196.435 116.099 196.328 116.174 196.212C116.382 195.89 115.867 195.59 115.658 195.911C115.474 196.194 115.283 196.467 115.084 196.735C114.953 196.768 114.819 196.8 114.688 196.839C114.426 196.916 114.432 197.229 114.592 197.363C111.784 200.783 107.773 202.96 104.316 205.687C102.562 207.07 100.662 208.679 99.8283 210.818C98.9916 212.971 99.6705 215.175 100.823 217.069C104.888 223.764 110.983 229.043 117.799 232.811C130.506 239.833 146.497 242.926 160.445 237.882C163.482 236.785 166.341 235.146 168.357 232.559C172.96 226.637 173.309 218.464 169.858 211.909Z" fill="#C7763C"/>
<path d="M90.4512 201.5C88.6734 199.62 87.2292 197.488 86.0708 195.18C85.8386 194.719 85.1923 195.037 85.2549 195.48C82.5421 193.743 78.7424 194.627 77.465 197.877C76.0058 201.586 77.8223 205.229 81.4135 206.663C83.1794 207.368 85.1537 207.558 87.0297 207.252C88.6437 206.99 90.9306 206.285 91.9996 204.944C93.0687 203.597 91.3028 202.401 90.4512 201.5Z" fill="#C7763C"/>
<path d="M90.3141 201.363C88.8311 200.01 87.6281 198.472 86.6573 196.81C86.4637 196.477 85.9247 196.709 85.9753 197.027C83.7122 195.775 80.5408 196.411 79.4748 198.755C78.2568 201.426 79.7725 204.052 82.7682 205.084C84.2422 205.592 85.889 205.729 87.4553 205.509C88.8013 205.322 90.7101 204.813 91.6005 203.847C92.4998 202.871 91.0258 202.012 90.3141 201.363Z" fill="#FFB794"/>
<path d="M85.5291 198.811C84.198 199.245 82.8579 199.662 81.5149 200.06C81.1487 200.17 81.3035 200.744 81.6728 200.634C82.724 200.322 83.7692 199.995 84.8144 199.662C84.192 200.62 83.5726 201.577 82.9502 202.538C82.7418 202.859 83.257 203.159 83.4654 202.838C84.1861 201.723 84.9097 200.611 85.6303 199.495C85.6541 199.46 85.6661 199.424 85.675 199.388C85.678 199.388 85.6839 199.385 85.6869 199.385C86.0502 199.266 85.8954 198.689 85.5291 198.811Z" fill="#E67945"/>
<path d="M115.462 189.445C117.049 188.791 118.362 186.79 119.059 185.314C119.872 183.598 120.235 181.653 120.045 179.762C119.657 175.916 116.653 173.168 112.683 173.54C109.202 173.867 107.296 177.269 108.22 180.354C107.812 180.172 107.323 180.704 107.704 181.055C109.601 182.807 111.257 184.785 112.57 187.01C113.201 188.077 113.863 190.106 115.462 189.445Z" fill="#C7763C"/>
<path d="M115.009 187.262C116.158 186.789 117.105 185.341 117.611 184.273C118.198 183.033 118.463 181.623 118.326 180.255C118.046 177.474 115.872 175.485 112.999 175.755C110.479 175.993 109.101 178.453 109.768 180.686C109.473 180.556 109.119 180.939 109.396 181.192C110.768 182.459 111.965 183.89 112.918 185.499C113.374 186.272 113.853 187.738 115.009 187.262Z" fill="#FFB794"/>
<path d="M116.542 180.012L113.35 181.317C113.678 180.098 114.089 178.908 114.598 177.748C114.75 177.4 114.238 177.097 114.083 177.448C113.446 178.902 112.939 180.392 112.573 181.936C112.484 182.308 113.058 182.468 113.148 182.094C113.154 182.073 113.16 182.052 113.166 182.028L116.703 180.583C117.052 180.443 116.897 179.869 116.542 180.012Z" fill="#E67945"/>
<path d="M117.734 189.059C117.278 186.442 115.917 184.05 114.128 182.123C111.945 179.776 109.205 177.799 106.097 176.835C102.642 175.764 98.914 176.303 95.5818 177.558C93.3276 178.408 91.1955 179.622 89.3403 181.159C87.2648 182.879 85.2934 185.207 84.2959 187.738C82.4049 192.53 83.5484 198.454 86.2225 202.776C90.5939 209.842 100.823 211.725 108.136 208.474C111.802 206.844 114.539 203.59 116.299 200.069C117.874 196.908 118.338 192.521 117.734 189.059Z" fill="#C7763C"/>
<path d="M112.002 192.571C113.02 188.357 112.034 183.381 107.583 181.353C105.001 180.178 102.291 181.106 100.147 182.192C98.4555 183.045 97.5027 184.821 96.9607 186.596C94.2866 186.061 91.2046 187.477 89.3673 189.591C87.6164 191.611 87.2203 194.222 87.7802 196.777C88.6646 200.822 92.1813 202.865 95.9155 202.698C97.5503 204.495 99.468 206.053 101.862 206.69C104.492 207.386 107.413 207.046 109.765 205.658C112.267 204.179 113.416 201.889 113.493 199.028C113.55 196.762 113.175 194.466 112.002 192.571Z" fill="#FFB794"/>
<path d="M94.778 195.427C94.641 195.364 94.4951 195.325 94.3462 195.325C93.3249 195.34 94.114 196.631 94.4236 196.991C94.5963 197.193 94.8048 197.378 95.0608 197.446C95.3169 197.511 95.6266 197.431 95.7576 197.199C95.8558 197.027 95.838 196.81 95.7873 196.619C95.6563 196.134 95.3169 195.709 94.8762 195.474C94.8435 195.456 94.8107 195.441 94.778 195.427Z" fill="#252622"/>
<path d="M106.067 187.991C105.802 187.875 105.522 187.857 105.281 188.006C105.153 188.083 105.072 188.226 105.12 188.423C105.254 188.97 105.674 189.654 106.183 189.933C106.537 190.13 107.076 189.966 107.106 189.514C107.112 189.446 107.1 189.383 107.079 189.324C107.046 188.821 106.582 188.22 106.067 187.991Z" fill="#252622"/>
<path d="M104.155 197.253C103.643 197.271 103.131 197.285 102.616 197.303C102.234 197.315 102.231 197.91 102.616 197.898C103.128 197.88 103.64 197.865 104.155 197.848C104.536 197.836 104.539 197.238 104.155 197.253Z" fill="#E67945"/>
<path d="M105.509 195.42C105.459 195.849 105.42 196.28 105.393 196.711C105.367 197.095 105.964 197.092 105.988 196.711C106.018 196.28 106.057 195.852 106.104 195.42C106.146 195.04 105.551 195.043 105.509 195.42Z" fill="#E67945"/>
<path d="M109.476 196.518C109.444 196.14 108.848 196.137 108.881 196.518C109.199 200.057 105.334 201.622 102.395 200.893C102.023 200.801 101.865 201.375 102.237 201.467C105.528 202.282 109.831 200.453 109.476 196.518Z" fill="#E67945"/>
<path d="M62.1471 205.086C60.5986 203.445 59.0203 201.833 57.4152 200.245C57.1413 199.974 56.7214 200.396 56.9954 200.664C58.6005 202.249 60.1787 203.864 61.7272 205.506C61.9893 205.785 62.4091 205.363 62.1471 205.086Z" fill="#E67945"/>
<path d="M61.3577 207.326C60.8188 207.1 60.3185 206.791 59.8719 206.416C59.58 206.172 59.1572 206.591 59.452 206.835C59.985 207.281 60.5627 207.629 61.2 207.897C61.5513 208.049 61.7061 207.472 61.3577 207.326Z" fill="#E67945"/>
<path d="M67.7933 205.101C66.7599 206.612 65.3127 207.974 65.6373 209.961C65.6998 210.339 66.2716 210.178 66.212 209.803C65.9231 208.043 67.4032 206.722 68.3084 205.402C68.5258 205.083 68.0106 204.786 67.7933 205.101Z" fill="#E67945"/>
<path d="M64.9524 204.063C64.3419 203.567 63.7315 203.07 63.1181 202.573C62.8234 202.333 62.4005 202.752 62.6983 202.993C63.3087 203.489 63.9191 203.986 64.5325 204.483C64.8273 204.724 65.2501 204.307 64.9524 204.063Z" fill="#E67945"/>
<path d="M167.8 157.185C167.38 157.967 166.993 158.764 166.639 159.579C166.487 159.927 166.999 160.231 167.154 159.88C167.508 159.068 167.895 158.268 168.315 157.485C168.494 157.146 167.982 156.846 167.8 157.185Z" fill="#E67945"/>
<path d="M171.406 154.722C170.864 155.855 170.322 156.992 169.78 158.125C169.617 158.47 170.129 158.77 170.296 158.425C170.838 157.292 171.38 156.156 171.921 155.023C172.085 154.678 171.573 154.377 171.406 154.722Z" fill="#E67945"/>
<path d="M173.83 155.151C173.732 155.954 173.088 156.578 172.758 157.289C172.597 157.634 173.112 157.937 173.273 157.589C173.66 156.757 174.312 156.093 174.428 155.151C174.47 154.77 173.874 154.773 173.83 155.151Z" fill="#E67945"/>
<path d="M175.354 157.637C174.985 158.151 174.634 158.678 174.3 159.216C174.098 159.543 174.613 159.841 174.815 159.517C175.149 158.978 175.5 158.452 175.869 157.937C176.093 157.625 175.575 157.328 175.354 157.637Z" fill="#E67945"/>
<path d="M117.12 197.547C116.206 201.289 114.026 204.245 110.944 206.514C107.937 208.73 104.322 210.428 100.504 209.824C100.129 209.765 99.9681 210.339 100.346 210.398C104.334 211.029 108.089 209.355 111.245 207.026C114.458 204.658 116.739 201.604 117.695 197.702C117.784 197.333 117.213 197.172 117.12 197.547Z" fill="#995726"/>
<path d="M95.5134 184.03C94.4503 182.736 93.3872 181.445 92.3271 180.151C92.0829 179.854 91.6631 180.279 91.9073 180.571C92.9704 181.864 94.0334 183.155 95.0935 184.449C95.3347 184.746 95.7546 184.324 95.5134 184.03Z" fill="#995726"/>
<path d="M96.7166 182.703C96.0525 181.585 95.3914 180.464 94.7274 179.345C94.5338 179.015 94.0186 179.316 94.2122 179.646C94.8763 180.764 95.5373 181.885 96.2014 183.004C96.3979 183.331 96.9101 183.033 96.7166 182.703Z" fill="#995726"/>
<path d="M93.7624 184.657C92.9167 183.694 91.9578 182.855 90.8947 182.138C90.5761 181.924 90.2783 182.438 90.5939 182.653C91.6153 183.34 92.5296 184.152 93.3425 185.076C93.5956 185.365 94.0155 184.943 93.7624 184.657Z" fill="#995726"/>
<path d="M104.799 221.224C102.357 219.19 99.7691 217.361 97.0325 215.74C96.7019 215.544 96.4012 216.058 96.7317 216.254C99.4237 217.849 101.973 219.642 104.379 221.644C104.671 221.887 105.094 221.468 104.799 221.224Z" fill="#995726"/>
<path d="M105.582 223.892C104.144 222.97 102.741 222 101.368 220.983C101.061 220.754 100.764 221.272 101.067 221.498C102.44 222.515 103.843 223.484 105.281 224.406C105.603 224.615 105.903 224.1 105.582 223.892Z" fill="#995726"/>
<path d="M131.763 195.843C128.758 195.748 125.756 195.807 122.755 196.018C122.374 196.045 122.371 196.64 122.755 196.613C125.753 196.399 128.755 196.342 131.763 196.438C132.147 196.45 132.147 195.855 131.763 195.843Z" fill="#995726"/>
<path d="M131.688 197.119H128.785C128.401 197.119 128.401 197.714 128.785 197.714H131.688C132.072 197.714 132.072 197.119 131.688 197.119Z" fill="#995726"/>
<path d="M134.216 198.585C133.224 198.671 132.233 198.758 131.241 198.844C130.863 198.877 130.86 199.471 131.241 199.439C132.233 199.352 133.224 199.266 134.216 199.18C134.597 199.147 134.6 198.552 134.216 198.585Z" fill="#995726"/>
<path d="M145.595 201.654C144.15 208.108 142.742 214.735 143.549 221.328C143.442 221.308 143.325 221.343 143.254 221.465C142.137 223.381 141.095 225.201 140.613 227.387C140.529 227.758 141.104 227.919 141.187 227.544C141.637 225.498 142.599 223.776 143.638 221.992C143.739 222.682 143.864 223.369 144.016 224.059C144.1 224.433 144.674 224.273 144.591 223.901C142.953 216.516 144.549 209.048 146.169 201.812C146.25 201.44 145.678 201.28 145.595 201.654Z" fill="#995726"/>
<path d="M165.513 199.543C165.367 199.195 164.789 199.346 164.938 199.7C168.673 208.578 170.977 218.319 168.467 227.851C168.369 228.222 168.944 228.38 169.042 228.008C171.579 218.375 169.289 208.522 165.513 199.543Z" fill="#995726"/>
<path d="M160.48 181.936C159.891 183.494 159.399 185.082 159.009 186.703C158.92 187.075 159.495 187.233 159.584 186.861C159.974 185.24 160.466 183.655 161.055 182.093C161.192 181.734 160.614 181.579 160.48 181.936Z" fill="#995726"/>
<path d="M160.597 184.401C160.353 185.442 160.108 186.486 159.864 187.527C159.778 187.899 160.353 188.06 160.439 187.685C160.683 186.644 160.927 185.6 161.171 184.559C161.258 184.187 160.683 184.03 160.597 184.401Z" fill="#995726"/>
<path d="M139.389 225.451C139.055 226.298 138.769 227.161 138.534 228.041C138.436 228.41 139.011 228.57 139.109 228.199C139.344 227.318 139.63 226.456 139.964 225.608C140.104 225.254 139.529 225.1 139.389 225.451Z" fill="#995726"/>
<path d="M136.905 225.367C136.622 226.126 136.384 226.896 136.187 227.681C136.095 228.053 136.67 228.211 136.762 227.839C136.959 227.054 137.197 226.283 137.48 225.525C137.614 225.165 137.036 225.01 136.905 225.367Z" fill="#995726"/>
<path d="M74.0613 211.326C73.3407 210.732 72.623 210.137 71.9024 209.542C71.6106 209.298 71.1848 209.717 71.4826 209.961C72.2032 210.556 72.9208 211.151 73.6414 211.746C73.9332 211.99 74.3561 211.57 74.0613 211.326Z" fill="#995726"/>
<path d="M72.4386 211.948L71.1641 210.993C70.8574 210.764 70.5596 211.279 70.8633 211.508C71.2891 211.826 71.712 212.144 72.1378 212.462C72.4445 212.691 72.7423 212.174 72.4386 211.948Z" fill="#995726"/>
<path d="M81.9553 220.484C81.3061 220.6 80.663 220.57 80.0258 220.412C79.6536 220.32 79.4958 220.894 79.868 220.986C80.6124 221.171 81.3597 221.192 82.1161 221.058C82.4912 220.992 82.3304 220.418 81.9553 220.484Z" fill="#995726"/>
<path d="M144.314 166.634C143.736 167.696 143.096 168.713 142.387 169.691C142.161 170.001 142.679 170.298 142.902 169.992C143.611 169.013 144.251 167.996 144.829 166.934C145.011 166.598 144.498 166.298 144.314 166.634Z" fill="#995726"/>
<path d="M143.802 170.283C143.406 170.952 142.938 171.565 142.396 172.124C142.131 172.401 142.551 172.82 142.816 172.543C143.391 171.949 143.891 171.291 144.314 170.581C144.513 170.253 143.998 169.953 143.802 170.283Z" fill="#995726"/>
<path d="M142.357 178.034L140.204 180.493C139.954 180.782 140.371 181.204 140.624 180.913C141.342 180.092 142.06 179.274 142.777 178.453C143.03 178.167 142.61 177.745 142.357 178.034Z" fill="#995726"/>
<path d="M119.485 224.422L117.835 219.27C117.719 218.908 117.144 219.062 117.261 219.428L118.91 224.579C119.026 224.942 119.604 224.787 119.485 224.422Z" fill="#995726"/>
<path d="M123.109 228.481C122.254 226.991 121.557 225.442 121.015 223.812C120.896 223.449 120.319 223.607 120.441 223.969C120.998 225.647 121.715 227.247 122.594 228.782C122.784 229.115 123.299 228.814 123.109 228.481Z" fill="#995726"/>
<path d="M180.616 183.604C179.72 184.592 178.773 185.532 177.779 186.421C177.493 186.677 177.916 187.096 178.199 186.84C179.193 185.948 180.137 185.011 181.036 184.024C181.295 183.741 180.876 183.319 180.616 183.604Z" fill="#995726"/>
<path d="M180.235 186.019C179.551 186.531 178.886 187.066 178.243 187.628C177.954 187.881 178.377 188.301 178.663 188.048C179.268 187.518 179.893 187.013 180.536 186.531C180.837 186.305 180.542 185.79 180.235 186.019Z" fill="#995726"/>
<path d="M175.837 209.732C174.938 210.419 174 211.05 173.026 211.621C172.695 211.814 172.996 212.328 173.327 212.135C174.303 211.561 175.241 210.934 176.138 210.247C176.439 210.018 176.144 209.5 175.837 209.732Z" fill="#995726"/>
<path d="M175.691 211.894C174.744 212.498 173.824 213.141 172.931 213.819C172.63 214.048 172.925 214.565 173.232 214.333C174.125 213.655 175.045 213.013 175.992 212.409C176.317 212.204 176.016 211.689 175.691 211.894Z" fill="#995726"/>
<path d="M173.672 216.936C173.133 217.349 172.642 217.807 172.204 218.327C171.957 218.619 172.377 219.041 172.624 218.747C173.029 218.271 173.476 217.831 173.973 217.45C174.271 217.218 173.976 216.701 173.672 216.936Z" fill="#995726"/>
<path d="M166.981 233.829C165.632 234.757 164.28 235.682 162.931 236.61C162.618 236.824 162.916 237.341 163.232 237.124C164.581 236.196 165.933 235.271 167.282 234.343C167.597 234.126 167.299 233.612 166.981 233.829Z" fill="#995726"/>
<path d="M167.32 261.64C166.79 263.082 166.263 264.528 165.733 265.97C165.602 266.33 166.177 266.485 166.308 266.128C166.838 264.685 167.365 263.24 167.895 261.797C168.026 261.438 167.449 261.283 167.32 261.64Z" fill="#995726"/>
<path d="M167.493 264.697C167.225 265.542 166.957 266.387 166.692 267.231C166.576 267.597 167.151 267.755 167.267 267.389C167.535 266.544 167.803 265.7 168.068 264.855C168.184 264.489 167.609 264.332 167.493 264.697Z" fill="#995726"/>
<path d="M182.945 291.81C182.031 290.965 181.391 289.93 181.054 288.731C180.95 288.363 180.375 288.52 180.479 288.889C180.843 290.18 181.536 291.319 182.522 292.229C182.805 292.491 183.228 292.068 182.945 291.81Z" fill="#995726"/>
<path d="M184.467 292.149C183.877 291.417 183.344 290.647 182.859 289.841C182.662 289.514 182.147 289.811 182.343 290.141C182.856 290.989 183.424 291.798 184.044 292.568C184.285 292.868 184.705 292.443 184.467 292.149Z" fill="#995726"/>
<path d="M186.822 292.577C186.369 291.985 185.917 291.396 185.467 290.804C185.238 290.504 184.72 290.801 184.952 291.105C185.405 291.697 185.857 292.286 186.307 292.877C186.539 293.178 187.057 292.883 186.822 292.577Z" fill="#995726"/>
<path d="M189.168 278.381C188.966 279.149 188.766 279.916 188.564 280.683C188.466 281.055 189.04 281.213 189.139 280.841C189.341 280.074 189.541 279.306 189.743 278.539C189.841 278.17 189.267 278.013 189.168 278.381Z" fill="#995726"/>
<path d="M190.797 278.462C190.812 278.078 190.217 278.081 190.202 278.462C190.161 279.515 190.241 280.553 190.428 281.59C190.497 281.965 191.071 281.808 191.002 281.433C190.824 280.448 190.761 279.461 190.797 278.462Z" fill="#995726"/>
<path d="M202.343 270.494C202.197 270.146 201.619 270.3 201.768 270.651C202.221 271.725 202.468 272.834 202.5 274C202.512 274.381 203.108 274.384 203.096 274C203.063 272.784 202.816 271.618 202.343 270.494Z" fill="#995726"/>
<path d="M204.108 272.139C203.989 271.776 203.415 271.931 203.534 272.296C203.825 273.198 203.897 274.111 203.724 275.044C203.656 275.419 204.23 275.58 204.298 275.202C204.491 274.164 204.435 273.144 204.108 272.139Z" fill="#995726"/>
<path d="M148.766 153.518C148.566 152.165 147.089 150.951 145.871 151.87C145.708 151.596 145.475 151.367 145.151 151.219C144.606 150.972 143.978 151.115 143.453 151.415C143.221 151.014 142.846 150.737 142.277 150.782C141.417 150.85 140.351 151.742 140.282 152.617C140.276 152.673 140.303 152.712 140.336 152.733C139.508 154.24 139.186 155.998 139.493 157.714C139.66 158.657 139.931 159.853 140.535 160.623C141.164 161.426 142.402 161.527 143.346 161.533C144.109 161.539 145.711 163.005 146.241 162.354C147.033 161.384 147.61 159.43 148.289 158.375C149.037 157.212 149.635 155.362 149.099 154.003C149.049 153.875 148.778 153.613 148.766 153.518Z" fill="#FFC1A3"/>
<path d="M149.15 155.832C149.046 154.865 148.331 154.398 147.462 154.178C146.086 153.83 144.645 153.455 143.218 153.604C142.429 153.687 141.628 153.815 140.836 153.985C140.881 153.791 140.943 153.604 141.03 153.423C141.11 153.25 140.854 153.098 140.774 153.274C140.667 153.5 140.577 153.77 140.512 154.059C140.029 154.169 139.547 154.291 139.082 154.434C138.901 154.49 138.978 154.776 139.163 154.719C139.583 154.591 140.014 154.469 140.455 154.359C140.357 154.987 140.387 155.662 140.655 156.15C140.83 156.468 141.116 156.718 141.479 156.783C141.652 156.813 141.801 156.762 141.971 156.768C142.429 156.783 142.76 157.036 143.144 157.212C143.427 157.342 143.656 157.42 143.975 157.348C144.326 157.271 144.424 157.099 144.871 157.176C145.094 157.215 145.303 157.36 145.538 157.396C145.714 157.423 145.887 157.426 146.062 157.411C146.381 157.381 146.845 157.105 147.149 157.185C147.498 157.277 147.623 157.482 148.037 157.423C148.808 157.31 149.228 156.569 149.15 155.832Z" fill="#FFC1A3"/>
<path d="M140.952 153.803C140.967 153.503 140.967 152.709 141.206 152.459C141.471 152.182 141.051 151.76 140.786 152.04C140.414 152.426 140.402 153.182 140.366 153.69C140.315 154.398 140.422 155.055 140.699 155.707C140.848 156.058 141.363 155.754 141.215 155.406C140.997 154.895 140.926 154.356 140.952 153.803Z" fill="#FF9866"/>
<path d="M143.043 152.313C142.858 153.5 142.632 154.681 142.364 155.852C142.277 156.224 142.852 156.385 142.939 156.01C143.206 154.838 143.433 153.66 143.617 152.471C143.674 152.099 143.099 151.935 143.043 152.313Z" fill="#FF9866"/>
<path d="M145.24 152.843C145.13 153.812 144.883 154.749 144.517 155.653C144.374 156.007 144.948 156.162 145.091 155.811C145.478 154.853 145.72 153.869 145.836 152.843C145.877 152.462 145.282 152.465 145.24 152.843Z" fill="#FF9866"/>
<path d="M147.593 154.104C147.545 154.606 147.391 155.079 147.146 155.522C146.962 155.858 147.474 156.159 147.662 155.823C147.959 155.284 148.129 154.713 148.189 154.104C148.227 153.723 147.632 153.726 147.593 154.104Z" fill="#FF9866"/>
<path d="M193.701 156.15C194.371 154.684 193.081 154.351 192.605 153.774C192.402 153.527 191.071 153.345 190.759 153.304C190.092 153.215 189.815 153.051 189.165 153.271C188.433 153.518 187.486 153.542 186.795 153.89C185.422 154.583 185.22 156.691 184.854 157.997C184.356 159.77 183.362 161.37 183.237 163.226C183.228 163.223 183.216 163.22 183.207 163.217C182.912 163.115 182.784 163.585 183.079 163.684C184.059 164.014 185.074 164.484 186.098 164.653C186.977 164.799 187.873 164.713 188.76 164.861C189.35 164.959 189.547 165.129 190.032 164.742C190.639 164.258 191.071 163.342 191.372 162.66C191.78 161.744 192.048 160.781 192.34 159.823C192.617 158.925 193.031 157.616 193.701 156.15Z" fill="#FFC1A3"/>
<path d="M185.348 158.722C185.22 157.902 185.315 157.173 185.318 156.352C185.321 155.579 185.696 153.485 185.05 152.97C183.475 151.712 182.757 156.87 182.596 157.438C182.284 158.553 181.676 159.579 181.495 160.73C181.292 162.009 181.891 163.029 182.334 164.183C182.421 164.406 182.719 164.379 182.796 164.222C183.811 164.064 184.178 163.909 184.773 163.008C185.345 162.143 185.473 161.206 185.488 160.18C185.494 159.683 185.422 159.213 185.348 158.722Z" fill="#FFC1A3"/>
<path d="M193.686 152.688C193.161 152.587 192.14 152.17 191.625 152.26C190.881 152.388 190.148 152.072 189.407 152.087C188.501 152.105 187.313 152.646 186.581 153.161C186.009 153.562 185.696 154.954 185.625 155.629C185.565 156.174 185.592 157.149 186.188 157.435C186.795 157.723 187.349 156.968 187.641 156.548C187.742 156.403 187.828 156.251 187.906 156.099C187.965 156.995 188.239 157.839 189.118 157.72C189.838 157.622 190.202 156.974 190.392 156.212C190.577 156.727 190.88 157.146 191.372 157.262C192 157.411 192.417 156.956 192.679 156.4C192.917 156.608 193.26 156.688 193.632 156.554C194.516 156.236 194.621 155.177 194.627 154.374C194.633 153.631 194.531 152.852 193.686 152.688Z" fill="#FFC1A3"/>
<path d="M185.595 158.119C185.434 157.771 184.922 158.074 185.08 158.419C185.532 159.407 185.791 160.445 185.86 161.53C185.884 161.911 186.479 161.914 186.455 161.53C186.381 160.338 186.095 159.204 185.595 158.119Z" fill="#FF9866"/>
<path d="M188.295 153.17C188.016 153.869 187.78 154.58 187.593 155.305C187.497 155.677 188.069 155.835 188.167 155.463C188.358 154.734 188.59 154.023 188.87 153.328C189.013 152.971 188.438 152.819 188.295 153.17Z" fill="#FF9866"/>
<path d="M190.443 153.414C190.27 154.047 190.124 154.684 190.005 155.329C189.937 155.704 190.508 155.864 190.58 155.487C190.699 154.841 190.845 154.205 191.018 153.571C191.119 153.203 190.544 153.045 190.443 153.414Z" fill="#FF9866"/>
<path d="M192.626 153.768C192.491 154.294 192.349 154.815 192.191 155.332C192.081 155.698 192.655 155.855 192.766 155.49C192.923 154.972 193.069 154.449 193.2 153.925C193.293 153.553 192.718 153.396 192.626 153.768Z" fill="#FF9866"/>
<path d="M189.565 157.31C189.466 157.491 189.311 157.572 189.112 157.601C188.951 157.625 188.549 157.676 188.49 157.459C188.391 157.09 187.817 157.247 187.915 157.616C188.165 158.547 189.696 158.318 190.08 157.61C190.261 157.274 189.746 156.974 189.565 157.31Z" fill="#FF9866"/>
<path d="M192.268 156.84C192.072 157.146 191.491 157.346 191.235 157.009C191.006 156.709 190.487 157.003 190.72 157.31C191 157.679 191.336 157.818 191.801 157.753C192.209 157.696 192.557 157.491 192.78 157.14C192.989 156.813 192.474 156.516 192.268 156.84Z" fill="#FF9866"/>
<path d="M290.36 88.286C290.262 87.4711 289.163 86.9268 288.484 86.6859C288.145 86.567 287.799 86.4926 287.448 86.445C287.561 86.3261 287.671 86.2041 287.773 86.0733C288.434 85.2375 289.011 84.0122 288.565 82.9445C287.814 81.151 285.87 82.073 284.312 83.2211C284.437 81.8321 284.393 80.4373 284.128 79.0483C283.916 77.933 283.479 76.5054 282.13 76.4192C279.482 76.2526 279.548 79.9971 279.92 82.8344C279.441 82.2782 278.884 81.7905 278.169 81.4395C277.037 80.8804 275.17 80.4164 274.107 81.3592C273.104 82.2485 273.756 83.4649 274.62 84.1549C274.873 84.3572 275.15 84.5773 275.45 84.8003C274.387 84.9788 273.506 85.4279 273.524 86.4421C273.536 87.2391 274.226 87.6347 274.914 87.831C275.224 87.9202 275.54 87.9975 275.858 88.0659C275.808 88.1135 275.754 88.1611 275.703 88.2146C274.956 88.9849 273.976 90.5345 274.375 91.6765C274.768 92.7948 276.421 92.2654 278.074 91.391C277.943 91.8044 277.836 92.2297 277.749 92.6521C277.576 93.467 277.526 94.502 278.443 94.9035C279.292 95.2723 280.081 94.7875 280.733 94.0202C280.924 95.1028 281.326 96.4381 282.377 96.7445C284.348 97.3215 284.589 94.9332 284.393 92.6223C284.562 92.7889 284.738 92.9525 284.926 93.1041C285.73 93.7525 287.007 94.5436 287.942 93.6544C288.976 92.6699 287.871 91.0847 287.317 90.1419C287.231 89.9962 287.144 89.8474 287.055 89.6987C287.579 89.7225 288.103 89.6868 288.627 89.5827C289.303 89.443 290.47 89.1991 290.36 88.286Z" fill="#FF9866"/>
<path d="M283.618 86.3289C283.609 86.3081 283.597 86.2903 283.588 86.2695C283.627 86.0761 283.63 85.868 283.588 85.636C283.404 84.6129 282.356 83.7117 281.319 84.256C281.135 84.3541 280.977 84.4909 280.858 84.6545C279.729 84.8657 279.419 86.4301 279.762 87.3788C279.991 88.0123 280.625 88.4406 281.242 88.399C281.23 88.4793 281.215 88.5566 281.206 88.6369C281.191 89.7819 282.365 89.8027 283.044 89.2079C283.859 88.4971 284.068 87.2985 283.618 86.3289Z" fill="#EB7942"/>
<path d="M74.5376 125.32C75.5619 124.773 76.5059 124.104 77.2206 123.161C77.9948 122.138 78.8882 120.041 78.0991 118.786C77.3665 117.623 75.4577 118.625 74.6716 119.208C73.9986 119.708 73.3941 120.279 72.8283 120.892C73.0397 120.089 73.1946 119.268 73.2809 118.429C73.4179 117.12 73.531 115.22 72.1136 114.527C70.7527 113.864 69.4157 114.931 68.8678 116.13C68.3586 117.236 68.168 118.477 68.1769 119.714C68.1114 119.604 68.0489 119.494 67.9774 119.384C67.233 118.233 65.4344 115.69 63.871 115.785C62.2898 115.88 62.6412 118.477 62.9211 119.485C63.2546 120.683 63.9097 121.698 64.7078 122.605C63.9544 122.361 63.1832 122.17 62.397 122.057C61.3905 121.915 59.6366 121.864 59.0648 122.941C58.1387 124.687 61.6049 125.281 64.2671 125.51C63.5196 125.885 62.8169 126.343 62.2302 126.953C61.3518 127.869 60.384 129.576 60.8813 130.906C61.2892 131.994 62.7603 131.697 63.5673 131.28C64.3266 130.888 64.8835 130.29 65.3986 129.647C65.1515 130.439 64.9758 131.256 64.8835 132.095C64.7435 133.371 64.4666 136.021 66.0091 136.69C67.6052 137.383 68.7249 135.087 69.2043 133.993C69.5051 133.312 69.7284 132.61 69.9071 131.896C70.4461 134.174 71.4972 136.366 73.5132 135.872C75.6483 135.349 74.9128 132.5 73.8557 130.183C74.4334 130.495 75.0587 130.712 75.7406 130.775C77.1164 130.9 78.7541 130.349 79.3735 129.011C80.5706 126.403 77.2027 125.57 74.5376 125.32Z" fill="#FF9866"/>
<path d="M72.7003 123.655C72.334 122.361 71.3454 122.215 70.4193 122.611C69.8088 121.879 68.8053 121.424 67.8822 121.906C67.376 122.17 67.0812 122.688 67.0038 123.241C66.9323 123.741 67.3343 124.541 67.1169 124.948C66.9025 125.347 66.1878 125.537 65.9347 126.04C65.7143 126.48 65.6608 126.994 65.8275 127.464C65.9704 127.863 66.2593 128.205 66.6494 128.377C67.2896 128.66 67.6231 128.291 68.0847 128.178C68.2515 128.583 68.3527 128.922 68.8679 129.178C69.5379 129.511 70.6099 129.508 71.2888 129.186C72.4144 128.651 72.2476 127.405 71.6372 126.542C72.5156 125.879 73.0219 124.794 72.7003 123.655Z" fill="#EB7942"/>
</svg>
