<svg width="383" height="408" viewBox="0 0 383 408" fill="none" xmlns="http://www.w3.org/2000/svg">
<circle cx="245.5" cy="137.5" r="137.5" fill="#1C60E3"/>
<path d="M277.714 317.684C277.531 313.533 273.741 311.336 270.104 310.489C267.429 309.866 264.67 309.802 261.94 309.604C261.469 309.569 260.994 309.534 260.523 309.49C256.803 309.208 253.092 308.842 249.386 308.396C247.35 308.154 245.314 307.882 243.287 307.59C244.759 306.462 246.151 305.131 247.439 303.646C253.607 296.59 257.64 286.021 257.982 277.179C258.512 263.374 254.826 250.039 245.393 240.054C236.778 230.934 221.554 227.223 208.846 228.312C196.505 229.366 185.452 236.288 180.34 247.718C176.793 255.65 175.163 264.65 175.073 273.305C175.004 280.079 176.292 287.436 181.697 292.048C181.965 292.276 182.277 292.281 182.529 292.157C183.01 292.756 183.491 293.354 183.971 293.948C185.324 295.62 186.671 297.293 188.014 298.97C189.663 301.039 191.303 303.122 192.913 305.225C193.017 305.358 193.121 305.497 193.226 305.63C194.38 307.145 195.43 308.678 195.509 310.658C195.574 312.142 195.113 313.607 195.029 315.081C194.885 317.432 195.698 319.44 197.367 321.103C201.266 324.982 207.826 326.853 212.938 328.416C219.185 330.326 225.641 331.445 232.16 331.855C236.421 332.122 240.895 332.375 245.393 332.35C253.572 332.32 261.841 331.405 269.059 328.08C273.072 326.229 277.937 322.652 277.714 317.684Z" fill="#DD751B"/>
<path d="M288.519 155.469C288.46 152.995 288.832 149.962 287.984 147.572C287.816 147.092 287.568 146.642 287.266 146.211C286.191 144.658 284.422 143.406 283.04 142.317C272.711 134.153 260.033 131.303 247.058 131.748C240.162 131.986 233.221 132.817 226.419 133.99C220.999 134.925 215.678 136.325 210.739 138.7C211.621 136.464 212.156 134.074 212.22 131.526C212.245 130.571 210.759 130.571 210.734 131.526C210.655 134.524 209.902 137.26 208.673 139.759C208.321 139.952 207.974 140.15 207.633 140.353C207.083 140.675 207.231 141.352 207.638 141.625C206.344 143.728 204.715 145.647 202.886 147.394C201.559 148.666 200.127 149.843 198.641 150.932C197.12 152.055 195.544 153.084 193.969 154.029C193.667 154.208 193.369 154.391 193.067 154.564C189.911 156.444 186.726 158.245 183.57 160.086C179.423 162.51 175.326 165.004 171.403 167.849C171.259 167.948 171.12 168.047 170.982 168.151C169.362 169.339 167.766 170.561 166.196 171.813C162.223 174.985 158.413 178.354 154.781 181.902C153.062 183.579 151.378 185.296 149.743 187.058C148.866 187.993 147.999 188.938 147.147 189.898C145.477 191.773 143.852 193.688 142.272 195.643C142.069 195.895 141.866 196.147 141.668 196.4C139.914 198.577 138.225 200.809 136.595 203.075C136.466 203.243 136.347 203.411 136.223 203.584C132.592 208.666 129.243 213.951 126.186 219.394C124.521 222.362 122.941 225.381 121.45 228.439C119.795 231.833 118.249 235.277 116.818 238.77C115.921 240.942 115.069 243.129 114.261 245.336C113.87 246.405 113.488 247.479 113.117 248.553C111.685 252.704 110.387 256.915 109.253 261.17C108.296 264.772 107.449 268.414 106.736 272.076C106.652 272.496 106.572 272.917 106.493 273.337C104.967 281.527 104.155 290.21 106.265 298.375C108.286 306.193 113.231 312.195 119.958 316.124C121.187 316.841 122.47 317.489 123.813 318.063C125.354 318.726 126.919 319.29 128.504 319.785C132.577 321.047 136.773 321.819 141.004 322.452C144.858 323.036 148.742 323.506 152.587 324.139C158.571 327.925 167.434 326.93 174.207 325.658C179.072 324.743 183.957 323.783 188.787 322.63C191.046 322.091 193.295 321.512 195.53 320.874C199.696 319.686 203.803 318.306 207.806 316.628C216.446 313.016 224.135 307.959 230.744 301.482C231.972 300.285 233.157 299.033 234.306 297.736C241.267 289.869 246.8 280.893 252.334 272.006C258.18 262.615 264.145 253.377 271.566 245.133C275.247 241.046 279.092 237.004 281.92 232.259C284.814 227.409 286.27 221.986 286.999 216.42C287.543 212.244 287.9 208.023 288.138 203.782C288.663 194.589 288.623 185.306 288.688 176.192C288.737 169.284 288.678 162.377 288.519 155.469Z" fill="#F28E35"/>
<path d="M132.076 92.3615C127.741 90.8227 123.683 94.4595 120.607 97.0078C119.765 97.7055 118.927 98.4031 118.085 99.1008C114.999 101.669 111.932 104.262 108.92 106.919C105.447 109.977 102.029 113.139 98.754 116.434C98.749 116.434 98.749 116.434 98.749 116.434C97.5253 117.661 96.3265 118.908 95.1474 120.175C85.7295 130.294 77.8177 141.684 73.6512 155.098C70.5598 165.069 69.2222 175.519 65.8385 185.405C65.675 185.89 65.5065 186.375 65.3282 186.855C64.9021 188.018 64.4315 189.156 63.9212 190.274C59.7151 199.512 52.9576 207.231 48.3998 216.321C43.5496 225.999 40.8892 236.613 39.6012 247.321C38.6896 254.866 38.2585 262.63 38.8877 270.26C39.0413 272.14 39.2593 274.01 39.5516 275.871C39.6011 276.178 39.6507 276.489 39.7052 276.796C41.0329 284.55 43.9459 292.229 49.3014 298.053C49.995 298.805 50.7282 299.523 51.501 300.211C52.4473 301.047 53.4431 301.833 54.4735 302.561C61.3054 307.41 69.8464 309.983 78.0802 310.74C84.0748 311.289 90.1486 310.844 96.0044 309.463C97.7087 309.068 99.3881 308.588 101.043 308.029C102.593 307.514 104.119 306.925 105.616 306.272C109.856 304.421 113.864 302.026 117.461 299.117C118.704 298.118 119.948 297.054 119.933 295.327C119.913 292.64 118.452 289.582 117.709 287.014C116.604 283.209 115.504 279.399 114.399 275.594C114.865 274.738 115.276 273.847 115.618 272.907C115.945 272.011 114.513 271.625 114.186 272.516C114.062 272.848 113.934 273.169 113.79 273.491C113.404 272.145 113.012 270.799 112.621 269.453C112.358 268.538 110.921 268.929 111.189 269.849C111.729 271.71 112.264 273.565 112.804 275.426C107.969 283.689 96.8219 288.335 87.7012 288.553C82.4102 288.677 77.9564 287.019 74.3101 284.218C72.8139 283.065 71.4565 281.729 70.2279 280.24C67.8994 277.415 66.0515 274.055 64.6693 270.458C61.5581 262.358 59.7399 253.199 60.1907 244.371C60.27 242.749 60.4334 241.14 60.6762 239.552C60.7356 239.136 60.805 238.721 60.8793 238.305C61.6769 233.872 63.3168 229.903 65.4421 226.202C66.4528 224.446 67.5724 222.753 68.7664 221.101C70.9314 218.102 73.3391 215.232 75.7815 212.382C81.781 205.366 87.622 198.156 89.8266 188.988C91.0255 183.985 91.4169 178.824 92.6009 173.822C92.7149 173.317 92.8387 172.817 92.9775 172.318C93.2004 171.491 93.4481 170.675 93.7107 169.863C94.5083 167.394 95.4793 164.984 96.589 162.639C97.1241 161.506 97.6889 160.393 98.2834 159.294C98.5707 158.76 98.863 158.23 99.1603 157.706C104.986 147.468 112.799 138.601 120.082 129.358C121.221 127.909 122.356 126.444 123.46 124.964C126.126 121.412 128.657 117.76 130.921 113.925C131.362 113.178 131.823 112.406 132.284 111.615C134.191 108.314 136.059 104.692 136.5 101.031C136.906 97.6362 135.573 93.5986 132.076 92.3615Z" fill="#F28E35"/>
<path d="M326.562 320.108C325.279 316.961 321.281 312.71 318.408 309.919C316.624 308.193 315.277 307.025 315.277 307.025C311.427 297.173 307.682 287.069 304.407 276.812C303.917 275.273 303.436 273.734 302.97 272.195C300.766 264.946 298.829 257.628 297.278 250.275C296.758 247.841 296.287 245.401 295.866 242.957C295.638 241.69 295.43 240.419 295.237 239.152C292.909 223.981 292.671 204.936 292.671 189.592C292.671 176.064 288.152 147.573 288.152 147.573C288.152 147.573 284.194 183.719 282.847 188.662C281.207 194.698 278.759 200.458 276.258 206.183C271.348 217.4 266.423 228.613 261.504 239.825C260.488 242.151 259.299 244.461 258.467 246.856C257.595 249.355 258.165 251.423 258.992 253.853C260.761 259.053 262.559 264.249 264.496 269.39C264.962 270.617 265.433 271.844 265.918 273.061C266.646 274.892 267.399 276.713 268.172 278.524C274.538 293.442 282.326 307.782 290.09 321.988C291.358 324.308 292.557 327.005 294.444 328.96C294.87 329.395 295.326 329.796 295.831 330.147C298.749 332.181 303.714 332.898 307.162 333.373C310.877 333.883 314.657 333.908 318.373 333.378C322.371 332.804 325.626 330.79 326.855 326.728C327.598 324.279 327.375 322.102 326.562 320.108Z" fill="#F28E35"/>
<path d="M306.983 121.828C306.839 120.759 306.631 119.69 306.379 118.631C305.982 116.919 305.472 115.222 304.942 113.54C304.546 112.278 304.139 111.026 303.763 109.789C303.367 108.498 302.96 107.206 302.539 105.92C301.935 104.024 301.301 102.139 300.647 100.259C298.928 95.301 297.07 90.3875 295.078 85.5236C295.207 85.4691 295.331 85.3702 295.42 85.2168C295.896 84.4102 296.292 83.4503 296.584 82.4013C298.11 76.9337 296.951 68.9921 291.174 67.5769C287.885 66.7704 284.159 68.517 281.415 70.1994C280.27 70.8971 279.2 71.6937 278.209 72.5794C276.777 73.8362 275.509 75.2761 274.404 76.8446C274.404 76.8446 274.404 76.8446 274.404 76.8496C274.276 77.0327 274.152 77.2157 274.028 77.3988C261.177 76.3053 248.281 76.0084 235.395 76.5131C235.048 76.048 234.687 75.573 234.315 75.1029C233.81 74.4745 233.285 73.8461 232.73 73.2375C232.71 73.2128 232.685 73.188 232.665 73.1633C232.576 73.0643 232.487 72.9654 232.398 72.8714C228.563 68.7397 223.674 65.4641 218.536 67.2503C212.76 69.2543 212.314 74.905 213.394 80.1747C213.394 80.1796 213.394 80.1796 213.394 80.1796C213.795 82.1391 214.404 84.0391 215.034 85.6819C211.675 90.9417 208.737 96.439 206.022 102.05C205.269 103.599 204.536 105.153 203.817 106.716C203.738 106.884 203.664 107.053 203.584 107.221C202.569 109.428 201.514 111.714 200.666 114.054C200.087 115.652 199.601 117.28 199.294 118.918C198.858 121.204 198.759 123.525 199.215 125.855C199.344 126.533 199.522 127.206 199.75 127.884C202.812 136.919 210.337 144.035 218.774 148.151C239.993 158.498 264.793 162.229 286.473 151.031C294.424 146.919 301.038 139.853 304.892 131.793C305.854 129.794 306.626 127.736 306.939 125.598C307.127 124.371 307.157 123.114 306.983 121.828Z" fill="#F28E35"/>
<path d="M238.72 109.779C238.368 109.091 237.818 108.587 237.075 108.493C236.679 108.443 236.277 108.601 236.044 109.086C235.405 110.437 235.118 112.555 235.698 113.985C236.104 114.984 237.486 115.548 238.308 114.668C238.432 114.534 238.517 114.386 238.576 114.227C239.354 113.129 239.403 111.11 238.72 109.779Z" fill="#252622"/>
<path d="M274.574 109.105C274.212 108.403 273.652 107.888 272.894 107.789C272.488 107.735 272.077 107.898 271.844 108.393C271.19 109.773 270.898 111.936 271.487 113.4C271.898 114.425 273.315 114.999 274.157 114.098C274.281 113.964 274.371 113.811 274.43 113.653C275.218 112.535 275.272 110.471 274.574 109.105Z" fill="#252622"/>
<path d="M294.796 138.37C291.363 141.462 287.058 144.342 282.495 145.401C276.218 146.856 270.184 142.759 266.29 138.177C264.987 136.643 263.436 134.817 262.381 133.125C262.227 132.877 261.97 132.853 261.766 132.942C261.727 132.917 261.687 132.892 261.638 132.877C259.943 132.417 257.778 133.496 256.035 133.64C254.801 133.743 253.562 133.773 252.329 133.832C251.764 133.862 250.164 134.194 249.396 134.001C249.302 133.664 248.841 133.476 248.578 133.768C248.36 133.857 248.207 134.08 248.251 134.307C248.554 135.886 244.1 141.838 242.336 143.234C238.616 146.173 233.914 148.152 229.213 146.816C223.382 145.164 217.798 141.418 212.735 138.197C208.98 135.807 205.68 132.912 202.604 129.706C201.593 128.647 200.473 126.856 199.22 125.856C199.349 126.534 199.527 127.207 199.755 127.885C202.817 136.92 210.342 144.035 218.779 148.152C239.998 158.499 264.798 162.229 286.478 151.032C294.429 146.92 301.043 139.854 304.898 131.794C305.859 129.795 306.632 127.736 306.944 125.599C303.05 130.013 299.141 134.456 294.796 138.37Z" fill="white"/>
<path d="M238.769 102.001C238.006 98.0522 229.044 99.5267 227.652 102.303C226.339 104.93 231.452 104.702 232.784 104.673C234.241 104.633 239.259 104.534 238.769 102.001Z" fill="white"/>
<path d="M276.416 103.659C277.744 103.619 282.866 103.555 281.405 101.007C279.859 98.3151 270.833 97.3403 270.293 101.328C269.946 103.887 274.96 103.704 276.416 103.659Z" fill="white"/>
<path d="M274.028 77.3986C261.176 76.3051 248.281 76.0082 235.395 76.5129C235.048 76.0478 247.924 129.047 248.647 133.841C248.727 134.381 249.445 134.257 249.584 133.817C254.027 133.272 258.466 133.173 262.935 133.52C263.133 133.535 263.371 133.356 263.411 133.159C265.09 124.776 274.151 77.2155 274.028 77.3986Z" fill="#DD751B"/>
<path d="M263.886 132.115C263.064 131.546 258.972 131.486 257.233 131.551C254.914 131.635 252.551 131.669 250.267 132.13C249.702 132.243 248.097 132.441 247.953 133.198C247.721 134.435 251.382 136.415 252.288 136.914C255.182 138.508 257.104 138.998 259.878 137.083C261.548 135.935 264.709 132.684 263.886 132.115Z" fill="#252622"/>
<path d="M288.688 176.191C288.618 185.88 289.139 195.622 287.89 205.266C286.79 213.737 285.606 223.01 282.455 230.996C282.287 231.422 282.114 231.842 281.92 232.258C278.987 238.616 276.476 242.817 272.795 246.904C265.373 255.148 257.977 262.961 252.131 272.352C252.131 272.352 250.129 227.854 244.184 203.361C238.239 178.868 227.439 150.664 227.439 150.664C227.439 150.664 255.827 150.417 257.868 150.664C259.627 150.877 281.405 147.206 287.266 146.211C287.568 146.641 287.816 147.092 287.984 147.572C288.831 149.962 288.46 152.995 288.519 155.469C288.678 162.376 288.737 169.284 288.688 176.191Z" fill="white"/>
<path d="M230.743 301.483C224.134 307.961 216.445 313.017 207.805 316.63C201.657 319.203 195.266 321.088 188.786 322.632C190.119 316.526 193.939 300.331 198.194 294.492C203.476 287.233 222.138 261.998 222.138 261.998C222.138 261.998 230.228 288.223 231.714 293.502C232.135 294.997 231.655 297.97 230.743 301.483Z" fill="white"/>
<path d="M225.804 334.911C225.62 330.76 221.83 328.563 218.194 327.716C215.519 327.093 212.759 327.029 210.03 326.831C209.559 326.796 209.083 326.762 208.613 326.717C204.892 326.435 201.181 326.069 197.476 325.623C195.44 325.381 193.403 325.109 191.377 324.817C192.849 323.689 194.241 322.358 195.529 320.873C201.697 313.817 205.729 303.248 206.071 294.406C206.601 280.601 202.915 267.266 193.483 257.281C184.867 248.161 169.643 244.45 156.936 245.539C144.595 246.593 133.542 253.515 128.429 264.945C124.882 272.877 123.252 281.877 123.163 290.532C123.094 297.306 124.382 304.663 129.787 309.275C130.054 309.503 130.366 309.508 130.619 309.384C131.1 309.983 131.58 310.581 132.061 311.175C133.413 312.848 134.761 314.52 136.103 316.197C137.753 318.266 139.393 320.349 141.003 322.452C141.107 322.585 141.211 322.724 141.315 322.857C142.469 324.372 143.52 325.906 143.599 327.885C143.663 329.369 143.203 330.834 143.118 332.308C142.975 334.659 143.787 336.668 145.457 338.33C149.356 342.209 155.915 344.08 161.028 345.643C167.275 347.553 173.73 348.672 180.25 349.082C184.511 349.349 188.984 349.602 193.483 349.577C201.662 349.547 209.931 348.632 217.149 345.307C221.162 343.456 226.027 339.879 225.804 334.911Z" fill="#F28E35"/>
<path d="M256.693 346.199C249.777 346.62 242.435 345.239 237.664 339.856C237.451 339.613 237.189 339.272 236.892 338.846C233.805 334.487 226.696 321.39 225.358 317.5C223.654 312.532 221.96 307.535 220.27 302.523C219.755 300.994 219.24 299.46 218.725 297.926C216.153 290.276 213.592 282.602 211.021 274.957C207.35 264.056 203.178 252.963 202.024 241.567C201.226 233.645 204.159 225.684 208.246 218.588C212.012 212.042 218.026 207.193 224.367 203.269C228.707 200.582 233.3 197.772 238.071 195.545C237.877 194.966 237.669 194.382 237.451 193.808C237.11 192.913 238.551 192.527 238.883 193.412C239.076 193.917 239.255 194.422 239.428 194.931C239.616 194.847 239.81 194.773 240.003 194.689C240.042 195.248 240.315 195.778 240.83 196.045C240.523 196.183 240.216 196.317 239.909 196.455C241.038 200.226 241.653 204.095 241.752 208.064C241.757 208.262 241.697 208.415 241.598 208.529C242.708 215.718 243.837 222.903 245.012 230.078C246.84 241.28 248.752 252.473 250.734 263.65C251.165 266.055 251.596 268.46 252.032 270.865C253.364 278.252 254.732 285.63 256.134 293.002C256.565 295.278 257.001 297.555 257.442 299.831C258.67 306.214 259.929 312.597 261.207 318.97C262.019 319.752 262.782 320.499 263.491 321.231C267.414 325.279 269.906 328.901 271.68 334.853C274.296 343.616 261.915 345.887 256.693 346.199Z" fill="#F28E35"/>
<path d="M132.076 92.3615C127.741 90.8227 123.683 94.4595 120.607 97.0078C119.765 97.7055 118.927 98.4031 118.085 99.1008C118.987 100.704 119.864 102.421 121.414 103.5C123.515 104.964 126.245 104.529 128.4 105.825C130.466 107.067 131.407 109.467 132.284 111.615C134.191 108.314 136.059 104.692 136.5 101.031C136.906 97.6362 135.573 93.5986 132.076 92.3615Z" fill="white"/>
<path d="M119.032 119.279C117.719 117.879 114.41 113.594 112.057 115.207C109.431 117.008 114.078 120.858 115.133 122.07C116.867 124.059 118.393 125.811 119.503 128.23C119.681 128.621 119.874 128.997 120.082 129.358C121.222 127.909 122.356 126.444 123.461 124.964C122.158 122.946 120.682 121.046 119.032 119.279Z" fill="#75481A"/>
<path d="M106.671 123.792C105.175 121.827 103.045 120.189 101.207 118.552C100.394 117.834 99.5819 117.127 98.7545 116.434C98.7496 116.434 98.7496 116.434 98.7496 116.434C97.5259 117.661 96.327 118.908 95.1479 120.175C97.0404 121.649 98.7991 123.089 100.523 124.786C101.801 126.043 103.461 127.824 105.279 128.245C108.148 128.908 107.84 125.33 106.671 123.792Z" fill="#75481A"/>
<path d="M93.5822 153.218C90.0895 150.986 86.2252 149.457 82.1826 148.561C81.8309 148.482 81.3256 148.665 81.2661 149.081C80.9689 151.303 82.9208 152.352 84.516 153.534C87.7115 155.904 90.907 158.28 94.1024 160.65C94.9001 161.243 95.7323 161.976 96.5894 162.639C97.1245 161.506 97.6893 160.392 98.2838 159.294C98.5711 158.759 98.8634 158.23 99.1607 157.706C97.397 156.097 95.6234 154.519 93.5822 153.218Z" fill="#75481A"/>
<path d="M91.1739 167.618C89.3557 166.331 87.2552 165.253 85.1694 164.461C83.6237 163.872 80.9881 164.149 81.9492 166.465C82.5388 167.885 84.5551 168.979 85.7738 169.741C87.8596 171.047 89.9948 172.309 92.13 173.541C92.2935 173.635 92.4471 173.734 92.6007 173.823C92.7147 173.318 92.8385 172.818 92.9772 172.319C93.2002 171.492 93.4479 170.676 93.7105 169.864C92.8831 169.097 92.0904 168.266 91.1739 167.618Z" fill="#75481A"/>
<path d="M76.247 194.599C74.7706 190.265 70.2524 187.42 65.8382 185.406C65.6747 185.891 65.5062 186.376 65.3279 186.856C64.9018 188.018 64.4312 189.156 63.9209 190.275C67.5721 192.328 71.3027 194.426 75.3305 195.515C75.8556 195.653 76.4352 195.149 76.247 194.599Z" fill="#75481A"/>
<path d="M60.0127 218.142C58.9674 218.003 50.3025 217.865 53.6862 220.859C54.2312 221.343 55.1676 221.507 55.8265 221.739C57.4812 222.328 59.1111 222.976 60.7162 223.694C62.3462 224.421 63.8869 225.332 65.4425 226.202C66.4531 224.446 67.5728 222.754 68.7668 221.101C66.0123 219.681 63.1239 218.558 60.0127 218.142Z" fill="#75481A"/>
<path d="M54.9002 238.762C53.1216 238.692 49.7577 238.207 48.5934 239.88C48.4448 240.088 48.4646 240.414 48.5934 240.627C49.4555 242.037 51.1746 242.651 52.7302 242.992C55.2271 243.542 57.7191 243.665 60.1912 244.373C60.2705 242.75 60.434 241.142 60.6767 239.553C58.7842 239.108 56.8571 238.836 54.9002 238.762Z" fill="#75481A"/>
<path d="M51.9568 264.896C46.5468 264.471 42.311 266.796 38.8877 270.26C39.0413 272.14 39.2592 274.01 39.5515 275.871C41.2112 274.302 43.0641 272.927 44.9615 271.675C47.6368 269.913 50.6291 268.627 52.6009 266.009C52.9675 265.52 52.4522 264.936 51.9568 264.896Z" fill="#75481A"/>
<path d="M66.1212 277.746C60.191 276.746 54.9792 283.515 52.626 288.127C51.0258 291.254 50.0201 294.634 49.3018 298.053C49.9953 298.805 50.7285 299.522 51.5014 300.21C52.4476 301.046 53.4434 301.833 54.4739 302.561C54.6572 300.428 54.573 298.177 54.9049 296.326C55.6183 292.313 57.7833 289.052 60.4735 286.064C61.712 284.693 63.0298 283.392 64.3278 282.076C65.3533 281.036 66.3986 280.156 66.6414 278.661C66.7008 278.295 66.5522 277.82 66.1212 277.746Z" fill="#75481A"/>
<path d="M70.2273 280.241C68.1664 282.008 66.3531 284.165 65.3078 286.332C64.5151 287.97 63.2023 293.561 66.8882 292.75C68.1961 292.458 69.0581 291.157 69.7418 290.098C71.124 287.975 72.5954 286.075 74.3096 284.219C72.8134 283.067 71.456 281.731 70.2273 280.241Z" fill="#75481A"/>
<path d="M101.023 307.95C100.017 304.279 100.076 300.736 99.9327 296.99C99.8782 295.659 99.6503 292.591 97.8965 292.294C96.8363 292.116 96.2319 293.032 95.8999 294.031C95.8702 294.09 95.8405 294.155 95.8207 294.234C95.8059 294.313 95.791 294.397 95.7712 294.476C95.7167 294.704 95.6671 294.927 95.6325 295.135C94.6862 299.895 94.7803 304.793 96.004 309.464C97.7083 309.068 99.3878 308.588 101.042 308.029C101.038 308.004 101.028 307.975 101.023 307.95Z" fill="#75481A"/>
<path d="M222.197 113.174C220.849 111.289 217.708 110.72 215.761 109.666C212.09 107.677 208.811 105.094 206.021 102.051C205.268 103.599 204.535 105.153 203.817 106.717C204.828 107.83 206.017 108.8 207.136 109.715C209.559 111.689 212.155 113.446 214.904 114.935C216.564 115.831 219.304 117.686 221.325 116.86C222.876 116.232 223.118 114.455 222.197 113.174Z" fill="#75481A"/>
<path d="M209.96 123.366C209.177 121.159 206.348 119.695 204.679 118.141C203.282 116.835 201.944 115.469 200.666 114.054C200.086 115.652 199.601 117.28 199.294 118.918C199.546 119.165 199.824 119.408 200.136 119.65C202.97 121.862 205.521 124.836 209.445 124.277C209.821 124.222 210.084 123.708 209.96 123.366Z" fill="#75481A"/>
<path d="M300.647 100.26C297.937 102.11 295.049 103.723 292.17 105.336C291.234 105.861 281.276 110.606 285.17 112.466C286.963 113.322 289.995 111.551 291.551 110.754C294.543 109.216 297.461 107.939 300.607 106.746C301.256 106.499 301.905 106.227 302.539 105.92C301.935 104.025 301.301 102.14 300.647 100.26Z" fill="#75481A"/>
<path d="M304.943 113.539C302.565 115.38 299.988 116.948 297.214 118.195C296.03 118.73 290.1 121.515 293.087 123.504C294.212 124.257 295.921 123.633 297.021 123.178C299.354 122.208 301.693 121.075 303.942 119.922C304.665 119.551 305.567 119.145 306.379 118.631C305.983 116.919 305.473 115.221 304.943 113.539Z" fill="#75481A"/>
<path d="M218.536 67.2503C212.759 69.2543 212.313 74.905 213.393 80.1747C214.884 76.2113 216.475 72.3864 221.013 71.095C224.713 70.041 229.242 70.5507 232.397 72.8714C228.563 68.7397 223.673 65.4641 218.536 67.2503Z" fill="#75481A"/>
<path d="M291.174 67.5774C287.884 66.7709 284.159 68.5175 281.414 70.1999C280.27 70.8976 279.2 71.6942 278.209 72.5799C280.334 71.3182 282.727 70.5463 285.259 70.6056C289.113 70.6947 293.111 72.9609 294.533 76.667C295.241 78.5226 295.236 80.9075 296.584 82.4018C298.11 76.9342 296.95 68.9926 291.174 67.5774Z" fill="#75481A"/>
<path d="M224.436 74.054C223 72.8912 221.028 73.1683 219.883 74.628C218.363 76.5726 218.724 79.6404 219.413 81.8472C219.571 82.3519 220.082 82.4558 220.458 82.2925C220.532 82.2925 220.607 82.2826 220.686 82.2529C222.192 81.7433 223.693 81.2089 225.18 80.6399C225.987 80.3281 226.963 80.0708 227.463 79.3088C228.737 77.384 225.68 75.0584 224.436 74.054Z" fill="white"/>
<path d="M291.125 77.037C290.476 74.6273 288.152 73.7663 285.849 74.083C283.317 74.4294 281.202 76.0722 280.102 78.3433C279.75 78.6946 279.76 79.4319 280.389 79.6249C282.42 80.2483 284.392 81.0054 286.309 81.9208C287.404 82.4453 288.514 83.1726 289.728 82.564C291.536 81.6684 291.576 78.7095 291.125 77.037Z" fill="white"/>
<path d="M241.647 133.679C236.654 132.061 231.407 132.501 226.27 131.784C225.333 131.655 224.932 133.085 225.873 133.214C231.001 133.931 236.277 133.501 241.251 135.109C242.163 135.406 242.554 133.976 241.647 133.679Z" fill="white"/>
<path d="M237.62 137.049C233.413 137.489 229.202 137.86 224.986 138.172C224.04 138.241 224.03 139.726 224.986 139.656C229.202 139.35 233.413 138.973 237.62 138.533C238.561 138.434 238.571 136.95 237.62 137.049Z" fill="white"/>
<path d="M283.376 128.443C278.63 130.22 273.884 131.996 269.138 133.777C268.251 134.109 268.633 135.544 269.534 135.207C274.281 133.431 279.027 131.655 283.773 129.873C284.659 129.542 284.278 128.107 283.376 128.443Z" fill="white"/>
<path d="M285.551 137.326C281.008 137.37 276.505 137.054 272.021 136.341C271.085 136.193 270.684 137.623 271.625 137.771C276.242 138.503 280.875 138.855 285.551 138.805C286.508 138.8 286.508 137.316 285.551 137.326Z" fill="white"/>
<path d="M282.777 154.005C278.982 156.079 275.222 158.236 271.377 160.215C267.196 162.373 263.128 163.229 258.432 163.204C253.914 163.179 249.49 163.041 245.239 161.348C241.231 159.75 237.302 157.905 233.349 156.178C232.477 155.797 231.768 157.103 232.645 157.484C236.901 159.344 241.127 161.408 245.487 163.026C249.668 164.58 254.072 164.664 258.486 164.688C262.831 164.713 266.73 164.105 270.674 162.219C275.073 160.116 279.294 157.593 283.569 155.257C284.412 154.797 283.614 153.545 282.777 154.005Z" fill="#F2E4CB"/>
<path d="M225.804 334.911C225.621 330.759 221.831 328.562 218.195 327.716C215.519 327.093 212.76 327.029 210.03 326.831C209.559 326.796 209.084 326.761 208.613 326.717C207.399 327.375 206.171 328.008 205.051 328.835C201.945 331.145 200.018 334.569 198.413 338.018C196.693 341.705 194.697 345.658 193.483 349.577C201.662 349.547 209.931 348.632 217.149 345.307C221.162 343.456 226.027 339.879 225.804 334.911Z" fill="white"/>
<path d="M271.679 334.851C269.906 328.898 267.414 325.276 263.49 321.229C262.37 321.674 261.325 322.327 260.295 322.936C257.912 324.346 255.519 324.861 252.878 325.548C249.039 326.543 245.695 328.621 242.856 331.358C240.755 333.381 238.258 336.068 236.891 338.844C237.188 339.269 237.451 339.611 237.664 339.853C242.435 345.237 249.777 346.617 256.693 346.197C261.915 345.885 274.295 343.614 271.679 334.851Z" fill="white"/>
<path d="M326.562 320.107C325.279 316.96 321.281 312.71 318.408 309.919C316.714 310.488 315.079 311.344 313.553 312.467C310.07 315.045 307.028 317.846 303.169 319.904C299.874 321.661 296.511 323.546 294.99 327.143C294.722 327.772 294.544 328.38 294.445 328.959C294.871 329.395 295.326 329.795 295.832 330.147C298.75 332.18 303.714 332.898 307.162 333.373C310.878 333.882 314.658 333.907 318.373 333.378C322.371 332.804 325.626 330.79 326.855 326.728C327.598 324.278 327.375 322.101 326.562 320.107Z" fill="white"/>
<path d="M218.358 340.587C213.474 338.504 208.316 338.009 203.124 339.167C202.193 339.375 202.584 340.805 203.521 340.597C208.297 339.534 213.102 339.949 217.61 341.869C218.477 342.24 219.235 340.963 218.358 340.587Z" fill="#F2E4CB"/>
<path d="M222.514 332.492C219.066 331.305 215.539 330.825 211.903 331.052C210.951 331.112 210.946 332.596 211.903 332.537C215.41 332.319 218.799 332.774 222.123 333.922C223.025 334.234 223.416 332.804 222.514 332.492Z" fill="#F2E4CB"/>
<path d="M260.166 340.36C258.353 336.49 254.741 334.125 251.159 332.052C250.332 331.572 249.579 332.853 250.411 333.333C253.79 335.293 257.174 337.46 258.883 341.107C259.284 341.978 260.567 341.221 260.166 340.36Z" fill="#F2E4CB"/>
<path d="M269.495 336.55C268.162 332.883 266.166 329.598 263.505 326.738C262.851 326.035 261.806 327.089 262.455 327.787C264.937 330.459 266.82 333.516 268.063 336.946C268.385 337.831 269.822 337.45 269.495 336.55Z" fill="#F2E4CB"/>
<path d="M315.37 329.755C314.359 327.914 313.304 326.202 311.635 324.886C310.044 323.629 308.206 322.783 306.368 321.957C305.502 321.566 304.748 322.847 305.62 323.238C307.28 323.986 308.969 324.738 310.436 325.836C312.09 327.068 313.111 328.726 314.087 330.507C314.548 331.338 315.831 330.591 315.37 329.755Z" fill="#F2E4CB"/>
<path d="M324.268 322.852C322.455 319.77 320.126 317.088 317.312 314.876C316.569 314.292 315.509 315.336 316.262 315.925C318.982 318.062 321.231 320.621 322.985 323.599C323.47 324.426 324.754 323.679 324.268 322.852Z" fill="#F2E4CB"/>
<path d="M212.482 175.366C208.399 170.235 204.035 165.327 199.418 160.666C197.352 158.583 195.236 156.544 193.066 154.565C189.91 156.445 186.725 158.246 183.569 160.087C189.579 163.654 195.37 167.588 200.478 172.383C204.065 175.752 207.106 179.607 210.322 183.318C211.877 185.114 213.359 187.029 215.211 188.528C216.059 189.216 220.8 192.418 221.062 189.973C221.647 184.644 215.449 179.097 212.482 175.366Z" fill="#75481A"/>
<path d="M183.654 179.78C181.023 176.831 178.14 174.109 175.197 171.472C174.142 170.527 172.834 169.052 171.402 167.85C171.259 167.949 171.12 168.048 170.981 168.152C169.361 169.339 167.766 170.562 166.195 171.814C169.024 174.169 171.635 176.816 174.38 179.236C176.52 181.126 178.7 182.971 180.914 184.777C182.881 186.386 184.784 187.969 187.275 188.667C187.721 188.79 188.242 188.434 188.217 187.949C188.033 184.619 185.784 182.165 183.654 179.78Z" fill="#75481A"/>
<path d="M156.237 193.228C157.902 194.599 163.842 200.012 166.151 197.622C168.682 194.995 162.128 189.537 160.741 188.033C158.814 185.94 156.822 183.891 154.781 181.902C153.062 183.579 151.377 185.296 149.742 187.058C151.754 189.26 153.919 191.328 156.237 193.228Z" fill="#75481A"/>
<path d="M211.823 156.944C209.96 154.426 207.82 152.12 205.581 149.938C204.694 149.077 203.797 148.236 202.886 147.395C201.558 148.666 200.126 149.844 198.64 150.932C199.923 152.085 201.231 153.223 202.351 154.545C205.234 157.944 207.716 160.833 211.838 162.763C212.234 162.951 212.586 162.842 212.854 162.496C214.31 160.606 213.037 158.592 211.823 156.944Z" fill="#75481A"/>
<path d="M157.421 245.88C155.301 242.941 151.689 240.888 148.687 238.993C144.615 236.425 140.825 233.619 137.263 230.373C133.478 226.929 129.856 223.292 126.349 219.566C126.294 219.507 126.24 219.453 126.185 219.393C124.521 222.362 122.94 225.38 121.449 228.438C122.311 229.126 123.183 229.76 123.921 230.358C131.253 236.301 138.808 241.971 146.487 247.459C149.138 249.354 152.482 252.12 156.014 251.219C158.739 250.527 158.893 247.914 157.421 245.88Z" fill="#75481A"/>
<path d="M132.219 250.434C131.615 248.41 128.033 246.762 126.418 245.723C123.138 243.61 119.616 241.497 116.817 238.771C115.92 240.943 115.068 243.13 114.26 245.337C114.34 245.436 114.424 245.535 114.508 245.629C116.321 247.658 118.764 249.35 121.082 250.75C123.812 252.403 126.646 252.725 129.807 252.507C131.154 252.418 132.749 252.195 132.219 250.434Z" fill="#75481A"/>
<path d="M138.145 282.585C136.158 279.928 132.903 278.606 130.07 277.077C126.621 275.217 123.302 273.114 120.146 270.789C116.237 267.909 112.596 264.683 109.252 261.169C108.296 264.772 107.449 268.413 106.735 272.075C112.061 277.76 117.952 281.585 125.393 284.514C128.871 285.88 133.136 287.647 136.956 286.82C139.383 286.296 139.507 284.406 138.145 282.585Z" fill="#75481A"/>
<path d="M168.46 221.61C166.716 227.216 150.689 213.188 148.455 211.481C144.61 208.537 140.706 205.623 136.594 203.074C138.224 200.808 139.914 198.577 141.667 196.399C144.764 198.972 147.702 201.758 150.615 204.549C154.023 207.825 157.417 211.135 161.068 214.153C163.04 215.781 165.388 217.087 167.285 218.789C168.073 219.497 168.816 220.462 168.46 221.61Z" fill="#75481A"/>
<path d="M295.866 242.956C294.419 244.356 292.913 245.697 291.347 246.979C289.113 248.809 286.77 250.497 284.342 252.05C282.648 253.139 280.954 254.069 280.032 255.94C279.819 256.375 279.998 256.875 280.478 257.028C282.975 257.81 285.194 256.608 287.419 255.544C290.485 254.079 293.483 252.481 296.411 250.754C296.673 250.601 296.965 250.442 297.278 250.274C296.757 247.84 296.287 245.4 295.866 242.956Z" fill="#75481A"/>
<path d="M279.255 268.172C279.131 267.771 278.745 267.568 278.338 267.652C274.761 268.429 271.492 269.928 268.346 271.769C267.687 272.155 266.805 272.575 265.918 273.06C266.646 274.891 267.4 276.712 268.172 278.523C270.61 277.479 272.909 276.143 275.019 274.49C276.847 273.06 280.077 270.863 279.255 268.172Z" fill="#75481A"/>
<path d="M302.971 272.196C300.459 273.606 297.932 274.982 295.386 276.328C290.64 278.836 285.611 281.162 282.644 285.853C282.331 286.348 282.743 286.951 283.283 286.971C286.23 287.075 288.901 285.091 291.393 283.755C294.737 281.964 298.076 280.167 301.42 278.376C302.401 277.852 303.407 277.342 304.407 276.813C303.917 275.274 303.436 273.735 302.971 272.196Z" fill="#75481A"/>
<path d="M256.134 293.002C253.993 293.991 251.883 295.045 249.812 296.183C247.731 297.321 245.69 298.529 243.694 299.805C242.614 300.498 240.662 301.27 240.102 302.502C239.998 302.73 239.933 303.036 240.102 303.254C241.301 304.823 243.996 303.897 245.7 303.625C249.01 303.101 252.23 302.156 255.311 300.839C256.03 300.533 256.748 300.201 257.441 299.83C257.001 297.554 256.565 295.278 256.134 293.002Z" fill="#75481A"/>
<path d="M230 292.79C226.166 294.333 222.41 296.06 218.724 297.926C219.24 299.46 219.755 300.994 220.27 302.522C221.519 302.028 222.787 301.276 223.738 300.86C226.314 299.747 228.866 298.569 231.323 297.208C232.611 296.496 233.869 295.739 235.088 294.912C235.792 294.442 236.99 293.908 237.412 293.141C239.398 289.504 230.803 292.468 230 292.79Z" fill="#75481A"/>
<path d="M250.734 263.65C245.621 266.317 240.751 269.41 236.148 272.908C235.579 273.338 235.732 274.259 236.52 274.293C238.962 274.387 241.34 273.715 243.704 273.185C246.275 272.606 248.846 271.973 251.338 271.107C251.571 271.028 251.804 270.949 252.032 270.864C251.596 268.46 251.165 266.055 250.734 263.65Z" fill="#75481A"/>
<path d="M178.774 235.352C177.972 234.828 177.224 236.114 178.026 236.634C193.132 246.456 203.154 263.096 204.734 281.033C204.818 281.978 206.305 281.988 206.22 281.033C204.591 262.547 194.35 245.481 178.774 235.352Z" fill="#DD751B"/>
<path d="M211.224 272.75C207.359 258.702 203.787 244.586 200.498 230.394C200.285 229.464 198.848 229.86 199.066 230.79C202.351 244.981 205.928 259.103 209.792 273.146C210.045 274.066 211.476 273.675 211.224 272.75Z" fill="#DD751B"/>
<path d="M188.529 324.556C184.595 326.515 180.26 326.782 175.945 327.03C171.362 327.292 166.78 327.47 162.192 327.584C161.236 327.609 161.236 329.093 162.192 329.068C167.379 328.94 172.571 328.752 177.748 328.405C181.741 328.138 185.65 327.638 189.277 325.837C190.134 325.412 189.381 324.13 188.529 324.556Z" fill="#DD751B"/>
<path d="M277.07 167.305C276.718 166.429 275.276 166.81 275.638 167.701C278.085 173.753 279.646 180.051 280.27 186.548C280.359 187.493 281.846 187.498 281.756 186.548C281.122 179.913 279.572 173.48 277.07 167.305Z" fill="#F2E4CB"/>
<path d="M278.571 188.523C278.353 186.87 278.135 185.217 277.917 183.565C277.793 182.63 276.307 182.62 276.431 183.565C276.649 185.217 276.867 186.87 277.085 188.523C277.208 189.458 278.695 189.468 278.571 188.523Z" fill="#F2E4CB"/>
<path d="M256.322 193.219V211.527C256.322 212.482 257.808 212.482 257.808 211.527V193.219C257.808 192.264 256.322 192.264 256.322 193.219Z" fill="#F2E4CB"/>
<path d="M260.503 210.784C260.404 214.742 260.305 218.701 260.206 222.659C260.181 223.614 261.667 223.614 261.692 222.659C261.791 218.701 261.89 214.742 261.989 210.784C262.014 209.829 260.528 209.829 260.503 210.784Z" fill="#F2E4CB"/>
<path d="M270.922 225.134C270.892 228.286 270.674 231.418 270.278 234.545C270.159 235.49 271.645 235.48 271.764 234.545C272.165 231.418 272.378 228.286 272.408 225.134C272.418 224.179 270.932 224.179 270.922 225.134Z" fill="#F2E4CB"/>
<path d="M243.857 171.195L243.376 177.38C243.302 178.335 244.788 178.33 244.862 177.38L245.343 171.195C245.417 170.24 243.931 170.245 243.857 171.195Z" fill="#F2E4CB"/>
<path d="M247.216 180.354C247.117 183.159 247.013 185.96 246.914 188.766C246.879 189.721 248.365 189.721 248.4 188.766C248.499 185.96 248.603 183.159 248.702 180.354C248.737 179.399 247.251 179.404 247.216 180.354Z" fill="#F2E4CB"/>
<path d="M265.596 144.718C264.516 146.509 262.411 147.627 260.3 147.083C258.046 146.504 257.377 143.887 256.817 141.902C256.817 141.833 256.822 141.764 256.817 141.699C256.758 140.749 255.272 140.745 255.331 141.699C255.331 141.724 255.331 141.754 255.331 141.784C255.311 141.878 255.311 141.977 255.331 142.085C255.237 144.263 253.344 147.053 251.066 147.024C249.049 146.999 247.028 145.821 246.443 143.837C246.171 142.922 244.739 143.313 245.012 144.233C245.849 147.063 248.836 148.755 251.739 148.483C253.676 148.305 255.326 146.613 256.188 144.698C256.976 146.613 258.165 148.256 260.454 148.622C263.06 149.037 265.556 147.667 266.884 145.465C267.375 144.649 266.091 143.901 265.596 144.718Z" fill="#DD751B"/>
</svg>
