<svg width="66" height="66" viewBox="0 0 66 66" fill="none" xmlns="http://www.w3.org/2000/svg">
<circle cx="33" cy="33" r="30" stroke="white" stroke-opacity="0.5" stroke-width="5"/>
<path fill-rule="evenodd" clip-rule="evenodd" d="M31.0255 21.2055C33.0733 19.1576 35.8494 18.005 38.7455 18C40.4243 18.0078 42.0736 18.4417 43.5387 19.2612C45.0039 20.0806 46.237 21.2587 47.1224 22.6851C47.2229 22.8722 47.2555 23.0884 47.2145 23.2969C47.1734 23.5053 47.0614 23.6931 46.8975 23.8282C46.6948 23.9705 46.4447 24.0286 46.2 23.9902C45.9552 23.9517 45.735 23.8197 45.5857 23.6221C44.8586 22.4669 43.8488 21.5165 42.6519 20.8606C41.4549 20.2047 40.1104 19.8652 38.7455 19.874C37.1034 19.8621 35.4889 20.2971 34.0751 21.1325C32.6613 21.9678 31.5014 23.1721 30.7196 24.6163C29.9378 26.0604 29.5636 27.6901 29.6372 29.3306C29.7107 30.9711 30.2292 32.5607 31.137 33.9292L38.277 44.7985C38.5981 45.3029 39.0746 45.6891 39.6345 45.8988C40.1944 46.1086 40.8074 46.1305 41.3808 45.9612C41.9543 45.7919 42.4571 45.4406 42.8133 44.9604C43.1696 44.4802 43.3599 43.8972 43.3556 43.2993C43.3556 43.0508 43.4543 42.8124 43.63 42.6367C43.8058 42.461 44.0441 42.3623 44.2926 42.3623C44.5411 42.3623 44.7795 42.461 44.9552 42.6367C45.1309 42.8124 45.2296 43.0508 45.2296 43.2993C45.2453 44.3061 44.9321 45.2906 44.3378 46.1035C43.7434 46.9163 42.9001 47.5131 41.9359 47.8034C40.9717 48.0938 39.9391 48.0617 38.9947 47.7122C38.0504 47.3627 37.2457 46.7148 36.7028 45.8667L29.5816 34.8662C28.4274 33.1002 27.8151 31.0352 27.82 28.9255C27.8249 26.0294 28.9776 23.2534 31.0255 21.2055ZM39.305 37.9988C38.1955 36.8893 37.57 35.386 37.5651 33.8169C37.5551 32.6462 37.8914 31.4986 38.5316 30.5184C39.1717 29.5381 40.0872 28.7689 41.1632 28.3073C40.8233 27.6295 40.2639 27.0869 39.5761 26.7679C38.8884 26.4489 38.1128 26.3722 37.3759 26.5505C36.639 26.7287 35.9842 27.1514 35.5183 27.7495C35.0524 28.3476 34.8028 29.0858 34.8102 29.844C34.8102 30.0925 34.7115 30.3308 34.5358 30.5065C34.3601 30.6823 34.1217 30.781 33.8732 30.781C33.6247 30.781 33.3864 30.6823 33.2107 30.5065C33.0349 30.3308 32.9362 30.0925 32.9362 29.844C32.9392 28.5474 33.4222 27.2978 34.2919 26.3363C35.1617 25.3747 36.3566 24.7692 37.6464 24.6365C38.9362 24.5038 40.2294 24.8533 41.2767 25.6176C42.3241 26.3819 43.0513 27.507 43.3183 28.7758C43.3637 29.0162 43.3151 29.2649 43.1826 29.4706C43.0502 29.6763 42.8438 29.8233 42.6062 29.8814C41.6478 30.1116 40.8064 30.6835 40.2397 31.4899C39.673 32.2962 39.4199 33.2817 39.528 34.2613C39.6361 35.2409 40.0979 36.1475 40.8267 36.8109C41.5556 37.4744 42.5015 37.8491 43.487 37.8648C43.7355 37.8648 43.9738 37.9635 44.1495 38.1392C44.3252 38.3149 44.424 38.5533 44.424 38.8018C44.4192 39.0488 44.3189 39.2843 44.1442 39.459C43.9695 39.6337 43.734 39.734 43.487 39.7388C41.9179 39.7339 40.4145 39.1084 39.305 37.9988ZM25.4965 34.8674C25.6238 34.868 25.7497 34.8416 25.866 34.7899C25.9823 34.7382 26.0863 34.6624 26.1712 34.5676C26.2584 34.4821 26.3278 34.38 26.3751 34.2674C26.4224 34.1547 26.4468 34.0338 26.4468 33.9116C26.4468 33.7895 26.4224 33.6685 26.3751 33.5559C26.3278 33.4433 26.2584 33.3412 26.1712 33.2557C24.886 32.0131 24.1449 30.3123 24.1098 28.525C24.0746 26.7377 24.7484 25.0091 25.9838 23.717C26.0796 23.6308 26.1567 23.5257 26.21 23.4084C26.2634 23.2911 26.2921 23.164 26.2941 23.0351C26.2961 22.9062 26.2716 22.7783 26.2219 22.6593C26.1723 22.5404 26.0986 22.4329 26.0055 22.3438C25.9125 22.2546 25.802 22.1855 25.681 22.141C25.5601 22.0964 25.4312 22.0773 25.3025 22.0848C25.1738 22.0924 25.0481 22.1264 24.9331 22.1847C24.8182 22.243 24.7165 22.3245 24.6345 22.4239C23.0528 24.0722 22.1901 26.2809 22.2357 28.5649C22.2814 30.8488 23.2318 33.0213 24.8781 34.605C25.0437 34.7675 25.2646 34.8612 25.4965 34.8674ZM22.949 20.9523C22.8956 21.0697 22.8186 21.1747 22.7227 21.2609C20.8904 23.1482 19.8682 25.6768 19.8742 28.3072C19.8681 29.5604 20.1176 30.8016 20.6074 31.9552C21.0971 33.1087 21.8169 34.1502 22.7227 35.0162C22.8105 35.1033 22.8802 35.207 22.9278 35.3212C22.9754 35.4353 22.9999 35.5578 22.9999 35.6815C22.9999 35.8052 22.9754 35.9277 22.9278 36.0419C22.8802 36.156 22.8105 36.2597 22.7227 36.3468C22.6355 36.4373 22.5306 36.509 22.4146 36.5573C22.2985 36.6057 22.1738 36.6297 22.0481 36.6279C21.9294 36.6315 21.8113 36.61 21.7015 36.5648C21.5917 36.5195 21.4926 36.4516 21.4109 36.3655C20.3249 35.3244 19.4624 34.0729 18.876 32.6875C18.2896 31.302 17.9916 29.8116 18.0002 28.3072C17.9961 25.1943 19.2063 22.2025 21.3734 19.9678C21.4555 19.8684 21.5571 19.787 21.6721 19.7286C21.787 19.6703 21.9128 19.6363 22.0415 19.6288C22.1702 19.6213 22.299 19.6404 22.42 19.6849C22.5409 19.7295 22.6514 19.7985 22.7445 19.8877C22.8375 19.9769 22.9112 20.0843 22.9609 20.2033C23.0105 20.3222 23.0351 20.4502 23.033 20.5791C23.031 20.7079 23.0024 20.835 22.949 20.9523Z" fill="white"/>
</svg>
