<svg xmlns="http://www.w3.org/2000/svg" width="406" height="495" fill="none" viewBox="0 0 406 495"><circle cx="139" cy="139" r="139" fill="#EB3136"/><path fill="#472B0D" d="M382.378 474.653s1.83 10.519 2.489 11.177c.658.657 6.143-5.588 6.143-5.588s6.021 4.058 6.824 4.058c.803 0-.241-11.4-.241-11.4s-6.802-2.774-8.119-2.555c-1.316.219-7.096 4.308-7.096 4.308Zm-48.855 4.867s-.733 9.16 0 9.747c.733.583 7.535-3.506 7.535-3.506s3.366 3.726 5.121 4.238c1.755.513 2.269-10.475 2.269-10.475s-4.095-3.331-5.047-3.182c-.957.141-9.878 3.178-9.878 3.178Zm-92.01 5.946s.878 8.911 1.317 9.13c.439.219 5.266-3.581 5.266-3.581s5.266 3.37 5.924 3.213c.658-.158.439-8.766.439-8.766l-8.702-3.362-4.244 3.366Zm-50.027-3.8s-.658 8.253.365 8.402c1.022.145 5.56-2.848 5.56-2.848s4.094 3.944 4.827 3.431c.733-.512 1.391-8.546 1.391-8.546s-5.766-2.336-6.174-2.336c-.409 0-5.969 1.897-5.969 1.897Z"/><path fill="#F29F33" d="M387.53 289.989s2.747 26.004-6.03 63.697c-2.975 12.785-.948 24.251 2.453 29.804 3.401 5.553 13.639 89.411 13.639 89.411l-15.214 1.754s-12.858-67.497-19.3-82.982-14.96-38.57-15.969-39.446c-1.009-.877 12.45-41.783 14.499-45.876 2.045-4.09 25.922-16.362 25.922-16.362Zm-198.238-21.664s4.389 100.846 4.389 103.625c0 2.779-2.195 109.717-2.195 109.717l12.143.439s18.15-97.586 19.164-110.156c1.009-12.57 3.072-63.504 3.072-63.504l-28.086-55.273-8.487 15.152Z"/><path fill="#FFCB5C" d="M379.745 325.928c-.25.267-.781.552-1.566.859-.299.118-.637.232-1.001.355-11.295 3.625-53.414 7.666-81.688 8.647-31.223 1.083-69.946 4.304-88.851-25.434a52.543 52.543 0 0 1-.671-1.082c-8.992-14.898-16.101-31.014-22.104-46.516-6.446-16.651-11.629-32.609-16.513-45.613-9.435-25.114-36.094-80.063-36.094-80.063l6.968-28.107 10.019-12.873s1.071 6.43 6.284 18.505c1.738 4.028 3.936 8.678 6.71 13.933 2.624 4.966 5.762 10.466 9.509 16.48a269.41 269.41 0 0 0 1.87 2.963 417.613 417.613 0 0 0 5.525 8.419 402.108 402.108 0 0 0 12.155 17.072 350.27 350.27 0 0 0 7.07 9.059c3.528 4.37 6.982 8.415 10.304 12.071 3.848 4.242 7.517 7.963 10.909 11.075 4.459 4.094 8.443 7.136 11.743 8.924.351.188.729.381 1.128.574 3.594 1.74 9.097 3.594 15.649 5.461 7.499 2.139 16.372 4.287 25.307 6.29a1026.736 1026.736 0 0 0 16.891 3.62 1579.481 1579.481 0 0 0 21.331 4.216c.474.092.961.184 1.457.272 4.661.872 10.142 1.81 15.974 2.985 9.395 1.889 19.712 4.383 28.98 8.17 5.508 2.248 10.651 4.952 15.008 8.257 4.226 3.204 7.724 6.973 10.111 11.435 1.29 2.406 2.308 4.961 3.098 7.604 6.455 21.652-2.58 49.317-5.512 52.442Z"/><path fill="#FFCB5C" d="M148.244 96.102c-.263-3.923-1.601-7.31-3.993-10.418-1.567-2.034-4.156-5.067-4.726-7.609-.343-1.534.162-3.673.206-5.255a91.66 91.66 0 0 0 .017-5.623c-.052-1.762-.469-4.16-2.733-4.147-2.598.01-3.818 3.3-4.323 5.339-.68 2.752-1.435 10.124-1.435 10.124l-13.713.11s-1.4-7.438-2.392-10.708c-.535-1.775-.851-4.225-3.116-4.444-1.931-.188-3.142 1.39-3.585 3.064a.55.55 0 0 0-.228.504c.241 5.373.434 10.913-1.189 16.046-1.637 2.673-3.612 5.154-5.135 7.902-5.02 9.064.641 18.25 3.072 27.047 1.356 4.9 2.414 11.058 4.121 16.686 1.026 3.375 2.286 6.561 3.989 9.173 4.269 6.548 14.569 7.105 20.041 1.46 2.348-2.424 3.901-7.232 5.104-10.936.241-.754.469-1.459.689-2.09 3.914-11.313 10.159-23.988 9.329-36.225Z"/><path fill="#FFCB5C" d="M97.647 74.582c-2.826-2.156-12.02-7.087-12.876-.548-.803 6.136 4.516 11.68 9.44 14.38 2.505 1.373 5.977 3.152 8.912 2.24 1.47-.456 2.572-1.617 2.888-3.01.048-.014.097-.027.145-.049 3.001-1.385-7.04-11.89-8.51-13.013Zm43.475 11.701c.048.022.096.04.145.048.32 1.39 1.421 2.556 2.887 3.011 2.936.908 6.407-.867 8.913-2.24 4.924-2.7 10.242-8.243 9.439-14.38-.855-6.543-10.053-1.612-12.875.548-1.47 1.118-11.511 11.624-8.509 13.013Z"/><path fill="#252622" d="M111.738 97.127a2.069 2.069 0 0 0-.549-.745c-1.641-1.367-2.155 1.758-2.159 2.748-.004.557.075 1.135.39 1.591.316.456.922.75 1.444.561.391-.14.658-.504.838-.881a3.888 3.888 0 0 0 .119-3.063 1.078 1.078 0 0 0-.083-.21Zm26.141-.584a2.057 2.057 0 0 0-.549-.745c-1.641-1.367-2.155 1.758-2.159 2.748-.004.557.075 1.135.391 1.591.316.456.921.75 1.443.561.391-.14.659-.504.839-.88.456-.947.5-2.082.118-3.064a1.08 1.08 0 0 0-.083-.21Z"/><path fill="#F29F33" d="m131.257 78.513-2.668 51.937h-8.592l-2.453-51.828 13.713-.11Z"/><path fill="#fff" d="M127.308 129.118c-4.191-.46-9.505-.263-13.327 1.744-1.72.903-3.594 2.214-4.889 3.857 1.027 3.375 2.287 6.562 3.989 9.174 4.27 6.548 14.569 7.105 20.041 1.459 2.348-2.423 3.901-7.231 5.104-10.935-2.949-2.897-6.675-4.83-10.918-5.299Z"/><path fill="#F2E4CB" d="M131.449 141.385c-3.589 4.817-11.466 3.792-14.937-.486-.356-.438-.974.184-.619.618 3.879 4.786 12.41 5.553 16.316.311.337-.451-.426-.89-.76-.443Zm-12.107-8.48c-1.904-.758-1.321 3.234-.412 3.953.219.171.487.254.737.211 1.554-.285.746-3.739-.325-4.164Zm8.597-.276c1.905-.758 1.321 3.234.413 3.953-.22.171-.487.254-.738.211-1.553-.281-.746-3.739.325-4.164Z"/><path fill="#B36024" d="M114.204 63.97c-.294-.88-.465-2.112-1.048-2.862-.505-.644-1.286-.657-2.045-.666-.935-.009-2.445-.04-3.296.465-.772.46-.676 1.306-.676 2.116.005 1.495 1.128 5.045 1.128 5.045s3.059-.315 4.028-.53c.716-.158 2.633-.425 2.633-.425s-.5-2.468-.724-3.143Zm18.822 3.261s2.137-.293 2.857-.131c.969.215 3.887.969 3.887.969s.821-3.989.825-5.483c0-.811.101-1.657-.675-2.117-.852-.509-2.361-.474-3.296-.465-.763.004-1.54.022-2.045.666-.583.75-.755 1.977-1.049 2.862-.223.675-.504 3.7-.504 3.7Z"/><path fill="#fff" d="M100.662 83.137c-1.755-2.831-5.143-5.799-8.259-7.048-.886-.355-1.988-.705-2.51.263-.654 1.21.413 2.748 1.115 3.704 2.093 2.831 4.485 6.167 8.008 7.267.799.25 1.826.21 2.383-.517.851-1.114-.127-2.692-.737-3.669Zm45.226 2.915c.557.727 1.579.767 2.382.517 3.524-1.1 5.916-4.44 8.009-7.267.706-.956 1.768-2.494 1.115-3.704-.523-.968-1.624-.618-2.511-.263-3.115 1.245-6.503 4.217-8.258 7.048-.606.973-1.589 2.551-.737 3.669Zm232.291 240.735c-.298.118-.636.232-1 .355-11.296 3.625-53.415 7.666-81.689 8.648-31.223 1.082-69.945 4.304-88.85-25.435a57.323 57.323 0 0 1-.672-1.082c-8.991-14.898-16.1-31.014-22.103-46.516 2.654-.579 7.372.276 15.74 5.536 17.773 11.176 33.132 30.461 41.689 31.776 8.558 1.315 24.575-18.189 45.858-17.094 21.284 1.096 29.183 17.751 40.592 22.792 9.001 3.975 38.332 15.857 50.435 21.02Z"/><path fill="#FFCB5C" d="M199.605 265.883s16.456 46.021 18.212 49.965c1.755 3.945 12.726 80.646 13.603 85.467.878 4.821 9.435 84.152 10.094 84.152h12.945s2.194-88.097 2.194-94.013c0-5.917 1.317-103.875 1.317-103.875l-50.905-29.147-7.46 7.451Zm118.12 26.152s-7.315 35.357 0 58.148c7.316 22.791 13.459 39.153 15.798 44.999 2.339 5.843 0 84.341 0 84.341h14.92s13.46-78.205 15.215-91.936c1.755-13.732-.584-23.374 2.049-32.434 2.633-9.059 14.043-29.221 14.043-29.221s-7.315-24.838-9.948-27.174c-2.633-2.336-52.077-6.723-52.077-6.723Zm76.388-8.289c-2.321-6.6-5.551-12.921-10.001-18.347-4.937-6.022-11.361-10.536-17.711-14.937-.465-.324-.922.43-.457.75 3.493 2.419 13.525 18.807 16.852 24.106 3.673 5.847 6.582 12.119 8.877 18.627 4.441 12.592 6.438 25.789 8.553 38.929.079.482 1.51.276 1.462-.219-1.536-16.431-2.045-33.178-7.575-48.909Z"/><path fill="#472B0D" d="M401.41 330.407c-.079-.114-.176-.201-.298-.219-.172-.022-.632.403-.505.447a.403.403 0 0 0-.149-.031.52.52 0 0 0-.154.031c-.272.105-.382-.022-.531.298-.864 1.854-1.417 3.971-1.803 5.974a27.475 27.475 0 0 0-.448 6.951c.123 1.938.443 3.866.97 5.738.346 1.24.592 2.735 1.904 3.204.347 1.595 1.106 3.962 2.774 3.506 1.869-.513 1.79-4.422 1.917-5.878a38.165 38.165 0 0 0-.983-12.443c-.395-1.608-.851-3.204-1.435-4.755a24.748 24.748 0 0 0-.987-2.279c-.079-.141-.153-.373-.272-.544Z"/><path fill="#B36024" d="M154.528 114.606a56.211 56.211 0 0 0-2.607 7.065c-.452 1.539-1.246 3.664-.246 5.168 1.058 1.599 3.889 1.521 5.582 1.652 1.321.105 2.655.118 3.981.048-2.774-5.255-4.972-9.905-6.71-13.933Zm5.643 23.782c-.487-1.144-.887-3.164-2.036-3.874-1.707-1.057-5.788.39-6.657 2.152-.86 1.735-.316 3.874.307 5.592.426 1.175 1.457 4.484 2.962 4.673.237.03.474-.022.706-.075 2.493-.557 5.328-.907 6.236-3.629.29-1.578-.935-3.467-1.518-4.839Zm12.446 9.593c-.641-.999-1.264-1.99-1.87-2.963a232.258 232.258 0 0 0-5.112 4.383c-1.812 1.613-2.427 3.252-2.128 5.68.311 2.529.689 5.733 1.786 8.052.719 1.525 1.742 1.569 3.146.995 2.207-.894 4.753-.132 6.609-1.907 1.562-1.486 2.317-3.813 3.094-5.82a417.706 417.706 0 0 1-5.525-8.42Zm9.686 32.129c-.294-1.727-2.252-2.454-3.577-3.292-1.865-1.179-3.897-2.752-6.196-2.853-1.427-.061-2.151.452-2.581 1.771-.772 2.38-.926 5.088-.838 7.622-.136 1.082.092 1.972 1.216 2.691 1.869 1.192 4.586 2.822 6.828 3.103 3.603.443 5.604-6.351 5.148-9.042Zm2.637-13.93c-.18.312-.352.618-.518.934-.694 1.289-1.843 2.958-1.725 4.514.22 2.797 3.897 2.512 5.88 2.179.527-.092 1.128-.189 1.721-.333a385.387 385.387 0 0 1-5.358-7.294Zm12.427 16.353c-1.79.929-2.444 2.673-2.962 4.694-.733 2.849-1.228 5.746-1.54 8.665-.281.705-.325 1.328-.18 1.88v.018a.367.367 0 0 0 .119.32c1.246 2.91 7.955 3.602 10.378 3.607 2.997.004 3.559-.553 3.993-3.463.18-1.205.351-2.424.496-3.651-3.322-3.655-6.776-7.701-10.304-12.07Zm-9.712 19.832c-1.057-2.88-2.11-6.649-5.998-5.067-1.132.46-2.449 1.127-2.585 2.442-.079.762.356 1.713.553 2.45.351 1.314.957 2.586.974 3.957.009.693.014 1.425.378 2.017.658 1.06 2.097.587 3.085.442 1.189-.18 4.023-.368 4.752-1.569.746-1.223-.733-3.511-1.159-4.672Zm25.782 16.489c-1.273-1.959-3.476-2.73-5.569-3.519a68.256 68.256 0 0 0-4.88-1.631c-1.189-.346-2.602-.96-3.866-.907-2.391.101-2.813 3.721-3.251 5.496-.896 3.62-1.168 7.341-.926 11.058.004.07.022.132.052.189-.057 3.164 1.233 6.407 3.963 8.13 2.133 1.35 4.796.074 7.004-.5 1.821-.473 3.651-.933 5.459-1.459.846-.246 1.597-.439 2.04-1.245.417-.758.377-1.985.483-2.809.215-1.714.447-3.428.636-5.146.281-2.59.334-5.382-1.145-7.657Zm16.886-4.251c-3.3-1.788-7.285-4.83-11.743-8.923a43.187 43.187 0 0 0-.72 3.41c-.276 1.648-.767 3.488.659 4.716.991.854 2.431 1.407 3.572 2.046 1.465.824 2.905 1.758 4.423 2.481 1.474.706 2.207.504 3.203-.767a34.268 34.268 0 0 0 1.734-2.389c-.4-.192-.777-.385-1.128-.574Zm12.74 32.696c-.145-1.902-.285-3.804-.43-5.711-.171-2.27.11-5.562-1.475-7.455-1.456-1.74-4.217-1.613-6.275-1.766a88.844 88.844 0 0 0-5.722-.246c-.996-.013-2.357-.254-3.248.347-1.729 1.165-1.592 5.092-1.794 6.946-.373 3.41-.4 6.833-.136 10.248a11.51 11.51 0 0 0-.15 2.704c.014.237.189.438.439.438a67.752 67.752 0 0 0 10.365-.85 64.35 64.35 0 0 0 5.24-1.074c.781-.193 2.594-.359 3.147-1.118.425-.582.083-1.853.039-2.463Zm-28.88-.044c-1.198-1.376-3.414-2.077-5.182-2.204-1.642-.118-1.918.64-2.62 2.064-.641 1.298-1.545 2.7-2.102 4.155-.847 1.249-1.624 2.77-.672 4.19.983 1.464 3.415 1.981 5.003 2.293 1.374.267 4.555.933 5.745.026 1-.763.873-4.107.939-5.268.105-1.797.149-3.814-1.111-5.256Zm32.917-26.618c-.184 1.964-.233 3.932.057 5.773.5 3.16 2.348 3.164 5.126 3.09 2.479-.07 4.809-.097 7.065 1.109 1.443.771 2.699 1.875 4.261 2.428 3.076 1.091 4.551-1.425 6.455-3.502.79-.859 1.575-1.731 2.343-2.608-8.934-2.003-17.807-4.151-25.307-6.29Zm30.091 23.23c-1.69-1.941-3.66-4.216-6.346-4.641-2.782-.443-6.402.175-9.084.999-1.593.491-4.173 1.315-4.125 3.357.04 1.513.839 3.244 1.242 4.677.702 2.49.615 5.987 3.809 6.553 2.436.433 4.942-.719 6.732-2.28 1.593-1.389 2.844-2.586 4.88-3.296 1.303-.451 2.742-.736 3.919-1.503 1.895-1.24.127-2.533-1.027-3.866Zm-31.759 26.004c-.421-1.95-1.022-4.518-2.453-6.03-2.619-2.775-8.298-.448-11.128.824-2.01.902-2.607 1.349-2.379 3.585.259 2.533.729 5.044 1.303 7.525a8.237 8.237 0 0 0 .211 1.872c.04.175.241.337.421.32 2.883-.215 5.758-.535 8.615-.986 1.487-.237 4.721-.154 5.63-1.609.873-1.372.101-4.024-.22-5.501Zm-25.698 1.766c-.311-1.779-2.049-2.59-3.533-3.309-.877-.425-1.878-1.065-2.773-.469-1.242.829-1.992 3.901-2.449 5.273-.505 1.512-2.449 6.719-1.027 7.942 1.089.938 2.686.499 3.989.513.983.008 2.287.197 3.239-.101 1.615-.504 1.567-2.569 1.83-3.958.329-1.788 1.045-4.059.724-5.891Zm90.896-36.874a1579.239 1579.239 0 0 1-21.332-4.216 21.124 21.124 0 0 0-1.075 2.073c-1.461 3.278-.101 6.079 1.268 9.125.817 1.819 1.484 3.862 2.511 5.566.469.781.974 1.342 1.961 1.381 1.299.053 2.857-.955 3.998-1.451l6.196-2.695c2.023-.881 4.279-1.604 6.197-2.691 1.105-.631 1.32-1.017 1.505-2.275.219-1.468.21-3.024.228-4.545-.496-.088-.983-.18-1.457-.272Zm-20.38 22.09c-1.347-1.122-2.9-2.279-4.726-2.318-1.931-.04-3.265 1.253-4.375 2.678-1.172 1.499-2.277 3.081-3.181 4.76a.685.685 0 0 0-.058.061c-2.755 3.839 2.12 4.462 5.038 4.33 2.168-.096 4.037-.924 5.731-2.266 1.132-.894 3.287-2.502 3.805-3.883.561-1.499-1.233-2.529-2.234-3.362Zm36.967 2.43a53.43 53.43 0 0 0-2.009-4.628c-.58-1.175-1.137-2.599-2.274-3.362-.939-.631-2.053-.614-3.142-.618a65.448 65.448 0 0 0-6.003.267c-1.926.171-5.147.097-6.267 1.999-.767 1.306-.364 3.292-.333 4.725.083 3.962-.935 7.6 3.081 9.927 1.632.942 3.295 1.88 4.972 2.735.816.416 1.619.864 2.571.745 1.128-.136 2.028-1.021 2.875-1.692 1.571-1.244 3.137-2.494 4.708-3.743.847-.67 2.471-1.468 2.809-2.603.338-1.135-.601-2.735-.988-3.752Zm.842-21.262c.435 1.994.948 4.448 2.159 6.118.966 1.328 2.418 1.653 3.902 2.13 2.935.951 4.362 2.692 6.121 5.08 2.309 3.13 6.451.842 9.22-.464a39.643 39.643 0 0 0 7.579-4.694c-9.268-3.787-19.585-6.281-28.981-8.17Zm28.894 38.2c-.509-1.867-1.497-3.747-2.212-5.544-.948-2.376-1.602-5.553-4.112-6.776-2.418-1.179-5.608-.618-8.145-.285-.776.101-1.676.118-2.251.723-.908.96-.978 2.998-1.185 4.221-.439 2.617-.395 5.273-.456 7.911-.04 1.604-1.031 5.575.952 6.474.961.434 2.594-.215 3.55-.412a72.28 72.28 0 0 0 10.927-3.156c.834-.311 2.287-.631 2.844-1.459.404-.605.263-1.048.088-1.697Zm25.206-10.338c-2.388-4.462-5.885-8.231-10.111-11.435a224.364 224.364 0 0 0-3.677 2.783c-1.549 1.201-3.349 2.143-3.599 4.225-.355 2.95.799 6.272 1.883 8.946.504 1.249 1.071 2.467 1.65 3.681.425.881.812 2.117 1.667 2.705.72.491 1.387.368 2.212.254 1.602-.215 3.203-.614 4.788-.925 1.597-.315 3.19-.635 4.783-.964 1.009-.21 2.198-.346 3.006-1.074.197-.175.36-.377.496-.592-.79-2.643-1.808-5.198-3.098-7.604Zm-6.635 29.763c-.013-2.108.259-5.071-.72-7.03-.978-1.955-3.449-2.985-5.393-3.664-1.308-.456-3.625-1.661-4.81-.552-.623.583-.816 2.274-1.066 3.085-1.365 4.449-3.616 10.072 2.256 11.199 2.668.512 5.612.837 8.315.46 1.892-.259 1.427-1.819 1.418-3.498Zm-27.462 2.744c-.07-1.591.483-4.212-1.145-5.15-2.028-1.161-5.016-1.262-7.294-1.402-1.847-.114-4.212-.715-5.432.995-1.102 1.547-1.844 3.318-2.55 5.071-.847 2.095-2.515 5.023.448 6.101 1.974.719 4.287.421 6.345.399a98.216 98.216 0 0 0 5.205-.189c1-.061 2.852.145 3.756-.39 1.593-.942.733-3.971.667-5.435Zm20.3 13.044c-.254-1.311-.474-4.146-1.817-4.931-.693-.403-2.11-.153-2.821-.131-1.312.044-2.624.118-3.928.28-1.536.189-2.479.609-2.843 2.2-.549 2.424-.509 5.242.544 7.53 1.255 2.731 3.603 2.117 6.148 1.815 1.404-.167 4.221-.018 5.086-1.223.82-1.157-.11-4.212-.369-5.54Zm-17.286 5.177c-.109-.5-.842-.964-1.185-1.293-.868-.841-1.733-1.692-2.606-2.529-.821-.784-1.821-1.788-3.111-1.753-.659-.206-1.308-.342-1.918.149-1.005.802-1.259 2.735-1.571 3.87-.746 2.696-1.365 6.04 2.44 5.172 2.08-.473 4.125-1.179 6.091-2.007.732-.312 2.097-.561 1.86-1.609Zm-115.645-29.827c-1.176-1.052-3.107-1.249-4.563-1.595-1.234-.294-2.655-.851-3.744.083-1.053.903-1.316 2.972-1.566 4.208-.435 2.152-.536 4.326-.391 6.513a6.935 6.935 0 0 0-.013.859c.009.254.193.412.439.438 2.387.254 4.766.254 7.148-.083 1.005-.141 1.668-.189 2.221-1.052.948-1.486 1.167-3.901 1.365-5.619.149-1.394.228-2.748-.896-3.752Zm31.359-17.185c.075-1.512.246-2.962-1.172-3.878-.947-.614-2.132-.973-3.168-1.421-.706-.302-1.509-.788-2.295-.854-1.062-.092-1.676.591-1.716 1.621-.043 1.087.259 2.205.352 3.288.008.083.021.197.039.337-1.031 2.047-1.54 4.291 1.553 4.799 1.225.202 2.515.189 3.752.145.531-.022 1.387.083 1.874-.202 1.141-.67.728-2.748.781-3.835Z"/><path fill="#F29F33" d="M146.923 108.856c-.32 4.449-2.589 8.266-4.27 12.299-1.685 4.045-2.606 8.402-3.738 12.622-.145.544.702.781.846.233 1.255-4.677 2.309-9.441 4.288-13.877 1.637-3.668 3.462-7.205 3.752-11.277.039-.561-.838-.557-.878 0Zm91.115 266.218c-.786-1.276-2.216-1.96-3.563-1.035-1.642 1.127-2.054 3.914-2.12 5.72-.039 1.144-.132 3.993 1.681 3.997 2.242.005 2.071-3.23 1.957-4.51-.053-.561-.737-.789-.847-.232-.075.386.026.876.004 1.267-.048.924-.166 2.384-1.07 2.358-.904-.027-.882-1.854-.843-2.876a10.9 10.9 0 0 1 .277-2.06c.149-.635.232-1.314.557-1.897.417-.741 1.501-1.32 2.286-1.061 1.738.583 1.861 4.085 1.79 5.487-.07 1.363-.324 2.722-.825 3.998-.28.714-.658 1.507-1.18 2.077-1.018 1.113-2.106 1.552-3.326.657-1.755-1.288-1.975-5.798-1.804-8.441.035-.565-.842-.561-.877 0-.171 2.59.004 11.983 5.138 9.585 4.024-1.88 4.88-9.611 2.765-13.034Zm83.404-88.811a134.93 134.93 0 0 0-4.459 9.322c-.224.513.536.96.759.443a136.286 136.286 0 0 1 4.459-9.322c.259-.5-.496-.947-.759-.443Z"/></svg>