<svg width="406" height="495" viewBox="0 0 406 495" fill="none" xmlns="http://www.w3.org/2000/svg">
<circle cx="139" cy="139" r="139" fill="#EB3136"/>
<path d="M382.378 474.653C382.378 474.653 384.208 485.172 384.867 485.83C385.525 486.487 391.01 480.242 391.01 480.242C391.01 480.242 397.031 484.3 397.834 484.3C398.637 484.3 397.593 472.9 397.593 472.9C397.593 472.9 390.791 470.126 389.474 470.345C388.158 470.564 382.378 474.653 382.378 474.653Z" fill="#472B0D"/>
<path d="M333.523 479.52C333.523 479.52 332.79 488.68 333.523 489.267C334.256 489.85 341.058 485.761 341.058 485.761C341.058 485.761 344.424 489.487 346.179 489.999C347.934 490.512 348.448 479.524 348.448 479.524C348.448 479.524 344.353 476.193 343.401 476.342C342.444 476.483 333.523 479.52 333.523 479.52Z" fill="#472B0D"/>
<path d="M241.513 485.466C241.513 485.466 242.391 494.377 242.83 494.596C243.269 494.815 248.096 491.015 248.096 491.015C248.096 491.015 253.362 494.385 254.02 494.228C254.678 494.07 254.459 485.462 254.459 485.462L245.757 482.1L241.513 485.466Z" fill="#472B0D"/>
<path d="M191.486 481.666C191.486 481.666 190.828 489.919 191.851 490.068C192.873 490.213 197.411 487.22 197.411 487.22C197.411 487.22 201.505 491.164 202.238 490.651C202.971 490.139 203.629 482.105 203.629 482.105C203.629 482.105 197.863 479.769 197.455 479.769C197.046 479.769 191.486 481.666 191.486 481.666Z" fill="#472B0D"/>
<path d="M387.53 289.989C387.53 289.989 390.277 315.993 381.5 353.686C378.525 366.471 380.552 377.937 383.953 383.49C387.354 389.043 397.592 472.901 397.592 472.901L382.378 474.655C382.378 474.655 369.52 407.158 363.078 391.673C356.636 376.188 348.118 353.103 347.109 352.227C346.1 351.35 359.559 310.444 361.608 306.351C363.653 302.261 387.53 289.989 387.53 289.989Z" fill="#F29F33"/>
<path d="M189.292 268.325C189.292 268.325 193.681 369.171 193.681 371.95C193.681 374.729 191.486 481.667 191.486 481.667L203.629 482.106C203.629 482.106 221.779 384.52 222.793 371.95C223.802 359.38 225.865 308.446 225.865 308.446L197.779 253.173L189.292 268.325Z" fill="#F29F33"/>
<path d="M379.745 325.928C379.495 326.195 378.964 326.48 378.179 326.787C377.88 326.905 377.542 327.019 377.178 327.142C365.883 330.767 323.764 334.808 295.49 335.789C264.267 336.872 225.544 340.093 206.639 310.355C206.411 309.996 206.187 309.637 205.968 309.273C196.976 294.375 189.867 278.259 183.864 262.757C177.418 246.106 172.235 230.148 167.351 217.144C157.916 192.03 131.257 137.081 131.257 137.081L138.225 108.974L148.244 96.1011C148.244 96.1011 149.315 102.531 154.528 114.606C156.266 118.634 158.464 123.284 161.238 128.539C163.862 133.505 167 139.005 170.747 145.019C171.353 145.992 171.976 146.982 172.617 147.982C174.447 150.844 176.29 153.653 178.142 156.401C180.402 159.754 182.67 163.019 184.939 166.179C186.73 168.678 188.52 171.11 190.297 173.473C192.676 176.624 195.037 179.648 197.367 182.532C200.895 186.902 204.349 190.947 207.671 194.603C211.519 198.845 215.188 202.566 218.58 205.678C223.039 209.772 227.023 212.814 230.323 214.602C230.674 214.79 231.052 214.983 231.451 215.176C235.045 216.916 240.548 218.77 247.1 220.637C254.599 222.776 263.472 224.924 272.407 226.927C278.125 228.206 283.869 229.429 289.298 230.547C297.53 232.239 305.039 233.694 310.629 234.763C311.103 234.855 311.59 234.947 312.086 235.035C316.747 235.907 322.228 236.845 328.06 238.02C337.455 239.909 347.772 242.403 357.04 246.19C362.548 248.438 367.691 251.142 372.048 254.447C376.274 257.651 379.772 261.42 382.159 265.882C383.449 268.288 384.467 270.843 385.257 273.486C391.712 295.138 382.677 322.803 379.745 325.928Z" fill="#FFCB5C"/>
<path d="M148.244 96.1019C147.981 92.1792 146.643 88.7912 144.251 85.6837C142.684 83.65 140.095 80.6171 139.525 78.075C139.182 76.541 139.687 74.4021 139.731 72.8199C139.788 70.9484 139.806 69.0725 139.748 67.1966C139.696 65.4346 139.279 63.0372 137.015 63.0503C134.417 63.0591 133.197 66.3507 132.692 68.3887C132.012 71.1412 131.257 78.5133 131.257 78.5133L117.544 78.6228C117.544 78.6228 116.144 71.185 115.152 67.9154C114.617 66.1403 114.301 63.6902 112.036 63.4711C110.105 63.2826 108.894 64.8605 108.451 66.5348C108.306 66.6356 108.21 66.8065 108.223 67.0388C108.464 72.4123 108.657 77.9522 107.034 83.0846C105.397 85.7582 103.422 88.239 101.899 90.987C96.879 100.051 102.54 109.237 104.971 118.034C106.327 122.934 107.385 129.092 109.092 134.72C110.118 138.095 111.378 141.281 113.081 143.893C117.35 150.441 127.65 150.998 133.122 145.353C135.47 142.929 137.023 138.121 138.226 134.417C138.467 133.663 138.695 132.958 138.915 132.327C142.829 121.014 149.074 108.339 148.244 96.1019Z" fill="#FFCB5C"/>
<path d="M97.6467 74.5821C94.8206 72.4258 85.6271 67.495 84.7714 74.0343C83.9683 80.1704 89.287 85.7147 94.2107 88.4146C96.7165 89.7865 100.188 91.5659 103.123 90.6543C104.593 90.1985 105.695 89.037 106.011 87.6432C106.059 87.6301 106.108 87.6169 106.156 87.595C109.157 86.21 99.1168 75.7042 97.6467 74.5821Z" fill="#FFCB5C"/>
<path d="M141.122 86.2831C141.17 86.3051 141.218 86.3226 141.267 86.3314C141.587 87.7207 142.688 88.8866 144.154 89.3424C147.09 90.2497 150.561 88.4746 153.067 87.1028C157.991 84.4029 163.309 78.8585 162.506 72.7224C161.651 66.1787 152.453 71.1095 149.631 73.2703C148.161 74.3879 138.12 84.8938 141.122 86.2831Z" fill="#FFCB5C"/>
<path d="M111.738 97.1273C111.606 96.8424 111.43 96.5794 111.189 96.3822C109.548 95.0147 109.034 98.1397 109.03 99.1303C109.026 99.6869 109.105 100.265 109.42 100.721C109.736 101.177 110.342 101.471 110.864 101.282C111.255 101.142 111.522 100.778 111.702 100.401C112.159 99.4546 112.203 98.3194 111.821 97.3377C111.803 97.2675 111.773 97.1974 111.738 97.1273Z" fill="#252622"/>
<path d="M137.879 96.5433C137.747 96.2584 137.572 95.9954 137.33 95.7982C135.689 94.4307 135.175 97.5558 135.171 98.5463C135.167 99.1029 135.246 99.6815 135.562 100.137C135.878 100.593 136.483 100.887 137.005 100.698C137.396 100.558 137.664 100.194 137.844 99.8173C138.3 98.8706 138.344 97.7355 137.962 96.7537C137.944 96.6836 137.914 96.6134 137.879 96.5433Z" fill="#252622"/>
<path d="M131.257 78.5127L128.589 130.45H119.997L117.544 78.6223L131.257 78.5127Z" fill="#F29F33"/>
<path d="M127.308 129.118C123.117 128.658 117.803 128.855 113.981 130.862C112.261 131.765 110.387 133.076 109.092 134.719C110.119 138.094 111.379 141.281 113.081 143.893C117.351 150.441 127.65 150.998 133.122 145.352C135.47 142.929 137.023 138.121 138.226 134.417C135.277 131.52 131.551 129.587 127.308 129.118Z" fill="white"/>
<path d="M131.449 141.385C127.86 146.202 119.983 145.177 116.512 140.899C116.156 140.461 115.538 141.083 115.893 141.517C119.772 146.303 128.303 147.07 132.209 141.828C132.546 141.377 131.783 140.938 131.449 141.385Z" fill="#F2E4CB"/>
<path d="M119.342 132.905C117.438 132.147 118.021 136.139 118.93 136.858C119.149 137.029 119.417 137.112 119.667 137.069C121.221 136.784 120.413 133.33 119.342 132.905Z" fill="#F2E4CB"/>
<path d="M127.939 132.629C129.844 131.871 129.26 135.863 128.352 136.582C128.132 136.753 127.865 136.836 127.614 136.793C126.061 136.512 126.868 133.054 127.939 132.629Z" fill="#F2E4CB"/>
<path d="M114.204 63.9701C113.91 63.0891 113.739 61.8575 113.156 61.1081C112.651 60.4638 111.87 60.4506 111.111 60.4419C110.176 60.4331 108.666 60.4024 107.815 60.9065C107.043 61.3667 107.139 62.2126 107.139 63.0234C107.144 64.518 108.267 68.0681 108.267 68.0681C108.267 68.0681 111.326 67.7526 112.295 67.5378C113.011 67.38 114.928 67.1127 114.928 67.1127C114.928 67.1127 114.428 64.6451 114.204 63.9701Z" fill="#B36024"/>
<path d="M133.026 67.2314C133.026 67.2314 135.163 66.9377 135.883 67.0999C136.852 67.3147 139.77 68.0685 139.77 68.0685C139.77 68.0685 140.591 64.0801 140.595 62.5855C140.595 61.7747 140.696 60.9288 139.92 60.4686C139.068 59.9601 137.559 59.9952 136.624 60.004C135.861 60.0084 135.084 60.0259 134.579 60.6702C133.996 61.4196 133.824 62.6469 133.53 63.5322C133.307 64.2072 133.026 67.2314 133.026 67.2314Z" fill="#B36024"/>
<path d="M100.662 83.137C98.9067 80.3057 95.5189 77.3384 92.4032 76.0893C91.5168 75.7343 90.4154 75.3836 89.8932 76.3523C89.2393 77.562 90.3057 79.1004 91.0078 80.0558C93.101 82.8872 95.4926 86.2226 99.0164 87.3227C99.815 87.5725 100.842 87.5331 101.399 86.8055C102.25 85.6923 101.272 84.1144 100.662 83.137Z" fill="white"/>
<path d="M145.888 86.0516C146.445 86.7792 147.467 86.8186 148.27 86.5688C151.794 85.4687 154.186 82.1289 156.279 79.3019C156.985 78.3464 158.047 76.808 157.394 75.5984C156.871 74.6297 155.77 74.9804 154.883 75.3354C151.768 76.5801 148.38 79.5517 146.625 82.3831C146.019 83.3561 145.036 84.934 145.888 86.0516Z" fill="white"/>
<path d="M378.179 326.787C377.881 326.905 377.543 327.019 377.179 327.142C365.883 330.767 323.764 334.808 295.49 335.79C264.267 336.872 225.545 340.094 206.64 310.355C206.412 309.996 206.188 309.637 205.968 309.273C196.977 294.375 189.868 278.259 183.865 262.757C186.519 262.178 191.237 263.033 199.605 268.293C217.378 279.469 232.737 298.754 241.294 300.069C249.852 301.384 265.869 281.88 287.152 282.975C308.436 284.071 316.335 300.726 327.744 305.767C336.745 309.742 366.076 321.624 378.179 326.787Z" fill="white"/>
<path d="M199.605 265.883C199.605 265.883 216.061 311.904 217.817 315.848C219.572 319.793 230.543 396.494 231.42 401.315C232.298 406.136 240.855 485.467 241.514 485.467C242.172 485.467 254.459 485.467 254.459 485.467C254.459 485.467 256.653 397.37 256.653 391.454C256.653 385.537 257.97 287.579 257.97 287.579L207.065 258.432L199.605 265.883Z" fill="#FFCB5C"/>
<path d="M317.725 292.035C317.725 292.035 310.41 327.392 317.725 350.183C325.041 372.974 331.184 389.336 333.523 395.182C335.862 401.025 333.523 479.523 333.523 479.523H348.443C348.443 479.523 361.903 401.318 363.658 387.587C365.413 373.855 363.074 364.213 365.707 355.153C368.34 346.094 379.75 325.932 379.75 325.932C379.75 325.932 372.435 301.094 369.802 298.758C367.169 296.422 317.725 292.035 317.725 292.035Z" fill="#FFCB5C"/>
<path d="M394.113 283.746C391.792 277.146 388.562 270.825 384.112 265.399C379.175 259.377 372.751 254.863 366.401 250.462C365.936 250.138 365.479 250.892 365.944 251.212C369.437 253.631 379.469 270.019 382.796 275.318C386.469 281.165 389.378 287.437 391.673 293.945C396.114 306.537 398.111 319.734 400.226 332.874C400.305 333.356 401.736 333.15 401.688 332.655C400.152 316.224 399.643 299.477 394.113 283.746Z" fill="#FFCB5C"/>
<path d="M401.41 330.407C401.331 330.293 401.234 330.206 401.112 330.188C400.94 330.166 400.48 330.591 400.607 330.635C400.563 330.618 400.515 330.604 400.458 330.604C400.409 330.604 400.357 330.618 400.304 330.635C400.032 330.74 399.922 330.613 399.773 330.933C398.909 332.787 398.356 334.904 397.97 336.907C397.566 339.007 397.399 341.145 397.491 343.28C397.5 343.473 397.509 343.666 397.522 343.858C397.645 345.796 397.965 347.724 398.492 349.596C398.838 350.836 399.084 352.331 400.396 352.8C400.743 354.395 401.502 356.762 403.17 356.306C405.039 355.793 404.96 351.884 405.087 350.428C405.452 346.265 405.105 342.044 404.104 337.985C403.709 336.377 403.253 334.781 402.669 333.23C402.375 332.454 402.051 331.691 401.682 330.951C401.603 330.81 401.529 330.578 401.41 330.407Z" fill="#472B0D"/>
<path d="M154.528 114.606C153.505 116.898 152.632 119.252 151.921 121.671C151.469 123.21 150.675 125.335 151.675 126.839C152.733 128.438 155.564 128.36 157.257 128.491C158.578 128.596 159.912 128.609 161.238 128.539C158.464 123.284 156.266 118.634 154.528 114.606Z" fill="#B36024"/>
<path d="M160.171 138.388C159.684 137.244 159.284 135.224 158.135 134.514C156.428 133.457 152.347 134.904 151.478 136.666C150.618 138.401 151.162 140.54 151.785 142.258C152.211 143.433 153.242 146.742 154.747 146.931C154.984 146.961 155.221 146.909 155.453 146.856C157.946 146.299 160.781 145.949 161.689 143.227C161.979 141.649 160.754 139.76 160.171 138.388Z" fill="#B36024"/>
<path d="M172.617 147.981C171.976 146.982 171.353 145.991 170.747 145.018C169.027 146.46 167.311 147.911 165.635 149.401C163.823 151.014 163.208 152.653 163.507 155.081C163.818 157.61 164.196 160.814 165.293 163.133C166.012 164.658 167.035 164.702 168.439 164.128C170.646 163.234 173.192 163.996 175.048 162.221C176.61 160.735 177.365 158.408 178.142 156.401C176.29 153.653 174.447 150.843 172.617 147.981Z" fill="#B36024"/>
<path d="M182.303 180.11C182.009 178.383 180.051 177.656 178.726 176.818C176.861 175.639 174.829 174.066 172.53 173.965C171.103 173.904 170.379 174.417 169.949 175.736C169.177 178.116 169.023 180.824 169.111 183.358C168.975 184.44 169.203 185.33 170.327 186.049C172.196 187.241 174.913 188.871 177.155 189.152C180.758 189.595 182.759 182.801 182.303 180.11Z" fill="#B36024"/>
<path d="M184.94 166.18C184.76 166.492 184.588 166.798 184.422 167.114C183.728 168.403 182.579 170.072 182.697 171.628C182.917 174.425 186.594 174.14 188.577 173.807C189.104 173.715 189.705 173.618 190.298 173.474C188.52 171.111 186.73 168.679 184.94 166.18Z" fill="#B36024"/>
<path d="M197.367 182.533C195.577 183.462 194.923 185.206 194.405 187.227C193.672 190.076 193.177 192.973 192.865 195.892C192.584 196.597 192.54 197.22 192.685 197.772V197.79C192.672 197.934 192.725 198.039 192.804 198.11C194.05 201.02 200.759 201.712 203.182 201.717C206.179 201.721 206.741 201.164 207.175 198.254C207.355 197.049 207.526 195.83 207.671 194.603C204.349 190.948 200.895 186.902 197.367 182.533Z" fill="#B36024"/>
<path d="M187.655 202.365C186.598 199.485 185.545 195.716 181.657 197.298C180.525 197.758 179.208 198.425 179.072 199.74C178.993 200.502 179.428 201.453 179.625 202.19C179.976 203.504 180.582 204.776 180.599 206.147C180.608 206.84 180.613 207.572 180.977 208.164C181.635 209.224 183.074 208.751 184.062 208.606C185.251 208.426 188.085 208.238 188.814 207.037C189.56 205.814 188.081 203.526 187.655 202.365Z" fill="#B36024"/>
<path d="M213.437 218.854C212.164 216.895 209.961 216.124 207.868 215.335C206.262 214.73 204.634 214.186 202.988 213.704C201.799 213.358 200.386 212.744 199.122 212.797C196.731 212.898 196.309 216.518 195.871 218.293C194.975 221.913 194.703 225.634 194.945 229.351C194.949 229.421 194.967 229.483 194.997 229.54C194.94 232.704 196.23 235.947 198.96 237.67C201.093 239.02 203.756 237.744 205.964 237.17C207.785 236.697 209.615 236.237 211.423 235.711C212.269 235.465 213.02 235.272 213.463 234.466C213.88 233.708 213.84 232.481 213.946 231.657C214.161 229.943 214.393 228.229 214.582 226.511C214.863 223.921 214.916 221.129 213.437 218.854Z" fill="#B36024"/>
<path d="M230.323 214.603C227.023 212.815 223.038 209.773 218.58 205.68C218.295 206.806 218.054 207.941 217.86 209.09C217.584 210.738 217.093 212.578 218.519 213.806C219.51 214.66 220.95 215.213 222.091 215.852C223.556 216.676 224.996 217.61 226.514 218.333C227.988 219.039 228.721 218.837 229.717 217.566C230.297 216.834 230.893 216.023 231.451 215.177C231.051 214.985 230.674 214.792 230.323 214.603Z" fill="#B36024"/>
<path d="M243.063 247.299C242.918 245.397 242.778 243.495 242.633 241.588C242.462 239.318 242.743 236.026 241.158 234.133C239.702 232.393 236.941 232.52 234.883 232.367C232.979 232.222 231.07 232.143 229.161 232.121C228.165 232.108 226.804 231.867 225.913 232.468C224.184 233.633 224.321 237.56 224.119 239.414C223.746 242.824 223.719 246.247 223.983 249.662C223.829 250.556 223.776 251.428 223.833 252.366C223.847 252.603 224.022 252.804 224.272 252.804C227.748 252.778 231.206 252.511 234.637 251.954C236.397 251.669 238.148 251.31 239.877 250.88C240.658 250.687 242.471 250.521 243.024 249.762C243.449 249.18 243.107 247.909 243.063 247.299Z" fill="#B36024"/>
<path d="M214.183 247.255C212.985 245.879 210.769 245.178 209.001 245.051C207.359 244.933 207.083 245.691 206.381 247.115C205.74 248.413 204.836 249.815 204.279 251.27C203.432 252.519 202.655 254.04 203.607 255.46C204.59 256.924 207.022 257.441 208.61 257.753C209.984 258.02 213.165 258.686 214.355 257.779C215.355 257.016 215.228 253.672 215.294 252.511C215.399 250.714 215.443 248.697 214.183 247.255Z" fill="#B36024"/>
<path d="M247.1 220.637C246.916 222.601 246.867 224.569 247.157 226.41C247.657 229.57 249.505 229.574 252.283 229.5C254.762 229.43 257.092 229.403 259.348 230.609C260.791 231.38 262.047 232.484 263.609 233.037C266.685 234.128 268.16 231.612 270.064 229.535C270.854 228.676 271.639 227.804 272.407 226.927C263.473 224.924 254.6 222.776 247.1 220.637Z" fill="#B36024"/>
<path d="M277.191 243.867C275.501 241.926 273.531 239.651 270.845 239.226C268.063 238.783 264.443 239.401 261.761 240.225C260.168 240.716 257.588 241.54 257.636 243.582C257.676 245.095 258.475 246.826 258.878 248.259C259.58 250.749 259.493 254.246 262.687 254.812C265.123 255.245 267.629 254.093 269.419 252.532C271.012 251.143 272.263 249.946 274.299 249.236C275.602 248.785 277.041 248.5 278.218 247.733C280.113 246.493 278.345 245.2 277.191 243.867Z" fill="#B36024"/>
<path d="M245.432 269.871C245.011 267.921 244.41 265.353 242.979 263.841C240.36 261.066 234.681 263.393 231.851 264.665C229.841 265.567 229.244 266.014 229.472 268.25C229.731 270.783 230.201 273.294 230.775 275.775C230.771 276.384 230.841 277.002 230.986 277.647C231.026 277.822 231.227 277.984 231.407 277.967C234.29 277.752 237.165 277.432 240.022 276.981C241.509 276.744 244.743 276.827 245.652 275.372C246.525 274 245.753 271.348 245.432 269.871Z" fill="#B36024"/>
<path d="M219.734 271.637C219.423 269.858 217.685 269.047 216.201 268.328C215.324 267.903 214.323 267.263 213.428 267.859C212.186 268.688 211.436 271.76 210.979 273.132C210.474 274.644 208.53 279.851 209.952 281.074C211.041 282.012 212.638 281.573 213.941 281.587C214.924 281.595 216.228 281.784 217.18 281.486C218.795 280.982 218.747 278.917 219.01 277.528C219.339 275.74 220.055 273.469 219.734 271.637Z" fill="#B36024"/>
<path d="M310.63 234.763C305.039 233.694 297.531 232.239 289.298 230.547C288.899 231.226 288.539 231.914 288.223 232.62C286.762 235.898 288.122 238.699 289.491 241.745C290.308 243.564 290.975 245.607 292.002 247.311C292.471 248.092 292.976 248.653 293.963 248.692C295.262 248.745 296.82 247.737 297.961 247.241C300.028 246.343 302.09 245.444 304.157 244.546C306.18 243.665 308.436 242.942 310.354 241.855C311.459 241.224 311.674 240.838 311.859 239.58C312.078 238.112 312.069 236.556 312.087 235.035C311.591 234.947 311.104 234.855 310.63 234.763Z" fill="#B36024"/>
<path d="M290.25 256.853C288.903 255.731 287.35 254.574 285.524 254.535C283.593 254.495 282.259 255.788 281.149 257.213C279.977 258.712 278.872 260.294 277.968 261.973C277.95 261.99 277.928 262.012 277.91 262.034C275.155 265.873 280.03 266.496 282.948 266.364C285.116 266.268 286.985 265.44 288.679 264.098C289.811 263.204 291.966 261.596 292.484 260.215C293.045 258.716 291.251 257.686 290.25 256.853Z" fill="#B36024"/>
<path d="M327.217 259.283C326.621 257.71 325.949 256.163 325.208 254.655C324.628 253.48 324.071 252.056 322.934 251.293C321.995 250.662 320.881 250.679 319.792 250.675C317.8 250.666 315.777 250.767 313.789 250.942C311.863 251.113 308.642 251.039 307.522 252.941C306.755 254.247 307.158 256.233 307.189 257.666C307.272 261.628 306.254 265.266 310.27 267.593C311.902 268.535 313.565 269.473 315.242 270.328C316.058 270.744 316.861 271.192 317.813 271.073C318.941 270.937 319.841 270.052 320.688 269.381C322.259 268.137 323.825 266.887 325.396 265.638C326.243 264.968 327.867 264.17 328.205 263.035C328.543 261.9 327.604 260.3 327.217 259.283Z" fill="#B36024"/>
<path d="M328.059 238.021C328.494 240.015 329.007 242.469 330.218 244.139C331.184 245.467 332.636 245.792 334.12 246.269C337.055 247.22 338.482 248.961 340.241 251.349C342.55 254.479 346.692 252.191 349.461 250.885C352.169 249.609 354.701 248.027 357.04 246.191C347.772 242.404 337.455 239.91 328.059 238.021Z" fill="#B36024"/>
<path d="M356.953 276.221C356.444 274.354 355.456 272.474 354.741 270.677C353.793 268.301 353.139 265.124 350.629 263.901C348.211 262.722 345.021 263.283 342.484 263.616C341.708 263.717 340.808 263.734 340.233 264.339C339.325 265.299 339.255 267.337 339.048 268.56C338.609 271.177 338.653 273.833 338.592 276.471C338.552 278.075 337.561 282.046 339.544 282.945C340.505 283.379 342.138 282.73 343.094 282.533C344.951 282.152 346.798 281.696 348.619 281.17C350.44 280.644 352.244 280.043 354.021 279.377C354.855 279.066 356.308 278.746 356.865 277.918C357.269 277.313 357.128 276.87 356.953 276.221Z" fill="#B36024"/>
<path d="M382.159 265.883C379.771 261.421 376.274 257.652 372.048 254.448C370.815 255.364 369.586 256.289 368.371 257.231C366.822 258.432 365.022 259.374 364.772 261.456C364.417 264.406 365.571 267.728 366.655 270.402C367.159 271.651 367.726 272.869 368.305 274.083C368.73 274.964 369.117 276.2 369.972 276.788C370.692 277.279 371.359 277.156 372.184 277.042C373.786 276.827 375.387 276.428 376.972 276.117C378.569 275.802 380.162 275.482 381.755 275.153C382.764 274.943 383.953 274.807 384.761 274.079C384.958 273.904 385.121 273.702 385.257 273.487C384.467 270.844 383.449 268.289 382.159 265.883Z" fill="#B36024"/>
<path d="M375.524 295.646C375.511 293.538 375.783 290.575 374.804 288.616C373.826 286.661 371.355 285.631 369.411 284.952C368.103 284.496 365.786 283.291 364.601 284.4C363.978 284.983 363.785 286.674 363.535 287.485C362.17 291.934 359.919 297.557 365.791 298.684C368.459 299.196 371.403 299.521 374.106 299.144C375.998 298.885 375.533 297.325 375.524 295.646Z" fill="#B36024"/>
<path d="M348.062 298.39C347.992 296.799 348.545 294.178 346.917 293.24C344.889 292.079 341.901 291.978 339.623 291.838C337.776 291.724 335.411 291.123 334.191 292.833C333.089 294.38 332.347 296.151 331.641 297.904C330.794 299.999 329.126 302.927 332.089 304.005C334.063 304.724 336.376 304.426 338.434 304.404C340.172 304.386 341.905 304.325 343.639 304.215C344.639 304.154 346.491 304.36 347.395 303.825C348.988 302.883 348.128 299.854 348.062 298.39Z" fill="#B36024"/>
<path d="M368.362 311.434C368.108 310.123 367.888 307.288 366.545 306.503C365.852 306.1 364.435 306.35 363.724 306.372C362.412 306.416 361.1 306.49 359.796 306.652C358.26 306.841 357.317 307.261 356.953 308.852C356.404 311.276 356.444 314.094 357.497 316.382C358.752 319.113 361.1 318.499 363.645 318.197C365.049 318.03 367.866 318.179 368.731 316.974C369.551 315.817 368.621 312.762 368.362 311.434Z" fill="#B36024"/>
<path d="M351.076 316.611C350.967 316.111 350.234 315.647 349.891 315.318C349.023 314.477 348.158 313.626 347.285 312.789C346.464 312.005 345.464 311.001 344.174 311.036C343.515 310.83 342.866 310.694 342.256 311.185C341.251 311.987 340.997 313.92 340.685 315.055C339.939 317.751 339.32 321.095 343.125 320.227C345.205 319.754 347.25 319.048 349.216 318.22C349.948 317.908 351.313 317.659 351.076 316.611Z" fill="#B36024"/>
<path d="M235.431 286.784C234.255 285.732 232.324 285.535 230.868 285.189C229.634 284.895 228.213 284.338 227.124 285.272C226.071 286.175 225.808 288.244 225.558 289.48C225.123 291.632 225.022 293.806 225.167 295.993C225.145 296.264 225.141 296.549 225.154 296.852C225.163 297.106 225.347 297.264 225.593 297.29C227.98 297.544 230.359 297.544 232.741 297.207C233.746 297.066 234.409 297.018 234.962 296.155C235.91 294.669 236.129 292.254 236.327 290.536C236.476 289.142 236.555 287.788 235.431 286.784Z" fill="#B36024"/>
<path d="M266.79 269.599C266.865 268.087 267.036 266.637 265.618 265.721C264.671 265.107 263.486 264.748 262.45 264.3C261.744 263.998 260.941 263.512 260.155 263.446C259.093 263.354 258.479 264.037 258.439 265.067C258.396 266.154 258.698 267.272 258.791 268.355C258.799 268.438 258.812 268.552 258.83 268.692C257.799 270.739 257.29 272.983 260.383 273.491C261.608 273.693 262.898 273.68 264.135 273.636C264.666 273.614 265.522 273.719 266.009 273.434C267.15 272.764 266.737 270.686 266.79 269.599Z" fill="#B36024"/>
<path d="M146.923 108.856C146.603 113.305 144.334 117.122 142.653 121.155C140.968 125.2 140.047 129.557 138.915 133.777C138.77 134.321 139.617 134.558 139.761 134.01C141.016 129.333 142.07 124.569 144.049 120.133C145.686 116.465 147.511 112.928 147.801 108.856C147.84 108.295 146.963 108.299 146.923 108.856Z" fill="#F29F33"/>
<path d="M238.038 375.074C237.252 373.798 235.822 373.114 234.475 374.039C232.833 375.166 232.421 377.953 232.355 379.759C232.316 380.903 232.223 383.752 234.036 383.756C236.278 383.761 236.107 380.526 235.993 379.246C235.94 378.685 235.256 378.457 235.146 379.014C235.071 379.4 235.172 379.89 235.15 380.281C235.102 381.205 234.984 382.665 234.08 382.639C233.176 382.612 233.198 380.785 233.237 379.763C233.263 379.08 233.356 378.374 233.514 377.703C233.663 377.068 233.746 376.389 234.071 375.806C234.488 375.065 235.572 374.486 236.357 374.745C238.095 375.328 238.218 378.83 238.147 380.232C238.077 381.595 237.823 382.954 237.322 384.23C237.042 384.944 236.664 385.737 236.142 386.307C235.124 387.42 234.036 387.859 232.816 386.964C231.061 385.676 230.841 381.166 231.012 378.523C231.047 377.958 230.17 377.962 230.135 378.523C229.964 381.113 230.139 390.506 235.273 388.108C239.297 386.228 240.153 378.497 238.038 375.074Z" fill="#F29F33"/>
<path d="M321.442 286.263C319.835 289.313 318.352 292.421 316.983 295.585C316.759 296.098 317.519 296.545 317.742 296.028C319.111 292.864 320.595 289.76 322.201 286.706C322.46 286.206 321.705 285.759 321.442 286.263Z" fill="#F29F33"/>
</svg>
