<svg width="1888" height="375" viewBox="0 0 1888 375" fill="none" xmlns="http://www.w3.org/2000/svg">
<rect width="1888" height="375" fill="white"/>
<path d="M1888 0H0V306H1888V0Z" fill="#0A2912"/>
<path d="M1888 265V108.927C1883.32 109.994 1878.66 111.075 1873.99 112.164C1828.58 122.772 1783.36 134.387 1736.22 140.912C1711.61 144.321 1686.53 146.261 1661.41 145.758C1634.51 145.225 1608.55 140.98 1582.18 137.756C1560.38 135.092 1538.55 133.719 1516.51 135.785C1491.44 138.141 1467.39 143.824 1443.67 149.67C1394.9 161.687 1346.11 171.157 1294.33 174.496C1242.48 177.842 1189.93 175.986 1138.88 168.86C1090.18 162.063 1044.86 146.873 996.145 140.623C950.788 134.808 911.526 144.15 871.043 157.542C824.295 173.007 777.814 184.66 725.643 187.201C676.726 189.587 627.022 184.825 581.073 172.965C538.522 161.987 498.953 142.35 452.613 139.638C427.976 138.194 403.809 142.223 379.792 145.371C354.084 148.737 328.402 149.976 302.321 148.254C251.683 144.905 203.222 131.995 158.647 115.572C101.866 94.6577 48.7374 68.4615 0 39V265H1888Z" fill="#002007"/>
<path d="M1888 264H0V375H1888V264Z" fill="#90B054"/>
<path d="M621.564 112.733C621.063 109.914 616.827 110.322 614.821 110.62C611.251 111.152 607.881 112.713 604.624 114.204C601.228 115.757 597.906 117.476 594.671 119.341C592.359 120.674 590.091 122.089 587.875 123.577C591.371 119.473 594.975 115.456 598.272 111.186C600.64 108.114 602.854 104.91 604.708 101.5C605.493 100.054 606.213 98.5747 606.852 97.0585C607.226 96.1696 607.574 95.2694 607.89 94.3551C608.134 93.6434 608.584 92.7376 608.449 91.9556C608.036 89.5476 602.562 92.386 601.408 92.9148C598.108 94.4339 595.107 96.5353 592.328 98.8617C586.668 103.599 581.686 109.225 577.41 115.228C576.082 117.093 574.825 119.009 573.64 120.967C574.265 119.026 574.887 117.088 575.511 115.147C576.695 111.459 577.902 107.773 579.067 104.08C579.961 101.239 581.081 97.5789 579.742 94.6843C577.317 89.4463 570.104 99.2077 568.599 101.199C564.706 106.35 561.901 112.274 560 118.427C559.879 118.815 559.766 119.206 559.654 119.597C559.401 116.216 558.807 112.865 557.209 110.013C556.472 108.696 554.756 105.979 553.133 107.74C551.313 109.715 550.309 113.042 549.608 115.571C548.14 120.863 547.572 126.5 547.321 132.019C547.231 131.772 547.144 131.521 547.048 131.277C546.525 129.915 545.923 128.582 545.234 127.296C544.623 126.16 543.943 124.697 542.806 123.98C540.556 122.551 539.082 125.144 538.556 126.978C537.053 132.219 537.422 138.045 538.249 143.514C536.617 141.992 534.522 141.007 532.209 141.494C529.132 142.141 528.119 145.196 528.018 147.992C527.894 151.34 528.426 154.805 529.222 158.046C530.929 165 534.359 171.518 539.073 176.902C543.546 182.013 549.892 187.37 557.029 187.55C559.513 187.614 561.949 186.481 564.202 187.955C565.82 189.012 567.468 189.797 569.452 189.778C571.362 189.758 573.126 188.936 574.327 187.611C582.8 186.087 590.859 182.742 598.542 178.857C602.548 176.832 606.987 174.744 609.676 170.992C610.497 169.844 611.603 168.038 610.269 166.842C609.603 166.246 608.472 165.973 607.653 165.698C606.348 165.259 605.015 164.913 603.662 164.66C603.287 164.589 602.913 164.53 602.539 164.474C603.481 163.982 604.418 163.481 605.347 162.963C607.904 161.54 610.486 160.077 612.711 158.156C614.216 156.856 616.334 154.836 615.038 152.701C613.853 150.754 611.102 150.33 609.065 150.02C606.002 149.559 602.896 149.511 599.813 149.792C599.484 149.823 599.158 149.86 598.831 149.897C602.612 148.164 606.28 146.22 609.645 143.722C612.745 141.424 618.953 136.526 613.955 132.832C611.803 131.243 608.987 131.634 606.531 132.121C603.411 132.737 600.325 133.547 597.296 134.52C595.757 135.015 594.232 135.558 592.724 136.141C594.896 134.886 597.068 133.631 599.237 132.371C605.451 128.765 612.213 125.181 617.356 120.078C619.038 118.41 622.034 115.374 621.564 112.733Z" fill="#053B13"/>
<path fill-rule="evenodd" clip-rule="evenodd" d="M409.451 48.4936C409.674 49.2841 409.901 50.1139 410.121 50.9719C410.161 51.1294 410.204 51.2953 410.249 51.469L410.249 51.4704L410.25 51.4714C411.36 55.7633 413.686 64.7567 409.754 68.0197C410.994 71.0546 412.221 74.0945 413.435 77.1395C413.654 67.8679 416.589 58.6435 421.868 51.0029C422.791 49.6667 423.837 48.3305 425.3 47.6188C429.106 45.7706 431.275 49.3966 432.122 52.9102C432.431 54.1929 432.563 55.456 432.535 56.4321C432.451 59.3774 431.593 62.2383 430.715 65.0514C428.62 71.7718 426.372 78.4726 423.238 84.7767C422.117 87.0299 420.817 89.3054 418.765 90.76C419.218 91.9408 419.669 93.1223 420.118 94.3046C421.372 97.6041 422.611 100.909 423.834 104.22C425.601 93.5032 430.508 83.1726 438.536 75.8789C439.43 75.066 440.387 74.2783 441.526 73.8873C444.443 72.8858 446.913 75.4851 447.65 78.1603C447.763 78.5598 447.833 78.9621 447.858 79.3559C448.002 81.3363 447.442 83.2942 446.848 85.1874C443.861 94.6984 439.7 104.086 432.82 111.301C431.375 112.814 429.469 114.321 427.464 114.184C429.623 120.199 431.732 126.232 433.791 132.281C434.82 128.775 436.727 125.245 437.841 123.507C438.978 121.735 440.311 120.105 441.645 118.475L441.645 118.475L441.645 118.475C442.803 117.06 443.962 115.643 444.995 114.131C445.37 113.581 445.742 113.026 446.114 112.47C448.001 109.649 449.902 106.808 452.418 104.508C453.42 103.593 454.497 102.718 455.771 102.252C458.5 101.253 462.126 102.974 462.492 106.001C462.59 106.82 462.5 107.636 462.312 108.44C462.143 109.155 461.901 109.861 461.642 110.544C457.78 120.916 451.065 129.991 443.715 138.267C442.049 140.144 439.911 142.152 437.43 141.789C437.266 141.765 437.106 141.737 436.953 141.704C438.97 147.803 440.936 153.918 442.851 160.049C442.881 159.914 442.911 159.778 442.944 159.644C444.257 154.184 447.194 148.676 449.847 143.75C452.593 138.653 455.828 133.792 459.791 129.552C462.379 126.787 466.351 126.402 468.388 128.936C469.01 129.713 469.451 130.759 469.617 132.093C469.845 133.938 469.226 135.775 468.579 137.519C466.109 144.161 463.032 150.566 459.608 156.766C457.895 159.872 456.095 162.927 454.233 165.942C453.953 166.395 453.669 166.929 453.368 167.494C451.99 170.083 450.267 173.323 447.048 172.337C446.882 172.286 446.719 172.225 446.559 172.154C449.318 181.337 451.963 190.554 454.494 199.803C454.987 201.607 452.117 202.065 451.628 200.279C448.905 190.323 446.049 180.402 443.059 170.519C442.817 169.718 442.573 168.916 442.329 168.115C441.655 169.284 440.416 170.227 439.135 170.756C436.243 171.948 432.988 171.83 429.886 171.445C421.899 170.452 414.079 167.768 407.381 163.307C404.99 161.714 402.694 159.844 401.237 157.365C399.78 154.887 399.282 151.7 400.542 149.117C403.654 142.742 412.104 146.775 417.314 149.261C417.959 149.569 418.554 149.853 419.083 150.091C426.321 153.337 433.258 157.264 439.7 161.897C439.743 161.928 439.785 161.959 439.827 161.989C439.911 162.051 439.996 162.112 440.08 162.176C440.266 162.314 440.451 162.457 440.632 162.605C438.618 156.123 436.546 149.659 434.417 143.213C433.668 144.361 432.095 144.728 430.698 144.763C427.93 144.833 425.21 144.093 422.571 143.255C417.018 141.491 411.603 139.258 406.503 136.433C402.787 134.374 399.147 131.915 396.767 128.393C395.189 126.056 394.28 122.795 395.918 120.497C398.619 116.704 403.794 118.888 407.161 120.309L407.313 120.373C408.686 120.953 410.07 121.507 411.454 122.061C414.813 123.406 418.171 124.751 421.365 126.458C425.21 128.514 428.853 131.146 431.533 134.604C429.411 128.35 427.235 122.115 425.005 115.898C423.676 117.114 421.464 117.185 419.587 116.944C413.938 116.216 408.574 114.064 403.434 111.608C397.662 108.848 392.007 105.624 387.459 101.121C385.698 99.3794 384.013 97.1008 384.432 94.6619C384.803 92.4874 386.854 90.8783 389.023 90.4676C391.192 90.0569 393.431 90.6364 395.468 91.4859C404.682 95.3206 414.143 99.9581 421.652 106.675C419.966 102.1 418.252 97.5358 416.509 92.9827C415.568 93.2938 414.47 93.2335 413.471 93.0499C410.591 92.5182 407.921 91.1876 405.378 89.7333C400.317 86.8386 395.583 83.3757 391.284 79.4374C388.514 76.8944 385.886 74.1038 384.159 70.7647C382.958 68.4411 382.325 65.3298 384.108 63.417C385.326 62.1117 387.343 61.8276 389.076 62.2467C393.176 63.2387 396.835 66.6666 400.104 69.7282L400.104 69.7283C400.969 70.5387 401.807 71.3235 402.618 72.0306C405.654 74.6779 408.644 77.3838 411.527 80.1981C410.026 76.4133 408.506 72.6365 406.965 68.8678C406.026 68.6414 405.2 67.9072 404.461 67.0655C396.871 58.421 392.396 47.1039 392.021 35.6097C391.951 33.4915 392.019 31.3535 392.446 29.2747C392.773 27.6909 393.794 25.8174 395.397 26.0143C398.389 26.3845 401.335 31.2724 402.998 34.032C403.167 34.3132 403.324 34.5724 403.465 34.8024C406.084 39.0585 408.101 43.6832 409.451 48.4936Z" fill="#053B13"/>
<path d="M753.577 163.85C752.877 161.788 750.863 160.483 748.728 160.371C747.617 160.312 746.545 160.593 745.616 161.181C744.981 160.109 744.23 159.119 743.355 158.258C742.252 157.172 740.553 156.342 739.039 157.127C737.695 157.828 737.444 159.439 737.363 160.832C734.865 157.802 730.806 155.476 726.808 155.619C725.956 155.65 725.081 155.858 724.428 156.432C723.705 157.068 723.385 158.022 723.216 158.944C722.797 161.212 722.932 163.575 723.463 165.814C721.553 164.407 718.774 163.389 716.495 164.374C714.442 165.263 714.253 167.42 714.484 169.398C712.588 167.122 709.257 165.617 706.501 166.731C703.432 167.972 702.973 171.952 704.056 174.684C704.281 175.252 704.56 175.795 704.872 176.315C704.014 177.173 703.249 178.127 702.624 179.168C701.336 181.32 699.873 185.342 702.326 187.233C704.52 188.923 708.082 188.259 710.388 187.196C711.671 186.605 712.85 185.767 713.837 184.749C716.029 184.6 718.209 183.697 720.167 182.78C722.569 181.654 724.878 180.321 727.21 179.055C729.655 177.727 732.102 176.402 734.544 175.069C737.113 173.668 739.574 172.169 741.9 170.394C741.917 170.382 741.931 170.368 741.948 170.357C742.581 170.796 743.293 171.125 744.083 171.299C745.445 171.6 746.894 171.502 748.261 171.297C749.603 171.094 750.97 170.683 752.016 169.783C753.656 168.365 754.269 165.89 753.577 163.85Z" fill="#21552F"/>
<path d="M1019.84 57.2349C1014.24 57.7441 1008.64 58.2504 1003.04 58.7596C1004.32 49.2205 1005.77 39.7066 1007.39 30.2181C1007.45 29.8749 1007.11 29.5345 1006.77 29.7427C994.83 37.0004 984.005 45.9882 974.68 56.3938C973.518 53.6145 972.359 50.838 971.197 48.0587C971.051 47.7098 970.654 47.6508 970.427 47.9574C962.674 58.3686 956.949 70.1807 953.554 82.7073C951.599 79.6973 949.447 76.828 947.101 74.1106C946.909 73.8883 946.583 73.9924 946.437 74.195C942.636 79.5595 941.716 86.4318 940.712 92.7697C939.649 99.4901 938.957 106.261 938.614 113.055C937.109 110.638 935.277 108.467 933.131 106.573C932.852 106.329 932.43 106.498 932.411 106.872C932.259 109.839 932.135 112.796 932.09 115.738C929.522 112.008 926.59 108.523 923.347 105.367C919.831 101.946 915.946 98.9247 911.774 96.3479C911.484 96.1707 911.161 96.407 911.138 96.7136C910.908 100.011 910.933 103.305 911.211 106.596C902.423 99.282 892.721 93.141 882.329 88.3588C881.944 88.1816 881.559 88.5416 881.753 88.9355C883.23 91.937 884.456 95.037 885.441 98.2327C875.798 96.7221 866.154 95.2114 856.514 93.7036C856.126 93.6417 855.777 94.089 856.103 94.4097L862.511 100.705C852.291 101.459 842.176 103.217 832.302 105.971C831.981 106.061 831.911 106.441 832.116 106.678C838.544 114.003 848.373 116.706 855.65 122.951C852.758 124.186 850.103 125.818 847.698 127.857C847.383 128.124 847.675 128.535 847.996 128.577C856.196 129.674 864.396 130.772 872.593 131.869C868.478 135.016 864.236 137.993 859.873 140.792C859.698 140.904 859.58 141.18 859.721 141.368C861.248 143.397 863.668 143.909 866.09 143.985C869.766 144.103 873.468 143.805 877.151 143.827C884.96 143.875 892.808 144.437 900.423 146.243C902.19 146.663 905.18 146.938 905.433 149.149C905.61 150.677 904.941 152.171 905.287 153.707C905.779 155.89 907.729 157.276 909.684 158.084C912.466 159.234 915.628 159.448 918.604 159.575C922.196 159.727 925.803 159.487 929.35 158.888C933.091 158.255 936.76 157.2 940.268 155.749C941.916 159.583 943.697 163.364 945.494 167.128C946.864 171.721 949.129 176.391 954.564 176.734C957.641 176.929 960.668 175.753 963.436 174.543C966.654 173.136 969.836 171.64 972.987 170.093C979.302 166.996 985.485 163.597 991.325 159.665C994.197 157.732 996.988 155.67 999.657 153.465C1001.76 151.726 1004.13 149.729 1004.43 146.826C1004.71 144.212 1003.06 142.159 1000.49 141.754C997.764 141.321 994.943 142.238 992.276 141.433C995.213 138.192 998.149 134.952 1001.09 131.711C1002.57 130.077 1004.05 128.445 1005.53 126.811C1006.78 125.43 1008.2 124.102 1009.21 122.524C1010.35 120.746 1011.29 117.708 1008.77 116.611C1007.2 115.93 1005.1 116.388 1003.46 116.467C1001.35 116.571 999.233 116.672 997.12 116.776C999.77 113.699 1002.42 110.621 1005.07 107.541C1007.7 104.483 1010.46 101.482 1012.69 98.1089C1014.27 95.715 1015.28 92.9441 1013.08 90.5699C1010.92 88.2322 1007.69 88.2125 1004.73 88.4798C1011.68 79.2529 1016.94 68.8417 1020.25 57.7638C1020.32 57.5247 1020.12 57.2096 1019.84 57.2349Z" fill="#21552F"/>
<path d="M1416.51 138.474C1416.44 136.535 1416.03 133.846 1413.44 134.282C1412.01 134.521 1410.65 135.571 1409.42 136.271C1408.02 137.073 1406.62 137.872 1405.21 138.673C1406.68 123.983 1407.87 108.059 1399.57 95.0369C1399.44 94.8231 1399.1 94.7359 1398.91 94.9525C1395.28 99.2031 1391.65 103.454 1388.03 107.707C1385.01 100.556 1382 93.4053 1378.98 86.2545C1378.86 85.9647 1378.53 85.8297 1378.28 86.0688C1370.59 93.2787 1368.79 104.191 1368.11 114.27C1367.02 112.568 1365.93 110.869 1364.84 109.167C1364.64 108.849 1364.19 108.925 1364.07 109.268C1361 117.921 1362.66 127.154 1364.52 135.894C1362.08 134.066 1359.81 132.034 1357.72 129.807C1357.41 129.483 1356.93 129.826 1357.01 130.217C1360.37 146.01 1367.91 160.824 1378.7 172.841C1380.26 174.588 1381.9 176.273 1383.6 177.893C1384.14 178.411 1384.78 178.937 1385.43 179.483C1382.92 179.888 1380.45 180.481 1378.02 181.252C1377.51 181.415 1377.73 182.231 1378.25 182.065C1380.87 181.232 1383.54 180.599 1386.26 180.203C1387.36 181.182 1388.38 182.239 1388.9 183.452C1389.12 183.95 1389.85 183.519 1389.63 183.027C1389.15 181.905 1388.23 180.945 1387.26 180.068C1387.53 180.034 1387.79 180 1388.05 179.972C1389.64 179.803 1391.24 179.708 1392.85 179.694C1394.19 179.682 1395.57 179.86 1396.9 179.674C1401.92 178.979 1405.33 174.051 1407.85 170.115C1413.82 160.77 1416.91 149.566 1416.51 138.474Z" fill="#21552F"/>
<path d="M1726.91 105.378C1725.55 104.796 1723.98 105.375 1722.68 105.876C1721.15 106.467 1719.71 107.235 1718.35 108.157C1714.29 110.931 1711.19 114.799 1708.46 118.886C1710.13 114.579 1711.76 110.259 1713.35 105.924C1714.46 102.897 1715.55 99.8615 1716.62 96.8205C1717.47 94.4266 1718.6 91.968 1718.85 89.4193C1719.01 87.8327 1718.85 85.858 1717.44 84.8396C1715.6 83.509 1713.38 84.7271 1711.64 85.6048C1707.13 87.8777 1702.96 90.8427 1699.3 94.3225C1697.78 95.7628 1696.36 97.2903 1695.03 98.8994C1697.34 94.1678 1699.44 89.3377 1701.32 84.4177C1704.54 75.9981 1707.62 67.1004 1708.81 58.1323C1709.38 53.8339 1709.45 49.1557 1708.06 44.9896C1706.75 41.0681 1702.69 42.8235 1699.86 44.0331C1692.49 47.1894 1686.24 53.0406 1681.37 59.3081C1679.61 61.5727 1678.02 63.961 1676.6 66.4449C1678.05 60.1661 1679.12 53.7804 1680.31 47.4735C1681.32 42.0555 1682.45 35.9596 1683.5 30.2828C1684.48 24.997 1686.71 18.7323 1685.03 13.3847C1683.54 8.65869 1678.77 7.73319 1674.47 9.10034C1669.7 10.6194 1665.45 13.6716 1662.02 17.2695C1655.21 24.4091 1651.62 33.6726 1648.75 42.9698C1648.74 40.4661 1648.6 37.9709 1648.19 35.5123C1647.54 31.6106 1645.7 24.8901 1640.96 24.3275C1636.57 23.8099 1632.43 27.9395 1629.96 31.0648C1626.97 34.8484 1624.97 39.3072 1623.37 43.8306C1619.59 54.5709 1617.88 65.9386 1617.31 77.2809C1616.99 83.5962 1617.02 89.9172 1617.22 96.2326C1615.73 88.8286 1613.52 81.5736 1610.59 74.586C1610.41 74.1668 1609.82 73.9896 1609.56 74.4509C1596.73 96.9584 1600.27 124.045 1607.53 147.723C1608.17 149.799 1608.83 151.867 1609.52 153.926C1608.39 154.444 1607.24 154.846 1605.97 154.894C1605.24 154.922 1605.24 156.047 1605.97 156.019C1607.37 155.965 1608.64 155.532 1609.87 154.972C1611.53 159.918 1613.29 164.827 1615.07 169.733C1615.31 170.408 1616.4 170.118 1616.15 169.434C1614.38 164.512 1612.58 159.524 1610.9 154.48C1611.67 154.095 1612.43 153.687 1613.2 153.316C1614.49 152.702 1616 152.109 1617.45 152.466C1619.09 152.871 1620.21 154.286 1621.51 155.265C1626.5 159.009 1632.96 159.58 1638.94 160.362C1642.55 160.835 1646.08 161.527 1649.58 162.545C1653.21 163.606 1656.8 164.829 1660.49 165.702C1667.25 167.302 1674.31 167.997 1681.23 167.131C1687.71 166.32 1693.9 164.073 1699.27 160.351C1704.11 156.998 1708.17 152.669 1711.62 147.926C1715.3 142.879 1718.3 137.371 1720.98 131.742C1723.88 125.666 1727.01 119.305 1728.46 112.703C1728.95 110.45 1729.67 106.554 1726.91 105.378Z" fill="#21552F"/>
<path d="M416.555 0.0140381H409.955C404.793 2.7371 400.025 6.18312 395.834 10.2733C389.87 16.0936 383.985 23.627 383.462 32.2575C383.436 32.6542 383.971 32.9974 384.309 32.7442C396.526 23.5482 409.306 13.7672 416.555 0.0140381Z" fill="#21552F"/>
<path d="M809.295 16.3524C806.535 14.7686 803.626 13.4634 800.616 12.4422C800.459 9.54474 800.186 6.6529 799.806 3.77512C808.212 13.9444 819.391 21.6972 831.943 25.9422C832.289 26.0575 832.66 25.7509 832.655 25.3992C832.576 21.1009 829.808 17.5508 827.152 14.4029C824.398 11.1369 821.273 8.19165 817.875 5.60362C815.081 3.47694 812.091 1.60343 808.96 0.0140381H796.909C796.934 0.0506081 796.962 0.0871781 796.988 0.123748C797.618 3.82857 798.054 7.56152 798.301 11.3057C790.996 17.7308 783.462 24.4428 778.928 33.1999C774.708 41.3466 773.316 51.4061 777.628 59.8032C777.842 60.2167 778.365 60.1154 778.598 59.8032C783.822 52.8577 787.899 45.1639 791.513 37.2817C793.325 33.3293 795.035 29.3291 796.734 25.3233C797.367 23.8324 797.992 22.3302 798.515 20.7999C798.479 22.5158 798.403 24.2318 798.287 25.9478C796.152 41.2594 795.806 58.0591 806.496 70.3747C806.755 70.6729 807.376 70.5407 807.435 70.1272C809.821 53.5216 805.345 37.127 800.751 21.2922C800.774 20.3807 800.788 19.4693 800.788 18.5578C805.174 28.91 812.82 37.819 822.404 43.7518C825.681 45.78 829.172 47.4284 832.809 48.6971C833.228 48.8434 833.6 48.3961 833.501 48.0051C830.134 34.7387 821.143 23.16 809.295 16.3524Z" fill="#21552F"/>
<path d="M523.37 0.0140381C518.939 3.83138 513.893 8.27323 508.883 11.241C494.958 19.4862 478.029 20.3498 462.281 19.067C444.069 17.5845 426.035 13.3115 407.668 14.3242C391.94 15.1906 374.682 19.8744 359.593 13.4859C360.425 13.694 361.255 13.9275 362.096 14.1751C364.068 14.7574 366.088 15.2525 368.156 15.0106C371.7 14.5942 374.629 12.2734 377.056 9.8148C379.943 6.8892 382.559 3.69354 385.377 0.700429C385.594 0.47257 385.811 0.24471 386.03 0.0168512H384.097C382.494 1.7272 380.916 3.45724 379.363 5.20135C376.882 7.99192 374.381 11.0779 370.952 12.7376C366.603 14.8418 362.546 12.4788 358.209 11.7136C357.247 11.5448 356.279 11.4267 355.308 11.3423C350.163 8.3745 345.33 3.83138 340.779 0.0196642H336.838C341.139 3.51632 345.586 7.84564 350.132 11.0244C349.108 10.9625 348.084 10.8866 347.063 10.7684C342.931 10.2846 339.561 8.77396 336.883 5.52486C335.454 3.79481 334.179 1.95506 332.506 0.441626C332.348 0.298159 332.188 0.160318 332.025 0.0224773H329.749C330.303 0.419121 330.837 0.841083 331.349 1.29117C332.919 2.67802 334.146 4.34055 335.442 5.96932C337.862 9.00744 340.725 10.9879 344.557 11.784C347.15 12.3212 349.795 12.4141 352.436 12.5519C358.816 16.4959 365.872 18.6113 373.413 19.112C382.162 19.6915 390.902 18.4172 399.586 17.5283C408.777 16.5887 417.874 16.538 427.076 17.4045C436.477 18.2906 445.802 19.8209 455.184 20.8955C471.337 22.7493 488.454 23.1206 503.712 16.6646C511.673 13.2974 518 7.84564 524.512 2.30107C525.179 1.73283 526.473 0.576653 527.148 0.0196642H523.37V0.0140381Z" fill="#21552F"/>
<path d="M229.179 0.0140381C228.374 2.6527 227.575 4.88629 226.43 7.36461C223.766 13.1258 218.492 19.9334 211.282 18.721C204.938 17.6548 200.98 11.227 198.488 5.88212C197.543 3.85389 196.834 2.12947 196.108 0.0140381H194.634C195.157 1.57248 195.607 2.7596 196.249 4.27585C198.702 10.0933 202.201 16.6618 208.32 19.2864C214.57 21.9673 220.756 18.4509 224.531 13.4043C227.561 9.35345 229.198 4.90598 230.591 0.0140381H229.179V0.0140381Z" fill="#21552F"/>
<path d="M1183.31 0.0140435C1178.98 5.74147 1173.72 10.6447 1166.97 13.2805C1152.58 18.9067 1137.26 11.8233 1122.7 10.7684C1115.89 10.2761 1108.97 11.0272 1102.93 14.3973C1101.28 15.3172 1099.69 16.389 1097.91 17.0613C1096.06 17.7617 1094.09 17.9052 1092.13 17.7786C1088.52 17.548 1084.92 16.6393 1081.52 15.4269C1072.51 12.2115 1064.95 6.56851 1058.16 0.0112305H1056.15C1061.96 5.74709 1068.3 10.8669 1075.71 14.4873C1078.9 16.0458 1082.24 17.3145 1085.7 18.15C1088.97 18.9404 1092.52 19.5734 1095.87 19.0473C1099.57 18.465 1102.46 16.0148 1105.8 14.5183C1109.14 13.0161 1112.79 12.2959 1116.44 12.0934C1131.56 11.2551 1146.11 18.7463 1161.25 16.2821C1171.41 14.628 1179.07 7.98068 1184.98 0.0140435H1183.31Z" fill="#21552F"/>
<path d="M1780.91 0.0140381C1779.45 1.986 1777.93 3.90171 1776.33 5.73302C1771.38 11.3929 1765.07 15.3031 1757.39 15.4916C1749.67 15.6801 1743.07 12.1693 1737.95 6.56288C1736.07 4.49808 1734.31 2.30388 1732.65 0.0168512H1731C1732.39 1.98319 1733.85 3.90171 1735.39 5.7499C1740.2 11.5505 1746.22 15.8657 1753.86 16.7406C1761.24 17.5817 1768.4 15.1315 1773.91 10.2143C1776.74 7.68248 1779.11 4.68656 1781.36 1.62874C1781.75 1.09426 1782.13 0.554149 1782.52 0.0168512H1780.91V0.0140381Z" fill="#21552F"/>
<path d="M379.246 143.826C374.432 140.073 368.021 139.027 362.229 140.928C356.229 142.897 352.575 147.685 349.475 152.912C347.826 155.691 346.276 158.555 344.257 161.09C342.175 163.706 339.396 165.56 337.165 168.021C332.895 172.733 332.872 179.287 330.591 184.928C328.022 191.277 322.011 193.834 316.314 196.771C310.635 199.696 305.886 203.761 303.225 209.694C300.485 215.81 300.6 222.803 297.725 228.859C294.887 234.843 288.952 237.709 284.138 241.833C279.564 245.752 276.883 251.201 277.069 257.286C277.092 258.031 277.159 258.774 277.269 259.505C276.349 259.241 275.378 259.142 274.405 259.227C273.868 259.274 273.862 260.118 274.405 260.07C275.449 259.98 276.473 260.099 277.432 260.433C277.795 262.222 278.414 263.955 279.28 265.581C279.536 266.06 280.265 265.635 280.009 265.157C279.283 263.798 278.748 262.352 278.4 260.864C278.644 260.993 278.884 261.134 279.114 261.294C280.746 262.428 281.455 264.009 282.034 265.851C282.476 267.258 283.013 268.456 284.155 269.427C285.32 270.417 286.763 271.084 288.13 271.739C294.322 274.696 301.146 276.279 308.002 276.412C311.428 276.479 314.866 276.178 318.227 275.514C320.9 274.985 323.82 274.333 325.969 272.546C326.827 271.832 327.533 270.918 327.839 269.829C328.245 268.394 327.803 266.988 327.55 265.57C326.931 262.11 328.323 258.912 330.546 256.307C334.625 251.524 340.569 249.209 345.427 245.4C347.604 243.693 349.632 241.659 350.836 239.133C352.091 236.503 352.116 233.718 351.956 230.862C351.779 227.669 351.354 223.928 353.883 221.486C355.27 220.147 357.247 219.287 358.91 218.341C360.671 217.343 362.429 216.344 364.19 215.343C365.374 214.667 366.702 213.992 367.422 212.777C368.182 211.494 368.058 209.967 367.903 208.546C367.507 204.912 367.782 201.438 368.868 197.935C373.068 184.416 386.048 174.165 386.456 159.348C386.627 153.306 384.025 147.553 379.246 143.826Z" fill="#053C13"/>
<path d="M149.816 91.0537C150.221 87.3489 149.298 83.5371 147.405 80.3415C143.242 73.3228 134.617 69.9078 126.721 70.0287C122.979 70.085 119.182 70.9458 115.907 72.7912C112.394 74.7744 109.977 77.79 108.469 81.5061C106.697 85.872 105.662 90.3448 102.939 94.2831C100.345 98.0329 96.9105 100.97 92.9469 103.184C89.6106 105.046 86.0408 106.554 82.9492 108.83C79.8774 111.091 77.7647 114.056 76.8505 117.781C75.6887 122.512 76.271 127.562 74.631 132.195C73.5339 135.292 71.4466 137.838 68.9148 139.889C63.8484 143.99 57.6147 146.277 52.1854 149.819C49.6424 151.479 47.2344 153.439 45.4537 155.92C43.0204 159.31 42.1962 163.364 41.9205 167.462C41.5689 172.65 41.4676 177.789 40.6462 182.94C39.8726 187.787 39.2228 193.09 34.6572 195.849C31.0452 198.032 26.6596 199.096 22.6988 200.471C19.3962 201.619 16.0965 202.834 12.9796 204.429C11.8769 203.551 10.746 202.707 9.58139 201.909C9.13412 201.602 8.61088 202.263 9.06097 202.572C10.1215 203.301 11.1539 204.069 12.1638 204.865C11.95 204.98 11.7334 205.093 11.5196 205.211C8.36333 206.992 5.53056 209.245 3.29417 212.112C2.95941 212.542 3.6233 213.062 3.95805 212.632C6.38855 209.515 9.48856 207.245 12.8868 205.442C18.6226 210.117 23.4611 215.867 27.0112 222.377C28.5978 225.288 29.8412 229.871 33.5629 230.667C34.9272 230.959 36.4181 230.678 37.338 229.561C38.061 228.683 38.1876 227.288 39.535 227.041C40.7278 226.821 42.3819 227.53 43.5352 227.8C48.6325 229.001 53.727 230.211 58.8271 231.401C62.9061 232.354 67.0497 232.875 70.3748 229.817C73.4973 226.945 75.6155 222.7 77.5819 219.001C79.8239 214.778 81.6833 210.39 83.2727 205.886C84.6146 202.08 85.9227 198.094 88.415 194.859C91.065 191.421 94.7304 190.066 98.8628 189.278C102.376 188.608 106.135 188.147 109.105 185.978C112.101 183.787 113.547 180.242 114.028 176.661C115.19 168.034 110.357 157.918 115.398 150.03C119.08 144.269 126.726 143.079 132.336 139.996C134.856 138.612 137.143 136.78 138.468 134.175C140.173 130.817 139.824 126.965 139.171 123.382C138.457 119.466 137.244 115.423 137.866 111.412C138.547 107.015 141.838 104.011 144.713 100.905C147.326 98.0723 149.388 94.9723 149.816 91.0537Z" fill="#053C13"/>
<path d="M1887.98 0.0140381V30.2574C1886.87 29.3488 1886.65 27.0618 1886.44 25.9225C1886.41 25.7621 1886.39 25.6046 1886.36 25.4443C1885.49 27.3825 1884.55 29.2925 1883.52 31.1492C1882.1 33.6978 1880.53 36.6178 1878.28 38.5419C1876.98 39.6615 1875.31 40.2804 1874.46 38.3563C1874.22 37.7908 1874.08 37.1523 1874 36.48C1872.45 39.3915 1870.75 42.2186 1868.84 44.9304C1867.91 46.2498 1866.24 47.811 1865.05 45.7519C1864.55 44.8629 1864.64 43.6674 1864.65 42.694C1864.68 41.2509 1864.77 39.8078 1864.92 38.3703C1864.41 39.4478 1863.9 40.5252 1863.37 41.5941C1862.34 43.6899 1861.03 46.5058 1858.79 47.5916C1855.62 49.1275 1856.01 44.5057 1856.63 41.1722C1855.86 42.4802 1855.03 43.7602 1854.16 45.0064C1852.58 47.2512 1850.78 49.8702 1848.6 51.5805C1846.98 52.8492 1845.39 52.3907 1844.84 50.3625C1844.14 47.8279 1845.52 45.1555 1846.44 42.8684C1847.6 39.9794 1848.76 37.0904 1849.92 34.2014C1848.41 36.283 1846.9 38.3647 1845.39 40.4464C1843.53 43.0147 1841.73 45.6506 1839.62 48.0248C1838.37 49.4285 1835.88 52.4835 1833.81 52.7001C1829.35 53.1727 1834.96 43.5605 1835.63 42.3902C1835.8 42.0949 1835.99 41.8079 1836.16 41.5154C1835.22 42.4212 1834.27 43.3185 1833.3 44.199C1831.26 46.0444 1829.11 47.7998 1826.73 49.1838C1825.31 50.0137 1823.26 51.3949 1821.54 50.7394C1821.22 50.6185 1821.05 50.3766 1821.11 50.0362C1821.47 47.7745 1822.74 45.946 1824.09 44.1484C1825.77 41.9036 1827.63 39.7966 1829.65 37.8499C1830.55 36.9807 1831.49 36.148 1832.45 35.3491C1831.37 35.7514 1830.29 36.1283 1829.2 36.4715C1828.09 36.8231 1820.26 39.8613 1820.93 36.1396C1821.18 34.733 1823.59 33.8891 1824.62 33.2815C1827.04 31.8637 1829.49 30.519 1831.98 29.2447C1833 28.7243 1834.02 28.2208 1835.05 27.7257C1830.92 28.6709 1826.76 29.5148 1822.59 30.2546C1822.32 30.3024 1822.08 30.2349 1821.93 29.9986C1820.66 28.0689 1824 26.0772 1825.24 25.132C1827.18 23.6439 1829.29 22.3864 1831.49 21.3147C1829.76 21.6804 1827.76 22.0404 1826.44 21.3006C1825.27 20.6508 1825.22 19.3089 1826.08 18.3694C1827.57 16.7462 1830.82 15.9417 1832.8 15.1653C1835.54 14.0907 1838.33 13.1427 1841.16 12.3297C1841.33 12.2819 1841.49 12.2425 1841.65 12.1947C1838.83 12.4141 1836 12.5688 1833.17 12.6476C1831.64 12.6926 1828.72 13.1427 1827.85 11.3732C1827.15 9.92451 1828.62 8.9118 1829.75 8.4167C1833.04 6.97078 1836.49 5.78085 1840.02 4.81596C1837.5 5.00162 1834.8 5.26887 1832.42 4.51496C1830.88 4.0283 1830.16 2.9537 1831.41 1.73001C1832.09 1.06613 1832.93 0.5007 1833.85 0.0140381H1887.98V0.0140381Z" fill="#66994D"/>
<path d="M1882.53 0.0140381C1869.76 7.80626 1857.79 16.8812 1846.83 27.0927C1846.43 27.464 1845.83 26.8677 1846.23 26.4963C1856.9 16.5521 1868.53 7.67686 1880.92 0.0140381H1882.53Z" fill="#4F8037"/>
<path d="M1854.16 21.4581C1852.27 24.6565 1850.72 28.0182 1849.5 31.5233C1849.32 32.0381 1850.13 32.2575 1850.31 31.7483C1851.51 28.3107 1853.04 25.0222 1854.88 21.8829C1855.16 21.4159 1854.43 20.9911 1854.16 21.4581Z" fill="#4F8037"/>
<path d="M1863.5 15.9389C1860.62 23.2669 1857.99 30.685 1855.61 38.1903C1855.45 38.7079 1856.26 38.9301 1856.42 38.4153C1858.8 30.9101 1861.43 23.4892 1864.31 16.1639C1864.51 15.6576 1863.7 15.4381 1863.5 15.9389Z" fill="#4F8037"/>
<path d="M1872.72 8.07351C1869.47 16.7828 1866.99 25.7565 1865.31 34.9018C1865.21 35.4335 1866.02 35.6613 1866.12 35.1269C1867.8 25.9816 1870.28 17.0107 1873.53 8.29855C1873.72 7.78939 1872.91 7.56715 1872.72 8.07351Z" fill="#4F8037"/>
<path d="M1880.83 3.35034C1879.01 12.4056 1877.01 21.4215 1874.83 30.3953C1874.7 30.9241 1875.51 31.1492 1875.64 30.6203C1877.82 21.6466 1879.82 12.6279 1881.65 3.57539C1881.76 3.04372 1880.94 2.81867 1880.83 3.35034Z" fill="#4F8037"/>
<path d="M1885.79 4.04517C1885.24 8.92304 1884.69 13.7981 1884.13 18.676C1884.07 19.2161 1884.91 19.2105 1884.98 18.676C1885.53 13.7981 1886.08 8.92304 1886.64 4.04517C1886.7 3.50787 1885.85 3.51068 1885.79 4.04517Z" fill="#4F8037"/>
<path d="M1865.69 7.29148C1859.29 8.86962 1852.81 10.0905 1846.27 10.9457C1845.74 11.016 1845.74 11.8599 1846.27 11.7896C1852.89 10.926 1859.44 9.69947 1865.91 8.10446C1866.44 7.97506 1866.22 7.15926 1865.69 7.29148Z" fill="#4F8037"/>
<path d="M1855.95 14.0709C1848.54 16.3186 1841.07 18.3299 1833.54 20.1078C1833.01 20.2316 1833.24 21.0474 1833.77 20.9208C1841.3 19.1429 1848.77 17.1316 1856.17 14.8839C1856.69 14.7264 1856.47 13.9106 1855.95 14.0709Z" fill="#4F8037"/>
<path d="M1869.66 0.0140381C1860.95 1.55842 1852.25 3.1028 1843.54 4.64999C1843.01 4.74282 1842.78 3.92984 1843.32 3.8342C1850.49 2.55987 1857.67 1.28836 1864.85 0.0140381H1869.66Z" fill="#4F8037"/>
<path d="M887.739 88.5837C887.72 88.2237 887.157 88.2208 887.177 88.5837L888.128 105.836C888.147 106.196 888.71 106.199 888.69 105.836L887.739 88.5837Z" fill="#615C58"/>
<path d="M892.164 81.0813C892.15 80.7212 891.588 80.7184 891.602 81.0813C891.852 87.9396 892.268 94.7866 892.851 101.622C892.882 101.98 893.444 101.982 893.413 101.622C892.828 94.7866 892.412 87.9368 892.164 81.0813Z" fill="#615C58"/>
<path d="M893.588 106.135C893.537 105.777 892.997 105.929 893.045 106.284L893.582 110.132C893.633 110.489 894.173 110.337 894.125 109.983L893.588 106.135Z" fill="#615C58"/>
<path d="M897.267 86.4121C897.231 86.0548 896.665 86.052 896.705 86.4121C897.371 92.7105 898.108 99.0034 898.921 105.285C898.966 105.639 899.529 105.642 899.484 105.285C898.674 99.0034 897.934 92.7134 897.267 86.4121Z" fill="#615C58"/>
<path d="M882.744 0.0140654C880.508 11.7643 876.204 23.5455 874.983 35.4588C874.052 44.5338 875.748 53.8789 873.607 62.8244C872.505 67.4266 870.004 71.3734 868.13 75.6661C866.319 79.8126 865.272 84.2094 864.186 88.5866C863.162 92.7162 862.344 97.9429 859.292 101.13C856.585 103.957 852.487 104.697 848.74 104.894C844.422 105.122 840.022 104.911 835.712 104.59C830.989 104.239 826.269 103.53 821.757 102.053C817.751 100.742 813.88 98.8093 810.614 96.1228C807.143 93.2676 804.648 89.6021 802.676 85.5963C798.366 76.8364 795.964 67.3647 794.537 57.744C793.072 47.8645 791.913 37.9175 790.74 27.9986C790.447 25.5287 790.219 23.0419 790.309 20.5495C790.402 18.0318 790.833 15.5451 791.249 13.0639C791.949 8.8837 792.593 4.63595 791.78 0.419148C791.772 0.376952 791.693 0.0534485 791.685 0.00843923H789.938C790.577 2.77932 790.56 6.01154 790.2 8.85557C789.567 13.8853 788.371 18.752 788.664 23.8605C788.959 29.0253 789.823 34.1817 790.467 39.3099C791.1 44.351 791.707 49.3948 792.38 54.4274C793.691 64.2422 795.702 73.8095 799.618 82.9436C801.418 87.1463 803.531 91.2843 806.642 94.6797C809.382 97.6728 812.8 100.019 816.457 101.746C824.952 105.758 834.455 106.427 843.713 106.607C851.221 106.753 859.64 106.199 863.008 98.3255C864.85 94.0186 865.688 89.3067 866.864 84.7946C868.091 80.0939 869.857 75.8124 872.032 71.4775C874.1 67.3479 875.503 63.1873 876.024 58.5823C876.558 53.8423 876.344 49.0629 876.313 44.306C876.282 39.49 876.6 34.7415 877.433 29.993C878.243 25.3768 879.394 20.828 880.581 16.2962C881.968 10.9991 883.422 5.39267 884.443 0H882.744V0.0140654Z" fill="#327829"/>
<path d="M1277.59 238.138C1280.15 243.539 1282.95 248.828 1285.97 253.99C1287.86 257.225 1290.04 260.316 1291.78 263.633C1293.05 266.055 1294.3 268.559 1297.35 268.823C1298.98 268.964 1300.62 268.66 1302.25 268.657C1304.83 268.652 1307.4 268.652 1309.98 268.652C1315.13 268.654 1320.29 268.663 1325.44 268.663C1338.41 268.663 1351.38 268.663 1364.35 268.663C1375.56 268.663 1386.78 268.663 1398 268.663C1401.21 268.663 1404.47 268.874 1407.67 268.649C1411.97 268.345 1414.84 262.663 1416.48 259.186C1417.56 256.89 1417.5 254.417 1415.69 252.53C1414.1 250.87 1411.73 250.088 1409.44 250.232C1411.65 246.653 1413.45 242.853 1414.51 238.774C1415.34 235.615 1416.3 231.266 1414.92 228.138C1413.43 224.754 1408.87 225.361 1405.94 226.16C1401.81 227.291 1398.2 229.797 1394.82 232.338C1391.42 234.892 1388.15 237.626 1385.04 240.526C1384.67 240.875 1384.29 241.23 1383.92 241.584C1384.12 241.072 1384.32 240.56 1384.52 240.045C1386.6 234.597 1388.47 229.063 1390 223.434C1391.44 218.132 1392.91 212.576 1393.19 207.065C1393.37 203.27 1392.92 196.372 1388.01 195.756C1383.22 195.157 1379.82 200.415 1377.3 203.667C1370.78 212.069 1365.71 221.485 1361.59 231.26C1360.38 234.13 1359.24 237.03 1358.18 239.955C1358.77 236.664 1359.69 233.401 1360.38 230.166C1361.68 224.059 1362.55 217.859 1363.1 211.636C1363.66 205.259 1363.87 198.856 1363.87 192.454C1363.87 189.635 1364.04 186.707 1363.67 183.908C1363.46 182.27 1362.94 180.304 1361.47 179.342C1359.79 178.242 1357.92 179.103 1356.56 180.301C1354.58 182.051 1352.9 184.29 1351.43 186.473C1348.31 191.089 1346.06 196.226 1344.1 201.422C1340.49 210.95 1337.36 220.68 1334.51 230.473C1333.74 223.327 1332.98 216.179 1332.17 209.04C1331.16 200.1 1329.66 190.181 1323.1 183.458C1320.48 180.782 1316.29 178.563 1313.47 182.234C1312.32 183.716 1311.78 185.624 1311.48 187.441C1311.02 190.147 1310.89 192.94 1310.74 195.678C1310.05 208.151 1311.56 220.452 1312.94 232.824C1313.8 240.493 1314.65 248.164 1315.51 255.832C1313.62 251.301 1311.64 246.805 1309.57 242.352C1305.05 232.647 1299.92 222.97 1292.27 215.338C1288.78 211.856 1284.8 208.815 1280.38 206.618C1278.43 205.653 1275.95 204.26 1273.71 204.8C1271.88 205.242 1270.66 206.888 1269.96 208.536C1267.94 213.242 1269.48 218.573 1271.18 223.116C1273.09 228.214 1275.26 233.221 1277.59 238.138Z" fill="#275332"/>
<path d="M1238.41 93.0904C1238.11 88.7863 1235.91 85.6048 1233.56 82.1503C1232.45 80.5215 1231.29 78.7577 1230.99 76.7717C1230.65 74.5269 1231.68 72.5352 1232.8 70.6701C1233.95 68.7488 1235.14 66.8669 1235.67 64.6586C1236.21 62.3631 1236.15 59.9917 1235.86 57.6653C1235.54 55.111 1234.98 52.5933 1234.69 50.0334C1234.39 47.3807 1234.53 44.7336 1234.91 42.0949C1235.66 36.9779 1236.62 31.9678 1236.78 26.7805C1237.05 17.8912 1235.56 8.45895 1232.75 0.0506592H1230.4C1233.03 7.64315 1234.54 16.223 1234.57 24.2628C1234.59 29.3854 1233.93 34.3758 1233.07 39.4169C1232.65 41.9289 1232.26 44.4691 1232.26 47.0206C1232.25 49.378 1232.63 51.7156 1233.03 54.0336C1233.45 56.5119 1233.91 59.0071 1233.82 61.5333C1233.73 63.9413 1232.96 66.0145 1231.74 68.0624C1229.63 71.6153 1227.72 75.022 1229.34 79.2022C1230.79 82.9605 1233.99 85.7482 1235.39 89.5234C1236.83 93.3857 1236.09 97.5688 1235.17 101.456C1234.12 105.904 1232.65 110.408 1232.82 115.032C1232.91 117.322 1233.52 119.407 1234.35 121.528C1235.2 123.714 1236.51 126.397 1234.94 128.538C1234.08 129.705 1236.03 130.831 1236.88 129.674C1239.59 125.986 1236.4 121.621 1235.47 117.902C1234.43 113.741 1235.52 109.395 1236.53 105.341C1237.52 101.355 1238.7 97.2368 1238.41 93.0904Z" fill="#66994D"/>
<path d="M1514.68 93.0904C1514.38 88.7863 1512.18 85.6048 1509.83 82.1503C1508.72 80.5215 1507.56 78.7577 1507.26 76.7717C1506.92 74.5269 1507.95 72.5352 1509.06 70.6701C1510.21 68.7488 1511.41 66.8669 1511.93 64.6586C1512.48 62.3631 1512.41 59.9917 1512.12 57.6653C1511.8 55.111 1511.24 52.5933 1510.95 50.0334C1510.65 47.3807 1510.79 44.7336 1511.18 42.0949C1511.92 36.9779 1512.89 31.9678 1513.05 26.7805C1513.32 17.8912 1511.83 8.45895 1509.02 0.0506592H1506.67C1509.29 7.64315 1510.8 16.223 1510.83 24.2628C1510.85 29.3854 1510.19 34.3758 1509.34 39.4169C1508.91 41.9289 1508.53 44.4691 1508.52 47.0206C1508.52 49.378 1508.9 51.7156 1509.29 54.0336C1509.71 56.5119 1510.17 59.0071 1510.08 61.5333C1510 63.9413 1509.23 66.0145 1508.01 68.0624C1505.9 71.6153 1503.99 75.022 1505.61 79.2022C1507.06 82.9605 1510.26 85.7482 1511.66 89.5234C1513.09 93.3857 1512.35 97.5688 1511.43 101.456C1510.39 105.904 1508.91 110.408 1509.09 115.032C1509.18 117.322 1509.78 119.407 1510.61 121.528C1511.47 123.714 1512.78 126.397 1511.2 128.538C1510.35 129.705 1512.3 130.831 1513.15 129.674C1515.86 125.986 1512.67 121.621 1511.74 117.902C1510.69 113.741 1511.78 109.395 1512.79 105.341C1513.79 101.355 1514.97 97.2368 1514.68 93.0904Z" fill="#66994D"/>
<path d="M1268.91 34.2914C1268.7 31.6977 1268.04 29.1969 1267.42 26.682C1266.73 23.8971 1266.36 21.1937 1266.52 18.3215C1266.67 15.6744 1267.05 13.0498 1267.12 10.3971C1267.18 7.88221 1267.04 5.36732 1266.72 2.87212C1266.62 2.11541 1266.42 0.76513 1266.28 0.0140381H1264.01C1264.11 0.534457 1264.28 1.65125 1264.36 2.17448C1265.18 7.53902 1264.62 12.6869 1264.28 18.0515C1264.12 20.6592 1264.32 23.1938 1264.88 25.7452C1265.46 28.3558 1266.29 30.9213 1266.59 33.5881C1267.13 38.4885 1266.14 43.4114 1265.48 48.2499C1264.79 53.3612 1264.44 58.6189 1266.43 63.4995C1266.96 64.8245 1269.14 64.245 1268.59 62.9004C1264.84 53.6707 1269.64 43.7968 1268.91 34.2914Z" fill="#66994D"/>
<path d="M1087.69 0.0140435C1087.33 1.88193 1086.88 3.72449 1086.17 5.46297C1084.83 8.70082 1082.3 11.0948 1079.62 13.2439C1076.87 15.4438 1074.04 17.5958 1071.06 19.4665C1068.25 21.2303 1065.26 22.7353 1062 23.4695C1058.47 24.2656 1054.87 23.928 1051.46 22.7606C1044.76 20.4679 1039.12 15.4635 1034.46 10.2649C1031.8 7.29147 1029.31 4.10426 1027.15 0.745443C1026.99 0.503519 1026.84 0.255968 1026.68 0.0112305H1024C1025.86 3.35317 1028.34 6.43911 1030.63 9.23812C1035.37 15.0274 1041.08 20.5495 1047.93 23.7395C1051.28 25.2952 1054.93 26.2854 1058.64 26.1588C1062.25 26.035 1065.72 24.9013 1068.92 23.2754C1072.31 21.5594 1075.39 19.3089 1078.39 17.0163C1081.13 14.929 1083.94 12.8473 1086.05 10.0961C1088.34 7.11706 1089.25 3.60916 1089.92 0.0140435H1087.69Z" fill="#418A54"/>
<path d="M1096.87 30.1618C1095.92 28.4627 1095.38 26.6511 1095.19 24.7129C1094.84 21.1881 1095.12 17.5733 1095.19 14.04L1095.4 2.89744C1095.42 1.93537 1095.44 0.973297 1095.45 0.0140381H1093.13C1092.98 7.05798 1092.85 14.1019 1092.81 21.1431C1092.79 24.2825 1093.03 27.4303 1094.41 30.3024C1095.69 32.9777 1097.89 35.3238 1098 38.4322C1098.1 41.4225 1096.65 44.2694 1095.6 46.9896C1094.48 49.8983 1093.81 52.7789 1094.12 55.9155C1094.71 61.9805 1098.85 70.3297 1093.76 75.5508C1092.75 76.5888 1094.34 78.181 1095.35 77.143C1099.6 72.7911 1098.54 66.4195 1097.33 61.0634C1096.54 57.5865 1095.81 54.1039 1096.75 50.5791C1097.53 47.6816 1099 45.0176 1099.76 42.1145C1100.52 39.2649 1100.34 36.5193 1099.02 33.8638C1098.38 32.5838 1097.57 31.4052 1096.87 30.1618Z" fill="#66994D"/>
<path d="M1814.64 30.3362C1815.59 28.6371 1816.14 26.8255 1816.33 24.8873C1816.68 21.3625 1816.39 17.7477 1816.33 14.2145L1816.12 3.07186C1816.1 2.10979 1816.08 0.973303 1816.06 0.0112305H1818.38C1818.53 7.05517 1818.66 14.2735 1818.7 21.3147C1818.72 24.4541 1818.48 27.6019 1817.11 30.474C1815.82 33.1493 1813.62 35.4954 1813.52 38.6038C1813.41 41.5941 1814.86 44.441 1815.92 47.1612C1817.04 50.0699 1817.7 52.9505 1817.4 56.0871C1816.81 62.1521 1812.66 70.5013 1817.75 75.7224C1818.77 76.7604 1817.17 78.3526 1816.16 77.3146C1811.92 72.9628 1812.98 66.5911 1814.19 61.235C1814.97 57.7581 1815.7 54.2755 1814.76 50.7507C1813.98 47.8532 1812.51 45.1892 1811.75 42.2861C1811 39.4365 1811.18 36.6909 1812.5 34.0354C1813.14 32.7611 1813.95 31.5824 1814.64 30.3362Z" fill="#826028"/>
<path d="M311.219 49.9068C310.367 39.8163 315.149 30.1477 313.292 20.0206C312.235 14.2567 309.88 8.84148 309.028 3.01841C308.881 2.01977 308.772 1.01831 308.687 0.0112305H306.443C306.859 5.01851 308.128 9.75854 309.571 14.5576C311.084 19.5846 311.875 24.395 311.284 29.647C310.718 34.6768 309.41 39.5968 308.997 44.6491C308.589 49.6311 309.548 54.2502 310.938 59.0071C312.277 63.5896 313.824 68.4393 312.643 73.2272C312.041 75.6633 310.898 77.9138 309.976 80.2346C309.185 82.2206 308.628 84.2685 308.316 86.3839C307.694 90.6092 307.911 94.8794 308.33 99.1131C309.233 108.27 311.492 118.56 306.333 126.898C305.568 128.133 307.514 129.264 308.277 128.034C312.789 120.743 312.015 112.048 311.104 103.904C310.62 99.5885 310.077 95.2536 310.184 90.9017C310.237 88.7469 310.457 86.6005 310.96 84.502C311.52 82.1784 312.493 80.0208 313.411 77.8237C314.342 75.5902 315.09 73.3341 315.27 70.9064C315.442 68.6053 315.121 66.2789 314.629 64.034C313.593 59.3165 311.63 54.7621 311.219 49.9068Z" fill="#66994D"/>
<path d="M1147.15 93.9102C1146.93 91.0464 1146.66 88.1884 1146.36 85.3331C1146.21 83.859 1146.06 82.385 1145.89 80.9137C1145.8 80.0783 1145.78 79.2203 1145.14 78.6014C1144.48 77.9769 1143.36 77.7209 1142.54 77.4508C1141.23 77.0204 1139.88 76.6913 1138.52 76.4606C1135.91 76.019 1133.27 75.9515 1130.64 76.2215C1129.93 76.2947 1129.92 77.4199 1130.64 77.3468C1130.81 77.3299 1130.98 77.3158 1131.14 77.3018C1131.02 77.3918 1130.94 77.5324 1130.93 77.7265C1130.74 85.5131 1130.29 93.3419 1130.44 101.129C1130.5 104.625 1130.83 108.181 1131.94 111.517C1132.26 112.474 1132.67 113.737 1133.79 113.998C1134.11 114.074 1134.42 114.055 1134.68 113.962C1135 115.745 1135.79 117.512 1137.47 118.356C1138.98 119.113 1140.76 118.887 1141.93 117.743C1143.15 118.367 1144.65 118.041 1145.68 117.126C1147.29 115.711 1147.39 113.349 1147.5 111.368C1147.81 105.553 1147.59 99.7163 1147.15 93.9102Z" fill="#343630"/>
<path d="M1134.26 93.5697C1134.24 93.2096 1133.68 93.2068 1133.7 93.5697L1134.65 110.822C1134.67 111.182 1135.23 111.185 1135.21 110.822L1134.26 93.5697Z" fill="#615C58"/>
<path d="M1138.69 86.0673C1138.67 85.7072 1138.11 85.7044 1138.12 86.0673C1138.37 92.9255 1138.79 99.7726 1139.37 106.608C1139.4 106.966 1139.97 106.968 1139.93 106.608C1139.35 99.7726 1138.93 92.9227 1138.69 86.0673Z" fill="#615C58"/>
<path d="M1140.11 111.121C1140.06 110.763 1139.52 110.915 1139.57 111.27L1140.1 115.118C1140.15 115.475 1140.69 115.323 1140.65 114.969L1140.11 111.121Z" fill="#615C58"/>
<path d="M1143.79 91.398C1143.75 91.0408 1143.19 91.038 1143.23 91.398C1143.89 97.6965 1144.63 103.989 1145.44 110.271C1145.49 110.625 1146.05 110.628 1146.01 110.271C1145.2 103.989 1144.46 97.6993 1143.79 91.398Z" fill="#615C58"/>
<path d="M1116.55 23.8645C1119.9 25.5833 1138.33 35.3728 1138.04 31.8255C1137.98 31.0688 1137.47 30.3289 1137.23 29.6088C1136.65 27.8253 1136 26.0643 1135.28 24.3343C1133.82 20.8742 1132.08 17.5379 1130.04 14.3788C1128.75 12.3618 1126.85 8.43196 1124 8.5051C1122.15 8.55292 1121.63 9.80192 1121.78 11.1606C1120.31 10.0945 1118.55 9.41935 1116.92 10.6684C1115.64 11.6586 1115.78 12.9948 1116.4 14.1988C1115.04 13.5236 1113.57 13.0482 1112.46 14.3591C1111.53 15.459 1112.01 16.3817 1112.83 17.1666C1112.74 17.175 1112.64 17.1806 1112.54 17.1975C1111.8 17.3185 1110.54 17.7123 1110.56 18.6603C1110.57 19.6758 1111.98 20.7138 1112.67 21.3187C1113.84 22.3454 1115.17 23.1556 1116.55 23.8645Z" fill="#569B54"/>
<path d="M1133.51 26.1235C1130.42 21.1556 1127.26 16.1624 1122.86 12.2241C1122.46 11.8612 1121.86 12.4576 1122.27 12.8204C1126.61 16.7109 1129.72 21.6394 1132.78 26.5483C1133.07 27.0096 1133.79 26.5876 1133.51 26.1235Z" fill="#3B843A"/>
<path d="M1129.64 24.3344C1125.61 21.2456 1121.58 18.1596 1117.55 15.0709C1117.12 14.7418 1116.7 15.4732 1117.12 15.7995C1121.15 18.8882 1125.18 21.9742 1129.21 25.0629C1129.64 25.3921 1130.06 24.6607 1129.64 24.3344Z" fill="#3B843A"/>
<path d="M1123.79 24.1796C1120.59 22.5565 1117.38 20.9108 1114.56 18.6716C1114.13 18.3369 1113.53 18.9304 1113.96 19.268C1116.85 21.555 1120.09 23.2485 1123.37 24.9082C1123.85 25.153 1124.28 24.4244 1123.79 24.1796Z" fill="#3B843A"/>
<path d="M1174.12 83.5805C1173.39 82.9982 1172.67 82.9701 1172.03 83.2457C1172.16 82.2021 1171.98 81.1753 1171.18 80.5649C1170.62 80.1401 1170.04 80.1851 1169.5 80.4777C1169.29 79.7097 1168.78 79.1105 1167.75 78.9811C1166.79 78.8602 1165.99 79.3299 1165.32 80.0445C1165.03 79.4425 1164.62 78.9868 1164.01 78.8827C1162.26 78.5873 1160.9 80.8152 1160.48 82.1908C1159.85 84.2753 1159.9 86.6608 1159.91 88.8916C1159.91 89.2179 1159.91 89.5414 1159.91 89.8621C1159.91 89.9662 1159.91 90.0731 1159.91 90.1772C1159.9 90.8636 1159.87 91.5556 1159.85 92.2504C1159.84 92.5289 1159.83 92.8102 1159.81 93.0887C1159.79 93.8989 1159.76 94.709 1159.75 95.5192C1159.75 95.6205 1159.75 95.7189 1159.75 95.8202C1159.75 96.0031 1159.75 96.1859 1159.75 96.3687C1159.76 97.6515 1159.83 98.9286 1160.02 100.186C1160.04 100.282 1160.05 100.375 1160.07 100.47C1160.1 100.687 1160.15 100.875 1160.2 101.038C1160.62 102.372 1161.49 102.046 1162.35 101.331C1163.01 100.777 1163.67 99.992 1164.11 99.556C1164.77 98.9061 1165.42 98.2507 1166.06 97.5868C1166.07 97.5868 1166.07 97.584 1166.07 97.584C1166.16 97.4855 1166.26 97.3871 1166.36 97.2886V97.2858C1166.79 96.8329 1167.22 96.3828 1167.66 95.9243V95.9215C1167.88 95.688 1168.1 95.4545 1168.32 95.2182C1168.42 95.1141 1168.52 95.01 1168.61 94.906C1168.62 94.906 1168.62 94.9031 1168.62 94.9031C1170.56 92.8665 1172.74 90.8298 1174.33 88.5287C1175.37 87.0293 1175.75 84.8492 1174.12 83.5805Z" fill="#569B54"/>
<path d="M1164.79 80.3792C1163.22 85.0293 1162.03 89.7862 1161.23 94.6275C1161.15 95.1591 1161.96 95.387 1162.05 94.8525C1162.85 90.0112 1164.04 85.2543 1165.61 80.6043C1165.78 80.0867 1164.97 79.8673 1164.79 80.3792Z" fill="#3B843A"/>
<path d="M1168.61 81.5917C1167.74 84.1685 1166.63 86.6327 1165.3 89.0042C1165.03 89.4768 1165.76 89.9044 1166.03 89.4289C1167.4 86.9956 1168.53 84.4582 1169.43 81.8168C1169.6 81.2992 1168.79 81.0797 1168.61 81.5917Z" fill="#3B843A"/>
<path d="M1171.14 84.4582C1168.62 88.2249 1166.03 91.9523 1163.39 95.6374C1163.07 96.0791 1163.8 96.501 1164.12 96.0622C1166.76 92.377 1169.35 88.6525 1171.87 84.883C1172.18 84.4329 1171.44 84.0081 1171.14 84.4582Z" fill="#3B843A"/>
<path d="M1208.37 87.966C1208.2 87.063 1208.04 85.3133 1207.18 84.7816C1206.37 84.2837 1205.39 85.1586 1204.9 85.7325C1204.84 85.8084 1204.78 85.89 1204.73 85.9716C1204.48 84.8632 1203.93 83.9799 1202.51 84.2106C1200.81 84.4863 1200.47 85.9885 1200.35 87.5019C1199.63 86.3513 1198.56 85.544 1197.05 86.1432C1195.14 86.8971 1194.82 88.7537 1194.98 90.5597C1193.89 89.7383 1192.55 89.5442 1191.56 91.1054C1190.03 93.5134 1192.43 97.1564 1193.5 99.3056C1195.16 102.67 1197.13 105.883 1199.35 108.907C1200.46 110.417 1201.64 111.88 1202.87 113.292C1203.37 113.86 1203.74 114.682 1204.35 115.123C1207.25 117.197 1208.32 96.349 1208.56 92.5964C1208.66 91.052 1208.65 89.4907 1208.37 87.966Z" fill="#569B54"/>
<path d="M1202.47 108.434C1200.53 103.503 1198.59 98.5714 1196.65 93.64C1196.46 93.1393 1195.64 93.3587 1195.84 93.8651C1197.78 98.7964 1199.72 103.728 1201.66 108.659C1201.85 109.157 1202.67 108.94 1202.47 108.434Z" fill="#3B843A"/>
<path d="M1203.47 107.393C1202.42 101.134 1201.47 94.8581 1200.64 88.5652C1200.57 88.0336 1199.73 88.0279 1199.8 88.5652C1200.64 94.9312 1201.59 101.283 1202.66 107.618C1202.75 108.153 1203.56 107.925 1203.47 107.393Z" fill="#3B843A"/>
<path d="M1205.5 86.9562C1205.47 86.4161 1204.63 86.4133 1204.65 86.9562C1204.92 93.0803 1204.94 99.2071 1204.71 105.334C1204.69 105.877 1205.54 105.877 1205.56 105.334C1205.78 99.2071 1205.77 93.0803 1205.5 86.9562Z" fill="#3B843A"/>
<path d="M1208.26 167.464C1207.68 166.729 1206.98 166.535 1206.3 166.656C1206.67 165.672 1206.73 164.631 1206.09 163.852C1205.65 163.311 1205.07 163.221 1204.48 163.379C1204.45 162.586 1204.09 161.882 1203.12 161.52C1202.21 161.179 1201.32 161.452 1200.51 161.995C1200.37 161.342 1200.07 160.802 1199.5 160.566C1197.86 159.871 1196.03 161.728 1195.3 162.971C1193.99 165.222 1193.54 168.116 1192.91 170.611C1192.07 173.908 1190.91 177.25 1190.69 180.665C1190.48 184.035 1193.54 181.501 1194.84 180.708C1196.56 179.658 1198.26 178.57 1199.94 177.458C1202.38 175.835 1205.14 174.299 1207.32 172.33C1208.68 171.109 1209.55 169.075 1208.26 167.464Z" fill="#569B54"/>
<path d="M1199.66 162.386C1198.28 164.499 1196.89 166.622 1195.87 168.938C1194.91 171.112 1194.73 173.728 1193.37 175.695C1193.06 176.142 1193.79 176.567 1194.1 176.119C1195.44 174.176 1195.61 171.68 1196.52 169.534C1197.54 167.149 1198.97 164.971 1200.38 162.808C1200.68 162.355 1199.95 161.933 1199.66 162.386Z" fill="#3B843A"/>
<path d="M1203.17 164.136C1202.05 165.497 1200.93 166.859 1199.81 168.22C1198.9 169.326 1197.95 170.386 1197.38 171.717C1197.18 172.212 1197.9 172.642 1198.11 172.142C1198.71 170.721 1199.77 169.587 1200.74 168.409C1201.75 167.182 1202.76 165.959 1203.77 164.732C1204.11 164.316 1203.52 163.714 1203.17 164.136Z" fill="#3B843A"/>
<path d="M1204.79 168.018C1202.05 171.531 1198.81 174.564 1195.1 177.042C1194.65 177.343 1195.08 178.075 1195.53 177.771C1199.29 175.253 1202.6 172.187 1205.38 168.614C1205.72 168.192 1205.12 167.59 1204.79 168.018Z" fill="#3B843A"/>
<path d="M1161.66 22.2639C1161.29 23.7492 1160.91 25.2345 1160.52 26.7226C1160.45 26.9955 1160.38 27.2683 1160.31 27.5412C1158.82 33.339 1157.29 39.1592 1155.92 45.0132C1155.84 45.3395 1155.76 45.6687 1155.69 45.9978C1155.16 48.2764 1154.65 50.5634 1154.18 52.8561C1154.12 53.174 1154.05 53.4918 1153.99 53.8097C1152.85 59.5062 1151.94 65.2336 1151.42 71.0004C1151.39 71.2986 1151.36 71.5968 1151.34 71.8922C1151.26 72.8289 1151.2 73.7629 1151.14 74.6996V74.7081C1151.14 74.7165 1151.14 74.7221 1151.14 74.7278C1151.12 75.1075 1151.09 75.4901 1151.08 75.8699C1151 77.3552 1150.96 78.8433 1150.95 80.3342C1150.6 78.3426 1150.15 76.3734 1149.66 74.4127C1149.54 73.9429 1149.43 73.4759 1149.3 73.009C1149.12 72.3057 1148.94 71.5996 1148.75 70.8963C1148.71 70.7529 1148.68 70.6038 1148.64 70.4547C1148.54 70.0749 1148.44 69.6783 1148.33 69.2676C1147.93 67.7851 1147.43 66.1619 1146.65 64.8173C1146.83 63.3826 1147.05 61.9508 1147.31 60.5273V60.5217C1147.71 58.2797 1148.21 56.0602 1148.85 53.8716C1149.38 52.0431 1150.05 50.2849 1150.78 48.5521C1150.92 48.2089 1151.07 47.8657 1151.22 47.5253C1151.88 45.9922 1152.57 44.4675 1153.23 42.9259C1153.36 42.6221 1153.49 42.3155 1153.62 42.0089C1153.67 41.8935 1153.72 41.781 1153.77 41.6657C1154.95 38.8216 1157.11 31.8115 1158.63 26.8042C1158.71 26.5313 1158.79 26.2641 1158.87 26.0053C1159.53 23.7914 1160.04 22.081 1160.23 21.4931C1160.63 20.2553 1162.24 19.974 1161.66 22.2639Z" fill="#996636"/>
<path d="M1252.31 59.9338C1250.42 61.8129 1248.78 63.903 1247.46 66.2154C1246.23 68.3842 1245.47 70.7472 1244.37 72.978C1244.36 73.0146 1244.34 73.0511 1244.32 73.0849C1244.14 73.4365 1243.95 73.7741 1243.75 74.1004C1243.48 74.5308 1243.19 74.9387 1242.88 75.3354C1242.47 75.8558 1242.02 76.3481 1241.55 76.8207C1239.28 79.1246 1236.42 80.9503 1234.01 83.0544C1233.86 83.1867 1233.71 83.3189 1233.56 83.4511C1233.34 83.6396 1233.13 83.828 1232.92 84.0193C1230.19 86.4723 1227.59 89.0744 1225.14 91.8059C1224.89 92.0872 1224.64 92.3685 1224.39 92.6527C1223.5 93.6654 1222.63 94.6978 1221.78 95.747C1221.47 96.1296 1221.16 96.5122 1220.85 96.892C1220.62 97.1789 1220.38 97.463 1220.15 97.7499C1219.25 98.8499 1218.37 99.9526 1217.52 101.072C1217.27 101.39 1217.04 101.708 1216.8 102.031V102.034C1214.98 104.524 1213.38 107.126 1212.29 110.043C1211.43 112.35 1210.41 114.603 1209.31 116.82C1209.16 117.118 1209.01 117.416 1208.86 117.714C1208.59 118.246 1208.31 118.775 1208.04 119.301C1207.86 119.641 1207.68 119.985 1207.5 120.325V120.328C1207.47 120.395 1207.43 120.463 1207.39 120.53C1204.99 125.068 1203.25 129.529 1201.27 133.994C1201.02 134.548 1200.77 135.099 1200.51 135.653C1199.7 137.409 1198.84 139.164 1197.86 140.928C1194.52 146.939 1192.92 153.165 1190.89 159.669C1190.82 159.896 1190.75 160.124 1190.67 160.352C1190.67 160.38 1190.65 160.411 1190.65 160.439C1189.76 163.337 1190.36 166.178 1191.04 169.045C1191.11 169.323 1191.18 169.602 1191.25 169.883C1191.43 170.645 1191.62 171.41 1191.77 172.181C1191.79 172.291 1191.81 172.401 1191.83 172.51C1191.89 172.789 1191.94 173.064 1191.99 173.343C1192.44 175.638 1192.86 177.934 1193.27 180.235V180.238C1193.32 180.525 1193.37 180.814 1193.41 181.101C1193.52 181.689 1193.62 182.28 1193.72 182.871C1193.77 183.149 1193.81 183.425 1193.86 183.704V183.706C1193.94 184.151 1194.01 184.592 1194.09 185.037C1195.54 193.67 1196.84 202.329 1198.44 210.937C1198.96 213.733 1199.52 216.521 1200.11 219.297C1200.23 219.849 1200.35 220.397 1200.46 220.946C1202.78 231.562 1205.64 242.024 1209.34 252.275C1211.02 256.95 1212.59 261.606 1213.93 266.357H1198.19C1196.2 255.429 1194.22 244.497 1192.24 233.568C1192.17 233.202 1192.11 232.84 1192.04 232.474C1190.67 224.904 1189.29 217.334 1187.92 209.764C1186.65 202.779 1185.39 195.791 1184.12 188.806C1184.06 188.452 1183.99 188.1 1183.93 187.746C1183.65 186.19 1183.37 184.635 1183.08 183.079C1183.03 182.795 1182.98 182.508 1182.93 182.224C1182.74 181.22 1182.56 180.218 1182.38 179.214C1181.97 176.961 1181.59 174.727 1181.19 172.51V172.507C1181.13 172.164 1181.07 171.824 1181.01 171.481V171.478C1180.96 171.208 1180.91 170.941 1180.86 170.673C1180.8 170.355 1180.74 170.035 1180.68 169.717C1180.25 167.427 1179.79 165.154 1179.26 162.901C1174.04 158.074 1167.6 154.602 1161.22 151.522C1160.43 151.142 1159.64 150.754 1158.85 150.366C1158.5 150.194 1158.14 150.023 1157.79 149.854H1157.79C1156.52 149.241 1155.24 148.644 1153.94 148.098C1153.52 147.921 1153.1 147.75 1152.68 147.586C1150.73 146.83 1148.73 146.216 1146.67 145.882C1142.45 145.192 1137.77 143.685 1134.51 142.298C1133.93 142.05 1134.57 141.291 1135.06 141.358C1140.31 142.087 1145.5 143.161 1150.6 144.576H1150.6C1151.04 144.7 1151.48 144.827 1151.92 144.956H1151.92C1153.45 145.398 1154.98 145.876 1156.48 146.382H1156.49C1156.84 146.501 1157.2 146.622 1157.55 146.745C1158.72 147.15 1159.89 147.575 1161.05 148.02C1163.14 148.816 1165.2 149.671 1167.24 150.585H1167.24C1167.91 150.886 1168.59 151.196 1169.26 151.513H1169.26C1170.55 152.121 1171.83 152.754 1173.1 153.409C1174.24 154 1175.37 154.619 1176.45 155.3C1176.74 155.483 1177.03 155.671 1177.31 155.865C1177.26 155.716 1177.22 155.57 1177.17 155.421C1176.59 153.677 1175.94 151.941 1175.19 150.211C1175.04 149.843 1174.87 149.474 1174.71 149.105C1174.5 148.63 1174.29 148.157 1174.07 147.682V147.679C1172.79 144.9 1171.42 142.168 1170.03 139.445C1169.72 138.849 1169.42 138.255 1169.11 137.659V137.656C1167.46 134.455 1165.79 131.259 1164.23 128.007C1164.03 127.597 1163.83 127.183 1163.64 126.77C1163.24 125.906 1162.84 125.04 1162.45 124.168C1162.06 123.279 1161.67 122.384 1161.3 121.49C1161.13 121.093 1160.97 120.696 1160.8 120.297C1158.74 115.312 1156.9 110.237 1155.08 105.151C1154.99 104.887 1154.89 104.622 1154.8 104.358C1154.68 104.02 1154.56 103.686 1154.44 103.351C1154.35 103.086 1154.25 102.822 1154.16 102.56C1153.91 101.857 1153.66 101.157 1153.41 100.453C1152.98 99.2521 1152.56 98.0481 1152.12 96.8498C1151.77 95.8708 1151.42 94.8975 1151.06 93.9214C1150.99 93.7385 1150.92 93.5528 1150.86 93.37C1150.77 93.1309 1150.68 92.889 1150.59 92.6498C1150.08 91.2658 1149.57 89.8818 1149.06 88.4949V88.4921C1148.69 87.4766 1148.31 86.4611 1147.94 85.4399C1146.1 80.4017 1144.33 75.341 1142.8 70.2099C1142.68 69.7992 1142.56 69.3857 1142.44 68.9722C1142.37 68.7528 1142.31 68.5333 1142.25 68.3139C1141.95 67.2562 1141.66 66.1929 1141.4 65.1267C1141.27 64.6119 1141.15 64.0971 1141.03 63.5795C1139.5 57.0757 1138.57 50.4537 1137.81 43.8176C1137.77 43.4576 1137.73 43.1003 1137.69 42.743C1137.66 42.5011 1137.63 42.2592 1137.61 42.0173C1137.39 40.0537 1137.18 38.0846 1136.98 36.107C1136.93 35.6653 1136.89 35.2237 1136.84 34.782V34.7792C1136.44 31.0407 1136.04 27.2908 1135.53 23.5551V23.5522C1135.46 23.0628 1135.4 22.5789 1135.33 22.0923C1134.52 16.3986 1133.46 10.4771 1131.86 5H1138.05C1138.24 5.71452 1138.42 6.71035 1138.59 7.42769V7.4305C1138.67 7.75682 1138.75 8.08313 1138.83 8.40945C1139.67 11.9933 1140.38 15.6109 1140.98 19.2482C1141.03 19.5661 1141.09 19.8812 1141.14 20.1991C1141.23 20.7307 1141.31 21.2652 1141.39 21.7969C1141.74 24.0305 1142.07 26.2697 1142.38 28.5117C1142.44 28.9308 1142.5 29.3528 1142.55 29.7776V29.7804C1143.32 35.3503 1144.01 40.9258 1144.83 46.4816C1144.89 46.8558 1144.94 47.2271 1145 47.604V47.6069C1145.65 51.9334 1146.39 56.2458 1147.31 60.5217V60.5273C1147.99 63.737 1148.77 66.9299 1149.69 70.0946C1149.8 70.4828 1149.92 70.8682 1150.04 71.2564V71.2592C1150.28 72.0609 1150.53 72.857 1150.79 73.6531C1150.91 74.0048 1151.02 74.3508 1151.14 74.6996V74.708C1151.14 74.7193 1151.15 74.7305 1151.15 74.7418C1151.15 74.7446 1151.15 74.7446 1151.15 74.7446C1151.36 75.3607 1151.57 75.9739 1151.79 76.5844V76.5872C1152.88 79.6928 1154.07 82.7591 1155.33 85.7944V85.7972C1155.49 86.1854 1155.65 86.5708 1155.81 86.9534C1156.51 88.6074 1157.22 90.2531 1157.96 91.8903C1158.1 92.2082 1158.24 92.5261 1158.39 92.8439C1158.79 93.7329 1159.19 94.6218 1159.6 95.5079C1159.65 95.612 1159.7 95.7161 1159.75 95.8202C1159.83 96.0087 1159.92 96.1971 1160.01 96.3856C1160.49 97.4096 1160.97 98.4307 1161.45 99.4491C1161.57 99.705 1161.69 99.9582 1161.81 100.211C1161.99 100.586 1162.17 100.96 1162.35 101.331C1162.59 101.829 1162.82 102.327 1163.06 102.825C1163.2 103.103 1163.33 103.382 1163.47 103.663C1164.73 106.282 1166 108.895 1167.27 111.514C1169.67 115.568 1172.07 119.616 1174.39 123.712C1174.52 123.94 1174.65 124.17 1174.78 124.401C1175.76 126.128 1176.72 127.861 1177.65 129.608C1178.95 132.03 1180.14 134.475 1181.24 136.945C1181.35 137.201 1181.47 137.457 1181.58 137.713C1183.46 142.031 1185.07 146.416 1186.47 150.855C1187.19 147.316 1188.82 143.64 1190.42 140.151V140.149C1190.6 139.763 1190.78 139.378 1190.96 138.995C1191.37 138.104 1191.78 137.226 1192.16 136.371C1192.9 134.728 1193.67 133.102 1194.49 131.487C1194.67 131.113 1194.86 130.742 1195.05 130.37C1196.36 127.802 1197.75 125.262 1199.15 122.724V122.722C1199.38 122.317 1199.6 121.914 1199.82 121.509C1200.39 120.494 1200.95 119.475 1201.52 118.46C1201.69 118.15 1201.86 117.844 1202.03 117.537C1204.21 113.574 1206.36 109.593 1208.24 105.511C1208.39 105.205 1208.53 104.895 1208.67 104.586C1209.87 101.933 1210.95 99.2381 1211.87 96.4756C1211.89 96.4025 1211.92 96.3265 1211.94 96.2534C1212.02 96.0171 1212.1 95.778 1212.17 95.5389C1213.65 90.7566 1214.35 85.7578 1216.07 81.0515C1216.13 80.8799 1216.19 80.7112 1216.26 80.5424C1216.26 80.5396 1216.26 80.5396 1216.26 80.5396C1216.38 80.2076 1216.51 79.8813 1216.64 79.555C1218.33 75.3325 1220.53 71.3239 1222.15 67.0677C1222.21 66.9411 1222.25 66.8117 1222.3 66.6823C1222.38 66.4629 1222.46 66.2435 1222.54 66.0241V66.0213C1223.05 64.6288 1223.51 63.2222 1223.92 61.8016C1224.03 61.4556 1224.13 61.1124 1224.22 60.7664C1225.05 57.8099 1225.71 54.8055 1226.24 51.7815C1227.02 47.3424 1228.22 42.6868 1228.47 38.1943C1228.48 38.0565 1228.49 37.9186 1228.5 37.7808C1228.52 37.3982 1228.54 37.01 1228.56 36.6246V36.6218C1228.6 35.9354 1228.65 35.249 1228.69 34.557C1228.71 34.1435 1228.74 33.73 1228.76 33.3164C1228.91 30.6159 1229.04 27.8956 1229.04 25.2542C1229.04 22.9109 1229.18 19.0851 1230.7 16.9078C1231.75 15.4084 1231.05 25.046 1231.11 26.7648C1231.14 27.7606 1231.17 28.7592 1231.19 29.7551C1231.24 31.8649 1231.23 34.1238 1231.16 36.3827C1231.15 36.8497 1231.13 37.3138 1231.11 37.778C1231.09 38.2281 1231.07 38.6753 1231.05 39.1198V39.1226C1231.03 39.4855 1231.01 39.8456 1230.98 40.2057C1230.91 41.3112 1230.83 42.397 1230.72 43.4463C1230.03 50.5353 1228.44 56.5412 1226.63 63.0281C1226.55 63.3235 1226.47 63.6217 1226.38 63.9199C1226.26 64.3531 1226.14 64.7919 1226.02 65.2308C1225.93 65.5205 1225.85 65.8131 1225.77 66.1085C1225.68 66.4376 1225.59 66.7667 1225.49 67.0987C1224.32 71.3267 1223.07 75.5407 1221.98 79.7885C1221.76 80.6661 1221.6 82.0896 1221.41 83.6536C1221.38 83.9293 1221.35 84.205 1221.31 84.4863C1220.98 87.305 1220.54 90.3375 1219.58 91.3727C1219.85 91.083 1220.12 90.7904 1220.4 90.5063C1223.36 87.471 1226.89 85.0461 1230.3 82.5087C1230.58 82.3005 1230.86 82.0924 1231.14 81.8842C1232.24 81.0515 1233.32 80.202 1234.37 79.3074C1234.71 79.0177 1235.04 78.7195 1235.38 78.4185C1235.38 78.4157 1235.38 78.4157 1235.38 78.4157C1236.54 77.3608 1237.62 76.2496 1238.61 75.0287C1238.69 74.9359 1238.76 74.8431 1238.84 74.7474C1239.01 74.5308 1239.18 74.3114 1239.34 74.0863C1243.22 68.885 1245.6 62.2236 1251.62 59.0505C1252.18 58.7551 1252.77 59.4752 1252.31 59.9338Z" fill="#996636"/>
<path d="M1159.27 103.202C1159.26 103.131 1159.23 103.055 1159.19 102.979C1158.98 102.586 1158.76 102.195 1158.53 101.809C1158.39 101.565 1158.24 101.323 1158.09 101.083C1157.36 99.8907 1156.55 98.7458 1155.68 97.6459C1155.97 97.373 1156.07 96.8048 1155.63 96.4869C1154.99 96.0115 1154.33 95.5501 1153.67 95.1113C1153.66 95.1113 1153.66 95.1085 1153.66 95.1085C1152.75 94.4981 1151.81 93.9214 1150.86 93.37C1149.97 92.858 1149.07 92.3714 1148.15 91.9072C1144.09 89.8283 1139.76 88.1911 1135.37 86.8268C1135.03 86.7199 1134.67 86.613 1134.33 86.5089C1131.33 85.6087 1128.31 84.8323 1125.32 84.1262C1120.34 82.9476 1115.34 82.1486 1110.32 81.5635C1109.72 81.4932 1109.11 81.4257 1108.51 81.3638C1105.22 81.015 1101.92 80.7477 1098.6 80.5255C1098.32 80.5058 1098.04 80.4861 1097.76 80.4692H1097.76C1095.62 80.3286 1093.47 80.202 1091.32 80.0782C1090.78 80.0473 1090.23 80.0135 1089.68 79.9769C1089.39 79.9601 1089.09 79.9404 1088.79 79.9207C1087.74 79.8504 1086.69 79.7716 1085.64 79.6816C1085.34 79.6563 1085.03 79.6281 1084.73 79.6H1084.73C1083.79 79.5156 1082.85 79.4171 1081.91 79.3103C1077.08 78.7561 1072.27 77.5183 1067.69 75.8895C1066.72 75.5435 1064.22 74.1736 1063.62 75.116C1062.9 76.2496 1071.66 79.5719 1072.54 79.8504C1075.73 80.8631 1080.57 81.3357 1083.85 81.7829C1084.47 81.8673 1085.1 81.9489 1085.72 82.0305C1086.03 82.0699 1086.34 82.1093 1086.64 82.1486C1087.67 82.278 1088.71 82.4046 1089.74 82.5312C1090.07 82.5734 1090.41 82.6156 1090.74 82.6578C1091.93 82.8041 1093.12 82.9588 1094.31 83.122C1095.69 83.3133 1097.07 83.5045 1098.46 83.693C1098.69 83.724 1098.92 83.7577 1099.16 83.7887C1099.23 83.7999 1099.31 83.8084 1099.38 83.8196C1105.35 84.6298 1111.33 85.3105 1117.2 86.6749C1117.85 86.8268 1118.51 86.9871 1119.16 87.1559C1119.39 87.2178 1119.62 87.2797 1119.86 87.3444C1125.93 89.0013 1131.91 91.0858 1137.82 93.249C1138.22 93.3981 1138.63 93.5472 1139.03 93.6963C1139.07 93.7104 1139.1 93.7216 1139.14 93.7357C1144.08 95.5642 1148.96 97.6571 1153.41 100.453C1154.21 100.951 1154.99 101.469 1155.76 102.015C1156.03 102.206 1156.3 102.403 1156.57 102.605C1156.96 102.901 1157.36 103.202 1157.74 103.514C1157.87 103.612 1157.99 103.711 1158.11 103.812C1158.64 104.243 1159.4 103.815 1159.27 103.202Z" fill="#996636"/>
<path d="M1200.46 220.946C1199.96 222.31 1199.35 223.641 1198.61 224.935C1196.89 227.925 1194.15 230.578 1192.24 233.568C1192.17 233.202 1192.11 232.84 1192.04 232.474C1193.55 230.313 1195.41 228.308 1196.86 226.142C1198.32 223.976 1199.35 221.68 1200.11 219.297C1200.23 219.849 1200.35 220.397 1200.46 220.946Z" fill="#824E1D"/>
<path d="M1193.86 183.704V183.706C1193.03 184.159 1192.13 184.48 1191.06 184.626C1188.17 185.023 1186.26 186.587 1184.27 188.643C1184.22 188.697 1184.17 188.753 1184.12 188.806C1184.06 188.452 1183.99 188.1 1183.93 187.746C1185.16 186.438 1186.6 185.175 1188.15 184.457C1189.36 183.898 1190.63 183.945 1191.9 183.642C1192.57 183.481 1193.16 183.211 1193.72 182.871C1193.77 183.149 1193.81 183.425 1193.86 183.704Z" fill="#824E1D"/>
<path d="M1193.41 181.101C1191.52 182.162 1189.08 182.348 1186.91 182.545C1185.66 182.66 1184.36 182.812 1183.08 183.079C1183.03 182.795 1182.98 182.508 1182.93 182.224C1183.02 182.207 1183.11 182.187 1183.21 182.17C1186.21 181.613 1190.55 182.033 1193.27 180.238C1193.32 180.525 1193.37 180.814 1193.41 181.101Z" fill="#824E1D"/>
<path d="M1191.99 173.343C1190.49 173.799 1188.91 174.024 1187.31 173.984C1185.17 173.931 1183.09 173.41 1181.19 172.51V172.507C1181.13 172.164 1181.07 171.824 1181.01 171.481C1182.94 172.493 1185.09 173.087 1187.31 173.14C1188.85 173.18 1190.38 172.958 1191.83 172.51C1191.89 172.789 1191.94 173.064 1191.99 173.343Z" fill="#824E1D"/>
<path d="M1191.25 169.883C1189.82 170.555 1188.19 170.901 1186.6 171.064C1184.7 171.258 1182.67 171.227 1180.86 170.673C1180.8 170.355 1180.74 170.035 1180.68 169.717C1182.36 170.341 1184.27 170.417 1186.11 170.265C1187.79 170.128 1189.55 169.796 1191.04 169.045C1191.11 169.323 1191.18 169.602 1191.25 169.883Z" fill="#824E1D"/>
<path d="M1153.94 148.098C1153.52 147.921 1153.1 147.75 1152.68 147.586C1152.05 146.551 1151.35 145.55 1150.6 144.576C1151.04 144.7 1151.48 144.827 1151.92 144.956H1151.92C1152.66 145.969 1153.34 147.015 1153.94 148.098Z" fill="#824E1D"/>
<path d="M1158.85 150.366C1158.5 150.194 1158.14 150.023 1157.79 149.854H1157.79C1157.4 148.681 1156.97 147.522 1156.49 146.382C1156.84 146.501 1157.2 146.621 1157.55 146.745C1158.03 147.935 1158.46 149.142 1158.85 150.366Z" fill="#824E1D"/>
<path d="M1190.89 159.669C1190.82 159.896 1190.75 160.124 1190.67 160.352C1190.67 160.38 1190.65 160.411 1190.65 160.439C1188.51 159.5 1186.37 158.577 1184.19 157.756C1180.84 156.49 1177.2 156.706 1173.85 155.497C1171.12 154.509 1168.99 152.737 1167.24 150.585C1167.91 150.886 1168.59 151.196 1169.26 151.513H1169.26C1171.06 153.294 1173.24 154.636 1175.95 155.204C1176.12 155.238 1176.28 155.272 1176.45 155.3C1176.69 155.345 1176.93 155.384 1177.17 155.421C1178.51 155.626 1179.87 155.744 1181.2 156.003C1182.83 156.324 1184.38 156.903 1185.91 157.548C1187.58 158.245 1189.23 158.954 1190.89 159.669Z" fill="#824E1D"/>
<path d="M1180.41 150.703C1180.39 150.987 1180.16 151.17 1179.88 151.111C1178.03 150.734 1176.29 150.048 1174.71 149.105C1174.5 148.63 1174.29 148.157 1174.07 147.682C1175.72 148.841 1177.59 149.693 1179.58 150.174C1179.5 146.304 1174.81 143.398 1172.17 141.192C1171.46 140.602 1170.75 140.019 1170.03 139.445C1169.72 138.849 1169.42 138.255 1169.11 137.659C1170.61 138.815 1172.09 140.019 1173.54 141.246C1176.35 143.614 1180.79 146.495 1180.41 150.703Z" fill="#824E1D"/>
<path d="M1181.58 137.713C1181.19 137.715 1180.81 137.684 1180.48 137.639C1177.77 137.279 1175.41 136.078 1173.28 134.418C1170.71 132.415 1168.3 130.314 1165.45 128.68C1165.05 128.446 1164.64 128.224 1164.23 128.007C1164.03 127.597 1163.83 127.183 1163.64 126.77C1165.85 127.856 1167.96 129.141 1169.93 130.626C1171.98 132.168 1173.81 134.039 1176.06 135.296C1176.73 135.67 1179.25 136.731 1181.24 136.945C1181.35 137.201 1181.47 137.457 1181.58 137.713Z" fill="#824E1D"/>
<path d="M1174.78 124.401C1172.62 124.809 1170.43 124.817 1168.09 124.128C1165.76 123.442 1163.49 122.544 1161.3 121.49C1161.13 121.093 1160.97 120.696 1160.8 120.297C1163.07 121.436 1165.42 122.409 1167.84 123.172C1169.96 123.838 1172.07 124.131 1174.27 123.734C1174.31 123.729 1174.35 123.72 1174.39 123.712C1174.52 123.94 1174.65 124.17 1174.78 124.401Z" fill="#824E1D"/>
<path d="M1163.47 103.663C1160.62 103.669 1157.81 104.228 1155.08 105.151C1154.99 104.887 1154.89 104.622 1154.8 104.358C1155.77 104.029 1156.75 103.745 1157.74 103.514C1158.25 103.396 1158.76 103.292 1159.27 103.202C1160.53 102.979 1161.79 102.85 1163.06 102.825C1163.2 103.103 1163.33 103.382 1163.47 103.663Z" fill="#824E1D"/>
<path d="M1161.81 100.211C1161.28 100.501 1160.74 100.777 1160.2 101.038C1159.65 101.308 1159.09 101.564 1158.53 101.809C1157.88 102.093 1157.23 102.358 1156.57 102.605C1155.87 102.873 1155.16 103.12 1154.44 103.351C1154.35 103.086 1154.25 102.822 1154.16 102.56C1154.7 102.389 1155.23 102.209 1155.76 102.015C1156.54 101.728 1157.32 101.418 1158.09 101.083C1158.74 100.802 1159.39 100.504 1160.02 100.186C1160.5 99.9526 1160.98 99.705 1161.45 99.449C1161.57 99.705 1161.69 99.9582 1161.81 100.211Z" fill="#824E1D"/>
<path d="M1086.64 82.1486C1086.34 82.1092 1086.03 82.0699 1085.72 82.0305C1085.49 81.3806 1085.24 80.7365 1084.96 80.1035C1084.89 79.9347 1084.81 79.7659 1084.73 79.6C1085.03 79.6281 1085.34 79.6562 1085.64 79.6816C1086 80.4917 1086.33 81.3131 1086.64 82.1486Z" fill="#824E1D"/>
<path d="M1090.74 82.6578C1090.41 82.6156 1090.07 82.5734 1089.74 82.5312C1089.34 81.6929 1089.02 80.818 1088.79 79.9207C1089.09 79.9403 1089.39 79.96 1089.68 79.9769C1089.94 80.9052 1090.3 81.8026 1090.74 82.6578Z" fill="#824E1D"/>
<path d="M1099.38 83.8196C1099.31 83.8084 1099.23 83.7999 1099.16 83.7887C1098.92 83.7577 1098.69 83.724 1098.46 83.693C1098.41 83.5214 1098.35 83.347 1098.31 83.1754C1098.06 82.278 1097.89 81.3722 1097.76 80.4692C1098.04 80.4861 1098.32 80.5058 1098.6 80.5255C1098.7 81.181 1098.83 81.8364 1099 82.4862C1099.11 82.9363 1099.24 83.3808 1099.38 83.8196Z" fill="#824E1D"/>
<path d="M1119.16 87.1559C1118.51 86.9871 1117.85 86.8268 1117.2 86.6749C1114.92 85.0686 1112.36 83.9771 1109.99 82.4243C1109.48 82.0952 1108.99 81.7351 1108.51 81.3638C1109.11 81.4257 1109.72 81.4932 1110.32 81.5635C1111.07 82.0727 1111.85 82.5537 1112.66 82.9841C1114.98 84.1994 1117.22 85.468 1119.16 87.1559Z" fill="#824E1D"/>
<path d="M1139.14 93.7357C1139.1 93.7216 1139.07 93.7104 1139.03 93.6963C1138.63 93.5472 1138.22 93.3981 1137.82 93.249C1137.03 91.9241 1136.27 90.5794 1135.56 89.2123C1135.11 88.3318 1134.69 87.4288 1134.33 86.5089C1134.67 86.613 1135.03 86.7199 1135.37 86.8268C1135.86 87.9576 1136.42 89.0604 1137.01 90.1265C1137.7 91.3446 1138.41 92.5458 1139.14 93.7357Z" fill="#824E1D"/>
<path d="M1160.01 96.3856C1159.92 96.38 1159.84 96.3743 1159.75 96.3687C1157.74 96.2252 1155.75 95.8483 1153.79 95.1563C1153.75 95.1422 1153.7 95.1253 1153.67 95.1113C1153.66 95.1113 1153.66 95.1084 1153.66 95.1084C1152.74 94.7793 1151.88 94.3827 1151.06 93.9213C1150.01 93.3418 1149.05 92.6639 1148.15 91.9072C1149.07 92.3713 1149.97 92.858 1150.86 93.37C1150.77 93.1309 1150.68 92.8889 1150.59 92.6498C1151.89 93.4853 1153.32 94.1576 1154.9 94.633C1156.46 95.1 1158.03 95.3785 1159.6 95.5079C1159.65 95.612 1159.7 95.7161 1159.75 95.8202C1159.83 96.0086 1159.92 96.1971 1160.01 96.3856Z" fill="#824E1D"/>
<path d="M1158.39 92.8439C1156.08 92.346 1153.93 91.3446 1151.86 90.1603C1151.16 89.758 1149.98 89.2123 1149.06 88.4949V88.4921C1148.69 87.4766 1148.31 86.4611 1147.94 85.4399C1148.88 83.7549 1152.34 84.7929 1153.71 85.2036C1154.26 85.3696 1154.8 85.5665 1155.33 85.7944V85.7972C1155.49 86.1854 1155.65 86.5708 1155.81 86.9533C1155.76 86.9252 1155.71 86.9027 1155.67 86.8774C1154.19 86.146 1151.56 85.077 1149.86 85.4315C1147.32 85.9603 1149.11 87.4625 1149.8 87.9351C1150.19 88.1995 1150.6 88.433 1151 88.675C1151.93 89.2319 1152.86 89.772 1153.82 90.2672C1155.15 90.9535 1156.52 91.5218 1157.96 91.8903C1158.1 92.2082 1158.24 92.5261 1158.39 92.8439Z" fill="#824E1D"/>
<path d="M1151.79 76.5844C1151.54 76.3424 1151.3 76.1005 1151.08 75.8698C1151.02 75.8108 1150.96 75.7545 1150.91 75.6982C1150.5 75.2706 1150.08 74.8346 1149.66 74.4127C1149.14 73.8979 1148.6 73.4056 1148.01 72.9836C1146.7 72.0469 1145.18 71.473 1143.75 70.7416C1143.43 70.5756 1143.11 70.3984 1142.8 70.2099C1142.68 69.7992 1142.56 69.3857 1142.44 68.9722C1143 69.3547 1143.58 69.7036 1144.18 70.013C1146.03 70.961 1147.74 71.7768 1149.3 73.0089C1149.73 73.3409 1150.15 73.7094 1150.55 74.1173C1150.74 74.3058 1150.94 74.5111 1151.14 74.7277C1151.14 74.7333 1151.15 74.739 1151.15 74.7418C1151.15 74.7446 1151.15 74.7446 1151.15 74.7446C1151.36 75.3607 1151.57 75.9739 1151.79 76.5844Z" fill="#824E1D"/>
<path d="M1151.42 71.0004C1151.39 71.2986 1151.36 71.5968 1151.34 71.8922C1150.89 71.6924 1150.46 71.4786 1150.04 71.2592V71.2564C1149.55 70.9976 1149.08 70.7276 1148.64 70.4547C1148.6 70.4322 1148.57 70.4125 1148.53 70.39C1146.08 68.8653 1143.55 67.1662 1141.4 65.1267C1141.27 64.6119 1141.15 64.0971 1141.03 63.5795C1143.1 65.7737 1145.68 67.5685 1148.15 69.1522C1148.21 69.1888 1148.27 69.2282 1148.33 69.2676C1148.76 69.5376 1149.22 69.8189 1149.69 70.0946C1150.24 70.4097 1150.82 70.7191 1151.42 71.0004Z" fill="#824E1D"/>
<path d="M1154.18 52.856C1154.12 53.1739 1154.05 53.4918 1153.99 53.8097C1153.36 53.3596 1152.79 52.8279 1152.35 52.1612C1151.78 51.2976 1151.47 50.3074 1151.1 49.351C1151 49.0837 1150.89 48.8165 1150.78 48.552C1150.92 48.2088 1151.07 47.8657 1151.22 47.5253C1151.54 48.282 1151.87 49.0275 1152.15 49.7701C1152.65 51.0585 1153.26 52.0571 1154.18 52.856Z" fill="#824E1D"/>
<path d="M1155.92 45.0132C1155.84 45.3395 1155.76 45.6687 1155.69 45.9978C1155.4 45.6715 1155.14 45.3536 1154.88 45.0498C1154.29 44.369 1153.73 43.6629 1153.23 42.9259C1153.36 42.6221 1153.49 42.3155 1153.62 42.0089C1154.08 42.7234 1154.59 43.407 1155.14 44.0624C1155.38 44.3521 1155.64 44.6756 1155.92 45.0132Z" fill="#824E1D"/>
<path d="M1160.52 26.7226C1160.45 26.9955 1160.38 27.2683 1160.31 27.5412C1159.77 27.2655 1159.2 27.0236 1158.62 26.8042C1158.71 26.5313 1158.79 26.2641 1158.87 26.0052C1159.43 26.2219 1159.99 26.461 1160.52 26.7226Z" fill="#824E1D"/>
<path d="M1145 47.604C1143.03 45.9274 1140.07 45.1088 1137.81 43.8176C1137.77 43.4576 1137.73 43.1003 1137.69 42.743C1138.18 43.0806 1138.69 43.3872 1139.22 43.6573C1141 44.5603 1143.12 45.3142 1144.83 46.4816C1144.89 46.8558 1144.94 47.2271 1145 47.604Z" fill="#824E1D"/>
<path d="M1141.28 41.2212C1140.46 39.3027 1138.53 37.6148 1136.98 36.107C1136.93 35.6653 1136.89 35.2237 1136.84 34.782C1137.04 34.9818 1137.24 35.1843 1137.44 35.3869C1139.01 36.9931 1141.11 38.6922 1142.01 40.7936C1142.22 41.2887 1141.5 41.7191 1141.28 41.2212Z" fill="#824E1D"/>
<path d="M1135.53 23.5551V23.5523C1135.46 23.0628 1135.4 22.5789 1135.33 22.0923C1135.34 22.1035 1135.35 22.1176 1135.36 22.1289C1137.47 24.4947 1139.98 26.4413 1142.38 28.5117C1142.44 28.9309 1142.5 29.3528 1142.55 29.7776C1140.21 27.7044 1137.7 25.7971 1135.53 23.5551Z" fill="#824E1D"/>
<path d="M1141.39 21.7968C1140 20.2243 1138.78 18.5084 1137.57 16.7755C1136.1 14.6404 1134.07 11.8414 1134.99 9.08455C1135.59 7.29543 1137.13 6.97474 1138.59 7.42765V7.43046C1138.67 7.75678 1138.75 8.0831 1138.83 8.40941C1137.82 7.89743 1136.69 7.73709 1135.99 8.88201C1135.3 10.0129 1135.66 11.5376 1136.11 12.674C1136.93 14.7163 1138.41 16.5533 1139.69 18.3227C1140.16 18.9613 1140.64 19.5914 1141.14 20.199C1141.23 20.7307 1141.31 21.2652 1141.39 21.7968Z" fill="#824E1D"/>
<path d="M1226.63 63.0281C1226.55 63.3235 1226.47 63.6217 1226.38 63.9199C1225.42 63.4979 1224.66 62.6849 1224 61.8973C1223.98 61.8663 1223.95 61.8326 1223.92 61.8016C1224.03 61.4556 1224.13 61.1124 1224.22 60.7664C1224.56 61.2897 1224.98 61.7819 1225.49 62.2573C1225.86 62.6118 1226.24 62.8593 1226.63 63.0281Z" fill="#824E1D"/>
<path d="M1226.02 65.2308C1225.93 65.5205 1225.85 65.8131 1225.77 66.1085C1224.51 66.2632 1223.31 66.6036 1222.15 67.0677C1222.21 66.9411 1222.25 66.8117 1222.3 66.6823C1222.38 66.4629 1222.46 66.2435 1222.54 66.0241V66.0212C1223.66 65.6274 1224.81 65.3461 1226.02 65.2308Z" fill="#824E1D"/>
<path d="M1221.41 83.6536C1221.38 83.9293 1221.35 84.205 1221.31 84.4863C1220.23 84.3541 1219.18 83.935 1218.29 83.2232C1217.38 82.4975 1216.84 81.5129 1216.26 80.5424C1216.26 80.5396 1216.26 80.5396 1216.26 80.5396C1216.38 80.2076 1216.51 79.8813 1216.64 79.555C1217.43 80.8068 1218.05 82.1655 1219.38 82.9616C1220.02 83.3386 1220.71 83.5664 1221.41 83.6536Z" fill="#824E1D"/>
<path d="M1233.56 83.4511C1233.34 83.6396 1233.13 83.8281 1232.92 84.0193C1232.21 83.2823 1231.31 82.7563 1230.3 82.5087C1230.58 82.3006 1230.86 82.0924 1231.14 81.8842C1232.06 82.2133 1232.88 82.7478 1233.56 83.4511Z" fill="#824E1D"/>
<path d="M1242.88 75.3353C1242.47 75.8557 1242.02 76.348 1241.55 76.8206C1240.3 77.3664 1239.04 77.9093 1237.79 78.4522C1236.64 78.9501 1235.57 79.4846 1234.37 79.3074C1234.71 79.0176 1235.05 78.7195 1235.38 78.4185C1235.38 78.4156 1235.38 78.4156 1235.38 78.4156C1236.78 78.2384 1238.18 77.3692 1239.42 76.8347C1240.57 76.334 1241.72 75.8361 1242.88 75.3353Z" fill="#824E1D"/>
<path d="M1244.32 73.0849C1244.14 73.4365 1243.95 73.7741 1243.75 74.1004C1243.49 74.1623 1243.23 74.2214 1242.97 74.2748C1241.55 74.5702 1240.08 74.8656 1238.61 75.0287C1238.69 74.9359 1238.76 74.8431 1238.84 74.7474C1239.01 74.5308 1239.18 74.3114 1239.34 74.0864C1240.49 73.9232 1241.63 73.6925 1242.74 73.4619C1243.27 73.3521 1243.8 73.2284 1244.32 73.0849Z" fill="#824E1D"/>
<path d="M1231.16 36.3827C1231.15 36.8497 1231.13 37.3138 1231.11 37.778C1230.88 37.4404 1230.66 37.1085 1230.43 36.8019C1229.86 36.0395 1229.28 35.2912 1228.69 34.557C1228.71 34.1435 1228.74 33.73 1228.76 33.3165C1229.13 33.7609 1229.49 34.211 1229.85 34.6639C1230.3 35.2294 1230.73 35.8032 1231.16 36.3827Z" fill="#824E1D"/>
<path d="M1231.05 39.1198V39.1226C1231.03 39.4855 1231.01 39.8456 1230.98 40.2057C1230.12 39.4293 1229.3 38.6191 1228.5 37.7808C1228.52 37.3982 1228.54 37.01 1228.56 36.6246C1229.36 37.4882 1230.19 38.3209 1231.05 39.1198Z" fill="#824E1D"/>
<path d="M1225.14 91.8059C1224.89 92.0872 1224.64 92.3686 1224.39 92.6527C1222.27 92.7708 1220.06 93.6232 1218.23 94.6837C1216.66 95.5923 1215.24 96.2197 1213.41 96.3097C1212.86 96.335 1212.35 96.3659 1211.87 96.4756C1211.89 96.4025 1211.92 96.3266 1211.94 96.2534C1212.02 96.0171 1212.1 95.778 1212.17 95.5389C1213.23 95.3926 1214.32 95.4967 1215.36 95.1648C1216.68 94.7428 1217.83 93.8876 1219.05 93.2462C1220.92 92.256 1223.08 91.699 1225.14 91.8059Z" fill="#824E1D"/>
<path d="M1220.85 96.892C1220.62 97.1789 1220.38 97.463 1220.15 97.75C1218.05 97.8287 1215.94 98.1972 1213.76 98.5461C1213.23 98.6305 1213 97.8175 1213.53 97.7331C1216.03 97.3336 1218.44 96.9117 1220.85 96.892Z" fill="#824E1D"/>
<path d="M1217.52 101.072C1217.27 101.39 1217.04 101.708 1216.8 102.031V102.034C1216.56 102.093 1216.31 102.166 1216.07 102.254C1214.71 102.749 1213.74 103.829 1212.46 104.479C1211.15 105.151 1209.7 105.413 1208.24 105.511C1208.39 105.205 1208.53 104.895 1208.67 104.586C1210.4 104.38 1212.03 103.882 1213.58 102.732C1214.82 101.809 1216.13 101.331 1217.52 101.072Z" fill="#824E1D"/>
<path d="M1209.31 116.82C1209.16 117.118 1209.01 117.416 1208.86 117.714C1207.81 117.827 1206.76 117.908 1205.72 117.999C1204.32 118.117 1202.91 118.24 1201.52 118.46C1201.69 118.15 1201.86 117.844 1202.03 117.537C1202.51 117.472 1203 117.413 1203.48 117.363C1205.41 117.155 1207.37 117.05 1209.31 116.82Z" fill="#824E1D"/>
<path d="M1208.04 119.301C1207.86 119.641 1207.68 119.985 1207.5 120.325V120.328C1205.6 120.677 1203.7 120.989 1201.85 121.63C1200.93 121.948 1200.03 122.314 1199.15 122.722C1199.38 122.317 1199.6 121.914 1199.82 121.509C1200.12 121.383 1200.42 121.259 1200.73 121.144C1202.37 120.519 1204.06 120.03 1205.77 119.692C1206.53 119.543 1207.29 119.428 1208.04 119.301Z" fill="#824E1D"/>
<path d="M1201.96 126.39C1200.27 128.362 1198.18 129.948 1195.79 130.986C1195.36 131.175 1194.92 131.335 1194.49 131.487C1194.67 131.113 1194.86 130.742 1195.05 130.37C1197.49 129.38 1199.63 127.81 1201.37 125.793C1201.72 125.38 1202.32 125.979 1201.96 126.39Z" fill="#824E1D"/>
<path d="M1201.27 133.994C1201.02 134.548 1200.77 135.099 1200.51 135.653C1199.6 136.278 1198.62 136.821 1197.6 137.282C1195.28 138.323 1192.73 139.038 1190.42 140.149C1190.6 139.763 1190.78 139.378 1190.96 138.995C1192.53 138.315 1194.18 137.766 1195.75 137.144C1197.79 136.345 1199.64 135.299 1201.27 133.994Z" fill="#824E1D"/>
<path d="M1291.22 44.1918C1290.14 43.1679 1288.68 43.0525 1287.24 42.9991C1288.14 42.4393 1288.93 41.7473 1289.39 40.7599C1289.94 39.5699 1289.9 38.155 1289 37.1451C1287.47 35.4291 1284.77 35.505 1282.41 36.0986C1283.03 35.3897 1283.5 34.5767 1283.64 33.5922C1283.84 32.1603 1283.28 30.7397 1281.93 30.0842C1280.44 29.3613 1278.59 29.8142 1277.1 30.2924C1276.63 30.4471 1276.14 30.6131 1275.68 30.8128C1275.91 30.073 1275.99 29.291 1275.89 28.5089C1275.65 26.8014 1274.02 26.3625 1272.49 26.3963C1271.46 26.4188 1270.55 26.7029 1269.72 27.153C1269.5 26.6804 1269.15 26.2556 1268.7 25.9068C1267.44 24.9194 1265.85 24.956 1264.41 25.5158C1260.9 26.8886 1257.9 30.3993 1256.15 33.6343C1254.15 37.3504 1253.18 41.5391 1252.23 45.6209C1251.36 49.3369 1250.59 53.0727 1249.91 56.8282C1249.11 59.1321 1248.7 61.0618 1249.37 61.45C1249.71 61.6498 1260.55 62.0886 1265.62 61.6076C1275.26 60.6933 1284.84 58.7523 1289.04 55.9617C1290.68 54.8787 1291.41 52.6198 1291.01 50.8391C1291.53 50.2484 1291.94 49.5732 1292.21 48.7856C1292.75 47.2271 1292.45 45.3564 1291.22 44.1918Z" fill="#569B54"/>
<path d="M1268.15 29.0518C1265.29 33.2714 1262.37 37.4629 1259.56 41.7275C1257.03 45.5871 1254.71 49.5845 1253.18 53.9588C1253 54.4736 1253.82 54.693 1253.99 54.1838C1255.56 49.7223 1257.97 45.663 1260.57 41.736C1263.29 37.6205 1266.11 33.5612 1268.88 29.4794C1269.19 29.0265 1268.46 28.6045 1268.15 29.0518Z" fill="#3B843A"/>
<path d="M1275.86 31.0069C1270.31 36.2055 1265.24 41.8823 1260.69 47.981C1260.37 48.4171 1261.1 48.839 1261.42 48.4058C1265.93 42.3661 1270.96 36.7512 1276.45 31.6033C1276.85 31.232 1276.25 30.6356 1275.86 31.0069Z" fill="#3B843A"/>
<path d="M1281.11 37.1141C1272.84 42.6868 1264.85 48.6562 1256.79 54.5186C1256.35 54.8337 1256.78 55.5679 1257.21 55.2472C1265.27 49.3847 1273.27 43.4154 1281.53 37.8427C1281.98 37.5417 1281.56 36.8103 1281.11 37.1141Z" fill="#3B843A"/>
<path d="M1285.82 42.9906C1276.76 46.6223 1267.96 50.8616 1259.47 55.6973C1259 55.9673 1259.43 56.6959 1259.9 56.4259C1268.32 51.6268 1277.05 47.4071 1286.05 43.8036C1286.54 43.6039 1286.33 42.7881 1285.82 42.9906Z" fill="#3B843A"/>
<path d="M1288.9 50.4903C1280.3 54.0263 1270.77 54.4314 1262.28 58.2797C1261.78 58.5047 1262.21 59.2305 1262.7 59.0083C1271.12 55.1937 1280.59 54.8112 1289.12 51.3033C1289.61 51.1007 1289.4 50.2821 1288.9 50.4903Z" fill="#3B843A"/>
<path d="M1216.21 5C1216.52 6.06053 1216.95 7.23921 1217.29 8.22941C1220.15 16.4577 1224.9 23.8842 1229.23 31.3923C1229.35 31.5892 1229.52 31.668 1229.69 31.6652C1229.94 31.8452 1230.33 31.8705 1230.57 31.5639C1235.48 25.1669 1240.09 18.5393 1244.36 11.6895C1245.7 9.52905 1247.09 7.20264 1248.36 5.00281H1216.21V5Z" fill="#569B54"/>
<path d="M1228.72 24.4777C1227.19 18.289 1225.5 12.1368 1223.66 6.03239C1223.51 5.51479 1222.69 5.73421 1222.85 6.25744C1224.69 12.3646 1226.38 18.514 1227.91 24.7028C1228.04 25.2288 1228.85 25.0066 1228.72 24.4777Z" fill="#3B843A"/>
<path d="M1230.79 13.1326C1230.77 10.8484 1231.12 8.20692 1230.37 6.01834C1230.2 5.50636 1229.38 5.72578 1229.56 6.24339C1230.33 8.47979 1229.93 11.3266 1229.95 13.6727C1229.97 16.1904 1229.99 18.7081 1230.01 21.2258C1230.02 21.7688 1230.86 21.7688 1230.86 21.2258C1230.83 18.5253 1230.81 15.8304 1230.79 13.1326Z" fill="#3B843A"/>
<path d="M1240.2 6.415C1239.28 7.50647 1238.35 8.60638 1237.66 9.86102C1236.9 11.2282 1236.46 12.7304 1235.95 14.196C1234.78 17.5238 1232.97 20.6351 1231.38 23.7717C1231.13 24.2555 1231.86 24.6831 1232.11 24.1965C1233.51 21.4396 1235.06 18.7081 1236.23 15.8388C1236.85 14.3113 1237.26 12.6966 1237.93 11.1916C1238.64 9.62753 1239.7 8.31382 1240.79 7.01137C1241.15 6.59785 1240.55 5.99866 1240.2 6.415Z" fill="#3B843A"/>
<path d="M1158.22 5.03375C1158.13 7.63304 1158.09 10.2351 1158.18 12.8372C1158.26 15.1974 1158.43 17.5576 1158.74 19.898C1158.91 21.1499 1158.78 24.9953 1160.36 25.1219C1161.94 25.2485 1163.05 23.2709 1163.66 22.4298C1165.11 20.441 1166.43 18.3565 1167.79 16.3114C1170.3 12.5531 1172.8 8.79202 1175.3 5.03375H1158.22Z" fill="#569B54"/>
<path d="M1162.77 7.79047C1162.14 11.6022 1161.35 15.383 1160.42 19.1328C1160.28 19.6588 1161.1 19.8839 1161.23 19.3578C1162.16 15.608 1162.95 11.8272 1163.58 8.01552C1163.67 7.48103 1162.86 7.25318 1162.77 7.79047Z" fill="#3B843A"/>
<path d="M1169.05 5.35999C1166.95 9.4502 1164.84 13.5376 1162.74 17.6278C1162.49 18.1089 1163.22 18.5364 1163.47 18.0526C1165.57 13.9624 1167.67 9.87498 1169.78 5.78477C1170.03 5.30373 1169.3 4.87614 1169.05 5.35999Z" fill="#3B843A"/>
<path d="M1137.97 142.121C1137.97 141.679 1137.79 141.147 1137.43 140.45C1135.68 136.99 1134.11 133.442 1132.03 130.154C1129.85 126.713 1127.2 123.664 1124.58 120.564C1122.22 117.782 1120.1 114.761 1117.22 112.476C1115.11 110.803 1111.9 108.78 1109.11 109.953C1107.71 110.538 1106.95 111.914 1106.84 113.379C1106.81 113.779 1106.83 114.17 1106.9 114.552C1106.88 114.55 1106.88 114.544 1106.86 114.541C1104.84 113.838 1102.14 113.562 1100.2 114.634C1098.59 115.526 1097.51 117.259 1097.48 119.112C1097.46 120.075 1097.72 121.048 1098.21 121.875C1096.65 122.305 1095.21 123.234 1094.1 124.449C1093.15 125.487 1092.4 126.711 1092.62 128.162C1092.83 129.546 1093.77 130.669 1094.77 131.619C1092.48 133.38 1091.43 136.607 1092.12 139.414C1092.88 142.537 1095.8 143.176 1098.59 143.161C1097.55 144.557 1096.29 146.149 1096.19 147.789C1096.1 149.257 1097.02 150.535 1098.17 151.362C1101.46 153.739 1106.02 152.883 1109.68 152.076C1115.03 150.897 1120.32 149.48 1125.54 147.84C1129.07 146.734 1132.83 146.011 1136.08 144.197C1137.36 143.477 1137.98 142.959 1137.97 142.121Z" fill="#569B54"/>
<path d="M1131.63 138.227C1127.75 133.811 1125.03 128.57 1120.74 124.516C1116.78 120.781 1112.16 117.844 1107.48 115.09C1107.01 114.814 1106.59 115.543 1107.06 115.818C1111.8 118.612 1116.5 121.594 1120.48 125.433C1124.6 129.414 1127.27 134.531 1131.03 138.824C1131.39 139.234 1131.99 138.635 1131.63 138.227Z" fill="#3B843A"/>
<path d="M1126.39 134.984C1122.1 132.52 1117.66 130.353 1113.09 128.474C1108.28 126.5 1103.37 124.747 1098.81 122.229C1098.33 121.968 1097.9 122.696 1098.38 122.958C1102.7 125.341 1107.33 127.051 1111.89 128.894C1116.74 130.849 1121.43 133.11 1125.97 135.712C1126.44 135.982 1126.86 135.254 1126.39 134.984Z" fill="#3B843A"/>
<path d="M1124.94 138.537C1115.13 136.593 1105.15 134.992 1095.56 132.098C1095.04 131.94 1094.82 132.756 1095.33 132.911C1104.92 135.805 1114.9 137.406 1124.72 139.35C1125.24 139.457 1125.47 138.641 1124.94 138.537Z" fill="#3B843A"/>
<path d="M1130.4 141.907C1120.39 144.326 1109.99 144.703 1099.82 143.001C1099.29 142.911 1099.06 143.724 1099.6 143.814C1109.91 145.544 1120.46 145.176 1130.63 142.72C1131.16 142.593 1130.93 141.777 1130.4 141.907Z" fill="#3B843A"/>
<path d="M1079.07 79.7997C1079.07 79.7884 1079.07 79.7772 1079.07 79.7659C1079.13 77.8362 1076.04 74.3761 1074.98 72.8289C1071.7 68.027 1067.82 63.557 1063.18 60.0238C1060.33 57.8549 1056.37 55.686 1052.64 56.2571C1051.35 56.454 1050.06 57.2135 1049.65 58.5244C1049.29 59.6609 1049.76 60.6848 1050.44 61.5569C1048.68 61.6075 1046.92 62.5837 1046.39 64.3784C1045.85 66.2182 1046.87 68.1311 1048.51 68.8737C1046.94 70.2015 1045.63 71.9456 1045.91 74.1229C1046.1 75.5801 1047.13 76.7841 1048.43 77.1442C1046.72 78.5282 1044.93 80.3398 1045 82.5087C1045.07 84.6494 1047.91 84.8239 1050.11 84.5707C1049.16 85.4259 1048.19 86.2979 1047.43 87.2628C1046.93 87.8929 1046.71 88.7565 1047.55 89.2263C1048.63 89.8311 1050.39 89.4373 1051.51 89.1616C1053.3 88.7228 1055.03 88.0392 1056.78 87.4625C1060.91 86.0982 1065.06 84.7901 1069.23 83.5383C1071.31 82.9138 1073.39 82.3005 1075.48 81.7013C1076.71 81.3469 1079 81.4594 1079.07 79.7997Z" fill="#569B54"/>
<path d="M1076.17 78.1625C1072.64 74.6405 1068.81 71.4252 1064.72 68.584C1060.78 65.8525 1056.38 62.8115 1051.66 61.6863C1051.13 61.5597 1050.91 62.3727 1051.44 62.4993C1056.07 63.6048 1060.42 66.6261 1064.29 69.3126C1068.33 72.1144 1072.09 75.2875 1075.57 78.7589C1075.95 79.1443 1076.55 78.5479 1076.17 78.1625Z" fill="#3B843A"/>
<path d="M1072.68 77.6308C1071.69 76.1483 1069.72 75.4535 1068.18 74.6968C1066.24 73.746 1064.25 72.8824 1062.23 72.106C1058.02 70.4884 1053.67 69.2844 1049.23 68.4658C1048.7 68.3674 1048.47 69.1804 1049.01 69.2788C1052.94 70.0046 1056.81 71.0285 1060.57 72.3844C1062.54 73.0933 1064.47 73.8866 1066.37 74.7643C1067.29 75.1947 1068.21 75.642 1069.12 76.1118C1070.1 76.6209 1071.31 77.0992 1071.95 78.0556C1072.25 78.5057 1072.98 78.0837 1072.68 77.6308Z" fill="#3B843A"/>
<path d="M1069.17 78.6857C1066 78.2244 1062.82 77.8727 1059.62 77.6561C1058 77.5464 1056.37 77.4705 1054.74 77.4283C1053.01 77.3833 1051.26 77.4648 1049.57 76.9726C1049.04 76.8207 1048.82 77.6336 1049.34 77.7855C1052.25 78.6323 1055.54 78.2553 1058.54 78.4325C1062.02 78.6351 1065.5 78.998 1068.95 79.4987C1069.48 79.5775 1069.71 78.7645 1069.17 78.6857Z" fill="#3B843A"/>
<path d="M1068.98 80.3904C1063.05 81.1162 1057.22 82.413 1051.54 84.2866C1051.03 84.4553 1051.25 85.2711 1051.76 85.0995C1057.37 83.2513 1063.12 81.9517 1068.98 81.2344C1069.51 81.1668 1069.52 80.3229 1068.98 80.3904Z" fill="#3B843A"/>
<path d="M1120.03 79.119C1120.01 78.8545 1119.84 78.6014 1119.49 78.5985C1118.27 78.5929 1117.19 79.344 1116.28 80.0838C1115.22 80.9446 1114.03 81.932 1113.42 83.1782C1113.05 83.9153 1112.77 85.0236 1113.38 85.7156C1113.56 85.9266 1113.82 86.0841 1114.11 86.1038C1114.31 86.1179 1114.54 85.9632 1114.71 85.9744C1114.77 85.9772 1114.8 85.9772 1114.82 85.9716C1114.84 85.9997 1114.88 86.0476 1114.98 86.1291C1115.56 86.6046 1115.89 86.838 1116.65 86.3654C1117.82 85.634 1118.54 84.205 1119.47 83.2148C1120.13 82.5087 1121.42 81.9377 1121.58 80.8828C1121.74 79.8504 1120.9 79.375 1120.03 79.119Z" fill="#71A6AB"/>
<path d="M1127.44 80.6184C1127.42 80.3539 1127.25 80.1007 1126.9 80.0979C1125.68 80.0923 1124.6 80.8434 1123.69 81.5832C1122.63 82.444 1121.44 83.4314 1120.83 84.6776C1120.46 85.4146 1120.18 86.523 1120.79 87.215C1120.97 87.426 1121.23 87.5835 1121.52 87.6032C1121.72 87.6173 1121.95 87.4626 1122.12 87.4738C1122.18 87.4766 1122.21 87.4766 1122.23 87.471C1122.25 87.4991 1122.29 87.547 1122.39 87.6285C1122.97 88.104 1123.3 88.3374 1124.06 87.8648C1125.23 87.1334 1125.95 85.7072 1126.88 84.7142C1127.54 84.0081 1128.83 83.4371 1128.99 82.3821C1129.15 81.3526 1128.31 80.8743 1127.44 80.6184Z" fill="#71A6AB"/>
<path d="M1109.64 41.5503C1109.64 41.5503 1108.73 41.8316 1105.07 42.4645C1104.82 42.5067 1104.53 42.5489 1104.21 42.5855C1099.88 43.1172 1089.69 43.2466 1084.25 43.3788C1079.74 43.4857 1076.65 43.4294 1075.49 43.3957C1075.37 43.3929 1075.28 43.39 1075.21 43.3872C1075.05 43.3816 1074.97 43.3788 1074.97 43.3788C1074.97 43.3788 1075.93 37.8455 1080.57 33.7187C1081.27 33.1026 1082.05 32.5175 1082.92 31.9858C1088.4 28.6355 1100.7 27.4821 1104.91 27.1783C1105.82 27.1108 1106.36 27.0854 1106.36 27.0854L1106.96 29.7551L1108.26 35.46L1108.68 37.2941L1109.64 41.5503Z" fill="#F29C2C"/>
<path d="M1108.26 35.46C1101.67 38.7316 1093.63 37.6092 1086.5 38.9117C1083.03 39.5446 1079.55 40.5686 1076.54 42.459C1076.08 42.7459 1075.64 43.0553 1075.21 43.3873C1076.08 43.4154 1079.3 43.497 1084.25 43.3788C1090.09 43.2382 1101.41 43.0975 1105.07 42.4646C1108.73 41.8316 1109.64 41.5503 1109.64 41.5503L1108.26 35.46Z" fill="#EB7A17"/>
<path d="M1079.53 40.9089C1078.48 41.6966 1077.25 42.2029 1076.15 42.9231C1075.93 43.0722 1075.7 43.2297 1075.49 43.3957C1075.37 43.3929 1075.28 43.39 1075.21 43.3872C1075.05 43.3816 1074.97 43.3788 1074.97 43.3788C1074.97 43.3788 1075.93 37.8455 1080.57 33.7187C1080.82 34.0056 1081.03 34.3516 1081.18 34.7033C1082.14 36.9003 1081.42 39.4742 1079.53 40.9089Z" fill="#613D18"/>
<path d="M1109.64 41.5503C1109.64 41.5503 1108.73 41.8316 1105.07 42.4645C1104.82 42.5067 1104.53 42.5489 1104.21 42.5855C1104.05 41.6797 1104.45 40.5854 1104.86 39.7612C1105.49 38.4728 1105.82 37.2125 1105.55 35.7807C1105.34 34.6836 1104.94 33.6343 1104.7 32.5484C1104.29 30.7312 1104.33 28.9196 1104.91 27.1783C1105.82 27.1108 1106.36 27.0854 1106.36 27.0854L1106.96 29.7551C1106.92 30.3739 1106.96 31.0013 1107.09 31.6426C1107.36 33.0239 1107.89 34.3376 1108.1 35.7385C1108.17 36.242 1108.19 36.7315 1108.16 37.2153C1108.34 37.2125 1108.51 37.2378 1108.68 37.2941L1109.64 41.5503Z" fill="#613D18"/>
<path d="M1148.89 79.9319C1148.83 79.7406 1148.79 79.555 1148.76 79.3749C1148.33 77.0176 1147.26 74.6011 1146.43 72.3648C1145.54 69.968 1144.54 67.6106 1143.34 65.3517C1140.93 60.8199 1137.56 57.011 1134.25 53.1318C1131.16 49.5226 1128.27 45.6771 1126.43 41.2634C1125.39 38.7626 1125.22 36.0226 1124.68 33.3924C1124.24 31.2094 1123.37 27.8928 1121.11 26.7282C1114.89 23.5241 1106.36 27.0855 1106.36 27.0855C1106.36 27.0855 1106.38 27.7719 1106.45 28.8605C1106.64 31.623 1107.14 36.965 1108.37 40.2169C1109.56 43.3901 1109.98 46.4816 1109.78 49.863C1109.6 52.8307 1109.2 55.7873 1109.28 58.7692C1109.28 58.8648 1109.29 58.9576 1109.29 59.0533C1109.83 74.1595 1115.96 79.8138 1126.8 83.724C1131.45 85.3977 1139.16 86.0363 1144.1 85.5187C1145.63 85.3584 1148.11 84.9955 1149.09 83.6227C1149.85 82.565 1149.22 81.1416 1148.89 79.9319Z" fill="#343630"/>
<path d="M1117.22 43.03C1116.26 40.5095 1115.55 37.9299 1115.01 35.2884C1114.62 33.3727 1114 31.5977 1112.63 30.3008C1112.32 30.0055 1111.96 29.7326 1111.56 29.4907C1110.07 28.5877 1108.07 28.1995 1106.45 28.8605C1106.53 29.997 1106.66 31.5667 1106.87 33.2489C1107.17 35.6626 1107.65 38.3012 1108.37 40.2169C1109.56 43.3901 1109.98 46.4816 1109.78 49.863C1109.6 52.8308 1109.2 55.7873 1109.28 58.7692C1109.64 58.9042 1110.03 59.0027 1110.45 59.0617C1115.37 59.7537 1118.69 54.7577 1118.97 50.3721C1119.14 47.7925 1118.12 45.3902 1117.22 43.03Z" fill="white"/>
<path d="M1112.63 30.3008C1112 31.9606 1111.09 33.2349 1109.17 33.4402C1108.59 33.5021 1107.39 33.4177 1106.87 33.2489C1106.66 31.5667 1106.53 29.997 1106.45 28.8605C1108.07 28.1995 1110.07 28.5877 1111.56 29.4907C1111.96 29.7326 1112.32 30.0055 1112.63 30.3008Z" fill="#FFC445"/>
<path d="M1110.36 30.0336C1110.28 29.862 1110.17 29.7016 1110.03 29.5778C1109.03 28.7452 1108.72 30.6468 1108.71 31.2516C1108.71 31.5892 1108.76 31.9436 1108.95 32.2193C1109.14 32.4978 1109.51 32.675 1109.83 32.5625C1110.07 32.4781 1110.23 32.2559 1110.34 32.0252C1110.61 31.4485 1110.64 30.7565 1110.41 30.1601C1110.39 30.118 1110.38 30.0758 1110.36 30.0336Z" fill="#252622"/>
<path d="M1138.71 79.0402C1133.54 76.545 1128.45 73.8922 1125.18 68.9806C1121.82 63.9396 1119.55 57.8324 1120.43 51.7139C1120.48 51.3595 1119.94 51.2076 1119.89 51.5648C1119.01 57.6917 1121.14 63.7455 1124.43 68.8596C1127.79 74.0891 1132.98 76.8966 1138.43 79.5296C1138.75 79.6815 1139.04 79.1977 1138.71 79.0402Z" fill="#615C58"/>
<path d="M1143 78.3735C1139.46 76.635 1136.47 74.0863 1134.21 70.8597C1134.01 70.5644 1133.52 70.8457 1133.73 71.1439C1136.04 74.4492 1139.09 77.0766 1142.71 78.8601C1143.03 79.0177 1143.32 78.5338 1143 78.3735Z" fill="#615C58"/>
<path d="M1143.29 75.9318C1142.29 75.5773 1141.42 75.0034 1140.69 74.2383C1140.44 73.9767 1140.04 74.3733 1140.29 74.6349C1141.09 75.4732 1142.05 76.0865 1143.14 76.4747C1143.48 76.5956 1143.63 76.0527 1143.29 75.9318Z" fill="#615C58"/>
<path d="M1144.6 83.4229C1142.53 82.8406 1140.71 81.7773 1139.18 80.2498C1138.92 79.9938 1138.53 80.3904 1138.78 80.6464C1140.37 82.2386 1142.29 83.3582 1144.46 83.9658C1144.8 84.0643 1144.95 83.5214 1144.6 83.4229Z" fill="#615C58"/>
<path d="M1138.15 83.6818C1135.92 84.4582 1133.61 84.6129 1131.28 84.1769C1130.93 84.1093 1130.88 84.672 1131.23 84.7367C1133.66 85.1924 1136.06 85.0011 1138.39 84.1909C1138.73 84.0756 1138.49 83.5636 1138.15 83.6818Z" fill="#615C58"/>
</svg>
