<svg xmlns="http://www.w3.org/2000/svg" width="2625" height="375" fill="none" viewBox="0 0 2625 375"><g clip-path="url(#a)"><path fill="#B38050" d="M1021.14 377.272c-.09-2.694-.11-5.392-.07-8.087.01-.622.66-11.148.07-11.233-.92-.132-3.38-.301-3.4-.129-.57 5.902-.43 12.369-1 18.274-.04.391-.08.782-.11 1.175h4.51Z"/><path fill="#995055" d="M1069.84 333.237c-3.91-.188-6.98 1.638-10.63 3.069-4.99 1.955-9.6 4.875-14.01 7.967l.57-.498c3.24-2.88 6.52-5.758 9.44-8.971 2.89-3.176 5.47-6.65 7.97-10.138 1.95-2.72 3.89-5.207 4.89-8.411.89-2.83-2.58-3.041-3.7-2.473-1.1.557-3.12 2.079-3.99 2.926-4.29 4.169-8.82 8.076-13.09 12.268-2.76 2.714-5.47 5.493-7.97 8.456-.31.371-.62.748-.93 1.125 1.82-2.945 3.62-5.896 5.31-8.912 4.47-7.989 7.35-16.757 10.18-25.425.75-2.278 1.45-4.571 1.96-6.914.17-.791.9-2.892-.6-2.802-1.67.101-3.41 2.121-4.46 3.227a47.047 47.047 0 0 0-3.82 4.56c-2.45 3.344-4.49 6.982-6.27 10.723-.98 2.045-10.91 17.469-10.91 17.469s1.49-9.882 2.85-19.162c.6-4.023 1.4-8.009 2.02-12.029.57-3.778.97-7.601.85-11.43-.06-1.912.07-3.859-.6-5.69-.09-.254-.2-.512-.39-.698-.43-.402-.95-.177-1.34.129-1.35 1.044-1.86 3.3-2.46 4.828-.71 1.777-1.37 3.572-1.99 5.384-1.19 3.502-2.24 7.122-3.16 10.661a143.766 143.766 0 0 0-3.63 19.627c-.42-1.941-.86-3.879-1.21-5.834-.8-4.467-1.31-8.977-2.02-13.455-1.22-7.618-2.59-15.953-7.27-22.252-.54-.734-2.37-2.084-3.32-1.35-1.02.785-1.06 2.872-.93 3.91.21 1.666.43 3.331.66 4.996.45 3.331 1.51 6.577 1.97 9.905 1.07 7.683 2.13 15.365 3.19 23.051-1.03-2.799-2.25-5.534-3.49-8.246-.28-.618-.57-1.234-.85-1.851-3.54-7.657-6.05-16.794-10.988-23.658-1.069-1.488-4.146-1.389-4.16.738-.017 2.956.886 6.045 1.527 8.914.698 3.12 1.491 6.22 2.329 9.306a181.63 181.63 0 0 0 3.132 10.287 132.513 132.513 0 0 0-8.111-10.27c-1.556-1.778-3.083-3.598-4.841-5.188-.861-.776-5.14-5.162-6.124-2.644-.448 1.148.455 3.089.849 4.163a121.579 121.579 0 0 0 7.008 15.647 122.357 122.357 0 0 0 7.359 12.031c-.867-.81-1.742-1.612-2.625-2.402a160.785 160.785 0 0 0-10.85-8.903c-2.852-2.141-5.823-4.206-9.14-5.562-1.448-.591-3.277-1.086-3.077 1.142.115 1.283.236 2.287.765 3.356.926 1.877 3.007 3.758 4.38 5.337 2.695 3.1 5.772 5.893 8.687 8.782 2.804 2.782 5.609 5.556 8.566 8.18 3.853 3.424 7.884 6.631 11.984 9.753-1.94-1.159-3.9-2.287-5.858-3.406-6.512-3.725-12.855-7.579-20.172-9.511-3.497-.923-7.081-1.502-10.684-1.789-.796-.065-2.071-.183-2.54.664-.577 1.043.939 1.839 1.597 2.301 6.034 4.242 13.177 6.923 19.835 10.006 3.542 1.64 7.042 3.356 10.462 5.229 1.35.74 2.7 1.48 4.07 2.175-1.07-.132-2.134-.251-3.203-.358-6.06-.599-12.364-1.406-18.443-.677-1.46.174-3.077.362-4.444.919-.662.27-1.216.695-1.204 1.463.033 2.391 3.96 2.242 5.524 2.453 5.596.751 11.205 1.497 16.848 1.736-5.069 2.079-9.736 5.159-13.132 9.522-.16.206-.177.521.085.664 2.363 1.286 5.733.506 8.225-.039 3.224-.704 6.318-1.905 9.304-3.306a85.06 85.06 0 0 0 3.52-1.769c-.86.987-1.65 2.048-2.25 3.187-.42.81-1.51 2.985-.54 3.739.44.343.92.098 1.35-.118 1-.51 1.95-1.359 2.86-2.02 1.78-1.3 3.52-2.653 5.22-4.054 2.04-1.685 3.81-4.124 6.48-4.847 3.93-1.063 5.98 2.059 7.96 4.782 1.26 1.719 3.22 5.036 5.81 4.397 2.62-.644.19-4.655-.67-5.837a6.255 6.255 0 0 0-.26-.34c1.08.692 2.19 1.322 3.39 1.823 4.9 2.039 9.55 4.554 14.72 5.665 1.15.248 2.37.619 3.54.712.52.042 1.05-.017 1.39-.462.88-1.128-.38-2.686-1.12-3.491-2.73-3.007-12.36-7.235-12.36-7.235s1.66-.112 2.49-.185c4.12-.352 8.24-.704 12.36-1.058 1.67-.144 3.38-.186 5.01-.63 1.06-.287 2.97-.906 3.55-1.933 1.01-1.814-4.54-2.864-5.54-3.069-4.46-.925-9.03-.422-13.47.383-2.44.441-4.88.922-7.32 1.417 6.19-2.638 12.07-5.938 17.84-9.387 3.22-1.93 6.48-3.831 9.51-6.056 2.51-1.843 5.04-3.919 5.88-7.047.24-.869-.26-1.322-1.11-1.362Z"/><path fill="#873D42" fill-rule="evenodd" d="M1019.35 353.637a436.259 436.259 0 0 0-17.65-35.411c-.26-.476-.99-.051-.73.424a433.344 433.344 0 0 1 17.65 35.411c.22.498.95.071.73-.424Zm-21.179-22.12a188.41 188.41 0 0 1 18.949 25.4c.29.461-.44.886-.73.427a187.516 187.516 0 0 0-18.816-25.23c-.36-.405.237-1.005.597-.597Zm11.309 20.192c-.73-.399-1.45-.797-2.18-1.196-.73-.399-1.46-.797-2.18-1.195-.48-.262-.9.467-.42.728l1.14.624v.002c1.07.589 2.14 1.177 3.22 1.765.47.262.9-.467.42-.728Zm-2.32 3.809 2.8-.088c.54-.017.54.827 0 .844l-2.8.088-2.83.089c-.54.017-.54-.827 0-.844l2.83-.089Zm4.91 3.126-2.84.206h-.01l-3.86.281c-.14.01-.28.02-.43.029-.68.047-1.37.093-2.05.196-.45.068-.89.178-1.33.289-.61.154-1.23.308-1.863.344-.54.031-.543.875 0 .844.683-.038 1.323-.197 1.973-.359.12-.029.23-.058.35-.086 1.04-.252 2.09-.327 3.15-.402l.2-.014 3.84-.279.01-.001h.01v-.001h.01l2.84-.206c.54-.034.54-.88 0-.841Zm2.3.942c-2.57 1.73-5.06 3.553-7.5 5.463-.43.335.17.929.6.597 2.38-1.865 4.82-3.641 7.33-5.331.45-.301.02-1.033-.43-.729Zm-.89-37.11c1.63 7.024 3.26 14.045 4.9 21.07.12.531-.69.753-.81.225-.81-3.466-1.62-6.931-2.42-10.396v-.007l-.01-.008V333.351c-.82-3.55-1.65-7.1-2.48-10.65-.12-.529.69-.754.82-.225Zm8.86.505c.02-.543-.82-.543-.85 0-.37 8.152-.49 16.313-.36 24.473 0 .543.85.543.84 0-.13-8.158 0-16.321.37-24.473Zm-3.29 35.531c2.5-9.21 5.72-18.2 9.63-26.904.22-.495.95-.065.73.428a180.559 180.559 0 0 0-9.55 26.702c-.14.523-.95.301-.81-.226Zm24.86-15.109-18.33 9.761c-.01.007-.03.017-.04.027-.01.005-.01.01-.02.015a383.11 383.11 0 0 1 11.83-13.249c.37-.397-.23-.996-.6-.597a396.376 396.376 0 0 0-14.27 16.131c-.35.413.24 1.012.59.596.78-.92 1.56-1.831 2.33-2.742v-.001l.01-.008c-.16.309.2.768.6.557 3.06-1.628 6.11-3.255 9.17-4.882l.02-.012c3.05-1.622 6.09-3.245 9.14-4.868.47-.256.05-.984-.43-.728Zm-22.42 15.563a121.2 121.2 0 0 0 13.4-2.183c.53-.118.75.695.22.813-4.5.993-9.04 1.73-13.62 2.214-.54.056-.54-.787 0-.844Zm16.99 1.589a27.602 27.602 0 0 0-8.54-1.018c-.54.02-.54.864 0 .844 2.83-.104 5.59.222 8.32.987.52.147.74-.666.22-.813Zm-13.51.591a30.05 30.05 0 0 1 6.85 2.981c.47.279.04 1.007-.43.729a28.972 28.972 0 0 0-6.65-2.897c-.52-.152-.29-.968.23-.813Z" clip-rule="evenodd"/><path fill="#995055" d="M2289.89 351.237c-3.91-.188-6.98 1.638-10.63 3.069-4.99 1.955-9.6 4.875-14.01 7.967l.57-.498c3.24-2.88 6.52-5.758 9.44-8.971 2.89-3.176 5.47-6.65 7.97-10.138 1.95-2.72 3.89-5.207 4.89-8.411.89-2.83-2.58-3.041-3.7-2.473-1.1.557-3.12 2.079-3.99 2.926-4.29 4.169-8.82 8.076-13.09 12.268-2.76 2.714-5.47 5.493-7.97 8.456-.31.371-.62.748-.93 1.125 1.82-2.945 3.62-5.896 5.31-8.912 4.47-7.989 7.35-16.757 10.18-25.425.75-2.278 1.45-4.571 1.96-6.914.17-.791.9-2.892-.6-2.802-1.67.101-3.41 2.121-4.46 3.227a47.047 47.047 0 0 0-3.82 4.56c-2.45 3.344-4.49 6.982-6.27 10.723-.98 2.045-10.91 17.469-10.91 17.469s1.49-9.882 2.85-19.162c.6-4.023 1.4-8.009 2.02-12.029.57-3.778.97-7.601.85-11.43-.06-1.912.07-3.859-.6-5.69-.09-.254-.2-.512-.39-.698-.43-.402-.95-.177-1.34.129-1.35 1.044-1.86 3.3-2.46 4.828-.71 1.777-1.37 3.572-1.99 5.384-1.19 3.502-2.24 7.122-3.16 10.661a143.766 143.766 0 0 0-3.63 19.627c-.42-1.941-.86-3.879-1.21-5.834-.8-4.467-1.31-8.977-2.02-13.455-1.22-7.618-2.59-15.953-7.27-22.252-.54-.734-2.37-2.084-3.32-1.35-1.02.785-1.06 2.872-.93 3.91.21 1.666.43 3.331.66 4.996.45 3.331 1.51 6.577 1.97 9.905 1.07 7.683 2.13 15.365 3.19 23.051-1.03-2.799-2.25-5.534-3.49-8.246-.28-.618-.57-1.234-.85-1.851-3.54-7.657-6.05-16.794-10.99-23.658-1.06-1.488-4.14-1.389-4.16.738-.01 2.956.89 6.045 1.53 8.914.7 3.12 1.49 6.22 2.33 9.306a184.1 184.1 0 0 0 3.13 10.287c-2.53-3.55-5.23-6.985-8.11-10.27-1.55-1.778-3.08-3.598-4.84-5.188-.86-.776-5.14-5.162-6.12-2.644-.45 1.148.45 3.089.85 4.163.65 1.792 1.35 3.567 2.09 5.323a119.7 119.7 0 0 0 4.91 10.324c2.22 4.149 4.68 8.166 7.36 12.031-.86-.81-1.74-1.612-2.62-2.402a163.061 163.061 0 0 0-10.85-8.903c-2.85-2.141-5.83-4.206-9.14-5.562-1.45-.591-3.28-1.086-3.08 1.142.12 1.283.24 2.287.77 3.356.92 1.877 3 3.758 4.38 5.337 2.69 3.1 5.77 5.893 8.68 8.782 2.81 2.782 5.61 5.556 8.57 8.18 3.85 3.424 7.88 6.631 11.98 9.753-1.94-1.159-3.9-2.287-5.86-3.406-6.51-3.725-12.85-7.579-20.17-9.511-3.49-.923-7.08-1.502-10.68-1.789-.8-.065-2.07-.183-2.54.664-.58 1.043.94 1.839 1.6 2.301 6.03 4.242 13.17 6.923 19.83 10.006 3.54 1.64 7.04 3.356 10.46 5.229 1.35.74 2.7 1.48 4.07 2.175a139.11 139.11 0 0 0-3.2-.358c-6.06-.599-12.36-1.406-18.44-.677-1.46.174-3.08.362-4.45.919-.66.27-1.21.695-1.2 1.463.03 2.391 3.96 2.242 5.52 2.453 5.6.751 11.21 1.497 16.85 1.736-5.07 2.079-9.74 5.159-13.13 9.522-.16.206-.18.521.08.664 2.37 1.286 5.74.506 8.23-.039 3.22-.704 6.32-1.905 9.3-3.306a85.06 85.06 0 0 0 3.52-1.769c-.86.987-1.65 2.048-2.25 3.187-.42.81-1.51 2.985-.54 3.739.44.343.92.098 1.35-.118 1-.51 1.95-1.359 2.86-2.02 1.78-1.3 3.52-2.653 5.22-4.054 2.04-1.685 3.81-4.124 6.48-4.847 3.93-1.063 5.98 2.059 7.96 4.782 1.26 1.719 3.22 5.036 5.81 4.397 2.62-.644.19-4.655-.67-5.837a6.255 6.255 0 0 0-.26-.34c1.08.692 2.19 1.322 3.39 1.823 4.9 2.039 9.55 4.554 14.72 5.665 1.15.248 2.37.619 3.54.712.52.042 1.05-.017 1.39-.462.88-1.128-.38-2.686-1.12-3.491-2.73-3.007-12.36-7.235-12.36-7.235s1.66-.112 2.49-.185c4.12-.352 8.24-.704 12.36-1.058 1.67-.144 3.38-.186 5.01-.63 1.06-.287 2.97-.906 3.55-1.933 1.01-1.814-4.54-2.864-5.54-3.069-4.46-.925-9.03-.422-13.47.383-2.44.441-4.88.922-7.32 1.417 6.19-2.638 12.07-5.938 17.84-9.387 3.22-1.93 6.48-3.831 9.51-6.056 2.51-1.843 5.04-3.919 5.88-7.047.24-.869-.26-1.322-1.11-1.362Z"/><path fill="#873D42" fill-rule="evenodd" d="M2239.4 371.637a436.259 436.259 0 0 0-17.65-35.411c-.26-.476-.99-.051-.73.424a433.344 433.344 0 0 1 17.65 35.411c.22.498.95.071.73-.424Zm-21.18-22.12a188.333 188.333 0 0 1 18.95 25.4c.29.461-.44.886-.73.427a187.984 187.984 0 0 0-18.81-25.23c-.36-.405.23-1.005.59-.597Zm11.31 20.192c-.72-.399-1.45-.797-2.18-1.196-.73-.399-1.45-.797-2.18-1.195-.48-.262-.9.467-.42.728l1.14.624v.002c1.07.589 2.15 1.177 3.22 1.765.47.262.9-.467.42-.728Zm-2.31 3.809 2.79-.088c.54-.017.54.827 0 .844l-2.79.088-2.84.089c-.54.017-.54-.827 0-.844l2.84-.089Zm4.9 3.126-2.84.206-3.87.281-.42.029c-.69.047-1.38.093-2.06.196-.45.068-.89.178-1.33.289-.61.154-1.22.308-1.86.344-.54.031-.54.875 0 .844.68-.038 1.32-.197 1.97-.359l.35-.086c1.04-.252 2.09-.327 3.16-.402l.19-.014 3.84-.279.01-.001h.01l.01-.001 2.84-.206c.54-.034.54-.88 0-.841Zm2.3.942c-2.57 1.73-5.06 3.553-7.5 5.463-.43.335.17.929.6.597 2.38-1.865 4.82-3.641 7.33-5.331.45-.301.02-1.033-.43-.729Zm-.89-37.11c1.63 7.024 3.26 14.045 4.9 21.07.12.531-.69.753-.81.225-.81-3.466-1.61-6.931-2.42-10.396V351.351l-2.49-10.65c-.12-.529.69-.754.82-.225Zm8.86.505c.02-.543-.82-.543-.85 0-.37 8.152-.49 16.313-.36 24.473 0 .543.85.543.84 0-.13-8.158 0-16.321.37-24.473Zm-3.29 35.531c2.5-9.21 5.72-18.2 9.63-26.904.22-.495.95-.065.73.428a180.559 180.559 0 0 0-9.55 26.702c-.14.523-.95.301-.81-.226Zm24.86-15.109-18.33 9.761c-.01.007-.02.017-.04.027 0 .005-.01.01-.02.015a383.11 383.11 0 0 1 11.83-13.249c.37-.397-.23-.996-.6-.597a396.376 396.376 0 0 0-14.27 16.131c-.35.413.24 1.012.59.596.78-.92 1.56-1.831 2.34-2.742V371.336c-.16.309.2.768.6.557 3.06-1.628 6.11-3.255 9.17-4.882l.02-.012c3.05-1.622 6.1-3.245 9.14-4.868.47-.256.05-.984-.43-.728Zm-22.42 15.563a121.2 121.2 0 0 0 13.4-2.183c.53-.118.75.695.22.813-4.5.993-9.04 1.73-13.62 2.214-.54.056-.54-.787 0-.844Zm16.99 1.589a27.602 27.602 0 0 0-8.54-1.018c-.54.02-.54.864 0 .844 2.83-.104 5.59.222 8.32.987.52.147.74-.666.22-.813Zm-13.51.591a30.05 30.05 0 0 1 6.85 2.981c.47.279.04 1.007-.43.729a28.972 28.972 0 0 0-6.65-2.897c-.52-.152-.29-.968.23-.813Z" clip-rule="evenodd"/><path fill="#995055" d="M2347.89 355.237c-3.91-.188-6.98 1.638-10.63 3.069-4.99 1.955-9.6 4.875-14.01 7.967l.57-.498c3.24-2.88 6.52-5.758 9.44-8.971 2.89-3.176 5.47-6.65 7.97-10.138 1.95-2.72 3.89-5.207 4.89-8.411.89-2.83-2.58-3.041-3.7-2.473-1.1.557-3.12 2.079-3.99 2.926-4.29 4.169-8.82 8.076-13.09 12.268-2.76 2.714-5.47 5.493-7.97 8.456-.31.371-.62.748-.93 1.125 1.82-2.945 3.62-5.896 5.31-8.912 4.47-7.989 7.35-16.757 10.18-25.425.75-2.278 1.45-4.571 1.96-6.914.17-.791.9-2.892-.6-2.802-1.67.101-3.41 2.121-4.46 3.227a47.047 47.047 0 0 0-3.82 4.56c-2.45 3.344-4.49 6.982-6.27 10.723-.98 2.045-10.91 17.469-10.91 17.469s1.49-9.882 2.85-19.162c.6-4.023 1.4-8.009 2.02-12.029.57-3.778.97-7.601.85-11.43-.06-1.912.07-3.859-.6-5.69-.09-.254-.2-.512-.39-.698-.43-.402-.95-.177-1.34.129-1.35 1.044-1.86 3.3-2.46 4.828-.71 1.777-1.37 3.572-1.99 5.384-1.19 3.502-2.24 7.122-3.16 10.661a143.766 143.766 0 0 0-3.63 19.627c-.42-1.941-.86-3.879-1.21-5.834-.8-4.467-1.31-8.977-2.02-13.455-1.22-7.618-2.59-15.953-7.27-22.252-.54-.734-2.37-2.084-3.32-1.35-1.02.785-1.06 2.872-.93 3.91.21 1.666.43 3.331.66 4.996.45 3.331 1.51 6.577 1.97 9.905 1.07 7.683 2.13 15.365 3.19 23.051-1.03-2.799-2.25-5.534-3.49-8.246-.28-.618-.57-1.234-.85-1.851-3.54-7.657-6.05-16.794-10.99-23.658-1.06-1.488-4.14-1.389-4.16.738-.01 2.956.89 6.045 1.53 8.914.7 3.12 1.49 6.22 2.33 9.306a184.1 184.1 0 0 0 3.13 10.287c-2.53-3.55-5.23-6.985-8.11-10.27-1.55-1.778-3.08-3.598-4.84-5.188-.86-.776-5.14-5.162-6.12-2.644-.45 1.148.45 3.089.85 4.163.65 1.792 1.35 3.567 2.09 5.323a119.7 119.7 0 0 0 4.91 10.324c2.22 4.149 4.68 8.166 7.36 12.031-.86-.81-1.74-1.612-2.62-2.402a163.061 163.061 0 0 0-10.85-8.903c-2.85-2.141-5.83-4.206-9.14-5.562-1.45-.591-3.28-1.086-3.08 1.142.12 1.283.24 2.287.77 3.356.92 1.877 3 3.758 4.38 5.337 2.69 3.1 5.77 5.893 8.68 8.782 2.81 2.782 5.61 5.556 8.57 8.18 3.85 3.424 7.88 6.631 11.98 9.753-1.94-1.159-3.9-2.287-5.86-3.406-6.51-3.725-12.85-7.579-20.17-9.511-3.49-.923-7.08-1.502-10.68-1.789-.8-.065-2.07-.183-2.54.664-.58 1.043.94 1.839 1.6 2.301 6.03 4.242 13.17 6.923 19.83 10.006 3.54 1.64 7.04 3.356 10.46 5.229 1.35.74 2.7 1.48 4.07 2.175a139.11 139.11 0 0 0-3.2-.358c-6.06-.599-12.36-1.406-18.44-.677-1.46.174-3.08.362-4.45.919-.66.27-1.21.695-1.2 1.463.03 2.391 3.96 2.242 5.52 2.453 5.6.751 11.21 1.497 16.85 1.736-5.07 2.079-9.74 5.159-13.13 9.522-.16.206-.18.521.08.664 2.37 1.286 5.74.506 8.23-.039 3.22-.704 6.32-1.905 9.3-3.306a85.06 85.06 0 0 0 3.52-1.769c-.86.987-1.65 2.048-2.25 3.187-.42.81-1.51 2.985-.54 3.739.44.343.92.098 1.35-.118 1-.51 1.95-1.359 2.86-2.02 1.78-1.3 3.52-2.653 5.22-4.054 2.04-1.685 3.81-4.124 6.48-4.847 3.93-1.063 5.98 2.059 7.96 4.782 1.26 1.719 3.22 5.036 5.81 4.397 2.62-.644.19-4.655-.67-5.837a6.255 6.255 0 0 0-.26-.34c1.08.692 2.19 1.322 3.39 1.823 4.9 2.039 9.55 4.554 14.72 5.665 1.15.248 2.37.619 3.54.712.52.042 1.05-.017 1.39-.462.88-1.128-.38-2.686-1.12-3.491-2.73-3.007-12.36-7.235-12.36-7.235s1.66-.112 2.49-.185c4.12-.352 8.24-.704 12.36-1.058 1.67-.144 3.38-.186 5.01-.63 1.06-.287 2.97-.906 3.55-1.933 1.01-1.814-4.54-2.864-5.54-3.069-4.46-.925-9.03-.422-13.47.383-2.44.441-4.88.922-7.32 1.417 6.19-2.638 12.07-5.938 17.84-9.387 3.22-1.93 6.48-3.831 9.51-6.056 2.51-1.843 5.04-3.919 5.88-7.047.24-.869-.26-1.322-1.11-1.362Z"/><path fill="#873D42" fill-rule="evenodd" d="M2297.4 375.637a436.259 436.259 0 0 0-17.65-35.411c-.26-.476-.99-.051-.73.424a433.344 433.344 0 0 1 17.65 35.411c.22.498.95.071.73-.424Zm-21.18-22.12a188.333 188.333 0 0 1 18.95 25.4c.29.461-.44.886-.73.427a187.984 187.984 0 0 0-18.81-25.23c-.36-.405.23-1.005.59-.597Zm11.31 20.192c-.72-.399-1.45-.797-2.18-1.196-.73-.399-1.45-.797-2.18-1.195-.48-.262-.9.467-.42.728l1.14.624v.002c1.07.589 2.15 1.177 3.22 1.765.47.262.9-.467.42-.728Zm-2.31 3.809 2.79-.088c.54-.017.54.827 0 .844l-2.79.088-2.84.089c-.54.017-.54-.827 0-.844l2.84-.089Zm4.9 3.126-2.84.206-3.87.281-.42.029c-.69.047-1.38.093-2.06.196-.45.068-.89.178-1.33.289-.61.154-1.22.308-1.86.344-.54.031-.54.875 0 .844.68-.038 1.32-.197 1.97-.359l.35-.086c1.04-.252 2.09-.327 3.16-.402l.19-.014 3.84-.279.01-.001h.01l.01-.001 2.84-.206c.54-.034.54-.88 0-.841Zm2.3.942c-2.57 1.73-5.06 3.553-7.5 5.463-.43.335.17.929.6.597 2.38-1.865 4.82-3.641 7.33-5.331.45-.301.02-1.033-.43-.729Zm-.89-37.11c1.63 7.024 3.26 14.045 4.9 21.07.12.531-.69.753-.81.225-.81-3.466-1.61-6.931-2.42-10.396V355.351l-2.49-10.65c-.12-.529.69-.754.82-.225Zm8.86.505c.02-.543-.82-.543-.85 0-.37 8.152-.49 16.313-.36 24.473 0 .543.85.543.84 0-.13-8.158 0-16.321.37-24.473Zm-3.29 35.531c2.5-9.21 5.72-18.2 9.63-26.904.22-.495.95-.065.73.428a180.559 180.559 0 0 0-9.55 26.702c-.14.523-.95.301-.81-.226Zm24.86-15.109-18.33 9.761c-.01.007-.02.017-.04.027 0 .005-.01.01-.02.015a383.11 383.11 0 0 1 11.83-13.249c.37-.397-.23-.996-.6-.597a396.376 396.376 0 0 0-14.27 16.131c-.35.413.24 1.012.59.596.78-.92 1.56-1.831 2.34-2.742V375.336c-.16.309.2.768.6.557 3.06-1.628 6.11-3.255 9.17-4.882l.02-.012c3.05-1.622 6.1-3.245 9.14-4.868.47-.256.05-.984-.43-.728Zm-22.42 15.563a121.2 121.2 0 0 0 13.4-2.183c.53-.118.75.695.22.813-4.5.993-9.04 1.73-13.62 2.214-.54.056-.54-.787 0-.844Zm16.99 1.589a27.602 27.602 0 0 0-8.54-1.018c-.54.02-.54.864 0 .844 2.83-.104 5.59.222 8.32.987.52.147.74-.666.22-.813Zm-13.51.591a30.05 30.05 0 0 1 6.85 2.981c.47.279.04 1.007-.43.729a28.972 28.972 0 0 0-6.65-2.897c-.52-.152-.29-.968.23-.813Z" clip-rule="evenodd"/><path fill="#B38050" d="M2426.91 387.272a108.36 108.36 0 0 1-.05-5.701c0-.438.46-7.858.05-7.918-.65-.093-2.39-.212-2.4-.091-.4 4.16-.3 8.719-.71 12.882-.02.275-.05.551-.07.828h3.18Z"/><path fill="#995055" d="M2461.23 356.232c-2.75-.133-4.92 1.154-7.49 2.163-3.52 1.378-6.77 3.436-9.87 5.616.13-.117.26-.234.4-.351 2.28-2.03 4.59-4.059 6.65-6.324 2.04-2.239 3.86-4.687 5.62-7.146 1.37-1.917 2.74-3.67 3.45-5.929.62-1.995-1.82-2.144-2.61-1.743-.78.392-2.2 1.465-2.81 2.062-3.03 2.939-6.22 5.693-9.23 8.648-1.95 1.913-3.86 3.872-5.62 5.961-.22.261-.44.527-.65.793 1.28-2.076 2.55-4.156 3.74-6.282 3.15-5.632 5.18-11.812 7.17-17.922.53-1.606 1.03-3.223 1.39-4.874.12-.558.63-2.039-.43-1.975-1.17.071-2.4 1.495-3.14 2.274a32.251 32.251 0 0 0-2.69 3.215c-1.73 2.357-3.17 4.921-4.42 7.558-.69 1.442-7.69 12.314-7.69 12.314s1.05-6.965 2.01-13.507c.42-2.836.98-5.645 1.42-8.479.4-2.663.68-5.358.6-8.057-.04-1.348.05-2.72-.42-4.011-.07-.179-.15-.361-.28-.492-.3-.283-.67-.125-.94.091-.96.736-1.32 2.326-1.74 3.403-.5 1.253-.96 2.518-1.4 3.795-.84 2.469-1.58 5.021-2.23 7.515a101.603 101.603 0 0 0-2.56 13.835c-.29-1.368-.6-2.734-.85-4.112-.56-3.149-.92-6.328-1.42-9.485-.86-5.369-1.83-11.245-5.13-15.685-.38-.517-1.67-1.469-2.34-.952-.72.554-.75 2.025-.65 2.757.14 1.174.3 2.348.46 3.521.32 2.348 1.07 4.636 1.39 6.982l2.25 16.249c-.73-1.973-1.59-3.901-2.46-5.813l-.6-1.304c-2.5-5.398-4.27-11.839-7.75-16.677-.75-1.049-2.92-.979-2.93.52-.01 2.084.62 4.261 1.08 6.284.49 2.199 1.05 4.384 1.64 6.56.66 2.438 1.4 4.856 2.21 7.251a93.128 93.128 0 0 0-5.72-7.239c-1.1-1.254-2.17-2.537-3.41-3.657-.61-.547-3.63-3.639-4.32-1.864-.32.809.32 2.177.6 2.934a85.188 85.188 0 0 0 4.94 11.03 85.46 85.46 0 0 0 5.19 8.48c-.62-.57-1.23-1.136-1.86-1.693-2.45-2.201-5-4.297-7.64-6.275-2.01-1.51-4.11-2.965-6.45-3.921-1.02-.417-2.31-.766-2.17.805.09.904.17 1.612.54 2.366.66 1.323 2.12 2.649 3.09 3.762 1.9 2.185 4.07 4.154 6.12 6.19 1.98 1.961 3.96 3.916 6.04 5.766 2.72 2.414 5.56 4.674 8.45 6.875-1.37-.817-2.75-1.612-4.13-2.401-4.59-2.626-9.06-5.342-14.22-6.704a42.692 42.692 0 0 0-7.53-1.261c-.56-.046-1.46-.129-1.79.468-.41.735.66 1.296 1.13 1.622 4.25 2.99 9.28 4.88 13.98 7.053 2.49 1.156 4.96 2.366 7.37 3.686.95.522 1.91 1.043 2.87 1.533-.75-.093-1.5-.177-2.26-.252-4.27-.422-8.71-.991-13-.477-1.03.122-2.17.255-3.13.647-.47.191-.86.49-.85 1.032.03 1.685 2.79 1.58 3.9 1.729 3.94.529 7.89 1.055 11.87 1.223-3.57 1.466-6.86 3.637-9.25 6.713-.12.145-.13.367.06.468 1.66.906 4.04.356 5.79-.028 2.28-.496 4.46-1.343 6.56-2.33.84-.395 1.67-.815 2.48-1.247-.6.695-1.16 1.443-1.58 2.246-.3.571-1.07 2.104-.38 2.636.31.242.65.069.95-.083.7-.36 1.37-.958 2.01-1.424a73.11 73.11 0 0 0 3.68-2.858c1.44-1.188 2.69-2.907 4.57-3.417 2.77-.749 4.22 1.452 5.61 3.371.89 1.212 2.27 3.55 4.1 3.1 1.84-.454.13-3.282-.47-4.115-.06-.081-.12-.16-.19-.239.76.487 1.55.931 2.39 1.285 3.46 1.437 6.73 3.21 10.38 3.993.81.175 1.67.436 2.49.502.37.029.74-.012.98-.326.62-.795-.26-1.893-.79-2.461-1.92-2.119-8.71-5.1-8.71-5.1s1.17-.079 1.76-.13c2.9-.248 5.81-.496 8.71-.746 1.18-.101 2.38-.131 3.53-.444.75-.202 2.09-.639 2.5-1.363.72-1.278-3.2-2.018-3.9-2.163-3.15-.652-6.37-.297-9.5.27-1.72.311-3.44.65-5.16.999 4.37-1.86 8.51-4.186 12.58-6.617 2.27-1.36 4.57-2.7 6.7-4.269 1.77-1.299 3.55-2.762 4.15-4.967.17-.613-.19-.932-.79-.96Z"/><path fill="#873D42" fill-rule="evenodd" d="M2425.64 370.611a305.607 305.607 0 0 0-12.44-24.961c-.18-.336-.7-.036-.51.299a309.025 309.025 0 0 1 12.44 24.961c.15.351.67.05.51-.299Zm-14.92-15.592a133.369 133.369 0 0 1 13.35 17.904c.21.325-.31.625-.51.301a132.888 132.888 0 0 0-13.27-17.784c-.25-.286.17-.709.43-.421Zm6.43 13.391v-.001c-.51-.281-1.03-.562-1.54-.843-.33-.184-.63.33-.29.514l.8.439v.001c.76.415 1.51.831 2.27 1.245.33.185.64-.329.3-.513l-1.53-.837v-.003l-.01-.002Zm-2.09 3.59 3.97-.125c.38-.012.38.583 0 .595l-3.97.125c-.38.012-.38-.583 0-.595Zm3.45 2.286-2.73.198-.3.02c-.48.033-.97.066-1.45.138-.31.048-.62.126-.93.204-.44.109-.87.217-1.32.243-.38.021-.38.616 0 .594.48-.027.93-.138 1.4-.253l.24-.06c.73-.178 1.47-.23 2.22-.284l.14-.009 2.71-.197.01-.001h.01l2-.146c.38-.024.38-.62 0-.593l-1.99.145h-.01v.001Zm3.62.519a91.024 91.024 0 0 0-5.28 3.851c-.31.236.12.654.42.42a89.85 89.85 0 0 1 5.17-3.758c.31-.212.01-.728-.31-.513Zm-.62-26.16c1.15 4.952 2.29 9.901 3.45 14.853.09.374-.49.53-.57.158l-1.71-7.331c-.58-2.507-1.17-5.014-1.75-7.521-.09-.373.49-.532.58-.159Zm6.24.357c.02-.383-.58-.383-.6 0a283.51 283.51 0 0 0-.25 17.251c0 .383.6.383.59 0-.09-5.751 0-11.505.26-17.251Zm-2.32 25.046c1.76-6.493 4.03-12.83 6.79-18.965.16-.349.67-.046.51.302a128.017 128.017 0 0 0-6.73 18.822c-.1.368-.67.212-.57-.159Zm17.53-10.651-12.92 6.881a.249.249 0 0 0-.03.019c-.01.003-.01.007-.02.01a278.47 278.47 0 0 1 8.34-9.339c.26-.28-.16-.702-.42-.421a282.829 282.829 0 0 0-10.06 11.371c-.25.291.17.713.42.42.54-.648 1.09-1.291 1.64-1.933l.01-.006c-.12.218.14.541.42.393 2.15-1.147 4.3-2.293 6.46-3.439 2.15-1.148 4.31-2.295 6.46-3.443.33-.18.03-.693-.3-.513Zm-15.81 10.971c3.18-.335 6.33-.851 9.45-1.539.37-.083.53.49.15.573-3.17.7-6.37 1.219-9.6 1.561-.38.039-.38-.555 0-.595Zm11.98 1.119a19.477 19.477 0 0 0-6.02-.717c-.38.014-.38.609 0 .595a18.9 18.9 0 0 1 5.86.696c.37.103.53-.47.16-.574Zm-9.52.417c1.69.502 3.3 1.2 4.82 2.102.34.196.03.71-.3.514a20.305 20.305 0 0 0-4.69-2.042c-.36-.108-.2-.683.17-.574Z" clip-rule="evenodd"/><path fill="#508C42" d="M922.893 350.458c-.02-.101-.048-.2-.09-.304-.726-1.814-3.871-.166-5.053.338a16.764 16.764 0 0 0-4.745 3.063c-.962.884-1.694 1.986-3.103 2.144-1.055.118-2.113-.101-3.156.171-1.756.462-3.061 1.86-3.936 3.382-1.091 1.896-1.449 4.394-3.103 5.913-.88.81-2.048 1.148-3.238 1.46-1.049.27-2.112.523-3.01 1.063a8.66 8.66 0 0 0-1.997 1.657c.43-.889.94-1.747 1.488-2.588 1.19-1.817 2.563-3.556 3.697-5.35 2.605-4.119 2.948-8.383 2.686-13.152-.132-2.393-.329-4.804-.084-7.198.261-2.56 1.201-4.825 2.472-7.036 1.086-1.887 2.302-3.71 3.134-5.73.9-2.186 1.123-4.431.836-6.771-.304-2.515-1.061-4.951-1.337-7.469-.14-1.283-.16-2.591.107-3.859.237-1.117 1.165-2.197 1.252-3.286.217-2.715-5.004 1.48-5.648 2.073-1.843 1.697-3.342 3.75-4.276 6.082-1.157 2.889-1.016 5.621-.678 8.656.18 1.629.216 3.224-.338 4.791-.54 1.541-1.48 2.906-2.394 4.245a29.117 29.117 0 0 0-1.997 3.353c-1.941 3.831-2.839 7.961-2.09 12.442.515 3.072 2.233 6.118 1.887 9.294-.334 3.086-3.114 5.205-3.975 8.139-.647 2.197-.618 4.368-.109 6.436-.152-.307-.304-.613-.453-.92-1.39-2.886-1.989-5.798-1.767-9.002.093-1.328.397-2.678.661-4.028.304-1.547.555-3.097.366-4.628-.357-2.908-2.388-5.15-2.338-8.194.088-5.418 3.767-10.285 1.55-15.711-1.547-3.795-4.714-6.605-6.554-10.234-.481-.951-.861-1.964-1.035-3.021-.2-1.227.087-2.47-.113-3.688-.242-1.469-1.755-3.061-3.271-1.984-.586.414-.895 1.103-1.131 1.756-.515 1.418-.839 2.942-1.157 4.416-.576 2.667-1.083 5.477-1.052 8.217.026 2.439.827 4.484 2.099 6.527 1.544 2.481 2.954 4.684 2.267 7.733-.289 1.285-.723 2.509-1.116 3.747-.352 1.114-.673 2.236-.825 3.426-.289 2.245-.216 4.577.431 6.757.734 2.467 2.18 4.259 4.006 6.015 1.406 1.347 2.317 2.675 2.576 4.652.054.42.09.844.133 1.266-.335-.354-.678-.7-1.03-1.032-1.53-1.44-3.246-2.681-5.125-3.784-1.784-1.049-3.711-2.121-4.898-3.876-1.097-1.626-1.291-3.688-2.124-5.443-1.485-3.123-4.217-5.629-7.452-6.845-2.124-.796-4.503-.922-6.475-2.118-1.896-1.148-3.196-2.973-3.764-5.103-.071-.259-.389-.396-.622-.253-2.701 1.685-1.834 6.149-.779 8.56.661 1.514 1.676 2.844 3.015 3.818 1.553 1.125 3.398 1.732 5.041 2.695 3.64 2.132 3.972 6.095 5.365 9.682.641 1.651 1.572 2.895 2.743 3.874 1.322 1.114 2.945 1.887 4.79 2.534a25.963 25.963 0 0 0 5.48 1.258c-1.477.202-2.906.481-4.191.74-1.978.399-4.107.919-6.082.402a5.754 5.754 0 0 1-1.047-.386c-1.682-.815-3.077-2.143-4.695-3.074-2.928-1.685-6.051-2.87-9.303-1.407-1.977.889-3.611 1.334-5.792 1.46-.852.048-2.914-.245-3.046 1.038-.104 1.027 1.218 2.273 1.882 2.898a9.414 9.414 0 0 0 3.775 2.157c1.764.512 3.573.338 5.379.268 2.087-.082 3.704.281 5.474 1.125.228.11.461.228.697.354 1.429.76 2.892 1.348 4.394 1.728h8.068c1.328-.273 2.647-.591 3.986-.797 2.377-.363 4.437-.092 6.544.797h13.322a10.39 10.39 0 0 1 2.155-1.837c1.938-1.233 4.175-1.52 6.375-1.972 1.713-.355 3.465-.864 4.844-1.989 1.404-1.145 1.772-2.788 2.743-4.24 1.153-1.727 2.914-2.962 4.796-3.792 1.446-.635 3.103-.956 4.098-2.295 1.129-1.508 1.491-3.612 2.169-5.336.054-.141.11-.276.169-.417.557-1.314 2.962-2.799 2.642-4.453Z"/><path fill="#156A01" d="M2592.52 350.458c-.02-.101-.05-.2-.09-.304-.73-1.814-3.87-.166-5.06.338a16.823 16.823 0 0 0-4.74 3.063c-.96.884-1.69 1.986-3.1 2.144-1.06.118-2.12-.101-3.16.171-1.76.462-3.06 1.86-3.94 3.382-1.09 1.896-1.44 4.394-3.1 5.913-.88.81-2.05 1.148-3.24 1.46-1.05.27-2.11.523-3.01 1.063a8.665 8.665 0 0 0-1.99 1.657c.43-.889.94-1.747 1.48-2.588 1.19-1.817 2.57-3.556 3.7-5.35 2.61-4.119 2.95-8.383 2.69-13.152-.13-2.393-.33-4.804-.09-7.198.26-2.56 1.2-4.825 2.48-7.036 1.08-1.887 2.3-3.71 3.13-5.73.9-2.186 1.12-4.431.84-6.771-.31-2.515-1.07-4.951-1.34-7.469-.14-1.283-.16-2.591.11-3.859.23-1.117 1.16-2.197 1.25-3.286.21-2.715-5.01 1.48-5.65 2.073-1.84 1.697-3.34 3.75-4.28 6.082-1.15 2.889-1.01 5.621-.67 8.656.18 1.629.21 3.224-.34 4.791-.54 1.541-1.48 2.906-2.4 4.245a29.196 29.196 0 0 0-1.99 3.353c-1.94 3.831-2.84 7.961-2.09 12.442.51 3.072 2.23 6.118 1.88 9.294-.33 3.086-3.11 5.205-3.97 8.139-.65 2.197-.62 4.368-.11 6.436l-.45-.92c-1.39-2.886-1.99-5.798-1.77-9.002.09-1.328.4-2.678.66-4.028.3-1.547.56-3.097.37-4.628-.36-2.908-2.39-5.15-2.34-8.194.09-5.418 3.77-10.285 1.55-15.711-1.55-3.795-4.72-6.605-6.56-10.234-.48-.951-.86-1.964-1.03-3.021-.2-1.227.09-2.47-.11-3.688-.25-1.469-1.76-3.061-3.27-1.984-.59.414-.9 1.103-1.14 1.756-.51 1.418-.83 2.942-1.15 4.416-.58 2.667-1.09 5.477-1.05 8.217.02 2.439.82 4.484 2.09 6.527 1.55 2.481 2.96 4.684 2.27 7.733-.29 1.285-.72 2.509-1.11 3.747-.36 1.114-.68 2.236-.83 3.426-.29 2.245-.22 4.577.43 6.757.74 2.467 2.18 4.259 4.01 6.015 1.4 1.347 2.31 2.675 2.57 4.652.06.42.09.844.14 1.266-.34-.354-.68-.7-1.03-1.032-1.53-1.44-3.25-2.681-5.13-3.784-1.78-1.049-3.71-2.121-4.9-3.876-1.09-1.626-1.29-3.688-2.12-5.443-1.49-3.123-4.22-5.629-7.45-6.845-2.13-.796-4.51-.922-6.48-2.118-1.89-1.148-3.19-2.973-3.76-5.103-.07-.259-.39-.396-.62-.253-2.7 1.685-1.84 6.149-.78 8.56.66 1.514 1.67 2.844 3.01 3.818 1.56 1.125 3.4 1.732 5.04 2.695 3.64 2.132 3.98 6.095 5.37 9.682.64 1.651 1.57 2.895 2.74 3.874 1.32 1.114 2.95 1.887 4.79 2.534 1.78.622 3.62 1.033 5.48 1.258-1.48.202-2.9.481-4.19.74-1.98.399-4.11.919-6.08.402a5.81 5.81 0 0 1-1.05-.386c-1.68-.815-3.08-2.143-4.69-3.074-2.93-1.685-6.05-2.87-9.31-1.407-1.97.889-3.61 1.334-5.79 1.46-.85.048-2.91-.245-3.04 1.038-.11 1.027 1.21 2.273 1.88 2.898a9.43 9.43 0 0 0 3.77 2.157c1.77.512 3.58.338 5.38.268 2.09-.082 3.71.281 5.48 1.125.22.11.46.228.69.354 1.43.76 2.89 1.348 4.4 1.728h8.06c1.33-.273 2.65-.591 3.99-.797 2.38-.363 4.44-.092 6.54.797h13.33c.62-.701 1.34-1.323 2.15-1.837 1.94-1.233 4.18-1.52 6.38-1.972 1.71-.355 3.46-.864 4.84-1.989 1.4-1.145 1.77-2.788 2.74-4.24 1.16-1.727 2.92-2.962 4.8-3.792 1.45-.635 3.1-.956 4.1-2.295 1.13-1.508 1.49-3.612 2.17-5.336.05-.141.11-.276.17-.417.55-1.314 2.96-2.799 2.64-4.453Z"/><path fill="#679431" d="M928.348 352.676c.467 2.711 1.204 5.336 2.07 7.941.49 1.466.782 2.788.487 4.329-.236 1.227-.467 2.369-.371 3.629.177 2.377 1.167 4.647 2.838 6.355a10.324 10.324 0 0 0 2.208 1.705h18.283a10.573 10.573 0 0 1 2.787-2.301c2.096-1.216 4.456-2.003 6.313-3.601 1.364-1.17 2.475-2.867 2.478-4.721.006-1.845-1.274-1.921-2.802-1.673a19.964 19.964 0 0 0-6.743 2.402c-2.166 1.246-3.927 3.519-6.323 4.265-1.91.59-3.801.695-5.57 1.479.295-.329.591-.661.877-1.001a17.002 17.002 0 0 0 2.349-3.612c.462-.937.85-1.924 1.213-2.988.585-1.713 1.491-3.091 3.083-4.022 1.263-.74 2.72-1.103 3.927-1.947 1.924-1.345 2.729-3.578 3.19-5.789.647-3.111 1.19-6.332 1.575-9.486.088-.695.147-1.823-.489-2.329-.658-.518-1.334.025-1.916.408a15.184 15.184 0 0 0-4.962 5.404c-1.303 2.399-1.663 5.077-2.422 7.662-.543 1.857-1.364 3.418-2.749 4.783-1.091 1.074-2.332 1.994-3.305 3.187a11.076 11.076 0 0 0-2.02 3.826c-.168-.867-.346-1.73-.43-2.611-.191-2 .321-3.82 1.136-5.626 1.311-2.9 2.864-5.536 3.106-8.785.236-3.168-.844-5.59-2.61-8.127-.828-1.187-1.711-2.391-2.147-3.787a6.416 6.416 0 0 1-.079-.275c-.444-1.742-.025-3.525-.174-5.297-.056-.687-.135-1.767-.948-2.023-1.002-.312-1.677.903-2.096 1.592-1.508 2.493-2.239 5.469-2.104 8.375.082 1.797.582 3.443 1.19 5.063.492 1.311 1.052 2.605 1.519 3.953.695 2.005.917 3.924.397 6.003-.419 1.662-1.097 3.257-1.348 4.962-.416 2.858.31 5.657.94 8.448-.65-.999-1.435-1.919-2.147-2.917-.841-1.182-1.415-2.397-1.496-3.866-.076-1.4.2-2.796.208-4.197a10.06 10.06 0 0 0-1.978-6.053c-.81-1.095-2.579-3.159-4.174-2.847-1.123.219-1.241 1.243-1.117 2.287.082.669.264 1.347.346 1.823Z"/><path fill="#B3594D" fill-rule="evenodd" d="M730.917 317.912c-.481-.534-.875-1.142-.655-1.89.599-2.042 3.187-.506 4.208.163.895.585 1.828 1.215 2.664 1.941a.89.89 0 0 1 .129.076l.033.024c.882.627 2.762 1.964 3.096 3.273a70.433 70.433 0 0 1 5.715 4.198c-.177-.357-.329-.729-.482-1.102-.137-.335-.274-.67-.43-.996-.116-.242-.236-.481-.355-.719-.471-.937-.935-1.859-1.085-2.893a5.652 5.652 0 0 1-.051-.883c.034-.777.335-1.626 1.038-1.955.855-.4 1.871.163 2.476.889.827.993 1.223 2.261 1.595 3.499.371 1.238.74 2.487.835 3.775.04.518.028 1.061-.188 1.533-.19.413-.573.764-1.015.834a82.886 82.886 0 0 1 5.213 5.036 14.591 14.591 0 0 1-1.05-3.086c-.096-.422-.208-.92-.304-1.443-.185-1.015-.368-2.183-.025-3.184.239-.698.993-1.275 1.69-1.047.47.152.771.602 1.019 1.03a22.473 22.473 0 0 1 2.534 6.566c.169.782.293 1.609.034 2.363-.24.698-.909 1.3-1.631 1.275a103.33 103.33 0 0 1 3.577 4.28c-.821-2.203-.802-4.784-.193-6.977.191-.686.517-1.429 1.181-1.682.093-.037.189-.059.287-.073.433-.057.892.095 1.246.363.434.329.729.807.962 1.296 1.331 2.788.915 6.074.195 9.075-.11.451-.273.96-.698 1.14a.825.825 0 0 1-.558.028 135.104 135.104 0 0 1 3.493 4.972c-.978-2.664-.585-6.073.585-8.564l.023-.046a.75.75 0 0 1 .025-.049c.248-.493.61-.979 1.142-1.078.532-.096 1.069.242 1.362.695.292.453.391 1.004.464 1.539.326 2.335.326 4.728-.11 7.046-.174.923-.596 2.006-1.525 2.15-.371.058-.727-.062-1.031-.282a174.061 174.061 0 0 1 3.164 5.019c-.071-.668-.001-1.34.068-2.015a17.732 17.732 0 0 0 .116-1.869c.027-1.053.053-2.088.408-3.075.098-.27.219-.537.377-.796.394-.669 1.06-1.277 1.837-1.235.942.051 1.572 1.024 1.764 1.95.261 1.263.011 2.571-.245 3.837s-.52 2.54-1.044 3.722c-.211.475-.475.948-.891 1.263-.322.245-.754.372-1.143.295a250.448 250.448 0 0 1 2.533 4.38c.029-.353.078-.707.128-1.062v-.001c.05-.358.1-.717.129-1.079.022-.266.038-.532.054-.797.064-1.05.127-2.08.517-3.052.107-.267.239-.528.399-.779.417-.655 1.106-1.24 1.88-1.17.939.084 1.536 1.08 1.693 2.011.217 1.272-.079 2.571-.38 3.826s-.61 2.521-1.176 3.682c-.227.467-.509.932-.933 1.23a1.576 1.576 0 0 1-.599.257c.84 1.521 1.672 3.048 2.499 4.577-.375-2.549.329-5.444 1.578-7.557.014-.019.026-.041.039-.062l.017-.028c.293-.467.701-.917 1.247-.965.537-.048 1.04.337 1.288.818.248.479.293 1.036.315 1.576.101 2.357-.124 4.737-.779 7.004-.262.903-.785 1.941-1.722 1.998a1.246 1.246 0 0 1-.53-.086l1.615 3.012.002.003.001.004.002.003.002.003.001.003.001.001.726 1.356c-.019-.574.048-1.15.117-1.729.041-.355.083-.711.105-1.068.017-.271.028-.54.039-.809.042-1.048.084-2.077.453-3.051a4.79 4.79 0 0 1 .385-.79c.406-.664 1.084-1.26 1.857-1.207.94.068 1.556 1.049 1.733 1.978.245 1.268-.025 2.574-.301 3.834-.214.979-.433 1.963-.774 2.903v-.003h-3.583l.002.004h-1.275l-.245-.461c-.11.22-.31.361-.54.46h-9.016a7.816 7.816 0 0 1-.661-.301c-.481-.251-.951-.56-1.266-.999-.256-.363-.394-.827-.324-1.257.017-.099.042-.194.082-.287.276-.659 1.027-.96 1.719-1.128 2.948-.72 6.551-.367 8.979 1.587a938.49 938.49 0 0 0-3.502-6.518 1.217 1.217 0 0 1-.019.102c-.208.917-1.316 1.264-2.25 1.374-2.343.274-4.729.109-7.039-.374-.528-.11-1.068-.245-1.502-.569-.433-.323-.731-.883-.599-1.406.135-.529.647-.858 1.156-1.069.034-.014.065-.029.099-.041 2.728-1.057 6.425-1.17 9.058.24.073.039.145.083.215.13a338.131 338.131 0 0 0-2.926-5.225 2.023 2.023 0 0 1-.85 1.018c-.684.411-1.52.462-2.318.459a22.525 22.525 0 0 1-6.949-1.114c-.47-.155-.97-.354-1.218-.782-.366-.636.04-1.494.67-1.871.914-.545 2.093-.607 3.122-.638a36.496 36.496 0 0 1 1.474-.003c1.531.014 3.055.25 4.504.754.13.046.263.096.393.151a205.622 205.622 0 0 0-2.905-4.816 1.578 1.578 0 0 1-.472.625c-.408.326-.928.467-1.443.554-1.272.217-2.574.16-3.865.098-1.289-.062-2.619-.14-3.781-.706-.85-.413-1.64-1.263-1.457-2.188.149-.763.903-1.261 1.648-1.477.293-.087.583-.141.867-.169 1.038-.102 2.045.125 3.069.357.261.059.522.118.785.172.356.074.715.126 1.074.179.801.117 1.596.233 2.325.578a149.056 149.056 0 0 0-2.891-4.336.95.95 0 0 1-.145.152c-.906 1.66-5.469 1.061-6.678.805-1.041-.222-2.945-.692-3.384-1.84-.419-1.1.695-1.724 1.614-1.893 2.107-.388 4.822-.504 6.922.421a112.309 112.309 0 0 0-3.897-5.064 1.237 1.237 0 0 1-.138.485c-.22.408-.642.659-1.066.842-1.832.787-3.922.644-5.885.309-1.55-.264-3.134-.664-4.386-1.615-.523-.396-1.018-1.057-.765-1.665.233-.563.945-.715 1.55-.771 1.862-.177 3.685-.118 5.516.028.822.068 1.643.149 2.473.237.358.037.722.095 1.067.199a93.002 93.002 0 0 0-3.784-4.145c-.261.443-.798.765-1.307.946-1.21.434-2.51.515-3.792.541-1.739.033-3.508-.04-5.168-.56-.987-.31-1.98-.827-2.484-1.73-.425-.763-.357-1.865.315-2.467.623-.557 1.702-.571 2.534-.582l.172-.003c.898-.015 1.789.07 2.676.208 1.093.173 2.175.428 3.247.68l.086.02c.326.079.654.158.979.247a75.504 75.504 0 0 0-4.521-3.923c.004.312-.146.64-.38.835-.906 1.66-5.469 1.06-6.679.804-1.04-.222-2.945-.692-3.384-1.839-.419-1.1.695-1.725 1.615-1.893 1.922-.351 4.347-.48 6.351.2a67.763 67.763 0 0 0-2.377-1.661 1.04 1.04 0 0 1-.686.352c-1.91.242-4.141-1.221-5.578-2.321-1.078-.83-2.076-1.803-2.985-2.816Zm60.629 50.573c-.074.414-.15.828-.227 1.242 1.386-2.388 4.027-4.084 6.627-4.791.689-.186 1.491-.287 2.051.155.078.062.149.132.211.211.272.343.374.816.323 1.257-.062.54-.323 1.038-.624 1.491-1.716 2.566-4.752 3.891-7.7 4.805-.441.138-.962.256-1.336-.017a.835.835 0 0 1-.13-.121c-.172.857-.349 1.714-.532 2.569h-1.147c.458-2.134.883-4.274 1.276-6.42-1.842.056-3.99-3.795-4.491-4.889-.442-.965-1.204-2.774-.543-3.812.63-.99 1.797-.473 2.481.166 1.214 1.132 2.517 2.655 3.28 4.323.242-1.487.468-2.976.679-4.467a1.244 1.244 0 0 1-.506.201c-.456.071-.911-.121-1.311-.351-1.724-.999-2.858-2.763-3.761-4.538-.714-1.404-1.339-2.911-1.322-4.484.009-.658.242-1.449.881-1.609.59-.146 1.136.335 1.544.785 1.255 1.39 2.295 2.889 3.269 4.445a92.8 92.8 0 0 1 1.285 2.126c.109.183.213.373.305.568.265-2.078.5-4.159.705-6.243-.537.104-1.167-.147-1.649-.469-1.066-.711-1.91-1.704-2.695-2.72-1.063-1.376-2.059-2.838-2.633-4.481-.343-.976-.52-2.085-.095-3.027.357-.796 1.28-1.401 2.166-1.221.819.168 1.478 1.03 1.983 1.691l.101.132a15.294 15.294 0 0 1 1.432 2.27c.512.976.951 1.998 1.387 3.011l.037.086c.108.251.216.504.318.759.163-2.049.296-4.1.401-6.154a.593.593 0 0 1 .035-.179c-1.39-.704-1.058-3.672-.913-4.964l.007-.064a.938.938 0 0 1 .022-.108v-.001l.006-.024.003-.013c.02-1.108.172-2.222.335-3.28.183-1.207.771-4.158 2.689-3.241.703.335.892 1.036.968 1.75.146 1.35.202 2.746.098 4.102-.138 1.806-.543 4.441-1.997 5.702-.05.043-.101.081-.153.114a.607.607 0 0 1 .025.206 216.147 216.147 0 0 1-.195 3.323c.474-.674 1.127-1.17 1.785-1.669.286-.218.574-.436.848-.67.2-.172.397-.347.592-.521.787-.701 1.561-1.39 2.525-1.805.265-.113.543-.205.838-.267.757-.172 1.657-.099 2.158.495.608.723.326 1.848-.217 2.619-.742 1.055-1.87 1.766-2.967 2.444-1.097.681-2.209 1.359-3.429 1.784-.493.172-1.016.304-1.531.214a1.588 1.588 0 0 1-.763-.359c-.17 2.223-.375 4.443-.614 6.659a14.199 14.199 0 0 1 3.477-2.728l.131-.073v-.001a37.05 37.05 0 0 1 1.161-.635c.917-.472 1.98-.987 3.041-.95.734.025 1.505.579 1.491 1.313-.009.495-.352.912-.69 1.275a22.491 22.491 0 0 1-5.544 4.335c-.698.385-1.455.745-2.251.717a2.043 2.043 0 0 1-1.141-.404 216.095 216.095 0 0 1-.647 4.877c1.687-2.342 4.825-3.913 7.607-4.288.037-.006.071-.011.107-.014.549-.059 1.154-.02 1.528.377.368.394.377 1.026.155 1.519-.223.492-.633.872-1.041 1.223-1.789 1.542-3.795 2.842-5.981 3.733-.869.355-2.008.588-2.633-.112a1.393 1.393 0 0 1-.09-.113 212.484 212.484 0 0 1-.691 4.189 5.197 5.197 0 0 1-.052.714.717.717 0 0 1-.132.32Z" clip-rule="evenodd"/><path fill="#508C42" d="M50.979 201.331c-4.473-6.605-14.226-9.753-21.228-5.156-2.028 1.33-3.575 3.241-5.125 5.075-1.674 1.98-3.334 3.969-4.917 6.022-2.982 3.868-5.71 7.987-7.52 12.544-1.938 4.883-2.31 9.927-2.337 15.129-.031 5.51.107 11.272-2.363 16.349-1.818 3.736-4.653 6.738-7.483 9.739v50.396c.155-.121.306-.239.45-.348 1.896-1.46 3.612-3.143 5.182-4.946 6.993-8.042 10.985-18.288 18.65-25.796 3.567-3.494 7.632-6.577 10.08-11.03 2.351-4.281 3.223-9.148 4.078-13.902.923-5.125 1.998-10.076 4.364-14.757 2.326-4.603 5.32-8.828 7.713-13.393 4.203-8.021 5.834-17.982.456-25.926Z"/><path fill="#7FBD77" d="m.004 314.301.27-.638c.115-.276-.056-.529-.27-.616v1.254Z"/><path fill="#508C42" d="M97.82 351.116c-3.208-2.998-8.26-3.763-12.44-4.242-4.847-.554-9.795-.604-14.487-2.079-4.816-1.513-8.229-4.599-10.69-8.948-2.169-3.834-3.66-8.04-6.192-11.669-2.3-3.302-5.302-6.076-8.695-8.231-13.868-8.805-31.596-6.267-45.31 1.787v20.839c3.629 1.75 7.89 2.259 11.829 2.641 5.055.493 10.158.549 15.176 1.368 4.906.801 9.441 2.489 13.54 5.325 3.792 2.622 7.108 5.851 10.577 8.872 3.449 3.002 7.083 5.736 11.235 7.702a41.887 41.887 0 0 0 12.867 3.716c4.507.552 9.168.391 13.599-.635 3.876-.898 7.944-2.737 9.975-6.355 1.803-3.207 1.837-7.449-.985-10.091Z"/><path fill="#508C42" d="M117.969 259.447c-4.419-3.337-10.253-4.721-15.407-6.501-5.539-1.913-11.233-4.361-17.202-4.2-5.111.138-9.958 1.994-14.608 3.961-5.148 2.174-10.215 4.467-15.756 5.432-5.503.959-11.222 1.046-16.513 2.996-9.317 3.437-14.245 12.439-20.097 19.812-3.08 3.882-6.928 7.207-10.6 10.67-2.616 2.262-5.246 4.518-7.786 6.861v24.125a36.65 36.65 0 0 1 3.443-2.554 36.083 36.083 0 0 1 6.946-3.547c2.588-.979 5.291-1.567 7.935-2.375 4.56-1.389 8.139-3.837 11.236-7.44 2.934-3.415 5.302-7.286 8.377-10.586 1.61-1.727 3.415-3.274 5.505-4.394 2.473-1.325 5.221-2.02 7.925-2.698 2.565-.644 5.145-1.28 7.561-2.371 2.532-1.145 4.777-2.799 7-4.448 4.458-3.313 8.965-5.955 14.475-7.072 5.581-1.13 11.413-.849 16.946.414 5.309 1.212 10.755 3.44 16.291 2.481 3.882-.672 7.924-3.03 9.117-7.005 1.333-4.425-1.325-8.945-4.788-11.561Z"/><path fill="#3C732D" d="M34.583 263.045c-7.775 2.81-14.057 9.097-16.884 16.87-.765 2.104-.926 4.355-1.654 6.447-.799 2.29-3.457 3.438-5.235 4.906-3.725 3.075-6.816 6.848-9.165 11.061-.265.476.464.901.728.425 2.318-4.155 5.36-7.857 9.033-10.889 1.544-1.274 3.792-2.296 4.886-4.04 1.05-1.671 1.08-3.871 1.595-5.733 2.313-8.341 8.791-15.294 16.918-18.234.51-.183.29-.999-.222-.813ZM22.808 310.518c-1.052.116-2.053-.315-3.08-.503a16.412 16.412 0 0 0-2.32-.259c-1.692-.065-3.388.138-5.04.492-3.532.76-6.866 2.262-10.1 3.835-.49.236-.063.964.424.728 3.173-1.541 6.433-2.999 9.9-3.75 1.659-.36 3.36-.54 5.06-.447 1.71.09 3.463.934 5.156.748.535-.056.54-.903 0-.844ZM40.52 199.171a62.719 62.719 0 0 0-11.38 19.165c-.191.51.625.729.813.226a61.557 61.557 0 0 1 11.16-18.792c.357-.411-.24-1.01-.594-.599ZM40.773 218.849a350.712 350.712 0 0 0-15.46 15.888 15240.4 15240.4 0 0 0 2.866-10.746c.14-.526-.672-.748-.813-.225-1.764 6.614-3.466 13.252-5.25 19.863-.866-.644-1.22-1.924-1.65-2.864l-1.697-3.721c-1.094-2.397-2.185-4.797-3.28-7.193-.225-.493-.954-.065-.728.424 1.243 2.729 2.49 5.458 3.733 8.186.602 1.323 1.2 2.648 1.808 3.97.389.841.763 1.586 1.581 2.053a539.817 539.817 0 0 1-1.758 6.347c-1.235 4.351-2.917 8.371-5.862 11.854-2.585 3.058-5.655 5.671-8.18 8.782-2.558 3.151-4.555 6.777-4.715 10.907-.02.543.824.543.843 0 .211-5.387 3.714-9.734 7.3-13.45 1.21-1.252 2.437-2.484 3.612-3.75.062.04.138.065.231.062a53.273 53.273 0 0 0 11.002-1.432c.529-.126.304-.939-.225-.812a52.4 52.4 0 0 1-10.279 1.381c1.978-2.206 3.761-4.552 5.002-7.331 2.21-4.965 3.297-10.459 4.692-15.689l1.494-5.601c.149.116.36.136.523-.045a351.985 351.985 0 0 1 15.804-16.262c.396-.377-.203-.973-.594-.596ZM113.16 266.661c-7.323-3.55-15.613-3.846-23.596-4.234-3.359-.163-6.8-.256-10.195-.017 3.013-2.492 6.023-4.987 9.036-7.48.419-.346-.18-.939-.597-.596-3.302 2.734-6.605 5.468-9.904 8.203-4.085.41-8.077 1.358-11.762 3.313-3.398 1.806-6.366 4.288-9.536 6.442a31.68 31.68 0 0 1-1.893 1.193c.424-2.464 1.918-4.743 3.074-6.909a362.1 362.1 0 0 1 3.843-7.007c.267-.476-.461-.9-.729-.425a367.55 367.55 0 0 0-4.343 7.95c-1.165 2.197-2.495 4.394-2.763 6.906-2.613 1.398-5.344 2.363-8.354 3.007-3.705.796-7.568 1.44-10.788 3.573-3.109 2.059-5.331 5.117-7.52 8.073-.38.515-.765 1.03-1.159 1.545-.326-4.968-.5-10.009 1.255-14.758.188-.509-.627-.731-.813-.225-1.888 5.106-1.59 10.569-1.224 15.903a.515.515 0 0 0 .014.075c-5.283 6.774-11.81 13.292-20.82 13.863-.54.034-.542.878 0 .844 7.832-.495 14.207-5.477 19.118-11.244 2.616-3.072 4.805-6.481 7.43-9.542 2.222-2.588 4.745-4.368 7.764-5.524.008.005.014.011.022.014l12.499 5.854c.49.227.917-.498.425-.729-3.942-1.845-7.88-3.691-11.821-5.536.461-.146.931-.284 1.418-.405 3.713-.934 7.539-1.395 11.05-3.01 3.35-1.539 6.259-3.846 9.24-5.978 3.334-2.383 6.777-4.386 10.769-5.44 4.087-1.081 8.344-1.3 12.552-1.247 3.007.04 6.028.158 9.038.36.009.014.014.031.023.045 2.58 4.189 8.014 5.359 10.518 9.582.276.467 1.007.042.728-.425-2.422-4.09-7.544-5.322-10.217-9.128 1.258.092 2.515.196 3.767.32 4.83.47 9.629 1.393 14.023 3.522.49.237.917-.489.428-.728ZM85.583 350.649a138.87 138.87 0 0 1-11.09 5.904c-.362.172-1.968-.627-2.365-.767a48.921 48.921 0 0 1-2.405-.926 53.391 53.391 0 0 1-4.639-2.205c-2.914-1.562-5.79-3.359-8.405-5.382-1.036-.802-2.051-1.685-3.024-2.543-4.389-3.871-7.807-8.467-11.706-12.788-1.963-2.177-4.149-4.147-6.743-5.545a26.413 26.413 0 0 0-1.648-.804 45.712 45.712 0 0 0 10.822-3.247c.495-.216.067-.945-.425-.728a45.115 45.115 0 0 1-11.874 3.359c-1.696-.656-3.449-1.182-5.196-1.677-7.28-2.062-14.552-2.731-21.905-.577-.52.152-.298.968.225.813a32.112 32.112 0 0 1 5.612-1.108 146.983 146.983 0 0 1 10.808 16.33c.27.473.998.048.729-.425a147.758 147.758 0 0 0-10.56-15.998c4.708-.365 9.4.276 14.104 1.567 3.106.852 6.262 1.775 9.095 3.342 2.723 1.508 4.948 3.671 6.979 6 3.817 4.383 7.325 8.87 11.764 12.676.355.304.715.605 1.078.903a76.325 76.325 0 0 1 2.967 12.659c.08.534.892.307.813-.225a76.563 76.563 0 0 0-2.588-11.478c3.598 2.816 7.497 5.252 11.658 7.146 5.58 2.54 11.57 4.053 17.708 4.262.543.019.543-.825 0-.844a43.558 43.558 0 0 1-9.657-1.446 138.807 138.807 0 0 0 10.296-5.517c.464-.278.042-1.01-.428-.731Z"/><path fill="#32661E" d="M425.62 306.368c-.318-1.615-1.23-2.948-2.102-4.312-.951-1.488-1.924-2.963-3.027-4.341-2.064-2.585-4.607-4.737-7.786-5.778-.518-.169-.74.644-.225.813 3.103 1.015 5.544 3.184 7.53 5.713.957 1.218 1.809 2.51 2.645 3.809.875 1.365 1.828 2.704 2.149 4.321.107.532.92.307.816-.225Z"/><path fill="#3E7528" d="M473.688 378.073c-.185-2.965-.675-5.992-1.69-8.687-1.485-3.949-4.397-6.461-7.953-8.552-3.856-2.267-7.992-4.388-10.684-8.098-1.561-2.152-2.121-4.743-3.291-7.089-.875-1.759-2.175-3.272-3.742-4.451a13.727 13.727 0 0 0-3.752-1.994c1.094-8.521.982-17.126-1.64-25.436-3.789-12.001-13.185-21.782-25.222-25.644a39.197 39.197 0 0 0-13.151-1.831c-.389-.127-.78-.287-.96-.566-.219-.346-.197-1.17-.284-1.586a31.44 31.44 0 0 0-1.007-3.711c-1.508-4.464-3.986-8.627-7.308-11.978-3.204-3.232-7.252-5.682-11.714-6.686-2.917-.656-5.817-.783-8.408-2.445-2.298-1.477-4.121-3.559-6.169-5.342-8.327-7.241-19.714-5.131-29.509-2.672-6.209 1.558-12.482 2.99-18.637 4.754-2.377.68-4.763 1.564-6.72 3.114-1.826 1.446-3.016 3.415-3.857 5.558-1.843 4.709-2.439 9.63-6.439 13.151-3.458 3.044-7.877 4.701-11.793 7.036-3.727 2.222-6.745 5.075-8.194 9.258-1.179 3.398-1.407 7.173-2.417 10.644-3.749 1.185-7.401 2.667-10.869 4.532-6.732 3.615-12.201 8.606-16.437 14.952-2.403 3.598-4.715 7.229-8.192 9.899-3.308 2.537-7.176 4.211-11.052 5.674-6.791 2.56-14.066 4.65-19.571 9.632-2.568 2.324-4.251 5.12-5.522 8.315-.715 1.79-1.376 3.643-2.478 5.241-1.272 1.843-3.092 2.732-5.047 3.691-1.767.864-3.106 1.986-4.411 3.446-1.502 1.677-2.962 3.086-5.148 3.792-3.738 1.207-7.736.878-11.398 2.447A19.613 19.613 0 0 0 176 378.07h297.688v.003Z"/><path fill="#32661E" fill-rule="evenodd" d="M311.727 269.758c5.612-9.157 15.922-13.329 26.004-15.441.532-.113.757.7.225.813-9.863 2.064-20.004 6.084-25.5 15.052-.285.465-1.013.04-.729-.424Zm-2.26 12.915c-9.581 3.108-20.578 7.637-23.557 18.318-.146.524.667.749.813.225 2.895-10.374 13.686-14.718 22.969-17.728.515-.168.293-.984-.225-.815Zm-34.025 27.023a39.566 39.566 0 0 0-17.616 13.252c-.326.434.405.856.729.425a38.555 38.555 0 0 1 17.112-12.864c.503-.191.284-1.007-.225-.813Zm-28.8 27.07c2.661-2.169 4.979-4.712 6.943-7.525.309-.444 1.041-.019.728.425-2.104 3.016-4.596 5.73-7.477 8.02-2.821 2.242-6.065 4.422-9.584 5.353-.526.141-.748-.675-.225-.813 3.519-.931 6.822-3.181 9.615-5.46Zm-37.916 28.314c5.052-9.416 11.992-19.605 23.45-21.214.531-.073.759.74.225.813-11.255 1.581-17.987 11.582-22.947 20.825-.256.482-.984.054-.728-.424Zm2.771 6.724a48.935 48.935 0 0 1 12.985-18.766c.402-.36 1.001.233.593.596a48.049 48.049 0 0 0-12.766 18.395c-.194.501-1.009.281-.812-.225Zm139.102-115.059a44.353 44.353 0 0 0-22.944 5.555c-.475.265-.05.993.425.729a43.49 43.49 0 0 1 22.516-5.44c.546.019.546-.825.003-.844Zm37.985 14.369c3.461 2.464 6.358 5.809 7.146 10.09.098.532-.718.757-.816.223-.777-4.237-3.694-7.486-7.154-9.863-3.415-2.346-7.589-4.855-11.843-4.853-.543 0-.543-.844 0-.844 4.543-.002 9.067 2.684 12.667 5.247Zm37.503 29.732c-5.043-9.989-17.247-11.281-27.174-10.442-.537.045-.543.889 0 .844 9.635-.813 21.537.298 26.446 10.023.245.483.973.059.728-.425Zm-61.248-33.555c5.986.228 12.161.557 17.511 3.541.473.265.048.993-.424.729-5.219-2.909-11.25-3.204-17.087-3.426-.543-.02-.543-.864 0-.844Zm-22.006 21.313c-7.84-1.114-16.443.852-20.915 7.919-.293.461.439.883.728.425 4.254-6.718 12.513-8.589 19.962-7.531.532.076.762-.737.225-.813Zm-43.88 16.812c5.257-5.128 12.644-7.677 19.947-6.839.535.062.537.906 0 .844-7.089-.813-14.237 1.607-19.351 6.591-.388.38-.985-.216-.596-.596Zm12.35-2.173c-7.548 2.163-13.914 7.531-17.292 14.62-.234.486.495.917.728.424 3.292-6.9 9.435-12.124 16.789-14.231.52-.149.301-.962-.225-.813Zm-49.847 47.232c6.568-6.729 15.123-13.359 25.143-11.247.532.113.304.926-.225.813-9.697-2.045-17.989 4.54-24.322 11.03-.379.391-.976-.208-.596-.596Zm10.633-1.717c-7.3 2.636-13.391 7.941-16.969 14.833-.25.481.478.909.729.425 3.474-6.692 9.367-11.882 16.462-14.445.509-.183.29-.999-.222-.813Zm33.479-6.093c5.618-5.952 14.066-6.782 21.804-6.574.543.014.543.858 0 .844-7.516-.203-15.742.537-21.207 6.326-.375.397-.971-.202-.597-.596Zm72.202-54.68c-4.67-4.619-11.888-6.084-17.975-3.598-.495.203-.279 1.019.225.813 5.817-2.377 12.681-1.046 17.154 3.382.385.382.984-.214.596-.597Zm-42.813 40.584c5.159-3.21 11.255-1.744 16.715-.237.524.147.299.96-.225.813-5.24-1.446-11.103-2.936-16.065.152-.462.287-.886-.441-.425-.728Z" clip-rule="evenodd"/><path fill="#B3594D" d="M577.526 374.973h56.945l.051-.211c.413-1.64 1.482-4.988 1.175-7.461-.143-1.159-.588-2.126-1.544-2.638-1.691-.903-4.27 1.471-5.387 2.514-.321.299-.619.617-.909.943.394-2.267.54-4.563.324-6.87-.096-1.021-.315-2.548-1.359-3.074-1.142-.574-2.228.5-2.909 1.282-.109.124-.213.254-.318.38.493-2.655.718-5.348.332-8.014-.177-1.227-.773-2.974-2.382-2.695-1.539.267-2.847 2.433-3.697 3.62-.976 1.37-1.797 2.841-2.537 4.352.29-2.411.475-4.833.484-7.277.008-1.989.07-4.282-1.03-6.032-.79-1.254-2.076-1.665-3.122-.455-1.289 1.488-2.085 3.64-2.737 5.474-.782 2.2-1.303 4.481-1.742 6.771-.149.788-.292 1.575-.427 2.366.273-1.573-.031-3.477-.068-5.075a152.382 152.382 0 0 0-.216-5.531c-.166-2.827-.414-5.654-.954-8.436-.352-1.809-.816-4.968-2.751-5.806-1.438-.622-2.501 1.823-2.9 2.751-1.084 2.504-1.446 5.348-1.852 8.023a91.296 91.296 0 0 0-.846 7.961 23.31 23.31 0 0 0-.853-2.625c-.644-1.623-4.028-6.337-5.986-4.112-3.384 3.842-.259 10.481.239 15.519.166 1.669.366 3.334.611 4.991-.116-.301-.231-.602-.349-.903-1.033-2.633-2.054-5.275-3.269-7.829-1.164-2.45-5.232-10.617-7.415-4.636-1.305 3.575-.431 7.975.644 11.497.585 1.913 1.305 3.795 2.085 5.663a34.89 34.89 0 0 0-1.424-1.986 36.957 36.957 0 0 0-3.724-4.144c-.853-.813-1.857-1.873-3.069-2.101-1.131-.214-2.732.45-2.476 1.792.7 3.693 2.411 6.835 4.189 10.113.129.233.619.987 1.173 1.899Z"/><path fill="#873D42" fill-rule="evenodd" d="M597.638 353.868c-.056-.535-.903-.54-.844 0 .689 6.45.996 12.929.917 19.413-.006.543.838.543.844 0a163.92 163.92 0 0 0-.917-19.413Zm-2.979 18.639-1.027-2.64-1.027-2.64c-.194-.501-1.01-.284-.813.225l1.027 2.64 1.027 2.64c.194.498 1.01.282.813-.225Zm11.542-14.133c.017-.543.861-.543.844 0-.143 4.363-.101 8.726.121 13.086.028.543-.815.54-.844 0-.222-4.36-.261-8.723-.121-13.086Zm8.161.034c-.841 3.77-1.521 7.57-2.039 11.399-.073.532.74.759.813.225a135.984 135.984 0 0 1 2.04-11.401c.118-.526-.695-.754-.814-.223Zm5.877 12.089a121.09 121.09 0 0 0 2.444-9.553c.113-.532.926-.307.813.225a121.09 121.09 0 0 1-2.444 9.553c-.155.521-.971.296-.813-.225Zm6.751-1.267-.071.189-.002.003c-.437 1.157-.874 2.317-1.314 3.474-.191.509.625.728.813.225l.073-.193c.437-1.157.874-2.316 1.314-3.473.194-.509-.622-.728-.813-.225Zm-42.646 2.589.95 2.093c.225.492-.504.92-.729.425l-.897-1.977-.898-1.976c-.222-.489.504-.919.729-.424l.845 1.859Z" clip-rule="evenodd"/><path fill="#B3594D" d="M1527.39 374.973h56.94l.06-.211c.41-1.64 1.48-4.988 1.17-7.461-.14-1.159-.59-2.126-1.54-2.638-1.69-.903-4.27 1.471-5.39 2.514a14.2 14.2 0 0 0-.91.943c.39-2.267.54-4.563.32-6.87-.09-1.021-.31-2.548-1.35-3.074-1.15-.574-2.23.5-2.91 1.282-.11.124-.22.254-.32.38.49-2.655.72-5.348.33-8.014-.18-1.227-.77-2.974-2.38-2.695-1.54.267-2.85 2.433-3.7 3.62-.97 1.37-1.8 2.841-2.54 4.352.29-2.411.48-4.833.49-7.277.01-1.989.07-4.282-1.03-6.032-.79-1.254-2.08-1.665-3.12-.455-1.29 1.488-2.09 3.64-2.74 5.474-.78 2.2-1.3 4.481-1.74 6.771-.15.788-.29 1.575-.43 2.366.27-1.573-.03-3.477-.07-5.075-.04-1.845-.1-3.688-.21-5.531-.17-2.827-.42-5.654-.96-8.436-.35-1.809-.81-4.968-2.75-5.806-1.44-.622-2.5 1.823-2.9 2.751-1.08 2.504-1.44 5.348-1.85 8.023-.4 2.641-.68 5.297-.85 7.961-.23-.895-.51-1.772-.85-2.625-.64-1.623-4.03-6.337-5.99-4.112-3.38 3.842-.25 10.481.24 15.519.17 1.669.37 3.334.61 4.991-.11-.301-.23-.602-.34-.903-1.04-2.633-2.06-5.275-3.27-7.829-1.17-2.45-5.24-10.617-7.42-4.636-1.3 3.575-.43 7.975.65 11.497.58 1.913 1.3 3.795 2.08 5.663-.45-.675-.92-1.342-1.42-1.986a36.816 36.816 0 0 0-3.73-4.144c-.85-.813-1.85-1.873-3.07-2.101-1.13-.214-2.73.45-2.47 1.792.7 3.693 2.41 6.835 4.19 10.113.13.233.62.987 1.17 1.899Z"/><path fill="#873D42" fill-rule="evenodd" d="M1547.5 353.868c-.05-.535-.9-.54-.84 0 .69 6.45.99 12.929.91 19.413 0 .543.84.543.85 0 .08-6.484-.23-12.963-.92-19.413Zm-2.98 18.639-1.02-2.64c-.35-.879-.69-1.759-1.03-2.64-.2-.501-1.01-.284-.81.225l1.02 2.64c.34.88.69 1.76 1.03 2.64.19.498 1.01.282.81-.225Zm11.54-14.133c.02-.543.87-.543.85 0-.14 4.363-.1 8.726.12 13.086.03.543-.82.54-.84 0-.23-4.36-.27-8.723-.13-13.086Zm8.17.034a129.6 129.6 0 0 0-2.04 11.399c-.08.532.74.759.81.225.52-3.829 1.2-7.629 2.04-11.401.12-.526-.7-.754-.81-.223Zm5.87 12.089c.95-3.15 1.76-6.335 2.45-9.553.11-.532.92-.307.81.225-.69 3.218-1.5 6.403-2.44 9.553-.16.521-.98.296-.82-.225Zm6.75-1.267-.07.189v.003c-.44 1.157-.87 2.317-1.31 3.474-.19.509.62.728.81.225l.07-.193 1.32-3.473c.19-.509-.63-.728-.82-.225Zm-42.64 2.589c.31.698.63 1.396.95 2.093.22.492-.51.92-.73.425l-.9-1.977-.9-1.976c-.22-.489.51-.919.73-.424.28.619.57 1.239.85 1.859Z" clip-rule="evenodd"/><path fill="#B3594D" d="M1817.39 374.973h56.94l.06-.211c.41-1.64 1.48-4.988 1.17-7.461-.14-1.159-.59-2.126-1.54-2.638-1.69-.903-4.27 1.471-5.39 2.514a14.2 14.2 0 0 0-.91.943c.39-2.267.54-4.563.32-6.87-.09-1.021-.31-2.548-1.35-3.074-1.15-.574-2.23.5-2.91 1.282-.11.124-.22.254-.32.38.49-2.655.72-5.348.33-8.014-.18-1.227-.77-2.974-2.38-2.695-1.54.267-2.85 2.433-3.7 3.62-.97 1.37-1.8 2.841-2.54 4.352.29-2.411.48-4.833.49-7.277.01-1.989.07-4.282-1.03-6.032-.79-1.254-2.08-1.665-3.12-.455-1.29 1.488-2.09 3.64-2.74 5.474-.78 2.2-1.3 4.481-1.74 6.771-.15.788-.29 1.575-.43 2.366.27-1.573-.03-3.477-.07-5.075-.04-1.845-.1-3.688-.21-5.531-.17-2.827-.42-5.654-.96-8.436-.35-1.809-.81-4.968-2.75-5.806-1.44-.622-2.5 1.823-2.9 2.751-1.08 2.504-1.44 5.348-1.85 8.023-.4 2.641-.68 5.297-.85 7.961-.23-.895-.51-1.772-.85-2.625-.64-1.623-4.03-6.337-5.99-4.112-3.38 3.842-.25 10.481.24 15.519.17 1.669.37 3.334.61 4.991-.11-.301-.23-.602-.34-.903-1.04-2.633-2.06-5.275-3.27-7.829-1.17-2.45-5.24-10.617-7.42-4.636-1.3 3.575-.43 7.975.65 11.497.58 1.913 1.3 3.795 2.08 5.663-.45-.675-.92-1.342-1.42-1.986a36.816 36.816 0 0 0-3.73-4.144c-.85-.813-1.85-1.873-3.07-2.101-1.13-.214-2.73.45-2.47 1.792.7 3.693 2.41 6.835 4.19 10.113.13.233.62.987 1.17 1.899Z"/><path fill="#873D42" fill-rule="evenodd" d="M1837.5 353.868c-.05-.535-.9-.54-.84 0 .69 6.45.99 12.929.91 19.413 0 .543.84.543.85 0 .08-6.484-.23-12.963-.92-19.413Zm-2.98 18.639-1.02-2.64c-.35-.879-.69-1.759-1.03-2.64-.2-.501-1.01-.284-.81.225l1.02 2.64c.34.88.69 1.76 1.03 2.64.19.498 1.01.282.81-.225Zm11.54-14.133c.02-.543.87-.543.85 0-.14 4.363-.1 8.726.12 13.086.03.543-.82.54-.84 0-.23-4.36-.27-8.723-.13-13.086Zm8.17.034a129.6 129.6 0 0 0-2.04 11.399c-.08.532.74.759.81.225.52-3.829 1.2-7.629 2.04-11.401.12-.526-.7-.754-.81-.223Zm5.87 12.089c.95-3.15 1.76-6.335 2.45-9.553.11-.532.92-.307.81.225-.69 3.218-1.5 6.403-2.44 9.553-.16.521-.98.296-.82-.225Zm6.75-1.267-.07.189v.003c-.44 1.157-.87 2.317-1.31 3.474-.19.509.62.728.81.225l.07-.193 1.32-3.473c.19-.509-.63-.728-.82-.225Zm-42.64 2.589c.31.698.63 1.396.95 2.093.22.492-.51.92-.73.425l-.9-1.977-.9-1.976c-.22-.489.51-.919.73-.424.28.619.57 1.239.85 1.859Z" clip-rule="evenodd"/><path fill="#679431" d="M547.754 339.867c-.49-1.716-1.508-3.16-3.182-4.237-1.651-1.06-3.564-1.797-5.519-2.34a41.265 41.265 0 0 0-3.728-.83c-4.079-.732-8.253-.791-12.366-.298a49.33 49.33 0 0 0-8.422 1.775 46.994 46.994 0 0 0-7.942 3.237c-3.91 2.003-7.555 4.468-11.156 7.165-2.993 2.242-6.048 4.341-9.351 6.077.04-2.678 0-5.362.228-8.035.414-4.88 2.006-9.536 4.926-13.5 2.45-3.325 6.017-5.879 6.861-10.149.892-4.512.306-9.556-.402-14.065-.408-2.6-1.038-5.165-1.297-7.787-.259-2.658.135-5.142.551-7.761.608-3.829.169-7.486-2.726-10.305a9.82 9.82 0 0 0-9.024-2.579c-.284.062-.56.132-.83.214-5.201 1.51-8.178 5.955-9.584 10.92v.003c-.647 2.276-.965 4.655-1.021 6.917-.113 4.63.734 9.244.433 13.869-.152 2.34-.765 4.354-1.682 6.216l-.003.003c-1.108 2.251-2.664 4.279-4.4 6.392-.259.315-.506.624-.756.945 0 0-.003 0-.003.003-2.293 2.934-4.169 6.067-5.258 9.682-1.35 4.465-.602 9.334-2.267 13.675a19.636 19.636 0 0 1-1.289 2.692c-.844-3.964-2.124-7.832-3.921-11.506-3.668-7.477-9.221-13.193-16.234-17.584-3.503-2.189-7.233-4.448-9.25-8.198-2.115-3.927-2.515-8.478-4.923-12.313-3.868-6.16-11.826-11.525-19.334-8.83-2.996 1.075-5.511 3.528-6.639 6.504-1.226 3.23-.399 6.453 1.674 9.109 2.281 2.917 5.592 5.032 7.258 8.419 1.997 4.068 1.187 8.836.816 13.163-.338 3.932-.391 7.921 1.395 11.542 1.674 3.387 4.574 6.014 7.685 8.068 3.426 2.259 7.28 3.682 10.819 5.733.664.382 1.286.79 1.871 1.221-5.598-2.093-11.702-2.375-17.63-1.834-.548.05-1.094.106-1.637.168-3.758.434-7.646 1.654-11.438 1.463a9.148 9.148 0 0 1-2.577-.509c-2.734-.942-4.951-3.013-7.302-4.765-5.311-3.953-12.128-8.904-19.115-8.414-1.567.112-3.148.498-4.574 1.195a9.724 9.724 0 0 0-2.69 1.899c-1.116 1.128-1.803 2.487-2.211 3.947-.393 1.384-.54 2.861-.579 4.312-.158 6.093 1.736 12.307 7.145 15.669 6.237 3.879 13.95 3.162 20.685 5.559 6.371 2.267 11.831 7.35 19.013 6.43 3.947-.503 7.579-2.377 11.539-2.821 4.265-.473 8.451.793 12.555 1.775.822.197 2.265.886 4.006 1.817h42.432c4.763-1.575 8.957-4.183 14.024-5.297.455-.098.917-.174 1.378-.239 3.266-.413 6.653.039 9.818-.892 2.979-.88 5.404-2.92 7.8-4.807 2.898-2.284 5.989-4.276 9.314-5.874a47.525 47.525 0 0 1 10.175-3.519c3.089-.695 6.262-1.106 9.241-2.22 5.866-2.188 9.011-7.412 8.974-13.609 0-.937-.118-1.832-.354-2.661Z"/><path fill="#557D24" fill-rule="evenodd" d="M485.259 280.857a30.889 30.889 0 0 0-4.742 7.787c-.476 1.147-1.519 1.997-2.847 1.617-.754-.214-1.469-.937-1.677-1.741-.531-.222-.976-.616-1.198-1.14v-.002c1.409-4.965 4.385-9.41 9.584-10.921.152.239.267.498.332.771 1.044.74 1.612 2.346.548 3.629Zm-78.099 16.016c2.329 2.512 4.313 5.302 5.865 8.357.389.768.332 1.505.026 2.104.627 2.234-2.836 3.964-4.296 1.683a78.457 78.457 0 0 0-4.895-6.847c-.641-.797-.877-1.826-.424-2.701-.934-2.104 1.896-4.568 3.724-2.596Zm19.485 17.14c3.612 2.464 6.617 5.555 8.935 9.263.993 1.587-.209 3.092-1.632 3.379-.689 1.437-3.041 2.095-4.169.309-1.668-2.642-3.71-4.94-6.09-6.962-1.069-.912-.909-2.113-.203-2.932-.886-1.859 1.083-4.472 3.159-3.057Zm1.304 29.079a25.916 25.916 0 0 1-6.748-8.777c-.734-1.544-2.363-1.426-3.376-.537-1.556-.267-3.328.886-2.636 2.762 1.525 4.13 4.065 7.483 7.593 10.105.669.498 1.578.402 2.29-.003 2.222 1.266 5.024-1.733 2.877-3.55Zm21.836.616c1.888 2.765 3.294 5.8 4.237 9.013.686 2.335-2.147 3.572-3.68 2.419-.628.186-1.35.152-1.96-.156l.265.268c1.041 1.053 2.083 2.107 3.088 3.198 3.952 4.29 7.407 9.511 7.218 15.567-.022.639-1.013.639-.993 0 .249-7.662-5.404-13.395-10.401-18.463l-.064-.064c-2.076-2.107-4.14-4.242-5.868-6.653-1.155-1.614-2.121-3.343-3.087-5.073a94.019 94.019 0 0 0-1.63-2.843c-1.601-2.647-3.539-4.875-5.916-6.849a93.317 93.317 0 0 0-2.172-1.738v-.001c-1.508-1.184-3.016-2.367-4.371-3.724-3.89-3.89-4.896-8.814-5.946-13.954a327.84 327.84 0 0 0-.249-1.212c-1.28-6.158-4.093-11.592-8.76-15.871-.472-.431.231-1.131.701-.701 5.12 4.693 7.902 10.648 9.23 17.385.072.367.143.735.213 1.103.534 2.784 1.073 5.599 2.313 8.163 1.316 2.726 3.488 4.814 5.8 6.704.596.487 1.202.962 1.808 1.439h.001l.001.001c1.636 1.284 3.274 2.57 4.714 4.074 2.07 2.16 3.558 4.748 5.01 7.345 1.685 3.015 3.463 5.851 5.781 8.43a79.26 79.26 0 0 0 2.268 2.405 2.686 2.686 0 0 1-.097-.217c-1.164-2.979-2.661-5.801-4.397-8.485-1.623-2.512 2.386-4.827 3.998-2.337.967-.411 2.194-.276 2.945.827Zm96.019-2.84c.965.073 1.614-.366 1.949-1.002-.489-1.716-1.508-3.156-3.179-4.236-1.651-1.061-3.564-1.798-5.519-2.341a20.958 20.958 0 0 0-4.464.743c-1.919.529-2.009 2.701-.996 3.845-1.983 1.309-.751 4.985 1.862 4.167 3.387-1.061 6.808-1.441 10.347-1.176Zm-24.519-2.551-11.03 3.282c-1.808.54-2.956-1.04-2.844-2.495-.54-.515-.86-1.243-.813-1.927 2.515-1.294 5.145-2.394 7.942-3.238a49.462 49.462 0 0 1 8.422-1.775c.132.754-.129 1.531-.982 2 1.3 1.008 1.376 3.536-.695 4.153Zm-18.371 19.737a75.716 75.716 0 0 1 13.005-7.767c2.684-1.257 5.03 2.735 2.338 3.995a76.64 76.64 0 0 0-3.283 1.64c.714 1.004.762 2.562-.56 3.44-2.711 1.801-5.425 3.601-8.138 5.401l-.062.042c-1.986 1.32-3.854-.959-3.286-2.768a2.289 2.289 0 0 1-.844-.815c-.666-1.173-.183-2.417.83-3.168ZM495.639 309a60.814 60.814 0 0 1-.377-11.461c.127-2.067-2.064-2.692-3.479-1.887-1.069-1.415-4.065-.934-4.262 1.426a89.123 89.123 0 0 0-.197 11.919c.121 2.374 3.114 2.858 4.222 1.42.394.538.988.889 1.775.898 1.134.011 2.479-1.075 2.318-2.315Zm-23.291 19.434a77.578 77.578 0 0 1 5.398-9.421c1.1-1.64-.281-3.207-1.817-3.373-.489-1.3-2.099-2.197-3.407-1.26l-.002.003c-1.106 2.25-2.664 4.278-4.4 6.391a41.17 41.17 0 0 0-.757.945s-.003 0-.003.003a25.987 25.987 0 0 0-1.713 4.931c-.54 2.287 2.121 3.536 3.607 2.538 1.01.672 2.416.638 3.094-.757Zm13.153 3.57c-.197-.535-.566-1.013-1.018-1.283-1.176-.703-2.42-.163-3.168.83a32.933 32.933 0 0 0-5.727 12.298c-.518 2.209 1.949 3.449 3.454 2.631.855.199 1.786-.073 2.327-1.092l2.226-4.185.012-.022.011-.022.012-.022 3.109-5.845c.768-1.437-.082-2.788-1.238-3.288Zm-116.104 20.871c1.941.923 3.71-.923 3.508-2.492 1.901-.389 2.995-3.165.838-4.206a30.922 30.922 0 0 1-8.251-5.775 9.723 9.723 0 0 0-2.689 1.899c-1.117 1.125-1.801 2.483-2.211 3.946.315.296.632.582.941.861v.001c.268.241.529.477.777.708 2.133 1.986 4.442 3.806 7.087 5.058Zm26.473 13.434c-3.702-2.085-7.687-3.593-11.856-4.428-1.725-.346-2.865 1.08-2.899 2.422-2.712.208-2.622 4.56.267 4.622 3.823.082 7.504 1.409 10.438 3.885 1.969 1.662 4.711-.588 3.892-2.467 1.387-.782 1.962-3.019.158-4.034Zm15.425-9.19c.731-.16 1.453-.317 2.164-.459 2.777-.557 1.792-4.617-.813-4.51a2.678 2.678 0 0 0-.512-.886 78.81 78.81 0 0 0-1.637.169c-1.332.153-2.679.405-4.033.659-2.468.461-4.956.927-7.405.804a9.114 9.114 0 0 1-2.577-.51c-.422.656-.495 1.531-.219 2.265-.144.819.152 1.688 1.114 2.211 4.323 2.349 9.283 1.267 13.918.257Zm29.846 9.508c-4.492-2.532-9.525-3.818-14.684-3.708-.781.017-1.358.348-1.73.827a43.474 43.474 0 0 0-3.712-.559c-4.424-.47-8.713.023-13.08.525h-.002l-.003.001h-.004c-.52.06-1.041.12-1.564.178-2.788.312-5.638.503-8.417.019-2.518-.438-4.906-1.398-7.196-2.506-3.919-1.897-7.766-3.964-11.61-6.03h-.001l-.001-.001a697.747 697.747 0 0 0-5.039-2.69c-.565-.298-1.066.56-.5.856 1.603.844 3.203 1.69 4.804 2.536l.009.005h.001v.001c3.252 1.719 6.504 3.439 9.769 5.134 4.104 2.13 8.287 3.885 12.979 3.97 2.671.049 5.316-.285 7.961-.619h.001c2.429-.307 4.859-.614 7.31-.625a41.634 41.634 0 0 1 7.863.722 2.69 2.69 0 0 0-.044 1.007c-.582.456-.97 1.213-.979 1.905-.014 1.372 1.078 2.166 2.316 2.315.736.088 1.481.161 2.23.234 1.83.179 3.677.36 5.447.77.913.21 1.685.69 2.45 1.164 1.019.632 2.024 1.256 3.33 1.221 1.087-.03 1.777-.666 2.071-1.458a42.56 42.56 0 0 1 3.2 2.523c.481.419 1.184-.278.7-.698a43.405 43.405 0 0 0-3.742-2.91 2.842 2.842 0 0 0-.026-.244c1.187-.903 1.578-2.917-.107-3.865Zm22.8-8.888c.94-2.464 4.603-1.766 4.622.391h.093c.54-.832 1.106-1.645 1.673-2.461a89.9 89.9 0 0 0 1.679-2.47c1.907-2.937 2.573-5.809 2.067-9.286-.084-.579-.18-1.155-.275-1.729v-.002c-.367-2.221-.73-4.413-.465-6.697.515-4.396 2.665-8.345 4.757-12.188.243-.446.485-.89.723-1.334 1.336-2.484 2.636-5.01 3.463-7.717.903-2.956 1.072-6.037 1.004-9.108-.026-1.224-.086-2.453-.145-3.683v-.002l-.001-.001c-.228-4.715-.457-9.444 1.156-13.972.214-.599 1.17-.34.957.264-1.582 4.446-1.352 9.057-1.122 13.675.12 2.411.24 4.823.103 7.215-.309 5.413-2.498 10.037-5.041 14.727l-.219.404c-2.481 4.572-5.097 9.395-4.709 14.761.085 1.168.29 2.326.494 3.484.342 1.931.683 3.861.465 5.83-.278 2.509-1.539 4.709-2.951 6.749-.248.359-.498.716-.747 1.072v.001a97.79 97.79 0 0 0-1.842 2.692c.936.41 1.603 1.355 1.218 2.626-1.378 4.538-3.57 8.633-6.481 12.366-.768.985-2.484.811-3.275 0a2.231 2.231 0 0 1-.582-1.018c-1.291-.377-2.371-1.842-1.575-3.415a117.433 117.433 0 0 0 4.956-11.174Zm13.446 21.249c1.933-.639 3.772-1.448 5.615-2.259 2.696-1.186 5.398-2.376 8.408-3.038a19.54 19.54 0 0 1 1.378-.238c.127-.596.043-1.25-.233-1.736a2.208 2.208 0 0 0-.622-.703c.509-1.665-1.358-3.842-3.415-2.776a82.169 82.169 0 0 0-10.948 6.801c-.909.667-1.131 1.674-.923 2.557l-.076.048h-.001a51.36 51.36 0 0 0-.758.476 2.37 2.37 0 0 0-.822.872h2.397v-.004Zm30.459-29.283c7.792-5.592 17.613-8.107 27.132-7.019.627.071.633 1.064 0 .996a38.28 38.28 0 0 0-16.372 1.671c-4.706 1.55-9.128 4.017-12.867 7.272-1.055.918-2.059 1.901-3.063 2.884-2.411 2.359-4.818 4.716-7.925 6.174-2.227 1.044-4.561 1.789-6.897 2.535-2.546.813-5.095 1.627-7.512 2.83-4.54 2.261-8.669 5.232-12.301 8.771-.456.447-1.159-.253-.701-.701 4.088-3.986 8.811-7.277 14.01-9.646 1.979-.902 4.09-1.551 6.201-2.2 3.028-.93 6.057-1.862 8.699-3.538 2.336-1.483 4.315-3.415 6.296-5.35 1.691-1.651 3.383-3.304 5.3-4.679Zm-75.56 5.194a60.354 60.354 0 0 1 11.73 10.499c.414.481-.287 1.187-.7.703a59.294 59.294 0 0 0-11.531-10.344c-.523-.36-.028-1.218.501-.858Zm25.369-4.68c0 2.701-.249 5.362-.767 8.015-.121.624.836.892.957.264a43.07 43.07 0 0 0 .803-8.279c0-.638-.993-.638-.993 0Zm18.926 8.382c2.726-3.19 6.099-5.606 9.972-7.21.591-.244.844.715.262.957-3.708 1.533-6.928 3.904-9.533 6.954-.414.487-1.114-.217-.701-.701Z" clip-rule="evenodd"/><path fill="#A5C669" d="M562.153 374.846a41.642 41.642 0 0 0-1.288-3.306c-1.106-2.498-2.746-5.105-5.404-6.146-1.505-.591-3.089-.315-4.625-.695-1.938-.484-2.779-2.186-4.09-3.497-2.301-2.301-5.494-1.789-8.321-2.866-1.908-.729-3.05-2.344-4.256-3.891-1.061-1.361-2.172-2.681-3.39-3.907-2.332-2.346-5.027-4.422-8.105-5.691a16.311 16.311 0 0 0-4.079-1.111 15.217 15.217 0 0 0-2.205-.127c-1.423.026-2.369-.354-3.325-1.378-2.144-2.296-4.808-4.093-7.759-5.176-6.585-2.419-14.127-.619-18.608 4.796-4.29-2.824-9.753-1.941-14.293-.11-3.767 1.522-8.406 4.231-8.636 8.718-2.389-.225-4.113 2.307-5.433 4.023a56.017 56.017 0 0 0-4.987 7.756c-1.767-.794-3.632.616-4.706 2.062-1.702 2.287-2.749 5.184-3.373 7.966-2.034-.863-3.989.746-5.483 2.58h122.366Z"/><path fill="#92B74E" fill-rule="evenodd" d="M501.432 346.43c-1.119-2.375-3.6-3.984-6.262-3.823-2.472.152-5.423 1.64-6.385 4.017-.206.503.613.723.813.225.841-2.074 3.837-3.449 5.98-3.41 2.251.04 4.181 1.412 5.126 3.418.233.49.959.059.728-.427Zm6.68 1.686c-2.169-.607-4.802.062-6.369 1.654-.38.389.214.985.596.597 1.292-1.314 3.151-1.739 4.949-1.536 2.242.253 3.876 3.072 3.699 5.176-.045.54.799.537.844 0 .185-2.237-1.452-5.255-3.719-5.891Zm-34.121 2.239c3.004-.827 5.55.36 7.846 2.259.419.346-.181.94-.597.596-2.197-1.817-4.613-2.877-7.455-1.91-2.43.827-4.146 2.805-5.344 4.993-.262.479-.991.051-.729-.424 1.376-2.512 3.44-4.732 6.279-5.514Zm-3.163 12.37c-2.363-1.12-5.024-1.35-7.536-.599-2.234.666-4.757 2.208-5.382 4.593-.138.526.675.752.813.225.58-2.213 3.12-3.583 5.19-4.115a9.587 9.587 0 0 1 6.49.624c.49.231.917-.495.425-.728Zm5.944 2.836c2.573-.186 5.221.084 7.108 2.017.38.388-.216.987-.596.593-1.592-1.631-3.792-1.912-5.97-1.803-2.244.113-4.329.253-5.412 2.495-.236.49-.965.062-.729-.424 1.14-2.36 3.191-2.704 5.599-2.878Zm27.616-1.75c-2.94-2.597-8.836-4.355-10.859.183-.219.492.506.922.729.424 1.769-3.966 6.979-2.273 9.533-.014.405.36 1.004-.233.597-.593Zm18.093-7c2.583-.194 4.318 1.078 5.882 2.994.344.416-.253 1.018-.599.596-1.299-1.595-2.672-2.799-4.85-2.768-1.825.028-4.616.787-5.499 2.54-.245.487-.973.059-.729-.425.979-1.944 3.767-2.785 5.795-2.937Zm16.993 10.892c-.639-2.315-3.286-2.954-5.385-3.269-2.022-.304-4.186.205-4.953 2.296-.189.509.627.731.812.225.721-1.958 3.008-1.913 4.695-1.556 1.57.332 3.528.771 4.015 2.529.146.52.962.298.816-.225Zm10.483.55c1.987.315 3.469 2.518 4.369 4.144.262.475-.467.9-.731.424-.875-1.583-2.186-3.482-4.096-3.772-1.505-.228-3.483-.022-4.608 1.058-.391.377-.99-.22-.596-.597 1.426-1.37 3.781-1.555 5.662-1.257Z" clip-rule="evenodd"/><path fill="#32661E" d="M1357.62 306.368c-.32-1.615-1.23-2.948-2.1-4.312-.95-1.488-1.93-2.963-3.03-4.341-2.06-2.585-4.61-4.737-7.79-5.778-.51-.169-.74.644-.22.813 3.1 1.015 5.54 3.184 7.53 5.713.96 1.218 1.81 2.51 2.64 3.809.88 1.365 1.83 2.704 2.15 4.321.11.532.92.307.82-.225Z"/><path fill="#3E7528" d="M1405.69 378.073c-.19-2.965-.68-5.992-1.69-8.687-1.49-3.949-4.4-6.461-7.96-8.552-3.85-2.267-7.99-4.388-10.68-8.098-1.56-2.152-2.12-4.743-3.29-7.089-.87-1.759-2.18-3.272-3.74-4.451a13.847 13.847 0 0 0-3.75-1.994c1.09-8.521.98-17.126-1.64-25.436-3.79-12.001-13.19-21.782-25.23-25.644a39.173 39.173 0 0 0-13.15-1.831c-.39-.127-.78-.287-.96-.566-.22-.346-.19-1.17-.28-1.586-.26-1.255-.6-2.495-1.01-3.711-1.51-4.464-3.98-8.627-7.31-11.978-3.2-3.232-7.25-5.682-11.71-6.686-2.92-.656-5.82-.783-8.41-2.445-2.3-1.477-4.12-3.559-6.17-5.342-8.32-7.241-19.71-5.131-29.51-2.672-6.21 1.558-12.48 2.99-18.63 4.754-2.38.68-4.77 1.564-6.72 3.114-1.83 1.446-3.02 3.415-3.86 5.558-1.84 4.709-2.44 9.63-6.44 13.151-3.46 3.044-7.88 4.701-11.79 7.036-3.73 2.222-6.75 5.075-8.2 9.258-1.18 3.398-1.4 7.173-2.41 10.644-3.75 1.185-7.4 2.667-10.87 4.532-6.73 3.615-12.2 8.606-16.44 14.952-2.4 3.598-4.71 7.229-8.19 9.899-3.31 2.537-7.18 4.211-11.05 5.674-6.79 2.56-14.07 4.65-19.57 9.632-2.57 2.324-4.26 5.12-5.53 8.315-.71 1.79-1.37 3.643-2.47 5.241-1.28 1.843-3.1 2.732-5.05 3.691-1.77.864-3.11 1.986-4.41 3.446-1.5 1.677-2.96 3.086-5.15 3.792-3.74 1.207-7.74.878-11.4 2.447-1.01.436-2.04.985-3.02 1.629h297.69v.003Z"/><path fill="#32661E" fill-rule="evenodd" d="M1243.73 269.758c5.61-9.157 15.92-13.329 26-15.441.53-.113.76.7.23.813-9.87 2.064-20.01 6.084-25.5 15.052-.29.465-1.02.04-.73-.424Zm-2.26 12.915c-9.58 3.108-20.58 7.637-23.56 18.318-.15.524.67.749.81.225 2.9-10.374 13.69-14.718 22.97-17.728.52-.168.3-.984-.22-.815Zm-34.03 27.023a39.543 39.543 0 0 0-17.61 13.252c-.33.434.4.856.73.425a38.478 38.478 0 0 1 17.11-12.864c.5-.191.28-1.007-.23-.813Zm-28.8 27.07c2.66-2.169 4.98-4.712 6.94-7.525.31-.444 1.05-.019.73.425-2.1 3.016-4.59 5.73-7.47 8.02-2.83 2.242-6.07 4.422-9.59 5.353-.52.141-.75-.675-.22-.813 3.52-.931 6.82-3.181 9.61-5.46Zm-37.91 28.314c5.05-9.416 11.99-19.605 23.45-21.214.53-.073.75.74.22.813-11.25 1.581-17.99 11.582-22.95 20.825-.25.482-.98.054-.72-.424Zm2.77 6.724a49 49 0 0 1 12.98-18.766c.4-.36 1 .233.6.596a48.026 48.026 0 0 0-12.77 18.395c-.19.501-1.01.281-.81-.225Zm139.1-115.059a44.4 44.4 0 0 0-22.95 5.555c-.47.265-.05.993.43.729a43.49 43.49 0 0 1 22.52-5.44c.54.019.54-.825 0-.844Zm37.98 14.369c3.47 2.464 6.36 5.809 7.15 10.09.1.532-.72.757-.82.223-.77-4.237-3.69-7.486-7.15-9.863-3.41-2.346-7.59-4.855-11.84-4.853-.55 0-.55-.844 0-.844 4.54-.002 9.06 2.684 12.66 5.247Zm37.51 29.732c-5.05-9.989-17.25-11.281-27.18-10.442-.53.045-.54.889 0 .844 9.64-.813 21.54.298 26.45 10.023.24.483.97.059.73-.425Zm-61.25-33.555c5.98.228 12.16.557 17.51 3.541.47.265.05.993-.42.729-5.22-2.909-11.25-3.204-17.09-3.426-.54-.02-.54-.864 0-.844Zm-22.01 21.313c-7.84-1.114-16.44.852-20.91 7.919-.3.461.44.883.73.425 4.25-6.718 12.51-8.589 19.96-7.531.53.076.76-.737.22-.813Zm-43.88 16.812c5.26-5.128 12.65-7.677 19.95-6.839.53.062.54.906 0 .844-7.09-.813-14.24 1.607-19.35 6.591-.39.38-.99-.216-.6-.596Zm12.35-2.173c-7.55 2.163-13.91 7.531-17.29 14.62-.23.486.5.917.73.424 3.29-6.9 9.43-12.124 16.79-14.231.52-.149.3-.962-.23-.813Zm-49.84 47.232c6.56-6.729 15.12-13.359 25.14-11.247.53.113.3.926-.23.813-9.69-2.045-17.99 4.54-24.32 11.03-.38.391-.97-.208-.59-.596Zm10.63-1.717c-7.3 2.636-13.39 7.941-16.97 14.833-.25.481.48.909.73.425 3.47-6.692 9.37-11.882 16.46-14.445.51-.183.29-.999-.22-.813Zm33.48-6.093c5.62-5.952 14.06-6.782 21.8-6.574.54.014.54.858 0 .844-7.51-.203-15.74.537-21.21 6.326-.37.397-.97-.202-.59-.596Zm72.2-54.68c-4.67-4.619-11.89-6.084-17.97-3.598-.5.203-.28 1.019.22.813 5.82-2.377 12.68-1.046 17.15 3.382.39.382.99-.214.6-.597Zm-42.81 40.584c5.16-3.21 11.25-1.744 16.71-.237.53.147.3.96-.22.813-5.24-1.446-11.11-2.936-16.07.152-.46.287-.88-.441-.42-.728Z" clip-rule="evenodd"/><path fill="#3E7528" d="M1842 378.072c.12-1.922.44-3.884 1.1-5.632.96-2.56 2.85-4.188 5.15-5.544 2.5-1.47 5.18-2.845 6.93-5.25 1.01-1.396 1.37-3.075 2.13-4.596a8.192 8.192 0 0 1 2.43-2.886c.74-.56 1.56-.992 2.43-1.293-.71-5.524-.64-11.103 1.06-16.491 2.46-7.78 8.55-14.122 16.36-16.626a25.363 25.363 0 0 1 8.52-1.187c.25-.082.51-.186.62-.367.15-.224.13-.758.19-1.028.17-.814.39-1.618.65-2.406.98-2.894 2.59-5.593 4.74-7.766 2.08-2.095 4.7-3.683 7.59-4.334 1.9-.426 3.78-.508 5.46-1.586 1.49-.957 2.67-2.307 3.99-3.463 5.4-4.694 12.79-3.326 19.14-1.732 4.02 1.01 8.09 1.938 12.08 3.082 1.54.441 3.09 1.014 4.36 2.019 1.18.937 1.95 2.214 2.5 3.603 1.19 3.053 1.58 6.244 4.17 8.526 2.24 1.974 5.11 3.048 7.65 4.562 2.41 1.441 4.37 3.29 5.31 6.002.76 2.203.91 4.651 1.57 6.901 2.43.768 4.79 1.729 7.04 2.938 4.37 2.344 7.91 5.58 10.66 9.694 1.56 2.333 3.06 4.687 5.31 6.418 2.15 1.645 4.65 2.73 7.17 3.679 4.4 1.66 9.12 3.015 12.68 6.244 1.67 1.507 2.76 3.32 3.58 5.391.47 1.161.9 2.362 1.61 3.398.83 1.195 2.01 1.772 3.27 2.393 1.15.56 2.02 1.288 2.86 2.234.98 1.088 1.92 2.001 3.34 2.459 2.42.782 5.02.569 7.39 1.586.66.283 1.33.639 1.96 1.056h-193v.002Z"/><path fill="#32661E" fill-rule="evenodd" d="M1947 307.849c-3.63-5.937-10.32-8.642-16.86-10.011-.34-.073-.49.454-.14.527 6.39 1.338 12.97 3.945 16.53 9.759.19.301.66.026.47-.275Zm1.47 8.373c6.21 2.015 13.34 4.951 15.27 11.876.1.34-.43.486-.53.146-1.87-6.726-8.87-9.542-14.89-11.494-.33-.108-.19-.638.15-.528Zm22.06 17.519a25.692 25.692 0 0 1 11.42 8.592c.21.282-.26.555-.47.276a25.027 25.027 0 0 0-11.1-8.34c-.32-.124-.18-.653.15-.528Zm18.67 17.551a24.025 24.025 0 0 1-4.5-4.879c-.2-.288-.68-.012-.47.276a24.403 24.403 0 0 0 4.85 5.199c1.82 1.454 3.93 2.867 6.21 3.471.34.091.48-.438.14-.527-2.28-.604-4.42-2.063-6.23-3.54Zm24.58 18.357c-3.27-6.105-7.77-12.711-15.2-13.754-.34-.047-.49.48-.15.527 7.3 1.025 11.67 7.509 14.88 13.502.17.312.64.035.47-.275Zm-1.79 4.359a31.814 31.814 0 0 0-8.42-12.167c-.26-.233-.65.151-.39.387 3.66 3.272 6.5 7.35 8.28 11.926.13.325.65.182.53-.146Zm-90.19-74.596a28.77 28.77 0 0 1 14.88 3.602c.31.171.03.643-.28.472a28.188 28.188 0 0 0-14.6-3.527c-.35.013-.35-.535 0-.547Zm-24.62 9.316c-2.25 1.597-4.13 3.766-4.64 6.542-.06.344.47.49.53.144.51-2.747 2.4-4.853 4.64-6.394 2.21-1.521 4.92-3.148 7.68-3.147.35 0 .35-.547 0-.547-2.95-.001-5.88 1.74-8.21 3.402Zm-24.32 19.276c3.27-6.476 11.18-7.314 17.62-6.77.35.029.35.576 0 .547-6.25-.527-13.96.193-17.15 6.498-.16.313-.63.039-.47-.275Zm39.71-21.755c-3.88.148-7.88.362-11.35 2.296-.31.172-.03.644.27.473 3.39-1.886 7.3-2.077 11.08-2.221.35-.013.35-.561 0-.548Zm14.27 13.818c5.08-.722 10.66.552 13.56 5.134.19.299-.29.573-.47.276-2.76-4.356-8.12-5.569-12.95-4.883-.34.049-.49-.478-.14-.527Zm28.45 10.9c-3.41-3.325-8.2-4.977-12.94-4.434-.34.04-.34.587 0 .547 4.6-.527 9.23 1.042 12.55 4.273.25.247.64-.14.39-.386Zm-8.01-1.409c4.89 1.402 9.02 4.882 11.21 9.478.15.316-.32.595-.47.275-2.14-4.473-6.12-7.86-10.89-9.226-.33-.097-.19-.624.15-.527Zm32.32 30.622c-4.26-4.363-9.81-8.661-16.3-7.292-.35.073-.2.6.14.527 6.29-1.326 11.66 2.943 15.77 7.151.25.254.63-.135.39-.386Zm-6.9-1.113a20.077 20.077 0 0 1 11 9.616c.17.312-.31.59-.47.276a19.528 19.528 0 0 0-10.67-9.365c-.33-.119-.19-.648.14-.527Zm-21.7-3.951c-3.65-3.859-9.12-4.397-14.14-4.262-.35.009-.35.556 0 .547 4.87-.131 10.21.348 13.75 4.102.24.257.63-.131.39-.387Zm-46.81-35.45c3.02-2.995 7.7-3.945 11.65-2.333.32.132.18.661-.15.527-3.77-1.541-8.22-.678-11.12 2.193-.25.247-.64-.139-.38-.387Zm27.75 26.311c-3.34-2.081-7.29-1.13-10.83-.153-.34.095-.2.622.14.527 3.4-.938 7.2-1.904 10.42.098.3.186.57-.286.27-.472Z" clip-rule="evenodd"/><path fill="#679431" d="M1479.75 339.867c-.49-1.716-1.5-3.16-3.18-4.237-1.65-1.06-3.56-1.797-5.52-2.34a41.257 41.257 0 0 0-3.72-.83c-4.08-.732-8.26-.791-12.37-.298-2.85.34-5.68.945-8.42 1.775a46.67 46.67 0 0 0-7.94 3.237c-3.91 2.003-7.56 4.468-11.16 7.165-2.99 2.242-6.05 4.341-9.35 6.077.04-2.678 0-5.362.23-8.035.41-4.88 2-9.536 4.92-13.5 2.45-3.325 6.02-5.879 6.86-10.149.9-4.512.31-9.556-.4-14.065-.41-2.6-1.04-5.165-1.3-7.787-.25-2.658.14-5.142.56-7.761.6-3.829.16-7.486-2.73-10.305-2.4-2.337-5.75-3.302-9.02-2.579-.29.062-.56.132-.83.214-5.21 1.51-8.18 5.955-9.59 10.92v.003c-.65 2.276-.96 4.655-1.02 6.917-.11 4.63.73 9.244.43 13.869-.15 2.34-.76 4.354-1.68 6.216v.003c-1.11 2.251-2.67 4.279-4.4 6.392-.26.315-.51.624-.76.945v.003c-2.29 2.934-4.17 6.067-5.26 9.682-1.35 4.465-.6 9.334-2.27 13.675a18.7 18.7 0 0 1-1.28 2.692c-.85-3.964-2.13-7.832-3.93-11.506-3.66-7.477-9.22-13.193-16.23-17.584-3.5-2.189-7.23-4.448-9.25-8.198-2.11-3.927-2.51-8.478-4.92-12.313-3.87-6.16-11.83-11.525-19.34-8.83-2.99 1.075-5.51 3.528-6.64 6.504-1.22 3.23-.39 6.453 1.68 9.109 2.28 2.917 5.59 5.032 7.26 8.419 1.99 4.068 1.18 8.836.81 13.163-.34 3.932-.39 7.921 1.4 11.542 1.67 3.387 4.57 6.014 7.68 8.068 3.43 2.259 7.28 3.682 10.82 5.733.67.382 1.29.79 1.87 1.221-5.6-2.093-11.7-2.375-17.63-1.834-.55.05-1.09.106-1.63.168-3.76.434-7.65 1.654-11.44 1.463a9.162 9.162 0 0 1-2.58-.509c-2.73-.942-4.95-3.013-7.3-4.765-5.31-3.953-12.13-8.904-19.12-8.414-1.56.112-3.14.498-4.57 1.195a9.724 9.724 0 0 0-2.69 1.899c-1.12 1.128-1.8 2.487-2.21 3.947-.39 1.384-.54 2.861-.58 4.312-.16 6.093 1.74 12.307 7.14 15.669 6.24 3.879 13.95 3.162 20.69 5.559 6.37 2.267 11.83 7.35 19.01 6.43 3.95-.503 7.58-2.377 11.54-2.821 4.27-.473 8.45.793 12.56 1.775.82.197 2.26.886 4 1.817h42.43c4.77-1.575 8.96-4.183 14.03-5.297.45-.098.92-.174 1.38-.239 3.26-.413 6.65.039 9.81-.892 2.98-.88 5.41-2.92 7.8-4.807 2.9-2.284 5.99-4.276 9.32-5.874a47.464 47.464 0 0 1 10.17-3.519c3.09-.695 6.27-1.106 9.24-2.22 5.87-2.188 9.02-7.412 8.98-13.609a9.57 9.57 0 0 0-.36-2.661Z"/><path fill="#557D24" fill-rule="evenodd" d="M1417.26 280.857c-1.94 2.335-3.57 4.979-4.74 7.787-.48 1.147-1.52 1.997-2.85 1.617-.75-.214-1.47-.937-1.68-1.741-.53-.222-.97-.616-1.2-1.14v-.002c1.41-4.965 4.39-9.41 9.59-10.921.15.239.27.498.33.771 1.04.74 1.61 2.346.55 3.629Zm-78.1 16.016c2.33 2.512 4.31 5.302 5.86 8.357.39.768.34 1.505.03 2.104.63 2.234-2.84 3.964-4.3 1.683a76.95 76.95 0 0 0-4.89-6.847c-.64-.797-.88-1.826-.42-2.701-.94-2.104 1.89-4.568 3.72-2.596Zm19.49 17.14c3.61 2.464 6.61 5.555 8.93 9.263.99 1.587-.21 3.092-1.63 3.379-.69 1.437-3.04 2.095-4.17.309-1.67-2.642-3.71-4.94-6.09-6.962-1.07-.912-.91-2.113-.2-2.932-.89-1.859 1.08-4.472 3.16-3.057Zm1.3 29.079c-2.89-2.447-5.12-5.356-6.75-8.777-.73-1.544-2.36-1.426-3.37-.537-1.56-.267-3.33.886-2.64 2.762 1.52 4.13 4.06 7.483 7.59 10.105.67.498 1.58.402 2.29-.003 2.22 1.266 5.03-1.733 2.88-3.55Zm21.84.616c1.88 2.765 3.29 5.8 4.23 9.013.69 2.335-2.14 3.572-3.68 2.419-.63.186-1.35.152-1.96-.156l.27.268c1.04 1.053 2.08 2.107 3.09 3.198 3.95 4.29 7.4 9.511 7.21 15.567-.02.639-1.01.639-.99 0 .25-7.662-5.4-13.395-10.4-18.463l-.06-.064c-2.08-2.107-4.14-4.242-5.87-6.653-1.16-1.614-2.12-3.343-3.09-5.073-.53-.954-1.07-1.908-1.63-2.843-1.6-2.647-3.54-4.875-5.92-6.849a89.178 89.178 0 0 0-2.17-1.738v-.001c-1.51-1.184-3.01-2.367-4.37-3.724-3.89-3.89-4.89-8.814-5.94-13.954a50.06 50.06 0 0 1-.25-1.212c-1.28-6.158-4.1-11.592-8.76-15.871-.48-.431.23-1.131.7-.701 5.12 4.693 7.9 10.648 9.23 17.385l.21 1.103c.53 2.784 1.07 5.599 2.31 8.163 1.32 2.726 3.49 4.814 5.8 6.704.6.487 1.2.962 1.81 1.439v.001c1.64 1.284 3.28 2.57 4.72 4.074 2.07 2.16 3.56 4.748 5.01 7.345 1.68 3.015 3.46 5.851 5.78 8.43.73.82 1.5 1.617 2.27 2.405a1.644 1.644 0 0 1-.1-.217c-1.16-2.979-2.66-5.801-4.4-8.485-1.62-2.512 2.39-4.827 4-2.337.97-.411 2.19-.276 2.95.827Zm96.01-2.84c.97.073 1.62-.366 1.95-1.002-.49-1.716-1.5-3.156-3.18-4.236-1.65-1.061-3.56-1.798-5.51-2.341-1.5.085-3 .332-4.47.743-1.92.529-2.01 2.701-.99 3.845-1.99 1.309-.76 4.985 1.86 4.167a27.302 27.302 0 0 1 10.34-1.176Zm-24.51-2.551-11.03 3.282c-1.81.54-2.96-1.04-2.85-2.495-.54-.515-.86-1.243-.81-1.927a46.674 46.674 0 0 1 7.94-3.238 49.643 49.643 0 0 1 8.42-1.775c.13.754-.13 1.531-.98 2 1.3 1.008 1.38 3.536-.69 4.153Zm-18.38 19.737a76.142 76.142 0 0 1 13.01-7.767c2.68-1.257 5.03 2.735 2.34 3.995-1.11.52-2.21 1.069-3.29 1.64.72 1.004.77 2.562-.56 3.44l-8.13 5.401-.07.042c-1.98 1.32-3.85-.959-3.28-2.768a2.269 2.269 0 0 1-.85-.815c-.66-1.173-.18-2.417.83-3.168ZM1427.64 309a60.983 60.983 0 0 1-.38-11.461c.13-2.067-2.06-2.692-3.48-1.887-1.07-1.415-4.06-.934-4.26 1.426a89.46 89.46 0 0 0-.2 11.919c.13 2.374 3.12 2.858 4.23 1.42.39.538.98.889 1.77.898 1.14.011 2.48-1.075 2.32-2.315Zm-23.29 19.434a77.46 77.46 0 0 1 5.4-9.421c1.1-1.64-.28-3.207-1.82-3.373-.49-1.3-2.1-2.197-3.41-1.26v.003c-1.11 2.25-2.66 4.278-4.4 6.391-.26.312-.51.624-.76.945v.003a26.19 26.19 0 0 0-1.71 4.931c-.54 2.287 2.12 3.536 3.6 2.538 1.01.672 2.42.638 3.1-.757Zm13.15 3.57c-.2-.535-.57-1.013-1.02-1.283-1.17-.703-2.42-.163-3.17.83a32.997 32.997 0 0 0-5.72 12.298c-.52 2.209 1.95 3.449 3.45 2.631.86.199 1.79-.073 2.33-1.092.74-1.394 1.48-2.79 2.23-4.185l.01-.022.01-.022.01-.022c1.04-1.948 2.07-3.897 3.11-5.845.77-1.437-.08-2.788-1.24-3.288Zm-116.1 20.871c1.94.923 3.71-.923 3.5-2.492 1.91-.389 3-3.165.84-4.206a30.885 30.885 0 0 1-8.25-5.775 9.787 9.787 0 0 0-2.69 1.899c-1.11 1.125-1.8 2.483-2.21 3.946.32.296.63.582.94.861v.001c.27.241.53.477.78.708 2.13 1.986 4.44 3.806 7.09 5.058Zm26.47 13.434a40.254 40.254 0 0 0-11.86-4.428c-1.72-.346-2.86 1.08-2.89 2.422-2.72.208-2.63 4.56.26 4.622 3.83.082 7.51 1.409 10.44 3.885 1.97 1.662 4.71-.588 3.89-2.467 1.39-.782 1.96-3.019.16-4.034Zm15.42-9.19c.74-.16 1.46-.317 2.17-.459 2.78-.557 1.79-4.617-.81-4.51-.12-.332-.29-.63-.52-.886-.54.051-1.09.107-1.63.169-1.33.153-2.68.405-4.04.659-2.46.461-4.95.927-7.4.804a9.128 9.128 0 0 1-2.58-.51c-.42.656-.49 1.531-.22 2.265-.14.819.16 1.688 1.12 2.211 4.32 2.349 9.28 1.267 13.91.257Zm29.85 9.508c-4.49-2.532-9.52-3.818-14.68-3.708-.78.017-1.36.348-1.73.827a44.158 44.158 0 0 0-3.71-.559c-4.43-.47-8.72.023-13.09.525v.001c-.52.06-1.05.12-1.57.178-2.79.312-5.64.503-8.41.019-2.52-.438-4.91-1.398-7.2-2.506-3.92-1.897-7.77-3.964-11.61-6.03v-.001c-1.68-.902-3.36-1.803-5.04-2.69-.57-.298-1.07.56-.5.856 1.6.844 3.2 1.69 4.8 2.536l.01.005v.001c3.25 1.719 6.51 3.439 9.77 5.134 4.11 2.13 8.29 3.885 12.98 3.97 2.67.049 5.32-.285 7.96-.619 2.43-.307 4.86-.614 7.31-.625 2.64-.011 5.27.235 7.87.722-.08.329-.1.674-.05 1.007-.58.456-.97 1.213-.98 1.905-.01 1.372 1.08 2.166 2.32 2.315.73.088 1.48.161 2.23.234 1.83.179 3.68.36 5.44.77.92.21 1.69.69 2.45 1.164 1.02.632 2.03 1.256 3.33 1.221 1.09-.03 1.78-.666 2.08-1.458 1.1.788 2.17 1.63 3.2 2.523.48.419 1.18-.278.7-.698a43.519 43.519 0 0 0-3.75-2.91c0-.082-.01-.163-.02-.244 1.18-.903 1.58-2.917-.11-3.865Zm22.8-8.888c.94-2.464 4.6-1.766 4.62.391h.1c.54-.832 1.1-1.645 1.67-2.461.57-.814 1.13-1.631 1.68-2.47 1.91-2.937 2.57-5.809 2.07-9.286-.09-.579-.18-1.155-.28-1.729v-.002c-.37-2.221-.73-4.413-.46-6.697.51-4.396 2.66-8.345 4.75-12.188.24-.446.49-.89.73-1.334 1.33-2.484 2.63-5.01 3.46-7.717.9-2.956 1.07-6.037 1-9.108-.02-1.224-.08-2.453-.14-3.683v-.003c-.23-4.715-.46-9.444 1.15-13.972.22-.599 1.17-.34.96.264-1.58 4.446-1.35 9.057-1.12 13.675.12 2.411.24 4.823.1 7.215-.31 5.413-2.5 10.037-5.04 14.727l-.22.404c-2.48 4.572-5.1 9.395-4.71 14.761.09 1.168.29 2.326.5 3.484.34 1.931.68 3.861.46 5.83-.28 2.509-1.54 4.709-2.95 6.749l-.75 1.072v.001c-.62.893-1.25 1.783-1.84 2.692.94.41 1.6 1.355 1.22 2.626-1.38 4.538-3.57 8.633-6.48 12.366-.77.985-2.49.811-3.28 0-.3-.312-.49-.658-.58-1.018-1.29-.377-2.37-1.842-1.58-3.415a114.51 114.51 0 0 0 4.96-11.174Zm13.45 21.249c1.93-.639 3.77-1.448 5.61-2.259 2.7-1.186 5.4-2.376 8.41-3.038.46-.098.92-.173 1.38-.238.13-.596.04-1.25-.23-1.736a2.315 2.315 0 0 0-.63-.703c.51-1.665-1.35-3.842-3.41-2.776a81.871 81.871 0 0 0-10.95 6.801c-.91.667-1.13 1.674-.92 2.557l-.08.048c-.25.158-.51.315-.76.476-.38.245-.64.546-.82.872h2.4v-.004Zm30.46-29.283c7.79-5.592 17.61-8.107 27.13-7.019.63.071.63 1.064 0 .996-5.52-.633-11.1-.07-16.37 1.671-4.71 1.55-9.13 4.017-12.87 7.272-1.06.918-2.06 1.901-3.06 2.884-2.41 2.359-4.82 4.716-7.93 6.174-2.23 1.044-4.56 1.789-6.9 2.535-2.54.813-5.09 1.627-7.51 2.83-4.54 2.261-8.67 5.232-12.3 8.771-.45.447-1.16-.253-.7-.701 4.09-3.986 8.81-7.277 14.01-9.646 1.98-.902 4.09-1.551 6.2-2.2 3.03-.93 6.06-1.862 8.7-3.538 2.34-1.483 4.31-3.415 6.3-5.35 1.69-1.651 3.38-3.304 5.3-4.679Zm-75.56 5.194a60.558 60.558 0 0 1 11.73 10.499c.41.481-.29 1.187-.7.703a59.432 59.432 0 0 0-11.54-10.344c-.52-.36-.02-1.218.51-.858Zm25.37-4.68c0 2.701-.25 5.362-.77 8.015-.12.624.83.892.95.264.54-2.737.81-5.488.81-8.279 0-.638-.99-.638-.99 0Zm18.92 8.382c2.73-3.19 6.1-5.606 9.97-7.21.59-.244.85.715.27.957-3.71 1.533-6.93 3.904-9.54 6.954-.41.487-1.11-.217-.7-.701Z" clip-rule="evenodd"/><path fill="#A5C669" d="M1277.37 374.846c-.39-1.12-.81-2.225-1.29-3.306-1.11-2.498-2.75-5.105-5.41-6.146-1.5-.591-3.09-.315-4.62-.695-1.94-.484-2.78-2.186-4.09-3.497-2.3-2.301-5.49-1.789-8.32-2.866-1.91-.729-3.05-2.344-4.26-3.891-1.06-1.361-2.17-2.681-3.39-3.907-2.33-2.346-5.03-4.422-8.1-5.691-1.31-.54-2.67-.925-4.08-1.111a15.31 15.31 0 0 0-2.21-.127c-1.42.026-2.37-.354-3.32-1.378-2.15-2.296-4.81-4.093-7.76-5.176-6.59-2.419-14.13-.619-18.61 4.796-4.29-2.824-9.75-1.941-14.29-.11-3.77 1.522-8.41 4.231-8.64 8.718-2.39-.225-4.11 2.307-5.43 4.023-1.88 2.442-3.53 5.041-4.99 7.756-1.76-.794-3.63.616-4.7 2.062-1.71 2.287-2.75 5.184-3.38 7.966-2.03-.863-3.99.746-5.48 2.58h122.37Z"/><path fill="#92B74E" fill-rule="evenodd" d="M1216.64 346.43c-1.11-2.375-3.6-3.984-6.26-3.823-2.47.152-5.42 1.64-6.38 4.017-.21.503.61.723.81.225.84-2.074 3.84-3.449 5.98-3.41 2.25.04 4.18 1.412 5.13 3.418.23.49.96.059.72-.427Zm6.69 1.686c-2.17-.607-4.81.062-6.37 1.654-.38.389.21.985.59.597 1.29-1.314 3.15-1.739 4.95-1.536 2.24.253 3.88 3.072 3.7 5.176-.04.54.8.537.84 0 .19-2.237-1.45-5.255-3.71-5.891Zm-34.13 2.239c3.01-.827 5.55.36 7.85 2.259.42.346-.18.94-.6.596-2.19-1.817-4.61-2.877-7.45-1.91-2.43.827-4.15 2.805-5.35 4.993-.26.479-.99.051-.72-.424 1.37-2.512 3.44-4.732 6.27-5.514Zm-3.16 12.37c-2.36-1.12-5.02-1.35-7.53-.599-2.24.666-4.76 2.208-5.39 4.593-.13.526.68.752.82.225.58-2.213 3.12-3.583 5.19-4.115a9.593 9.593 0 0 1 6.49.624c.49.231.91-.495.42-.728Zm5.95 2.836c2.57-.186 5.22.084 7.1 2.017.38.388-.21.987-.59.593-1.59-1.631-3.79-1.912-5.97-1.803-2.25.113-4.33.253-5.41 2.495-.24.49-.97.062-.73-.424 1.14-2.36 3.19-2.704 5.6-2.878Zm27.61-1.75c-2.94-2.597-8.84-4.355-10.86.183-.22.492.51.922.73.424 1.77-3.966 6.98-2.273 9.53-.014.41.36 1.01-.233.6-.593Zm18.09-7c2.59-.194 4.32 1.078 5.89 2.994.34.416-.26 1.018-.6.596-1.3-1.595-2.68-2.799-4.85-2.768-1.83.028-4.62.787-5.5 2.54-.25.487-.98.059-.73-.425.98-1.944 3.77-2.785 5.79-2.937Zm17 10.892c-.64-2.315-3.29-2.954-5.39-3.269-2.02-.304-4.18.205-4.95 2.296-.19.509.63.731.81.225.72-1.958 3.01-1.913 4.7-1.556 1.57.332 3.52.771 4.01 2.529.15.52.96.298.82-.225Zm10.48.55c1.99.315 3.47 2.518 4.37 4.144.26.475-.47.9-.73.424-.88-1.583-2.19-3.482-4.1-3.772-1.5-.228-3.48-.022-4.61 1.058-.39.377-.99-.22-.59-.597 1.42-1.37 3.78-1.555 5.66-1.257Z" clip-rule="evenodd"/><path fill="#B3594D" d="M1981.13 377.269h138.75c.04-.173.08-.351.12-.514 1.01-3.996 3.61-12.154 2.87-18.179-.35-2.824-1.44-5.18-3.77-6.428-4.12-2.2-10.4 3.584-13.12 6.126-.78.728-1.51 1.503-2.22 2.297.96-5.523 1.32-11.118.79-16.739-.23-2.487-.76-6.208-3.31-7.49-2.78-1.398-5.43 1.219-7.09 3.124-.26.302-.51.619-.77.926 1.2-6.469 1.75-13.031.81-19.527-.43-2.989-1.88-7.246-5.8-6.566-3.75.651-6.94 5.928-9.01 8.82-2.38 3.338-4.38 6.922-6.18 10.604.7-5.874 1.15-11.776 1.18-17.731.01-4.846.17-10.433-2.51-14.697-1.93-3.055-5.06-4.057-7.61-1.108-3.14 3.625-5.08 8.869-6.67 13.337-1.91 5.361-3.18 10.918-4.24 16.498-.37 1.92-.72 3.838-1.05 5.765.67-3.833-.07-8.472-.16-12.366-.1-4.495-.26-8.986-.53-13.476-.4-6.888-1.01-13.776-2.32-20.555-.86-4.407-1.99-12.104-6.7-14.146-3.51-1.516-6.1 4.441-7.07 6.703-2.64 6.101-3.52 13.03-4.51 19.548a217.778 217.778 0 0 0-2.06 19.397 58.16 58.16 0 0 0-2.08-6.396c-1.57-3.954-9.82-15.44-14.59-10.019-8.24 9.361-.63 25.538.58 37.813.41 4.067.9 8.123 1.49 12.161-.28-.734-.56-1.467-.85-2.201-2.51-6.415-5-12.852-7.96-19.075-2.84-5.97-12.75-25.869-18.07-11.296-3.18 8.711-1.05 19.431 1.57 28.013 1.43 4.661 3.18 9.247 5.08 13.798a83.372 83.372 0 0 0-3.47-4.839 90.691 90.691 0 0 0-9.07-10.097c-2.08-1.981-4.53-4.564-7.48-5.119-2.76-.522-6.66 1.096-6.03 4.366 1.7 8.998 5.87 16.654 10.2 24.641.32.568 1.51 2.405 2.86 4.627Z"/><path fill="#873D42" fill-rule="evenodd" d="M2030.14 325.846c-.14-1.303-2.2-1.315-2.06 0a397.549 397.549 0 0 1 2.23 47.301c-.01 1.323 2.05 1.323 2.06 0 .19-15.799-.56-31.585-2.23-47.301Zm-7.26 45.416c-.84-2.146-1.67-4.289-2.5-6.433-.84-2.143-1.67-4.287-2.51-6.432-.47-1.221-2.46-.692-1.98.548.83 2.142 1.67 4.281 2.5 6.421v.01c.84 2.144 1.67 4.288 2.51 6.434.47 1.213 2.46.687 1.98-.548Zm28.12-34.436c.04-1.323 2.1-1.323 2.06 0-.35 10.63-.25 21.261.29 31.884.07 1.323-1.98 1.316-2.06 0a385.257 385.257 0 0 1-.29-31.884Zm19.88.082a334.745 334.745 0 0 0-4.96 27.774c-.18 1.296 1.8 1.85 1.98.548a331.163 331.163 0 0 1 4.97-27.779c.29-1.281-1.7-1.837-1.99-.543Zm14.32 29.457a291.278 291.278 0 0 0 5.96-23.276c.27-1.297 2.25-.748 1.98.548a291.169 291.169 0 0 1-5.96 23.276c-.37 1.27-2.36.721-1.98-.548Zm16.45-3.088-.18.473v.013c-1.06 2.814-2.13 5.633-3.2 8.446-.46 1.24 1.53 1.774 1.98.548l.18-.471.01-.019c1.06-2.812 2.13-5.63 3.19-8.442.48-1.24-1.51-1.774-1.98-.548Zm-103.91 6.308c.77 1.7 1.55 3.4 2.32 5.099.55 1.199-1.23 2.242-1.78 1.035-.73-1.604-1.46-3.21-2.18-4.816l-2.19-4.815c-.54-1.192 1.23-2.239 1.78-1.033.68 1.509 1.37 3.019 2.05 4.53Z" clip-rule="evenodd"/><path fill="#A1C969" fill-rule="evenodd" d="M1621.56 275.001c.78-.022 1.27.512 1.66 1.111.75 1.134 1.45 2.347 1.97 3.598.71 1.669 1.56 4.198.85 5.984-.05.124-.11.232-.19.324.39.938.77 1.879 1.15 2.821.15-.707.46-1.362.77-2.021.15-.324.31-.649.44-.981.1-.249.2-.498.29-.746.38-.981.75-1.943 1.41-2.751.18-.219.39-.43.62-.627.6-.501 1.43-.85 2.15-.551.87.362 1.14 1.493 1.01 2.427-.18 1.28-.85 2.428-1.52 3.536-.66 1.109-1.34 2.223-2.22 3.159-.36.377-.77.735-1.26.892-.23.074-.49.095-.74.054.82 2.074 1.62 4.156 2.39 6.245.4-1.453 1.04-2.827 1.86-4.084.23-.36.51-.788.82-1.224.6-.841 1.3-1.786 2.26-2.239.66-.315 1.6-.177 1.93.481.22.444.1.973-.03 1.449a22.504 22.504 0 0 1-2.93 6.397c-.44.664-.95 1.33-1.67 1.671a2.04 2.04 0 0 1-1.29.146c.59 1.624 1.16 3.253 1.73 4.886.33-2.933 2.45-5.886 4.81-7.542l.01-.006c.03-.018.05-.036.08-.053.46-.307 1.02-.549 1.53-.369.51.177.81.737.84 1.277.03.54-.16 1.066-.36 1.567-.88 2.191-2.07 4.268-3.6 6.062-.61.715-1.51 1.443-2.39 1.109-.1-.04-.2-.092-.28-.155a427.71 427.71 0 0 1 2.13 6.566c.05-2.833 1.65-5.649 3.69-7.52.53-.481 1.19-.94 1.89-.805.1.02.2.051.29.09.4.18.71.554.86.971.19.506.19 1.069.13 1.609-.35 3.066-2.44 5.637-4.63 7.803-.33.326-.74.67-1.2.599a.73.73 0 0 1-.2-.063c.61 2.031 1.21 4.068 1.79 6.111.57-2.682 2.53-5.287 4.69-6.803l.02-.012.03-.017v-.001l.01-.01.03-.019c.46-.307 1.01-.549 1.53-.369.51.178.81.737.84 1.277.03.541-.16 1.067-.36 1.567-.89 2.192-2.07 4.268-3.6 6.063-.61.714-1.52 1.443-2.39 1.108l-.01-.007-.02-.008c.75 2.781 1.48 5.572 2.16 8.372.72-2.45 2.55-4.767 4.53-6.163.02-.01.03-.02.05-.029v-.001l.03-.021.01-.008c.46-.307 1.02-.548 1.53-.368.51.177.81.737.84 1.277.03.54-.16 1.066-.36 1.567-.88 2.191-2.07 4.267-3.6 6.062-.56.663-1.38 1.339-2.2 1.163.66 2.85 1.29 5.709 1.88 8.575.15-.431.35-.85.55-1.27.15-.324.31-.649.44-.981.1-.248.2-.498.29-.746.38-.98.75-1.943 1.41-2.75.19-.223.39-.434.62-.628.6-.5 1.43-.849 2.15-.551.87.363 1.13 1.494 1.01 2.428-.18 1.28-.85 2.427-1.52 3.536-.66 1.108-1.34 2.222-2.23 3.159-.35.377-.76.734-1.26.891-.26.086-.57.1-.84.031.62 3.173 1.19 6.356 1.71 9.546.5-2.241 1.85-4.353 3.49-5.855.52-.481 1.19-.94 1.89-.805.1.02.2.051.29.09.39.18.7.555.86.971.19.506.19 1.069.13 1.609-.35 3.066-2.44 5.637-4.64 7.803-.32.327-.73.67-1.19.6a.68.68 0 0 1-.14-.038c.38 2.519.72 5.043 1.04 7.57.78-2.355 2.54-4.561 4.46-5.909.02-.02.05-.039.08-.059.46-.307 1.02-.549 1.53-.368.51.177.81.737.84 1.277.03.54-.16 1.066-.36 1.567-.88 2.191-2.07 4.267-3.6 6.062-.61.714-1.51 1.443-2.39 1.108a1.613 1.613 0 0 1-.12-.056c.36 3.158.68 6.32.95 9.487.16-.477.38-.936.6-1.398.16-.328.32-.657.45-.994.1-.248.2-.498.29-.746.38-.98.75-1.943 1.41-2.75.18-.222.39-.431.62-.628.59-.5 1.43-.849 2.14-.551.88.363 1.14 1.494 1.01 2.428-.17 1.28-.85 2.427-1.51 3.536-.66 1.108-1.34 2.222-2.23 3.159-.36.377-.76.734-1.26.892-.43.137-.94.09-1.3-.188.22 2.835.4 5.673.55 8.513.61-2.636 2.54-5.184 4.67-6.678.01-.005.02-.009.02-.014.01-.005.02-.011.02-.017.02-.01.03-.019.04-.028.46-.306 1.02-.548 1.53-.368.23.079.42.239.56.439v2.208a.386.386 0 0 1-.04.095c-.01.034-.02.068-.04.102-.88 2.191-2.07 4.267-3.6 6.062-.61.715-1.51 1.443-2.39 1.108a1.301 1.301 0 0 1-.66-.589c.12 2.781.2 5.564.25 8.348.01.718-1.1.867-1.12.144-.02-1.183-.05-2.365-.08-3.547a.985.985 0 0 1-.28.026c-1.8.602-4.74-2.939-5.45-3.949-.61-.869-1.69-2.507-1.23-3.649.44-1.088 1.68-.79 2.47-.29 1.57.995 3.33 2.449 4.37 4.187-.09-2.117-.19-4.232-.32-6.347-.47.321-1.19.294-1.78.139-1.24-.327-2.36-.993-3.43-1.697-1.46-.953-2.87-2.014-3.95-3.381-.64-.81-1.17-1.8-1.07-2.83.08-.869.76-1.741 1.65-1.857.83-.107 1.73.488 2.42.948l.15.099a15.09 15.09 0 0 1 2.09 1.682c.83.779 1.6 1.626 2.35 2.459l.04.041c.48.54.97 1.089 1.36 1.696-.19-2.905-.43-5.807-.7-8.706a1.1 1.1 0 0 1-.65.279c-1.71.805-5.04-2.383-5.86-3.305-.7-.794-1.96-2.299-1.64-3.486.32-1.131 1.59-.976 2.43-.568 2.02.983 4.4 2.601 5.49 4.733a347.36 347.36 0 0 0-1.33-11.152c-.43.274-1.05.325-1.58.267-1.28-.143-2.48-.638-3.64-1.179-1.58-.734-3.14-1.575-4.4-2.77-.76-.712-1.42-1.612-1.48-2.645-.05-.872.5-1.834 1.37-2.079.81-.228 1.79.233 2.54.588l.15.073c.81.38 1.58.847 2.31 1.362.93.653 1.82 1.378 2.69 2.093.57.473 1.15.952 1.64 1.507-.46-3.141-.96-6.275-1.51-9.401-.34.153-.73.175-1.1.157-1.99-.095-3.81-1.142-5.42-2.304-1.28-.92-2.53-1.972-3.24-3.375-.29-.591-.45-1.398.05-1.834.45-.403 1.16-.226 1.73-.012 1.75.661 3.36 1.514 4.94 2.448.67.397 1.34.809 2.01 1.226l.11.07c.1.061.2.124.29.19-.58-3.128-1.22-6.248-1.89-9.358-.02.004-.03.008-.04.011l-.03.007c-1.54 1.097-5.38-1.446-6.36-2.206-.83-.653-2.34-1.913-2.23-3.136.11-1.171 1.38-1.247 2.28-.993 1.89.526 4.13 1.475 5.63 2.965-.53-2.318-1.09-4.631-1.67-6.937-.43.249-1.02.295-1.53.239-1.28-.143-2.48-.638-3.65-1.179-1.58-.734-3.13-1.575-4.4-2.77-.75-.712-1.41-1.612-1.47-2.645-.05-.872.5-1.834 1.36-2.079.82-.231 1.81.241 2.56.598l.13.063c.82.38 1.58.847 2.32 1.362.86.599 1.67 1.26 2.48 1.917l.21.176c.38.316.77.634 1.13.976-.57-2.147-1.15-4.288-1.76-6.424-.43.357-1.12.427-1.71.363-1.28-.144-2.48-.639-3.65-1.179-1.57-.734-3.13-1.575-4.39-2.771-.76-.712-1.42-1.612-1.48-2.644-.05-.872.5-1.834 1.37-2.079.81-.231 1.8.24 2.55.596l.13.065c.82.38 1.59.847 2.32 1.361.87.603 1.69 1.272 2.5 1.938l.19.155c.44.358.87.72 1.27 1.116-.66-2.24-1.35-4.472-2.06-6.697-.15.195-.37.345-.6.401-1.54 1.097-5.38-1.446-6.35-2.205-.84-.653-2.35-1.913-2.24-3.137.11-1.17 1.39-1.246 2.29-.993 2.1.587 4.65 1.705 6.12 3.517a337.63 337.63 0 0 0-1.82-5.389c-.07.34-.24.65-.52.855-.37.273-.86.312-1.32.29-1.99-.096-3.81-1.142-5.43-2.304-1.27-.92-2.52-1.972-3.23-3.376-.3-.591-.45-1.398.04-1.834.46-.402 1.16-.225 1.73-.011 1.76.661 3.37 1.513 4.95 2.447.71.419 1.41.855 2.11 1.297a5.2 5.2 0 0 1 1.02.788 309.24 309.24 0 0 0-2.42-6.591c-.36.593-1.23.714-1.94.635-1.27-.143-2.48-.638-3.64-1.178-1.58-.734-3.14-1.576-4.4-2.771-.75-.712-1.42-1.612-1.48-2.644-.04-.872.5-1.834 1.37-2.079.81-.229 1.78.232 2.54.587l.15.074c.81.38 1.58.847 2.31 1.361.93.653 1.82 1.379 2.69 2.093.47.386.94.776 1.36 1.209-.86-2.214-1.74-4.419-2.65-6.614-1.41-.27-2.39-2.792-2.84-3.947l-.03-.08a.844.844 0 0 1-.04-.144v-.003c-.49-.99-.87-2.053-1.21-3.066-.38-1.156-1.22-4.045.91-4.113Z" clip-rule="evenodd"/></g><defs><clipPath id="a"><path fill="#fff" d="M0 0h2625v375H0z"/></clipPath></defs></svg>