<svg xmlns="http://www.w3.org/2000/svg" width="383" height="408" fill="none" viewBox="0 0 383 408"><circle cx="245.5" cy="137.5" r="137.5" fill="#1C60E3"/><path fill="#DD751B" d="M277.714 317.684c-.183-4.151-3.973-6.348-7.61-7.195-2.675-.623-5.434-.687-8.164-.885-.471-.035-.946-.07-1.417-.114a253.66 253.66 0 0 1-11.137-1.094 248.606 248.606 0 0 1-6.099-.806c1.472-1.128 2.864-2.459 4.152-3.944 6.168-7.056 10.201-17.625 10.543-26.467.53-13.805-3.156-27.14-12.589-37.125-8.615-9.12-23.839-12.831-36.547-11.742-12.341 1.054-23.394 7.976-28.506 19.406-3.547 7.932-5.177 16.932-5.267 25.587-.069 6.774 1.219 14.131 6.624 18.743a.74.74 0 0 0 .832.109c.481.599.962 1.197 1.442 1.791 1.353 1.672 2.7 3.345 4.043 5.022a407.257 407.257 0 0 1 4.899 6.255c.104.133.208.272.313.405 1.154 1.515 2.204 3.048 2.283 5.028.065 1.484-.396 2.949-.48 4.423-.144 2.351.669 4.359 2.338 6.022 3.899 3.879 10.459 5.75 15.571 7.313 6.247 1.91 12.703 3.029 19.222 3.439 4.261.267 8.735.52 13.233.495 8.179-.03 16.448-.945 23.666-4.27 4.013-1.851 8.878-5.428 8.655-10.396Z"/><path fill="#F28E35" d="M288.519 155.469c-.059-2.474.313-5.507-.535-7.897a5.609 5.609 0 0 0-.718-1.361c-1.075-1.553-2.844-2.805-4.226-3.894-10.329-8.164-23.007-11.014-35.982-10.569-6.896.238-13.837 1.069-20.639 2.242-5.42.935-10.741 2.335-15.68 4.71.882-2.236 1.417-4.626 1.481-7.174.025-.955-1.461-.955-1.486 0-.079 2.998-.832 5.734-2.061 8.233a33.82 33.82 0 0 0-1.04.594c-.55.322-.402.999.005 1.272-1.294 2.103-2.923 4.022-4.752 5.769a42.043 42.043 0 0 1-4.245 3.538 58.802 58.802 0 0 1-4.672 3.097c-.302.179-.6.362-.902.535-3.156 1.88-6.341 3.681-9.497 5.522-4.147 2.424-8.244 4.918-12.167 7.763-.144.099-.283.198-.421.302a149.074 149.074 0 0 0-4.786 3.662 152.518 152.518 0 0 0-11.415 10.089 144.994 144.994 0 0 0-5.038 5.156c-.877.935-1.744 1.88-2.596 2.84a157.216 157.216 0 0 0-4.875 5.745 68.98 68.98 0 0 0-.604.757 153.593 153.593 0 0 0-5.073 6.675c-.129.168-.248.336-.372.509a172.525 172.525 0 0 0-10.037 15.81 177.413 177.413 0 0 0-9.368 19.376 173.075 173.075 0 0 0-3.701 9.783 184.084 184.084 0 0 0-3.864 12.617 166.255 166.255 0 0 0-2.76 12.167c-1.526 8.19-2.338 16.873-.228 25.038 2.021 7.818 6.966 13.82 13.693 17.749a34.712 34.712 0 0 0 3.855 1.939 48.18 48.18 0 0 0 4.691 1.722c4.073 1.262 8.269 2.034 12.5 2.667 3.854.584 7.738 1.054 11.583 1.687 5.984 3.786 14.847 2.791 21.62 1.519 4.865-.915 9.75-1.875 14.58-3.028a158.913 158.913 0 0 0 6.743-1.756c4.166-1.188 8.273-2.568 12.276-4.246 8.64-3.612 16.329-8.669 22.938-15.146a70.623 70.623 0 0 0 3.562-3.746c6.961-7.867 12.494-16.843 18.028-25.73 5.846-9.391 11.811-18.629 19.232-26.873 3.681-4.087 7.526-8.129 10.354-12.874 2.894-4.85 4.35-10.273 5.079-15.839.544-4.176.901-8.397 1.139-12.638.525-9.193.485-18.476.55-27.59.049-6.908-.01-13.815-.169-20.723Z"/><path fill="#F28E35" d="M132.076 92.362c-4.335-1.54-8.393 2.098-11.469 4.646l-2.522 2.093a418.538 418.538 0 0 0-9.165 7.818c-3.473 3.058-6.891 6.22-10.166 9.515h-.005a150.145 150.145 0 0 0-3.602 3.741c-9.418 10.119-17.33 21.509-21.496 34.923-3.091 9.971-4.429 20.421-7.813 30.307a50.426 50.426 0 0 1-1.917 4.869c-4.206 9.238-10.963 16.957-15.521 26.047-4.85 9.678-7.51 20.292-8.799 31-.911 7.545-1.343 15.309-.713 22.939.153 1.88.371 3.75.664 5.611.05.307.099.618.153.925 1.328 7.754 4.24 15.433 9.596 21.257a31.31 31.31 0 0 0 2.2 2.158 34.992 34.992 0 0 0 2.973 2.35c6.831 4.849 15.372 7.422 23.606 8.179a55.989 55.989 0 0 0 17.924-1.277 53.448 53.448 0 0 0 5.039-1.434 54.143 54.143 0 0 0 4.573-1.757c4.24-1.851 8.248-4.246 11.845-7.155 1.243-.999 2.487-2.063 2.472-3.79-.02-2.687-1.481-5.745-2.224-8.313-1.105-3.805-2.205-7.615-3.31-11.42.466-.856.877-1.747 1.219-2.687.327-.896-1.105-1.282-1.432-.391-.124.332-.252.653-.396.975-.386-1.346-.778-2.692-1.169-4.038-.263-.915-1.7-.524-1.432.396.54 1.861 1.075 3.716 1.615 5.577-4.835 8.263-15.982 12.909-25.103 13.127-5.29.124-9.745-1.534-13.39-4.335a25.418 25.418 0 0 1-4.083-3.978c-2.329-2.825-4.176-6.185-5.559-9.782-3.11-8.1-4.93-17.259-4.478-26.087.079-1.622.242-3.231.485-4.819.06-.416.129-.831.203-1.247.798-4.433 2.438-8.402 4.563-12.103a58.784 58.784 0 0 1 3.324-5.101c2.165-2.999 4.573-5.869 7.015-8.719 6-7.016 11.841-14.226 14.046-23.394 1.198-5.003 1.59-10.164 2.774-15.166a31.41 31.41 0 0 1 .377-1.504 51.7 51.7 0 0 1 .733-2.455 60.084 60.084 0 0 1 2.878-7.224 68.578 68.578 0 0 1 1.694-3.345c.288-.534.58-1.064.877-1.588 5.826-10.238 13.639-19.105 20.922-28.348a219.54 219.54 0 0 0 3.378-4.394c2.666-3.552 5.197-7.204 7.461-11.039.441-.747.902-1.519 1.363-2.31 1.907-3.301 3.775-6.923 4.216-10.584.406-3.395-.927-7.432-4.424-8.67ZM326.562 320.108c-1.283-3.147-5.281-7.398-8.154-10.189-1.784-1.726-3.131-2.894-3.131-2.894-3.85-9.852-7.595-19.956-10.87-30.213-.49-1.539-.971-3.078-1.437-4.617-2.204-7.249-4.141-14.567-5.692-21.92-.52-2.434-.991-4.874-1.412-7.318a143.583 143.583 0 0 1-.629-3.805c-2.328-15.171-2.566-34.216-2.566-49.56 0-13.528-4.519-42.019-4.519-42.019s-3.958 36.146-5.305 41.089c-1.64 6.036-4.088 11.796-6.589 17.521-4.91 11.217-9.835 22.43-14.754 33.642-1.016 2.326-2.205 4.636-3.037 7.031-.872 2.499-.302 4.567.525 6.997 1.769 5.2 3.567 10.396 5.504 15.537.466 1.227.937 2.454 1.422 3.671a236.5 236.5 0 0 0 2.254 5.463c6.366 14.918 14.154 29.258 21.918 43.464 1.268 2.32 2.467 5.017 4.354 6.972.426.435.882.836 1.387 1.187 2.918 2.034 7.883 2.751 11.331 3.226 3.715.51 7.495.535 11.211.005 3.998-.574 7.253-2.588 8.482-6.65.743-2.449.52-4.626-.293-6.62Z"/><path fill="#F28E35" d="M306.983 121.828a32.698 32.698 0 0 0-.604-3.197c-.397-1.712-.907-3.409-1.437-5.091-.396-1.262-.803-2.514-1.179-3.751a216.59 216.59 0 0 0-1.224-3.869 226.24 226.24 0 0 0-1.892-5.661 286.625 286.625 0 0 0-5.569-14.735.718.718 0 0 0 .342-.307c.476-.807.872-1.767 1.164-2.816 1.526-5.467.367-13.409-5.41-14.824-3.289-.807-7.015.94-9.759 2.622a21.938 21.938 0 0 0-3.206 2.38 24.203 24.203 0 0 0-3.805 4.266v.005a44.74 44.74 0 0 0-.376.549 311.678 311.678 0 0 0-38.633-.886 62.57 62.57 0 0 0-1.08-1.41 39.23 39.23 0 0 0-1.585-1.865c-.02-.025-.045-.05-.065-.075a15.458 15.458 0 0 0-.267-.292c-3.835-4.131-8.724-7.407-13.862-5.62-5.776 2.003-6.222 7.654-5.142 12.924v.005c.401 1.96 1.01 3.86 1.64 5.502-3.359 5.26-6.297 10.757-9.012 16.368a241.765 241.765 0 0 0-2.205 4.666c-.079.168-.153.337-.233.505-1.015 2.207-2.07 4.493-2.918 6.833-.579 1.598-1.065 3.226-1.372 4.864-.436 2.286-.535 4.607-.079 6.937.129.678.307 1.351.535 2.029 3.062 9.035 10.587 16.151 19.024 20.267 21.219 10.347 46.019 14.078 67.699 2.88 7.951-4.112 14.565-11.178 18.419-19.238.962-1.999 1.734-4.057 2.047-6.195.188-1.227.218-2.484.044-3.77Z"/><path fill="#252622" d="M238.72 109.779c-.352-.688-.902-1.192-1.645-1.286-.396-.05-.798.108-1.031.593-.639 1.351-.926 3.469-.346 4.899.406.999 1.788 1.563 2.61.683.124-.134.209-.282.268-.441.778-1.098.827-3.117.144-4.448ZM274.574 109.105c-.362-.702-.922-1.217-1.68-1.316-.406-.054-.817.109-1.05.604-.654 1.38-.946 3.543-.357 5.007.411 1.025 1.828 1.599 2.67.698a1.35 1.35 0 0 0 .273-.445c.788-1.118.842-3.182.144-4.548Z"/><path fill="#fff" d="M294.796 138.37c-3.433 3.092-7.738 5.972-12.301 7.031-6.277 1.455-12.311-2.642-16.205-7.224-1.303-1.534-2.854-3.36-3.909-5.052-.154-.248-.411-.272-.615-.183a.513.513 0 0 0-.128-.065c-1.695-.46-3.86.619-5.603.763-1.234.103-2.473.133-3.706.192-.565.03-2.165.362-2.933.169-.094-.337-.555-.525-.818-.233-.218.089-.371.312-.327.539.303 1.579-4.151 7.531-5.915 8.927-3.72 2.939-8.422 4.918-13.123 3.582-5.831-1.652-11.415-5.398-16.478-8.619-3.755-2.39-7.055-5.285-10.131-8.491-1.011-1.059-2.131-2.85-3.384-3.85.129.678.307 1.351.535 2.029 3.062 9.035 10.587 16.15 19.024 20.267 21.219 10.347 46.019 14.077 67.699 2.88 7.951-4.112 14.565-11.178 18.42-19.238.961-1.999 1.734-4.058 2.046-6.195-3.894 4.414-7.803 8.857-12.148 12.771ZM238.769 102.001c-.763-3.949-9.725-2.474-11.117.302-1.313 2.627 3.8 2.399 5.132 2.37 1.457-.04 6.475-.139 5.985-2.672ZM276.416 103.659c1.328-.04 6.45-.104 4.989-2.652-1.546-2.692-10.572-3.667-11.112.321-.347 2.559 4.667 2.376 6.123 2.331Z"/><path fill="#DD751B" d="M274.028 77.399a311.683 311.683 0 0 0-38.633-.886c-.347-.465 12.529 52.534 13.252 57.328.08.54.798.416.937-.024a66.784 66.784 0 0 1 13.351-.297c.198.015.436-.164.476-.361 1.679-8.383 10.74-55.943 10.617-55.76Z"/><path fill="#252622" d="M263.886 132.115c-.822-.569-4.914-.629-6.653-.564-2.319.084-4.682.118-6.966.579-.565.113-2.17.311-2.314 1.068-.232 1.237 3.429 3.217 4.335 3.716 2.894 1.594 4.816 2.084 7.59.169 1.67-1.148 4.831-4.399 4.008-4.968Z"/><path fill="#fff" d="M288.688 176.191c-.07 9.689.451 19.431-.798 29.075-1.1 8.471-2.284 17.744-5.435 25.73a22.5 22.5 0 0 1-.535 1.262c-2.933 6.358-5.444 10.559-9.125 14.646-7.422 8.244-14.818 16.057-20.664 25.448 0 0-2.002-44.498-7.947-68.991-5.945-24.493-16.745-52.697-16.745-52.697s28.388-.247 30.429 0c1.759.213 23.537-3.458 29.398-4.453.302.43.55.881.718 1.361.847 2.39.476 5.423.535 7.897a688.25 688.25 0 0 1 .169 20.722ZM230.743 301.483c-6.609 6.478-14.298 11.534-22.938 15.147-6.148 2.573-12.539 4.458-19.019 6.002 1.333-6.106 5.153-22.301 9.408-28.14 5.282-7.259 23.944-32.494 23.944-32.494s8.09 26.225 9.576 31.504c.421 1.495-.059 4.468-.971 7.981Z"/><path fill="#F28E35" d="M225.804 334.911c-.184-4.151-3.974-6.348-7.61-7.195-2.675-.623-5.435-.687-8.164-.885-.471-.035-.947-.069-1.417-.114a253.36 253.36 0 0 1-11.137-1.094 247.966 247.966 0 0 1-6.099-.806c1.472-1.128 2.864-2.459 4.152-3.944 6.168-7.056 10.2-17.625 10.542-26.467.53-13.805-3.156-27.14-12.588-37.125-8.616-9.12-23.84-12.831-36.547-11.742-12.341 1.054-23.394 7.976-28.507 19.406-3.547 7.932-5.177 16.932-5.266 25.587-.069 6.774 1.219 14.131 6.624 18.743a.74.74 0 0 0 .832.109c.481.599.961 1.197 1.442 1.791 1.352 1.673 2.7 3.345 4.042 5.022 1.65 2.069 3.29 4.152 4.9 6.255.104.133.208.272.312.405 1.154 1.515 2.205 3.049 2.284 5.028.064 1.484-.396 2.949-.481 4.423-.143 2.351.669 4.36 2.339 6.022 3.899 3.879 10.458 5.75 15.571 7.313 6.247 1.91 12.702 3.029 19.222 3.439 4.261.267 8.734.52 13.233.495 8.179-.03 16.448-.945 23.666-4.27 4.013-1.851 8.878-5.428 8.655-10.396ZM256.693 346.199c-6.916.421-14.258-.96-19.029-6.343a11.98 11.98 0 0 1-.772-1.01c-3.087-4.359-10.196-17.456-11.534-21.346a3042.744 3042.744 0 0 1-5.088-14.977c-.515-1.529-1.03-3.063-1.545-4.597-2.572-7.65-5.133-15.324-7.704-22.969-3.671-10.901-7.843-21.994-8.997-33.39-.798-7.922 2.135-15.883 6.222-22.979 3.766-6.546 9.78-11.395 16.121-15.319 4.34-2.687 8.933-5.497 13.704-7.724a46.696 46.696 0 0 0-.62-1.737c-.341-.895 1.1-1.281 1.432-.396.193.505.372 1.01.545 1.519.188-.084.382-.158.575-.242.039.559.312 1.089.827 1.356-.307.138-.614.272-.921.41a44.13 44.13 0 0 1 1.843 11.609.66.66 0 0 1-.154.465 2390.005 2390.005 0 0 0 9.136 55.121c.431 2.405.862 4.81 1.298 7.215a2361.034 2361.034 0 0 0 5.41 28.966 2487.275 2487.275 0 0 0 3.765 19.139 93.179 93.179 0 0 1 2.284 2.261c3.923 4.048 6.415 7.67 8.189 13.622 2.616 8.763-9.765 11.034-14.987 11.346Z"/><path fill="#fff" d="M132.076 92.362c-4.335-1.54-8.393 2.098-11.469 4.646l-2.522 2.093c.902 1.603 1.779 3.32 3.329 4.399 2.101 1.464 4.831 1.029 6.986 2.325 2.066 1.242 3.007 3.642 3.884 5.79 1.907-3.301 3.775-6.923 4.216-10.584.406-3.395-.927-7.432-4.424-8.67Z"/><path fill="#75481A" d="M119.032 119.279c-1.313-1.4-4.622-5.685-6.975-4.072-2.626 1.801 2.021 5.651 3.076 6.863 1.734 1.989 3.26 3.741 4.37 6.16.178.391.371.767.579 1.128a219.586 219.586 0 0 0 3.379-4.394 40.529 40.529 0 0 0-4.429-5.685ZM106.671 123.792c-1.496-1.965-3.626-3.603-5.464-5.24a123.545 123.545 0 0 0-2.453-2.118h-.004a150.15 150.15 0 0 0-3.602 3.741c1.892 1.474 3.651 2.914 5.375 4.611 1.278 1.257 2.938 3.038 4.756 3.459 2.869.663 2.561-2.915 1.392-4.453ZM93.582 153.218c-3.492-2.232-7.357-3.761-11.4-4.657-.351-.079-.856.104-.916.52-.297 2.222 1.655 3.271 3.25 4.453 3.195 2.37 6.391 4.746 9.586 7.116.798.593 1.63 1.326 2.487 1.989a68.128 68.128 0 0 1 1.695-3.345c.287-.535.58-1.064.877-1.588-1.764-1.609-3.538-3.187-5.579-4.488ZM91.174 167.618c-1.818-1.287-3.919-2.365-6.005-3.157-1.545-.589-4.18-.312-3.22 2.004.59 1.42 2.606 2.514 3.825 3.276a205.73 205.73 0 0 0 6.356 3.8c.163.094.317.193.47.282.115-.505.239-1.005.377-1.504.223-.827.47-1.643.733-2.455-.827-.767-1.62-1.598-2.536-2.246ZM76.247 194.599c-1.476-4.334-5.995-7.179-10.409-9.193a50.426 50.426 0 0 1-1.917 4.869c3.651 2.053 7.382 4.151 11.41 5.24.525.138 1.104-.366.916-.916ZM60.013 218.142c-1.046-.139-9.71-.277-6.327 2.717.545.484 1.482.648 2.14.88a66.915 66.915 0 0 1 4.89 1.955c1.63.727 3.17 1.638 4.726 2.508a58.914 58.914 0 0 1 3.325-5.101c-2.755-1.42-5.643-2.543-8.754-2.959ZM54.9 238.762c-1.778-.07-5.142-.555-6.307 1.118-.148.208-.128.534 0 .747.862 1.41 2.582 2.024 4.137 2.365 2.497.55 4.99.673 7.461 1.381a47.16 47.16 0 0 1 .486-4.82 30.182 30.182 0 0 0-5.777-.791ZM51.957 264.896c-5.41-.425-9.646 1.9-13.07 5.364.154 1.88.372 3.75.664 5.611 1.66-1.569 3.513-2.944 5.41-4.196 2.676-1.762 5.668-3.048 7.64-5.666.367-.489-.149-1.073-.644-1.113ZM66.121 277.746c-5.93-1-11.142 5.769-13.495 10.381-1.6 3.127-2.606 6.507-3.324 9.926a31.253 31.253 0 0 0 2.2 2.157 34.971 34.971 0 0 0 2.972 2.351c.183-2.133.099-4.384.43-6.235.714-4.013 2.88-7.274 5.57-10.262 1.238-1.371 2.556-2.672 3.854-3.988 1.025-1.04 2.07-1.92 2.313-3.415.06-.366-.089-.841-.52-.915ZM70.227 280.241c-2.06 1.767-3.874 3.924-4.92 6.091-.792 1.638-2.105 7.229 1.581 6.418 1.308-.292 2.17-1.593 2.854-2.652a43.452 43.452 0 0 1 4.568-5.879 25.338 25.338 0 0 1-4.083-3.978ZM101.023 307.95c-1.006-3.671-.947-7.214-1.09-10.96-.055-1.331-.283-4.399-2.037-4.696-1.06-.178-1.664.738-1.996 1.737a.96.96 0 0 0-.08.203c-.014.079-.029.163-.049.242a9.842 9.842 0 0 0-.139.659c-.946 4.76-.852 9.658.372 14.329a53.683 53.683 0 0 0 5.038-1.435c-.004-.025-.014-.054-.019-.079ZM222.197 113.174c-1.348-1.885-4.489-2.454-6.436-3.508a37.368 37.368 0 0 1-9.74-7.615 230.678 230.678 0 0 0-2.204 4.666c1.011 1.113 2.2 2.083 3.319 2.998a50.071 50.071 0 0 0 7.768 5.22c1.66.896 4.4 2.751 6.421 1.925 1.551-.628 1.793-2.405.872-3.686ZM209.96 123.366c-.783-2.207-3.612-3.671-5.281-5.225a67.838 67.838 0 0 1-4.013-4.087c-.58 1.598-1.065 3.226-1.372 4.864.252.247.53.49.842.732 2.834 2.212 5.385 5.186 9.309 4.627.376-.055.639-.569.515-.911ZM300.647 100.26c-2.71 1.85-5.598 3.463-8.477 5.076-.936.525-10.894 5.27-7 7.13 1.793.856 4.825-.915 6.381-1.712a86.6 86.6 0 0 1 9.056-4.008 24.11 24.11 0 0 0 1.932-.826 227.542 227.542 0 0 0-1.892-5.66ZM304.943 113.539a38.188 38.188 0 0 1-7.729 4.656c-1.184.535-7.114 3.32-4.127 5.309 1.125.753 2.834.129 3.934-.326 2.333-.97 4.672-2.103 6.921-3.256.723-.371 1.625-.777 2.437-1.291-.396-1.712-.906-3.41-1.436-5.092ZM218.536 67.25c-5.777 2.004-6.223 7.655-5.143 12.925 1.491-3.964 3.082-7.789 7.62-9.08 3.7-1.054 8.229-.544 11.384 1.776-3.834-4.131-8.724-7.407-13.861-5.62ZM291.174 67.577c-3.29-.806-7.015.94-9.76 2.623a21.983 21.983 0 0 0-3.205 2.38c2.125-1.262 4.518-2.034 7.05-1.974 3.854.089 7.852 2.355 9.274 6.061.708 1.856.703 4.24 2.051 5.735 1.526-5.468.366-13.41-5.41-14.825Z"/><path fill="#fff" d="M224.436 74.054c-1.436-1.163-3.408-.886-4.553.574-1.52 1.945-1.159 5.012-.47 7.22.158.504.669.608 1.045.445.074 0 .149-.01.228-.04 1.506-.51 3.007-1.044 4.494-1.613.807-.312 1.783-.57 2.283-1.331 1.274-1.925-1.783-4.25-3.027-5.255ZM291.125 77.037c-.649-2.41-2.973-3.27-5.276-2.954-2.532.346-4.647 1.99-5.747 4.26-.352.352-.342 1.089.287 1.282a42.932 42.932 0 0 1 5.92 2.296c1.095.524 2.205 1.252 3.419.643 1.808-.896 1.848-3.854 1.397-5.527ZM241.647 133.679c-4.993-1.618-10.24-1.178-15.377-1.895-.937-.129-1.338 1.301-.397 1.43 5.128.717 10.404.287 15.378 1.895.912.297 1.303-1.133.396-1.43ZM237.62 137.049c-4.207.44-8.418.811-12.634 1.123-.946.069-.956 1.554 0 1.484 4.216-.306 8.427-.683 12.634-1.123.941-.099.951-1.583 0-1.484ZM283.376 128.443c-4.746 1.777-9.492 3.553-14.238 5.334-.887.332-.505 1.767.396 1.43 4.747-1.776 9.493-3.552 14.239-5.334.886-.331.505-1.766-.397-1.43ZM285.551 137.326a80.934 80.934 0 0 1-13.53-.985c-.936-.148-1.337 1.282-.396 1.43a83.033 83.033 0 0 0 13.926 1.034c.957-.005.957-1.489 0-1.479Z"/><path fill="#F2E4CB" d="M282.777 154.005c-3.795 2.074-7.555 4.231-11.4 6.21-4.181 2.158-8.249 3.014-12.945 2.989-4.518-.025-8.942-.163-13.193-1.856-4.008-1.598-7.937-3.443-11.89-5.17-.872-.381-1.581.925-.704 1.306 4.256 1.86 8.482 3.924 12.842 5.542 4.181 1.554 8.585 1.638 12.999 1.662 4.345.025 8.244-.583 12.188-2.469 4.399-2.103 8.62-4.626 12.895-6.962.843-.46.045-1.712-.792-1.252Z"/><path fill="#fff" d="M225.804 334.911c-.183-4.152-3.973-6.349-7.609-7.195-2.676-.623-5.435-.687-8.165-.885-.471-.035-.946-.07-1.417-.114-1.214.658-2.442 1.291-3.562 2.118-3.106 2.31-5.033 5.734-6.638 9.183-1.72 3.687-3.716 7.64-4.93 11.559 8.179-.03 16.448-.945 23.666-4.27 4.013-1.851 8.878-5.428 8.655-10.396ZM271.679 334.851c-1.773-5.953-4.265-9.575-8.189-13.622-1.12.445-2.165 1.098-3.195 1.707-2.383 1.41-4.776 1.925-7.417 2.612-3.839.995-7.183 3.073-10.022 5.81-2.101 2.023-4.598 4.71-5.965 7.486.297.425.56.767.773 1.009 4.771 5.384 12.113 6.764 19.029 6.344 5.222-.312 17.602-2.583 14.986-11.346ZM326.562 320.107c-1.283-3.147-5.281-7.397-8.154-10.188a17.726 17.726 0 0 0-4.855 2.548c-3.483 2.578-6.525 5.379-10.384 7.437-3.295 1.757-6.658 3.642-8.179 7.239a8.14 8.14 0 0 0-.545 1.816c.426.436.881.836 1.387 1.188 2.918 2.033 7.882 2.751 11.33 3.226 3.716.509 7.496.534 11.211.005 3.998-.574 7.253-2.588 8.482-6.65.743-2.45.52-4.627-.293-6.621Z"/><path fill="#F2E4CB" d="M218.358 340.587c-4.884-2.083-10.042-2.578-15.234-1.42-.931.208-.54 1.638.397 1.43 4.776-1.063 9.581-.648 14.089 1.272.867.371 1.625-.906.748-1.282ZM222.514 332.492a27.063 27.063 0 0 0-10.611-1.44c-.952.06-.957 1.544 0 1.485a25.984 25.984 0 0 1 10.22 1.385c.902.312 1.293-1.118.391-1.43ZM260.166 340.36c-1.813-3.87-5.425-6.235-9.007-8.308-.827-.48-1.58.801-.748 1.281 3.379 1.96 6.763 4.127 8.472 7.774.401.871 1.684.114 1.283-.747ZM269.495 336.55a28.64 28.64 0 0 0-5.99-9.812c-.654-.703-1.699.351-1.05 1.049a26.741 26.741 0 0 1 5.608 9.159c.322.885 1.759.504 1.432-.396ZM315.37 329.755c-1.011-1.841-2.066-3.553-3.735-4.869-1.591-1.257-3.429-2.103-5.267-2.929-.866-.391-1.62.89-.748 1.281 1.66.748 3.349 1.5 4.816 2.598 1.654 1.232 2.675 2.89 3.651 4.671.461.831 1.744.084 1.283-.752ZM324.268 322.852a28.4 28.4 0 0 0-6.956-7.976c-.743-.584-1.803.46-1.05 1.049a27.33 27.33 0 0 1 6.723 7.674c.485.827 1.769.08 1.283-.747Z"/><path fill="#75481A" d="M212.482 175.366a181.36 181.36 0 0 0-13.064-14.7 175.866 175.866 0 0 0-6.352-6.101c-3.156 1.88-6.341 3.681-9.497 5.522 6.01 3.567 11.801 7.501 16.909 12.296 3.587 3.369 6.628 7.224 9.844 10.935 1.555 1.796 3.037 3.711 4.889 5.21.848.688 5.589 3.89 5.851 1.445.585-5.329-5.613-10.876-8.58-14.607ZM183.654 179.78c-2.631-2.949-5.514-5.671-8.457-8.308-1.055-.945-2.363-2.42-3.795-3.622-.143.099-.282.198-.421.302a148.733 148.733 0 0 0-4.786 3.662c2.829 2.355 5.44 5.002 8.185 7.422 2.14 1.89 4.32 3.735 6.534 5.541 1.967 1.609 3.87 3.192 6.361 3.89.446.123.967-.233.942-.718-.184-3.33-2.433-5.784-4.563-8.169ZM156.237 193.228c1.665 1.371 7.605 6.784 9.914 4.394 2.531-2.627-4.023-8.085-5.41-9.589a158.037 158.037 0 0 0-5.96-6.131 145.022 145.022 0 0 0-5.039 5.156 62.335 62.335 0 0 0 6.495 6.17ZM211.823 156.944c-1.863-2.518-4.003-4.824-6.242-7.006a147.555 147.555 0 0 0-2.695-2.543 42.156 42.156 0 0 1-4.246 3.537c1.283 1.153 2.591 2.291 3.711 3.613 2.883 3.399 5.365 6.288 9.487 8.218.396.188.748.079 1.016-.267 1.456-1.89.183-3.904-1.031-5.552ZM157.421 245.88c-2.12-2.939-5.732-4.992-8.734-6.887-4.072-2.568-7.862-5.374-11.424-8.62-3.785-3.444-7.407-7.081-10.914-10.807-.055-.059-.109-.113-.164-.173a178.644 178.644 0 0 0-4.736 9.045c.862.688 1.734 1.322 2.472 1.92 7.332 5.943 14.887 11.613 22.566 17.101 2.651 1.895 5.995 4.661 9.527 3.76 2.725-.692 2.879-3.305 1.407-5.339ZM132.219 250.434c-.604-2.024-4.186-3.672-5.801-4.711-3.28-2.113-6.802-4.226-9.601-6.952a173.075 173.075 0 0 0-2.557 6.566c.08.099.164.198.248.292 1.813 2.029 4.256 3.721 6.574 5.121 2.73 1.653 5.564 1.975 8.725 1.757 1.347-.089 2.942-.312 2.412-2.073ZM138.145 282.585c-1.987-2.657-5.242-3.979-8.075-5.508a83.814 83.814 0 0 1-9.924-6.288 83.069 83.069 0 0 1-10.894-9.62 167.706 167.706 0 0 0-2.517 10.906c5.326 5.685 11.217 9.51 18.658 12.439 3.478 1.366 7.743 3.133 11.563 2.306 2.427-.524 2.551-2.414 1.189-4.235ZM168.46 221.61c-1.744 5.606-17.771-8.422-20.005-10.129-3.845-2.944-7.749-5.858-11.861-8.407 1.63-2.266 3.32-4.497 5.073-6.675 3.097 2.573 6.035 5.359 8.948 8.15 3.408 3.276 6.802 6.586 10.453 9.604 1.972 1.628 4.32 2.934 6.217 4.636.788.708 1.531 1.673 1.175 2.821ZM295.866 242.956a72.983 72.983 0 0 1-11.524 9.094c-1.694 1.089-3.388 2.019-4.31 3.89-.213.435-.034.935.446 1.088 2.497.782 4.716-.42 6.941-1.484a116.9 116.9 0 0 0 8.992-4.79c.262-.153.554-.312.867-.48a185.02 185.02 0 0 1-1.412-7.318ZM279.255 268.172c-.124-.401-.51-.604-.917-.52-3.577.777-6.846 2.276-9.992 4.117-.659.386-1.541.806-2.428 1.291a241.026 241.026 0 0 0 2.254 5.463 30.582 30.582 0 0 0 6.847-4.033c1.828-1.43 5.058-3.627 4.236-6.318ZM302.971 272.196a343.186 343.186 0 0 1-7.585 4.132c-4.746 2.508-9.775 4.834-12.742 9.525-.313.495.099 1.098.639 1.118 2.947.104 5.618-1.88 8.11-3.216 3.344-1.791 6.683-3.588 10.027-5.379.981-.524 1.987-1.034 2.987-1.563a326.45 326.45 0 0 1-1.436-4.617ZM256.134 293.002a104.007 104.007 0 0 0-12.44 6.803c-1.08.693-3.032 1.465-3.592 2.697-.104.228-.169.534 0 .752 1.199 1.569 3.894.643 5.598.371a40.593 40.593 0 0 0 9.611-2.786 26.513 26.513 0 0 0 2.13-1.009c-.44-2.276-.876-4.552-1.307-6.828ZM230 292.79a144.105 144.105 0 0 0-11.276 5.136l1.546 4.596c1.249-.494 2.517-1.246 3.468-1.662 2.576-1.113 5.128-2.291 7.585-3.652a48.361 48.361 0 0 0 3.765-2.296c.704-.47 1.902-1.004 2.324-1.771 1.986-3.637-6.609-.673-7.412-.351ZM250.734 263.65a102.23 102.23 0 0 0-14.586 9.258c-.569.43-.416 1.351.372 1.385 2.442.094 4.82-.578 7.184-1.108 2.571-.579 5.142-1.212 7.634-2.078.233-.079.466-.158.694-.243-.436-2.404-.867-4.809-1.298-7.214Z"/><path fill="#DD751B" d="M178.774 235.352c-.802-.524-1.55.762-.748 1.282 15.106 9.822 25.128 26.462 26.708 44.399.084.945 1.571.955 1.486 0-1.629-18.486-11.87-35.552-27.446-45.681ZM211.224 272.75a1071.92 1071.92 0 0 1-10.726-42.356c-.213-.93-1.65-.534-1.432.396a1064.944 1064.944 0 0 0 10.726 42.356c.253.92 1.684.529 1.432-.396ZM188.529 324.556c-3.934 1.959-8.269 2.226-12.584 2.474-4.583.262-9.165.44-13.753.554-.956.025-.956 1.509 0 1.484 5.187-.128 10.379-.316 15.556-.663 3.993-.267 7.902-.767 11.529-2.568.857-.425.104-1.707-.748-1.281Z"/><path fill="#F2E4CB" d="M277.07 167.305c-.352-.876-1.794-.495-1.432.396a67.26 67.26 0 0 1 4.632 18.847c.089.945 1.576.95 1.486 0-.634-6.635-2.184-13.068-4.686-19.243ZM278.571 188.523l-.654-4.958c-.124-.935-1.61-.945-1.486 0l.654 4.958c.123.935 1.61.945 1.486 0ZM256.322 193.219v18.308c0 .955 1.486.955 1.486 0v-18.308c0-.955-1.486-.955-1.486 0ZM260.503 210.784l-.297 11.875c-.025.955 1.461.955 1.486 0l.297-11.875c.025-.955-1.461-.955-1.486 0ZM270.922 225.134a80.92 80.92 0 0 1-.644 9.411c-.119.945 1.367.935 1.486 0 .401-3.127.614-6.259.644-9.411.01-.955-1.476-.955-1.486 0ZM243.857 171.195l-.481 6.185c-.074.955 1.412.95 1.486 0l.481-6.185c.074-.955-1.412-.95-1.486 0ZM247.216 180.354c-.099 2.805-.203 5.606-.302 8.412-.035.955 1.451.955 1.486 0 .099-2.806.203-5.607.302-8.412.035-.955-1.451-.95-1.486 0Z"/><path fill="#DD751B" d="M265.596 144.718c-1.08 1.791-3.185 2.909-5.296 2.365-2.254-.579-2.923-3.196-3.483-5.181 0-.069.005-.138 0-.203-.059-.95-1.545-.954-1.486 0v.085a.762.762 0 0 0 0 .301c-.094 2.178-1.987 4.968-4.265 4.939-2.017-.025-4.038-1.203-4.623-3.187-.272-.915-1.704-.524-1.431.396.837 2.83 3.824 4.522 6.727 4.25 1.937-.178 3.587-1.87 4.449-3.785.788 1.915 1.977 3.558 4.266 3.924 2.606.415 5.102-.955 6.43-3.157.491-.816-.793-1.564-1.288-.747Z"/></svg>