<svg xmlns="http://www.w3.org/2000/svg" width="513" height="208" fill="none" viewBox="0 0 513 208"><circle cx="104" cy="104" r="104" fill="#FA5F1D"/><path fill="#0F5C4F" d="M487.395 103.889c-3.069-4.312-7.678-1.509-10.592 1.397-.808-.909-1.62-1.818-2.427-2.728-.737-.825-1.417-1.997-2.623-2.043-1.23-.052-2.647.909-3.67 1.481a22.69 22.69 0 0 0-2.957 2.001 78.753 78.753 0 0 0-2.051-4.082c-.671-1.238-1.06-2.607-2.609-2.578-2.966.046-6.064 1.73-8.471 3.698-.54-1.04-1.075-2.081-1.615-3.122-.845-1.631-1.581-4.13-3.642-4.537-1.788-.352-3.693.825-5.214 1.584a62.147 62.147 0 0 0-6.068 3.488c-.629-1.304-1.131-2.672-1.83-3.957-.578-1.059-1.469-2.662-2.816-2.845-1.633-.22-4.52 1.463-5.993 2.09a34.01 34.01 0 0 0-3.224 1.576l-3.309-4.922c-1-1.49-2.051-3.638-3.971-4.092-1.952-.464-4.35.867-5.993 1.8a20.765 20.765 0 0 0-4.055 3.037 85.948 85.948 0 0 0-3.139-6.478c-.399-.745-.775-1.865-1.558-2.32-1.329-.769-3.675.722-4.923 1.29-2.047.927-3.98 2.043-5.834 3.299a32.877 32.877 0 0 0-1.061-2.672c-.793-1.767-1.647-4.05-3.665-4.687-3.384-1.069-7.8 1.697-10.635 3.825a37.394 37.394 0 0 0-2.252-4.355c-.822-1.34-1.577-2.451-3.248-2.62-3.961-.394-8.176 2.362-10.616 5.24-1.286-3.787-3.205-8.071-7.002-9.435-1.544-.553-3.116.445-4.473 1.12-2.454 1.219-4.698 2.76-6.791 4.519-.319.267-.277.623-.075.871-.263 5.606 2.628 11.194 5.651 15.74 3.088 4.646 9.212 5.649 14.182 7.21 13.169 4.134 26.465 7.79 40.268 8.943 7.246.605 14.544.774 21.738 1.903 6.458 1.017 12.784 2.756 19.289 3.502 6.838.782 13.793.684 20.65.192 6.021-.431 12.071-1.303 17.796-3.277 3.257-1.12 12.39-4.049 8.828-9.056Z"/><path fill="#0F5C4F" d="M343.006 80.992c-.394-.675-.788-1.355-1.178-2.03.282-.45-.098-1.106-.624-1.083-.943-1.63-1.886-3.262-2.881-4.86-1.066-1.711-2.356-3.24-4.445-3.6-3.595-.619-7.542 1.795-10.635 4.247a111.232 111.232 0 0 0-1.914-4.435c-.892-1.95-1.563-4.48-3.971-4.856-4.576-.717-8.87 3.717-12.178 7.158a54.271 54.271 0 0 0-3.173-5.934c-1.145-1.842-2.534-4.158-4.89-4.524-2.394-.37-4.402 1.355-6.045 2.85-2.037 1.847-3.877 3.881-5.571 6.038-.713-2.086-1.511-4.167-2.694-6.028-1.06-1.66-2.647-3.853-4.782-4.04-2.394-.212-4.717 1.916-6.392 3.355-2.243 1.927-4.139 4.177-5.759 6.642-.459.699.54 1.35 1.089.858 1.863 5.372 6.754 8.62 11.883 10.617 3.464 1.345 7.092 2.226 10.541 3.61 3.281 1.312 6.303 3.393 9.86 3.904 3.52.506 7.242-.211 10.743-.6 3.534-.399 7.068-.849 10.569-1.486 7.073-1.29 13.84-3.506 20.087-7.05l1.149 1.964c.451.773 1.671.066 1.211-.717Z"/><path fill="#0F5C4F" d="M269.23 70.3c-1.474-2.352-3.224-4.504-5.322-6.337-1.638-1.434-3.806-3.36-5.988-3.792-2.15-.422-4.041 1.36-5.566 2.625a33.37 33.37 0 0 0-4.327 4.373 40.416 40.416 0 0 0-2.845-3.998c-1.44-1.772-3.233-3.698-5.589-4.139-2.126-.398-3.914.67-5.416 2.063-1.549 1.434-3.013 2.986-4.463 4.537-1.263-1.669-2.699-3.197-4.337-4.528-1.919-1.56-4.172-3.244-6.776-2.977-2.497.258-4.59 2.02-6.402 3.614-1.558 1.37-2.961 2.883-4.247 4.496-2.164-3.46-5.289-6.713-9.034-7.397-2.549-.464-4.323.966-5.989 2.69a38.293 38.293 0 0 0-4.261 5.32c-1.347-1.916-2.788-3.782-4.374-5.507-1.436-1.566-3.234-3.145-5.486-3.187-2.164-.042-3.975 1.354-5.501 2.723-1.947 1.744-3.689 3.689-5.317 5.733a19.83 19.83 0 0 0-2.577-4.022c-1.267-1.528-3.285-3.81-5.378-4.172-2.182-.37-3.646 1.692-4.862 3.164-1.624 1.964-3.041 4.064-4.304 6.272-.624.051-1.243.112-1.863.192a30.88 30.88 0 0 0-2.741-3.53c-1.389-1.542-3.228-3.473-5.383-3.857-2.14-.38-3.501 1.368-4.773 2.817-1.586 1.804-2.923 3.787-4.054 5.901-.31-.066-.62-.131-.93-.206-.877-.216-1.253 1.139-.375 1.355.277.065.549.117.826.178.145.534.92.825 1.248.239 3.637.604 7.265.464 10.912-.38a47.528 47.528 0 0 1 4.716-.839 51.44 51.44 0 0 1 1.164 2.076c.427.797 1.643.09 1.216-.707a38.933 38.933 0 0 0-.878-1.542 16.2 16.2 0 0 1 .498-.047c.286.332.868.426 1.14-.07a.116.116 0 0 1 .019-.029c2.29-.173 4.599-.239 6.988-.258 2.971-.023 5.946-.084 8.917-.107.009.018.014.037.023.056.273.731 1.333.553 1.399-.066 1.516-.004 3.036 0 4.552.038 5.191.122 10.039 1.275 14.924 2.953 9.143 3.136 18.205 6 27.76 7.621a141.279 141.279 0 0 0 28.084 1.941c4.58-.145 9.752-.066 14.051-1.88 4.309-1.818 6.434-6.257 10.494-8.39.404-.131.709-.558.427-1.012Z"/><path fill="#3C8F68" d="M134.735 70.564c-.192-.497-.746-.567-1.098-.366a43.38 43.38 0 0 0-.789-2.367c-1.346-3.642-3.369-7.11-7.208-8.423-2.389-.82-5.031-.51-7.345.408-1.319.53-2.539 1.242-3.693 2.067-.662.473-1.404 1.284-2.15 1.917-3.036-3.187-7.894-3.623-11.756-1.42-4.51 2.578-6.632 7.354-7.777 12.21a804.73 804.73 0 0 0-46.25 6.816c-2.511-1.102-4.496-2.49-7.401-2.067-1.267.182-2.59.693-3.525 1.57-1.572-1.088-3.792-.497-5.045 1.186-2.168 2.91-1.849 7.785-1.272 11.362a.676.676 0 0 0 .005.29c.023.122.066.23.103.343.014.093.033.192.047.286a.6.6 0 0 0 .258.407c1.272 2.082 4.73 2.47 6.97 2.78-.46 8.325 10.465 10.631 16.9 11.817 10.46 1.922 21.08 2.728 31.687 3.286 5.656.3 11.31.543 16.966.806 0 0 .061.005.178.009h.043c.004 0 .014 0 .018.005.151.005.305.014.456.023 1.323.061 2.656.141 3.984.216l.568.028c1.727.099 3.454.188 5.181.244 1.91.061 3.816.084 5.721.028 7.861-.22 16.196-2.606 18.524-11.011 2.905-10.509 1.572-22.386-2.3-32.45Z"/><path fill="#3C8F68" d="M509.41 105.521c-3.778-.338-7.739.075-11.541-.005a251.182 251.182 0 0 1-24.113-1.668c-25.019-2.953-49.658-8.583-74.123-14.447-18.59-4.453-37.118-9.206-55.895-12.838-13.427-2.597-26.953-4.64-40.539-6.22-.329-.038-.657-.08-.986-.118a609.32 609.32 0 0 0-11.653-1.223c-.183-.019-.361-.033-.544-.052-.113-.01-.226-.023-.338-.032l-.882-.085c-.212-.023-.432-.037-.643-.06-.024 0-.043-.005-.066-.005-.343-.033-.681-.061-1.023-.094a643.2 643.2 0 0 0-14.403-1.149c-.761-.056-1.526-.107-2.286-.154-.08-.01-.164-.014-.244-.02-.366-.027-.732-.05-1.094-.074-.647-.042-1.295-.084-1.942-.122-.381-.028-.761-.047-1.136-.07-3.614-.22-7.228-.417-10.841-.581a42.94 42.94 0 0 0-1.146-.052c-.736-.033-1.468-.07-2.205-.103-.667-.028-1.328-.056-1.99-.08-.263-.014-.521-.023-.779-.033-.512-.018-1.019-.042-1.53-.056a382.529 382.529 0 0 0-3.281-.122l-1.131-.042c-1.994-.06-3.989-.122-5.988-.169a700.036 700.036 0 0 0-9.466-.202c-.437-.009-.868-.018-1.305-.023-.342-.01-.685-.014-1.028-.018h-.126c-2.99-.043-5.979-.075-8.969-.09-.394-.004-.788-.009-1.182-.009-3.117-.014-6.233-.019-9.349-.005h-1.183l-2.558.014c-1.37.01-2.736.02-4.101.033a1205.136 1205.136 0 0 0-13.057.178 82.34 82.34 0 0 0-1.497.029c-.375.004-.751.009-1.126.018-.376.01-.751.014-1.122.024h-.065c-.733.018-1.465.032-2.197.047-.704.018-1.408.032-2.112.051l-1.182.028c-.282.005-.568.014-.85.019-1.619.042-3.238.08-4.862.117-.493.014-.99.024-1.488.038l-7.124.168-1.136.029c-.262.004-.53.014-.793.018-.722.02-1.445.038-2.168.057h-.066c-.403.009-.802.023-1.206.028-1.103.028-2.21.06-3.318.089l-1.455.042c-.464.014-.934.023-1.398.037-3.403.099-10.963.746-16.731 1.266-3.586.319-6.481.59-7.256.642-.901.066-.905 1.472 0 1.406 1.868-.13-1.591 16.214-6.481 23.887-4.449 6.98-9.649 15.595-18.58 16.954-.507.075-.695.858-.31 1.177.737.609 1.53 1.134 2.361 1.584l.005.005c2.712 1.486 5.828 2.24 8.804 2.967 4.44 1.083 8.846 2.334 13.277 3.459 27.797 7.069 56.66 12.197 85.302 14.039 17.318 1.111 34.79.74 51.948-1.974 16.647-2.634 31.88-7.72 47.95-12.477 3.796-1.125 7.692-1.894 11.662-1.908 4.205-.019 8.419.567 12.61.895 12.841 1.022 27.765 3.792 40.638 4.27 1.629.061 3.257.127 4.89.202 11.156.492 22.326 1.153 33.472.562 46.743-2.484 98.64-13.073 99.151-15.243.441-1.87-1.38-2.625-2.881-2.756Z"/><path fill="#000" d="M105.28 69.017c-.248-.455-.624-.783-1.121-.84-.268-.027-.535.085-.681.413-.408.919-.563 2.34-.154 3.29.286.666 1.224 1.023 1.764.413a.885.885 0 0 0 .174-.3c.497-.736.497-2.095.018-2.976Zm17.652-.869c-.254-.464-.639-.801-1.15-.857-.272-.028-.544.089-.695.422-.417.937-.577 2.395-.159 3.37.295.68 1.253 1.045 1.802.422a.884.884 0 0 0 .174-.305c.516-.76.516-2.147.028-3.052Z"/><path fill="#0F5C4F" d="M33.72 83.992c-.216-.394-.896-.464-1.21-.14-.545.552-.676 1.377-.226 2.02a.834.834 0 0 0 1.056.252c.75-.403.741-1.471.38-2.132Zm6.143-1.153a.84.84 0 0 0-.098-.052c-1.099-.51-1.31 1.125-1.038 1.81.066.164.16.323.296.435.249.207.624.23.916.085a1.07 1.07 0 0 0 .549-.76 1.49 1.49 0 0 0-.141-.942 1.314 1.314 0 0 0-.484-.576Z"/><path fill="#4FA87F" d="M379.669 122.958c-1.633-.075-3.261-.14-4.89-.201-12.873-.478-27.797-3.249-40.638-4.271-4.191-.328-8.405-.914-12.61-.895-3.97.014-7.866.783-11.663 1.908-16.069 4.758-31.303 9.843-47.949 12.478-17.158 2.714-34.631 3.084-51.948 1.973-28.643-1.842-57.505-6.97-85.303-14.039-4.43-1.125-8.837-2.376-13.277-3.459-2.975-.726-6.091-1.481-8.804-2.967h.014l.455.023c.761.047 2.122.122 3.985.216l.568.028c1.468.071 3.21.155 5.181.244 13.6.614 38.103 1.472 58.922.881 30.674-.872 63.489 4.144 88.381.464 24.892-3.679 32.401-6.365 56.806-5.962 16.158.272 45.073 8.231 62.77 13.579Z"/><path fill="#3C8F68" d="M176.809 107.325c-1.704-1.584-9.401 5.311-11.583 4.725-2.45-.656-10.386.558-9.152-1.617.446-.788-.769-1.5-1.215-.708a366.121 366.121 0 0 0-5.205 9.506 516.548 516.548 0 0 0-2.633 5.062c-.464.905-.554 2.114-1.727 2.382-1.375.309-18.796 2.343-23.109 3.928-.544.201-1.825-.174-2.872-.483-.498-.141-.943-.272-1.23-.319-1.633-.258-3.294-.464-4.951-.426-1.187.023-2.755.079-3.726.876-2.398 1.978 1.417 2.869 2.656 3.487.681.338 1.328.722 1.957 1.144-3.004.385-6.552 1.139-7.992 3.539a.705.705 0 0 0 0 .708c.647 1.097 1.999 1.373 3.186 1.453 1.418.094 2.859.084 4.295.061-2.272 1.205-4.468 3.047-2.882 4.814 1.051 1.167 3.318.417 4.58.178 1.657-.309 3.29-.867 4.985-.947.314-.014.629-.028.943-.037 6.129-.216 12.24.154 18.374-.249 7.063-.459 14.098-1.289 21.081-2.423a.603.603 0 0 0 .244-.089c1.999.042 3.13-1.458 4.041-3.117 1.525-2.775 2.844-5.686 4.078-8.602a106.95 106.95 0 0 0 3.534-9.548c.681-2.151 6.134-11.61 4.323-13.298Z"/><path fill="#0F5C4F" d="M119.82 140.218c-1.126-2.466-1.68-4.163-.873-6.872.329-1.111.465-2.198.366-3.225-.497-.141-.943-.272-1.229-.319-1.634-.258-3.295-.464-4.952-.426-1.187.023-2.755.079-3.726.876-2.398 1.978 1.417 2.869 2.656 3.488.681.337 1.328.722 1.957 1.143-3.003.385-6.551 1.139-7.992 3.539a.705.705 0 0 0 0 .708c.647 1.097 1.999 1.373 3.186 1.453 1.418.094 2.859.085 4.295.061-2.272 1.205-4.468 3.047-2.882 4.814 1.051 1.167 3.318.417 4.581.178 1.656-.309 3.29-.867 4.984-.947.314-.014.629-.028.943-.037-.14-1.561-.661-3.014-1.314-4.434Z"/><path fill="#3C8F68" d="M330.485 148.518c-.464-2.433-2.248-4.476-2.998-6.839a25.994 25.994 0 0 0-1.113-2.925c-.633-1.378-1.412-2.686-2.417-3.853-2.187-2.536-4.974-4.485-7.185-7.012-2.417-2.765-4.43-5.868-6.195-9.079-2.238-4.078-3.543-14.264-4.716-14.475-3.309-.59-11.489 4.35-14.39 5.648-2.736 1.233-10.423-1.359-10.592-1.195-.558.516 2.159 13.101 2.567 16.251.296 2.292 1 4.069 2.872 5.522 2.61 2.02 5.979 3.262 8.922 4.729 3.956 1.978 7.988 3.811 11.925 5.827 1.577.806 3.271 1.392 4.107 3.047.478.946.671 2.006.859 3.056.084.482.169.961.276 1.425.451 1.921.639 5.339 2.497 6.604 1.239.844 2.647.445 3.483-.726.244-.343.741-3.722.741-3.722s1.394 5.573 2.699 5.414c1.295-.164 2.459-1.2 2.787-2.456.244-.924.343-3.75-.159-4.542 2.037 3.21 5.021 6.716 6.303 2.981.394-1.144-.057-2.55-.273-3.68Z"/><path fill="#0F5C4F" d="M330.486 148.518c-.465-2.433-2.248-4.477-2.999-6.839a26.109 26.109 0 0 0-1.112-2.925c-.836.295-1.638.651-2.389 1.059a15 15 0 0 0-4.196 3.361c-.788.909-1.352 1.889-2.375 2.564-1.117.736-2.229.783-3.505 1.027a14.31 14.31 0 0 0-1.779.454c.084.483.169.961.277 1.425.45 1.922.638 5.339 2.496 6.605 1.239.843 2.647.445 3.483-.727.244-.342.741-3.722.741-3.722s1.394 5.574 2.699 5.414c1.295-.164 2.459-1.2 2.788-2.456.244-.923.342-3.75-.16-4.542 2.037 3.211 5.022 6.717 6.303 2.981.394-1.144-.056-2.55-.272-3.679Z"/><path fill="#fff" d="m44.547 97.974 1.206 4.083 2.187-3.745-3.393-.338Zm6.055.526 1.638 4.401 1.844-4.401h-3.482Zm7.354.431 1.408 4.528 2.304-4.528h-3.712Zm7.781 0 1.76 4.763 2.309-4.763h-4.07Zm7.823.234 1.877 4.529 2.464-4.763-4.341.234Zm8.837-.234 2.464 4.528 2.385-4.795-4.849.267Zm8.513-.821 2.727 4.462 2.126-5.114-4.852.652Z"/><path fill="#2E7D58" d="M103.455 90.48c-.343-.825-1.708-.464-1.356.375 2.158 5.165-11.4 6.16-14.484 6.61-5.65.82-11.361 1.2-17.068 1.284-10.832.159-21.64-.764-32.402-1.88-.9-.094-.892 1.312 0 1.406 12.873 1.336 25.836 2.395 38.78 1.65 6.171-.352 12.267-1.19 18.331-2.39 3.309-.652 10.32-1.974 8.199-7.055Zm58.576 11.333c-4.633 2.475-8.106 6.398-10.082 11.254-.342.839 1.024 1.205 1.357.375 1.835-4.509 5.144-8.123 9.433-10.415.798-.427.089-1.641-.708-1.214Zm-2.53-1.087a14.998 14.998 0 0 0-7.59 4.471c-.61.666.381 1.664.995.994a13.666 13.666 0 0 1 6.97-4.106c.882-.216.507-1.57-.375-1.359Zm14.704 4.392c-.413-.807-1.624-.094-1.216.708a12.309 12.309 0 0 1 1.338 5.127c.037.9 1.445.905 1.407 0a13.934 13.934 0 0 0-1.529-5.835Zm-17.793 27.051c-2.243-3.084-5.448-5.151-9.217-5.817-.887-.155-1.267 1.2-.375 1.355 3.393.6 6.345 2.381 8.377 5.17.525.726 1.746.028 1.215-.708Zm126.044-31.428c-1.582 2.873-2.323 6.009-2.168 9.285.042.9 1.45.905 1.407 0-.14-3.046.507-5.901 1.976-8.577.437-.793-.779-1.505-1.215-.708Zm26.407 18.608c-1.741 2.025-3.876 3.623-6.345 4.654-.821.343-.46 1.707.376 1.355 2.703-1.13 5.054-2.789 6.969-5.015.582-.685-.408-1.683-1-.994Zm.508 3.797a35.52 35.52 0 0 0-2.131 3.506c-.423.797.788 1.51 1.215.708a35.712 35.712 0 0 1 2.131-3.506c.512-.745-.708-1.448-1.215-.708Zm-15.53-41.736a1022.776 1022.776 0 0 1-3.468-10.377c.704-.615 1.408-1.233 2.112-1.843-.643-.065-1.281-.126-1.924-.187-.226.192-.446.389-.667.581-.07-.22-.145-.445-.216-.666l-.882-.084c-.211-.023-.432-.037-.643-.06.197.609.399 1.213.596 1.823a598.02 598.02 0 0 0-11.46 10.335 319.42 319.42 0 0 1-5.172-12.9c.183-.168.361-.337.544-.506a194.7 194.7 0 0 0-2.285-.154l.098.267a1519.914 1519.914 0 0 0-14.938 14.189 439.215 439.215 0 0 1-5.759-13.645l1.99-1.833c-.666-.028-1.328-.056-1.99-.08l-.563.52c-.075-.182-.145-.37-.216-.553-.511-.018-1.018-.042-1.53-.056.212.544.427 1.083.643 1.627-5.017 4.617-10.029 9.234-15.046 13.85a863.393 863.393 0 0 1-6.054-15.411c.197-.202.394-.399.591-.6-.436-.01-.868-.019-1.304-.024-.343-.01-.686-.014-1.028-.018.037.093.07.192.108.285a539.429 539.429 0 0 1-13.817 13.411l-6.265-13.8h-.836l-2.557.014c-4.158 3.97-8.302 7.96-12.432 11.958-1.601-3.91-3.173-7.823-4.726-11.747-.502.005-1 .014-1.497.029a995.797 995.797 0 0 0 5.138 12.763c-1.337 1.299-2.684 2.597-4.021 3.9-.648.633.347 1.627.999.994 1.197-1.167 2.398-2.325 3.6-3.492a922.319 922.319 0 0 0 2.938 7.064c.347.825 1.708.464 1.356-.37a1267.78 1267.78 0 0 1-3.215-7.74c4.576-4.434 9.166-8.85 13.77-13.246 2.224 4.894 4.444 9.787 6.669 14.68a543.44 543.44 0 0 1-6.646 6.094c-.671.61.324 1.599.995.994a488.808 488.808 0 0 0 6.261-5.737c1.122 2.465 2.238 4.926 3.355 7.392.376.82 1.591.108 1.216-.713l-3.492-7.687a541.141 541.141 0 0 0 13.756-13.317 863.301 863.301 0 0 0 6.035 15.337 1810.606 1810.606 0 0 1-4.486 4.13c-.667.618.328 1.608.995.993 1.351-1.242 2.707-2.489 4.059-3.73a824.594 824.594 0 0 0 1.901 4.635c.342.825 1.703.464 1.356-.375a694.126 694.126 0 0 1-2.159-5.273c5.017-4.617 10.034-9.234 15.047-13.856a458.656 458.656 0 0 0 5.786 13.664c-1.464 1.415-2.933 2.817-4.393 4.237-.652.633.343 1.626.995.994 1.328-1.294 2.671-2.574 4.003-3.863a462.48 462.48 0 0 0 3.445 7.552c.385.815 1.601.103 1.216-.713a444.011 444.011 0 0 1-3.586-7.87c4.928-4.743 9.879-9.459 14.868-14.132a317.652 317.652 0 0 0 5.191 12.88c-1.066.994-2.131 1.983-3.187 2.982-.662.623.338 1.617.995.998.925-.872 1.854-1.734 2.778-2.601a345.733 345.733 0 0 0 2.305 5.207c.375.82 1.591.108 1.215-.712a298.917 298.917 0 0 1-2.431-5.508 588.254 588.254 0 0 1 11.353-10.265c1.07 3.248 2.149 6.497 3.252 9.74.291.849 1.652.483 1.361-.375ZM180.934 65.797c-.732.019-1.464.033-2.196.047a995.69 995.69 0 0 1-6.899 5.601 310.864 310.864 0 0 1-2.108-5.386c-.492.014-.99.024-1.487.038a297.91 297.91 0 0 0 2.454 6.262c-1.976 1.589-3.951 3.183-5.937 4.758-.708.562.291 1.551.995.993 1.84-1.457 3.666-2.93 5.496-4.401a300.155 300.155 0 0 0 4.538 10.5c.371.825 1.586.107 1.216-.708a298.515 298.515 0 0 1-4.614-10.706c2.877-2.316 5.749-4.645 8.608-6.998h-.066Zm-23.912.572c-1.22 1.082-2.44 2.17-3.66 3.257a414.377 414.377 0 0 1-.93-3.14l-1.454.042c.398 1.378.812 2.756 1.225 4.13a8633.41 8633.41 0 0 0-7.697 6.852c-.676.6.319 1.594.995.994l7.152-6.37a549.839 549.839 0 0 0 3.745 11.83c.282.859 1.643.493 1.357-.37a548.51 548.51 0 0 1-3.943-12.491c1.793-1.594 3.586-3.192 5.379-4.79l-2.169.056Z"/></svg>