<svg xmlns="http://www.w3.org/2000/svg" width="66" height="66" fill="none" viewBox="0 0 66 66"><circle cx="33" cy="33" r="30" stroke="#fff" stroke-opacity=".5" stroke-width="5"/><path fill="#fff" fill-rule="evenodd" d="M31.026 21.206A10.944 10.944 0 0 1 38.745 18a9.913 9.913 0 0 1 8.376 4.685.918.918 0 0 1-.224 1.143.956.956 0 0 1-1.312-.206 8.021 8.021 0 0 0-6.84-3.748 9.052 9.052 0 0 0-7.609 14.055l7.14 10.87a2.754 2.754 0 0 0 5.079-1.5.937.937 0 1 1 1.874 0 4.63 4.63 0 0 1-8.527 2.568l-7.121-11a10.813 10.813 0 0 1-1.762-5.941 10.944 10.944 0 0 1 3.206-7.72Zm8.279 16.793a5.94 5.94 0 0 1-1.74-4.182 5.94 5.94 0 0 1 3.598-5.51 3.354 3.354 0 0 0-6.353 1.537.937.937 0 1 1-1.874 0 5.247 5.247 0 0 1 10.382-1.068.956.956 0 0 1-.712 1.105 4.048 4.048 0 0 0 .881 7.984.937.937 0 0 1 .937.937.956.956 0 0 1-.937.937 5.94 5.94 0 0 1-4.182-1.74Zm-13.808-3.132a.899.899 0 0 0 .674-.3.92.92 0 0 0 0-1.311 6.765 6.765 0 0 1-.187-9.539.937.937 0 1 0-1.35-1.293 8.62 8.62 0 0 0 .244 12.181.918.918 0 0 0 .619.262Zm-2.548-13.915a.936.936 0 0 1-.226.309 10.083 10.083 0 0 0-2.849 7.046 9.22 9.22 0 0 0 2.849 6.71.938.938 0 0 1 0 1.33.918.918 0 0 1-.675.28.843.843 0 0 1-.637-.262A11.076 11.076 0 0 1 18 28.307a11.957 11.957 0 0 1 3.372-8.34.938.938 0 0 1 1.66.612.936.936 0 0 1-.084.373Z" clip-rule="evenodd"/></svg>