<svg xmlns="http://www.w3.org/2000/svg" width="335" height="362" fill="none" viewBox="0 0 335 362"><circle cx="103" cy="194" r="68" fill="#5BC07E"/><path fill="#95BA61" d="M77.81 123.687c-1.554-.262-2.25 1.672-2.59 2.82-.602 2.034-.59 4.152-.108 6.207a.263.263 0 0 0 .105.157c.071.217.399.33.536.072.64-1.229 1.277-2.457 1.917-3.682.507-.976 1.218-2.017 1.454-3.111.21-.985-.18-2.27-1.314-2.463ZM78.853 136.431c-.003.003-.006.006-.006.009-1.918-.065-3.794.435-5.381 1.535-.965.669-2.94 2.243-2.243 3.658 1.427 2.894 6.674-2.929 7.948-4.628a.25.25 0 0 0 .131-.181c.024-.033.048-.065.066-.095.208-.318-.307-.616-.515-.298ZM96.15 138.311c-1.185-.636-2.745.184-3.639.961-1.489 1.29-2.394 3.194-2.909 5.062-.003.009 0 .015-.003.023-.226-.047-.456.021-.527.286-.08.3.28.455.474.306.11.098.592.467.655.515.265.199.533.395.798.595.306.229.604-.289.3-.515-.143-.107-.285-.22-.431-.336 1.486-1.029 8.18-5.338 5.282-6.897ZM135.095 156.733c.002 0 .005-.003.008-.003.382-.027.385-.622 0-.595a1.374 1.374 0 0 0-.25.042c-.16-.089-.399-.003-.443.184-1.04.61-1.596 2.314-1.939 3.337-.42 1.252-.813 3.313.414 4.274 1.164.91 2.254-.006 2.638-1.178.646-1.96.11-4.125-.428-6.061ZM204.045 154.612c-1.384-1.026-3.266-1.386-4.955-1.552-.166-.345-.678-.045-.515.3.813 1.702 1.969 3.441 3.496 4.589.897.673 2.445 1.273 3.157.024.685-1.204-.209-2.641-1.183-3.361ZM197.253 153.762a.258.258 0 0 0-.086-.095c-.012-.218-.304-.405-.512-.209-1.06.991-.774 3.028-.649 4.325.089.913.619 2.224 1.482 2.677 1.061.556 1.859-.105 1.888-1.184.051-1.82-1.221-3.994-2.123-5.514ZM231.891 128.306c-1.667.202-2.275 2.605-2.382 3.914-.167 2.04.286 3.89 1.608 5.434-.075.113-.149.229-.226.339-.221.315.297.613.515.3.083-.119.155-.241.232-.363a.326.326 0 0 0 .173-.27 11.82 11.82 0 0 0 1.7-5.844c.027-1.023-.003-3.706-1.62-3.51ZM250.55 127.107c-1.149-.487-2.424-.529-3.633-.276.447-.994.715-2.112.917-3.096.215-1.035.209-2.615-1.039-3.004-2.781-.869-1.629 5.535-1.102 6.885-.238-.006-.443.265-.259.458-.101.253.206.529.438.354 1.015.767 2.147 1.362 3.424 1.561.801.125 2.496.274 2.817-.782.301-.969-.822-1.784-1.563-2.1ZM277.794 90.844a2.988 2.988 0 0 1-.319.056c-.077-.125-.232-.202-.396-.11-.086.048-.175.092-.262.14-1.268-.045-2.522-.633-3.782-.788-.926-.116-1.876-.12-2.79.074-1.2.253-3.523 1.178-3.204 2.772.286 1.422 1.992 1.341 3.067 1.13 2.382-.47 4.681-1.406 6.813-2.563-1.48 1.855-4.392 6.394-1.676 7.723 2.945 1.44 2.558-6.427 2.406-7.61-.003-.018-.012-.03-.015-.045.039-.045.075-.092.116-.137.009-.009.012-.02.018-.032l.185-.036c.369-.086.211-.66-.161-.574ZM288.267 77.805l-.024.027a30.13 30.13 0 0 1-3.895.607c-.676.062-1.411.065-2.028.39-.917.484-1.498 1.593-.792 2.506 1.912 2.478 6-1.76 7.159-3.11.247-.29-.17-.711-.42-.42Z"/><path fill="#66994D" d="M295.753 67a119.655 119.655 0 0 1-5.783 10.936c-1.929 3.194-4.067 6.263-6.476 9.145a45.63 45.63 0 0 1-2.296 2.546v.003a36.79 36.79 0 0 1-.73.75c-3.046 3.075-6.361 5.868-9.353 9.008-2.448 2.57-4.342 5.473-6.126 8.468.003.003 0 .006 0 .006-.271.458-.542.916-.81 1.377-.869 1.49-1.727 2.989-2.626 4.473-2.972 4.898-6.632 8.777-11.339 12.045-3.074 2.136-6.167 4.206-9.229 6.329-.28.193-.56.39-.839.586a176.698 176.698 0 0 0-5.072 3.658c-4.547 3.415-9.189 6.627-14.174 9.354-.319.178-.64.351-.965.52h-.003c-.092.051-.181.099-.277.149a100.177 100.177 0 0 1-7.117 3.385 109.613 109.613 0 0 1-8.787 3.328c-15.672 5.184-32.086 6.808-48.476 6.245-.533-.017-1.063-.038-1.596-.062h-.003c-8.106-.345-16.202-1.216-24.195-2.448a307.024 307.024 0 0 1-5.726-.942 361.793 361.793 0 0 1-13.621-2.662c-2.962-.637-5.964-1.255-8.909-2.055-.372-.102-.742-.203-1.114-.313-2.671-.77-5.282-1.713-7.769-2.968a42.35 42.35 0 0 1-.762-.398c-.5-.271-.989-.554-1.474-.848h-.003c-2.222-1.344-4.288-2.921-6.269-4.61a62.137 62.137 0 0 1-.827-.717c-1.582-1.383-3.11-2.825-4.622-4.265-4.455-4.238-8.936-8.482-12.89-13.202a57.16 57.16 0 0 1-1.013-1.243 34.485 34.485 0 0 1-.632-.803c-5.622-7.26-9.716-15.466-13.278-23.9-.119-.277-.235-.557-.351-.833a272.25 272.25 0 0 1-1.891-4.655c-.271-.684-.545-1.368-.813-2.055-.119-.297-.235-.595-.351-.892-1.37-3.48-2.722-6.968-4.077-10.454-.11-.292-.226-.586-.34-.88-.315-.816-.63-1.63-.95-2.448-.118-.304-.235-.607-.354-.91l-.268-.687c-.83-2.136-2.07-4.994-3.177-7.061h2.704c1.173 2.332 2.49 5.44 3.4 7.9l.331.889c.274.74.548 1.478.825 2.206.113.295.223.586.336.875l.021.056c1.367 3.516 2.716 7.037 4.098 10.547l.357.898c.765 1.936 1.543 3.87 2.34 5.79l.096.23c.113.276.23.55.345.826 2.198 5.214 4.613 10.344 7.501 15.216a75.085 75.085 0 0 0 6.168 8.851 87.359 87.359 0 0 0 4.833 5.499 213.648 213.648 0 0 0 12.923 12.459 57.44 57.44 0 0 0 2.296 1.924c2.579 2.04 5.289 3.771 8.225 5.151a37.605 37.605 0 0 0 5.235 2.002c.869.262 1.742.509 2.62.744.372.101.745.199 1.12.294 4.83 1.24 9.77 2.162 14.648 3.108 2.4.464 4.806.907 7.218 1.318.336.056.67.113 1.006.166h.003c3.809.64 7.627 1.199 11.459 1.657 6.256.752 12.572 1.243 18.894 1.395.468.011.932.02 1.397.029h.003c17.551.28 35.111-2.088 51.477-8.747a97.8 97.8 0 0 0 4.577-2.001 93.608 93.608 0 0 0 5.72-2.909c.301-.167.605-.333.903-.503a92.18 92.18 0 0 0 4.487-2.706c4.929-3.162 9.467-6.87 14.222-10.276.271-.193.542-.386.813-.577l.03-.021c4.699-3.31 9.934-6.037 13.972-10.192 3.928-4.042 6.298-9.235 9.207-13.987l.009-.015c.244-.399.494-.788.751-1.172 2.933-4.42 6.604-8.003 10.523-11.614a80.097 80.097 0 0 0 5.295-5.345 64.08 64.08 0 0 0 5.786-7.45 80.676 80.676 0 0 0 2.557-4.128c.182-.312.364-.627.542-.943 1.254-2.224 2.782-5.133 3.872-7.444h2.608Z"/><path fill="#3E7528" d="M44.435 75.789a71.067 71.067 0 0 1-2.635-.131c-.12-.303-.235-.607-.354-.91a79.3 79.3 0 0 0 2.659.151l.33.89ZM45.597 78.87c-.837.044-1.671.083-2.508.116-.11-.292-.226-.586-.34-.88.837-.03 1.674-.066 2.511-.11.113.294.223.585.337.874ZM50.072 90.37c-.851-.02-1.703-.032-2.555-.038-.119-.297-.235-.595-.351-.892.852.003 1.7.012 2.55.033l.356.898ZM52.853 97.217c-.756.238-1.515.455-2.28.657-.12-.276-.236-.556-.352-.832.769-.2 1.528-.417 2.287-.652.113.277.23.55.345.827ZM67.147 122.051a33.93 33.93 0 0 1-2.665.527 34.48 34.48 0 0 1-.631-.803c.899-.128 1.79-.289 2.67-.491.206.259.415.514.626.767ZM86.575 141.166c-.9.327-1.814.607-2.74.839a61.519 61.519 0 0 1-.828-.717 25.46 25.46 0 0 0 2.755-.779c.27.223.542.443.813.657ZM96.366 147.01a43.5 43.5 0 0 1-4.785.452c-.5-.27-.99-.553-1.475-.847a48.261 48.261 0 0 0 4.694-.298 38.82 38.82 0 0 0 1.566.693ZM103.774 149.357c-.845.601-1.694 1.196-2.549 1.784a51.395 51.395 0 0 1-1.113-.312c.851-.583 1.7-1.172 2.543-1.767.372.102.744.2 1.119.295ZM126.647 153.949a25.025 25.025 0 0 1-1.823 2.094c-.357-.06-.714-.122-1.069-.185a28.56 28.56 0 0 0 1.885-2.076c.337.057.67.113 1.007.167ZM158.399 157.03a33.412 33.412 0 0 1-3.123 2.281c-.533-.017-1.063-.038-1.596-.062a33.213 33.213 0 0 0 3.323-2.249c.467.012.932.021 1.396.03ZM214.456 146.282a44.53 44.53 0 0 1-.834 2.983c-.36.16-.72.318-1.083.473.33-.985.628-1.978.887-2.98a50.37 50.37 0 0 0 1.03-.476ZM221.079 142.87a27.86 27.86 0 0 1-.179 2.814c-.318.178-.64.351-.964.52.128-.939.208-1.885.241-2.831.3-.167.604-.333.902-.503ZM240.986 132.086c-.28.193-.56.39-.84.586a43.578 43.578 0 0 0-.357-2.784c.271-.193.542-.386.813-.577.155.922.283 1.847.384 2.775ZM264.99 107.856c.003.003 0 .006 0 .006-.271.458-.542.916-.81 1.377a58.01 58.01 0 0 0-.36-4.143c.244-.399.494-.788.75-1.172.185 1.306.325 2.617.42 3.932ZM281.198 89.627c-.238.256-.482.506-.729.753l-.703-2.362c-.027-.092-.057-.184-.083-.28.238-.255.473-.514.705-.773.301.872.56 1.767.81 2.662ZM290.528 76.996c-.182.318-.366.63-.557.94-.402-.854-.816-1.704-1.239-2.549.182-.312.363-.627.542-.943.429.848.849 1.696 1.254 2.552Z"/><path fill="#FFC1A3" d="M143.599 159.05c-.313-.652-2.698-3.29-2.707-4.039-.009-.758-.253-.869.003-1.561.303-.824.551-1.862-.015-2.639-1.424-1.942-2.728 2.433-3.032 3.165-.506 1.216-.961 2.183-.726 3.524.22 1.261.878 2.314 1.259 3.519.057.181.346.104.286-.081-.024-.08-.053-.157-.08-.238.872.2 1.867.14 2.468-.609.602-.747 2.919-.259 2.544-1.041Z"/><path fill="#FFB794" d="M176.808 157.926a1.03 1.03 0 0 0-.456-.494c.241-.586.346-1.222.158-1.799-.262-.798-1.087-.955-1.813-.774-.024-.621-.268-1.219-.971-1.353-.456-.086-.905.146-1.313.318a6.46 6.46 0 0 0-.721.36c-.414-1.222-1.965-.961-2.766.521-.316.583-.602 1.18-.876 1.781-1.918 1.157-3.121 3.215-3.52 5.493-.068.387-.157.791-.163 1.157-.093.101-.182.206-.28.304-.268.273.152.696.42.419.003-.003.009-.009.011-.015.102.173.257.318.495.422.843.375 1.825.524 2.695.914.64.288 1.274.6 1.938.832.947.33 2.296.75 3.067-.059.519-.544.906-1.353 1.32-1.981.622-.94 1.277-1.865 1.867-2.825.5-.797 1.387-2.219.908-3.221ZM71.325 203.442l.009-.095c.06-.649.348-1.377-.114-1.954-1.26-1.583-2.424 1.707-2.861 2.888a31.316 31.316 0 0 0-3.16-3.403c-.956-.88-2.343-2.391-3.65-2.745-.867-.235-1.203.416-.998 1.228.217.86 1.027 1.639 1.542 2.317l.587.765a37.411 37.411 0 0 0-2.829-2.496c-.536-.425-2.013-1.897-2.778-1.222-.387.342-.23.949.054 1.517-.754-.319-1.4-.241-1.442.94-.038 1.058 1.075 2.12 1.686 2.873.533.66 1.098 1.293 1.682 1.906-.991-.538-2.01-.83-2.385-.003-.3.66.223 1.306.676 1.713.974.877 2.159 1.594 3.237 2.338 1.158.8 2.328 1.591 3.528 2.329.745.455 1.546.868 2.445.791 2.117-.185 3.484-2.499 4.27-4.224a.25.25 0 0 0-.005-.226c.122-.056.208-.196.122-.348-.01-.017-.018-.038-.027-.056.444-1.642.295-3.174.41-4.833Z"/><path fill="#C7763C" d="M191.536 165.194c-.211-.624-.628-.601-1.006-.978-.414-.414-.557-.928-1.2-1.077a1.375 1.375 0 0 0-1.06.179c-.111-.533-.501-.979-1.102-1.151-.888-.256-1.674.249-2.275.865-.25-.5-.822-.741-1.468-.562-1.451.398-2.338 1.011-2.826 2.233-1.683 4.206-3.163 10-5.807 13.682-1.298 1.808-3.082 4.755-4.106 6.745-.879 1.707-1.51 3.524-2.1 5.347-1.111 3.433-2.305 6.779-3.82 10.023a.309.309 0 0 0-.295.197c-.188.472-.352.951-.503 1.433-.17.336-.34.672-.519 1.008-.092.173-.002.333.132.408-.641 2.647-.837 5.383-.959 8.119a328.297 328.297 0 0 0-.313 12.471c-.012 1.802-.101 3.637.027 5.44.077 1.079.309 2.26 1.224 2.953 2.051 1.558 3.776 1.99 5.351.592 5.491-4.875 9.103-12.982 10.124-19.939 1.069-7.278 3.073-14.353 5.733-21.191 2.832-7.28 5.497-17.282 6.545-25.069.25-.55.426-1.139.223-1.728ZM118.392 224.359c-.393-.687-1.367-1.309-1.938-1.829-.825-.75-1.567-1.529-2.234-2.427-1.012-1.365-1.906-2.796-3.082-4.03a18.483 18.483 0 0 0-3.713-2.998c-.67-.41-1.364-.776-2.082-1.097-.964-.432-2.153-.637-2.698-1.651-.008-.018-.023-.027-.035-.042.268.021.536.051.804.105.375.074.536-.5.158-.574-3.359-.658-6.647 1.097-9.768 2.105-3.73 1.205-7.656 2.751-11.509 1.223-3.377-1.339-5.908-4.084-9.172-5.616-.738-.348-1.78-.731-2.477-.08-.411.384-.5.931-.286 1.377a1.508 1.508 0 0 0-.685.5c-.193.247-.188.678-.351.88-.173.214-.364.176-.626.345-.524.342-.583.631-.917 1.118-.458.673-1.34 1.086-1.387 1.972-.06 1.11 1.095 2.097 1.768 2.826a32.7 32.7 0 0 0 14.928 9.19c6.575 1.882 13.868 1.942 20.663 1.966 3.481.012 6.974-.179 10.402-.815.947-.185 5.33-.527 4.237-2.448Z"/><path fill="#C7763C" d="M200.752 266.693c-3.972-2.924-9.919-3.087-13.948-.173-2.984 2.157-4.812 5.966-4.345 9.651.527 4.158 4.318 7.59 8.612 7.263 3.3-.253 5.878-3.045 5.759-6.364-.065-1.803-1.003-3.95-3.126-3.813-1.209.077-2.535.889-3.148 1.939-.134.226-1.06 2.736-1.135 2.697-1.173-.577-1.804-2.004-1.736-3.259.185-3.358 3.711-5.169 6.745-4.833 3.112.345 5.423 2.798 6.23 5.722.947 3.432-.399 7.025-2.874 9.482-2.614 2.596-6.352 3.723-9.979 3.643-4.055-.089-7.536-1.814-10.228-4.803-5.738-6.377-7.308-15.162-7.924-23.419-.822-11.037-2.388-22.383-1.394-33.453.128-1.442-1.748 0-3.103 0-1.557 0-2.549 1.231-2.68 2.677-.551 6.147-.14 11.849.423 17.958.53 5.743 1.15 11.914 1.858 17.639 1.296 10.493 5.512 23.175 16.256 27.446 10.062 3.997 23.495-1.425 25.139-12.831.729-5.017-1.293-10.147-5.402-13.169ZM146.848 161.967c-.554-1.519-1.843-1.415-2.811-.627-.643-1.163-2.153-1.205-2.969-.301-.316-.684-.834-1.243-1.67-1.1-1.471.253-1.546 2.513-1.778 3.599-1.045 4.868-2.531 9.66-4.625 14.183-2.004 4.331-4.544 8.057-8.022 11.338-2.591 2.442-5.339 4.714-7.635 7.429-.337-.107-.7.298-.524.64-.238.3-.474.6-.7.913-.339.464.438.91.771.449.173-.238.358-.464.536-.696 2.942 3.06 6.298 6.058 10.613 6.823 1.811.321 3.782.276 5.336-.812 1.799-1.256 3.008-3.403 4.041-5.28 2.374-4.312 4.461-8.925 5.885-13.639 1.462-4.848 2.278-9.859 2.912-14.871.184-1.451.351-2.905.512-4.363.128-1.127.53-2.581.128-3.685ZM170.328 164.909c-.524-1.142-1.98-1.014-3.156-.55-.006-.298-.015-.595-.021-.893a.454.454 0 0 0-.566-.431 10.14 10.14 0 0 0-1.006.336 1.065 1.065 0 0 0-.661-.467c-.733-.178-1.463.197-1.975.69-1.504 1.455-2.674 3.48-3.838 5.256a49.58 49.58 0 0 0-2.007 2.938 211.894 211.894 0 0 0-8.049 13.729c-2.347 4.357-2.942 8.892-3.076 13.779a357.891 357.891 0 0 0-.101 13.509.468.468 0 0 0-.388.413c-.113 1.008.066 1.951.429 2.822l.006.435c.006.273.212.416.426.428.581.99 1.388 1.88 2.254 2.65 2.058 1.826 4.229 2.757 6.953 3.099 2.564.321 5.861.848 8.279-.339 2.081-1.023 3.198-3.29 3.499-5.499.44-3.245-.331-6.698-.706-9.922l-1.224-10.496c-.402-3.438-1.111-7.063-.518-10.519.583-3.409 2.48-6.567 3.96-9.654l2.502-5.217c.592-1.237 1.596-2.683 1.769-4.072.205-1.659-1.457-2.673-2.785-2.025Z"/><path fill="#C7763C" d="M169.858 211.909c-2.514-4.773-7.088-7.962-12.07-9.782-4.445-1.624-9.177-1.731-13.837-2.168-6.665-.625-13.264-1.404-19.779-2.897-2.719-.624-5.494-1.011-8.231-.514.078-.113.158-.22.233-.336.208-.322-.307-.622-.516-.301-.184.283-.375.556-.574.824-.131.033-.265.065-.396.104-.262.077-.256.39-.096.524-2.808 3.42-6.819 5.597-10.276 8.324-1.754 1.383-3.654 2.992-4.488 5.131-.836 2.153-.157 4.357.995 6.251 4.065 6.695 10.16 11.974 16.976 15.742 12.707 7.022 28.698 10.115 42.646 5.071 3.037-1.097 5.896-2.736 7.912-5.323 4.603-5.922 4.952-14.095 1.501-20.65ZM90.451 201.5c-1.778-1.88-3.222-4.012-4.38-6.32-.232-.461-.879-.143-.816.3-2.713-1.737-6.513-.853-7.79 2.397-1.46 3.709.357 7.352 3.948 8.786 1.766.705 3.74.895 5.617.589 1.614-.262 3.9-.967 4.97-2.308 1.069-1.347-.697-2.543-1.549-3.444Z"/><path fill="#FFB794" d="M90.314 201.363a19.284 19.284 0 0 1-3.657-4.553c-.193-.333-.732-.101-.682.217-2.263-1.252-5.434-.616-6.5 1.728-1.218 2.671.297 5.297 3.293 6.329 1.474.508 3.121.645 4.687.425 1.346-.187 3.255-.696 4.145-1.662.9-.976-.574-1.835-1.286-2.484Z"/><path fill="#E67945" d="M85.53 198.811c-1.332.434-2.672.851-4.015 1.249-.366.11-.212.684.158.574 1.051-.312 2.096-.639 3.141-.972l-1.864 2.876c-.208.321.307.621.515.3.721-1.115 1.445-2.227 2.165-3.343a.32.32 0 0 0 .045-.107l.012-.003c.363-.119.208-.696-.158-.574Z"/><path fill="#C7763C" d="M115.462 189.445c1.587-.654 2.9-2.655 3.597-4.131.813-1.716 1.176-3.661.986-5.552-.388-3.846-3.392-6.594-7.362-6.222-3.481.327-5.387 3.729-4.463 6.814-.408-.182-.897.35-.516.701 1.897 1.752 3.553 3.73 4.866 5.955.631 1.067 1.293 3.096 2.892 2.435Z"/><path fill="#FFB794" d="M115.009 187.262c1.149-.473 2.096-1.921 2.602-2.989a7.69 7.69 0 0 0 .715-4.018c-.28-2.781-2.454-4.77-5.327-4.5-2.52.238-3.898 2.698-3.231 4.931-.295-.13-.649.253-.372.506 1.372 1.267 2.569 2.698 3.522 4.307.456.773.935 2.239 2.091 1.763Z"/><path fill="#E67945" d="m116.542 180.012-3.192 1.305a25.072 25.072 0 0 1 1.248-3.569c.152-.348-.36-.651-.515-.3a26.228 26.228 0 0 0-1.51 4.488c-.089.372.485.532.575.158l.018-.066 3.537-1.445c.349-.14.194-.714-.161-.571Z"/><path fill="#C7763C" d="M117.734 189.059c-.456-2.617-1.817-5.009-3.606-6.936-2.183-2.347-4.923-4.324-8.031-5.288-3.455-1.071-7.183-.532-10.515.723a21.935 21.935 0 0 0-6.242 3.601c-2.075 1.72-4.047 4.048-5.044 6.579-1.891 4.792-.748 10.716 1.926 15.038 4.372 7.066 14.601 8.949 21.914 5.698 3.666-1.63 6.403-4.884 8.163-8.405 1.575-3.161 2.039-7.548 1.435-11.01Z"/><path fill="#FFB794" d="M112.002 192.571c1.018-4.214.032-9.19-4.419-11.218-2.582-1.175-5.292-.247-7.436.839-1.692.853-2.644 2.629-3.186 4.404-2.674-.535-5.756.881-7.594 2.995-1.75 2.02-2.147 4.631-1.587 7.186.885 4.045 4.401 6.088 8.135 5.921 1.635 1.797 3.553 3.355 5.947 3.992 2.63.696 5.551.356 7.903-1.032 2.502-1.479 3.651-3.769 3.728-6.63.057-2.266-.318-4.562-1.491-6.457Z"/><path fill="#252622" d="M94.778 195.427a1.036 1.036 0 0 0-.432-.102c-1.021.015-.232 1.306.078 1.666.172.202.38.387.637.455.256.065.566-.015.697-.247.098-.172.08-.389.03-.58a1.868 1.868 0 0 0-1.01-1.192ZM106.067 187.991c-.265-.116-.545-.134-.786.015-.128.077-.209.22-.161.417.134.547.554 1.231 1.063 1.51.354.197.893.033.923-.419a.444.444 0 0 0-.027-.19c-.033-.503-.497-1.104-1.012-1.333Z"/><path fill="#E67945" d="M104.155 197.253c-.512.018-1.024.032-1.539.05-.382.012-.385.607 0 .595.512-.018 1.024-.033 1.539-.05.381-.012.384-.61 0-.595ZM105.509 195.42c-.05.429-.089.86-.116 1.291-.026.384.571.381.595 0 .03-.431.069-.859.116-1.291.042-.38-.553-.377-.595 0ZM109.476 196.518c-.032-.378-.628-.381-.595 0 .318 3.539-3.547 5.104-6.486 4.375-.372-.092-.53.482-.158.574 3.291.815 7.594-1.014 7.239-4.949ZM62.147 205.086a197.058 197.058 0 0 0-4.732-4.841c-.274-.271-.694.151-.42.419 1.605 1.585 3.184 3.2 4.732 4.842.262.279.682-.143.42-.42ZM61.358 207.326a5.806 5.806 0 0 1-1.486-.91c-.292-.244-.715.175-.42.419.533.446 1.11.794 1.748 1.062.351.152.506-.425.158-.571ZM67.793 205.101c-1.033 1.511-2.48 2.873-2.156 4.86.063.378.635.217.575-.158-.289-1.76 1.191-3.081 2.096-4.401.218-.319-.297-.616-.515-.301ZM64.952 204.063c-.61-.496-1.22-.993-1.834-1.49-.295-.24-.718.179-.42.42l1.834 1.49c.295.241.718-.176.42-.42ZM167.8 157.185c-.42.782-.807 1.579-1.161 2.394-.152.348.36.652.515.301.354-.812.741-1.612 1.161-2.395.179-.339-.333-.639-.515-.3ZM171.406 154.722l-1.626 3.403c-.163.345.349.645.516.3l1.625-3.402c.164-.345-.348-.646-.515-.301ZM173.83 155.151c-.098.803-.742 1.427-1.072 2.138-.161.345.354.648.515.3.387-.832 1.039-1.496 1.155-2.438.042-.381-.554-.378-.598 0ZM175.354 157.637a28.32 28.32 0 0 0-1.054 1.579c-.202.327.313.625.515.301.334-.539.685-1.065 1.054-1.58.224-.312-.294-.609-.515-.3Z"/><path fill="#995726" d="M117.12 197.547c-.914 3.742-3.094 6.698-6.176 8.967-3.007 2.216-6.622 3.914-10.44 3.31-.375-.059-.536.515-.158.574 3.988.631 7.743-1.043 10.899-3.372 3.213-2.368 5.494-5.422 6.45-9.324.089-.369-.482-.53-.575-.155ZM95.513 184.03c-1.063-1.294-2.126-2.585-3.186-3.879-.244-.297-.664.128-.42.42 1.063 1.293 2.126 2.584 3.187 3.878.24.297.66-.125.42-.419ZM96.717 182.703c-.665-1.118-1.326-2.239-1.99-3.358-.193-.33-.708-.029-.515.301.664 1.118 1.325 2.239 1.99 3.358.196.327.708.029.515-.301ZM93.762 184.657a14.854 14.854 0 0 0-2.867-2.519c-.319-.214-.617.3-.301.515a14.237 14.237 0 0 1 2.749 2.423c.253.289.672-.133.42-.419ZM104.799 221.224a59.49 59.49 0 0 0-7.767-5.484c-.33-.196-.63.318-.3.514a58.75 58.75 0 0 1 7.647 5.39c.292.243.715-.176.42-.42ZM105.582 223.892a75.95 75.95 0 0 1-4.214-2.909c-.307-.229-.604.289-.301.515a75.934 75.934 0 0 0 4.214 2.908c.322.209.622-.306.301-.514ZM131.763 195.843a88.477 88.477 0 0 0-9.008.175c-.381.027-.384.622 0 .595 2.998-.214 6-.271 9.008-.175.384.012.384-.583 0-.595ZM131.688 197.119h-2.903c-.384 0-.384.595 0 .595h2.903c.384 0 .384-.595 0-.595ZM134.216 198.585l-2.975.259c-.378.033-.381.627 0 .595l2.975-.259c.381-.033.384-.628 0-.595ZM145.595 201.654c-1.445 6.454-2.853 13.081-2.046 19.674a.271.271 0 0 0-.295.137c-1.117 1.916-2.159 3.736-2.641 5.922-.084.371.491.532.574.157.45-2.046 1.412-3.768 2.451-5.552.101.69.226 1.377.378 2.067.084.374.658.214.575-.158-1.638-7.385-.042-14.853 1.578-22.089.081-.372-.491-.532-.574-.158ZM165.513 199.543c-.146-.348-.724-.197-.575.157 3.735 8.878 6.039 18.619 3.529 28.151-.098.371.477.529.575.157 2.537-9.633.247-19.486-3.529-28.465ZM160.48 181.936a39.785 39.785 0 0 0-1.471 4.767c-.089.372.486.53.575.158.39-1.621.882-3.206 1.471-4.768.137-.359-.441-.514-.575-.157ZM160.597 184.401l-.733 3.126c-.086.372.489.533.575.158l.732-3.126c.087-.372-.488-.529-.574-.158ZM139.389 225.451c-.334.847-.62 1.71-.855 2.59-.098.369.477.529.575.158.235-.881.521-1.743.855-2.591.14-.354-.435-.508-.575-.157ZM136.905 225.367a21.796 21.796 0 0 0-.718 2.314c-.092.372.483.53.575.158.197-.785.435-1.556.718-2.314.134-.36-.444-.515-.575-.158ZM74.061 211.326l-2.159-1.784c-.291-.244-.717.175-.42.419l2.16 1.785c.291.244.714-.176.42-.42ZM72.439 211.948l-1.275-.955c-.307-.229-.604.286-.3.515l1.274.954c.306.229.604-.288.3-.514ZM81.955 220.484a4.583 4.583 0 0 1-1.93-.072c-.371-.092-.53.482-.157.574a5.343 5.343 0 0 0 2.248.072c.375-.066.214-.64-.16-.574ZM144.314 166.634a28.001 28.001 0 0 1-1.927 3.057c-.226.31.292.607.515.301a28.11 28.11 0 0 0 1.927-3.058c.182-.336-.331-.636-.515-.3ZM143.802 170.283a9.82 9.82 0 0 1-1.406 1.841c-.265.277.155.696.42.419a10.659 10.659 0 0 0 1.498-1.962c.199-.328-.316-.628-.512-.298ZM142.357 178.034l-2.153 2.459c-.25.289.167.711.42.42.718-.821 1.436-1.639 2.153-2.46.253-.286-.167-.708-.42-.419ZM119.485 224.422l-1.65-5.152c-.116-.362-.691-.208-.574.158l1.649 5.151c.116.363.694.208.575-.157ZM123.109 228.481a25.52 25.52 0 0 1-2.094-4.669c-.119-.363-.696-.205-.574.157a26.368 26.368 0 0 0 2.153 4.813c.19.333.705.032.515-.301ZM180.616 183.604a38.274 38.274 0 0 1-2.837 2.817c-.286.256.137.675.42.419a39.67 39.67 0 0 0 2.837-2.816c.259-.283-.16-.705-.42-.42ZM180.235 186.019a33.815 33.815 0 0 0-1.992 1.609c-.289.253.134.673.42.42.605-.53 1.23-1.035 1.873-1.517.301-.226.006-.741-.301-.512ZM175.837 209.732a27.709 27.709 0 0 1-2.811 1.889c-.331.193-.03.707.301.514a27.752 27.752 0 0 0 2.811-1.888c.301-.229.006-.747-.301-.515ZM175.691 211.894a41.228 41.228 0 0 0-2.76 1.925c-.301.229-.006.746.301.514a41.215 41.215 0 0 1 2.76-1.924c.325-.205.024-.72-.301-.515ZM173.672 216.936a9.293 9.293 0 0 0-1.468 1.391c-.247.292.173.714.42.42a8.852 8.852 0 0 1 1.349-1.297c.298-.232.003-.749-.301-.514ZM166.981 233.829c-1.349.928-2.701 1.853-4.05 2.781-.313.214-.015.731.301.514 1.349-.928 2.701-1.853 4.05-2.781.315-.217.017-.731-.301-.514ZM167.32 261.64c-.53 1.442-1.057 2.888-1.587 4.33-.131.36.444.515.575.158.53-1.443 1.057-2.888 1.587-4.331.131-.359-.446-.514-.575-.157ZM167.493 264.697c-.268.845-.536 1.69-.801 2.534-.116.366.459.524.575.158.268-.845.536-1.689.801-2.534.116-.366-.459-.523-.575-.158ZM182.945 291.81a6.556 6.556 0 0 1-1.891-3.079c-.104-.368-.679-.211-.575.158a7.142 7.142 0 0 0 2.043 3.34c.283.262.706-.161.423-.419ZM184.467 292.149a20.557 20.557 0 0 1-1.608-2.308c-.197-.327-.712-.03-.516.3a22.14 22.14 0 0 0 1.701 2.427c.241.3.661-.125.423-.419ZM186.822 292.577c-.453-.592-.905-1.181-1.355-1.773-.229-.3-.747-.003-.515.301.453.592.905 1.181 1.355 1.772.232.301.75.006.515-.3ZM189.168 278.381l-.604 2.302c-.098.372.476.53.575.158l.604-2.302c.098-.369-.476-.526-.575-.158ZM190.797 278.462c.015-.384-.58-.381-.595 0a14.387 14.387 0 0 0 .226 3.128c.069.375.643.218.574-.157a13.825 13.825 0 0 1-.205-2.971ZM202.343 270.494c-.146-.348-.724-.194-.575.157A9.17 9.17 0 0 1 202.5 274c.012.381.608.384.596 0a9.62 9.62 0 0 0-.753-3.506ZM204.108 272.139c-.119-.363-.693-.208-.574.157.291.902.363 1.815.19 2.748-.068.375.506.536.574.158a6.123 6.123 0 0 0-.19-3.063Z"/><path fill="#FFC1A3" d="M148.766 153.518c-.2-1.353-1.677-2.567-2.895-1.648a1.596 1.596 0 0 0-.72-.651c-.545-.247-1.173-.104-1.698.196-.232-.401-.607-.678-1.176-.633-.86.068-1.926.96-1.995 1.835a.118.118 0 0 0 .054.116c-.828 1.507-1.15 3.265-.843 4.981.167.943.438 2.139 1.042 2.909.629.803 1.867.904 2.811.91.763.006 2.365 1.472 2.895.821.792-.97 1.369-2.924 2.048-3.979.748-1.163 1.346-3.013.81-4.372-.05-.128-.321-.39-.333-.485Z"/><path fill="#FFC1A3" d="M149.15 155.832c-.104-.967-.819-1.434-1.688-1.654-1.376-.348-2.817-.723-4.244-.574a22.72 22.72 0 0 0-2.382.381 2.69 2.69 0 0 1 .194-.562c.08-.173-.176-.325-.256-.149a3.823 3.823 0 0 0-.262.785c-.483.11-.965.232-1.43.375-.181.056-.104.342.081.285a26.1 26.1 0 0 1 1.292-.36c-.098.628-.068 1.303.2 1.791.175.318.461.568.824.633.173.03.322-.021.492-.015.458.015.789.268 1.173.444.283.13.512.208.831.136.351-.077.449-.249.896-.172.223.039.432.184.667.22.176.027.349.03.524.015.319-.03.783-.306 1.087-.226.349.092.474.297.888.238.771-.113 1.191-.854 1.113-1.591Z"/><path fill="#FF9866" d="M140.952 153.803c.015-.3.015-1.094.254-1.344.265-.277-.155-.699-.42-.419-.372.386-.384 1.142-.42 1.65a4.249 4.249 0 0 0 .333 2.017c.149.351.664.047.516-.301-.218-.511-.289-1.05-.263-1.603ZM143.043 152.313a51.224 51.224 0 0 1-.679 3.539c-.087.372.488.533.575.158.267-1.172.494-2.35.678-3.539.057-.372-.518-.536-.574-.158ZM145.24 152.843c-.11.969-.357 1.906-.723 2.81-.143.354.431.509.574.158.387-.958.629-1.942.745-2.968.041-.381-.554-.378-.596 0ZM147.593 154.104a3.622 3.622 0 0 1-.447 1.418c-.184.336.328.637.516.301.297-.539.467-1.11.527-1.719.038-.381-.557-.378-.596 0Z"/><path fill="#FFC1A3" d="M193.701 156.15c.67-1.466-.62-1.799-1.096-2.376-.203-.247-1.534-.429-1.846-.47-.667-.089-.944-.253-1.594-.033-.732.247-1.679.271-2.37.619-1.373.693-1.575 2.801-1.941 4.107-.498 1.773-1.492 3.373-1.617 5.229l-.03-.009c-.295-.102-.423.368-.128.467.98.33 1.995.8 3.019.969.879.146 1.775.06 2.662.208.59.098.787.268 1.272-.119.607-.484 1.039-1.4 1.34-2.082.408-.916.676-1.879.968-2.837.277-.898.691-2.207 1.361-3.673Z"/><path fill="#FFC1A3" d="M185.348 158.722c-.128-.82-.033-1.549-.03-2.37.003-.773.378-2.867-.268-3.382-1.575-1.258-2.293 3.9-2.454 4.468-.312 1.115-.92 2.141-1.101 3.292-.203 1.279.396 2.299.839 3.453.087.223.385.196.462.039 1.015-.158 1.382-.313 1.977-1.214.572-.865.7-1.802.715-2.828.006-.497-.066-.967-.14-1.458ZM193.686 152.688c-.525-.101-1.546-.518-2.061-.428-.744.128-1.477-.188-2.218-.173-.906.018-2.094.559-2.826 1.074-.572.401-.885 1.793-.956 2.468-.06.545-.033 1.52.563 1.806.607.288 1.161-.467 1.453-.887.101-.145.187-.297.265-.449.059.896.333 1.74 1.212 1.621.72-.098 1.084-.746 1.274-1.508.185.515.488.934.98 1.05.628.149 1.045-.306 1.307-.862.238.208.581.288.953.154.884-.318.989-1.377.995-2.18.006-.743-.096-1.522-.941-1.686Z"/><path fill="#FF9866" d="M185.595 158.119c-.161-.348-.673-.045-.515.3.452.988.711 2.026.78 3.111.024.381.619.384.595 0a9.473 9.473 0 0 0-.86-3.411ZM188.295 153.17c-.279.699-.515 1.41-.702 2.135-.096.372.476.53.574.158.191-.729.423-1.44.703-2.135.143-.357-.432-.509-.575-.158ZM190.443 153.414c-.173.633-.319 1.27-.438 1.915-.068.375.503.535.575.158.119-.646.265-1.282.438-1.916.101-.368-.474-.526-.575-.157ZM192.626 153.768a35.756 35.756 0 0 1-.435 1.564c-.11.366.464.523.575.158.157-.518.303-1.041.434-1.565.093-.372-.482-.529-.574-.157ZM189.565 157.31c-.099.181-.254.262-.453.291-.161.024-.563.075-.622-.142-.099-.369-.673-.212-.575.157.25.931 1.781.702 2.165-.006.181-.336-.334-.636-.515-.3ZM192.268 156.84c-.196.306-.777.506-1.033.169-.229-.3-.748-.006-.515.301.28.369.616.508 1.081.443.408-.057.756-.262.979-.613.209-.327-.306-.624-.512-.3ZM290.36 88.286c-.098-.815-1.197-1.36-1.876-1.6a5.24 5.24 0 0 0-1.036-.241c.113-.119.223-.24.325-.372.661-.835 1.238-2.06.792-3.128-.751-1.794-2.695-.872-4.253.276a14.999 14.999 0 0 0-.184-4.173c-.212-1.115-.649-2.543-1.998-2.629-2.648-.166-2.582 3.578-2.21 6.415-.479-.556-1.036-1.044-1.751-1.395-1.132-.559-2.999-1.023-4.062-.08-1.003.89-.351 2.106.513 2.796.253.202.53.422.83.645-1.063.179-1.944.628-1.926 1.642.012.797.702 1.193 1.39 1.389.31.09.626.166.944.235-.05.047-.104.095-.155.149-.747.77-1.727 2.32-1.328 3.462.393 1.118 2.046.588 3.699-.286-.131.413-.238.839-.325 1.261-.173.815-.223 1.85.694 2.251.849.37 1.638-.116 2.29-.883.191 1.083.593 2.418 1.644 2.725 1.971.576 2.212-1.812 2.016-4.123.169.167.345.33.533.482.804.648 2.081 1.44 3.016.55 1.034-.984-.071-2.57-.625-3.512-.086-.146-.173-.295-.262-.443a6.517 6.517 0 0 0 1.572-.116c.676-.14 1.843-.384 1.733-1.297Z"/><path fill="#EB7942" d="M283.618 86.329c-.009-.02-.021-.039-.03-.06a1.663 1.663 0 0 0 0-.633c-.184-1.023-1.232-1.924-2.269-1.38a1.362 1.362 0 0 0-.461.398c-1.129.212-1.439 1.776-1.096 2.725.229.633.863 1.062 1.48 1.02-.012.08-.027.158-.036.238-.015 1.145 1.159 1.166 1.838.57.815-.71 1.024-1.908.574-2.878Z"/><path fill="#FF9866" d="M74.538 125.32c1.024-.547 1.968-1.216 2.683-2.159.774-1.023 1.667-3.12.878-4.375-.733-1.163-2.641-.161-3.427.422-.673.5-1.278 1.071-1.844 1.684a16.16 16.16 0 0 0 .453-2.463c.137-1.309.25-3.209-1.167-3.902-1.361-.663-2.698.404-3.246 1.603-.51 1.106-.7 2.347-.691 3.584-.066-.11-.128-.22-.2-.33-.744-1.151-2.543-3.694-4.106-3.599-1.581.095-1.23 2.692-.95 3.7.334 1.198.989 2.213 1.787 3.12a13.948 13.948 0 0 0-2.311-.548c-1.006-.142-2.76-.193-3.332.884-.926 1.746 2.54 2.34 5.202 2.569-.747.375-1.45.833-2.037 1.443-.878.916-1.846 2.623-1.349 3.953.408 1.088 1.88.791 2.686.374.76-.392 1.316-.99 1.832-1.633a12.974 12.974 0 0 0-.516 2.448c-.14 1.276-.416 3.926 1.126 4.595 1.596.693 2.716-1.603 3.195-2.697.301-.681.524-1.383.703-2.097.54 2.278 1.59 4.47 3.606 3.976 2.135-.523 1.4-3.372.343-5.689a4.89 4.89 0 0 0 1.885.592c1.375.125 3.013-.426 3.633-1.764 1.197-2.608-2.171-3.441-4.836-3.691Z"/><path fill="#EB7942" d="M72.7 123.655c-.366-1.294-1.355-1.44-2.28-1.044-.611-.732-1.615-1.187-2.538-.705-.506.264-.8.782-.878 1.335-.072.5.33 1.3.113 1.707-.215.399-.93.589-1.182 1.092-.22.44-.274.954-.108 1.424.143.399.432.741.822.913.64.283.974-.086 1.436-.199.166.405.268.744.783 1 .67.333 1.742.33 2.42.008 1.126-.535.96-1.781.35-2.644.878-.663 1.384-1.748 1.062-2.887Z"/></svg>