<svg xmlns="http://www.w3.org/2000/svg" width="335" height="362" fill="none" viewBox="0 0 335 362"><circle cx="198" cy="127" r="127" fill="#FCD342"/><path fill="#252622" d="M12.754 240.516c-.085-.323-.347-.446-.605-.427-.065-.458-.628-.815-.997-.369a532.684 532.684 0 0 0-5.89 7.286C3.68 249.002 1.6 251.06.413 253.33c-.577 1.104-.7 2.516.636 3.089.997.427 2.11.242 3.158.689.847.361 1.53.554 2.45.55.732-.004 1.147-.373 1.987-.185.555.123 1.067.569 1.525.873.59.393 1.183.82 1.9.947 1.32.231 1.96-.447 2.156-1.693.867-5.543-.073-11.71-1.471-17.084Z"/><path fill="#659AA6" d="M123.418 280.494c-1.78-.546-4.118-.069-5.928.077-2.315.185-4.63.454-6.96.489-4.853.08-9.016-1.574-13.604-2.859-4.132-1.161-8.408-1.331-12.68-1.315-.993.007-2.037-.012-3.069.034 0-.057 0-.111-.004-.169-.019-.773-1.232-.781-1.213 0l.008.265c-1.772.208-3.451.739-4.745 2.093-.543.562.315 1.42.855.854 1.032-1.077 2.426-1.562 3.917-1.773.134 5.22.265 10.436.4 15.66.07 2.735.139 5.478.212 8.213.104 4.251.143 8.517.678 12.737.49 3.828 1.41 7.575 2.18 11.352a181.526 181.526 0 0 1 2.145 12.776c.478 3.639.52 7.405 1.187 11.01.496 2.7 1.887 4.104 4.625 4.412 3.879.431 7.796.631 11.694.685.181.004.366.004.551.007 2.461.027 4.934.004 7.399-.1a102.02 102.02 0 0 0 4.498-.28c.251-.02.505-.039.755-.066 1.121-.104 2.184-.184 2.881-1.165.536-.754.79-1.801.971-2.82.108-.62.192-1.223.296-1.75 1.221-6.282 6.494-40.604 8.655-56.73.574-4.27.928-7.267.932-8.125.015-2.031-4.048-2.716-6.636-3.512Z"/><path fill="#fff" d="M111.066 354.95c-2.465.104-4.937.131-7.399.1-.181-.004-.365-.004-.55-.008.235-.85.624-1.662 1.255-2.292 1.006-.997 2.539-1.47 3.921-1.089 1.36.373 2.373 1.519 2.696 2.873.035.139.062.277.077.416Zm9.104-4.336c-.181 1.019-.435 2.065-.97 2.819-.701.981-1.76 1.062-2.881 1.166-.25.023-.505.046-.755.065.62-1.392 1.548-2.731 2.696-3.45a4.013 4.013 0 0 1 1.91-.6Z"/><path fill="#659AA6" d="M258.004 344.355c-.027.816-.008 1.585.004 2.3.035 2.701-.066 4.663-3.37 5.609-.058.016-.116.031-.174.05-.866.239-1.748.404-2.638.539-1.91.281-3.855.396-5.754.692-.397.062-.794.119-1.194.181a92.158 92.158 0 0 1-3.725.466c-2.623.265-5.261.384-7.888.246-.058-.004-.111-.004-.173-.008-2.45-.119-6.255-.15-7.8-2.154-.77-1.012-.978-2.378-1.313-3.547-.516-1.808-1.036-3.616-1.548-5.424-1.657-5.797-3.008-11.583-4.576-17.384v-.004c-.173-.642-.351-1.285-.528-1.923-1.718-6.121-1.637-12.318-1.995-18.654-.358-6.393.393-12.783 1.36-19.103.916-6.001 1.56-12.295 4.225-17.896 2.554-5.37 6.617-9.936 10.288-14.668a160.597 160.597 0 0 0 10.395-15.099c6.251-10.306 15.745-50.209 15.772-49.205.02.704 1.125 36.764 1.271 43.062.289 12.213.459 24.427.513 36.645a1931.06 1931.06 0 0 1-.439 50.198c-.185 8.355-.424 16.718-.713 25.081Z"/><path fill="#fff" d="M241.15 354.192c-2.623.266-5.262.385-7.888.246-.058-.004-.112-.004-.174-.007.039-.735.208-1.485.582-2.128.867-1.481 2.538-2.269 4.225-1.862 1.537.373 2.716 1.608 3.128 3.116.061.2.1.416.127.635Zm10.672-1.343c-1.91.281-3.855.396-5.754.693-.397.061-.793.119-1.194.18.32-2.038 1.695-4.047 3.952-3.747 1.556.216 2.484 1.447 2.996 2.874Zm2.817-.585c-.058.016-.116.031-.174.051.266-2.089.805-4.586 2.662-5.39.296-.131.589-.219.882-.269.035 2.7-.066 4.662-3.37 5.608Z"/><path fill="#659AA6" d="M218.815 71.993c-.39.162-.778.323-1.164.48-9.991-13.348-24.584-22.984-40.977-26.392-8.913-1.855-17.871-1.662-26.799-.02-8.794 1.62-17.583 3.793-25.814 7.328-3.944 1.697-7.988 3.659-11.393 6.302-2.658 2.066-4.918 5.043-4.687 8.582.1 1.535.716 2.854 1.687 4.032.554.677 1.197 1.273 1.752 1.95.898 1.096 1.21 2.281 1.626 3.608 1.124 3.578 3.99 4.724 7.495 5.274 9.409 1.478 19.073-.227 28.544.027a133.077 133.077 0 0 1 28.887 3.966c5.107 1.285 10.018 3.047 15.021 4.667 3.929 1.273 8.262 2.108 12.148.246 3.247-1.55 5.173-4.447 4.938-8.063-.166-2.574-1.244-5.755 1.367-7.486 2.254-1.493 5.2-2.305 7.688-3.34.713-.288.401-1.461-.319-1.161Z"/><path fill="#BAD2D6" d="M257.369 189.362c-.069 8.509-.666 16.826-1.856 24.989-2.677 18.346-8.35 35.892-17.756 53.014a349.977 349.977 0 0 1-5.928 10.321c-1.64 2.762-5.118 6.536-5.854 9.621a683.505 683.505 0 0 0-2.719 11.806 728.712 728.712 0 0 0-5.173 25.54c-.073.396-.15.819-.227 1.257v.004c-1.298 7.248-3.417 20.189-5.932 27.759-.296.897-.601 1.72-.909 2.447-.416.985-1.879 1.677-3.767 2.185-.928.25-1.96.454-3.023.623-2.931.469-6.097.681-7.981.893-.215.019-.408.046-.585.069-1.321.177-2.927.231-4.634.177a51.236 51.236 0 0 1-8.138-.916c-2.542-.511-4.634-1.196-5.546-1.954-2.377-1.985-3.451-13.591-4.291-18.088-1.706-9.102-2.993-18.088-3.505-27.336-.512-9.359-2.688-24.039-2.688-24.039l-.609.108c-2.5.446-12.075 2.15-17.467 2.893-6.398.881-13.003 1.385-19.655 1.396-15.73.023-31.687-2.693-45.587-9.606a616.035 616.035 0 0 0-3.14 11.33c-1.767 6.585-3.454 13.194-5.18 19.788L64.542 354.37c-.15.58-.304 1.165-.458 1.746a.401.401 0 0 1-.027.073 1.845 1.845 0 0 1-.632 1c-.985.854-2.137 1.543-3.389 2.089-1.471.643-3.085 1.093-4.753 1.393-2.519.457-5.157.569-7.591.488a43.164 43.164 0 0 1-2.854-.177c-.501-.05-1.156-.173-1.915-.357-1.983-.493-4.68-1.42-7.183-2.516-3.44-1.497-6.525-3.309-6.952-4.755-.851-2.901.851-27.747 1.799-41.596-.208-2.951-.15-5.936-.22-8.875l-.254-10.506a.592.592 0 0 1-.077-.3c-.224-24.316-.805-48.566-.805-72.882-.004-24.282 6.243-46.921 27.165-61.346 21.5-14.826 48.007-16.084 73.354-13.945a.538.538 0 0 1 .312-.158c17.325-2.931 35.004-2.47 52.421-4.655 15.375-1.923 30.72-4.958 46.277-4.916 5.75.015 11.824.604 16.974 3.37 5.161 2.777 8.211 7.659 9.517 13.268.069.307.135.611.196.919.02-1.65.054-3.301.112-4.951.027-.781 1.24-.781 1.213 0-.412 11.445.162 22.885.509 34.322.081 2.777.108 5.528.088 8.259Z"/><path fill="#BAD2D6" d="M60.213 155.389c-6.937 3.366-14.424 8.867-16.974 11.637-4.021 4.377-7.206 8.293-10.037 13.587-2.893 5.412-5.439 10.54-7.711 16.234a292.697 292.697 0 0 0-11.806 36.302c-.993 2.278-1.867 4.767-2.857 6.956.354-.127.859-.147 1.248.061.335.177.816.889.816.889s4.626-7.467 6.07-11.452c2.088-5.755 3.763-11.618 6.209-17.246a112.867 112.867 0 0 1 14.24-24.043c1.76-2.269 3.778-4.358 5.48-6.67 2.115-2.866 1.583-5.936 2.103-9.256.547-3.508 2.47-6.543 5.235-8.732.416-.331.15-.827-.255-.962 2.073-1.296 4.23-2.404 6.456-3.216.728-.262 2.484-4.432 1.783-4.089ZM334.502 54.956c.562-10.568-1.761-21.25-7.234-30.471-13.33-22.443-42.19-31.11-66.155-19.011-11.2 5.654-20.04 15.064-26.156 25.9a84.771 84.771 0 0 0-4.653 9.664c-1.433 3.504-2.284 7.363-4.029 10.717-.859 1.647-2.118 3.193-3.836 3.99-1.621.75-3.474.05-5.026.846-.713.365-1.291 1.057-1.287 1.885.004 1.038 1.233 1.627 1.244 2.573.023 1.97-.851.92-2.214 1.635-.694.362-.982 1.154-.732 1.885.327.942 1.325 1.527 2.126 2.016.254.154.512.304.774.442-5.519 1.047-10.846 2.893-15.653 5.863-9.271-5.809-20.379-8.963-31.032-11.14-17.24-3.52-39.518-1.79-53.915 9.159-6.748 5.131-12.125 12.025-15.522 19.784-1.66 3.79-2.854 7.77-3.501 11.856-.316 1.993-.609 4.074-.177 6.067.454 2.1 1.775 3.712 3.216 5.239 7.811 8.286 15.811 16.399 23.714 24.593 6.667 6.913 13.25 13.645 22.443 17.057 8.204 3.047 17.206 3.501 25.802 2.15 14.144-2.223 27.12-9.451 37.203-19.538 1.283 1.589 2.954 2.839 4.711 3.955 3.15 2 6.44 3.827 9.806 5.443 6.451 3.097 13.396 5.324 20.606 5.436 6.528.1 13.057-1.427 18.904-4.316a40.307 40.307 0 0 0 8.153-5.344c2.862-2.416 5.185-5.339 7.827-7.978 3.251-3.251 6.174-6.848 8.566-10.867 1.772-2.974 2.796-5.236 2.361-8.567-.092-.697-.135-1.516-.358-2.235 14.524-5.555 26.742-17.654 34.972-30.425 5.427-8.425 8.52-18.292 9.052-28.263ZM233.797 65.989a17.36 17.36 0 0 0 1.01-.731c3.874-3.059 6.362-7.467 8.3-11.922 2.299-5.285 4.156-10.694 7.225-15.614 3.093-4.959 7.053-9.706 11.809-13.157 9.714-7.043 23.33-6.393 32.215 1.716 1.926 1.758 3.644 3.813 4.776 6.174 1.568 3.274 1.441 6.87.79 10.36-.978 5.243-3.22 10.171-6.228 14.56-6.471 9.437-9.541 12.884-23.614 13.934-14.07 1.05-23.048-4.497-34.465-5.22a70.606 70.606 0 0 0-1.818-.1Z"/><path fill="#252622" d="M248.252 95.09c-1.055-1.485-3.386-2.308-5.15-2.25-2.083.065-4.102 1.296-5.014 2.212-1.337 1.342 2.753.184 3.143.138 1.502-.185 3.015-.004 4.494.277.397.07 3.417.873 2.527-.377Z"/><path fill="#659AA6" d="M288.19 113.309c-3.132.846-6.363 1.065-9.572.515-2.904-.496-6.867-1.535-8.643-4.07-.443-.635-1.494-.031-1.047.612 1.872 2.681 5.619 3.87 8.689 4.497 3.628.742 7.326.577 10.892-.389.755-.204.435-1.369-.319-1.165Z"/><path fill="#fff" d="M191.022 360.066a51.236 51.236 0 0 1-8.139-.916c.305-1.169.644-2.362 1.491-3.25 1.163-1.227 3.147-1.585 4.626-.723 1.656.969 2.056 2.923 2.022 4.889Zm13.202-1.138c-2.931.469-6.097.681-7.98.893.373-2.205 2.218-4.217 4.568-4.09 1.848.108 3.154 1.439 3.412 3.197Zm7.7-5.251a32.79 32.79 0 0 1-.909 2.447c-.416.984-1.88 1.677-3.767 2.185.131-1.708.832-3.509 2.323-4.328a3.227 3.227 0 0 1 2.353-.304Zm-147.385.693c-.15.581-.305 1.165-.459 1.746a.401.401 0 0 1-.027.073 1.841 1.841 0 0 1-.631 1c-.986.854-2.138 1.543-3.39 2.089.343-1.804 1.29-3.577 2.939-4.439a4.155 4.155 0 0 1 1.568-.469Zm-9.259 6.305c-2.52.457-5.158.569-7.592.488.462-1.939 1.633-3.624 3.89-3.62 1.795 0 3.24 1.343 3.678 3.028.008.034.016.065.023.104Zm-12.365-.051c-1.983-.493-4.68-1.42-7.183-2.516.678-1.254 1.749-2.166 3.397-2.143 1.776.027 3.205 1.374 3.586 3.059.112.519.173 1.061.2 1.6Z"/><path fill="#FFCFB8" d="M198.297 113.632c-1.86-4.959-4.903-9.629-5.153-15.053-.201-4.29.762-14.16.762-14.16s-16.469-12.514-30.393-14.815c-11.894-1.966-24.469-.75-35.076 5.093-10.072 5.552-21.635 17.188-18.584 29.902 1.444 6.02 7.618 9.352 12.098 12.937 5.222 4.182 8.419 10.41 12.983 15.238 4.672 4.939 10.23 8.763 16.624 11.167 10.314 3.878 22.605 4.916 32.839.212 7.468-3.432 13.33-10.006 14.994-18.154.851-4.204.408-8.363-1.094-12.367Z"/><path fill="#659AA6" d="M230.496 66.958c-3.717 1.989-7.784 1.443-11.724.516-.759-.177-1.083.988-.324 1.169 4.271 1.004 8.651 1.508 12.66-.639.69-.369.077-1.411-.612-1.046Zm-8.874-5.047c-.285-.473-.92-.692-1.398-.9a13.955 13.955 0 0 0-1.941-.673c-.755-.2-1.078.97-.324 1.17a12.2 12.2 0 0 1 1.942.677c.088.038.662.261.67.334.019.235-.609.331-.751.366-.759.18-.439 1.35.323 1.17.913-.22 2.142-1.04 1.479-2.144Zm19.505-8.113c-2.6-1.554-5.581-2.45-7.981-4.339-.604-.477-1.471.373-.858.858 2.492 1.966 5.523 2.916 8.223 4.532.674.396 1.286-.65.616-1.05Zm1.402-4.358a15.125 15.125 0 0 1-4.34-2.99c-.559-.546-1.414.308-.859.858a16.16 16.16 0 0 0 4.587 3.178c.701.323 1.317-.72.612-1.047Zm42.303 32.87a141.656 141.656 0 0 0-6.556-10.802c-.431-.647-1.483-.039-1.048.611a140.598 140.598 0 0 1 6.556 10.802c.377.681 1.425.073 1.048-.611Zm2.764-3.954a23.375 23.375 0 0 0-4.379-6.75c-.532-.574-1.387.284-.859.857a22.517 22.517 0 0 1 4.191 6.509c.304.712 1.348.096 1.047-.616Zm15.207-16.93c-2.388-1.435-5.192-1.392-7.827-2.058-.755-.192-1.078.977-.323 1.17 2.519.638 5.253.565 7.537 1.939.671.4 1.279-.647.613-1.05Zm-1.098-5.979a29.734 29.734 0 0 0-4.599.39c-.766.126-.442 1.292.324 1.168a26.961 26.961 0 0 1 4.275-.346c.778-.004.782-1.215 0-1.212Zm5.512-18.271a26.744 26.744 0 0 0-5.354 2.258c-.681.38-.069 1.427.613 1.046a25.142 25.142 0 0 1 5.065-2.135c.743-.227.427-1.396-.324-1.17Zm-1.428-7.626a19.658 19.658 0 0 0-4.299 2.367c-.624.453-.019 1.508.613 1.046a18.216 18.216 0 0 1 4.009-2.243c.713-.288.401-1.458-.323-1.17Zm-13.016-13.952a45.619 45.619 0 0 1-1.522 7.39c-.219.75.952 1.07 1.171.323a47.327 47.327 0 0 0 1.568-7.713c.089-.769-1.125-.765-1.217 0Zm-3.636 1.774c-.27.896-.539 1.796-.813 2.692-.223.747.944 1.066 1.171.324.27-.897.539-1.797.813-2.693.223-.75-.948-1.07-1.171-.323ZM265.75 18.53a70.841 70.841 0 0 0-3.047-5.74c-.397-.669-1.444-.06-1.047.612a70.556 70.556 0 0 1 3.046 5.74c.331.704 1.379.092 1.048-.612Zm-3.497 2.978a18.178 18.178 0 0 0-2.827-4.844c-.489-.607-1.344.254-.859.858a16.454 16.454 0 0 1 2.515 4.309c.285.715 1.456.404 1.171-.323Zm-18.634 60.23a2.153 2.153 0 0 0-1.256-.458c-3.693-.127-8.157 2.228-9.394 5.817-.165.477.328.815.748.746.986-.17 1.637-.762 2.438-1.323a17.732 17.732 0 0 1 3.913-2.078c1.028-.384 2.403-.323 3.351-.946.889-.585.751-1.304.2-1.758Zm-43.596 9.959a41.084 41.084 0 0 0-16.454-14.891c-.697-.346-1.309.696-.612 1.046 6.59 3.286 12.09 8.236 16.019 14.457.416.658 1.467.05 1.047-.612Zm13.472 49.043c-2.176-1.677-4.98-1.327-7.264-.038-3.108 1.754-5.67 4.582-8.551 6.678-6.301 4.578-13.338 7.971-21.041 9.363-15.776 2.855-31.683-2.342-44.482-11.513-.636-.454-1.24.596-.613 1.046 12.037 8.629 26.758 13.768 41.683 12.172 7.252-.777 14.139-3.159 20.382-6.913 3.058-1.835 5.939-3.951 8.686-6.224 2.808-2.328 6.782-6.452 10.584-3.52.62.473 1.225-.581.616-1.051Zm38.49 11.815c-7.26.661-14.474-.616-21.041-3.782-.701-.338-1.313.708-.612 1.047 6.755 3.258 14.178 4.631 21.653 3.947.771-.074.778-1.285 0-1.212Zm-150.841.942a2.996 2.996 0 0 0-.751-1.228c-.912-.888-2.272-1.127-3.543-1.204-5.566-.342-13.003 1.701-16.72 6.152-1.479 1.769-.397 4.508 1.787 5.216 1.9.612 3.594-.927 5.28-1.504 1.861-.635 3.968-.831 5.92-.912 2.265-.096 4.673-.369 6.437-1.793 1.375-1.107 2.099-3.135 1.59-4.727Zm4.842 10.383c-.05-.031-.1-.058-.151-.085-2.357-1.212-5.719-.912-7.325 1.362-.359.508-.624 1.112-.613 1.735.008.623.335 1.265.898 1.535.331.157.709.177 1.074.173a8.894 8.894 0 0 0 6.159-2.635c.381-.393.751-.927.574-1.447-.104-.28-.351-.48-.616-.638Zm-36.652-6.298c-.971-.577-2.697-.554-3.467-.4-2.55.508-4.857 2.135-6.197 4.362-.666 1.108-1.025 2.705-.066 3.574.886.804 2.296.446 3.378-.061a18.737 18.737 0 0 0 6.329-4.828c.3-.354.6-.739.689-1.197.139-.688-.162-1.15-.666-1.45Zm55.117-3.512c-.212-.4-.586-.765-.959-1.031-3.031-2.142-7.684-3.369-11.062-1.319-.936.569-1.803 1.485-1.776 2.581.039 1.412 1.499 2.335 2.847 2.758 3.416 1.074 7.291.585 10.334-1.3.254-.158.516-.334.658-.6.201-.35.147-.731-.042-1.089Zm13.099 11.129c-.416-1.669-3.086-2.308-4.773-2.297-2.865.02-5.754 1.32-7.522 3.597-.235.304-.458.639-.501 1.02-.065.608.343 1.165.805 1.565 1.152.997 2.731 1.416 4.256 1.37 1.526-.046 3.009-.516 4.411-1.12 1.174-.507 2.372-1.173 2.981-2.296.389-.719.47-1.327.343-1.839Zm20.528-3.005c-.061-.008-.119-.016-.181-.019-2.765-.289-6.778.665-8.72 2.8-.662.727-1.093 1.797-.701 2.697.405.915 1.495 1.308 2.489 1.438 2.811.366 5.773-.68 7.73-2.735.504-.527.955-1.138 1.109-1.854.154-.711-.05-1.539-.643-1.962-.312-.223-.697-.315-1.083-.365Zm-83.428 5.671c-.313-1.527-2.115-1.716-3.386-1.439a4.44 4.44 0 0 0-3.008 2.393c-.335.715-.073 1.535.724 1.777a4.94 4.94 0 0 0 1.009.2c.612.3 1.367.358 2.049.142 1.24-.392 2.916-1.581 2.611-3.073Z"/><path fill="#EECEC4" d="M164.7 278.828c-.998-4.274-2.292-8.517-5.123-11.964-2.65-3.227-6.267-5.612-10.01-7.409-17.113-8.209-35.974-6.562-51.674 3.032-4.167 2.543-9.151 7.867-11.593 12.148-1.706 2.997-2.939 8.479-2.77 7.894 13.901 6.913 29.862 9.629 45.588 9.606 6.652-.012 13.258-.516 19.655-1.397 5.392-.742 14.964-2.446 17.467-2.893a75.792 75.792 0 0 0-1.54-9.017Z"/><path fill="#659AA6" d="M86.204 269.311a173.424 173.424 0 0 0-3.055 11.552c-.173.758.998 1.081 1.171.323a171.075 171.075 0 0 1 3.055-11.552c.223-.75-.948-1.069-1.171-.323Z"/><path fill="#FF9663" d="M189.755 88.853c-2.82-3.412-5.624-6.085-9.649-8.032-4.113-1.993-8.338-3.716-12.81-4.72-8.609-1.935-17.614-1.504-26.018 1.158-.739.234-.423 1.404.324 1.17 8.196-2.597 16.97-3.044 25.374-1.159 4.252.954 8.258 2.566 12.183 4.44 4.067 1.938 6.902 4.57 9.741 8.005.496.596 1.348-.262.855-.862Zm-57.586-7.593a65.987 65.987 0 0 0-17.429 12.548c-.551.554.304 1.408.859.858a65.025 65.025 0 0 1 17.186-12.36c.693-.346.081-1.392-.616-1.046Z"/><path fill="#FF9663" d="M190.57 94.059c-9.282-6.332-20.817-8.648-31.837-6.455-.763.153-.439 1.32.324 1.17 10.707-2.132 21.892.184 30.901 6.331.647.442 1.256-.608.612-1.046Zm5.362 23.396c-.031-.777-1.244-.781-1.213 0 .339 8.129-4.487 15.134-10.966 19.638-3.181 2.212-6.887 4.424-10.834 4.64-3.968.215-8.459-.2-12.118-1.805-.708-.311-1.325.735-.612 1.047 3.871 1.696 8.527 2.177 12.73 1.969 4.175-.207 8.084-2.465 11.447-4.804 6.821-4.743 11.92-12.122 11.566-20.685Z"/><path fill="#659AA6" d="M38.972 173.428a112.925 112.925 0 0 0-8.054 22.681c-.181.758.99 1.081 1.17.323a111.481 111.481 0 0 1 7.931-22.392c.335-.7-.712-1.316-1.047-.612Zm32.565 116.794c-1.976.058-3.197 2.812-3.863 4.305-.905 2.038-1.687 4.835-1.248 7.089.32 1.639 1.795 2.809 3.39 1.824 2.36-1.458 2.403-5.332 2.233-7.721-.053-.773-1.267-.777-1.213 0 .081 1.143.085 2.278-.104 3.412-.115.681-.481 2.901-1.298 3.082-.624-.397-1.248-.789-1.872-1.185l-.011-.504c-.073-.381.038-.916.08-1.3.112-1.02.347-2.043.679-3.016.33-.977.77-1.924 1.305-2.805.208-.338.593-1.184.932-1.346.698.054 1.395.104 2.088.158l.358.808c.555 1.708.424 3.854.2 5.608-.431 3.397-1.983 7.529-5.172 9.26-1.26.684-2.427.915-3.37-.235-.886-1.077-.794-2.324-.79-3.681.008-2.362.331-4.686.882-6.979.181-.758-.986-1.081-1.17-.323-.74 3.078-1.16 6.336-.848 9.502.173 1.75.924 3.285 2.838 3.504 4.603.527 7.646-5.351 8.5-9.017.544-2.3 1.653-10.559-2.526-10.44Zm144.809 5.294c-1.283-1.72-2.85-1.5-4.191.05-1.764 2.043-2.311 4.966-2.65 7.559-.215 1.623.239 4.505 2.615 3.962 1.002-.231 1.356-1.258 1.718-2.096.748-1.728 1.256-3.386 1.075-5.274-.073-.77-1.287-.777-1.213 0 .131 1.358-.108 2.569-.57 3.827a17.99 17.99 0 0 1-.671 1.593c-.616-.285-1.232-.569-1.852-.858-.185-.296.158-1.393.219-1.781.308-1.912.701-4.789 2.261-6.124 2.677-2.293 3.705 2.916 3.729 4.804.027 2.27-.59 4.544-1.541 6.594-.836 1.804-1.957 3.908-3.736 4.935-1.56.901-3.47.735-4.46-.838-.617-.981-.663-2.135-.62-3.27.181-4.701 1.821-9.367 4.148-13.414.389-.677-.659-1.289-1.048-.612-1.594 2.766-2.815 5.717-3.547 8.829-.578 2.462-1.217 5.443-.509 7.94.605 2.131 2.438 3.408 4.669 3.097 2.257-.312 3.84-2.066 4.984-3.901 2.603-4.159 4.437-10.671 1.19-15.022Z"/></svg>