<svg width="335" height="362" viewBox="0 0 335 362" fill="none" xmlns="http://www.w3.org/2000/svg">
<circle cx="198" cy="127" r="127" fill="#FCD342"/>
<path d="M12.7538 240.516C12.6691 240.193 12.4072 240.07 12.1491 240.089C12.0836 239.631 11.5213 239.274 11.1515 239.72C9.16796 242.132 7.20364 244.559 5.26243 247.006C3.67942 249.002 1.59955 251.06 0.413255 253.33C-0.164486 254.434 -0.287737 255.846 1.04877 256.419C2.04634 256.846 3.15945 256.661 4.20709 257.108C5.05445 257.469 5.73618 257.662 6.65671 257.658C7.38852 257.654 7.80449 257.285 8.64414 257.473C9.19878 257.596 9.71104 258.042 10.1694 258.346C10.7587 258.739 11.3518 259.166 12.0682 259.293C13.3893 259.524 14.0287 258.846 14.2251 257.6C15.0917 252.057 14.1519 245.89 12.7538 240.516Z" fill="#252622"/>
<path d="M123.418 280.494C121.638 279.948 119.3 280.425 117.49 280.571C115.175 280.756 112.86 281.025 110.53 281.06C105.677 281.14 101.514 279.486 96.9264 278.201C92.7936 277.04 88.5183 276.87 84.2469 276.886C83.2532 276.893 82.2094 276.874 81.1772 276.92C81.1772 276.863 81.1772 276.809 81.1733 276.751C81.154 275.978 79.9408 275.97 79.9601 276.751L79.9678 277.016C78.196 277.224 76.5167 277.755 75.2226 279.109C74.6795 279.671 75.5384 280.529 76.0776 279.963C77.1099 278.886 78.5041 278.401 79.9947 278.19C80.1295 283.41 80.2605 288.626 80.3953 293.85C80.4646 296.585 80.5339 299.328 80.6071 302.063C80.7111 306.314 80.7496 310.58 81.285 314.8C81.7742 318.628 82.6947 322.375 83.465 326.152C84.3316 330.384 85.048 334.646 85.6104 338.928C86.088 342.567 86.1303 346.333 86.7967 349.938C87.2935 352.638 88.6839 354.042 91.4224 354.35C95.301 354.781 99.2181 354.981 103.116 355.035C103.297 355.039 103.482 355.039 103.667 355.042C106.128 355.069 108.601 355.046 111.066 354.942C112.568 354.881 114.07 354.789 115.564 354.662C115.815 354.642 116.069 354.623 116.319 354.596C117.44 354.492 118.503 354.412 119.2 353.431C119.736 352.677 119.99 351.63 120.171 350.611C120.279 349.991 120.363 349.388 120.467 348.861C121.688 342.579 126.961 308.257 129.122 292.131C129.696 287.861 130.05 284.864 130.054 284.006C130.069 281.975 126.006 281.29 123.418 280.494Z" fill="#659AA6"/>
<path d="M111.066 354.95C108.601 355.054 106.129 355.081 103.667 355.05C103.486 355.046 103.302 355.046 103.117 355.042C103.352 354.192 103.741 353.38 104.372 352.75C105.378 351.753 106.911 351.28 108.293 351.661C109.653 352.034 110.666 353.18 110.989 354.534C111.024 354.673 111.051 354.811 111.066 354.95Z" fill="white"/>
<path d="M120.17 350.614C119.989 351.633 119.735 352.679 119.2 353.433C118.499 354.414 117.44 354.495 116.319 354.599C116.069 354.622 115.814 354.645 115.564 354.664C116.184 353.272 117.112 351.933 118.26 351.214C118.861 350.841 119.52 350.648 120.17 350.614Z" fill="white"/>
<path d="M258.004 344.355C257.977 345.171 257.996 345.94 258.008 346.655C258.043 349.356 257.942 351.318 254.638 352.264C254.58 352.28 254.522 352.295 254.464 352.314C253.598 352.553 252.716 352.718 251.826 352.853C249.916 353.134 247.971 353.249 246.072 353.545C245.675 353.607 245.278 353.664 244.878 353.726C243.641 353.903 242.401 354.065 241.153 354.192C238.53 354.457 235.892 354.576 233.265 354.438C233.207 354.434 233.154 354.434 233.092 354.43C230.642 354.311 226.837 354.28 225.292 352.276C224.522 351.264 224.314 349.898 223.979 348.729C223.463 346.921 222.943 345.113 222.431 343.305C220.774 337.508 219.423 331.722 217.855 325.921V325.917C217.682 325.275 217.504 324.632 217.327 323.994C215.609 317.873 215.69 311.676 215.332 305.34C214.974 298.947 215.725 292.557 216.692 286.237C217.608 280.236 218.252 273.942 220.917 268.341C223.471 262.971 227.534 258.405 231.205 253.673C234.968 248.826 238.438 243.779 241.6 238.574C247.851 228.268 257.345 188.365 257.372 189.369C257.392 190.073 258.497 226.133 258.643 232.431C258.932 244.644 259.102 256.858 259.156 269.076C259.229 285.81 259.079 302.544 258.717 319.274C258.532 327.629 258.293 335.992 258.004 344.355Z" fill="#659AA6"/>
<path d="M241.15 354.192C238.527 354.458 235.888 354.577 233.262 354.438C233.204 354.434 233.15 354.434 233.088 354.431C233.127 353.696 233.296 352.946 233.67 352.303C234.537 350.822 236.208 350.034 237.895 350.441C239.432 350.814 240.611 352.049 241.023 353.557C241.084 353.757 241.123 353.973 241.15 354.192Z" fill="white"/>
<path d="M251.822 352.849C249.912 353.13 247.967 353.245 246.068 353.542C245.671 353.603 245.275 353.661 244.874 353.722C245.194 351.684 246.569 349.675 248.826 349.975C250.382 350.191 251.31 351.422 251.822 352.849Z" fill="white"/>
<path d="M254.639 352.264C254.581 352.28 254.523 352.295 254.465 352.315C254.731 350.226 255.27 347.729 257.127 346.925C257.423 346.794 257.716 346.706 258.009 346.656C258.044 349.356 257.943 351.318 254.639 352.264Z" fill="white"/>
<path d="M218.815 71.993C218.425 72.1546 218.037 72.3161 217.651 72.4738C207.66 59.1252 193.067 49.4888 176.674 46.0805C167.761 44.2263 158.803 44.4187 149.875 46.0613C141.081 47.6808 132.292 49.8543 124.061 53.3895C120.117 55.086 116.073 57.0479 112.668 59.6907C110.01 61.7565 107.75 64.734 107.981 68.2731C108.081 69.808 108.697 71.1274 109.668 72.3046C110.222 72.9816 110.865 73.5779 111.42 74.2549C112.318 75.3513 112.63 76.5361 113.046 77.8633C114.17 81.4409 117.036 82.5872 120.541 83.1373C129.95 84.6145 139.614 82.9104 149.085 83.1643C158.822 83.422 168.528 84.7569 177.972 87.1304C183.079 88.4152 187.99 90.1771 192.993 91.7966C196.922 93.07 201.255 93.9047 205.141 92.0428C208.388 90.4926 210.314 87.5959 210.079 83.9798C209.913 81.4063 208.835 78.2249 211.446 76.4938C213.7 75.0012 216.646 74.1895 219.134 73.1547C219.847 72.8662 219.535 71.6929 218.815 71.993Z" fill="#659AA6"/>
<path d="M257.369 189.362C257.3 197.871 256.703 206.188 255.513 214.351C252.836 232.697 247.163 250.243 237.757 267.365C235.847 270.839 233.859 274.274 231.829 277.686C230.189 280.448 226.711 284.222 225.975 287.307C225.039 291.235 224.122 295.17 223.256 299.113C221.38 307.595 219.654 316.112 218.083 324.653C218.01 325.049 217.933 325.472 217.856 325.91V325.914C216.558 333.162 214.439 346.103 211.924 353.673C211.628 354.57 211.323 355.393 211.015 356.12C210.599 357.105 209.136 357.797 207.248 358.305C206.32 358.555 205.288 358.759 204.225 358.928C201.294 359.397 198.128 359.609 196.244 359.821C196.029 359.84 195.836 359.867 195.659 359.89C194.338 360.067 192.732 360.121 191.025 360.067C188.337 359.986 185.391 359.651 182.887 359.151C180.345 358.64 178.253 357.955 177.341 357.197C174.964 355.212 173.89 343.606 173.05 339.109C171.344 330.007 170.057 321.021 169.545 311.773C169.033 302.414 166.857 287.734 166.857 287.734C166.857 287.734 166.637 287.773 166.248 287.842C163.748 288.288 154.173 289.992 148.781 290.735C142.383 291.616 135.778 292.12 129.126 292.131C113.396 292.154 97.439 289.438 83.5386 282.525C83.3691 283.11 83.1996 283.699 83.034 284.291C82.1289 287.469 81.2546 290.658 80.3995 293.855C78.6316 300.44 76.9446 307.049 75.2191 313.643C71.6602 327.222 68.1013 340.794 64.5424 354.37C64.3922 354.95 64.2382 355.535 64.0841 356.116C64.0764 356.143 64.0687 356.166 64.0571 356.189C63.9724 356.531 63.8029 356.866 63.4255 357.189C62.4395 358.043 61.2878 358.732 60.0361 359.278C58.5648 359.921 56.9509 360.371 55.2832 360.671C52.7642 361.128 50.1259 361.24 47.6917 361.159C46.7018 361.132 45.7427 361.067 44.8376 360.982C44.3369 360.932 43.6821 360.809 42.9234 360.625C40.9398 360.132 38.2437 359.205 35.7401 358.109C32.3006 356.612 29.2155 354.8 28.788 353.354C27.9368 350.453 29.6392 325.607 30.5867 311.758C30.3787 308.807 30.4365 305.822 30.3671 302.883C30.2824 299.379 30.1977 295.882 30.1129 292.377C30.0667 292.297 30.0359 292.197 30.0359 292.077C29.8125 267.761 29.2309 243.511 29.2309 219.195C29.227 194.913 35.4744 172.274 56.3963 157.849C77.896 143.023 104.403 141.765 129.75 143.904C129.823 143.827 129.924 143.769 130.062 143.746C147.387 140.815 165.066 141.276 182.483 139.091C197.858 137.168 213.203 134.133 228.76 134.175C234.51 134.19 240.584 134.779 245.734 137.545C250.895 140.322 253.945 145.204 255.251 150.813C255.32 151.12 255.386 151.424 255.447 151.732C255.467 150.082 255.501 148.431 255.559 146.781C255.586 146 256.799 146 256.772 146.781C256.36 158.226 256.934 169.666 257.281 181.103C257.362 183.88 257.389 186.631 257.369 189.362Z" fill="#BAD2D6"/>
<path d="M60.2129 155.389C53.2762 158.755 45.7887 164.256 43.2389 167.026C39.2178 171.403 36.0326 175.319 33.2016 180.613C30.3091 186.025 27.7632 191.153 25.4907 196.847C23.1374 202.744 20.9766 208.718 19.0123 214.754C17.0364 220.828 15.2647 226.964 13.6855 233.149C12.6918 235.427 11.8175 237.916 10.8276 240.105C11.182 239.978 11.6865 239.958 12.0756 240.166C12.4106 240.343 12.8921 241.055 12.8921 241.055C12.8921 241.055 17.5179 233.588 18.9622 229.603C21.0498 223.848 22.7253 217.985 25.171 212.357C27.6129 206.737 30.5248 201.32 33.8448 196.173C35.5858 193.477 37.4422 190.849 39.4104 188.314C41.1706 186.045 43.1888 183.956 44.8913 181.644C47.0058 178.778 46.4743 175.708 46.9942 172.388C47.5412 168.88 49.4631 165.845 52.2286 163.656C52.6445 163.325 52.3788 162.829 51.9744 162.694C54.0465 161.398 56.2034 160.29 58.4296 159.478C59.1576 159.216 60.9139 155.046 60.2129 155.389Z" fill="#BAD2D6"/>
<path d="M334.502 54.9557C335.064 44.3884 332.741 33.7057 327.268 24.4847C313.938 2.04212 285.078 -6.62488 261.113 5.47352C249.913 11.1284 241.073 20.5378 234.957 31.3745C233.197 34.4904 231.656 37.7256 230.304 41.0378C228.871 44.5423 228.02 48.4007 226.275 51.7551C225.416 53.4016 224.157 54.948 222.439 55.7443C220.818 56.4945 218.965 55.7944 217.413 56.5907C216.7 56.9561 216.122 57.6485 216.126 58.4756C216.13 59.5143 217.359 60.1028 217.37 61.0492C217.393 63.0188 216.519 61.9686 215.156 62.6841C214.462 63.0457 214.174 63.8382 214.424 64.5691C214.751 65.5115 215.749 66.0963 216.55 66.5848C216.804 66.7387 217.062 66.8887 217.324 67.0272C211.805 68.0736 206.478 69.9201 201.671 72.8898C192.4 67.0811 181.292 63.9266 170.639 61.7493C153.399 58.2294 131.121 59.9605 116.724 70.9087C109.976 76.0404 104.599 82.934 101.202 90.6931C99.5419 94.4823 98.3479 98.4638 97.7009 102.549C97.385 104.542 97.0923 106.623 97.5237 108.616C97.9782 110.716 99.2993 112.328 100.74 113.855C108.551 122.141 116.551 130.254 124.454 138.448C131.121 145.361 137.704 152.093 146.897 155.505C155.101 158.552 164.103 159.006 172.699 157.655C186.843 155.432 199.819 148.204 209.902 138.117C211.185 139.706 212.856 140.956 214.613 142.072C217.763 144.072 221.053 145.899 224.419 147.515C230.87 150.612 237.815 152.839 245.025 152.951C251.553 153.051 258.082 151.524 263.929 148.635C266.852 147.192 269.594 145.392 272.082 143.291C274.944 140.875 277.267 137.952 279.909 135.313C283.16 132.062 286.083 128.465 288.475 124.446C290.247 121.472 291.271 119.21 290.836 115.879C290.744 115.182 290.701 114.363 290.478 113.644C305.002 108.089 317.22 95.9903 325.45 83.2187C330.877 74.794 333.97 64.9268 334.502 54.9557ZM233.797 65.9886C234.14 65.7577 234.479 65.5154 234.807 65.2576C238.681 62.1994 241.169 57.7909 243.107 53.3362C245.406 48.0506 247.263 42.6419 250.332 37.7218C253.425 32.7632 257.385 28.0161 262.141 24.5655C271.855 17.5219 285.471 18.172 294.356 26.2812C296.282 28.0392 298 30.0935 299.132 32.4554C300.7 35.7291 300.573 39.3259 299.922 42.815C298.944 48.0583 296.702 52.9862 293.694 57.3754C287.223 66.8118 284.153 70.2586 270.08 71.3088C256.01 72.359 247.032 66.8118 235.615 66.0886C235.011 66.0463 234.406 66.0155 233.797 65.9886Z" fill="#BAD2D6"/>
<path d="M248.252 95.0899C247.197 93.605 244.866 92.7818 243.102 92.8395C241.019 92.9049 239 94.1359 238.088 95.0515C236.751 96.394 240.841 95.2361 241.231 95.1899C242.733 95.0053 244.246 95.1861 245.725 95.4669C246.122 95.5362 249.142 96.3402 248.252 95.0899Z" fill="#252622"/>
<path d="M288.19 113.309C285.058 114.155 281.827 114.374 278.618 113.824C275.714 113.328 271.751 112.289 269.975 109.754C269.532 109.119 268.481 109.723 268.928 110.366C270.8 113.047 274.547 114.236 277.617 114.863C281.245 115.605 284.943 115.44 288.509 114.474C289.264 114.27 288.944 113.105 288.19 113.309Z" fill="#659AA6"/>
<path d="M191.022 360.066C188.333 359.985 185.387 359.65 182.883 359.15C183.188 357.981 183.527 356.788 184.374 355.9C185.537 354.673 187.521 354.315 189 355.177C190.656 356.146 191.056 358.1 191.022 360.066Z" fill="white"/>
<path d="M204.224 358.928C201.293 359.397 198.127 359.609 196.244 359.821C196.617 357.616 198.462 355.604 200.812 355.731C202.66 355.839 203.966 357.17 204.224 358.928Z" fill="white"/>
<path d="M211.924 353.677C211.627 354.573 211.323 355.397 211.015 356.124C210.599 357.108 209.135 357.801 207.248 358.309C207.379 356.601 208.08 354.8 209.571 353.981C210.314 353.569 211.154 353.485 211.924 353.677Z" fill="white"/>
<path d="M64.5386 354.37C64.3884 354.951 64.2343 355.535 64.0803 356.116C64.0726 356.143 64.0649 356.166 64.0533 356.189C63.9686 356.532 63.7991 356.866 63.4216 357.189C62.4356 358.043 61.284 358.732 60.0322 359.278C60.375 357.474 61.3225 355.701 62.971 354.839C63.4717 354.577 64.0032 354.416 64.5386 354.37Z" fill="white"/>
<path d="M55.2795 360.675C52.7606 361.132 50.1222 361.244 47.688 361.163C48.1502 359.224 49.3211 357.539 51.5781 357.543C53.373 357.543 54.8173 358.886 55.2564 360.571C55.2641 360.605 55.2718 360.636 55.2795 360.675Z" fill="white"/>
<path d="M42.9152 360.624C40.9316 360.131 38.2355 359.204 35.7319 358.108C36.4098 356.854 37.4806 355.942 39.129 355.965C40.9046 355.992 42.3336 357.339 42.7149 359.024C42.8266 359.543 42.8882 360.085 42.9152 360.624Z" fill="white"/>
<path d="M198.297 113.632C196.437 108.673 193.394 104.003 193.144 98.5788C192.943 94.2895 193.906 84.4185 193.906 84.4185C193.906 84.4185 177.437 71.9046 163.513 69.6042C151.619 67.6385 139.044 68.8541 128.437 74.6974C118.365 80.2485 106.802 91.8853 109.853 104.599C111.297 110.619 117.471 113.951 121.951 117.536C127.173 121.718 130.37 127.946 134.934 132.774C139.606 137.713 145.164 141.537 151.558 143.941C161.872 147.819 174.163 148.857 184.397 144.153C191.865 140.721 197.727 134.147 199.391 125.999C200.242 121.795 199.799 117.636 198.297 113.632Z" fill="#FFCFB8"/>
<path d="M230.496 66.9581C226.779 68.9469 222.712 68.4007 218.772 67.4736C218.013 67.2966 217.689 68.4622 218.448 68.643C222.719 69.6471 227.099 70.151 231.108 68.0044C231.798 67.6351 231.185 66.5927 230.496 66.9581Z" fill="#659AA6"/>
<path d="M221.622 61.9115C221.337 61.4383 220.702 61.219 220.224 61.0113C219.593 60.7382 218.945 60.5151 218.283 60.3381C217.528 60.1381 217.205 61.3075 217.959 61.5076C218.622 61.6845 219.277 61.8999 219.901 62.1846C219.989 62.2231 220.563 62.4462 220.571 62.5193C220.59 62.7539 219.962 62.8501 219.82 62.8847C219.061 63.0655 219.381 64.235 220.143 64.0542C221.056 63.8349 222.285 63.0155 221.622 61.9115Z" fill="#659AA6"/>
<path d="M241.127 53.7985C238.527 52.2444 235.546 51.3481 233.146 49.4592C232.542 48.9822 231.675 49.8324 232.288 50.3171C234.78 52.2828 237.811 53.233 240.511 54.8487C241.185 55.2449 241.797 54.1986 241.127 53.7985Z" fill="#659AA6"/>
<path d="M242.529 49.4392C240.908 48.6929 239.46 47.7042 238.189 46.4501C237.63 45.9039 236.775 46.7579 237.33 47.308C238.67 48.6275 240.207 49.6969 241.917 50.4855C242.618 50.8086 243.234 49.7661 242.529 49.4392Z" fill="#659AA6"/>
<path d="M284.832 82.3097C282.809 78.6129 280.622 75.0122 278.276 71.5077C277.845 70.8614 276.793 71.4692 277.228 72.1194C279.574 75.6239 281.762 79.2207 283.784 82.9213C284.161 83.6022 285.209 82.9944 284.832 82.3097Z" fill="#659AA6"/>
<path d="M287.596 78.3563C286.533 75.8558 285.062 73.6016 283.217 71.6051C282.685 71.0319 281.83 71.8897 282.358 72.4629C284.134 74.3863 285.524 76.5637 286.549 78.9718C286.853 79.6835 287.897 79.068 287.596 78.3563Z" fill="#659AA6"/>
<path d="M302.803 61.4263C300.415 59.9914 297.611 60.0337 294.976 59.3682C294.221 59.1759 293.898 60.3453 294.653 60.5377C297.172 61.1762 299.906 61.1031 302.19 62.4765C302.861 62.8765 303.469 61.8302 302.803 61.4263Z" fill="#659AA6"/>
<path d="M301.705 55.4475C300.161 55.4552 298.632 55.5899 297.106 55.8361C296.34 55.963 296.664 57.1286 297.43 57.0055C298.847 56.7747 300.269 56.6631 301.705 56.6593C302.483 56.6554 302.487 55.4437 301.705 55.4475Z" fill="#659AA6"/>
<path d="M307.217 37.1758C305.349 37.7336 303.566 38.4876 301.863 39.4339C301.182 39.8147 301.794 40.8611 302.476 40.4803C304.09 39.5839 305.769 38.8723 307.541 38.3453C308.284 38.1183 307.968 36.9488 307.217 37.1758Z" fill="#659AA6"/>
<path d="M305.789 29.5508C304.256 30.1663 302.823 30.9433 301.49 31.9166C300.866 32.3705 301.471 33.4246 302.103 32.9629C303.347 32.0512 304.679 31.2934 306.112 30.7202C306.825 30.4317 306.513 29.2623 305.789 29.5508Z" fill="#659AA6"/>
<path d="M292.773 15.5985C292.472 18.1067 291.96 20.5648 291.251 22.9884C291.032 23.7385 292.203 24.0578 292.422 23.3115C293.162 20.7803 293.678 18.2183 293.99 15.5985C294.079 14.8292 292.865 14.833 292.773 15.5985Z" fill="#659AA6"/>
<path d="M289.137 17.3717C288.867 18.2681 288.598 19.1682 288.324 20.0645C288.101 20.8108 289.268 21.1301 289.495 20.3877C289.765 19.4914 290.034 18.5912 290.308 17.6949C290.531 16.9447 289.36 16.6254 289.137 17.3717Z" fill="#659AA6"/>
<path d="M265.75 18.5302C264.822 16.5683 263.805 14.6564 262.703 12.7907C262.306 12.1213 261.259 12.7291 261.656 13.4023C262.761 15.2681 263.774 17.1838 264.702 19.1418C265.033 19.8458 266.081 19.2342 265.75 18.5302Z" fill="#659AA6"/>
<path d="M262.253 21.5076C261.556 19.7418 260.624 18.1377 259.426 16.6644C258.937 16.0566 258.082 16.9183 258.567 17.5222C259.622 18.8263 260.466 20.2727 261.082 21.8307C261.367 22.5462 262.538 22.2346 262.253 21.5076Z" fill="#659AA6"/>
<path d="M243.619 81.7381C243.299 81.4765 242.845 81.2995 242.363 81.2803C238.67 81.1533 234.206 83.5076 232.969 87.0967C232.804 87.5738 233.297 87.9123 233.717 87.843C234.703 87.6738 235.354 87.0814 236.155 86.5197C237.368 85.6734 238.681 84.9617 240.068 84.4424C241.096 84.0577 242.471 84.1193 243.419 83.4961C244.308 82.9113 244.17 82.192 243.619 81.7381Z" fill="#659AA6"/>
<path d="M200.023 91.6972C195.991 85.3076 190.336 80.1797 183.569 76.806C182.872 76.4598 182.26 77.5023 182.957 77.8524C189.547 81.1376 195.047 86.0885 198.976 92.3089C199.392 92.9667 200.443 92.3589 200.023 91.6972Z" fill="#659AA6"/>
<path d="M213.495 140.74C211.319 139.063 208.515 139.413 206.231 140.702C203.123 142.456 200.561 145.284 197.68 147.38C191.379 151.958 184.342 155.351 176.639 156.743C160.863 159.598 144.956 154.401 132.157 145.23C131.521 144.776 130.917 145.826 131.544 146.276C143.581 154.905 158.302 160.044 173.227 158.448C180.479 157.671 187.366 155.289 193.609 151.535C196.667 149.7 199.548 147.584 202.295 145.311C205.103 142.983 209.077 138.859 212.879 141.791C213.499 142.264 214.104 141.21 213.495 140.74Z" fill="#659AA6"/>
<path d="M251.985 152.555C244.725 153.216 237.511 151.939 230.944 148.773C230.243 148.435 229.631 149.481 230.332 149.82C237.087 153.078 244.51 154.451 251.985 153.767C252.756 153.693 252.763 152.482 251.985 152.555Z" fill="#659AA6"/>
<path d="M101.144 153.497C100.998 153.043 100.752 152.623 100.393 152.269C99.4806 151.381 98.121 151.142 96.85 151.065C91.2844 150.723 83.8469 152.766 80.1301 157.217C78.6511 158.986 79.7334 161.725 81.9173 162.433C83.8161 163.045 85.5108 161.506 87.1978 160.929C89.0581 160.294 91.165 160.098 93.1177 160.017C95.3825 159.921 97.7897 159.648 99.5538 158.224C100.929 157.117 101.653 155.089 101.144 153.497Z" fill="#659AA6"/>
<path d="M105.986 163.88C105.936 163.849 105.886 163.822 105.835 163.795C103.478 162.583 100.116 162.883 98.5097 165.157C98.1515 165.665 97.8858 166.269 97.8973 166.892C97.905 167.515 98.2324 168.157 98.7948 168.427C99.126 168.584 99.5035 168.604 99.8694 168.6C102.161 168.569 104.426 167.6 106.028 165.965C106.409 165.572 106.779 165.038 106.602 164.518C106.498 164.238 106.251 164.038 105.986 163.88Z" fill="#659AA6"/>
<path d="M69.3336 157.582C68.363 157.005 66.6375 157.028 65.8672 157.182C63.3174 157.69 61.0103 159.317 59.6699 161.544C59.0036 162.652 58.6454 164.249 59.6044 165.118C60.4903 165.922 61.9 165.564 62.9823 165.057C65.405 163.926 67.5773 162.268 69.3105 160.229C69.6109 159.875 69.9114 159.49 69.9999 159.032C70.1386 158.344 69.8382 157.882 69.3336 157.582Z" fill="#659AA6"/>
<path d="M124.451 154.07C124.239 153.67 123.865 153.305 123.492 153.039C120.461 150.897 115.808 149.67 112.43 151.72C111.494 152.289 110.627 153.205 110.654 154.301C110.693 155.713 112.153 156.636 113.501 157.059C116.917 158.133 120.792 157.644 123.835 155.759C124.089 155.601 124.351 155.425 124.493 155.159C124.694 154.809 124.64 154.428 124.451 154.07Z" fill="#659AA6"/>
<path d="M137.55 165.199C137.134 163.53 134.464 162.891 132.777 162.902C129.912 162.922 127.023 164.222 125.255 166.499C125.02 166.803 124.797 167.138 124.754 167.519C124.689 168.127 125.097 168.684 125.559 169.084C126.711 170.081 128.29 170.5 129.815 170.454C131.341 170.408 132.824 169.938 134.226 169.334C135.4 168.827 136.598 168.161 137.207 167.038C137.596 166.319 137.677 165.711 137.55 165.199Z" fill="#659AA6"/>
<path d="M158.078 162.194C158.017 162.186 157.959 162.178 157.897 162.175C155.132 161.886 151.119 162.84 149.177 164.975C148.515 165.702 148.084 166.772 148.476 167.672C148.881 168.587 149.971 168.98 150.965 169.11C153.776 169.476 156.738 168.43 158.695 166.375C159.199 165.848 159.65 165.237 159.804 164.521C159.958 163.81 159.754 162.982 159.161 162.559C158.849 162.336 158.464 162.244 158.078 162.194Z" fill="#659AA6"/>
<path d="M74.6494 167.865C74.3374 166.338 72.5349 166.149 71.2639 166.426C69.9736 166.707 68.8181 167.626 68.2557 168.819C67.9206 169.534 68.1826 170.354 68.9798 170.596C69.3149 170.7 69.6539 170.765 69.989 170.796C70.6014 171.096 71.3563 171.154 72.038 170.938C73.2783 170.546 74.9537 169.357 74.6494 167.865Z" fill="#659AA6"/>
<path d="M164.7 278.828C163.702 274.554 162.408 270.311 159.577 266.864C156.927 263.637 153.31 261.252 149.567 259.455C132.454 251.246 113.593 252.893 97.8934 262.487C93.7259 265.03 88.7419 270.354 86.3 274.635C84.5937 277.632 83.3612 283.114 83.5307 282.529C97.4312 289.442 113.392 292.158 129.118 292.135C135.77 292.123 142.376 291.619 148.773 290.738C154.165 289.996 163.737 288.292 166.24 287.845C165.909 284.818 165.397 281.81 164.7 278.828Z" fill="#EECEC4"/>
<path d="M86.2036 269.311C85.052 273.127 84.0352 276.978 83.1493 280.863C82.976 281.621 84.1469 281.944 84.3202 281.186C85.2022 277.301 86.2229 273.45 87.3745 269.634C87.5979 268.884 86.427 268.565 86.2036 269.311Z" fill="#659AA6"/>
<path d="M189.755 88.8532C186.935 85.441 184.131 82.7675 180.106 80.821C175.993 78.8283 171.768 77.1049 167.296 76.1009C158.687 74.1659 149.682 74.5967 141.278 77.2588C140.539 77.4934 140.855 78.6629 141.602 78.4282C149.798 75.8316 158.572 75.3853 166.976 77.2703C171.228 78.2243 175.234 79.8362 179.159 81.7096C183.226 83.6484 186.061 86.2797 188.9 89.7149C189.396 90.3112 190.248 89.4533 189.755 88.8532Z" fill="#FF9663"/>
<path d="M132.169 81.2599C125.698 84.4721 119.836 88.6959 114.74 93.8084C114.189 94.3624 115.044 95.2164 115.599 94.6663C120.629 89.6231 126.399 85.4761 132.785 82.3063C133.478 81.9601 132.866 80.9137 132.169 81.2599Z" fill="#FF9663"/>
<path d="M190.57 94.0587C181.288 87.7268 169.753 85.411 158.733 87.6037C157.97 87.7575 158.294 88.9231 159.057 88.7731C169.764 86.6419 180.949 88.9578 189.958 95.1051C190.605 95.5474 191.214 94.4972 190.57 94.0587Z" fill="#FF9663"/>
<path d="M195.932 117.455C195.901 116.678 194.688 116.674 194.719 117.455C195.058 125.584 190.232 132.589 183.753 137.093C180.572 139.305 176.866 141.517 172.919 141.733C168.951 141.948 164.46 141.533 160.801 139.928C160.093 139.617 159.476 140.663 160.189 140.975C164.06 142.671 168.716 143.152 172.919 142.944C177.094 142.737 181.003 140.479 184.366 138.14C191.187 133.397 196.286 126.018 195.932 117.455Z" fill="#FF9663"/>
<path d="M38.9716 173.428C35.4859 180.691 32.7859 188.277 30.9179 196.109C30.7369 196.867 31.9077 197.19 32.0888 196.432C33.9337 188.696 36.5797 181.21 40.0192 174.04C40.3543 173.34 39.3067 172.724 38.9716 173.428Z" fill="#659AA6"/>
<path d="M71.5372 290.222C69.5614 290.28 68.3404 293.034 67.6741 294.527C66.7689 296.565 65.9871 299.362 66.4261 301.616C66.7458 303.255 68.221 304.425 69.8156 303.44C72.1766 301.982 72.219 298.108 72.0495 295.719C71.9956 294.946 70.7823 294.942 70.8362 295.719C70.9171 296.862 70.921 297.997 70.7322 299.131C70.6167 299.812 70.2508 302.032 69.4343 302.213C68.8103 301.816 68.1863 301.424 67.5624 301.028C67.5585 300.859 67.5547 300.693 67.5508 300.524C67.4776 300.143 67.5893 299.608 67.6317 299.224C67.7434 298.204 67.9783 297.181 68.3096 296.208C68.6408 295.231 69.0799 294.284 69.6153 293.403C69.8233 293.065 70.2084 292.219 70.5474 292.057C71.2445 292.111 71.9417 292.161 72.6349 292.215C72.7543 292.484 72.8737 292.753 72.9931 293.023C73.5478 294.731 73.4168 296.877 73.1934 298.631C72.762 302.028 71.2098 306.16 68.0207 307.891C66.7612 308.575 65.5942 308.806 64.6506 307.656C63.7647 306.579 63.8571 305.332 63.861 303.975C63.8687 301.613 64.1922 299.289 64.743 296.996C64.924 296.238 63.757 295.915 63.5721 296.673C62.8326 299.751 62.4128 303.009 62.7248 306.175C62.8981 307.925 63.6491 309.46 65.5634 309.679C70.1661 310.206 73.2088 304.328 74.0639 300.662C74.607 298.362 75.7162 290.103 71.5372 290.222Z" fill="#659AA6"/>
<path d="M216.346 295.516C215.063 293.796 213.496 294.016 212.155 295.566C210.391 297.609 209.844 300.532 209.505 303.125C209.29 304.748 209.744 307.63 212.12 307.087C213.122 306.856 213.476 305.829 213.838 304.991C214.586 303.263 215.094 301.605 214.913 299.717C214.84 298.947 213.626 298.94 213.7 299.717C213.831 301.075 213.592 302.286 213.13 303.544C212.933 304.087 212.706 304.618 212.459 305.137C211.843 304.852 211.227 304.568 210.607 304.279C210.422 303.983 210.765 302.886 210.826 302.498C211.134 300.586 211.527 297.709 213.087 296.374C215.764 294.081 216.792 299.29 216.816 301.178C216.843 303.448 216.226 305.722 215.275 307.772C214.439 309.576 213.318 311.68 211.539 312.707C209.979 313.608 208.069 313.442 207.079 311.869C206.462 310.888 206.416 309.734 206.459 308.599C206.64 303.898 208.28 299.232 210.607 295.185C210.996 294.508 209.948 293.896 209.559 294.573C207.965 297.339 206.744 300.29 206.012 303.402C205.434 305.864 204.795 308.845 205.503 311.342C206.108 313.473 207.941 314.75 210.172 314.439C212.429 314.127 214.012 312.373 215.156 310.538C217.759 306.379 219.593 299.867 216.346 295.516Z" fill="#659AA6"/>
</svg>
