<svg xmlns="http://www.w3.org/2000/svg" width="335" height="362" fill="none" viewBox="0 0 335 362"><circle cx="166.916" cy="160.916" r="85.915" fill="#ED93ED"/><path fill="#71A6AB" d="M184.147 233.148c-.026-.352-.262-.689-.72-.693-1.625-.007-3.073.993-4.288 1.979-1.411 1.146-2.99 2.461-3.812 4.121-.488.982-.859 2.458-.056 3.38.247.281.593.491.979.517.263.019.567-.187.803-.172.075.004.12.004.146-.004.019.038.075.101.21.21.773.633 1.216.944 2.229.315 1.557-.974 2.521-2.878 3.755-4.197.882-.94 2.608-1.701 2.821-3.106.21-1.375-.911-2.009-2.067-2.35ZM194.03 235.145c-.026-.352-.263-.689-.72-.693-1.625-.007-3.073.993-4.289 1.979-1.41 1.146-2.99 2.461-3.811 4.121-.488.982-.863 2.459-.057 3.38.248.281.593.491.98.517.262.019.566-.187.802-.172.075.004.12.004.147-.004.018.038.075.101.21.21.769.633 1.215.944 2.228.315 1.557-.974 2.521-2.874 3.756-4.197.881-.94 2.607-1.701 2.821-3.106.21-1.372-.915-2.009-2.067-2.35Z"/><path fill="#343630" d="M220.31 252.851a431.89 431.89 0 0 0-1.051-11.424 761.626 761.626 0 0 0-.622-5.887c-.124-1.113-.15-2.256-1.01-3.08-.87-.832-2.371-1.173-3.466-1.533a37.096 37.096 0 0 0-5.354-1.319c-3.481-.588-7-.678-10.512-.318-.953.097-.961 1.596 0 1.499.225-.023.45-.042.671-.06a.703.703 0 0 0-.281.565c-.259 10.372-.863 20.8-.664 31.172.09 4.658.533 9.394 2.011 13.838.424 1.274.975 2.957 2.469 3.305.427.101.829.075 1.185-.048.42 2.375 1.471 4.728 3.718 5.853 2.011 1.008 4.393.708 5.947-.817 1.624.832 3.624.397 5.004-.821 2.139-1.885 2.281-5.032 2.424-7.67.416-7.745.124-15.521-.469-23.255Z"/><path fill="#615C58" d="M203.123 252.399c-.026-.48-.776-.484-.75 0l1.268 22.981c.026.479.777.483.75 0l-1.268-22.981ZM209.025 242.405c-.019-.48-.769-.484-.75 0 .334 9.135.889 18.255 1.665 27.361.042.476.792.479.751 0a554.6 554.6 0 0 1-1.666-27.361ZM210.923 275.776c-.067-.476-.788-.274-.724.198l.717 5.126c.067.476.788.274.724-.198l-.717-5.126ZM215.83 249.506c-.048-.476-.802-.48-.75 0 .889 8.389 1.872 16.771 2.957 25.139.06.472.81.476.75 0a1108.847 1108.847 0 0 1-2.957-25.139Z"/><path fill="#F29C2C" d="M170.289 183.106s-1.22.375-6.097 1.218c-.334.056-.717.113-1.144.161-5.774.708-19.37.881-26.619 1.057-6.025.142-10.137.067-11.69.022-.15-.003-.274-.007-.375-.011l-.315-.011s1.275-7.371 7.473-12.868c.927-.82 1.966-1.6 3.125-2.308 7.32-4.462 23.715-5.999 29.331-6.403 1.219-.09 1.932-.124 1.932-.124l.807 3.556 1.729 7.599.556 2.443 1.287 5.669Z"/><path fill="#EB7A17" d="M168.446 174.993c-8.79 4.358-19.512 2.863-29.016 4.598-4.625.843-9.277 2.207-13.288 4.725-.612.382-1.204.795-1.778 1.237 1.159.037 5.466.146 12.065-.012 7.785-.187 22.885-.374 27.763-1.217 4.877-.843 6.096-1.218 6.096-1.218l-1.842-8.113Z"/><path fill="#613D18" d="M130.126 182.252c-1.391 1.049-3.042 1.723-4.498 2.683-.304.198-.6.408-.889.629-.15-.004-.274-.007-.375-.011l-.315-.011s1.275-7.371 7.473-12.868c.334.382.604.843.807 1.312 1.279 2.926.326 6.355-2.203 8.266ZM170.289 183.106s-1.22.375-6.097 1.218c-.334.056-.717.113-1.144.161-.214-1.206.322-2.664.863-3.762.844-1.716 1.286-3.395.922-5.302-.277-1.461-.817-2.859-1.14-4.305-.544-2.421-.484-4.834.285-7.153 1.219-.09 1.932-.124 1.932-.124l.807 3.556a9.38 9.38 0 0 0 .165 2.514c.368 1.84 1.077 3.59 1.347 5.456.097.671.12 1.323.09 1.967.229-.004.461.03.683.105l1.287 5.669Z"/><path fill="#343630" d="M222.628 234.232a7.552 7.552 0 0 1-.172-.742c-.563-3.14-1.996-6.359-3.107-9.338-1.189-3.193-2.521-6.333-4.119-9.342-3.208-6.036-7.713-11.11-12.125-16.277-4.112-4.807-7.973-9.93-10.419-15.809-1.388-3.331-1.621-6.981-2.337-10.484-.593-2.908-1.752-7.326-4.765-8.877-8.291-4.268-19.674.476-19.674.476s.034.914.128 2.364c.247 3.68.919 10.796 2.551 15.127 1.594 4.227 2.149 8.345 1.879 12.849-.24 3.953-.761 7.891-.66 11.863l.011.379c.721 20.121 8.899 27.653 23.355 32.862 6.194 2.229 16.489 3.08 23.073 2.39 2.041-.213 5.346-.697 6.655-2.525 1.01-1.409.173-3.305-.274-4.916Z"/><path fill="#fff" d="M180.399 185.077c-1.279-3.357-2.225-6.793-2.945-10.312-.525-2.552-1.347-4.916-3.181-6.643a8.449 8.449 0 0 0-1.422-1.08c-1.985-1.202-4.66-1.72-6.814-.839.102 1.514.274 3.605.559 5.845.402 3.215 1.032 6.73 1.993 9.282 1.594 4.227 2.149 8.345 1.879 12.849-.24 3.953-.761 7.891-.66 11.863.48.18 1.002.311 1.557.39 6.558.922 10.992-5.733 11.371-11.575.225-3.436-1.14-6.636-2.337-9.78Z"/><path fill="#FFC445" d="M174.273 168.122c-.841 2.21-2.056 3.908-4.611 4.181-.781.083-2.371-.03-3.066-.255-.285-2.24-.457-4.331-.559-5.845 2.154-.881 4.829-.363 6.814.839a8.449 8.449 0 0 1 1.422 1.08Z"/><path fill="#252622" d="M171.245 167.766a1.84 1.84 0 0 0-.443-.607c-1.331-1.109-1.744 1.424-1.752 2.23-.003.449.06.922.319 1.289.255.371.747.607 1.171.457.318-.112.532-.409.679-.716a3.176 3.176 0 0 0 .026-2.653Z"/><path fill="#615C58" d="M209.063 233.044c-6.9-3.324-13.69-6.857-18.053-13.4-4.476-6.715-7.507-14.85-6.329-22.999.067-.473-.657-.675-.725-.199-1.178 8.161 1.67 16.225 6.052 23.037 4.483 6.966 11.401 10.705 18.676 14.213.431.202.814-.442.379-.652ZM214.772 232.156c-4.712-2.315-8.7-5.71-11.713-10.008-.274-.394-.926-.019-.649.378 3.088 4.403 7.151 7.903 11.983 10.279.432.209.815-.435.379-.649ZM215.163 228.904a8.843 8.843 0 0 1-3.467-2.256c-.334-.349-.863.18-.529.528a9.677 9.677 0 0 0 3.797 2.451c.458.161.653-.562.199-.723ZM216.919 238.881a16.294 16.294 0 0 1-7.233-4.227c-.342-.341-.875.188-.529.529a17.092 17.092 0 0 0 7.567 4.421c.461.131.66-.592.195-.723ZM208.316 239.227c-2.986 1.034-6.059 1.24-9.162.66-.473-.09-.544.659-.071.745 3.241.607 6.434.352 9.548-.727.458-.153.139-.835-.315-.678Z"/></svg>