<svg width="64" height="64" viewBox="0 0 64 64" fill="none" xmlns="http://www.w3.org/2000/svg">
<circle cx="32" cy="32" r="32" fill="#002007"/>
<path fill-rule="evenodd" clip-rule="evenodd" d="M38.3639 28.1923C39.1449 27.4112 39.1449 26.1449 38.3639 25.3639C37.5828 24.5828 36.3165 24.5828 35.5354 25.3639L31.9997 28.8996L28.4643 25.3642C27.6832 24.5831 26.4169 24.5831 25.6358 25.3642C24.8548 26.1452 24.8548 27.4115 25.6358 28.1926L29.1713 31.728L25.6359 35.2634C24.8549 36.0444 24.8549 37.3107 25.6359 38.0918C26.417 38.8728 27.6833 38.8728 28.4644 38.0918L31.9997 34.5565L35.5353 38.0921C36.3164 38.8731 37.5827 38.8731 38.3638 38.0921C39.1448 37.311 39.1448 36.0447 38.3638 35.2637L34.8281 31.728L38.3639 28.1923Z" fill="#005513"/>
</svg>
