<svg width="8" height="8" viewBox="0 0 8 8" fill="none" xmlns="http://www.w3.org/2000/svg">
<path d="M7.49403 4.0736C7.4884 5.6658 6.60231 7.20456 4.81038 7.69403C3.47135 8.06255 1.93821 7.73623 0.959258 6.71789C0.627315 6.36907 0.368532 5.95555 0.205373 5.50264C0.0394016 5.0413 -0.0196963 4.56026 0.00562135 4.08485C0.163154 1.34492 3.20973 -1.23467 5.78369 0.638835C6.74576 1.33929 7.30558 2.39138 7.45186 3.47442C7.47999 3.67415 7.49403 3.87387 7.49403 4.0736Z" fill="white"/>
<path d="M4.99354 3.87465C4.93707 3.0001 4.50787 2.15824 3.77375 2.02338C3.01139 1.88443 2.48618 2.39118 2.2603 2.8448C1.865 3.64579 1.68434 5.97111 3.5027 5.99972C4.59823 6.02015 5.0613 4.92492 4.99354 3.87465Z" fill="#252622"/>
</svg>
