<svg xmlns="http://www.w3.org/2000/svg" width="14" height="15" fill="none" viewBox="0 0 14 15"><path fill="#fff" d="M14 7.61c-.01 2.975-1.666 5.85-5.013 6.764-2.502.688-5.366.079-7.195-1.824a6.493 6.493 0 0 1-1.408-2.27A6.737 6.737 0 0 1 .01 7.63c.294-5.118 5.985-9.938 10.794-6.438 1.797 1.309 2.843 3.274 3.116 5.298.053.373.079.746.079 1.12Z"/><path fill="#AD5707" d="M12.352 7.77c-.163-1.894-1.402-3.716-3.521-4.008-2.2-.301-3.717.796-4.369 1.778-1.14 1.734-1.662 6.768 3.586 6.83 3.163.044 4.5-2.327 4.304-4.6Z"/></svg>