<svg width="14" height="15" viewBox="0 0 14 15" fill="none" xmlns="http://www.w3.org/2000/svg">
<path d="M14 7.61011C13.9895 10.5846 12.3341 13.4592 8.98653 14.3736C6.48502 15.0621 3.62087 14.4525 1.79204 12.5501C1.17192 11.8984 0.688474 11.1259 0.383669 10.2798C0.0736083 9.41792 -0.0367958 8.51927 0.0105015 7.63113C0.304796 2.51251 5.99626 -2.30656 10.8048 1.19344C12.6021 2.502 13.6479 4.46747 13.9212 6.49074C13.9738 6.86387 14 7.23699 14 7.61011Z" fill="white"/>
<path d="M12.3517 7.76926C12.1887 5.876 10.9498 4.05351 8.8308 3.76156C6.63028 3.46076 5.11428 4.55778 4.46228 5.53981C3.32127 7.27383 2.79978 12.3078 8.04842 12.3697C11.2106 12.414 12.5473 10.043 12.3517 7.76926Z" fill="#AD5707"/>
</svg>
