<svg width="9" height="10" viewBox="0 0 9 10" fill="none" xmlns="http://www.w3.org/2000/svg">
<path d="M9 4.89221C8.99324 6.80438 7.92908 8.65236 5.77705 9.24019C4.16894 9.68276 2.3277 9.29087 1.15203 8.06789C0.753378 7.64898 0.44259 7.15235 0.246644 6.60843C0.0473196 6.05438 -0.0236544 5.47668 0.006751 4.90573C0.19594 1.61519 3.85474 -1.48279 6.94596 0.767213C8.10137 1.60843 8.77368 2.87194 8.94936 4.17262C8.98314 4.41249 9 4.65235 9 4.89221Z" fill="white"/>
<path d="M4.80091 4.65371C4.7783 3.60342 4.60649 2.59239 4.3126 2.43042C4.00742 2.26355 3.79717 2.87213 3.70674 3.41691C3.5485 4.37887 3.47617 7.17147 4.2041 7.20583C4.64266 7.23037 4.82804 5.91505 4.80091 4.65371Z" fill="#00CCD9"/>
</svg>
