<svg xmlns="http://www.w3.org/2000/svg" width="9" height="9" fill="none" viewBox="0 0 9 9"><path fill="#fff" d="M8.602 4.676C8.596 6.504 7.58 8.27 5.522 8.832c-1.537.423-3.297.048-4.42-1.12a3.989 3.989 0 0 1-.866-1.396 4.14 4.14 0 0 1-.23-1.627C.187 1.544 3.684-1.417 6.64.733c1.104.804 1.747 2.012 1.915 3.255.032.23.048.459.048.688Z"/><path fill="#779E00" d="M4.582 4.376C4.495 2.87 3.838 1.421 2.715 1.19 1.548.949.745 1.822.398 2.603-.207 3.983-.483 7.986 2.3 8.035c1.677.035 2.385-1.85 2.282-3.659Z"/></svg>