<svg xmlns="http://www.w3.org/2000/svg" width="18" height="8" fill="none" viewBox="0 0 18 8"><path fill="#fff" d="M18 4.008c-.014 1.566-2.142 3.08-6.446 3.562-3.216.363-6.899.042-9.25-.96-.797-.344-1.419-.75-1.81-1.196-.4-.454-.541-.927-.48-1.395.378-2.696 7.695-5.234 13.878-3.39 2.31.689 3.655 1.724 4.007 2.79.067.196.101.392.101.589Z"/><mask id="a" width="18" height="8" x="0" y="0" maskUnits="userSpaceOnUse" style="mask-type:alpha"><path fill="#fff" d="M18 4.008c-.014 1.566-2.142 3.08-6.446 3.562-3.216.363-6.899.042-9.25-.96-.797-.344-1.419-.75-1.81-1.196-.4-.454-.541-.927-.48-1.395.378-2.696 7.695-5.234 13.878-3.39 2.31.689 3.655 1.724 4.007 2.79.067.196.101.392.101.589Z"/></mask><g mask="url(#a)"><path fill="#A89700" d="M11.99 3.687C11.894 1.5 11.18-.604 9.955-.942c-1.27-.347-2.146.92-2.522 2.054-.659 2.002-.96 7.816 2.07 7.887 1.826.051 2.598-2.687 2.485-5.312Z"/></g></svg>