<svg width="9" height="9" viewBox="0 0 9 9" fill="none" xmlns="http://www.w3.org/2000/svg">
<path d="M8.60211 4.67593C8.59565 6.50355 7.57853 8.26983 5.52165 8.83168C3.98463 9.25468 2.2248 8.88012 1.1011 7.71121C0.720071 7.31081 0.423023 6.83614 0.23574 6.31627C0.0452276 5.78671 -0.0226087 5.23455 0.00645253 4.68885C0.187278 1.54378 3.68432 -1.41723 6.63888 0.733294C7.7432 1.53732 8.38579 2.74498 8.5537 3.98815C8.58599 4.21741 8.60211 4.44667 8.60211 4.67593Z" fill="white"/>
<path d="M4.58156 4.37619C4.49513 2.8704 3.83825 1.4209 2.71469 1.1887C1.54791 0.949458 0.744091 1.82197 0.39838 2.60301C-0.206613 3.98215 -0.483119 7.98587 2.29985 8.03512C3.97655 8.0703 4.68527 6.18455 4.58156 4.37619Z" fill="#779E00"/>
</svg>
