<svg width="18" height="8" viewBox="0 0 18 8" fill="none" xmlns="http://www.w3.org/2000/svg">
<path d="M18 4.00794C17.9865 5.57447 15.8582 7.08843 11.5541 7.57001C8.33789 7.93259 4.65541 7.61153 2.30405 6.60961C1.50676 6.26641 0.88518 5.85955 0.493288 5.41395C0.0946392 4.96004 -0.0473089 4.48676 0.013502 4.01901C0.391881 1.32324 7.70948 -1.21477 13.8919 0.628538C16.2027 1.3177 17.5474 2.35284 17.8987 3.41841C17.9663 3.61492 18 3.81143 18 4.00794Z" fill="white"/>
<mask id="mask0_1412_17413" style="mask-type:alpha" maskUnits="userSpaceOnUse" x="0" y="0" width="18" height="8">
<path d="M18 4.00794C17.9865 5.57447 15.8582 7.08843 11.5541 7.57001C8.33789 7.93259 4.65541 7.61153 2.30405 6.60961C1.50676 6.26641 0.88518 5.85955 0.493288 5.41395C0.0946392 4.96004 -0.0473089 4.48676 0.013502 4.01901C0.391881 1.32324 7.70948 -1.21477 13.8919 0.628538C16.2027 1.3177 17.5474 2.35284 17.8987 3.41841C17.9663 3.61492 18 3.81143 18 4.00794Z" fill="white"/>
</mask>
<g mask="url(#mask0_1412_17413)">
<path d="M11.9892 3.68662C11.8951 1.50024 11.1798 -0.604394 9.95625 -0.941545C8.68565 -1.28891 7.8103 -0.0220483 7.43383 1.11201C6.775 3.11448 6.47389 8.92778 9.5045 8.9993C11.3304 9.05038 12.1022 6.31231 11.9892 3.68662Z" fill="#A89700"/>
</g>
</svg>
