<svg xmlns="http://www.w3.org/2000/svg" width="812" height="375" fill="none" viewBox="0 0 812 375"><g clip-path="url(#a)"><path fill="#000" d="m662.409 438.025 227.821-20.649c.53-2.158.741-4.46 1.06-6.437 1.666-10.292 1.976-21.474-3.879-30.571-2.302-3.578-5.462-6.693-9.301-8.584-3.993-1.967-8.241-1.841-12.538-2.445-2.33-.327-4.807-.968-6.397-2.837-1.704-2.009-1.896-4.766-2.626-7.194-1.172-3.909-3.678-7.242-6.839-9.776-3.294-2.64-7.188-4.466-11.19-5.75-4.41-1.416-9.014-1.699-13.447-2.937-2.688-.75-5.166-2.033-6.738-4.417-1.439-2.18-2.073-4.778-2.971-7.202-1.596-4.301-3.875-8.351-6.677-11.983-12.144-15.723-33.145-21.983-51.941-15.478-9.638 3.335-17.293 9.983-23.924 17.549-3.402 3.879-6.575 7.952-9.841 11.945-1.6 1.95-3.202 3.907-4.903 5.77-1.038 1.134-2.173 2.271-3.633 2.837-1.494.581-3.117.444-4.687.504-4.689.177-8.503 2.831-11.665 6.114-3.664 3.798-6.381 9.259-11.498 11.287-2.729 1.084-5.717 1.261-8.564 1.882a24.191 24.191 0 0 0-6.146 2.222c-4.09 2.151-7.561 5.393-10.216 9.154-5.976 8.462-7.731 19.229-7.975 29.371-.253 10.465 1.436 21.071 5.421 30.779a61.504 61.504 0 0 0 3.294 6.846ZM480.845 335.322a156.244 156.244 0 0 0 1.962 28.151 156.605 156.605 0 0 0 7.09 27.733c2.233 6.265 4.7 12.745 8.458 18.307l53.69-7.426c-.512-.395-.958-.759-1.276-1.076-5.899-5.88-1.601-14.593-.014-21.268 1.919-8.079-1.798-14.574-6.365-20.947-3.886-5.422-8.304-11.002-9.318-17.801-1.155-7.719 2.13-15.139 3.333-22.64 1.504-9.384-2.241-17.458-5.779-25.9-1.632-3.899-3.089-7.865-3.815-12.042-.779-4.464-.83-9.021-.624-13.539.426-9.313 1.795-18.534 1.051-27.876-.706-8.847-3.027-17.897-8.43-25.094-4.544-6.054-11.188-10.869-18.715-12.29-8.197-1.547-17.65 1.258-19.548 10.312-.764 3.656-.534 7.431-.582 11.14a67.434 67.434 0 0 1-1.511 13.361c-1.784 8.234-5.808 15.504-8.358 23.457-2.776 8.65-1.186 16.905 1.989 25.198 2.914 7.61 6.693 15.053 7.864 23.201.613 4.274.279 8.562-.147 12.837-.49 4.732-.855 9.455-.955 14.202Z"/><path fill="#000" d="M516.452 363.854a156.28 156.28 0 0 0-10.573 26.163 156.707 156.707 0 0 0-5.78 28.036c-.738 6.609-1.361 13.515-.42 20.162l51.514 16.853c-.286-.579-.528-1.102-.675-1.527-2.726-7.87 4.956-13.818 9.308-19.123 5.266-6.421 4.77-13.888 3.458-21.617-1.117-6.578-2.643-13.529-.575-20.085 2.345-7.444 8.549-12.674 12.918-18.89 5.463-7.775 5.636-16.674 6.155-25.813.242-4.219.67-8.423 1.847-12.495 1.257-4.354 3.208-8.473 5.373-12.444 4.464-8.184 9.736-15.872 13.161-24.596 3.242-8.262 5.121-17.414 3.419-26.25-1.432-7.433-5.294-14.673-11.437-19.249-6.69-4.982-16.416-6.604-22.09.704-2.289 2.951-3.736 6.445-5.405 9.758a67.443 67.443 0 0 1-7.213 11.347c-5.212 6.62-12.015 11.391-17.792 17.422-6.286 6.559-8.474 14.676-9.255 23.521-.715 8.118-.58 16.464-3.098 24.301-1.322 4.111-3.501 7.819-5.758 11.474-2.514 4.039-4.911 8.124-7.082 12.348ZM70.83 176.177c-6.312-.115-12.554 1.162-18.661 2.641a285.262 285.262 0 0 0-29.667 8.923 216.43 216.43 0 0 0 20.277-14.349 215.601 215.601 0 0 0 22.223-20.445c1.384-1.466 4.197-3.981 4.27-6.15.16-4.757-9.814-.638-11.747.02-3.95 1.347-7.685 3.229-11.444 5.024-6.937 3.317-13.697 6.996-20.276 10.974a317.664 317.664 0 0 0 12.231-14.465c3.505-4.411 6.945-8.872 10.245-13.438 3.035-4.2 6.645-8.569 8.673-13.365 1.46-3.449-3.455-5.75-6.22-4.087-12.771 7.671-23.19 20.71-34.238 30.64-.889.799-1.778 1.6-2.664 2.405-3.893 3.525-7.767 7.103-11.387 10.912 7.066-11.694 14.13-23.388 21.197-35.079 3.06-5.067 7.04-9.582 10.084-14.656 1.522-2.538 3.038-5.078 4.544-7.627.939-1.589 2.315-4.996 1.215-6.976-1.027-1.848-4.926-.931-6.316-.124-11.947 6.943-19.956 19.478-27.233 30.958-4.276 6.749-8.237 13.694-12.634 20.367-.427.649-.863 1.291-1.302 1.932v83.836a527.1 527.1 0 0 1 3.412 1.417c10.786 4.529 22.055 7.697 33.301 10.839 2.678.748 8.93 3.719 10.648-.124.551-1.235-.045-2.309-.931-3.207-1.826-1.851-4.313-3.282-6.555-4.579-9.328-5.404-20.093-8.485-30.313-11.731a224.246 224.246 0 0 0-5.435-1.651c2.7-.169 5.4-.43 8.099-.686 6.844-.653 13.7-.996 20.569-1.185 12.923-.354 26.341.273 39.06-2.394 1.383-.289 4.393-.526 4.185-2.613-.169-1.696-2.315-2.391-3.646-2.844-6.03-2.042-12.234-3.598-18.535-4.535-13.185-1.963-26.136-.138-39.262 1.359-3.95.45-7.905.911-11.851 1.437 8.804-2.202 17.564-4.588 26.184-7.443 6.605-2.189 13.078-4.729 19.55-7.277 6.727-2.647 13.65-5.033 20.168-8.172 3.316-1.598 8-3.196 10.799-5.587 1.598-1.364 2.492-2.906 3.57-4.901 1.87-3.471-1.435-3.943-4.186-3.994Z"/><path fill="#001204" fill-rule="evenodd" d="M64.6 417.751c.655-.102 1.309-.202 1.964-.302 4.447-.681 8.888-1.361 13.215-2.378.58-.136 1.179-.274 1.795-.415 7.318-1.684 16.923-3.892 21.485-9.933.53-.7.254-1.556-.471-1.966-3.714-2.076-16.69-1.633-23.846-1.388-1.464.05-2.686.091-3.534.101.393-.071.785-.139 1.178-.208.781-.137 1.563-.276 2.343-.422 14.302-2.68 28.384-6.779 40.525-15.051.871-.593.549-2.189-.547-2.289a651.628 651.628 0 0 0-19.136-1.374c6.044-1.678 12.043-3.775 17.83-6.09 5.551-2.22 10.679-5.088 14.708-9.574.53-.59.269-1.678-.47-1.967-2.099-.811-4.084-.776-6.274-.739l-.503.01c-2.426.04-4.849.093-7.274.148l-1.553.035c9.522-3.564 18.36-8.673 25.822-16.234.675-.685.106-1.953-.79-2.056-6.169-.758-12.496-.794-18.839-.583 1.407-.411 2.808-.85 4.199-1.322 5.566-1.882 10.967-4.275 15.995-7.334.282-.171.614-.36.979-.57 2.758-1.58 7.37-4.222 5.892-7.641-1.379-3.188-5.909-2.784-8.785-2.528-.152.015-.302.026-.444.04-4.345.378-8.681.766-13.017 1.167a209.759 209.759 0 0 0 31.108-17.195c.887-.592.537-2.172-.547-2.287-13.53-1.402-25.818 3.37-38.149 8.162-5.022 1.951-10.052 3.905-15.175 5.446 9.538-4.38 18.978-8.966 28.037-14.268 6.321-3.702 12.454-7.752 18.209-12.289 4.782-3.772 9.487-7.779 11.766-13.586.441-1.118-.569-1.985-1.629-1.713-13.147 3.333-24.862 9.893-36.59 16.459-3.099 1.736-6.201 3.472-9.328 5.149 5.535-4.173 10.844-8.639 15.865-13.436 7.841-7.485 16.074-15.732 21.09-25.458 2.209-4.278 7.439-19.782-3.07-16.016-3.735 1.342-6.987 4.648-9.866 7.578-.49.499-.971.989-1.442 1.453-3.893 3.849-7.491 7.973-11.086 12.093l-1.248 1.429a309.949 309.949 0 0 1-5.956 6.587l.668-1.541c.588-1.353 1.162-2.677 1.726-3.945.422-.953.861-1.919 1.303-2.891 2.221-4.887 4.551-10.015 5.692-15.148.683-3.103.69-7.197-2.53-8.894-4.09-2.146-7.646 1.849-9.762 4.863-2.885 4.102-5.583 8.35-8.282 12.595a641.87 641.87 0 0 1-4.055 6.325l-11.218 17.202c1.143-8.391 2.143-16.813 2.47-25.206.015-.45.036-.921.056-1.407.214-4.994.5-11.629-1.988-15.775-1.718-2.851-4.797-2.656-6.845-.284-1.44 1.662-2.148 3.918-2.817 6.051-.186.594-.37 1.18-.566 1.74a1410.211 1410.211 0 0 0-3.198 9.232 1360.821 1360.821 0 0 0-3.948 11.764 52.476 52.476 0 0 0-.944-4.023c-1.177-4.217-3.177-11.251-7.773-13.18-4.861-2.044-6.785 2.94-7.989 6.659-2.432 7.512-4.324 15.167-5.729 22.903-1.206-3.004-2.632-5.93-4.363-8.712-1.85-2.988-5.069-8.185-9.367-7.329-4.052.807-4.267 5.974-4.418 9.6-.024.568-.044 1.097-.08 1.566a266.602 266.602 0 0 0-.633 11.974c-1.027-2.456-2.176-4.834-3.628-6.917-1.726-2.468-5.063-5.401-8.279-3.853-3.38 1.618-3.311 7.098-3.262 10.955.011.854.02 1.629-.008 2.264-.23 4.931-.352 9.858-.382 14.789a40.973 40.973 0 0 0-2.904-3.444c-2.404-2.535-7.767-7.379-11.73-5.245-1.642.885-1.974 2.491-2.233 4.191-.456 2.963-.57 6.052-.68 9.074-.024.652-.048 1.301-.074 1.944a210.713 210.713 0 0 0 .769 28.661c-2.794-8.311-6.21-16.451-11.31-23.597-1.823-2.554-4.483-5.578-7.783-3.439-3.362 2.18-4.443 8.258-5.138 12.164l-.124.695c-1.175 6.463-1.105 13.025-.404 19.544a98.313 98.313 0 0 0-1.863-2.978 72.403 72.403 0 0 1-1.077-1.726c-2.282-3.721-5.573-9.087-9.826-9.259-4.778-.2-4.833 5.558-4.871 9.2a54.54 54.54 0 0 1-.012.93 111.03 111.03 0 0 0-.02 3.453l.395.276c1.529 13.206 8.384 42.257 23.687 53.432C2.307 413.847 52.5 421.174 64.6 417.751ZM801.979 60.437c-.857-.481-1.713-.963-2.57-1.446-5.823-3.281-11.637-6.558-17.62-9.312-.801-.368-1.627-.754-2.478-1.15-10.085-4.702-23.324-10.875-34.102-7.619-1.252.376-1.699 1.693-1.219 2.873 2.482 6.018 18.081 17.506 26.683 23.841 1.76 1.297 3.228 2.378 4.23 3.152-.523-.276-1.044-.555-1.566-.833a273.232 273.232 0 0 0-3.124-1.651c-19.163-9.945-39.348-17.926-61.013-18.938-1.554-.071-2.613 2.206-1.418 3.345a952.384 952.384 0 0 0 21.177 19.454c-8.589-3.526-17.504-6.492-26.366-8.992-8.497-2.396-17.086-3.599-25.842-1.775-1.151.238-1.824 1.828-1.218 2.873 1.727 2.952 4.085 4.751 6.682 6.735.199.15.399.303.599.456 2.876 2.199 5.764 4.381 8.652 6.565.618.464 1.234.931 1.851 1.397-14.36-4.417-29.309-6.282-44.853-3.834-1.408.224-1.882 2.323-.928 3.281 6.547 6.663 13.925 12.576 21.544 18.198a140.758 140.758 0 0 0-6.108-2.255c-8.213-2.83-16.694-4.874-25.336-5.748-.484-.049-1.043-.123-1.66-.202-4.651-.599-12.43-1.604-13.777 4.006-1.252 5.23 4.417 8.932 8.016 11.281.192.124.378.248.556.364a3309.544 3309.544 0 0 0 16.298 10.628 294.942 294.942 0 0 0-51.911-7.544c-1.572-.089-2.584 2.195-1.418 3.343 14.587 14.288 33.275 19.769 52.031 25.27 7.639 2.241 15.287 4.484 22.676 7.327-15.116-3.419-30.3-6.491-45.681-8.322-10.736-1.277-21.564-1.945-32.387-1.66-8.996.239-18.114.842-26.009 5.924-1.522.976-1.118 2.988.367 3.636 18.4 8.063 38.024 10.799 57.67 13.54 5.194.724 10.388 1.449 15.561 2.272-10.239.035-20.477.647-30.674 1.935-15.921 2.004-32.986 4.59-47.613 11.99-6.437 3.254-26.516 17.618-10.817 22.7 5.584 1.8 12.368.719 18.375-.24 1.026-.165 2.028-.324 2.998-.465 8.023-1.16 15.948-2.931 23.867-4.704l2.748-.614c4.291-.955 8.593-1.813 12.904-2.639-.728.432-1.453.862-2.169 1.289-1.907 1.132-3.77 2.24-5.572 3.29-1.353.79-2.735 1.579-4.129 2.374-6.998 3.997-14.341 8.191-20.297 13.496-3.592 3.214-7.285 8.279-5.04 13.37 2.86 6.455 10.62 4.802 15.811 3.028 7.068-2.409 14.053-5.171 21.033-7.927a930.302 930.302 0 0 1 10.442-4.079l28.622-10.915c-8.891 9.34-17.641 18.849-25.576 28.951a304.85 304.85 0 0 1-1.333 1.69c-4.745 5.992-11.05 13.951-11.866 21.397-.554 5.128 3.229 7.742 7.761 6.703 3.182-.725 6.042-2.864 8.745-4.887a86.002 86.002 0 0 1 2.229-1.631c4.027-2.81 8.047-5.641 12.053-8.477a2002.445 2002.445 0 0 0 15.211-10.919c-.902 1.924-1.755 3.864-2.513 5.863-2.417 6.317-6.404 16.892-2.758 23.545 3.855 7.043 10.595 2.649 15.35-.841 9.609-7.056 18.714-14.789 27.322-23.074-1.292 4.842-2.254 9.791-2.729 14.845l-.001.002c-.522 5.417-1.428 14.844 4.377 17.77 5.474 2.761 10.375-3.446 13.814-7.801.538-.68 1.039-1.317 1.503-1.865a416.352 416.352 0 0 0 11.516-14.254c-1.008 3.997-1.802 8.011-1.974 11.938-.199 4.661 1.068 11.391 6.231 12.456 5.414 1.131 10.263-5.726 13.677-10.552.756-1.069 1.443-2.038 2.048-2.799a574.129 574.129 0 0 0 13.755-17.975c-.015 2.34.075 4.657.303 6.962.534 5.372 2.457 16.351 9.019 17.382 2.72.426 4.554-1.257 6.388-3.122 3.2-3.249 6.112-6.973 8.962-10.618.614-.785 1.227-1.568 1.836-2.339a332.3 332.3 0 0 0 24.889-36.239c-4.205 12.895-7.529 26.152-7.986 39.74-.162 4.855.232 11.071 6.022 11.482 5.899.416 12.636-6.114 16.966-10.311l.769-.746c7.192-6.921 13.016-15.119 18.059-23.85a167.271 167.271 0 0 0-.496 5.42c-.069.931-.174 1.991-.291 3.139-.676 6.728-1.65 16.433 3.177 20.591 5.417 4.678 10.663-2.406 13.984-6.886.298-.407.583-.789.85-1.14a177.857 177.857 0 0 0 3.132-4.261l-.215-.71c10.093-17.785 28.206-60.152 20.338-88.199-9.572-34.125-61.772-89.766-79.026-96.749Z" clip-rule="evenodd"/><path fill="#001204" d="M346.503 252.971c-.744 1.219-1.187 2.554-1.429 3.947-.496 2.817-.185 5.851.089 8.594.918 9.159 3.271 18.134 6.912 26.586 1.894 4.41 4.194 9.597-.38 12.852a8.358 8.358 0 0 1-.686.443c-.992.586-2.042 1.04-3.108 1.462-2.495.986-5.075 1.762-7.196 3.556-6.025 5.096-6.785 14.129-4.558 21.23 2.727 8.727 9.016 15.638 13.411 23.499 2.116 3.799 3.825 7.893 4.311 12.225a21.804 21.804 0 0 1 .126 3.477c-.116 3.851-1.039 7.65-1.783 11.417-1.609 8.135-1.546 15.696 3.424 22.702 5.345 7.534 13.485 12.077 20.787 17.437 4.105 3.013 10.368 7.323 10.795 12.895.137 1.772-.011 3.556-.206 5.329-.206 1.904-.464 3.814-.464 5.734 0 .507.016 1.013.058 1.52.628 7.882 3.735 15.348 7.677 22.127 4.516 7.777 10.182 14.873 15.859 21.816a349.981 349.981 0 0 0 9.465 11.101l140.267-96.497c-3.419-5.756-7.487-66.098-56.21-86.568-3.356-1.409-6.405-1.773-9.671-.185-.549.264-1.092.543-1.625.802-1.103.543-2.179 1.013-3.345 1.166-.791.1-1.63.058-2.543-.211-2.495-.733-4.474-2.68-5.798-4.849-2.533-4.147-3.25-9.312-4.928-13.828-1.578-4.263-3.456-8.616-6.009-12.399-2-2.965-4.881-5.872-8.69-5.977-3.983-.116-7.091 2.949-10.963 3.303a7.205 7.205 0 0 1-.813.026c-.121-.005-.242-.005-.359-.011a7.716 7.716 0 0 1-1.783-.321c-.047-.016-.09-.027-.132-.043a7.062 7.062 0 0 1-.406-.142 10.32 10.32 0 0 1-1.899-.96c-2.691-1.731-4.865-4.648-6.685-7.017-3.118-4.068-6.442-7.872-10.336-11.233a65.145 65.145 0 0 0-12.15-8.31c-4.379-2.31-6.996-.685-9.871 1.129-.823.523-1.662 1.061-2.575 1.525-1.493.765-3.16 1.33-5.223 1.325-6.089-.027-11.94-4.037-16.773-7.318-7.365-4.997-17.194-9.297-26.311-8.136-2.189.28-4.342 1.008-6.062 2.327a9 9 0 0 0-2.211 2.453Z"/><path fill="#001204" fill-rule="evenodd" d="M274.769-41.074c-.852.288-1.709.835-2.5 1.34a83.326 83.326 0 0 0-2.315-3.928.426.426 0 0 0-.664-.076 584.598 584.598 0 0 0-8.23 8.632c-9.498 1.621-18.353 5.63-27.094 9.587l-.439.198c-1.651.747-3.307 1.487-4.962 2.226h-.001l-.001.001c-3.758 1.679-7.518 3.358-11.232 5.127-4.823 2.294-9.06 5.096-12.376 9.342-3.203 4.104-5.951 8.628-8.655 13.08l-.004.007-.548.902c-3.026 4.983-5.889 10.066-8.533 15.261-5.196 10.202-9.56 20.864-12.575 31.919-1.681 6.163-2.933 12.44-3.671 18.783-.664 5.722-1.173 11.707.875 17.217.08.217.294.35.524.285a171.984 171.984 0 0 0 29.917-11.65c3.699-1.859 7.385-3.823 10.938-5.991-1.274 7.527-2.138 15.113-2.349 22.77-.163 5.887.09 11.778.811 17.624.04.32.345.507.642.348 19.454-10.429 33.755-28.152 43.734-47.52 2.756-5.352 5.243-10.854 7.503-16.45 1.858 11.169 5.124 22.072 10.18 32.37a98.129 98.129 0 0 0 11.419 18.035c.224.28.609.056.704-.204 9.378-25.848 13.733-53.716 11.345-81.174-.13-1.492-.279-2.981-.449-4.47 10.833 9.024 23.222 16.154 36.437 21.07a124.01 124.01 0 0 0 26.284 6.609c.289.038.501-.13.523-.423.147-2.136-.371-4.206-.885-6.263l-.088-.354a160.372 160.372 0 0 0-6.698-20.741c-3.333-8.334-7.154-16.831-12.716-23.94-5.824-7.445-13.816-11.965-22.124-16.148a258.473 258.473 0 0 0-36.527-15.015c-.187-.06-.387-.13-.596-.203-1.466-.51-3.384-1.178-4.652-.134-.537.444-.813 1.154-.952 1.951Z" clip-rule="evenodd"/><path fill="#001204" d="M163.919-95.161-82.757 55.507c.606 2.742 1.652 5.468 2.394 7.888 3.862 12.595 9.756 25.442 21.475 32.482 4.607 2.769 9.93 4.534 15.337 4.533 5.624-.001 10.368-2.517 15.576-4.232 2.823-.931 5.988-1.589 8.835-.359 3.053 1.326 4.811 4.343 6.994 6.687 3.513 3.776 8.214 6.153 13.213 7.259 5.208 1.154 10.64 1.047 15.895.267 5.789-.858 11.166-3.11 16.881-4.183 3.466-.651 6.99-.581 10.104 1.242 2.85 1.667 5.02 4.258 7.39 6.503 4.212 3.984 9.058 7.3 14.263 9.852 22.546 11.036 49.846 6.4 67.515-11.472 9.06-9.164 14.023-20.974 17.312-33.255 1.689-6.296 3.01-12.686 4.481-19.035.724-3.104 1.447-6.217 2.334-9.278.543-1.866 1.195-3.788 2.532-5.246 1.369-1.492 3.286-2.245 5.032-3.19 5.215-2.82 8.056-7.957 9.806-13.445 2.031-6.352 2.059-14.058 6.725-19.215 2.489-2.753 5.776-4.623 8.656-6.917a30.56 30.56 0 0 0 5.725-5.952c3.434-4.722 5.556-10.336 6.465-16.083 2.046-12.928-1.979-26.112-7.369-37.742-5.559-12.004-13.398-23.08-23.337-31.858a77.92 77.92 0 0 0-7.558-5.92Z"/><path fill="#001204" fill-rule="evenodd" d="M307.667 281.004c.604.042.94.494 1.201.988.491.936.933 1.926 1.246 2.936.415 1.344.878 3.364.188 4.691a.946.946 0 0 1-.177.241c.228.756.452 1.512.673 2.27.167-.533.458-1.014.75-1.497.146-.241.292-.483.424-.732.099-.187.194-.376.288-.563.366-.727.726-1.44 1.299-2.01.157-.158.332-.304.527-.435.498-.341 1.169-.547 1.7-.26.645.347.766 1.241.593 1.954-.236.975-.846 1.812-1.445 2.617-.599.804-1.209 1.613-1.968 2.269-.306.264-.649.509-1.044.592a1.242 1.242 0 0 1-.572-.015 255.6 255.6 0 0 1 1.363 5.011 11.022 11.022 0 0 1 1.75-3.013l.077-.095c.193-.239.413-.512.653-.788.529-.603 1.15-1.279 1.924-1.554.538-.19 1.253-.013 1.454.522.133.359.006.759-.133 1.118a17.485 17.485 0 0 1-2.766 4.717c-.393.479-.837.955-1.421 1.163a1.58 1.58 0 0 1-1.003.015c.328 1.3.645 2.603.952 3.908.488-2.24 2.355-4.359 4.31-5.456l.072-.039c.38-.201.829-.345 1.211-.166.381.179.569.634.549 1.054-.02.419-.206.811-.4 1.182-.851 1.625-1.93 3.137-3.253 4.407-.527.505-1.283.999-1.935.672a.935.935 0 0 1-.203-.139 248.463 248.463 0 0 1 1.136 5.233c.267-2.184 1.719-4.235 3.439-5.522.444-.33.997-.634 1.526-.474a.873.873 0 0 1 .212.092c.295.17.505.483.595.815.109.407.066.842-.024 1.255-.505 2.345-2.32 4.171-4.189 5.675-.282.225-.623.459-.97.369a.626.626 0 0 1-.157-.065c.319 1.619.622 3.241.91 4.866.65-2.028 2.368-3.891 4.159-4.896l.072-.039c.381-.201.829-.346 1.211-.167.381.18.569.634.549 1.054-.02.42-.206.811-.4 1.183-.851 1.624-1.93 3.137-3.253 4.407-.527.505-1.283.999-1.935.671l-.008-.004-.016-.009c.37 2.211.712 4.427 1.024 6.647.749-1.839 2.336-3.492 3.985-4.417l.072-.039c.378-.201.828-.346 1.211-.166.38.179.568.634.549 1.053-.02.42-.206.811-.4 1.183-.851 1.624-1.931 3.137-3.253 4.407-.489.469-1.176.928-1.793.729.292 2.255.553 4.514.784 6.776.153-.319.338-.624.523-.93.146-.241.292-.483.424-.732.099-.187.193-.375.288-.563v-.001c.366-.726.725-1.439 1.299-2.009.157-.158.332-.304.527-.435.498-.341 1.169-.547 1.7-.26.645.347.765 1.241.593 1.954-.236.975-.846 1.812-1.445 2.617-.599.804-1.209 1.613-1.968 2.269-.306.264-.649.509-1.045.592a1.22 1.22 0 0 1-.656-.042c.231 2.505.425 5.014.582 7.525.559-1.698 1.77-3.23 3.155-4.266.444-.33.997-.634 1.526-.475a.913.913 0 0 1 .212.092c.293.168.505.481.595.815.109.407.066.842-.024 1.255-.505 2.346-2.319 4.171-4.189 5.675-.282.225-.623.459-.97.37a.64.64 0 0 1-.114-.042c.097 1.979.17 3.959.221 5.94.778-1.762 2.312-3.333 3.904-4.226l.072-.04c.379-.201.829-.345 1.214-.166.378.179.566.634.546 1.054-.02.42-.205.811-.4 1.183-.85 1.624-1.93 3.137-3.253 4.407-.527.505-1.283.999-1.934.671a.934.934 0 0 1-.093-.053c.036 2.474.035 4.948-.002 7.423.163-.362.37-.704.578-1.048.146-.241.292-.483.424-.732.099-.187.193-.375.288-.562v-.002c.366-.726.725-1.44 1.299-2.009.157-.158.332-.304.527-.435.498-.341 1.169-.547 1.7-.261.645.348.765 1.242.593 1.955-.236.975-.846 1.812-1.445 2.616-.599.805-1.209 1.614-1.968 2.27-.306.264-.649.509-1.045.592-.347.073-.743-.004-.992-.249a249.668 249.668 0 0 1-.242 6.645c.669-1.997 2.366-3.825 4.133-4.817l.072-.039c.379-.201.829-.346 1.214-.166.378.179.566.634.546 1.053-.02.42-.205.811-.4 1.183-.85 1.624-1.93 3.137-3.253 4.407-.527.505-1.283.999-1.934.671a1.028 1.028 0 0 1-.473-.511 250.378 250.378 0 0 1-.452 6.478c-.046.555-.92.584-.874.024.076-.916.146-1.832.212-2.749a.779.779 0 0 1-.221-.001c-1.432.328-3.432-2.641-3.905-3.476-.406-.719-1.112-2.07-.669-2.916.425-.809 1.36-.483 1.933-.033 1.135.892 2.385 2.152 3.051 3.576.1-1.641.184-3.282.251-4.924-.391.207-.941.13-1.383-.036-.934-.347-1.749-.951-2.523-1.578-1.049-.853-2.063-1.782-2.789-2.923-.431-.68-.763-1.484-.61-2.273.129-.665.721-1.288 1.423-1.307.648-.019 1.295.511 1.794.919l.001.001.006.005.001.001.008.006.092.075c.542.442 1.029.938 1.486 1.465.577.667 1.107 1.379 1.625 2.088l.003.004c.339.462.683.93.945 1.436.074-2.258.118-4.517.131-6.776a.856.856 0 0 1-.519.164c-1.389.485-3.71-2.237-4.274-3.013-.483-.669-1.34-1.93-.995-2.822.328-.85 1.296-.634 1.915-.251 1.485.917 3.202 2.352 3.876 4.083a251.31 251.31 0 0 0-.165-8.726c-.353.18-.834.173-1.241.086-.975-.208-1.869-.684-2.726-1.193-1.163-.689-2.3-1.461-3.185-2.484-.525-.607-.971-1.357-.933-2.16.032-.677.526-1.379 1.217-1.501.638-.113 1.358.319 1.911.651l.118.07c.599.356 1.154.776 1.683 1.231.669.577 1.296 1.206 1.911 1.827.408.412.821.829 1.156 1.298a253.29 253.29 0 0 0-.441-7.389c-.269.091-.572.077-.857.035-1.532-.228-2.855-1.176-4.016-2.202-.918-.811-1.799-1.72-2.238-2.861-.184-.479-.241-1.115.175-1.415.384-.275.916-.085 1.34.125 1.303.647 2.483 1.43 3.633 2.276.516.38 1.025.771 1.539 1.169.07.055.139.111.208.169-.21-2.465-.457-4.926-.739-7.383l-.051.009c-1.277.728-4.049-1.535-4.742-2.199-.597-.571-1.663-1.662-1.484-2.6.173-.896 1.163-.854 1.841-.59 1.414.552 3.071 1.461 4.117 2.73-.23-1.834-.481-3.666-.751-5.496-.349.162-.811.153-1.204.069-.975-.208-1.869-.685-2.726-1.194-1.163-.689-2.299-1.46-3.185-2.483-.524-.608-.97-1.358-.933-2.16.033-.678.527-1.38 1.217-1.502.638-.112 1.358.319 1.912.651l.117.07c.599.357 1.154.776 1.683 1.231.669.575 1.297 1.205 1.911 1.828.274.276.55.554.803.849-.271-1.708-.56-3.414-.866-5.117-.358.246-.899.247-1.35.151-.975-.208-1.869-.684-2.726-1.193-1.163-.689-2.299-1.461-3.185-2.484-.524-.608-.97-1.357-.933-2.16.033-.677.527-1.379 1.217-1.501.638-.113 1.358.319 1.911.651h.001l.117.07c.599.356 1.154.776 1.683 1.231.669.575 1.297 1.204 1.911 1.827.31.313.623.629.903.969a254.966 254.966 0 0 0-1.074-5.343.859.859 0 0 1-.492.263c-1.276.728-4.048-1.535-4.741-2.199-.597-.571-1.664-1.662-1.485-2.6.173-.896 1.163-.854 1.841-.59 1.579.617 3.46 1.678 4.458 3.189a261.97 261.97 0 0 0-.987-4.297 1.05 1.05 0 0 1-.462.615c-.311.181-.693.172-1.048.12-1.532-.228-2.855-1.176-4.015-2.202-.918-.808-1.799-1.718-2.239-2.859-.183-.479-.24-1.115.175-1.414.385-.276.916-.086 1.34.124 1.303.647 2.483 1.43 3.633 2.276.516.38 1.026.772 1.539 1.167a4.2 4.2 0 0 1 .716.681 253.328 253.328 0 0 0-1.355-5.276c-.325.43-1.003.457-1.549.34-.975-.207-1.869-.684-2.726-1.193-1.163-.689-2.3-1.461-3.185-2.484-.527-.607-.973-1.357-.936-2.16.033-.677.527-1.379 1.218-1.501.638-.112 1.358.319 1.911.651l.117.07c.599.356 1.155.776 1.684 1.231.669.575 1.294 1.204 1.913 1.827.33.334.664.671.957 1.037a252.165 252.165 0 0 0-1.54-5.318c-1.08-.324-1.637-2.386-1.884-3.299l-.01-.035c-.011-.038-.015-.076-.019-.112l-.001-.004c-.304-.807-.511-1.655-.697-2.466-.212-.925-.634-3.225 1.016-3.111Z" clip-rule="evenodd"/><path fill="#001204" d="M658-29a146.185 146.185 0 0 1-6.407 12.222c-.223.39-.449.771-.683 1.15-2.365 3.905-4.987 7.658-7.94 11.182a55.463 55.463 0 0 1-2.815 3.113v.003c-.292.31-.591.615-.894.917-3.735 3.76-7.798 7.175-11.467 11.015-3.001 3.142-5.323 6.691-7.51 10.353.004.004 0 .007 0 .007-.332.56-.664 1.12-.993 1.684-1.066 1.822-2.117 3.655-3.22 5.47-3.643 5.989-8.13 10.73-13.902 14.727-3.767 2.611-7.56 5.142-11.313 7.739-.343.236-.687.476-1.03.716a215.744 215.744 0 0 0-6.217 4.473c-5.575 4.175-11.266 8.102-17.377 11.437-.391.218-.785.43-1.183.637h-.004l-.339.181a123.325 123.325 0 0 1-8.726 4.139 134.389 134.389 0 0 1-10.773 4.07c-19.214 6.338-39.337 8.323-59.43 7.636-.654-.022-1.304-.047-1.957-.076h-.004c-9.937-.422-19.863-1.488-29.662-2.993a381.15 381.15 0 0 1-7.02-1.153 440.693 440.693 0 0 1-16.699-3.255c-3.632-.778-7.312-1.535-10.923-2.513a63.8 63.8 0 0 1-1.365-.382c-3.275-.941-6.476-2.094-9.525-3.629-.314-.16-.624-.32-.934-.487a42.34 42.34 0 0 1-1.808-1.037h-.003c-2.724-1.643-5.257-3.57-7.685-5.636a80.076 80.076 0 0 1-1.015-.877c-1.938-1.69-3.811-3.454-5.666-5.214-5.461-5.182-10.956-10.372-15.804-16.143a69.334 69.334 0 0 1-1.241-1.52 39.79 39.79 0 0 1-.774-.982c-6.893-8.877-11.912-18.91-16.279-29.223-.146-.338-.288-.68-.43-1.018a328.006 328.006 0 0 1-2.319-5.692c-.332-.836-.668-1.672-.996-2.512-.146-.364-.289-.728-.431-1.091-1.679-4.255-3.337-8.52-4.998-12.783-.135-.356-.277-.716-.416-1.076-.387-.997-.774-1.993-1.165-2.993-.146-.371-.288-.742-.434-1.113l-.329-.84c-1.018-2.61-2.537-6.106-3.895-8.633h3.315c1.438 2.851 3.052 6.651 4.169 9.659l.405 1.087c.336.905.672 1.807 1.011 2.698.139.36.274.717.413 1.07l.026.069c1.675 4.298 3.329 8.604 5.023 12.895l.438 1.098a434.019 434.019 0 0 0 2.87 7.08l.116.28c.139.338.281.673.424 1.011 2.694 6.375 5.655 12.648 9.196 18.605a91.646 91.646 0 0 0 7.561 10.822 107.169 107.169 0 0 0 5.925 6.724 261.573 261.573 0 0 0 15.844 15.233 69.563 69.563 0 0 0 2.815 2.353c3.161 2.495 6.483 4.611 10.083 6.299a46.243 46.243 0 0 0 6.418 2.447c1.066.32 2.136.622 3.213.91.456.123.912.243 1.372.36 5.922 1.516 11.978 2.643 17.958 3.8a402.9 402.9 0 0 0 8.85 1.61c.412.07.821.139 1.234.204h.003c4.67.782 9.35 1.466 14.048 2.026 7.67.92 15.414 1.52 23.164 1.705.573.015 1.143.026 1.712.037h.004c21.517.341 43.046-2.553 63.11-10.695a119.297 119.297 0 0 0 5.611-2.448 114.961 114.961 0 0 0 7.013-3.556c.369-.204.742-.408 1.107-.615a113.801 113.801 0 0 0 5.501-3.31c6.042-3.865 11.606-8.4 17.436-12.563.332-.237.665-.473.997-.706l.036-.025c5.761-4.048 12.179-7.383 17.13-12.463 4.815-4.942 7.721-11.291 11.288-17.102.003-.008.007-.011.011-.019.299-.487.606-.963.92-1.432 3.596-5.404 8.097-9.786 12.901-14.201a97.85 97.85 0 0 0 6.491-6.535 78.414 78.414 0 0 0 7.094-9.11 99.77 99.77 0 0 0 3.136-5.047c.222-.382.445-.767.664-1.153 1.537-2.72 3.41-6.276 4.746-9.102H658Z"/><path fill="#001204" fill-rule="evenodd" d="M622.054 52.487c-.88-.83-1.757-1.663-2.629-2.501.249.838.203 1.698.157 2.566a17.906 17.906 0 0 0-.023 1.902c.025 1.047.05 2.074-.256 3.069a4.578 4.578 0 0 1-.334.813c-.359.69-.996 1.33-1.773 1.326-.942-.003-1.621-.945-1.857-1.859-.323-1.25-.138-2.57.054-3.846.192-1.276.394-2.564.857-3.768.187-.486.428-.972.827-1.306.234-.197.534-.33.836-.359a360.933 360.933 0 0 1-4.748-4.7 14.208 14.208 0 0 1-.176 4.35l-.029.154c-.074.389-.158.832-.264 1.29-.234 1.009-.529 2.152-1.241 2.931-.495.542-1.414.775-1.967.289-.369-.327-.468-.857-.526-1.35a22.46 22.46 0 0 1 .279-7.03c.156-.782.371-1.592.907-2.182.245-.27.577-.475.927-.578-.974-1-1.942-2.005-2.904-3.016l-.179-.188c.5 2.702-.32 5.87-1.748 8.103l-.058.089c-.31.459-.731.894-1.274.922-.541.028-1.03-.374-1.262-.863-.232-.488-.258-1.045-.263-1.585-.019-2.359.289-4.73 1.02-6.974.262-.8.738-1.7 1.508-1.897a364.444 364.444 0 0 1-3.442-3.737c.42 2.287-.026 4.794-.981 6.834-.303.643-.747 1.324-1.444 1.463-.098.02-.198.03-.296.025-.439-.015-.866-.242-1.17-.565-.37-.396-.584-.916-.733-1.44-.849-2.968.104-6.14 1.313-8.98.095-.22.205-.45.352-.639a350.074 350.074 0 0 1-2.98-3.408c.636 2.581.033 5.515-1.205 7.791-.34.628-.824 1.276-1.53 1.375a1.291 1.291 0 0 1-.296.006c-.436-.039-.849-.293-1.133-.64-.348-.419-.527-.951-.645-1.482-.668-3.011.474-6.121 1.854-8.883.161-.323.364-.675.663-.851a351.686 351.686 0 0 1-4.068-4.897c.506 2.705-.315 5.882-1.746 8.12l-.058.087c-.309.46-.731.895-1.273.923-.541.028-1.03-.375-1.262-.863-.232-.488-.259-1.045-.263-1.585-.02-2.359.289-4.73 1.02-6.974.291-.89.847-1.905 1.78-1.935a357.05 357.05 0 0 1-4.261-5.415c.12 1.33.037 2.674-.215 3.987l-.029.155c-.074.388-.158.832-.264 1.29-.235 1.005-.53 2.149-1.241 2.93-.495.542-1.414.775-1.967.289-.369-.326-.467-.857-.526-1.35a22.456 22.456 0 0 1 .279-7.03c.156-.782.371-1.592.907-2.182.29-.318.699-.547 1.118-.623a360.636 360.636 0 0 1-14.971-21.326 356.948 356.948 0 0 0 .995 22.024c.062-.048.128-.09.2-.125.414-.206.905-.161 1.355-.063 1.947.427 3.562 1.76 4.963 3.178 1.107 1.12 2.159 2.364 2.623 3.867.194.631.211 1.453-.348 1.801-.518.32-1.184.03-1.71-.277-1.616-.945-3.063-2.053-4.465-3.24a118.89 118.89 0 0 1-1.874-1.634 7.07 7.07 0 0 1-.5-.49c.178 2.09.375 4.178.59 6.263.03-.018.061-.035.092-.05.415-.206.905-.162 1.355-.063 1.948.426 3.563 1.76 4.963 3.178 1.108 1.119 2.159 2.363 2.623 3.867.194.63.212 1.452-.348 1.8-.518.32-1.183.03-1.709-.277-1.616-.945-3.063-2.053-4.466-3.24a95.558 95.558 0 0 1-1.873-1.633 8.2 8.2 0 0 1-.279-.26c.224 1.988.465 3.976.723 5.961.179-.17.422-.283.659-.3 1.703-.823 5.063 2.325 5.895 3.239.716.785 1.99 2.278 1.678 3.467-.3 1.135-1.568.995-2.415.596-2.003-.944-4.365-2.5-5.494-4.574.257 1.878.529 3.753.816 5.626.451-.539 1.334-.515 2.031-.316 1.233.352 2.34 1.042 3.395 1.771 1.433.986 2.825 2.077 3.872 3.468.623.826 1.13 1.828 1.012 2.854-.102.867-.797 1.725-1.695 1.822-.829.088-1.715-.53-2.397-1.004l-.144-.1a15.513 15.513 0 0 1-2.054-1.728c-.808-.796-1.558-1.66-2.295-2.513-.469-.542-.942-1.09-1.324-1.692.387 2.412.799 4.82 1.236 7.225a1.08 1.08 0 0 1 .536-.2c1.703-.822 5.063 2.326 5.895 3.24.716.784 1.99 2.278 1.678 3.467-.301 1.135-1.568.995-2.415.596-1.797-.849-3.882-2.189-5.108-3.952.316 1.654.643 3.306.982 4.956.127-.262.324-.483.589-.614.414-.205.905-.16 1.355-.062 1.947.426 3.562 1.76 4.962 3.178 1.108 1.121 2.159 2.366 2.624 3.87.193.63.211 1.452-.349 1.8-.518.32-1.183.03-1.709-.277-1.616-.945-3.063-2.053-4.465-3.24a85.159 85.159 0 0 1-1.874-1.636 6.356 6.356 0 0 1-.638-.647c.452 2.125.923 4.247 1.413 6.364.479-.261 1.153-.214 1.709-.055 1.234.352 2.34 1.042 3.395 1.77 1.433.987 2.825 2.077 3.872 3.468.623.826 1.13 1.828 1.012 2.855-.101.867-.797 1.725-1.695 1.821-.829.088-1.715-.529-2.396-1.003l-.145-.1a15.449 15.449 0 0 1-2.053-1.728c-.809-.797-1.559-1.663-2.296-2.514a38.132 38.132 0 0 1-.459-.537 355.216 355.216 0 0 0 1.54 6.095c1.466.366 2.031 3.21 2.276 4.446l.009.046c.011.052.013.103.015.15.32 1.063.512 2.17.68 3.228.191 1.206.531 4.195-1.578 3.904-.771-.106-1.164-.716-1.454-1.373-.553-1.245-1.03-2.555-1.343-3.879-.415-1.762-.833-4.396.17-6.039.042-.07.089-.132.139-.188-.306-1.17-.608-2.342-.903-3.515-.233.843-.728 1.548-1.228 2.26-.208.296-.417.593-.608.902-.143.232-.282.465-.419.698-.534.9-1.058 1.785-1.844 2.466a4.542 4.542 0 0 1-.714.513c-.67.394-1.549.599-2.206.185-.798-.503-.874-1.662-.59-2.561.389-1.231 1.245-2.253 2.085-3.233.839-.98 1.693-1.965 2.724-2.741.416-.313.878-.597 1.394-.669.302-.042.627.004.898.14a361.86 361.86 0 0 1-1.533-6.503 14.21 14.21 0 0 1-2.456 3.595l-.107.115c-.268.29-.574.622-.907.955-.733.73-1.589 1.543-2.606 1.827-.707.197-1.61-.093-1.821-.799-.14-.471.058-.974.269-1.422a22.479 22.479 0 0 1 3.964-5.814c.547-.58 1.158-1.154 1.926-1.369a2.049 2.049 0 0 1 1.092.001c-.296-1.363-.584-2.729-.863-4.096l-.052-.255c-1.008 2.556-3.384 4.808-5.779 5.944l-.096.045c-.506.224-1.094.37-1.569.107-.473-.264-.674-.864-.612-1.401.062-.537.335-1.023.617-1.483 1.234-2.011 2.753-3.859 4.562-5.373.646-.54 1.527-1.052 2.284-.81a352.98 352.98 0 0 1-.937-4.993c-.857 2.161-2.564 4.051-4.455 5.275-.598.385-1.335.726-2 .475a1.146 1.146 0 0 1-.264-.136c-.364-.245-.606-.665-.692-1.1-.105-.53-.011-1.086.141-1.608.853-2.967 3.343-5.152 5.874-6.919a2.94 2.94 0 0 1 .636-.355 355.494 355.494 0 0 1-.719-4.47c-.829 2.526-2.896 4.694-5.152 5.968-.622.352-1.375.645-2.026.355a1.29 1.29 0 0 1-.255-.153c-.348-.263-.564-.698-.621-1.142-.073-.54.057-1.087.239-1.6 1.03-2.906 3.647-4.938 6.28-6.55.309-.188.667-.378 1.014-.369-.304-2.1-.588-4.203-.854-6.308-1.004 2.562-3.385 4.82-5.784 5.959l-.096.044c-.506.225-1.094.37-1.569.107-.473-.263-.674-.864-.612-1.4.062-.538.335-1.024.617-1.484 1.234-2.01 2.753-3.858 4.562-5.373.718-.6 1.728-1.166 2.535-.697-.27-2.281-.517-4.565-.743-6.85a14.319 14.319 0 0 1-2.295 3.266l-.107.116c-.268.29-.575.622-.908.954-.732.728-1.588 1.541-2.606 1.827-.707.197-1.609-.093-1.82-.798-.14-.472.058-.974.269-1.423a22.429 22.429 0 0 1 3.963-5.814c.548-.58 1.159-1.153 1.927-1.369a2.036 2.036 0 0 1 1.278.065 360.726 360.726 0 0 1-1.426-28.62 385.586 385.586 0 0 1-2.019-3.185c-.385-.614.61-1.14.992-.53.336.535.674 1.07 1.012 1.605l-.003-1.17c-.001-.726 1.121-.643 1.123.076.001.957.006 1.915.014 2.872a357.753 357.753 0 0 0 13.045 18.963c.027-.073.061-.143.103-.211.242-.395.682-.617 1.116-.772 1.877-.67 3.953-.396 5.892.064 1.533.362 3.084.86 4.275 1.889.498.432.949 1.12.659 1.711-.27.546-.988.652-1.597.671-1.871.055-3.685-.117-5.503-.38-.817-.12-1.632-.255-2.455-.392a6.902 6.902 0 0 1-.683-.15 350.376 350.376 0 0 0 3.819 4.998c.016-.032.033-.062.052-.093.242-.394.681-.616 1.115-.771 1.877-.671 3.954-.396 5.893.064 1.533.361 3.084.86 4.274 1.888.499.432.949 1.12.659 1.712-.269.546-.988.652-1.596.67-1.871.056-3.686-.116-5.504-.38a93.645 93.645 0 0 1-2.454-.392 7.995 7.995 0 0 1-.375-.072 366.182 366.182 0 0 0 3.773 4.672c.063-.24.208-.464.401-.604 1.007-1.6 5.525-.713 6.715-.379 1.023.286 2.895.877 3.26 2.05.348 1.123-.801 1.676-1.731 1.787-2.198.26-5.026.193-7.083-.967a357.266 357.266 0 0 0 3.674 4.338c.097-.696.858-1.144 1.555-1.344 1.232-.356 2.536-.357 3.817-.298 1.738.076 3.496.263 5.121.887.967.37 1.927.951 2.372 1.885.373.789.238 1.885-.472 2.442-.656.514-1.735.461-2.564.42l-.176-.008a15.492 15.492 0 0 1-2.657-.377c-1.107-.247-2.201-.581-3.279-.915-.684-.21-1.376-.424-2.019-.732a354.521 354.521 0 0 0 4.878 5.471c.075-.18.198-.342.349-.453 1.008-1.6 5.526-.713 6.715-.378 1.023.285 2.896.877 3.261 2.05.347 1.122-.802 1.675-1.732 1.786-1.973.232-4.452.202-6.425-.644a351.355 351.355 0 0 0 3.459 3.682c-.031-.29.019-.58.174-.832.242-.395.682-.617 1.116-.772 1.877-.67 3.953-.396 5.893.064 1.533.364 3.085.862 4.275 1.891.499.432.949 1.12.659 1.711-.269.546-.988.653-1.596.672-1.871.055-3.686-.118-5.504-.38a85.497 85.497 0 0 1-2.456-.395 6.262 6.262 0 0 1-.883-.21 361.482 361.482 0 0 0 4.57 4.647c.268-.475.865-.793 1.421-.953 1.233-.355 2.536-.356 3.818-.298 1.737.077 3.495.263 5.121.888.966.37 1.927.95 2.371 1.884.374.79.238 1.885-.471 2.443-.657.514-1.735.46-2.564.42l-.176-.009a15.478 15.478 0 0 1-2.657-.376c-1.108-.247-2.203-.584-3.279-.915-.225-.07-.45-.139-.674-.212a356.179 356.179 0 0 0 4.536 4.352c1.437-.467 3.424 1.645 4.287 2.563l.033.035c.036.038.065.08.092.12.834.73 1.584 1.567 2.287 2.375.801.921 2.674 3.276.732 4.148-.71.318-1.367.009-1.961-.394-1.128-.763-2.227-1.62-3.195-2.577-1.286-1.274-3.037-3.286-3.057-5.211-.001-.082.005-.16.018-.234Z" clip-rule="evenodd"/></g><defs><clipPath id="a"><path fill="#fff" d="M0 0h812v375H0z"/></clipPath></defs></svg>