<svg xmlns="http://www.w3.org/2000/svg" width="86" height="47" fill="none" viewBox="0 0 86 47"><g clip-path="url(#a)"><rect width="46.739" height="86" x="86" fill="#002007" rx="9.457" transform="rotate(90 86 0)"/><path fill="#002007" d="M8.924 42.064a3.783 3.783 0 0 1-3.782-3.782V8.457a3.784 3.784 0 0 1 3.782-3.784h68.62a3.783 3.783 0 0 1 3.782 3.783v29.826a3.783 3.783 0 0 1-3.782 3.782H8.924Z"/><path fill="#66994D" d="M5.142 30.705h.5-.5Zm76.184 7.577h.5-.5Zm-3.782 3.782v-.5.5Zm0-37.39v-.5.5Zm3.782 3.782h-.5.5ZM8.924 4.673v.5-.5Zm0 37.391v.5-.5Zm-3.782-3.782h-.5.5ZM8.924 5.173h68.62v-1H8.924v1Zm71.902 3.283v29.826h1V8.456h-1Zm-3.282 33.108H8.924v1h68.62v-1ZM5.642 38.282v-7.577h-1v7.577h1Zm0-7.577V8.457h-1V30.705h1Zm75.184 7.577a3.283 3.283 0 0 1-3.282 3.282v1a4.283 4.283 0 0 0 4.282-4.282h-1ZM77.544 5.173a3.283 3.283 0 0 1 3.282 3.283h1a4.283 4.283 0 0 0-4.282-4.283v1Zm-68.62-1a4.284 4.284 0 0 0-4.282 4.284h1a3.284 3.284 0 0 1 3.282-3.284v-1Zm0 37.391a3.283 3.283 0 0 1-3.282-3.282h-1a4.283 4.283 0 0 0 4.282 4.282v-1Z"/></g><defs><clipPath id="a"><rect width="46.739" height="86" x="86" fill="#fff" rx="9.457" transform="rotate(90 86 0)"/></clipPath></defs></svg>